%TF.GenerationSoftware,KiCad,Pcbnew,5.1.10-88a1d61d58~90~ubuntu20.04.1*%
%TF.CreationDate,2021-08-22T20:49:50-06:00*%
%TF.ProjectId,Crazyflie contol board,4372617a-7966-46c6-9965-20636f6e746f,F*%
%TF.SameCoordinates,PX85839e8PY6052f5c*%
%TF.FileFunction,Copper,L2,Inr*%
%TF.FilePolarity,Positive*%
%FSLAX46Y46*%
G04 Gerber Fmt 4.6, Leading zero omitted, Abs format (unit mm)*
G04 Created by KiCad (PCBNEW 5.1.10-88a1d61d58~90~ubuntu20.04.1) date 2021-08-22 20:49:50*
%MOMM*%
%LPD*%
G01*
G04 APERTURE LIST*
%ADD10C,0.020000*%
%ADD11C,0.150000*%
%ADD12C,0.300000*%
%ADD13C,0.400000*%
%TA.AperFunction,NonConductor*%
%ADD14C,0.200025*%
%TD*%
%TA.AperFunction,NonConductor*%
%ADD15C,0.200660*%
%TD*%
%TA.AperFunction,ComponentPad*%
%ADD16C,1.800860*%
%TD*%
%TA.AperFunction,ComponentPad*%
%ADD17O,1.600200X1.198880*%
%TD*%
%TA.AperFunction,ComponentPad*%
%ADD18R,1.399540X1.000760*%
%TD*%
%TA.AperFunction,ComponentPad*%
%ADD19O,1.399540X1.000760*%
%TD*%
%TA.AperFunction,ComponentPad*%
%ADD20O,1.198880X0.800100*%
%TD*%
%TA.AperFunction,ComponentPad*%
%ADD21R,1.198880X0.800100*%
%TD*%
%TA.AperFunction,Conductor*%
%ADD22R,1.699260X1.699260*%
%TD*%
%TA.AperFunction,ComponentPad*%
%ADD23C,0.381000*%
%TD*%
%TA.AperFunction,ComponentPad*%
%ADD24R,1.198880X1.600200*%
%TD*%
%TA.AperFunction,ComponentPad*%
%ADD25O,1.198880X1.600200*%
%TD*%
%TA.AperFunction,ViaPad*%
%ADD26C,0.635000*%
%TD*%
%TA.AperFunction,Conductor*%
%ADD27C,0.254000*%
%TD*%
%TA.AperFunction,Conductor*%
%ADD28C,0.020000*%
%TD*%
G04 APERTURE END LIST*
D10*
D11*
X37002480Y-65004100D02*
X37002480Y-97004100D01*
X145002480Y-97004100D01*
X145002480Y-65004100D01*
X37002480Y-65004100D01*
D10*
D11*
X-129999720Y91003100D02*
X-129999720Y-99004100D01*
X147002480Y-99004100D01*
X147002480Y91003100D01*
X-129999720Y91003100D01*
D10*
D11*
X-127999720Y89003100D02*
X-127999720Y-97004100D01*
X145002480Y-97004100D01*
X145002480Y89003100D01*
X-127999720Y89003100D01*
D10*
D11*
X-79999720Y89003100D02*
X-79999720Y91003100D01*
D10*
D11*
X-29999720Y89003100D02*
X-29999720Y91003100D01*
D10*
D11*
X20000280Y89003100D02*
X20000280Y91003100D01*
D10*
D11*
X70000280Y89003100D02*
X70000280Y91003100D01*
D10*
D11*
X120000280Y89003100D02*
X120000280Y91003100D01*
D10*
D11*
X-103934244Y89415005D02*
X-104677101Y89415005D01*
X-104305673Y89415005D02*
X-104305673Y90715005D01*
X-104429482Y90529291D01*
X-104553292Y90405481D01*
X-104677101Y90343577D01*
D10*
D11*
X-54677101Y90591196D02*
X-54615197Y90653100D01*
X-54491387Y90715005D01*
X-54181863Y90715005D01*
X-54058054Y90653100D01*
X-53996149Y90591196D01*
X-53934244Y90467386D01*
X-53934244Y90343577D01*
X-53996149Y90157862D01*
X-54739006Y89415005D01*
X-53934244Y89415005D01*
D10*
D11*
X-4739006Y90715005D02*
X-3934244Y90715005D01*
X-4367578Y90219767D01*
X-4181863Y90219767D01*
X-4058054Y90157862D01*
X-3996149Y90095958D01*
X-3934244Y89972148D01*
X-3934244Y89662624D01*
X-3996149Y89538815D01*
X-4058054Y89476910D01*
X-4181863Y89415005D01*
X-4553292Y89415005D01*
X-4677101Y89476910D01*
X-4739006Y89538815D01*
D10*
D11*
X45941946Y90281672D02*
X45941946Y89415005D01*
X45632422Y90776910D02*
X45322899Y89848339D01*
X46127660Y89848339D01*
D10*
D11*
X96003851Y90715005D02*
X95384803Y90715005D01*
X95322899Y90095958D01*
X95384803Y90157862D01*
X95508613Y90219767D01*
X95818137Y90219767D01*
X95941946Y90157862D01*
X96003851Y90095958D01*
X96065756Y89972148D01*
X96065756Y89662624D01*
X96003851Y89538815D01*
X95941946Y89476910D01*
X95818137Y89415005D01*
X95508613Y89415005D01*
X95384803Y89476910D01*
X95322899Y89538815D01*
D10*
D11*
X145941946Y90715005D02*
X145694327Y90715005D01*
X145570518Y90653100D01*
X145508613Y90591196D01*
X145384803Y90405481D01*
X145322899Y90157862D01*
X145322899Y89662624D01*
X145384803Y89538815D01*
X145446708Y89476910D01*
X145570518Y89415005D01*
X145818137Y89415005D01*
X145941946Y89476910D01*
X146003851Y89538815D01*
X146065756Y89662624D01*
X146065756Y89972148D01*
X146003851Y90095958D01*
X145941946Y90157862D01*
X145818137Y90219767D01*
X145570518Y90219767D01*
X145446708Y90157862D01*
X145384803Y90095958D01*
X145322899Y89972148D01*
D10*
D11*
X-79999720Y-97004100D02*
X-79999720Y-99004100D01*
D10*
D11*
X-29999720Y-97004100D02*
X-29999720Y-99004100D01*
D10*
D11*
X20000280Y-97004100D02*
X20000280Y-99004100D01*
D10*
D11*
X70000280Y-97004100D02*
X70000280Y-99004100D01*
D10*
D11*
X120000280Y-97004100D02*
X120000280Y-99004100D01*
D10*
D11*
X-103934244Y-98592195D02*
X-104677101Y-98592195D01*
X-104305673Y-98592195D02*
X-104305673Y-97292195D01*
X-104429482Y-97477909D01*
X-104553292Y-97601719D01*
X-104677101Y-97663623D01*
D10*
D11*
X-54677101Y-97416004D02*
X-54615197Y-97354100D01*
X-54491387Y-97292195D01*
X-54181863Y-97292195D01*
X-54058054Y-97354100D01*
X-53996149Y-97416004D01*
X-53934244Y-97539814D01*
X-53934244Y-97663623D01*
X-53996149Y-97849338D01*
X-54739006Y-98592195D01*
X-53934244Y-98592195D01*
D10*
D11*
X-4739006Y-97292195D02*
X-3934244Y-97292195D01*
X-4367578Y-97787433D01*
X-4181863Y-97787433D01*
X-4058054Y-97849338D01*
X-3996149Y-97911242D01*
X-3934244Y-98035052D01*
X-3934244Y-98344576D01*
X-3996149Y-98468385D01*
X-4058054Y-98530290D01*
X-4181863Y-98592195D01*
X-4553292Y-98592195D01*
X-4677101Y-98530290D01*
X-4739006Y-98468385D01*
D10*
D11*
X45941946Y-97725528D02*
X45941946Y-98592195D01*
X45632422Y-97230290D02*
X45322899Y-98158861D01*
X46127660Y-98158861D01*
D10*
D11*
X96003851Y-97292195D02*
X95384803Y-97292195D01*
X95322899Y-97911242D01*
X95384803Y-97849338D01*
X95508613Y-97787433D01*
X95818137Y-97787433D01*
X95941946Y-97849338D01*
X96003851Y-97911242D01*
X96065756Y-98035052D01*
X96065756Y-98344576D01*
X96003851Y-98468385D01*
X95941946Y-98530290D01*
X95818137Y-98592195D01*
X95508613Y-98592195D01*
X95384803Y-98530290D01*
X95322899Y-98468385D01*
D10*
D11*
X145941946Y-97292195D02*
X145694327Y-97292195D01*
X145570518Y-97354100D01*
X145508613Y-97416004D01*
X145384803Y-97601719D01*
X145322899Y-97849338D01*
X145322899Y-98344576D01*
X145384803Y-98468385D01*
X145446708Y-98530290D01*
X145570518Y-98592195D01*
X145818137Y-98592195D01*
X145941946Y-98530290D01*
X146003851Y-98468385D01*
X146065756Y-98344576D01*
X146065756Y-98035052D01*
X146003851Y-97911242D01*
X145941946Y-97849338D01*
X145818137Y-97787433D01*
X145570518Y-97787433D01*
X145446708Y-97849338D01*
X145384803Y-97911242D01*
X145322899Y-98035052D01*
D10*
D11*
X-129999720Y41003100D02*
X-127999720Y41003100D01*
D10*
D11*
X-129999720Y-8996900D02*
X-127999720Y-8996900D01*
D10*
D11*
X-129999720Y-58996900D02*
X-127999720Y-58996900D01*
D10*
D11*
X-129309244Y65786434D02*
X-128690197Y65786434D01*
X-129433054Y65415005D02*
X-128999720Y66715005D01*
X-128566387Y65415005D01*
D10*
D11*
X-128906863Y16095958D02*
X-128721149Y16034053D01*
X-128659244Y15972148D01*
X-128597340Y15848339D01*
X-128597340Y15662624D01*
X-128659244Y15538815D01*
X-128721149Y15476910D01*
X-128844959Y15415005D01*
X-129340197Y15415005D01*
X-129340197Y16715005D01*
X-128906863Y16715005D01*
X-128783054Y16653100D01*
X-128721149Y16591196D01*
X-128659244Y16467386D01*
X-128659244Y16343577D01*
X-128721149Y16219767D01*
X-128783054Y16157862D01*
X-128906863Y16095958D01*
X-129340197Y16095958D01*
D10*
D11*
X-128597340Y-34461185D02*
X-128659244Y-34523090D01*
X-128844959Y-34584995D01*
X-128968768Y-34584995D01*
X-129154482Y-34523090D01*
X-129278292Y-34399280D01*
X-129340197Y-34275471D01*
X-129402101Y-34027852D01*
X-129402101Y-33842138D01*
X-129340197Y-33594519D01*
X-129278292Y-33470709D01*
X-129154482Y-33346900D01*
X-128968768Y-33284995D01*
X-128844959Y-33284995D01*
X-128659244Y-33346900D01*
X-128597340Y-33408804D01*
D10*
D11*
X-129340197Y-84584995D02*
X-129340197Y-83284995D01*
X-129030673Y-83284995D01*
X-128844959Y-83346900D01*
X-128721149Y-83470709D01*
X-128659244Y-83594519D01*
X-128597340Y-83842138D01*
X-128597340Y-84027852D01*
X-128659244Y-84275471D01*
X-128721149Y-84399280D01*
X-128844959Y-84523090D01*
X-129030673Y-84584995D01*
X-129340197Y-84584995D01*
D10*
D11*
X147002480Y41003100D02*
X145002480Y41003100D01*
D10*
D11*
X147002480Y-8996900D02*
X145002480Y-8996900D01*
D10*
D11*
X147002480Y-58996900D02*
X145002480Y-58996900D01*
D10*
D11*
X145692956Y65786434D02*
X146312003Y65786434D01*
X145569146Y65415005D02*
X146002480Y66715005D01*
X146435813Y65415005D01*
D10*
D11*
X146095337Y16095958D02*
X146281051Y16034053D01*
X146342956Y15972148D01*
X146404860Y15848339D01*
X146404860Y15662624D01*
X146342956Y15538815D01*
X146281051Y15476910D01*
X146157241Y15415005D01*
X145662003Y15415005D01*
X145662003Y16715005D01*
X146095337Y16715005D01*
X146219146Y16653100D01*
X146281051Y16591196D01*
X146342956Y16467386D01*
X146342956Y16343577D01*
X146281051Y16219767D01*
X146219146Y16157862D01*
X146095337Y16095958D01*
X145662003Y16095958D01*
D10*
D11*
X146404860Y-34461185D02*
X146342956Y-34523090D01*
X146157241Y-34584995D01*
X146033432Y-34584995D01*
X145847718Y-34523090D01*
X145723908Y-34399280D01*
X145662003Y-34275471D01*
X145600099Y-34027852D01*
X145600099Y-33842138D01*
X145662003Y-33594519D01*
X145723908Y-33470709D01*
X145847718Y-33346900D01*
X146033432Y-33284995D01*
X146157241Y-33284995D01*
X146342956Y-33346900D01*
X146404860Y-33408804D01*
D10*
D11*
X145662003Y-84584995D02*
X145662003Y-83284995D01*
X145971527Y-83284995D01*
X146157241Y-83346900D01*
X146281051Y-83470709D01*
X146342956Y-83594519D01*
X146404860Y-83842138D01*
X146404860Y-84027852D01*
X146342956Y-84275471D01*
X146281051Y-84399280D01*
X146157241Y-84523090D01*
X145971527Y-84584995D01*
X145662003Y-84584995D01*
D10*
D11*
X60434622Y-92782671D02*
X60434622Y-91282671D01*
X60791765Y-91282671D01*
X61006051Y-91354100D01*
X61148908Y-91496957D01*
X61220337Y-91639814D01*
X61291765Y-91925528D01*
X61291765Y-92139814D01*
X61220337Y-92425528D01*
X61148908Y-92568385D01*
X61006051Y-92711242D01*
X60791765Y-92782671D01*
X60434622Y-92782671D01*
X62577480Y-92782671D02*
X62577480Y-91996957D01*
X62506051Y-91854100D01*
X62363194Y-91782671D01*
X62077480Y-91782671D01*
X61934622Y-91854100D01*
X62577480Y-92711242D02*
X62434622Y-92782671D01*
X62077480Y-92782671D01*
X61934622Y-92711242D01*
X61863194Y-92568385D01*
X61863194Y-92425528D01*
X61934622Y-92282671D01*
X62077480Y-92211242D01*
X62434622Y-92211242D01*
X62577480Y-92139814D01*
X63077480Y-91782671D02*
X63648908Y-91782671D01*
X63291765Y-91282671D02*
X63291765Y-92568385D01*
X63363194Y-92711242D01*
X63506051Y-92782671D01*
X63648908Y-92782671D01*
X64720337Y-92711242D02*
X64577480Y-92782671D01*
X64291765Y-92782671D01*
X64148908Y-92711242D01*
X64077480Y-92568385D01*
X64077480Y-91996957D01*
X64148908Y-91854100D01*
X64291765Y-91782671D01*
X64577480Y-91782671D01*
X64720337Y-91854100D01*
X64791765Y-91996957D01*
X64791765Y-92139814D01*
X64077480Y-92282671D01*
X65434622Y-92639814D02*
X65506051Y-92711242D01*
X65434622Y-92782671D01*
X65363194Y-92711242D01*
X65434622Y-92639814D01*
X65434622Y-92782671D01*
X65434622Y-91854100D02*
X65506051Y-91925528D01*
X65434622Y-91996957D01*
X65363194Y-91925528D01*
X65434622Y-91854100D01*
X65434622Y-91996957D01*
X67220337Y-91425528D02*
X67291765Y-91354100D01*
X67434622Y-91282671D01*
X67791765Y-91282671D01*
X67934622Y-91354100D01*
X68006051Y-91425528D01*
X68077480Y-91568385D01*
X68077480Y-91711242D01*
X68006051Y-91925528D01*
X67148908Y-92782671D01*
X68077480Y-92782671D01*
X69006051Y-91282671D02*
X69148908Y-91282671D01*
X69291765Y-91354100D01*
X69363194Y-91425528D01*
X69434622Y-91568385D01*
X69506051Y-91854100D01*
X69506051Y-92211242D01*
X69434622Y-92496957D01*
X69363194Y-92639814D01*
X69291765Y-92711242D01*
X69148908Y-92782671D01*
X69006051Y-92782671D01*
X68863194Y-92711242D01*
X68791765Y-92639814D01*
X68720337Y-92496957D01*
X68648908Y-92211242D01*
X68648908Y-91854100D01*
X68720337Y-91568385D01*
X68791765Y-91425528D01*
X68863194Y-91354100D01*
X69006051Y-91282671D01*
X70077480Y-91425528D02*
X70148908Y-91354100D01*
X70291765Y-91282671D01*
X70648908Y-91282671D01*
X70791765Y-91354100D01*
X70863194Y-91425528D01*
X70934622Y-91568385D01*
X70934622Y-91711242D01*
X70863194Y-91925528D01*
X70006051Y-92782671D01*
X70934622Y-92782671D01*
X72363194Y-92782671D02*
X71506051Y-92782671D01*
X71934622Y-92782671D02*
X71934622Y-91282671D01*
X71791765Y-91496957D01*
X71648908Y-91639814D01*
X71506051Y-91711242D01*
X73006051Y-92211242D02*
X74148908Y-92211242D01*
X75148908Y-91282671D02*
X75291765Y-91282671D01*
X75434622Y-91354100D01*
X75506051Y-91425528D01*
X75577480Y-91568385D01*
X75648908Y-91854100D01*
X75648908Y-92211242D01*
X75577480Y-92496957D01*
X75506051Y-92639814D01*
X75434622Y-92711242D01*
X75291765Y-92782671D01*
X75148908Y-92782671D01*
X75006051Y-92711242D01*
X74934622Y-92639814D01*
X74863194Y-92496957D01*
X74791765Y-92211242D01*
X74791765Y-91854100D01*
X74863194Y-91568385D01*
X74934622Y-91425528D01*
X75006051Y-91354100D01*
X75148908Y-91282671D01*
X76506051Y-91925528D02*
X76363194Y-91854100D01*
X76291765Y-91782671D01*
X76220337Y-91639814D01*
X76220337Y-91568385D01*
X76291765Y-91425528D01*
X76363194Y-91354100D01*
X76506051Y-91282671D01*
X76791765Y-91282671D01*
X76934622Y-91354100D01*
X77006051Y-91425528D01*
X77077480Y-91568385D01*
X77077480Y-91639814D01*
X77006051Y-91782671D01*
X76934622Y-91854100D01*
X76791765Y-91925528D01*
X76506051Y-91925528D01*
X76363194Y-91996957D01*
X76291765Y-92068385D01*
X76220337Y-92211242D01*
X76220337Y-92496957D01*
X76291765Y-92639814D01*
X76363194Y-92711242D01*
X76506051Y-92782671D01*
X76791765Y-92782671D01*
X76934622Y-92711242D01*
X77006051Y-92639814D01*
X77077480Y-92496957D01*
X77077480Y-92211242D01*
X77006051Y-92068385D01*
X76934622Y-91996957D01*
X76791765Y-91925528D01*
X77720337Y-92211242D02*
X78863194Y-92211242D01*
X79863194Y-91282671D02*
X80006051Y-91282671D01*
X80148908Y-91354100D01*
X80220337Y-91425528D01*
X80291765Y-91568385D01*
X80363194Y-91854100D01*
X80363194Y-92211242D01*
X80291765Y-92496957D01*
X80220337Y-92639814D01*
X80148908Y-92711242D01*
X80006051Y-92782671D01*
X79863194Y-92782671D01*
X79720337Y-92711242D01*
X79648908Y-92639814D01*
X79577480Y-92496957D01*
X79506051Y-92211242D01*
X79506051Y-91854100D01*
X79577480Y-91568385D01*
X79648908Y-91425528D01*
X79720337Y-91354100D01*
X79863194Y-91282671D01*
X81077480Y-92782671D02*
X81363194Y-92782671D01*
X81506051Y-92711242D01*
X81577480Y-92639814D01*
X81720337Y-92425528D01*
X81791765Y-92139814D01*
X81791765Y-91568385D01*
X81720337Y-91425528D01*
X81648908Y-91354100D01*
X81506051Y-91282671D01*
X81220337Y-91282671D01*
X81077480Y-91354100D01*
X81006051Y-91425528D01*
X80934622Y-91568385D01*
X80934622Y-91925528D01*
X81006051Y-92068385D01*
X81077480Y-92139814D01*
X81220337Y-92211242D01*
X81506051Y-92211242D01*
X81648908Y-92139814D01*
X81720337Y-92068385D01*
X81791765Y-91925528D01*
D10*
D11*
X37002480Y-93504100D02*
X145002480Y-93504100D01*
D10*
D11*
X38434622Y-95582671D02*
X38434622Y-94082671D01*
X39291765Y-95582671D02*
X38648908Y-94725528D01*
X39291765Y-94082671D02*
X38434622Y-94939814D01*
X39934622Y-95582671D02*
X39934622Y-94582671D01*
X39934622Y-94082671D02*
X39863194Y-94154100D01*
X39934622Y-94225528D01*
X40006051Y-94154100D01*
X39934622Y-94082671D01*
X39934622Y-94225528D01*
X41506051Y-95439814D02*
X41434622Y-95511242D01*
X41220337Y-95582671D01*
X41077480Y-95582671D01*
X40863194Y-95511242D01*
X40720337Y-95368385D01*
X40648908Y-95225528D01*
X40577480Y-94939814D01*
X40577480Y-94725528D01*
X40648908Y-94439814D01*
X40720337Y-94296957D01*
X40863194Y-94154100D01*
X41077480Y-94082671D01*
X41220337Y-94082671D01*
X41434622Y-94154100D01*
X41506051Y-94225528D01*
X42791765Y-95582671D02*
X42791765Y-94796957D01*
X42720337Y-94654100D01*
X42577480Y-94582671D01*
X42291765Y-94582671D01*
X42148908Y-94654100D01*
X42791765Y-95511242D02*
X42648908Y-95582671D01*
X42291765Y-95582671D01*
X42148908Y-95511242D01*
X42077480Y-95368385D01*
X42077480Y-95225528D01*
X42148908Y-95082671D01*
X42291765Y-95011242D01*
X42648908Y-95011242D01*
X42791765Y-94939814D01*
X44148908Y-95582671D02*
X44148908Y-94082671D01*
X44148908Y-95511242D02*
X44006051Y-95582671D01*
X43720337Y-95582671D01*
X43577480Y-95511242D01*
X43506051Y-95439814D01*
X43434622Y-95296957D01*
X43434622Y-94868385D01*
X43506051Y-94725528D01*
X43577480Y-94654100D01*
X43720337Y-94582671D01*
X44006051Y-94582671D01*
X44148908Y-94654100D01*
X46006051Y-94796957D02*
X46506051Y-94796957D01*
X46720337Y-95582671D02*
X46006051Y-95582671D01*
X46006051Y-94082671D01*
X46720337Y-94082671D01*
X47363194Y-95439814D02*
X47434622Y-95511242D01*
X47363194Y-95582671D01*
X47291765Y-95511242D01*
X47363194Y-95439814D01*
X47363194Y-95582671D01*
X48077480Y-95582671D02*
X48077480Y-94082671D01*
X48434622Y-94082671D01*
X48648908Y-94154100D01*
X48791765Y-94296957D01*
X48863194Y-94439814D01*
X48934622Y-94725528D01*
X48934622Y-94939814D01*
X48863194Y-95225528D01*
X48791765Y-95368385D01*
X48648908Y-95511242D01*
X48434622Y-95582671D01*
X48077480Y-95582671D01*
X49577480Y-95439814D02*
X49648908Y-95511242D01*
X49577480Y-95582671D01*
X49506051Y-95511242D01*
X49577480Y-95439814D01*
X49577480Y-95582671D01*
X50220337Y-95154100D02*
X50934622Y-95154100D01*
X50077480Y-95582671D02*
X50577480Y-94082671D01*
X51077480Y-95582671D01*
X51577480Y-95439814D02*
X51648908Y-95511242D01*
X51577480Y-95582671D01*
X51506051Y-95511242D01*
X51577480Y-95439814D01*
X51577480Y-95582671D01*
X54577480Y-95582671D02*
X54577480Y-94082671D01*
X54720337Y-95011242D02*
X55148908Y-95582671D01*
X55148908Y-94582671D02*
X54577480Y-95154100D01*
X55791765Y-95582671D02*
X55791765Y-94582671D01*
X55791765Y-94082671D02*
X55720337Y-94154100D01*
X55791765Y-94225528D01*
X55863194Y-94154100D01*
X55791765Y-94082671D01*
X55791765Y-94225528D01*
X57148908Y-95511242D02*
X57006051Y-95582671D01*
X56720337Y-95582671D01*
X56577480Y-95511242D01*
X56506051Y-95439814D01*
X56434622Y-95296957D01*
X56434622Y-94868385D01*
X56506051Y-94725528D01*
X56577480Y-94654100D01*
X56720337Y-94582671D01*
X57006051Y-94582671D01*
X57148908Y-94654100D01*
X58434622Y-95582671D02*
X58434622Y-94796957D01*
X58363194Y-94654100D01*
X58220337Y-94582671D01*
X57934622Y-94582671D01*
X57791765Y-94654100D01*
X58434622Y-95511242D02*
X58291765Y-95582671D01*
X57934622Y-95582671D01*
X57791765Y-95511242D01*
X57720337Y-95368385D01*
X57720337Y-95225528D01*
X57791765Y-95082671D01*
X57934622Y-95011242D01*
X58291765Y-95011242D01*
X58434622Y-94939814D01*
X59791765Y-95582671D02*
X59791765Y-94082671D01*
X59791765Y-95511242D02*
X59648908Y-95582671D01*
X59363194Y-95582671D01*
X59220337Y-95511242D01*
X59148908Y-95439814D01*
X59077480Y-95296957D01*
X59077480Y-94868385D01*
X59148908Y-94725528D01*
X59220337Y-94654100D01*
X59363194Y-94582671D01*
X59648908Y-94582671D01*
X59791765Y-94654100D01*
X62363194Y-94082671D02*
X61648908Y-94082671D01*
X61577480Y-94796957D01*
X61648908Y-94725528D01*
X61791765Y-94654100D01*
X62148908Y-94654100D01*
X62291765Y-94725528D01*
X62363194Y-94796957D01*
X62434622Y-94939814D01*
X62434622Y-95296957D01*
X62363194Y-95439814D01*
X62291765Y-95511242D01*
X62148908Y-95582671D01*
X61791765Y-95582671D01*
X61648908Y-95511242D01*
X61577480Y-95439814D01*
X63077480Y-95439814D02*
X63148908Y-95511242D01*
X63077480Y-95582671D01*
X63006051Y-95511242D01*
X63077480Y-95439814D01*
X63077480Y-95582671D01*
X64577480Y-95582671D02*
X63720337Y-95582671D01*
X64148908Y-95582671D02*
X64148908Y-94082671D01*
X64006051Y-94296957D01*
X63863194Y-94439814D01*
X63720337Y-94511242D01*
X65220337Y-95439814D02*
X65291765Y-95511242D01*
X65220337Y-95582671D01*
X65148908Y-95511242D01*
X65220337Y-95439814D01*
X65220337Y-95582671D01*
X66720337Y-95582671D02*
X65863194Y-95582671D01*
X66291765Y-95582671D02*
X66291765Y-94082671D01*
X66148908Y-94296957D01*
X66006051Y-94439814D01*
X65863194Y-94511242D01*
X67648908Y-94082671D02*
X67791765Y-94082671D01*
X67934622Y-94154100D01*
X68006051Y-94225528D01*
X68077480Y-94368385D01*
X68148908Y-94654100D01*
X68148908Y-95011242D01*
X68077480Y-95296957D01*
X68006051Y-95439814D01*
X67934622Y-95511242D01*
X67791765Y-95582671D01*
X67648908Y-95582671D01*
X67506051Y-95511242D01*
X67434622Y-95439814D01*
X67363194Y-95296957D01*
X67291765Y-95011242D01*
X67291765Y-94654100D01*
X67363194Y-94368385D01*
X67434622Y-94225528D01*
X67506051Y-94154100D01*
X67648908Y-94082671D01*
X68791765Y-95011242D02*
X69934622Y-95011242D01*
X70863194Y-94725528D02*
X70720337Y-94654100D01*
X70648908Y-94582671D01*
X70577480Y-94439814D01*
X70577480Y-94368385D01*
X70648908Y-94225528D01*
X70720337Y-94154100D01*
X70863194Y-94082671D01*
X71148908Y-94082671D01*
X71291765Y-94154100D01*
X71363194Y-94225528D01*
X71434622Y-94368385D01*
X71434622Y-94439814D01*
X71363194Y-94582671D01*
X71291765Y-94654100D01*
X71148908Y-94725528D01*
X70863194Y-94725528D01*
X70720337Y-94796957D01*
X70648908Y-94868385D01*
X70577480Y-95011242D01*
X70577480Y-95296957D01*
X70648908Y-95439814D01*
X70720337Y-95511242D01*
X70863194Y-95582671D01*
X71148908Y-95582671D01*
X71291765Y-95511242D01*
X71363194Y-95439814D01*
X71434622Y-95296957D01*
X71434622Y-95011242D01*
X71363194Y-94868385D01*
X71291765Y-94796957D01*
X71148908Y-94725528D01*
X72291765Y-94725528D02*
X72148908Y-94654100D01*
X72077480Y-94582671D01*
X72006051Y-94439814D01*
X72006051Y-94368385D01*
X72077480Y-94225528D01*
X72148908Y-94154100D01*
X72291765Y-94082671D01*
X72577480Y-94082671D01*
X72720337Y-94154100D01*
X72791765Y-94225528D01*
X72863194Y-94368385D01*
X72863194Y-94439814D01*
X72791765Y-94582671D01*
X72720337Y-94654100D01*
X72577480Y-94725528D01*
X72291765Y-94725528D01*
X72148908Y-94796957D01*
X72077480Y-94868385D01*
X72006051Y-95011242D01*
X72006051Y-95296957D01*
X72077480Y-95439814D01*
X72148908Y-95511242D01*
X72291765Y-95582671D01*
X72577480Y-95582671D01*
X72720337Y-95511242D01*
X72791765Y-95439814D01*
X72863194Y-95296957D01*
X72863194Y-95011242D01*
X72791765Y-94868385D01*
X72720337Y-94796957D01*
X72577480Y-94725528D01*
X74148908Y-95582671D02*
X74148908Y-94796957D01*
X74077480Y-94654100D01*
X73934622Y-94582671D01*
X73648908Y-94582671D01*
X73506051Y-94654100D01*
X74148908Y-95511242D02*
X74006051Y-95582671D01*
X73648908Y-95582671D01*
X73506051Y-95511242D01*
X73434622Y-95368385D01*
X73434622Y-95225528D01*
X73506051Y-95082671D01*
X73648908Y-95011242D01*
X74006051Y-95011242D01*
X74148908Y-94939814D01*
X75648908Y-95582671D02*
X74791765Y-95582671D01*
X75220337Y-95582671D02*
X75220337Y-94082671D01*
X75077480Y-94296957D01*
X74934622Y-94439814D01*
X74791765Y-94511242D01*
X76934622Y-95582671D02*
X76934622Y-94082671D01*
X76934622Y-95511242D02*
X76791765Y-95582671D01*
X76506051Y-95582671D01*
X76363194Y-95511242D01*
X76291765Y-95439814D01*
X76220337Y-95296957D01*
X76220337Y-94868385D01*
X76291765Y-94725528D01*
X76363194Y-94654100D01*
X76506051Y-94582671D01*
X76791765Y-94582671D01*
X76934622Y-94654100D01*
X78291765Y-94082671D02*
X78006051Y-94082671D01*
X77863194Y-94154100D01*
X77791765Y-94225528D01*
X77648908Y-94439814D01*
X77577480Y-94725528D01*
X77577480Y-95296957D01*
X77648908Y-95439814D01*
X77720337Y-95511242D01*
X77863194Y-95582671D01*
X78148908Y-95582671D01*
X78291765Y-95511242D01*
X78363194Y-95439814D01*
X78434622Y-95296957D01*
X78434622Y-94939814D01*
X78363194Y-94796957D01*
X78291765Y-94725528D01*
X78148908Y-94654100D01*
X77863194Y-94654100D01*
X77720337Y-94725528D01*
X77648908Y-94796957D01*
X77577480Y-94939814D01*
X79863194Y-95582671D02*
X79006051Y-95582671D01*
X79434622Y-95582671D02*
X79434622Y-94082671D01*
X79291765Y-94296957D01*
X79148908Y-94439814D01*
X79006051Y-94511242D01*
X81148908Y-95582671D02*
X81148908Y-94082671D01*
X81148908Y-95511242D02*
X81006051Y-95582671D01*
X80720337Y-95582671D01*
X80577480Y-95511242D01*
X80506051Y-95439814D01*
X80434622Y-95296957D01*
X80434622Y-94868385D01*
X80506051Y-94725528D01*
X80577480Y-94654100D01*
X80720337Y-94582671D01*
X81006051Y-94582671D01*
X81148908Y-94654100D01*
X82577480Y-94082671D02*
X81863194Y-94082671D01*
X81791765Y-94796957D01*
X81863194Y-94725528D01*
X82006051Y-94654100D01*
X82363194Y-94654100D01*
X82506051Y-94725528D01*
X82577480Y-94796957D01*
X82648908Y-94939814D01*
X82648908Y-95296957D01*
X82577480Y-95439814D01*
X82506051Y-95511242D01*
X82363194Y-95582671D01*
X82006051Y-95582671D01*
X81863194Y-95511242D01*
X81791765Y-95439814D01*
X83506051Y-94725528D02*
X83363194Y-94654100D01*
X83291765Y-94582671D01*
X83220337Y-94439814D01*
X83220337Y-94368385D01*
X83291765Y-94225528D01*
X83363194Y-94154100D01*
X83506051Y-94082671D01*
X83791765Y-94082671D01*
X83934622Y-94154100D01*
X84006051Y-94225528D01*
X84077480Y-94368385D01*
X84077480Y-94439814D01*
X84006051Y-94582671D01*
X83934622Y-94654100D01*
X83791765Y-94725528D01*
X83506051Y-94725528D01*
X83363194Y-94796957D01*
X83291765Y-94868385D01*
X83220337Y-95011242D01*
X83220337Y-95296957D01*
X83291765Y-95439814D01*
X83363194Y-95511242D01*
X83506051Y-95582671D01*
X83791765Y-95582671D01*
X83934622Y-95511242D01*
X84006051Y-95439814D01*
X84077480Y-95296957D01*
X84077480Y-95011242D01*
X84006051Y-94868385D01*
X83934622Y-94796957D01*
X83791765Y-94725528D01*
X84363194Y-93674100D02*
X85791765Y-93674100D01*
X84791765Y-95582671D02*
X85077480Y-95582671D01*
X85220337Y-95511242D01*
X85291765Y-95439814D01*
X85434622Y-95225528D01*
X85506051Y-94939814D01*
X85506051Y-94368385D01*
X85434622Y-94225528D01*
X85363194Y-94154100D01*
X85220337Y-94082671D01*
X84934622Y-94082671D01*
X84791765Y-94154100D01*
X84720337Y-94225528D01*
X84648908Y-94368385D01*
X84648908Y-94725528D01*
X84720337Y-94868385D01*
X84791765Y-94939814D01*
X84934622Y-95011242D01*
X85220337Y-95011242D01*
X85363194Y-94939814D01*
X85434622Y-94868385D01*
X85506051Y-94725528D01*
X85791765Y-93674100D02*
X87220337Y-93674100D01*
X86434622Y-94082671D02*
X86577479Y-94082671D01*
X86720337Y-94154100D01*
X86791765Y-94225528D01*
X86863194Y-94368385D01*
X86934622Y-94654100D01*
X86934622Y-95011242D01*
X86863194Y-95296957D01*
X86791765Y-95439814D01*
X86720337Y-95511242D01*
X86577479Y-95582671D01*
X86434622Y-95582671D01*
X86291765Y-95511242D01*
X86220337Y-95439814D01*
X86148908Y-95296957D01*
X86077479Y-95011242D01*
X86077479Y-94654100D01*
X86148908Y-94368385D01*
X86220337Y-94225528D01*
X86291765Y-94154100D01*
X86434622Y-94082671D01*
X88220337Y-94582671D02*
X88220337Y-95582671D01*
X87577479Y-94582671D02*
X87577479Y-95368385D01*
X87648908Y-95511242D01*
X87791765Y-95582671D01*
X88006051Y-95582671D01*
X88148908Y-95511242D01*
X88220337Y-95439814D01*
X88934622Y-95582671D02*
X88934622Y-94082671D01*
X88934622Y-94654100D02*
X89077479Y-94582671D01*
X89363194Y-94582671D01*
X89506051Y-94654100D01*
X89577479Y-94725528D01*
X89648908Y-94868385D01*
X89648908Y-95296957D01*
X89577479Y-95439814D01*
X89506051Y-95511242D01*
X89363194Y-95582671D01*
X89077479Y-95582671D01*
X88934622Y-95511242D01*
X90934622Y-94582671D02*
X90934622Y-95582671D01*
X90291765Y-94582671D02*
X90291765Y-95368385D01*
X90363194Y-95511242D01*
X90506051Y-95582671D01*
X90720337Y-95582671D01*
X90863194Y-95511242D01*
X90934622Y-95439814D01*
X91648908Y-94582671D02*
X91648908Y-95582671D01*
X91648908Y-94725528D02*
X91720337Y-94654100D01*
X91863194Y-94582671D01*
X92077479Y-94582671D01*
X92220337Y-94654100D01*
X92291765Y-94796957D01*
X92291765Y-95582671D01*
X92791765Y-94582671D02*
X93363194Y-94582671D01*
X93006051Y-94082671D02*
X93006051Y-95368385D01*
X93077479Y-95511242D01*
X93220337Y-95582671D01*
X93363194Y-95582671D01*
X94506051Y-94582671D02*
X94506051Y-95582671D01*
X93863194Y-94582671D02*
X93863194Y-95368385D01*
X93934622Y-95511242D01*
X94077480Y-95582671D01*
X94291765Y-95582671D01*
X94434622Y-95511242D01*
X94506051Y-95439814D01*
X95148908Y-94225528D02*
X95220337Y-94154100D01*
X95363194Y-94082671D01*
X95720337Y-94082671D01*
X95863194Y-94154100D01*
X95934622Y-94225528D01*
X96006051Y-94368385D01*
X96006051Y-94511242D01*
X95934622Y-94725528D01*
X95077480Y-95582671D01*
X96006051Y-95582671D01*
X96934622Y-94082671D02*
X97077479Y-94082671D01*
X97220337Y-94154100D01*
X97291765Y-94225528D01*
X97363194Y-94368385D01*
X97434622Y-94654100D01*
X97434622Y-95011242D01*
X97363194Y-95296957D01*
X97291765Y-95439814D01*
X97220337Y-95511242D01*
X97077479Y-95582671D01*
X96934622Y-95582671D01*
X96791765Y-95511242D01*
X96720337Y-95439814D01*
X96648908Y-95296957D01*
X96577479Y-95011242D01*
X96577479Y-94654100D01*
X96648908Y-94368385D01*
X96720337Y-94225528D01*
X96791765Y-94154100D01*
X96934622Y-94082671D01*
X98077479Y-95439814D02*
X98148908Y-95511242D01*
X98077479Y-95582671D01*
X98006051Y-95511242D01*
X98077479Y-95439814D01*
X98077479Y-95582671D01*
X99077479Y-94082671D02*
X99220337Y-94082671D01*
X99363194Y-94154100D01*
X99434622Y-94225528D01*
X99506051Y-94368385D01*
X99577479Y-94654100D01*
X99577479Y-95011242D01*
X99506051Y-95296957D01*
X99434622Y-95439814D01*
X99363194Y-95511242D01*
X99220337Y-95582671D01*
X99077479Y-95582671D01*
X98934622Y-95511242D01*
X98863194Y-95439814D01*
X98791765Y-95296957D01*
X98720337Y-95011242D01*
X98720337Y-94654100D01*
X98791765Y-94368385D01*
X98863194Y-94225528D01*
X98934622Y-94154100D01*
X99077479Y-94082671D01*
X100863194Y-94582671D02*
X100863194Y-95582671D01*
X100506051Y-94011242D02*
X100148908Y-95082671D01*
X101077479Y-95082671D01*
X101648908Y-95439814D02*
X101720337Y-95511242D01*
X101648908Y-95582671D01*
X101577479Y-95511242D01*
X101648908Y-95439814D01*
X101648908Y-95582671D01*
X103148908Y-95582671D02*
X102291765Y-95582671D01*
X102720337Y-95582671D02*
X102720337Y-94082671D01*
X102577479Y-94296957D01*
X102434622Y-94439814D01*
X102291765Y-94511242D01*
D10*
D11*
X37002480Y-90504100D02*
X145002480Y-90504100D01*
D10*
D12*
X124411765Y-92782671D02*
X123911765Y-92068385D01*
X123554622Y-92782671D02*
X123554622Y-91282671D01*
X124126051Y-91282671D01*
X124268908Y-91354100D01*
X124340337Y-91425528D01*
X124411765Y-91568385D01*
X124411765Y-91782671D01*
X124340337Y-91925528D01*
X124268908Y-91996957D01*
X124126051Y-92068385D01*
X123554622Y-92068385D01*
X125626051Y-92711242D02*
X125483194Y-92782671D01*
X125197480Y-92782671D01*
X125054622Y-92711242D01*
X124983194Y-92568385D01*
X124983194Y-91996957D01*
X125054622Y-91854100D01*
X125197480Y-91782671D01*
X125483194Y-91782671D01*
X125626051Y-91854100D01*
X125697480Y-91996957D01*
X125697480Y-92139814D01*
X124983194Y-92282671D01*
X126197480Y-91782671D02*
X126554622Y-92782671D01*
X126911765Y-91782671D01*
X127483194Y-92639814D02*
X127554622Y-92711242D01*
X127483194Y-92782671D01*
X127411765Y-92711242D01*
X127483194Y-92639814D01*
X127483194Y-92782671D01*
X127483194Y-91854100D02*
X127554622Y-91925528D01*
X127483194Y-91996957D01*
X127411765Y-91925528D01*
X127483194Y-91854100D01*
X127483194Y-91996957D01*
X129840337Y-91996957D02*
X129340337Y-91996957D01*
X129340337Y-92782671D02*
X129340337Y-91282671D01*
X130054622Y-91282671D01*
D10*
D11*
X38363194Y-92711242D02*
X38577480Y-92782671D01*
X38934622Y-92782671D01*
X39077480Y-92711242D01*
X39148908Y-92639814D01*
X39220337Y-92496957D01*
X39220337Y-92354100D01*
X39148908Y-92211242D01*
X39077480Y-92139814D01*
X38934622Y-92068385D01*
X38648908Y-91996957D01*
X38506051Y-91925528D01*
X38434622Y-91854100D01*
X38363194Y-91711242D01*
X38363194Y-91568385D01*
X38434622Y-91425528D01*
X38506051Y-91354100D01*
X38648908Y-91282671D01*
X39006051Y-91282671D01*
X39220337Y-91354100D01*
X39863194Y-92782671D02*
X39863194Y-91782671D01*
X39863194Y-91282671D02*
X39791765Y-91354100D01*
X39863194Y-91425528D01*
X39934622Y-91354100D01*
X39863194Y-91282671D01*
X39863194Y-91425528D01*
X40434622Y-91782671D02*
X41220337Y-91782671D01*
X40434622Y-92782671D01*
X41220337Y-92782671D01*
X42363194Y-92711242D02*
X42220337Y-92782671D01*
X41934622Y-92782671D01*
X41791765Y-92711242D01*
X41720337Y-92568385D01*
X41720337Y-91996957D01*
X41791765Y-91854100D01*
X41934622Y-91782671D01*
X42220337Y-91782671D01*
X42363194Y-91854100D01*
X42434622Y-91996957D01*
X42434622Y-92139814D01*
X41720337Y-92282671D01*
X43077480Y-92639814D02*
X43148908Y-92711242D01*
X43077480Y-92782671D01*
X43006051Y-92711242D01*
X43077480Y-92639814D01*
X43077480Y-92782671D01*
X43077480Y-91854100D02*
X43148908Y-91925528D01*
X43077480Y-91996957D01*
X43006051Y-91925528D01*
X43077480Y-91854100D01*
X43077480Y-91996957D01*
X44863194Y-92354100D02*
X45577480Y-92354100D01*
X44720337Y-92782671D02*
X45220337Y-91282671D01*
X45720337Y-92782671D01*
X46863194Y-91782671D02*
X46863194Y-92782671D01*
X46506051Y-91211242D02*
X46148908Y-92282671D01*
X47077480Y-92282671D01*
D10*
D11*
X123434622Y-95582671D02*
X123434622Y-94082671D01*
X124791765Y-95582671D02*
X124791765Y-94082671D01*
X124791765Y-95511242D02*
X124648908Y-95582671D01*
X124363194Y-95582671D01*
X124220337Y-95511242D01*
X124148908Y-95439814D01*
X124077480Y-95296957D01*
X124077480Y-94868385D01*
X124148908Y-94725528D01*
X124220337Y-94654100D01*
X124363194Y-94582671D01*
X124648908Y-94582671D01*
X124791765Y-94654100D01*
X125506051Y-95439814D02*
X125577480Y-95511242D01*
X125506051Y-95582671D01*
X125434622Y-95511242D01*
X125506051Y-95439814D01*
X125506051Y-95582671D01*
X125506051Y-94654100D02*
X125577480Y-94725528D01*
X125506051Y-94796957D01*
X125434622Y-94725528D01*
X125506051Y-94654100D01*
X125506051Y-94796957D01*
X128148908Y-95582671D02*
X127291765Y-95582671D01*
X127720337Y-95582671D02*
X127720337Y-94082671D01*
X127577480Y-94296957D01*
X127434622Y-94439814D01*
X127291765Y-94511242D01*
X129863194Y-94011242D02*
X128577480Y-95939814D01*
X131148908Y-95582671D02*
X130291765Y-95582671D01*
X130720337Y-95582671D02*
X130720337Y-94082671D01*
X130577480Y-94296957D01*
X130434622Y-94439814D01*
X130291765Y-94511242D01*
D10*
D11*
X37002480Y-86504100D02*
X145002480Y-86504100D01*
D10*
D13*
X38714860Y-87208861D02*
X39857718Y-87208861D01*
X39036289Y-89208861D02*
X39286289Y-87208861D01*
X40274384Y-89208861D02*
X40441051Y-87875528D01*
X40524384Y-87208861D02*
X40417241Y-87304100D01*
X40500575Y-87399338D01*
X40607718Y-87304100D01*
X40524384Y-87208861D01*
X40500575Y-87399338D01*
X41107718Y-87875528D02*
X41869622Y-87875528D01*
X41476765Y-87208861D02*
X41262480Y-88923147D01*
X41333908Y-89113623D01*
X41512480Y-89208861D01*
X41702956Y-89208861D01*
X42655337Y-89208861D02*
X42476765Y-89113623D01*
X42405337Y-88923147D01*
X42619622Y-87208861D01*
X44191051Y-89113623D02*
X43988670Y-89208861D01*
X43607718Y-89208861D01*
X43429146Y-89113623D01*
X43357718Y-88923147D01*
X43452956Y-88161242D01*
X43572003Y-87970766D01*
X43774384Y-87875528D01*
X44155337Y-87875528D01*
X44333908Y-87970766D01*
X44405337Y-88161242D01*
X44381527Y-88351719D01*
X43405337Y-88542195D01*
X45155337Y-89018385D02*
X45238670Y-89113623D01*
X45131527Y-89208861D01*
X45048194Y-89113623D01*
X45155337Y-89018385D01*
X45131527Y-89208861D01*
X45286289Y-87970766D02*
X45369622Y-88066004D01*
X45262480Y-88161242D01*
X45179146Y-88066004D01*
X45286289Y-87970766D01*
X45262480Y-88161242D01*
X48774384Y-89018385D02*
X48667241Y-89113623D01*
X48369622Y-89208861D01*
X48179146Y-89208861D01*
X47905337Y-89113623D01*
X47738670Y-88923147D01*
X47667241Y-88732671D01*
X47619622Y-88351719D01*
X47655337Y-88066004D01*
X47798194Y-87685052D01*
X47917241Y-87494576D01*
X48131527Y-87304100D01*
X48429146Y-87208861D01*
X48619622Y-87208861D01*
X48893432Y-87304100D01*
X48976765Y-87399338D01*
X49607718Y-89208861D02*
X49774384Y-87875528D01*
X49726765Y-88256480D02*
X49845813Y-88066004D01*
X49952956Y-87970766D01*
X50155337Y-87875528D01*
X50345813Y-87875528D01*
X51702956Y-89208861D02*
X51833908Y-88161242D01*
X51762480Y-87970766D01*
X51583908Y-87875528D01*
X51202956Y-87875528D01*
X51000575Y-87970766D01*
X51714860Y-89113623D02*
X51512480Y-89208861D01*
X51036289Y-89208861D01*
X50857718Y-89113623D01*
X50786289Y-88923147D01*
X50810099Y-88732671D01*
X50929146Y-88542195D01*
X51131527Y-88446957D01*
X51607718Y-88446957D01*
X51810099Y-88351719D01*
X52631527Y-87875528D02*
X53679146Y-87875528D01*
X52464860Y-89208861D01*
X53512480Y-89208861D01*
X54250575Y-87875528D02*
X54560099Y-89208861D01*
X55202956Y-87875528D02*
X54560099Y-89208861D01*
X54310099Y-89685052D01*
X54202956Y-89780290D01*
X54000575Y-89875528D01*
X55679146Y-87875528D02*
X56441051Y-87875528D01*
X55798194Y-89208861D02*
X56012480Y-87494576D01*
X56131527Y-87304100D01*
X56333908Y-87208861D01*
X56524384Y-87208861D01*
X57226765Y-89208861D02*
X57048194Y-89113623D01*
X56976765Y-88923147D01*
X57191051Y-87208861D01*
X57988670Y-89208861D02*
X58155337Y-87875528D01*
X58238670Y-87208861D02*
X58131527Y-87304100D01*
X58214860Y-87399338D01*
X58322003Y-87304100D01*
X58238670Y-87208861D01*
X58214860Y-87399338D01*
X59714860Y-89113623D02*
X59512480Y-89208861D01*
X59131527Y-89208861D01*
X58952956Y-89113623D01*
X58881527Y-88923147D01*
X58976765Y-88161242D01*
X59095813Y-87970766D01*
X59298194Y-87875528D01*
X59679146Y-87875528D01*
X59857718Y-87970766D01*
X59929146Y-88161242D01*
X59905337Y-88351719D01*
X58929146Y-88542195D01*
X63048194Y-89113623D02*
X62845813Y-89208861D01*
X62464860Y-89208861D01*
X62286289Y-89113623D01*
X62202956Y-89018385D01*
X62131527Y-88827909D01*
X62202956Y-88256480D01*
X62322003Y-88066004D01*
X62429146Y-87970766D01*
X62631527Y-87875528D01*
X63012480Y-87875528D01*
X63191051Y-87970766D01*
X64179146Y-89208861D02*
X64000575Y-89113623D01*
X63917241Y-89018385D01*
X63845813Y-88827909D01*
X63917241Y-88256480D01*
X64036289Y-88066004D01*
X64143432Y-87970766D01*
X64345813Y-87875528D01*
X64631527Y-87875528D01*
X64810099Y-87970766D01*
X64893432Y-88066004D01*
X64964860Y-88256480D01*
X64893432Y-88827909D01*
X64774384Y-89018385D01*
X64667241Y-89113623D01*
X64464860Y-89208861D01*
X64179146Y-89208861D01*
X65869622Y-87875528D02*
X65702956Y-89208861D01*
X65845813Y-88066004D02*
X65952956Y-87970766D01*
X66155337Y-87875528D01*
X66441051Y-87875528D01*
X66619622Y-87970766D01*
X66691051Y-88161242D01*
X66560099Y-89208861D01*
X67393432Y-87875528D02*
X68155337Y-87875528D01*
X67762480Y-87208861D02*
X67548194Y-88923147D01*
X67619622Y-89113623D01*
X67798194Y-89208861D01*
X67988670Y-89208861D01*
X68655337Y-89208861D02*
X68822003Y-87875528D01*
X68774384Y-88256480D02*
X68893432Y-88066004D01*
X69000575Y-87970766D01*
X69202956Y-87875528D01*
X69393432Y-87875528D01*
X70179146Y-89208861D02*
X70000575Y-89113623D01*
X69917241Y-89018385D01*
X69845813Y-88827909D01*
X69917241Y-88256480D01*
X70036289Y-88066004D01*
X70143432Y-87970766D01*
X70345813Y-87875528D01*
X70631527Y-87875528D01*
X70810099Y-87970766D01*
X70893432Y-88066004D01*
X70964860Y-88256480D01*
X70893432Y-88827909D01*
X70774384Y-89018385D01*
X70667241Y-89113623D01*
X70464860Y-89208861D01*
X70179146Y-89208861D01*
X71988670Y-89208861D02*
X71810099Y-89113623D01*
X71738670Y-88923147D01*
X71952956Y-87208861D01*
X74274384Y-89208861D02*
X74524384Y-87208861D01*
X74429146Y-87970766D02*
X74631527Y-87875528D01*
X75012480Y-87875528D01*
X75191051Y-87970766D01*
X75274384Y-88066004D01*
X75345813Y-88256480D01*
X75274384Y-88827909D01*
X75155337Y-89018385D01*
X75048194Y-89113623D01*
X74845813Y-89208861D01*
X74464860Y-89208861D01*
X74286289Y-89113623D01*
X76369622Y-89208861D02*
X76191051Y-89113623D01*
X76107718Y-89018385D01*
X76036289Y-88827909D01*
X76107718Y-88256480D01*
X76226765Y-88066004D01*
X76333908Y-87970766D01*
X76536289Y-87875528D01*
X76822003Y-87875528D01*
X77000575Y-87970766D01*
X77083908Y-88066004D01*
X77155337Y-88256480D01*
X77083908Y-88827909D01*
X76964860Y-89018385D01*
X76857718Y-89113623D01*
X76655337Y-89208861D01*
X76369622Y-89208861D01*
X78750575Y-89208861D02*
X78881527Y-88161242D01*
X78810099Y-87970766D01*
X78631527Y-87875528D01*
X78250575Y-87875528D01*
X78048194Y-87970766D01*
X78762480Y-89113623D02*
X78560099Y-89208861D01*
X78083908Y-89208861D01*
X77905337Y-89113623D01*
X77833908Y-88923147D01*
X77857718Y-88732671D01*
X77976765Y-88542195D01*
X78179146Y-88446957D01*
X78655337Y-88446957D01*
X78857718Y-88351719D01*
X79702956Y-89208861D02*
X79869622Y-87875528D01*
X79822003Y-88256480D02*
X79941051Y-88066004D01*
X80048194Y-87970766D01*
X80250575Y-87875528D01*
X80441051Y-87875528D01*
X81798194Y-89208861D02*
X82048194Y-87208861D01*
X81810099Y-89113623D02*
X81607718Y-89208861D01*
X81226765Y-89208861D01*
X81048194Y-89113623D01*
X80964860Y-89018385D01*
X80893432Y-88827909D01*
X80964860Y-88256480D01*
X81083908Y-88066004D01*
X81191051Y-87970766D01*
X81393432Y-87875528D01*
X81774384Y-87875528D01*
X81952956Y-87970766D01*
D10*
D11*
X38934622Y-84596957D02*
X38434622Y-84596957D01*
X38434622Y-85382671D02*
X38434622Y-83882671D01*
X39148908Y-83882671D01*
X39720337Y-85382671D02*
X39720337Y-84382671D01*
X39720337Y-83882671D02*
X39648908Y-83954100D01*
X39720337Y-84025528D01*
X39791765Y-83954100D01*
X39720337Y-83882671D01*
X39720337Y-84025528D01*
X40648908Y-85382671D02*
X40506051Y-85311242D01*
X40434622Y-85168385D01*
X40434622Y-83882671D01*
X41791765Y-85311242D02*
X41648908Y-85382671D01*
X41363194Y-85382671D01*
X41220337Y-85311242D01*
X41148908Y-85168385D01*
X41148908Y-84596957D01*
X41220337Y-84454100D01*
X41363194Y-84382671D01*
X41648908Y-84382671D01*
X41791765Y-84454100D01*
X41863194Y-84596957D01*
X41863194Y-84739814D01*
X41148908Y-84882671D01*
X42506051Y-85239814D02*
X42577480Y-85311242D01*
X42506051Y-85382671D01*
X42434622Y-85311242D01*
X42506051Y-85239814D01*
X42506051Y-85382671D01*
X42506051Y-84454100D02*
X42577480Y-84525528D01*
X42506051Y-84596957D01*
X42434622Y-84525528D01*
X42506051Y-84454100D01*
X42506051Y-84596957D01*
X45220337Y-85239814D02*
X45148908Y-85311242D01*
X44934622Y-85382671D01*
X44791765Y-85382671D01*
X44577480Y-85311242D01*
X44434622Y-85168385D01*
X44363194Y-85025528D01*
X44291765Y-84739814D01*
X44291765Y-84525528D01*
X44363194Y-84239814D01*
X44434622Y-84096957D01*
X44577480Y-83954100D01*
X44791765Y-83882671D01*
X44934622Y-83882671D01*
X45148908Y-83954100D01*
X45220337Y-84025528D01*
X45863194Y-85382671D02*
X45863194Y-84382671D01*
X45863194Y-84668385D02*
X45934622Y-84525528D01*
X46006051Y-84454100D01*
X46148908Y-84382671D01*
X46291765Y-84382671D01*
X47434622Y-85382671D02*
X47434622Y-84596957D01*
X47363194Y-84454100D01*
X47220337Y-84382671D01*
X46934622Y-84382671D01*
X46791765Y-84454100D01*
X47434622Y-85311242D02*
X47291765Y-85382671D01*
X46934622Y-85382671D01*
X46791765Y-85311242D01*
X46720337Y-85168385D01*
X46720337Y-85025528D01*
X46791765Y-84882671D01*
X46934622Y-84811242D01*
X47291765Y-84811242D01*
X47434622Y-84739814D01*
X48006051Y-84382671D02*
X48791765Y-84382671D01*
X48006051Y-85382671D01*
X48791765Y-85382671D01*
X49220337Y-84382671D02*
X49577480Y-85382671D01*
X49934622Y-84382671D02*
X49577480Y-85382671D01*
X49434622Y-85739814D01*
X49363194Y-85811242D01*
X49220337Y-85882671D01*
X50291765Y-84382671D02*
X50863194Y-84382671D01*
X50506051Y-85382671D02*
X50506051Y-84096957D01*
X50577480Y-83954100D01*
X50720337Y-83882671D01*
X50863194Y-83882671D01*
X51577480Y-85382671D02*
X51434622Y-85311242D01*
X51363194Y-85168385D01*
X51363194Y-83882671D01*
X52148908Y-85382671D02*
X52148908Y-84382671D01*
X52148908Y-83882671D02*
X52077480Y-83954100D01*
X52148908Y-84025528D01*
X52220337Y-83954100D01*
X52148908Y-83882671D01*
X52148908Y-84025528D01*
X53434622Y-85311242D02*
X53291765Y-85382671D01*
X53006051Y-85382671D01*
X52863194Y-85311242D01*
X52791765Y-85168385D01*
X52791765Y-84596957D01*
X52863194Y-84454100D01*
X53006051Y-84382671D01*
X53291765Y-84382671D01*
X53434622Y-84454100D01*
X53506051Y-84596957D01*
X53506051Y-84739814D01*
X52791765Y-84882671D01*
X55934622Y-85311242D02*
X55791765Y-85382671D01*
X55506051Y-85382671D01*
X55363194Y-85311242D01*
X55291765Y-85239814D01*
X55220337Y-85096957D01*
X55220337Y-84668385D01*
X55291765Y-84525528D01*
X55363194Y-84454100D01*
X55506051Y-84382671D01*
X55791765Y-84382671D01*
X55934622Y-84454100D01*
X56791765Y-85382671D02*
X56648908Y-85311242D01*
X56577480Y-85239814D01*
X56506051Y-85096957D01*
X56506051Y-84668385D01*
X56577480Y-84525528D01*
X56648908Y-84454100D01*
X56791765Y-84382671D01*
X57006051Y-84382671D01*
X57148908Y-84454100D01*
X57220337Y-84525528D01*
X57291765Y-84668385D01*
X57291765Y-85096957D01*
X57220337Y-85239814D01*
X57148908Y-85311242D01*
X57006051Y-85382671D01*
X56791765Y-85382671D01*
X57934622Y-84382671D02*
X57934622Y-85382671D01*
X57934622Y-84525528D02*
X58006051Y-84454100D01*
X58148908Y-84382671D01*
X58363194Y-84382671D01*
X58506051Y-84454100D01*
X58577480Y-84596957D01*
X58577480Y-85382671D01*
X59077480Y-84382671D02*
X59648908Y-84382671D01*
X59291765Y-83882671D02*
X59291765Y-85168385D01*
X59363194Y-85311242D01*
X59506051Y-85382671D01*
X59648908Y-85382671D01*
X60363194Y-85382671D02*
X60220337Y-85311242D01*
X60148908Y-85239814D01*
X60077480Y-85096957D01*
X60077480Y-84668385D01*
X60148908Y-84525528D01*
X60220337Y-84454100D01*
X60363194Y-84382671D01*
X60577480Y-84382671D01*
X60720337Y-84454100D01*
X60791765Y-84525528D01*
X60863194Y-84668385D01*
X60863194Y-85096957D01*
X60791765Y-85239814D01*
X60720337Y-85311242D01*
X60577480Y-85382671D01*
X60363194Y-85382671D01*
X61720337Y-85382671D02*
X61577480Y-85311242D01*
X61506051Y-85168385D01*
X61506051Y-83882671D01*
X63434622Y-85382671D02*
X63434622Y-83882671D01*
X63434622Y-84454100D02*
X63577480Y-84382671D01*
X63863194Y-84382671D01*
X64006051Y-84454100D01*
X64077480Y-84525528D01*
X64148908Y-84668385D01*
X64148908Y-85096957D01*
X64077480Y-85239814D01*
X64006051Y-85311242D01*
X63863194Y-85382671D01*
X63577480Y-85382671D01*
X63434622Y-85311242D01*
X65006051Y-85382671D02*
X64863194Y-85311242D01*
X64791765Y-85239814D01*
X64720337Y-85096957D01*
X64720337Y-84668385D01*
X64791765Y-84525528D01*
X64863194Y-84454100D01*
X65006051Y-84382671D01*
X65220337Y-84382671D01*
X65363194Y-84454100D01*
X65434622Y-84525528D01*
X65506051Y-84668385D01*
X65506051Y-85096957D01*
X65434622Y-85239814D01*
X65363194Y-85311242D01*
X65220337Y-85382671D01*
X65006051Y-85382671D01*
X66791765Y-85382671D02*
X66791765Y-84596957D01*
X66720337Y-84454100D01*
X66577480Y-84382671D01*
X66291765Y-84382671D01*
X66148908Y-84454100D01*
X66791765Y-85311242D02*
X66648908Y-85382671D01*
X66291765Y-85382671D01*
X66148908Y-85311242D01*
X66077480Y-85168385D01*
X66077480Y-85025528D01*
X66148908Y-84882671D01*
X66291765Y-84811242D01*
X66648908Y-84811242D01*
X66791765Y-84739814D01*
X67506051Y-85382671D02*
X67506051Y-84382671D01*
X67506051Y-84668385D02*
X67577480Y-84525528D01*
X67648908Y-84454100D01*
X67791765Y-84382671D01*
X67934622Y-84382671D01*
X69077480Y-85382671D02*
X69077480Y-83882671D01*
X69077480Y-85311242D02*
X68934622Y-85382671D01*
X68648908Y-85382671D01*
X68506051Y-85311242D01*
X68434622Y-85239814D01*
X68363194Y-85096957D01*
X68363194Y-84668385D01*
X68434622Y-84525528D01*
X68506051Y-84454100D01*
X68648908Y-84382671D01*
X68934622Y-84382671D01*
X69077480Y-84454100D01*
X69791765Y-85239814D02*
X69863194Y-85311242D01*
X69791765Y-85382671D01*
X69720337Y-85311242D01*
X69791765Y-85239814D01*
X69791765Y-85382671D01*
X70506051Y-85382671D02*
X70506051Y-83882671D01*
X70648908Y-84811242D02*
X71077480Y-85382671D01*
X71077480Y-84382671D02*
X70506051Y-84954100D01*
X71720337Y-85382671D02*
X71720337Y-84382671D01*
X71720337Y-83882671D02*
X71648908Y-83954100D01*
X71720337Y-84025528D01*
X71791765Y-83954100D01*
X71720337Y-83882671D01*
X71720337Y-84025528D01*
X73077480Y-85311242D02*
X72934622Y-85382671D01*
X72648908Y-85382671D01*
X72506051Y-85311242D01*
X72434622Y-85239814D01*
X72363194Y-85096957D01*
X72363194Y-84668385D01*
X72434622Y-84525528D01*
X72506051Y-84454100D01*
X72648908Y-84382671D01*
X72934622Y-84382671D01*
X73077480Y-84454100D01*
X74363194Y-85382671D02*
X74363194Y-84596957D01*
X74291765Y-84454100D01*
X74148908Y-84382671D01*
X73863194Y-84382671D01*
X73720337Y-84454100D01*
X74363194Y-85311242D02*
X74220337Y-85382671D01*
X73863194Y-85382671D01*
X73720337Y-85311242D01*
X73648908Y-85168385D01*
X73648908Y-85025528D01*
X73720337Y-84882671D01*
X73863194Y-84811242D01*
X74220337Y-84811242D01*
X74363194Y-84739814D01*
X75720337Y-85382671D02*
X75720337Y-83882671D01*
X75720337Y-85311242D02*
X75577480Y-85382671D01*
X75291765Y-85382671D01*
X75148908Y-85311242D01*
X75077480Y-85239814D01*
X75006051Y-85096957D01*
X75006051Y-84668385D01*
X75077480Y-84525528D01*
X75148908Y-84454100D01*
X75291765Y-84382671D01*
X75577480Y-84382671D01*
X75720337Y-84454100D01*
X76077480Y-85525528D02*
X77220337Y-85525528D01*
X77577480Y-84382671D02*
X77577480Y-85882671D01*
X77577480Y-84454100D02*
X77720337Y-84382671D01*
X78006051Y-84382671D01*
X78148908Y-84454100D01*
X78220337Y-84525528D01*
X78291765Y-84668385D01*
X78291765Y-85096957D01*
X78220337Y-85239814D01*
X78148908Y-85311242D01*
X78006051Y-85382671D01*
X77720337Y-85382671D01*
X77577480Y-85311242D01*
X79577480Y-85311242D02*
X79434622Y-85382671D01*
X79148908Y-85382671D01*
X79006051Y-85311242D01*
X78934622Y-85239814D01*
X78863194Y-85096957D01*
X78863194Y-84668385D01*
X78934622Y-84525528D01*
X79006051Y-84454100D01*
X79148908Y-84382671D01*
X79434622Y-84382671D01*
X79577480Y-84454100D01*
X80220337Y-85382671D02*
X80220337Y-83882671D01*
X80220337Y-84454100D02*
X80363194Y-84382671D01*
X80648908Y-84382671D01*
X80791765Y-84454100D01*
X80863194Y-84525528D01*
X80934622Y-84668385D01*
X80934622Y-85096957D01*
X80863194Y-85239814D01*
X80791765Y-85311242D01*
X80648908Y-85382671D01*
X80363194Y-85382671D01*
X80220337Y-85311242D01*
D10*
D11*
X37002480Y-80504100D02*
X145002480Y-80504100D01*
D10*
D11*
X38363194Y-82611242D02*
X38577480Y-82682671D01*
X38934622Y-82682671D01*
X39077480Y-82611242D01*
X39148908Y-82539814D01*
X39220337Y-82396957D01*
X39220337Y-82254100D01*
X39148908Y-82111242D01*
X39077480Y-82039814D01*
X38934622Y-81968385D01*
X38648908Y-81896957D01*
X38506051Y-81825528D01*
X38434622Y-81754100D01*
X38363194Y-81611242D01*
X38363194Y-81468385D01*
X38434622Y-81325528D01*
X38506051Y-81254100D01*
X38648908Y-81182671D01*
X39006051Y-81182671D01*
X39220337Y-81254100D01*
X39863194Y-82682671D02*
X39863194Y-81182671D01*
X40506051Y-82682671D02*
X40506051Y-81896957D01*
X40434622Y-81754100D01*
X40291765Y-81682671D01*
X40077480Y-81682671D01*
X39934622Y-81754100D01*
X39863194Y-81825528D01*
X41791765Y-82611242D02*
X41648908Y-82682671D01*
X41363194Y-82682671D01*
X41220337Y-82611242D01*
X41148908Y-82468385D01*
X41148908Y-81896957D01*
X41220337Y-81754100D01*
X41363194Y-81682671D01*
X41648908Y-81682671D01*
X41791765Y-81754100D01*
X41863194Y-81896957D01*
X41863194Y-82039814D01*
X41148908Y-82182671D01*
X43077480Y-82611242D02*
X42934622Y-82682671D01*
X42648908Y-82682671D01*
X42506051Y-82611242D01*
X42434622Y-82468385D01*
X42434622Y-81896957D01*
X42506051Y-81754100D01*
X42648908Y-81682671D01*
X42934622Y-81682671D01*
X43077480Y-81754100D01*
X43148908Y-81896957D01*
X43148908Y-82039814D01*
X42434622Y-82182671D01*
X43577480Y-81682671D02*
X44148908Y-81682671D01*
X43791765Y-81182671D02*
X43791765Y-82468385D01*
X43863194Y-82611242D01*
X44006051Y-82682671D01*
X44148908Y-82682671D01*
X44648908Y-82539814D02*
X44720337Y-82611242D01*
X44648908Y-82682671D01*
X44577480Y-82611242D01*
X44648908Y-82539814D01*
X44648908Y-82682671D01*
X44648908Y-81754100D02*
X44720337Y-81825528D01*
X44648908Y-81896957D01*
X44577480Y-81825528D01*
X44648908Y-81754100D01*
X44648908Y-81896957D01*
D10*
D12*
X39411765Y-79539814D02*
X39340337Y-79611242D01*
X39126051Y-79682671D01*
X38983194Y-79682671D01*
X38768908Y-79611242D01*
X38626051Y-79468385D01*
X38554622Y-79325528D01*
X38483194Y-79039814D01*
X38483194Y-78825528D01*
X38554622Y-78539814D01*
X38626051Y-78396957D01*
X38768908Y-78254100D01*
X38983194Y-78182671D01*
X39126051Y-78182671D01*
X39340337Y-78254100D01*
X39411765Y-78325528D01*
X40268908Y-79682671D02*
X40126051Y-79611242D01*
X40054622Y-79539814D01*
X39983194Y-79396957D01*
X39983194Y-78968385D01*
X40054622Y-78825528D01*
X40126051Y-78754100D01*
X40268908Y-78682671D01*
X40483194Y-78682671D01*
X40626051Y-78754100D01*
X40697480Y-78825528D01*
X40768908Y-78968385D01*
X40768908Y-79396957D01*
X40697480Y-79539814D01*
X40626051Y-79611242D01*
X40483194Y-79682671D01*
X40268908Y-79682671D01*
X41340337Y-79611242D02*
X41483194Y-79682671D01*
X41768908Y-79682671D01*
X41911765Y-79611242D01*
X41983194Y-79468385D01*
X41983194Y-79396957D01*
X41911765Y-79254100D01*
X41768908Y-79182671D01*
X41554622Y-79182671D01*
X41411765Y-79111242D01*
X41340337Y-78968385D01*
X41340337Y-78896957D01*
X41411765Y-78754100D01*
X41554622Y-78682671D01*
X41768908Y-78682671D01*
X41911765Y-78754100D01*
X42411765Y-78682671D02*
X42983194Y-78682671D01*
X42626051Y-78182671D02*
X42626051Y-79468385D01*
X42697480Y-79611242D01*
X42840337Y-79682671D01*
X42983194Y-79682671D01*
X44126051Y-79682671D02*
X44126051Y-78896957D01*
X44054622Y-78754100D01*
X43911765Y-78682671D01*
X43626051Y-78682671D01*
X43483194Y-78754100D01*
X44126051Y-79611242D02*
X43983194Y-79682671D01*
X43626051Y-79682671D01*
X43483194Y-79611242D01*
X43411765Y-79468385D01*
X43411765Y-79325528D01*
X43483194Y-79182671D01*
X43626051Y-79111242D01*
X43983194Y-79111242D01*
X44126051Y-79039814D01*
X46840337Y-79682671D02*
X46340337Y-78968385D01*
X45983194Y-79682671D02*
X45983194Y-78182671D01*
X46554622Y-78182671D01*
X46697480Y-78254100D01*
X46768908Y-78325528D01*
X46840337Y-78468385D01*
X46840337Y-78682671D01*
X46768908Y-78825528D01*
X46697480Y-78896957D01*
X46554622Y-78968385D01*
X45983194Y-78968385D01*
X47483194Y-79682671D02*
X47483194Y-78682671D01*
X47483194Y-78182671D02*
X47411765Y-78254100D01*
X47483194Y-78325528D01*
X47554622Y-78254100D01*
X47483194Y-78182671D01*
X47483194Y-78325528D01*
X48840337Y-79611242D02*
X48697480Y-79682671D01*
X48411765Y-79682671D01*
X48268908Y-79611242D01*
X48197480Y-79539814D01*
X48126051Y-79396957D01*
X48126051Y-78968385D01*
X48197480Y-78825528D01*
X48268908Y-78754100D01*
X48411765Y-78682671D01*
X48697480Y-78682671D01*
X48840337Y-78754100D01*
X50126051Y-79682671D02*
X50126051Y-78896957D01*
X50054622Y-78754100D01*
X49911765Y-78682671D01*
X49626051Y-78682671D01*
X49483194Y-78754100D01*
X50126051Y-79611242D02*
X49983194Y-79682671D01*
X49626051Y-79682671D01*
X49483194Y-79611242D01*
X49411765Y-79468385D01*
X49411765Y-79325528D01*
X49483194Y-79182671D01*
X49626051Y-79111242D01*
X49983194Y-79111242D01*
X50126051Y-79039814D01*
X51983194Y-79682671D02*
X51983194Y-78182671D01*
X52697480Y-78682671D02*
X52697480Y-79682671D01*
X52697480Y-78825528D02*
X52768908Y-78754100D01*
X52911765Y-78682671D01*
X53126051Y-78682671D01*
X53268908Y-78754100D01*
X53340337Y-78896957D01*
X53340337Y-79682671D01*
X53983194Y-79611242D02*
X54126051Y-79682671D01*
X54411765Y-79682671D01*
X54554622Y-79611242D01*
X54626051Y-79468385D01*
X54626051Y-79396957D01*
X54554622Y-79254100D01*
X54411765Y-79182671D01*
X54197480Y-79182671D01*
X54054622Y-79111242D01*
X53983194Y-78968385D01*
X53983194Y-78896957D01*
X54054622Y-78754100D01*
X54197480Y-78682671D01*
X54411765Y-78682671D01*
X54554622Y-78754100D01*
X55054622Y-78682671D02*
X55626051Y-78682671D01*
X55268908Y-78182671D02*
X55268908Y-79468385D01*
X55340337Y-79611242D01*
X55483194Y-79682671D01*
X55626051Y-79682671D01*
X56126051Y-79682671D02*
X56126051Y-78682671D01*
X56126051Y-78182671D02*
X56054622Y-78254100D01*
X56126051Y-78325528D01*
X56197480Y-78254100D01*
X56126051Y-78182671D01*
X56126051Y-78325528D01*
X56626051Y-78682671D02*
X57197480Y-78682671D01*
X56840337Y-78182671D02*
X56840337Y-79468385D01*
X56911765Y-79611242D01*
X57054622Y-79682671D01*
X57197480Y-79682671D01*
X58340337Y-78682671D02*
X58340337Y-79682671D01*
X57697480Y-78682671D02*
X57697480Y-79468385D01*
X57768908Y-79611242D01*
X57911765Y-79682671D01*
X58126051Y-79682671D01*
X58268908Y-79611242D01*
X58340337Y-79539814D01*
X58840337Y-78682671D02*
X59411765Y-78682671D01*
X59054622Y-78182671D02*
X59054622Y-79468385D01*
X59126051Y-79611242D01*
X59268908Y-79682671D01*
X59411765Y-79682671D01*
X60483194Y-79611242D02*
X60340337Y-79682671D01*
X60054622Y-79682671D01*
X59911765Y-79611242D01*
X59840337Y-79468385D01*
X59840337Y-78896957D01*
X59911765Y-78754100D01*
X60054622Y-78682671D01*
X60340337Y-78682671D01*
X60483194Y-78754100D01*
X60554622Y-78896957D01*
X60554622Y-79039814D01*
X59840337Y-79182671D01*
X62554622Y-79682671D02*
X62411765Y-79611242D01*
X62340337Y-79539814D01*
X62268908Y-79396957D01*
X62268908Y-78968385D01*
X62340337Y-78825528D01*
X62411765Y-78754100D01*
X62554622Y-78682671D01*
X62768908Y-78682671D01*
X62911765Y-78754100D01*
X62983194Y-78825528D01*
X63054622Y-78968385D01*
X63054622Y-79396957D01*
X62983194Y-79539814D01*
X62911765Y-79611242D01*
X62768908Y-79682671D01*
X62554622Y-79682671D01*
X63483194Y-78682671D02*
X64054622Y-78682671D01*
X63697480Y-79682671D02*
X63697480Y-78396957D01*
X63768908Y-78254100D01*
X63911765Y-78182671D01*
X64054622Y-78182671D01*
X65483194Y-78182671D02*
X66340337Y-78182671D01*
X65911765Y-79682671D02*
X65911765Y-78182671D01*
X67411765Y-79611242D02*
X67268908Y-79682671D01*
X66983194Y-79682671D01*
X66840337Y-79611242D01*
X66768908Y-79468385D01*
X66768908Y-78896957D01*
X66840337Y-78754100D01*
X66983194Y-78682671D01*
X67268908Y-78682671D01*
X67411765Y-78754100D01*
X67483194Y-78896957D01*
X67483194Y-79039814D01*
X66768908Y-79182671D01*
X68768908Y-79611242D02*
X68626051Y-79682671D01*
X68340337Y-79682671D01*
X68197480Y-79611242D01*
X68126051Y-79539814D01*
X68054622Y-79396957D01*
X68054622Y-78968385D01*
X68126051Y-78825528D01*
X68197480Y-78754100D01*
X68340337Y-78682671D01*
X68626051Y-78682671D01*
X68768908Y-78754100D01*
X69411765Y-79682671D02*
X69411765Y-78182671D01*
X70054622Y-79682671D02*
X70054622Y-78896957D01*
X69983194Y-78754100D01*
X69840337Y-78682671D01*
X69626051Y-78682671D01*
X69483194Y-78754100D01*
X69411765Y-78825528D01*
X70768908Y-78682671D02*
X70768908Y-79682671D01*
X70768908Y-78825528D02*
X70840337Y-78754100D01*
X70983194Y-78682671D01*
X71197480Y-78682671D01*
X71340337Y-78754100D01*
X71411765Y-78896957D01*
X71411765Y-79682671D01*
X72340337Y-79682671D02*
X72197480Y-79611242D01*
X72126051Y-79539814D01*
X72054622Y-79396957D01*
X72054622Y-78968385D01*
X72126051Y-78825528D01*
X72197480Y-78754100D01*
X72340337Y-78682671D01*
X72554622Y-78682671D01*
X72697480Y-78754100D01*
X72768908Y-78825528D01*
X72840337Y-78968385D01*
X72840337Y-79396957D01*
X72768908Y-79539814D01*
X72697480Y-79611242D01*
X72554622Y-79682671D01*
X72340337Y-79682671D01*
X73697480Y-79682671D02*
X73554622Y-79611242D01*
X73483194Y-79468385D01*
X73483194Y-78182671D01*
X74483194Y-79682671D02*
X74340337Y-79611242D01*
X74268908Y-79539814D01*
X74197480Y-79396957D01*
X74197480Y-78968385D01*
X74268908Y-78825528D01*
X74340337Y-78754100D01*
X74483194Y-78682671D01*
X74697480Y-78682671D01*
X74840337Y-78754100D01*
X74911765Y-78825528D01*
X74983194Y-78968385D01*
X74983194Y-79396957D01*
X74911765Y-79539814D01*
X74840337Y-79611242D01*
X74697480Y-79682671D01*
X74483194Y-79682671D01*
X76268908Y-78682671D02*
X76268908Y-79896957D01*
X76197480Y-80039814D01*
X76126051Y-80111242D01*
X75983194Y-80182671D01*
X75768908Y-80182671D01*
X75626051Y-80111242D01*
X76268908Y-79611242D02*
X76126051Y-79682671D01*
X75840337Y-79682671D01*
X75697480Y-79611242D01*
X75626051Y-79539814D01*
X75554622Y-79396957D01*
X75554622Y-78968385D01*
X75626051Y-78825528D01*
X75697480Y-78754100D01*
X75840337Y-78682671D01*
X76126051Y-78682671D01*
X76268908Y-78754100D01*
X76840337Y-78682671D02*
X77197480Y-79682671D01*
X77554622Y-78682671D02*
X77197480Y-79682671D01*
X77054622Y-80039814D01*
X76983194Y-80111242D01*
X76840337Y-80182671D01*
D10*
D11*
X38934622Y-75896957D02*
X39148908Y-75968385D01*
X39220337Y-76039814D01*
X39291765Y-76182671D01*
X39291765Y-76396957D01*
X39220337Y-76539814D01*
X39148908Y-76611242D01*
X39006051Y-76682671D01*
X38434622Y-76682671D01*
X38434622Y-75182671D01*
X38934622Y-75182671D01*
X39077480Y-75254100D01*
X39148908Y-75325528D01*
X39220337Y-75468385D01*
X39220337Y-75611242D01*
X39148908Y-75754100D01*
X39077480Y-75825528D01*
X38934622Y-75896957D01*
X38434622Y-75896957D01*
X40577480Y-76682671D02*
X40577480Y-75896957D01*
X40506051Y-75754100D01*
X40363194Y-75682671D01*
X40077480Y-75682671D01*
X39934622Y-75754100D01*
X40577480Y-76611242D02*
X40434622Y-76682671D01*
X40077480Y-76682671D01*
X39934622Y-76611242D01*
X39863194Y-76468385D01*
X39863194Y-76325528D01*
X39934622Y-76182671D01*
X40077480Y-76111242D01*
X40434622Y-76111242D01*
X40577480Y-76039814D01*
X41220337Y-76611242D02*
X41363194Y-76682671D01*
X41648908Y-76682671D01*
X41791765Y-76611242D01*
X41863194Y-76468385D01*
X41863194Y-76396957D01*
X41791765Y-76254100D01*
X41648908Y-76182671D01*
X41434622Y-76182671D01*
X41291765Y-76111242D01*
X41220337Y-75968385D01*
X41220337Y-75896957D01*
X41291765Y-75754100D01*
X41434622Y-75682671D01*
X41648908Y-75682671D01*
X41791765Y-75754100D01*
X43077480Y-76611242D02*
X42934622Y-76682671D01*
X42648908Y-76682671D01*
X42506051Y-76611242D01*
X42434622Y-76468385D01*
X42434622Y-75896957D01*
X42506051Y-75754100D01*
X42648908Y-75682671D01*
X42934622Y-75682671D01*
X43077480Y-75754100D01*
X43148908Y-75896957D01*
X43148908Y-76039814D01*
X42434622Y-76182671D01*
X44434622Y-76682671D02*
X44434622Y-75182671D01*
X44434622Y-76611242D02*
X44291765Y-76682671D01*
X44006051Y-76682671D01*
X43863194Y-76611242D01*
X43791765Y-76539814D01*
X43720337Y-76396957D01*
X43720337Y-75968385D01*
X43791765Y-75825528D01*
X43863194Y-75754100D01*
X44006051Y-75682671D01*
X44291765Y-75682671D01*
X44434622Y-75754100D01*
X46506051Y-76682671D02*
X46363194Y-76611242D01*
X46291765Y-76539814D01*
X46220337Y-76396957D01*
X46220337Y-75968385D01*
X46291765Y-75825528D01*
X46363194Y-75754100D01*
X46506051Y-75682671D01*
X46720337Y-75682671D01*
X46863194Y-75754100D01*
X46934622Y-75825528D01*
X47006051Y-75968385D01*
X47006051Y-76396957D01*
X46934622Y-76539814D01*
X46863194Y-76611242D01*
X46720337Y-76682671D01*
X46506051Y-76682671D01*
X47648908Y-75682671D02*
X47648908Y-76682671D01*
X47648908Y-75825528D02*
X47720337Y-75754100D01*
X47863194Y-75682671D01*
X48077480Y-75682671D01*
X48220337Y-75754100D01*
X48291765Y-75896957D01*
X48291765Y-76682671D01*
X52148908Y-76539814D02*
X52077480Y-76611242D01*
X51863194Y-76682671D01*
X51720337Y-76682671D01*
X51506051Y-76611242D01*
X51363194Y-76468385D01*
X51291765Y-76325528D01*
X51220337Y-76039814D01*
X51220337Y-75825528D01*
X51291765Y-75539814D01*
X51363194Y-75396957D01*
X51506051Y-75254100D01*
X51720337Y-75182671D01*
X51863194Y-75182671D01*
X52077480Y-75254100D01*
X52148908Y-75325528D01*
X52791765Y-76682671D02*
X52791765Y-75682671D01*
X52791765Y-75968385D02*
X52863194Y-75825528D01*
X52934622Y-75754100D01*
X53077480Y-75682671D01*
X53220337Y-75682671D01*
X54363194Y-76682671D02*
X54363194Y-75896957D01*
X54291765Y-75754100D01*
X54148908Y-75682671D01*
X53863194Y-75682671D01*
X53720337Y-75754100D01*
X54363194Y-76611242D02*
X54220337Y-76682671D01*
X53863194Y-76682671D01*
X53720337Y-76611242D01*
X53648908Y-76468385D01*
X53648908Y-76325528D01*
X53720337Y-76182671D01*
X53863194Y-76111242D01*
X54220337Y-76111242D01*
X54363194Y-76039814D01*
X54934622Y-75682671D02*
X55720337Y-75682671D01*
X54934622Y-76682671D01*
X55720337Y-76682671D01*
X56148908Y-75682671D02*
X56506051Y-76682671D01*
X56863194Y-75682671D02*
X56506051Y-76682671D01*
X56363194Y-77039814D01*
X56291765Y-77111242D01*
X56148908Y-77182671D01*
X57220337Y-75682671D02*
X57791765Y-75682671D01*
X57434622Y-76682671D02*
X57434622Y-75396957D01*
X57506051Y-75254100D01*
X57648908Y-75182671D01*
X57791765Y-75182671D01*
X58506051Y-76682671D02*
X58363194Y-76611242D01*
X58291765Y-76468385D01*
X58291765Y-75182671D01*
X59077480Y-76682671D02*
X59077480Y-75682671D01*
X59077480Y-75182671D02*
X59006051Y-75254100D01*
X59077480Y-75325528D01*
X59148908Y-75254100D01*
X59077480Y-75182671D01*
X59077480Y-75325528D01*
X60363194Y-76611242D02*
X60220337Y-76682671D01*
X59934622Y-76682671D01*
X59791765Y-76611242D01*
X59720337Y-76468385D01*
X59720337Y-75896957D01*
X59791765Y-75754100D01*
X59934622Y-75682671D01*
X60220337Y-75682671D01*
X60363194Y-75754100D01*
X60434622Y-75896957D01*
X60434622Y-76039814D01*
X59720337Y-76182671D01*
X62220337Y-76111242D02*
X63363194Y-76111242D01*
X65720337Y-75896957D02*
X65934622Y-75968385D01*
X66006051Y-76039814D01*
X66077480Y-76182671D01*
X66077480Y-76396957D01*
X66006051Y-76539814D01*
X65934622Y-76611242D01*
X65791765Y-76682671D01*
X65220337Y-76682671D01*
X65220337Y-75182671D01*
X65720337Y-75182671D01*
X65863194Y-75254100D01*
X65934622Y-75325528D01*
X66006051Y-75468385D01*
X66006051Y-75611242D01*
X65934622Y-75754100D01*
X65863194Y-75825528D01*
X65720337Y-75896957D01*
X65220337Y-75896957D01*
X66720337Y-76682671D02*
X66720337Y-75682671D01*
X66720337Y-75182671D02*
X66648908Y-75254100D01*
X66720337Y-75325528D01*
X66791765Y-75254100D01*
X66720337Y-75182671D01*
X66720337Y-75325528D01*
X67220337Y-75682671D02*
X67791765Y-75682671D01*
X67434622Y-75182671D02*
X67434622Y-76468385D01*
X67506051Y-76611242D01*
X67648908Y-76682671D01*
X67791765Y-76682671D01*
X68934622Y-76611242D02*
X68791765Y-76682671D01*
X68506051Y-76682671D01*
X68363194Y-76611242D01*
X68291765Y-76539814D01*
X68220337Y-76396957D01*
X68220337Y-75968385D01*
X68291765Y-75825528D01*
X68363194Y-75754100D01*
X68506051Y-75682671D01*
X68791765Y-75682671D01*
X68934622Y-75754100D01*
X69577480Y-76682671D02*
X69577480Y-75682671D01*
X69577480Y-75968385D02*
X69648908Y-75825528D01*
X69720337Y-75754100D01*
X69863194Y-75682671D01*
X70006051Y-75682671D01*
X71148908Y-76682671D02*
X71148908Y-75896957D01*
X71077480Y-75754100D01*
X70934622Y-75682671D01*
X70648908Y-75682671D01*
X70506051Y-75754100D01*
X71148908Y-76611242D02*
X71006051Y-76682671D01*
X70648908Y-76682671D01*
X70506051Y-76611242D01*
X70434622Y-76468385D01*
X70434622Y-76325528D01*
X70506051Y-76182671D01*
X70648908Y-76111242D01*
X71006051Y-76111242D01*
X71148908Y-76039814D01*
X71720337Y-75682671D02*
X72506051Y-75682671D01*
X71720337Y-76682671D01*
X72506051Y-76682671D01*
X73648908Y-76611242D02*
X73506051Y-76682671D01*
X73220337Y-76682671D01*
X73077480Y-76611242D01*
X73006051Y-76468385D01*
X73006051Y-75896957D01*
X73077480Y-75754100D01*
X73220337Y-75682671D01*
X73506051Y-75682671D01*
X73648908Y-75754100D01*
X73720337Y-75896957D01*
X73720337Y-76039814D01*
X73006051Y-76182671D01*
D10*
D11*
X57002480Y-90504100D02*
X57002480Y-93504100D01*
D10*
D11*
X121002480Y-90504100D02*
X121002480Y-97004100D01*
D14*
X15770860Y361950D02*
X15808960Y400050D01*
X15885160Y438150D01*
X16075660Y438150D01*
X16151860Y400050D01*
X16189960Y361950D01*
X16228060Y285750D01*
X16228060Y209550D01*
X16189960Y95250D01*
X15732760Y-361950D01*
X16228060Y-361950D01*
D15*
D16*
%TO.N,N/C*%
%TO.C,PCB_EDGE2*%
X17000220Y17000220D03*
%TD*%
%TO.N,N/C*%
%TO.C,PCB_EDGE2*%
X-17000220Y-17000220D03*
%TD*%
%TO.N,N/C*%
%TO.C,PCB_EDGE2*%
X17000220Y-17000220D03*
%TD*%
%TO.N,N/C*%
%TO.C,PCB_EDGE1*%
X-17000220Y17000220D03*
%TD*%
D17*
%TO.N,GND*%
%TO.C,P9*%
X12900660Y-4399280D03*
%TD*%
D18*
%TO.N,/POWER/VUSB*%
%TO.C,P8*%
X-12562840Y10302240D03*
D19*
%TO.N,DGND*%
X-14234160Y10302240D03*
%TD*%
D18*
%TO.N,+BATT*%
%TO.C,P2*%
X4663440Y-6499860D03*
D19*
%TO.N,N-000052*%
X6334760Y-6499860D03*
%TD*%
D18*
%TO.N,VCC*%
%TO.C,P5*%
X-1363980Y-5499100D03*
D19*
%TO.N,DGND*%
X-3035300Y-5499100D03*
%TD*%
D18*
%TO.N,+BATT*%
%TO.C,P4*%
X4663440Y-12499340D03*
D19*
%TO.N,N-000053*%
X6334760Y-12499340D03*
%TD*%
D18*
%TO.N,+BATT*%
%TO.C,P1*%
X4663440Y-3500120D03*
D19*
%TO.N,N-000051*%
X6334760Y-3500120D03*
%TD*%
D18*
%TO.N,+BATT*%
%TO.C,P3*%
X4663440Y-9499600D03*
D19*
%TO.N,N-000011*%
X6334760Y-9499600D03*
%TD*%
D20*
%TO.N,AGND*%
%TO.C,P6*%
X-10464800Y5715000D03*
%TO.N,DGND*%
X-10464800Y4445000D03*
%TO.N,VCCA*%
X-11932920Y5715000D03*
%TO.N,DGND*%
X-11932920Y4445000D03*
D21*
%TO.N,VCC*%
X-10464800Y-5715000D03*
D20*
%TO.N,/TMS*%
X-11932920Y-5715000D03*
%TO.N,/TCK*%
X-11932920Y-4445000D03*
%TO.N,/TDO*%
X-11932920Y-3175000D03*
%TO.N,/TDI*%
X-11932920Y-1905000D03*
%TO.N,/SNRST*%
X-11932920Y-635000D03*
%TO.N,/EXT_SPI_MOSI*%
X-11932920Y635000D03*
%TO.N,/EXT_SPI_MISO*%
X-11932920Y1905000D03*
%TO.N,VCOM*%
X-11932920Y3175000D03*
%TO.N,/EXT_I2C_SCL/TX*%
X-10464800Y-4445000D03*
%TO.N,/EXT_I2C_SDA/RX*%
X-10464800Y-3175000D03*
%TO.N,N/C*%
X-10464800Y-1905000D03*
%TO.N,DGND*%
X-10464800Y-635000D03*
%TO.N,/EXT_SPI_CS*%
X-10464800Y635000D03*
%TO.N,/EXT_SPI_SCK*%
X-10464800Y1905000D03*
%TO.N,VCC*%
X-10464800Y3175000D03*
%TD*%
D22*
%TO.N,GND*%
%TO.C,U8*%
X8999220Y1998980D03*
D23*
X8999220Y1998980D03*
X8498840Y1498600D03*
X9499600Y1498600D03*
X8498840Y2499360D03*
X9499600Y2499360D03*
%TD*%
D24*
%TO.N,+BATT*%
%TO.C,BT1*%
X12700000Y1752600D03*
D25*
%TO.N,GND*%
X12700000Y3652520D03*
%TD*%
D26*
%TO.N,/EXT_I2C_SCL/TX*%
X-25400Y-741680D03*
%TO.N,/EXT_I2C_SDA/RX*%
X-822960Y-1000760D03*
%TO.N,/EXT_SPI_CS*%
X2062480Y3629660D03*
%TO.N,/EXT_SPI_MISO*%
X530860Y2001520D03*
%TO.N,/EXT_SPI_MOSI*%
X764540Y645160D03*
%TO.N,/EXT_SPI_SCK*%
X1376680Y2994660D03*
%TO.N,/IMU/I2C_SCL_VCCA*%
X-6390640Y10899140D03*
%TO.N,/IMU/I2C_SDA_VCCA*%
X-2760980Y2359660D03*
%TO.N,/IMU/INT_GA*%
X1671320Y13662660D03*
%TO.N,/LED_GREEN*%
X-6629400Y6588760D03*
X7480300Y14300200D03*
X-4930140Y6720840D03*
%TO.N,/LED_RED*%
X-13251180Y-1290320D03*
%TO.N,/MOTOR1*%
X2468880Y1160780D03*
%TO.N,/MOTOR2*%
X1678940Y1440180D03*
%TO.N,/MOTOR3*%
X1049020Y-119380D03*
%TO.N,/MOTOR4*%
X-579120Y-60960D03*
%TO.N,/POWER/CHG*%
X2590800Y358140D03*
%TO.N,/POWER/EN1*%
X-2687320Y6784340D03*
%TO.N,/POWER/EN2*%
X10081260Y3929380D03*
%TO.N,/POWER/PGOOD*%
X3629660Y5293360D03*
X7858760Y4338320D03*
%TO.N,/POWER/SYSOFF*%
X7185660Y5412740D03*
%TO.N,/POWER/USBD+*%
X-2260600Y2989580D03*
X-7980680Y4579620D03*
%TO.N,/POWER/USBD-*%
X-1450340Y3009900D03*
X-9410700Y5158740D03*
%TO.N,/POWER/USB_CON*%
X-4599940Y8470900D03*
X-11630660Y9298940D03*
X2700020Y7399020D03*
X-3268980Y7350760D03*
%TO.N,/POWER/VUSB*%
X5798820Y5389880D03*
X-12700000Y7800340D03*
X7520940Y541020D03*
%TO.N,/SNRST*%
X614680Y3873500D03*
X-9100820Y2400300D03*
%TO.N,/TDI*%
X-5836920Y-546100D03*
%TO.N,/WIRELESS/SPI_MISO*%
X1000760Y-7698740D03*
%TO.N,/WIRELESS/SPI_MOSI*%
X1000760Y-8801100D03*
%TO.N,/WIRELESS/SPI_SCK*%
X899160Y-9799320D03*
%TO.N,/WIRELESS/W_CE*%
X398780Y-11099800D03*
%TO.N,/WIRELESS/W_CK*%
X680720Y-5900420D03*
%TO.N,/WIRELESS/W_CS*%
X1059180Y-10599420D03*
%TO.N,/WIRELESS/W_INT*%
X220980Y-6659880D03*
%TO.N,AGND*%
X13098780Y14099540D03*
X8569960Y11739880D03*
X-2499360Y8600440D03*
X6210300Y13721080D03*
X-5600700Y7299960D03*
X13700760Y14698980D03*
X6149340Y7980680D03*
X640080Y6731000D03*
X-2799080Y13700760D03*
X-1930400Y7670800D03*
X14500860Y14500860D03*
X2570480Y13530580D03*
%TO.N,DGND*%
X-14000480Y-7500620D03*
X-8001000Y-12499340D03*
X8199120Y-4099560D03*
X-12999720Y-7500620D03*
X-9100820Y-8399780D03*
X8770620Y-14511020D03*
X701040Y-13799820D03*
X-8669020Y-4180840D03*
X8069580Y-14069060D03*
X-14000480Y-5999480D03*
X-2100580Y-10500360D03*
X-10200640Y-8699500D03*
X-11501120Y-8498840D03*
X-2499360Y-9100820D03*
X-500380Y-11998960D03*
X-4300220Y-8199120D03*
X-5290820Y3091180D03*
X-11998960Y-7500620D03*
X-5999480Y-12499340D03*
X-7800340Y-6299200D03*
X-8399780Y-5699760D03*
X-7000240Y-5600700D03*
X-14000480Y-4500880D03*
X8001000Y-10650220D03*
X-9100820Y-7500620D03*
X-9999980Y-7500620D03*
X-2359660Y-3870960D03*
X-14000480Y-2999740D03*
X8999220Y-4399280D03*
X-8999220Y-12499340D03*
X-5300980Y-7500620D03*
X-7000240Y-12499340D03*
X-5999480Y-6499860D03*
X-12999720Y-8498840D03*
X-4399280Y-6499860D03*
X-7500620Y-14000480D03*
X-5300980Y-5600700D03*
X-3401060Y-10500360D03*
X-4099560Y-12700000D03*
X-11000740Y-7500620D03*
X-9100820Y-6299200D03*
%TO.N,GND*%
X11501120Y-11300460D03*
X11699240Y3799840D03*
X12931140Y-11460480D03*
X10010140Y5648960D03*
X13898880Y-7800340D03*
X14201140Y-8699500D03*
X14000480Y-7000240D03*
X10899140Y-2400300D03*
%TO.N,N-000069*%
X5300980Y7899400D03*
X7599680Y6639560D03*
%TO.N,N-000073*%
X6799580Y6918960D03*
X4500880Y7289800D03*
%TO.N,N-000077*%
X8900160Y-599440D03*
%TO.N,N-000081*%
X14259560Y8823960D03*
%TO.N,VCC*%
X-5450840Y4140200D03*
X14800580Y769620D03*
X3500120Y-1899920D03*
X-3411220Y-13799820D03*
X13070840Y-12999720D03*
X-13299440Y2400300D03*
X1678940Y-12860020D03*
X15430500Y14333220D03*
X8161020Y-12070080D03*
X-3319780Y-2260600D03*
X-7879080Y-2280920D03*
X-16040100Y13479780D03*
%TO.N,VCCA*%
X-7099300Y7299960D03*
X-3700780Y13700760D03*
X4831080Y13609320D03*
X2748280Y9850120D03*
X11000740Y14099540D03*
X10099040Y14300200D03*
X1899920Y7800340D03*
X11600180Y9298940D03*
X-5100320Y9499600D03*
%TO.N,VCOM*%
X6570980Y3098800D03*
X8509000Y6510020D03*
X14099540Y-10899140D03*
X14800580Y-200660D03*
X14099540Y-9900920D03*
X12760960Y-6850380D03*
X6428740Y1480820D03*
X6489700Y2301240D03*
%TD*%
D27*
%TO.N,AGND*%
X15218280Y16603141D02*
X16403490Y15416257D01*
X16558453Y14817546D01*
X14915765Y9065009D01*
X14878563Y9154824D01*
X14802121Y9269228D01*
X14704828Y9366521D01*
X14590424Y9442963D01*
X14463305Y9495617D01*
X14328356Y9522460D01*
X14190764Y9522460D01*
X14055815Y9495617D01*
X13928696Y9442963D01*
X13814292Y9366521D01*
X13716999Y9269228D01*
X13640557Y9154824D01*
X13587903Y9027705D01*
X13561060Y8892756D01*
X13561060Y8755164D01*
X13587903Y8620215D01*
X13640557Y8493096D01*
X13716999Y8378692D01*
X13769571Y8326120D01*
X7498080Y8326120D01*
X7473304Y8323680D01*
X7449479Y8316453D01*
X7427523Y8304717D01*
X7408277Y8288923D01*
X7009497Y7890143D01*
X6993703Y7870897D01*
X6981967Y7848941D01*
X6974740Y7825116D01*
X6972300Y7800340D01*
X6972300Y7596788D01*
X6868376Y7617460D01*
X6730784Y7617460D01*
X6595835Y7590617D01*
X6468716Y7537963D01*
X6354312Y7461521D01*
X6257019Y7364228D01*
X6180577Y7249824D01*
X6127923Y7122705D01*
X6101080Y6987756D01*
X6101080Y6850164D01*
X6127923Y6715215D01*
X6180577Y6588096D01*
X6257019Y6473692D01*
X6354312Y6376399D01*
X6468716Y6299957D01*
X6595835Y6247303D01*
X6730784Y6220460D01*
X6868376Y6220460D01*
X6972300Y6241132D01*
X6972300Y6080414D01*
X6854796Y6031743D01*
X6740392Y5955301D01*
X6643099Y5858008D01*
X6566657Y5743604D01*
X6514003Y5616485D01*
X6489966Y5495645D01*
X6470477Y5593625D01*
X6417823Y5720744D01*
X6341381Y5835148D01*
X6244088Y5932441D01*
X6129684Y6008883D01*
X6002565Y6061537D01*
X5867616Y6088380D01*
X5730024Y6088380D01*
X5595075Y6061537D01*
X5467956Y6008883D01*
X5353552Y5932441D01*
X5256259Y5835148D01*
X5179817Y5720744D01*
X5127163Y5593625D01*
X5100320Y5458676D01*
X5100320Y5321084D01*
X5127163Y5186135D01*
X5179817Y5059016D01*
X5256259Y4944612D01*
X5353552Y4847319D01*
X5467956Y4770877D01*
X5595075Y4718223D01*
X5730024Y4691380D01*
X5867616Y4691380D01*
X6002565Y4718223D01*
X6129684Y4770877D01*
X6244088Y4847319D01*
X6341381Y4944612D01*
X6417823Y5059016D01*
X6470477Y5186135D01*
X6494514Y5306975D01*
X6514003Y5208995D01*
X6566657Y5081876D01*
X6643099Y4967472D01*
X6740392Y4870179D01*
X6854796Y4793737D01*
X6972300Y4745066D01*
X6972300Y3670726D01*
X6901844Y3717803D01*
X6774725Y3770457D01*
X6639776Y3797300D01*
X6502184Y3797300D01*
X6367235Y3770457D01*
X6240116Y3717803D01*
X6125712Y3641361D01*
X6028419Y3544068D01*
X5951977Y3429664D01*
X5899323Y3302545D01*
X5872480Y3167596D01*
X5872480Y3030004D01*
X5899323Y2895055D01*
X5951977Y2767936D01*
X5958622Y2757991D01*
X5947139Y2746508D01*
X5934746Y2727960D01*
X2022260Y2727960D01*
X2048337Y2790915D01*
X2075180Y2925864D01*
X2075180Y2931160D01*
X2131276Y2931160D01*
X2266225Y2958003D01*
X2393344Y3010657D01*
X2507748Y3087099D01*
X2605041Y3184392D01*
X2681483Y3298796D01*
X2734137Y3425915D01*
X2760980Y3560864D01*
X2760980Y3698456D01*
X2734137Y3833405D01*
X2681483Y3960524D01*
X2605041Y4074928D01*
X2507748Y4172221D01*
X2393344Y4248663D01*
X2266225Y4301317D01*
X2131276Y4328160D01*
X1993684Y4328160D01*
X1858735Y4301317D01*
X1731616Y4248663D01*
X1617212Y4172221D01*
X1519919Y4074928D01*
X1443477Y3960524D01*
X1390823Y3833405D01*
X1363980Y3698456D01*
X1363980Y3693160D01*
X1307884Y3693160D01*
X1290297Y3689662D01*
X1313180Y3804704D01*
X1313180Y3942296D01*
X1286337Y4077245D01*
X1233683Y4204364D01*
X1157241Y4318768D01*
X1059948Y4416061D01*
X945544Y4492503D01*
X818425Y4545157D01*
X683476Y4572000D01*
X545884Y4572000D01*
X410935Y4545157D01*
X283816Y4492503D01*
X169412Y4416061D01*
X72119Y4318768D01*
X-4323Y4204364D01*
X-56977Y4077245D01*
X-83820Y3942296D01*
X-83820Y3804704D01*
X-56977Y3669755D01*
X-4323Y3542636D01*
X72119Y3428232D01*
X169412Y3330939D01*
X283816Y3254497D01*
X410935Y3201843D01*
X545884Y3175000D01*
X683476Y3175000D01*
X701063Y3178498D01*
X678180Y3063456D01*
X678180Y2925864D01*
X705023Y2790915D01*
X731100Y2727960D01*
X-148054Y2727960D01*
X-472440Y3052346D01*
X-472440Y5001260D01*
X-474880Y5026036D01*
X-482107Y5049861D01*
X-493843Y5071817D01*
X-509637Y5091063D01*
X-780730Y5362156D01*
X2931160Y5362156D01*
X2931160Y5224564D01*
X2958003Y5089615D01*
X3010657Y4962496D01*
X3087099Y4848092D01*
X3184392Y4750799D01*
X3298796Y4674357D01*
X3425915Y4621703D01*
X3560864Y4594860D01*
X3698456Y4594860D01*
X3833405Y4621703D01*
X3960524Y4674357D01*
X4074928Y4750799D01*
X4172221Y4848092D01*
X4248663Y4962496D01*
X4301317Y5089615D01*
X4328160Y5224564D01*
X4328160Y5362156D01*
X4301317Y5497105D01*
X4248663Y5624224D01*
X4172221Y5738628D01*
X4074928Y5835921D01*
X3960524Y5912363D01*
X3833405Y5965017D01*
X3698456Y5991860D01*
X3560864Y5991860D01*
X3425915Y5965017D01*
X3298796Y5912363D01*
X3184392Y5835921D01*
X3087099Y5738628D01*
X3010657Y5624224D01*
X2958003Y5497105D01*
X2931160Y5362156D01*
X-780730Y5362156D01*
X-908417Y5489843D01*
X-927663Y5505637D01*
X-949619Y5517373D01*
X-973444Y5524600D01*
X-998220Y5527040D01*
X-8816711Y5527040D01*
X-8868139Y5604008D01*
X-8965432Y5701301D01*
X-9079836Y5777743D01*
X-9206955Y5830397D01*
X-9341904Y5857240D01*
X-9479496Y5857240D01*
X-9614445Y5830397D01*
X-9741564Y5777743D01*
X-9855968Y5701301D01*
X-9953261Y5604008D01*
X-10004689Y5527040D01*
X-10974352Y5527040D01*
X-10963781Y5561887D01*
X-10948701Y5715000D01*
X-10963781Y5868113D01*
X-11008443Y6015341D01*
X-11080969Y6151028D01*
X-11178572Y6269958D01*
X-11297502Y6367561D01*
X-11433189Y6440087D01*
X-11580417Y6484749D01*
X-11695160Y6496050D01*
X-12170680Y6496050D01*
X-12285423Y6484749D01*
X-12432651Y6440087D01*
X-12568338Y6367561D01*
X-12687268Y6269958D01*
X-12784871Y6151028D01*
X-12857397Y6015341D01*
X-12902059Y5868113D01*
X-12917139Y5715000D01*
X-12902059Y5561887D01*
X-12891488Y5527040D01*
X-14049474Y5527040D01*
X-14373860Y5851426D01*
X-14373860Y7869136D01*
X-13398500Y7869136D01*
X-13398500Y7731544D01*
X-13371657Y7596595D01*
X-13319003Y7469476D01*
X-13242561Y7355072D01*
X-13145268Y7257779D01*
X-13030864Y7181337D01*
X-12903745Y7128683D01*
X-12768796Y7101840D01*
X-12631204Y7101840D01*
X-12496255Y7128683D01*
X-12369136Y7181337D01*
X-12254732Y7257779D01*
X-12157439Y7355072D01*
X-12148296Y7368756D01*
X-7797800Y7368756D01*
X-7797800Y7231164D01*
X-7770957Y7096215D01*
X-7718303Y6969096D01*
X-7641861Y6854692D01*
X-7544568Y6757399D01*
X-7430164Y6680957D01*
X-7327900Y6638598D01*
X-7327900Y6519964D01*
X-7301057Y6385015D01*
X-7248403Y6257896D01*
X-7171961Y6143492D01*
X-7074668Y6046199D01*
X-6960264Y5969757D01*
X-6833145Y5917103D01*
X-6698196Y5890260D01*
X-6560604Y5890260D01*
X-6425655Y5917103D01*
X-6298536Y5969757D01*
X-6184132Y6046199D01*
X-6086839Y6143492D01*
X-6010397Y6257896D01*
X-5957743Y6385015D01*
X-5930900Y6519964D01*
X-5930900Y6657556D01*
X-5957172Y6789636D01*
X-5628640Y6789636D01*
X-5628640Y6652044D01*
X-5601797Y6517095D01*
X-5549143Y6389976D01*
X-5472701Y6275572D01*
X-5375408Y6178279D01*
X-5261004Y6101837D01*
X-5133885Y6049183D01*
X-4998936Y6022340D01*
X-4861344Y6022340D01*
X-4726395Y6049183D01*
X-4599276Y6101837D01*
X-4484872Y6178279D01*
X-4387579Y6275572D01*
X-4311137Y6389976D01*
X-4258483Y6517095D01*
X-4231640Y6652044D01*
X-4231640Y6789636D01*
X-4258483Y6924585D01*
X-4311137Y7051704D01*
X-4387579Y7166108D01*
X-4484872Y7263401D01*
X-4599276Y7339843D01*
X-4726395Y7392497D01*
X-4861344Y7419340D01*
X-4998936Y7419340D01*
X-5133885Y7392497D01*
X-5261004Y7339843D01*
X-5375408Y7263401D01*
X-5472701Y7166108D01*
X-5549143Y7051704D01*
X-5601797Y6924585D01*
X-5628640Y6789636D01*
X-5957172Y6789636D01*
X-5957743Y6792505D01*
X-6010397Y6919624D01*
X-6086839Y7034028D01*
X-6184132Y7131321D01*
X-6298536Y7207763D01*
X-6400800Y7250122D01*
X-6400800Y7368756D01*
X-6410904Y7419556D01*
X-3967480Y7419556D01*
X-3967480Y7281964D01*
X-3940637Y7147015D01*
X-3887983Y7019896D01*
X-3811541Y6905492D01*
X-3714248Y6808199D01*
X-3599844Y6731757D01*
X-3472725Y6679103D01*
X-3374693Y6659603D01*
X-3358977Y6580595D01*
X-3306323Y6453476D01*
X-3229881Y6339072D01*
X-3132588Y6241779D01*
X-3018184Y6165337D01*
X-2891065Y6112683D01*
X-2756116Y6085840D01*
X-2618524Y6085840D01*
X-2483575Y6112683D01*
X-2356456Y6165337D01*
X-2242052Y6241779D01*
X-2144759Y6339072D01*
X-2068317Y6453476D01*
X-2015663Y6580595D01*
X-1988820Y6715544D01*
X-1988820Y6853136D01*
X-2015663Y6988085D01*
X-2068317Y7115204D01*
X-2144759Y7229608D01*
X-2242052Y7326901D01*
X-2356456Y7403343D01*
X-2483575Y7455997D01*
X-2581607Y7475497D01*
X-2597323Y7554505D01*
X-2649977Y7681624D01*
X-2726419Y7796028D01*
X-2799527Y7869136D01*
X1201420Y7869136D01*
X1201420Y7731544D01*
X1228263Y7596595D01*
X1280917Y7469476D01*
X1357359Y7355072D01*
X1454652Y7257779D01*
X1569056Y7181337D01*
X1696175Y7128683D01*
X1831124Y7101840D01*
X1968716Y7101840D01*
X2059578Y7119914D01*
X2081017Y7068156D01*
X2157459Y6953752D01*
X2254752Y6856459D01*
X2369156Y6780017D01*
X2496275Y6727363D01*
X2631224Y6700520D01*
X2768816Y6700520D01*
X2903765Y6727363D01*
X3030884Y6780017D01*
X3145288Y6856459D01*
X3242581Y6953752D01*
X3319023Y7068156D01*
X3371677Y7195275D01*
X3398520Y7330224D01*
X3398520Y7358596D01*
X3802380Y7358596D01*
X3802380Y7221004D01*
X3829223Y7086055D01*
X3881877Y6958936D01*
X3958319Y6844532D01*
X4055612Y6747239D01*
X4170016Y6670797D01*
X4297135Y6618143D01*
X4432084Y6591300D01*
X4569676Y6591300D01*
X4704625Y6618143D01*
X4831744Y6670797D01*
X4946148Y6747239D01*
X5043441Y6844532D01*
X5119883Y6958936D01*
X5172537Y7086055D01*
X5196782Y7207942D01*
X5232184Y7200900D01*
X5369776Y7200900D01*
X5504725Y7227743D01*
X5631844Y7280397D01*
X5746248Y7356839D01*
X5843541Y7454132D01*
X5919983Y7568536D01*
X5972637Y7695655D01*
X5999480Y7830604D01*
X5999480Y7968196D01*
X5972637Y8103145D01*
X5919983Y8230264D01*
X5843541Y8344668D01*
X5746248Y8441961D01*
X5631844Y8518403D01*
X5504725Y8571057D01*
X5369776Y8597900D01*
X5232184Y8597900D01*
X5097235Y8571057D01*
X4970116Y8518403D01*
X4855712Y8441961D01*
X4758419Y8344668D01*
X4681977Y8230264D01*
X4629323Y8103145D01*
X4605078Y7981258D01*
X4569676Y7988300D01*
X4432084Y7988300D01*
X4297135Y7961457D01*
X4170016Y7908803D01*
X4055612Y7832361D01*
X3958319Y7735068D01*
X3881877Y7620664D01*
X3829223Y7493545D01*
X3802380Y7358596D01*
X3398520Y7358596D01*
X3398520Y7467816D01*
X3371677Y7602765D01*
X3319023Y7729884D01*
X3242581Y7844288D01*
X3145288Y7941581D01*
X3030884Y8018023D01*
X2903765Y8070677D01*
X2768816Y8097520D01*
X2631224Y8097520D01*
X2540362Y8079446D01*
X2518923Y8131204D01*
X2442481Y8245608D01*
X2345188Y8342901D01*
X2230784Y8419343D01*
X2103665Y8471997D01*
X1968716Y8498840D01*
X1831124Y8498840D01*
X1696175Y8471997D01*
X1569056Y8419343D01*
X1454652Y8342901D01*
X1357359Y8245608D01*
X1280917Y8131204D01*
X1228263Y8004085D01*
X1201420Y7869136D01*
X-2799527Y7869136D01*
X-2823712Y7893321D01*
X-2938116Y7969763D01*
X-3065235Y8022417D01*
X-3200184Y8049260D01*
X-3337776Y8049260D01*
X-3472725Y8022417D01*
X-3599844Y7969763D01*
X-3714248Y7893321D01*
X-3811541Y7796028D01*
X-3887983Y7681624D01*
X-3940637Y7554505D01*
X-3967480Y7419556D01*
X-6410904Y7419556D01*
X-6427643Y7503705D01*
X-6480297Y7630824D01*
X-6556739Y7745228D01*
X-6654032Y7842521D01*
X-6768436Y7918963D01*
X-6895555Y7971617D01*
X-7030504Y7998460D01*
X-7168096Y7998460D01*
X-7303045Y7971617D01*
X-7430164Y7918963D01*
X-7544568Y7842521D01*
X-7641861Y7745228D01*
X-7718303Y7630824D01*
X-7770957Y7503705D01*
X-7797800Y7368756D01*
X-12148296Y7368756D01*
X-12080997Y7469476D01*
X-12028343Y7596595D01*
X-12001500Y7731544D01*
X-12001500Y7869136D01*
X-12028343Y8004085D01*
X-12080997Y8131204D01*
X-12157439Y8245608D01*
X-12254732Y8342901D01*
X-12369136Y8419343D01*
X-12496255Y8471997D01*
X-12631204Y8498840D01*
X-12768796Y8498840D01*
X-12903745Y8471997D01*
X-13030864Y8419343D01*
X-13145268Y8342901D01*
X-13242561Y8245608D01*
X-13319003Y8131204D01*
X-13371657Y8004085D01*
X-13398500Y7869136D01*
X-14373860Y7869136D01*
X-14373860Y8201660D01*
X-14376528Y8227557D01*
X-14535746Y8991953D01*
X-14543640Y9016762D01*
X-14743257Y9475150D01*
X-14606331Y9433613D01*
X-14476844Y9420860D01*
X-13991476Y9420860D01*
X-13861989Y9433613D01*
X-13695849Y9484012D01*
X-13555988Y9558769D01*
X-13533321Y9531149D01*
X-13475306Y9483538D01*
X-13409118Y9448159D01*
X-13337299Y9426373D01*
X-13262610Y9419017D01*
X-12318960Y9419017D01*
X-12329160Y9367736D01*
X-12329160Y9230144D01*
X-12302317Y9095195D01*
X-12249663Y8968076D01*
X-12173221Y8853672D01*
X-12075928Y8756379D01*
X-11961524Y8679937D01*
X-11834405Y8627283D01*
X-11699456Y8600440D01*
X-11561864Y8600440D01*
X-11426915Y8627283D01*
X-11299796Y8679937D01*
X-11185392Y8756379D01*
X-11088099Y8853672D01*
X-11011657Y8968076D01*
X-10959003Y9095195D01*
X-10932160Y9230144D01*
X-10932160Y9367736D01*
X-10959003Y9502685D01*
X-10986221Y9568396D01*
X-5798820Y9568396D01*
X-5798820Y9430804D01*
X-5771977Y9295855D01*
X-5719323Y9168736D01*
X-5642881Y9054332D01*
X-5545588Y8957039D01*
X-5431184Y8880597D01*
X-5304065Y8827943D01*
X-5213489Y8809926D01*
X-5218943Y8801764D01*
X-5271597Y8674645D01*
X-5298440Y8539696D01*
X-5298440Y8402104D01*
X-5271597Y8267155D01*
X-5218943Y8140036D01*
X-5142501Y8025632D01*
X-5045208Y7928339D01*
X-4930804Y7851897D01*
X-4803685Y7799243D01*
X-4668736Y7772400D01*
X-4531144Y7772400D01*
X-4396195Y7799243D01*
X-4269076Y7851897D01*
X-4154672Y7928339D01*
X-4057379Y8025632D01*
X-3980937Y8140036D01*
X-3928283Y8267155D01*
X-3901440Y8402104D01*
X-3901440Y8539696D01*
X-3928283Y8674645D01*
X-3980937Y8801764D01*
X-4057379Y8916168D01*
X-4154672Y9013461D01*
X-4269076Y9089903D01*
X-4396195Y9142557D01*
X-4486771Y9160574D01*
X-4481317Y9168736D01*
X-4428663Y9295855D01*
X-4401820Y9430804D01*
X-4401820Y9568396D01*
X-4428663Y9703345D01*
X-4481317Y9830464D01*
X-4540418Y9918916D01*
X2049780Y9918916D01*
X2049780Y9781324D01*
X2076623Y9646375D01*
X2129277Y9519256D01*
X2205719Y9404852D01*
X2303012Y9307559D01*
X2417416Y9231117D01*
X2544535Y9178463D01*
X2679484Y9151620D01*
X2817076Y9151620D01*
X2952025Y9178463D01*
X3079144Y9231117D01*
X3193548Y9307559D01*
X3253725Y9367736D01*
X10901680Y9367736D01*
X10901680Y9230144D01*
X10928523Y9095195D01*
X10981177Y8968076D01*
X11057619Y8853672D01*
X11154912Y8756379D01*
X11269316Y8679937D01*
X11396435Y8627283D01*
X11531384Y8600440D01*
X11668976Y8600440D01*
X11803925Y8627283D01*
X11931044Y8679937D01*
X12045448Y8756379D01*
X12142741Y8853672D01*
X12219183Y8968076D01*
X12271837Y9095195D01*
X12298680Y9230144D01*
X12298680Y9367736D01*
X12271837Y9502685D01*
X12219183Y9629804D01*
X12142741Y9744208D01*
X12045448Y9841501D01*
X11931044Y9917943D01*
X11803925Y9970597D01*
X11668976Y9997440D01*
X11531384Y9997440D01*
X11396435Y9970597D01*
X11269316Y9917943D01*
X11154912Y9841501D01*
X11057619Y9744208D01*
X10981177Y9629804D01*
X10928523Y9502685D01*
X10901680Y9367736D01*
X3253725Y9367736D01*
X3290841Y9404852D01*
X3367283Y9519256D01*
X3419937Y9646375D01*
X3446780Y9781324D01*
X3446780Y9918916D01*
X3419937Y10053865D01*
X3367283Y10180984D01*
X3290841Y10295388D01*
X3193548Y10392681D01*
X3079144Y10469123D01*
X2952025Y10521777D01*
X2817076Y10548620D01*
X2679484Y10548620D01*
X2544535Y10521777D01*
X2417416Y10469123D01*
X2303012Y10392681D01*
X2205719Y10295388D01*
X2129277Y10180984D01*
X2076623Y10053865D01*
X2049780Y9918916D01*
X-4540418Y9918916D01*
X-4557759Y9944868D01*
X-4655052Y10042161D01*
X-4769456Y10118603D01*
X-4896575Y10171257D01*
X-5031524Y10198100D01*
X-5169116Y10198100D01*
X-5304065Y10171257D01*
X-5431184Y10118603D01*
X-5545588Y10042161D01*
X-5642881Y9944868D01*
X-5719323Y9830464D01*
X-5771977Y9703345D01*
X-5798820Y9568396D01*
X-10986221Y9568396D01*
X-11011657Y9629804D01*
X-11088099Y9744208D01*
X-11185392Y9841501D01*
X-11299796Y9917943D01*
X-11426915Y9970597D01*
X-11480227Y9981201D01*
X-11480227Y10802620D01*
X-11487583Y10877309D01*
X-11509369Y10949128D01*
X-11519422Y10967936D01*
X-7089140Y10967936D01*
X-7089140Y10830344D01*
X-7062297Y10695395D01*
X-7009643Y10568276D01*
X-6933201Y10453872D01*
X-6835908Y10356579D01*
X-6721504Y10280137D01*
X-6594385Y10227483D01*
X-6459436Y10200640D01*
X-6321844Y10200640D01*
X-6186895Y10227483D01*
X-6059776Y10280137D01*
X-5945372Y10356579D01*
X-5848079Y10453872D01*
X-5771637Y10568276D01*
X-5718983Y10695395D01*
X-5692140Y10830344D01*
X-5692140Y10967936D01*
X-5718983Y11102885D01*
X-5771637Y11230004D01*
X-5848079Y11344408D01*
X-5945372Y11441701D01*
X-6059776Y11518143D01*
X-6186895Y11570797D01*
X-6321844Y11597640D01*
X-6459436Y11597640D01*
X-6594385Y11570797D01*
X-6721504Y11518143D01*
X-6835908Y11441701D01*
X-6933201Y11344408D01*
X-7009643Y11230004D01*
X-7062297Y11102885D01*
X-7089140Y10967936D01*
X-11519422Y10967936D01*
X-11544748Y11015316D01*
X-11592359Y11073331D01*
X-11650374Y11120942D01*
X-11716562Y11156321D01*
X-11788381Y11178107D01*
X-11863070Y11185463D01*
X-13262610Y11185463D01*
X-13337299Y11178107D01*
X-13409118Y11156321D01*
X-13475306Y11120942D01*
X-13533321Y11073331D01*
X-13555988Y11045711D01*
X-13695849Y11120468D01*
X-13861989Y11170867D01*
X-13991476Y11183620D01*
X-14476844Y11183620D01*
X-14606331Y11170867D01*
X-14772471Y11120468D01*
X-14925587Y11038626D01*
X-15059795Y10928485D01*
X-15169936Y10794277D01*
X-15251365Y10641934D01*
X-16171796Y12755550D01*
X-16187275Y12796871D01*
X-16108896Y12781280D01*
X-15971304Y12781280D01*
X-15836355Y12808123D01*
X-15709236Y12860777D01*
X-15594832Y12937219D01*
X-15497539Y13034512D01*
X-15421097Y13148916D01*
X-15368443Y13276035D01*
X-15341600Y13410984D01*
X-15341600Y13548576D01*
X-15368443Y13683525D01*
X-15421097Y13810644D01*
X-15497539Y13925048D01*
X-15594832Y14022341D01*
X-15709236Y14098783D01*
X-15836355Y14151437D01*
X-15971304Y14178280D01*
X-16108896Y14178280D01*
X-16243845Y14151437D01*
X-16370964Y14098783D01*
X-16485368Y14022341D01*
X-16582661Y13925048D01*
X-16623858Y13863392D01*
X-16756326Y14181449D01*
X-16762194Y14196816D01*
X-16765412Y14203264D01*
X-16768176Y14209900D01*
X-16775939Y14224357D01*
X-16903771Y14480484D01*
X-16801414Y15020440D01*
X-16110439Y15711415D01*
X-15476357Y15974060D01*
X-6750586Y15974060D01*
X-6441185Y15664659D01*
X-6440838Y15662839D01*
X-6438896Y15656406D01*
X-6426200Y15615392D01*
X-6426200Y14798040D01*
X-6423760Y14773264D01*
X-6416533Y14749439D01*
X-6404797Y14727483D01*
X-6389003Y14708237D01*
X-5990223Y14309457D01*
X-5970977Y14293663D01*
X-5949021Y14281927D01*
X-5925196Y14274700D01*
X-5900420Y14272260D01*
X-4102738Y14272260D01*
X-4146048Y14243321D01*
X-4243341Y14146028D01*
X-4319783Y14031624D01*
X-4372437Y13904505D01*
X-4399280Y13769556D01*
X-4399280Y13631964D01*
X-4372437Y13497015D01*
X-4319783Y13369896D01*
X-4243341Y13255492D01*
X-4146048Y13158199D01*
X-4031644Y13081757D01*
X-3904525Y13029103D01*
X-3769576Y13002260D01*
X-3631984Y13002260D01*
X-3497035Y13029103D01*
X-3369916Y13081757D01*
X-3255512Y13158199D01*
X-3158219Y13255492D01*
X-3081777Y13369896D01*
X-3029123Y13497015D01*
X-3002280Y13631964D01*
X-3002280Y13769556D01*
X-3029123Y13904505D01*
X-3081777Y14031624D01*
X-3158219Y14146028D01*
X-3255512Y14243321D01*
X-3298822Y14272260D01*
X1326383Y14272260D01*
X1226052Y14205221D01*
X1128759Y14107928D01*
X1052317Y13993524D01*
X999663Y13866405D01*
X972820Y13731456D01*
X972820Y13593864D01*
X999663Y13458915D01*
X1052317Y13331796D01*
X1128759Y13217392D01*
X1226052Y13120099D01*
X1340456Y13043657D01*
X1467575Y12991003D01*
X1602524Y12964160D01*
X1740116Y12964160D01*
X1875065Y12991003D01*
X2002184Y13043657D01*
X2116588Y13120099D01*
X2213881Y13217392D01*
X2290323Y13331796D01*
X2342977Y13458915D01*
X2369820Y13593864D01*
X2369820Y13731456D01*
X2342977Y13866405D01*
X2290323Y13993524D01*
X2213881Y14107928D01*
X2116588Y14205221D01*
X2016257Y14272260D01*
X4606290Y14272260D01*
X4500216Y14228323D01*
X4385812Y14151881D01*
X4288519Y14054588D01*
X4212077Y13940184D01*
X4159423Y13813065D01*
X4132580Y13678116D01*
X4132580Y13540524D01*
X4159423Y13405575D01*
X4212077Y13278456D01*
X4288519Y13164052D01*
X4385812Y13066759D01*
X4500216Y12990317D01*
X4627335Y12937663D01*
X4762284Y12910820D01*
X4899876Y12910820D01*
X5034825Y12937663D01*
X5161944Y12990317D01*
X5276348Y13066759D01*
X5373641Y13164052D01*
X5450083Y13278456D01*
X5502737Y13405575D01*
X5529580Y13540524D01*
X5529580Y13678116D01*
X5502737Y13813065D01*
X5450083Y13940184D01*
X5373641Y14054588D01*
X5276348Y14151881D01*
X5161944Y14228323D01*
X5055870Y14272260D01*
X6365240Y14272260D01*
X6384586Y14273742D01*
X6781800Y14334964D01*
X6781800Y14231404D01*
X6808643Y14096455D01*
X6861297Y13969336D01*
X6937739Y13854932D01*
X7035032Y13757639D01*
X7149436Y13681197D01*
X7276555Y13628543D01*
X7411504Y13601700D01*
X7549096Y13601700D01*
X7684045Y13628543D01*
X7811164Y13681197D01*
X7925568Y13757639D01*
X8022861Y13854932D01*
X8099303Y13969336D01*
X8151957Y14096455D01*
X8178800Y14231404D01*
X8178800Y14368996D01*
X9400540Y14368996D01*
X9400540Y14231404D01*
X9427383Y14096455D01*
X9480037Y13969336D01*
X9556479Y13854932D01*
X9653772Y13757639D01*
X9768176Y13681197D01*
X9895295Y13628543D01*
X10030244Y13601700D01*
X10167836Y13601700D01*
X10302785Y13628543D01*
X10429904Y13681197D01*
X10437014Y13685948D01*
X10458179Y13654272D01*
X10555472Y13556979D01*
X10669876Y13480537D01*
X10796995Y13427883D01*
X10931944Y13401040D01*
X11069536Y13401040D01*
X11204485Y13427883D01*
X11331604Y13480537D01*
X11446008Y13556979D01*
X11543301Y13654272D01*
X11619743Y13768676D01*
X11672397Y13895795D01*
X11699240Y14030744D01*
X11699240Y14168336D01*
X11672397Y14303285D01*
X11631502Y14402016D01*
X14732000Y14402016D01*
X14732000Y14264424D01*
X14758843Y14129475D01*
X14811497Y14002356D01*
X14887939Y13887952D01*
X14985232Y13790659D01*
X15099636Y13714217D01*
X15226755Y13661563D01*
X15361704Y13634720D01*
X15499296Y13634720D01*
X15634245Y13661563D01*
X15761364Y13714217D01*
X15875768Y13790659D01*
X15973061Y13887952D01*
X16049503Y14002356D01*
X16102157Y14129475D01*
X16129000Y14264424D01*
X16129000Y14402016D01*
X16102157Y14536965D01*
X16049503Y14664084D01*
X15973061Y14778488D01*
X15875768Y14875781D01*
X15761364Y14952223D01*
X15634245Y15004877D01*
X15499296Y15031720D01*
X15361704Y15031720D01*
X15226755Y15004877D01*
X15099636Y14952223D01*
X14985232Y14875781D01*
X14887939Y14778488D01*
X14811497Y14664084D01*
X14758843Y14536965D01*
X14732000Y14402016D01*
X11631502Y14402016D01*
X11619743Y14430404D01*
X11543301Y14544808D01*
X11446008Y14642101D01*
X11331604Y14718543D01*
X11204485Y14771197D01*
X11069536Y14798040D01*
X10931944Y14798040D01*
X10796995Y14771197D01*
X10669876Y14718543D01*
X10662766Y14713792D01*
X10641601Y14745468D01*
X10544308Y14842761D01*
X10429904Y14919203D01*
X10302785Y14971857D01*
X10167836Y14998700D01*
X10030244Y14998700D01*
X9895295Y14971857D01*
X9768176Y14919203D01*
X9653772Y14842761D01*
X9556479Y14745468D01*
X9480037Y14631064D01*
X9427383Y14503945D01*
X9400540Y14368996D01*
X8178800Y14368996D01*
X8151957Y14503945D01*
X8099303Y14631064D01*
X8068051Y14677836D01*
X10057808Y15306116D01*
X10918115Y15534658D01*
X10932995Y15538061D01*
X10940949Y15540723D01*
X10949044Y15542874D01*
X10963320Y15548212D01*
X12139974Y15942093D01*
X12148214Y15944287D01*
X12162367Y15949589D01*
X12176704Y15954388D01*
X12184490Y15957876D01*
X12520198Y16083633D01*
X14625300Y16748334D01*
X15218280Y16603141D01*
%TA.AperFunction,Conductor*%
D28*
G36*
X15218280Y16603141D02*
G01*
X16403490Y15416257D01*
X16558453Y14817546D01*
X14915765Y9065009D01*
X14878563Y9154824D01*
X14802121Y9269228D01*
X14704828Y9366521D01*
X14590424Y9442963D01*
X14463305Y9495617D01*
X14328356Y9522460D01*
X14190764Y9522460D01*
X14055815Y9495617D01*
X13928696Y9442963D01*
X13814292Y9366521D01*
X13716999Y9269228D01*
X13640557Y9154824D01*
X13587903Y9027705D01*
X13561060Y8892756D01*
X13561060Y8755164D01*
X13587903Y8620215D01*
X13640557Y8493096D01*
X13716999Y8378692D01*
X13769571Y8326120D01*
X7498080Y8326120D01*
X7473304Y8323680D01*
X7449479Y8316453D01*
X7427523Y8304717D01*
X7408277Y8288923D01*
X7009497Y7890143D01*
X6993703Y7870897D01*
X6981967Y7848941D01*
X6974740Y7825116D01*
X6972300Y7800340D01*
X6972300Y7596788D01*
X6868376Y7617460D01*
X6730784Y7617460D01*
X6595835Y7590617D01*
X6468716Y7537963D01*
X6354312Y7461521D01*
X6257019Y7364228D01*
X6180577Y7249824D01*
X6127923Y7122705D01*
X6101080Y6987756D01*
X6101080Y6850164D01*
X6127923Y6715215D01*
X6180577Y6588096D01*
X6257019Y6473692D01*
X6354312Y6376399D01*
X6468716Y6299957D01*
X6595835Y6247303D01*
X6730784Y6220460D01*
X6868376Y6220460D01*
X6972300Y6241132D01*
X6972300Y6080414D01*
X6854796Y6031743D01*
X6740392Y5955301D01*
X6643099Y5858008D01*
X6566657Y5743604D01*
X6514003Y5616485D01*
X6489966Y5495645D01*
X6470477Y5593625D01*
X6417823Y5720744D01*
X6341381Y5835148D01*
X6244088Y5932441D01*
X6129684Y6008883D01*
X6002565Y6061537D01*
X5867616Y6088380D01*
X5730024Y6088380D01*
X5595075Y6061537D01*
X5467956Y6008883D01*
X5353552Y5932441D01*
X5256259Y5835148D01*
X5179817Y5720744D01*
X5127163Y5593625D01*
X5100320Y5458676D01*
X5100320Y5321084D01*
X5127163Y5186135D01*
X5179817Y5059016D01*
X5256259Y4944612D01*
X5353552Y4847319D01*
X5467956Y4770877D01*
X5595075Y4718223D01*
X5730024Y4691380D01*
X5867616Y4691380D01*
X6002565Y4718223D01*
X6129684Y4770877D01*
X6244088Y4847319D01*
X6341381Y4944612D01*
X6417823Y5059016D01*
X6470477Y5186135D01*
X6494514Y5306975D01*
X6514003Y5208995D01*
X6566657Y5081876D01*
X6643099Y4967472D01*
X6740392Y4870179D01*
X6854796Y4793737D01*
X6972300Y4745066D01*
X6972300Y3670726D01*
X6901844Y3717803D01*
X6774725Y3770457D01*
X6639776Y3797300D01*
X6502184Y3797300D01*
X6367235Y3770457D01*
X6240116Y3717803D01*
X6125712Y3641361D01*
X6028419Y3544068D01*
X5951977Y3429664D01*
X5899323Y3302545D01*
X5872480Y3167596D01*
X5872480Y3030004D01*
X5899323Y2895055D01*
X5951977Y2767936D01*
X5958622Y2757991D01*
X5947139Y2746508D01*
X5934746Y2727960D01*
X2022260Y2727960D01*
X2048337Y2790915D01*
X2075180Y2925864D01*
X2075180Y2931160D01*
X2131276Y2931160D01*
X2266225Y2958003D01*
X2393344Y3010657D01*
X2507748Y3087099D01*
X2605041Y3184392D01*
X2681483Y3298796D01*
X2734137Y3425915D01*
X2760980Y3560864D01*
X2760980Y3698456D01*
X2734137Y3833405D01*
X2681483Y3960524D01*
X2605041Y4074928D01*
X2507748Y4172221D01*
X2393344Y4248663D01*
X2266225Y4301317D01*
X2131276Y4328160D01*
X1993684Y4328160D01*
X1858735Y4301317D01*
X1731616Y4248663D01*
X1617212Y4172221D01*
X1519919Y4074928D01*
X1443477Y3960524D01*
X1390823Y3833405D01*
X1363980Y3698456D01*
X1363980Y3693160D01*
X1307884Y3693160D01*
X1290297Y3689662D01*
X1313180Y3804704D01*
X1313180Y3942296D01*
X1286337Y4077245D01*
X1233683Y4204364D01*
X1157241Y4318768D01*
X1059948Y4416061D01*
X945544Y4492503D01*
X818425Y4545157D01*
X683476Y4572000D01*
X545884Y4572000D01*
X410935Y4545157D01*
X283816Y4492503D01*
X169412Y4416061D01*
X72119Y4318768D01*
X-4323Y4204364D01*
X-56977Y4077245D01*
X-83820Y3942296D01*
X-83820Y3804704D01*
X-56977Y3669755D01*
X-4323Y3542636D01*
X72119Y3428232D01*
X169412Y3330939D01*
X283816Y3254497D01*
X410935Y3201843D01*
X545884Y3175000D01*
X683476Y3175000D01*
X701063Y3178498D01*
X678180Y3063456D01*
X678180Y2925864D01*
X705023Y2790915D01*
X731100Y2727960D01*
X-148054Y2727960D01*
X-472440Y3052346D01*
X-472440Y5001260D01*
X-474880Y5026036D01*
X-482107Y5049861D01*
X-493843Y5071817D01*
X-509637Y5091063D01*
X-780730Y5362156D01*
X2931160Y5362156D01*
X2931160Y5224564D01*
X2958003Y5089615D01*
X3010657Y4962496D01*
X3087099Y4848092D01*
X3184392Y4750799D01*
X3298796Y4674357D01*
X3425915Y4621703D01*
X3560864Y4594860D01*
X3698456Y4594860D01*
X3833405Y4621703D01*
X3960524Y4674357D01*
X4074928Y4750799D01*
X4172221Y4848092D01*
X4248663Y4962496D01*
X4301317Y5089615D01*
X4328160Y5224564D01*
X4328160Y5362156D01*
X4301317Y5497105D01*
X4248663Y5624224D01*
X4172221Y5738628D01*
X4074928Y5835921D01*
X3960524Y5912363D01*
X3833405Y5965017D01*
X3698456Y5991860D01*
X3560864Y5991860D01*
X3425915Y5965017D01*
X3298796Y5912363D01*
X3184392Y5835921D01*
X3087099Y5738628D01*
X3010657Y5624224D01*
X2958003Y5497105D01*
X2931160Y5362156D01*
X-780730Y5362156D01*
X-908417Y5489843D01*
X-927663Y5505637D01*
X-949619Y5517373D01*
X-973444Y5524600D01*
X-998220Y5527040D01*
X-8816711Y5527040D01*
X-8868139Y5604008D01*
X-8965432Y5701301D01*
X-9079836Y5777743D01*
X-9206955Y5830397D01*
X-9341904Y5857240D01*
X-9479496Y5857240D01*
X-9614445Y5830397D01*
X-9741564Y5777743D01*
X-9855968Y5701301D01*
X-9953261Y5604008D01*
X-10004689Y5527040D01*
X-10974352Y5527040D01*
X-10963781Y5561887D01*
X-10948701Y5715000D01*
X-10963781Y5868113D01*
X-11008443Y6015341D01*
X-11080969Y6151028D01*
X-11178572Y6269958D01*
X-11297502Y6367561D01*
X-11433189Y6440087D01*
X-11580417Y6484749D01*
X-11695160Y6496050D01*
X-12170680Y6496050D01*
X-12285423Y6484749D01*
X-12432651Y6440087D01*
X-12568338Y6367561D01*
X-12687268Y6269958D01*
X-12784871Y6151028D01*
X-12857397Y6015341D01*
X-12902059Y5868113D01*
X-12917139Y5715000D01*
X-12902059Y5561887D01*
X-12891488Y5527040D01*
X-14049474Y5527040D01*
X-14373860Y5851426D01*
X-14373860Y7869136D01*
X-13398500Y7869136D01*
X-13398500Y7731544D01*
X-13371657Y7596595D01*
X-13319003Y7469476D01*
X-13242561Y7355072D01*
X-13145268Y7257779D01*
X-13030864Y7181337D01*
X-12903745Y7128683D01*
X-12768796Y7101840D01*
X-12631204Y7101840D01*
X-12496255Y7128683D01*
X-12369136Y7181337D01*
X-12254732Y7257779D01*
X-12157439Y7355072D01*
X-12148296Y7368756D01*
X-7797800Y7368756D01*
X-7797800Y7231164D01*
X-7770957Y7096215D01*
X-7718303Y6969096D01*
X-7641861Y6854692D01*
X-7544568Y6757399D01*
X-7430164Y6680957D01*
X-7327900Y6638598D01*
X-7327900Y6519964D01*
X-7301057Y6385015D01*
X-7248403Y6257896D01*
X-7171961Y6143492D01*
X-7074668Y6046199D01*
X-6960264Y5969757D01*
X-6833145Y5917103D01*
X-6698196Y5890260D01*
X-6560604Y5890260D01*
X-6425655Y5917103D01*
X-6298536Y5969757D01*
X-6184132Y6046199D01*
X-6086839Y6143492D01*
X-6010397Y6257896D01*
X-5957743Y6385015D01*
X-5930900Y6519964D01*
X-5930900Y6657556D01*
X-5957172Y6789636D01*
X-5628640Y6789636D01*
X-5628640Y6652044D01*
X-5601797Y6517095D01*
X-5549143Y6389976D01*
X-5472701Y6275572D01*
X-5375408Y6178279D01*
X-5261004Y6101837D01*
X-5133885Y6049183D01*
X-4998936Y6022340D01*
X-4861344Y6022340D01*
X-4726395Y6049183D01*
X-4599276Y6101837D01*
X-4484872Y6178279D01*
X-4387579Y6275572D01*
X-4311137Y6389976D01*
X-4258483Y6517095D01*
X-4231640Y6652044D01*
X-4231640Y6789636D01*
X-4258483Y6924585D01*
X-4311137Y7051704D01*
X-4387579Y7166108D01*
X-4484872Y7263401D01*
X-4599276Y7339843D01*
X-4726395Y7392497D01*
X-4861344Y7419340D01*
X-4998936Y7419340D01*
X-5133885Y7392497D01*
X-5261004Y7339843D01*
X-5375408Y7263401D01*
X-5472701Y7166108D01*
X-5549143Y7051704D01*
X-5601797Y6924585D01*
X-5628640Y6789636D01*
X-5957172Y6789636D01*
X-5957743Y6792505D01*
X-6010397Y6919624D01*
X-6086839Y7034028D01*
X-6184132Y7131321D01*
X-6298536Y7207763D01*
X-6400800Y7250122D01*
X-6400800Y7368756D01*
X-6410904Y7419556D01*
X-3967480Y7419556D01*
X-3967480Y7281964D01*
X-3940637Y7147015D01*
X-3887983Y7019896D01*
X-3811541Y6905492D01*
X-3714248Y6808199D01*
X-3599844Y6731757D01*
X-3472725Y6679103D01*
X-3374693Y6659603D01*
X-3358977Y6580595D01*
X-3306323Y6453476D01*
X-3229881Y6339072D01*
X-3132588Y6241779D01*
X-3018184Y6165337D01*
X-2891065Y6112683D01*
X-2756116Y6085840D01*
X-2618524Y6085840D01*
X-2483575Y6112683D01*
X-2356456Y6165337D01*
X-2242052Y6241779D01*
X-2144759Y6339072D01*
X-2068317Y6453476D01*
X-2015663Y6580595D01*
X-1988820Y6715544D01*
X-1988820Y6853136D01*
X-2015663Y6988085D01*
X-2068317Y7115204D01*
X-2144759Y7229608D01*
X-2242052Y7326901D01*
X-2356456Y7403343D01*
X-2483575Y7455997D01*
X-2581607Y7475497D01*
X-2597323Y7554505D01*
X-2649977Y7681624D01*
X-2726419Y7796028D01*
X-2799527Y7869136D01*
X1201420Y7869136D01*
X1201420Y7731544D01*
X1228263Y7596595D01*
X1280917Y7469476D01*
X1357359Y7355072D01*
X1454652Y7257779D01*
X1569056Y7181337D01*
X1696175Y7128683D01*
X1831124Y7101840D01*
X1968716Y7101840D01*
X2059578Y7119914D01*
X2081017Y7068156D01*
X2157459Y6953752D01*
X2254752Y6856459D01*
X2369156Y6780017D01*
X2496275Y6727363D01*
X2631224Y6700520D01*
X2768816Y6700520D01*
X2903765Y6727363D01*
X3030884Y6780017D01*
X3145288Y6856459D01*
X3242581Y6953752D01*
X3319023Y7068156D01*
X3371677Y7195275D01*
X3398520Y7330224D01*
X3398520Y7358596D01*
X3802380Y7358596D01*
X3802380Y7221004D01*
X3829223Y7086055D01*
X3881877Y6958936D01*
X3958319Y6844532D01*
X4055612Y6747239D01*
X4170016Y6670797D01*
X4297135Y6618143D01*
X4432084Y6591300D01*
X4569676Y6591300D01*
X4704625Y6618143D01*
X4831744Y6670797D01*
X4946148Y6747239D01*
X5043441Y6844532D01*
X5119883Y6958936D01*
X5172537Y7086055D01*
X5196782Y7207942D01*
X5232184Y7200900D01*
X5369776Y7200900D01*
X5504725Y7227743D01*
X5631844Y7280397D01*
X5746248Y7356839D01*
X5843541Y7454132D01*
X5919983Y7568536D01*
X5972637Y7695655D01*
X5999480Y7830604D01*
X5999480Y7968196D01*
X5972637Y8103145D01*
X5919983Y8230264D01*
X5843541Y8344668D01*
X5746248Y8441961D01*
X5631844Y8518403D01*
X5504725Y8571057D01*
X5369776Y8597900D01*
X5232184Y8597900D01*
X5097235Y8571057D01*
X4970116Y8518403D01*
X4855712Y8441961D01*
X4758419Y8344668D01*
X4681977Y8230264D01*
X4629323Y8103145D01*
X4605078Y7981258D01*
X4569676Y7988300D01*
X4432084Y7988300D01*
X4297135Y7961457D01*
X4170016Y7908803D01*
X4055612Y7832361D01*
X3958319Y7735068D01*
X3881877Y7620664D01*
X3829223Y7493545D01*
X3802380Y7358596D01*
X3398520Y7358596D01*
X3398520Y7467816D01*
X3371677Y7602765D01*
X3319023Y7729884D01*
X3242581Y7844288D01*
X3145288Y7941581D01*
X3030884Y8018023D01*
X2903765Y8070677D01*
X2768816Y8097520D01*
X2631224Y8097520D01*
X2540362Y8079446D01*
X2518923Y8131204D01*
X2442481Y8245608D01*
X2345188Y8342901D01*
X2230784Y8419343D01*
X2103665Y8471997D01*
X1968716Y8498840D01*
X1831124Y8498840D01*
X1696175Y8471997D01*
X1569056Y8419343D01*
X1454652Y8342901D01*
X1357359Y8245608D01*
X1280917Y8131204D01*
X1228263Y8004085D01*
X1201420Y7869136D01*
X-2799527Y7869136D01*
X-2823712Y7893321D01*
X-2938116Y7969763D01*
X-3065235Y8022417D01*
X-3200184Y8049260D01*
X-3337776Y8049260D01*
X-3472725Y8022417D01*
X-3599844Y7969763D01*
X-3714248Y7893321D01*
X-3811541Y7796028D01*
X-3887983Y7681624D01*
X-3940637Y7554505D01*
X-3967480Y7419556D01*
X-6410904Y7419556D01*
X-6427643Y7503705D01*
X-6480297Y7630824D01*
X-6556739Y7745228D01*
X-6654032Y7842521D01*
X-6768436Y7918963D01*
X-6895555Y7971617D01*
X-7030504Y7998460D01*
X-7168096Y7998460D01*
X-7303045Y7971617D01*
X-7430164Y7918963D01*
X-7544568Y7842521D01*
X-7641861Y7745228D01*
X-7718303Y7630824D01*
X-7770957Y7503705D01*
X-7797800Y7368756D01*
X-12148296Y7368756D01*
X-12080997Y7469476D01*
X-12028343Y7596595D01*
X-12001500Y7731544D01*
X-12001500Y7869136D01*
X-12028343Y8004085D01*
X-12080997Y8131204D01*
X-12157439Y8245608D01*
X-12254732Y8342901D01*
X-12369136Y8419343D01*
X-12496255Y8471997D01*
X-12631204Y8498840D01*
X-12768796Y8498840D01*
X-12903745Y8471997D01*
X-13030864Y8419343D01*
X-13145268Y8342901D01*
X-13242561Y8245608D01*
X-13319003Y8131204D01*
X-13371657Y8004085D01*
X-13398500Y7869136D01*
X-14373860Y7869136D01*
X-14373860Y8201660D01*
X-14376528Y8227557D01*
X-14535746Y8991953D01*
X-14543640Y9016762D01*
X-14743257Y9475150D01*
X-14606331Y9433613D01*
X-14476844Y9420860D01*
X-13991476Y9420860D01*
X-13861989Y9433613D01*
X-13695849Y9484012D01*
X-13555988Y9558769D01*
X-13533321Y9531149D01*
X-13475306Y9483538D01*
X-13409118Y9448159D01*
X-13337299Y9426373D01*
X-13262610Y9419017D01*
X-12318960Y9419017D01*
X-12329160Y9367736D01*
X-12329160Y9230144D01*
X-12302317Y9095195D01*
X-12249663Y8968076D01*
X-12173221Y8853672D01*
X-12075928Y8756379D01*
X-11961524Y8679937D01*
X-11834405Y8627283D01*
X-11699456Y8600440D01*
X-11561864Y8600440D01*
X-11426915Y8627283D01*
X-11299796Y8679937D01*
X-11185392Y8756379D01*
X-11088099Y8853672D01*
X-11011657Y8968076D01*
X-10959003Y9095195D01*
X-10932160Y9230144D01*
X-10932160Y9367736D01*
X-10959003Y9502685D01*
X-10986221Y9568396D01*
X-5798820Y9568396D01*
X-5798820Y9430804D01*
X-5771977Y9295855D01*
X-5719323Y9168736D01*
X-5642881Y9054332D01*
X-5545588Y8957039D01*
X-5431184Y8880597D01*
X-5304065Y8827943D01*
X-5213489Y8809926D01*
X-5218943Y8801764D01*
X-5271597Y8674645D01*
X-5298440Y8539696D01*
X-5298440Y8402104D01*
X-5271597Y8267155D01*
X-5218943Y8140036D01*
X-5142501Y8025632D01*
X-5045208Y7928339D01*
X-4930804Y7851897D01*
X-4803685Y7799243D01*
X-4668736Y7772400D01*
X-4531144Y7772400D01*
X-4396195Y7799243D01*
X-4269076Y7851897D01*
X-4154672Y7928339D01*
X-4057379Y8025632D01*
X-3980937Y8140036D01*
X-3928283Y8267155D01*
X-3901440Y8402104D01*
X-3901440Y8539696D01*
X-3928283Y8674645D01*
X-3980937Y8801764D01*
X-4057379Y8916168D01*
X-4154672Y9013461D01*
X-4269076Y9089903D01*
X-4396195Y9142557D01*
X-4486771Y9160574D01*
X-4481317Y9168736D01*
X-4428663Y9295855D01*
X-4401820Y9430804D01*
X-4401820Y9568396D01*
X-4428663Y9703345D01*
X-4481317Y9830464D01*
X-4540418Y9918916D01*
X2049780Y9918916D01*
X2049780Y9781324D01*
X2076623Y9646375D01*
X2129277Y9519256D01*
X2205719Y9404852D01*
X2303012Y9307559D01*
X2417416Y9231117D01*
X2544535Y9178463D01*
X2679484Y9151620D01*
X2817076Y9151620D01*
X2952025Y9178463D01*
X3079144Y9231117D01*
X3193548Y9307559D01*
X3253725Y9367736D01*
X10901680Y9367736D01*
X10901680Y9230144D01*
X10928523Y9095195D01*
X10981177Y8968076D01*
X11057619Y8853672D01*
X11154912Y8756379D01*
X11269316Y8679937D01*
X11396435Y8627283D01*
X11531384Y8600440D01*
X11668976Y8600440D01*
X11803925Y8627283D01*
X11931044Y8679937D01*
X12045448Y8756379D01*
X12142741Y8853672D01*
X12219183Y8968076D01*
X12271837Y9095195D01*
X12298680Y9230144D01*
X12298680Y9367736D01*
X12271837Y9502685D01*
X12219183Y9629804D01*
X12142741Y9744208D01*
X12045448Y9841501D01*
X11931044Y9917943D01*
X11803925Y9970597D01*
X11668976Y9997440D01*
X11531384Y9997440D01*
X11396435Y9970597D01*
X11269316Y9917943D01*
X11154912Y9841501D01*
X11057619Y9744208D01*
X10981177Y9629804D01*
X10928523Y9502685D01*
X10901680Y9367736D01*
X3253725Y9367736D01*
X3290841Y9404852D01*
X3367283Y9519256D01*
X3419937Y9646375D01*
X3446780Y9781324D01*
X3446780Y9918916D01*
X3419937Y10053865D01*
X3367283Y10180984D01*
X3290841Y10295388D01*
X3193548Y10392681D01*
X3079144Y10469123D01*
X2952025Y10521777D01*
X2817076Y10548620D01*
X2679484Y10548620D01*
X2544535Y10521777D01*
X2417416Y10469123D01*
X2303012Y10392681D01*
X2205719Y10295388D01*
X2129277Y10180984D01*
X2076623Y10053865D01*
X2049780Y9918916D01*
X-4540418Y9918916D01*
X-4557759Y9944868D01*
X-4655052Y10042161D01*
X-4769456Y10118603D01*
X-4896575Y10171257D01*
X-5031524Y10198100D01*
X-5169116Y10198100D01*
X-5304065Y10171257D01*
X-5431184Y10118603D01*
X-5545588Y10042161D01*
X-5642881Y9944868D01*
X-5719323Y9830464D01*
X-5771977Y9703345D01*
X-5798820Y9568396D01*
X-10986221Y9568396D01*
X-11011657Y9629804D01*
X-11088099Y9744208D01*
X-11185392Y9841501D01*
X-11299796Y9917943D01*
X-11426915Y9970597D01*
X-11480227Y9981201D01*
X-11480227Y10802620D01*
X-11487583Y10877309D01*
X-11509369Y10949128D01*
X-11519422Y10967936D01*
X-7089140Y10967936D01*
X-7089140Y10830344D01*
X-7062297Y10695395D01*
X-7009643Y10568276D01*
X-6933201Y10453872D01*
X-6835908Y10356579D01*
X-6721504Y10280137D01*
X-6594385Y10227483D01*
X-6459436Y10200640D01*
X-6321844Y10200640D01*
X-6186895Y10227483D01*
X-6059776Y10280137D01*
X-5945372Y10356579D01*
X-5848079Y10453872D01*
X-5771637Y10568276D01*
X-5718983Y10695395D01*
X-5692140Y10830344D01*
X-5692140Y10967936D01*
X-5718983Y11102885D01*
X-5771637Y11230004D01*
X-5848079Y11344408D01*
X-5945372Y11441701D01*
X-6059776Y11518143D01*
X-6186895Y11570797D01*
X-6321844Y11597640D01*
X-6459436Y11597640D01*
X-6594385Y11570797D01*
X-6721504Y11518143D01*
X-6835908Y11441701D01*
X-6933201Y11344408D01*
X-7009643Y11230004D01*
X-7062297Y11102885D01*
X-7089140Y10967936D01*
X-11519422Y10967936D01*
X-11544748Y11015316D01*
X-11592359Y11073331D01*
X-11650374Y11120942D01*
X-11716562Y11156321D01*
X-11788381Y11178107D01*
X-11863070Y11185463D01*
X-13262610Y11185463D01*
X-13337299Y11178107D01*
X-13409118Y11156321D01*
X-13475306Y11120942D01*
X-13533321Y11073331D01*
X-13555988Y11045711D01*
X-13695849Y11120468D01*
X-13861989Y11170867D01*
X-13991476Y11183620D01*
X-14476844Y11183620D01*
X-14606331Y11170867D01*
X-14772471Y11120468D01*
X-14925587Y11038626D01*
X-15059795Y10928485D01*
X-15169936Y10794277D01*
X-15251365Y10641934D01*
X-16171796Y12755550D01*
X-16187275Y12796871D01*
X-16108896Y12781280D01*
X-15971304Y12781280D01*
X-15836355Y12808123D01*
X-15709236Y12860777D01*
X-15594832Y12937219D01*
X-15497539Y13034512D01*
X-15421097Y13148916D01*
X-15368443Y13276035D01*
X-15341600Y13410984D01*
X-15341600Y13548576D01*
X-15368443Y13683525D01*
X-15421097Y13810644D01*
X-15497539Y13925048D01*
X-15594832Y14022341D01*
X-15709236Y14098783D01*
X-15836355Y14151437D01*
X-15971304Y14178280D01*
X-16108896Y14178280D01*
X-16243845Y14151437D01*
X-16370964Y14098783D01*
X-16485368Y14022341D01*
X-16582661Y13925048D01*
X-16623858Y13863392D01*
X-16756326Y14181449D01*
X-16762194Y14196816D01*
X-16765412Y14203264D01*
X-16768176Y14209900D01*
X-16775939Y14224357D01*
X-16903771Y14480484D01*
X-16801414Y15020440D01*
X-16110439Y15711415D01*
X-15476357Y15974060D01*
X-6750586Y15974060D01*
X-6441185Y15664659D01*
X-6440838Y15662839D01*
X-6438896Y15656406D01*
X-6426200Y15615392D01*
X-6426200Y14798040D01*
X-6423760Y14773264D01*
X-6416533Y14749439D01*
X-6404797Y14727483D01*
X-6389003Y14708237D01*
X-5990223Y14309457D01*
X-5970977Y14293663D01*
X-5949021Y14281927D01*
X-5925196Y14274700D01*
X-5900420Y14272260D01*
X-4102738Y14272260D01*
X-4146048Y14243321D01*
X-4243341Y14146028D01*
X-4319783Y14031624D01*
X-4372437Y13904505D01*
X-4399280Y13769556D01*
X-4399280Y13631964D01*
X-4372437Y13497015D01*
X-4319783Y13369896D01*
X-4243341Y13255492D01*
X-4146048Y13158199D01*
X-4031644Y13081757D01*
X-3904525Y13029103D01*
X-3769576Y13002260D01*
X-3631984Y13002260D01*
X-3497035Y13029103D01*
X-3369916Y13081757D01*
X-3255512Y13158199D01*
X-3158219Y13255492D01*
X-3081777Y13369896D01*
X-3029123Y13497015D01*
X-3002280Y13631964D01*
X-3002280Y13769556D01*
X-3029123Y13904505D01*
X-3081777Y14031624D01*
X-3158219Y14146028D01*
X-3255512Y14243321D01*
X-3298822Y14272260D01*
X1326383Y14272260D01*
X1226052Y14205221D01*
X1128759Y14107928D01*
X1052317Y13993524D01*
X999663Y13866405D01*
X972820Y13731456D01*
X972820Y13593864D01*
X999663Y13458915D01*
X1052317Y13331796D01*
X1128759Y13217392D01*
X1226052Y13120099D01*
X1340456Y13043657D01*
X1467575Y12991003D01*
X1602524Y12964160D01*
X1740116Y12964160D01*
X1875065Y12991003D01*
X2002184Y13043657D01*
X2116588Y13120099D01*
X2213881Y13217392D01*
X2290323Y13331796D01*
X2342977Y13458915D01*
X2369820Y13593864D01*
X2369820Y13731456D01*
X2342977Y13866405D01*
X2290323Y13993524D01*
X2213881Y14107928D01*
X2116588Y14205221D01*
X2016257Y14272260D01*
X4606290Y14272260D01*
X4500216Y14228323D01*
X4385812Y14151881D01*
X4288519Y14054588D01*
X4212077Y13940184D01*
X4159423Y13813065D01*
X4132580Y13678116D01*
X4132580Y13540524D01*
X4159423Y13405575D01*
X4212077Y13278456D01*
X4288519Y13164052D01*
X4385812Y13066759D01*
X4500216Y12990317D01*
X4627335Y12937663D01*
X4762284Y12910820D01*
X4899876Y12910820D01*
X5034825Y12937663D01*
X5161944Y12990317D01*
X5276348Y13066759D01*
X5373641Y13164052D01*
X5450083Y13278456D01*
X5502737Y13405575D01*
X5529580Y13540524D01*
X5529580Y13678116D01*
X5502737Y13813065D01*
X5450083Y13940184D01*
X5373641Y14054588D01*
X5276348Y14151881D01*
X5161944Y14228323D01*
X5055870Y14272260D01*
X6365240Y14272260D01*
X6384586Y14273742D01*
X6781800Y14334964D01*
X6781800Y14231404D01*
X6808643Y14096455D01*
X6861297Y13969336D01*
X6937739Y13854932D01*
X7035032Y13757639D01*
X7149436Y13681197D01*
X7276555Y13628543D01*
X7411504Y13601700D01*
X7549096Y13601700D01*
X7684045Y13628543D01*
X7811164Y13681197D01*
X7925568Y13757639D01*
X8022861Y13854932D01*
X8099303Y13969336D01*
X8151957Y14096455D01*
X8178800Y14231404D01*
X8178800Y14368996D01*
X9400540Y14368996D01*
X9400540Y14231404D01*
X9427383Y14096455D01*
X9480037Y13969336D01*
X9556479Y13854932D01*
X9653772Y13757639D01*
X9768176Y13681197D01*
X9895295Y13628543D01*
X10030244Y13601700D01*
X10167836Y13601700D01*
X10302785Y13628543D01*
X10429904Y13681197D01*
X10437014Y13685948D01*
X10458179Y13654272D01*
X10555472Y13556979D01*
X10669876Y13480537D01*
X10796995Y13427883D01*
X10931944Y13401040D01*
X11069536Y13401040D01*
X11204485Y13427883D01*
X11331604Y13480537D01*
X11446008Y13556979D01*
X11543301Y13654272D01*
X11619743Y13768676D01*
X11672397Y13895795D01*
X11699240Y14030744D01*
X11699240Y14168336D01*
X11672397Y14303285D01*
X11631502Y14402016D01*
X14732000Y14402016D01*
X14732000Y14264424D01*
X14758843Y14129475D01*
X14811497Y14002356D01*
X14887939Y13887952D01*
X14985232Y13790659D01*
X15099636Y13714217D01*
X15226755Y13661563D01*
X15361704Y13634720D01*
X15499296Y13634720D01*
X15634245Y13661563D01*
X15761364Y13714217D01*
X15875768Y13790659D01*
X15973061Y13887952D01*
X16049503Y14002356D01*
X16102157Y14129475D01*
X16129000Y14264424D01*
X16129000Y14402016D01*
X16102157Y14536965D01*
X16049503Y14664084D01*
X15973061Y14778488D01*
X15875768Y14875781D01*
X15761364Y14952223D01*
X15634245Y15004877D01*
X15499296Y15031720D01*
X15361704Y15031720D01*
X15226755Y15004877D01*
X15099636Y14952223D01*
X14985232Y14875781D01*
X14887939Y14778488D01*
X14811497Y14664084D01*
X14758843Y14536965D01*
X14732000Y14402016D01*
X11631502Y14402016D01*
X11619743Y14430404D01*
X11543301Y14544808D01*
X11446008Y14642101D01*
X11331604Y14718543D01*
X11204485Y14771197D01*
X11069536Y14798040D01*
X10931944Y14798040D01*
X10796995Y14771197D01*
X10669876Y14718543D01*
X10662766Y14713792D01*
X10641601Y14745468D01*
X10544308Y14842761D01*
X10429904Y14919203D01*
X10302785Y14971857D01*
X10167836Y14998700D01*
X10030244Y14998700D01*
X9895295Y14971857D01*
X9768176Y14919203D01*
X9653772Y14842761D01*
X9556479Y14745468D01*
X9480037Y14631064D01*
X9427383Y14503945D01*
X9400540Y14368996D01*
X8178800Y14368996D01*
X8151957Y14503945D01*
X8099303Y14631064D01*
X8068051Y14677836D01*
X10057808Y15306116D01*
X10918115Y15534658D01*
X10932995Y15538061D01*
X10940949Y15540723D01*
X10949044Y15542874D01*
X10963320Y15548212D01*
X12139974Y15942093D01*
X12148214Y15944287D01*
X12162367Y15949589D01*
X12176704Y15954388D01*
X12184490Y15957876D01*
X12520198Y16083633D01*
X14625300Y16748334D01*
X15218280Y16603141D01*
G37*
%TD.AperFunction*%
%TD*%
D27*
%TO.N,DGND*%
X-9855968Y4616179D02*
X-9741564Y4539737D01*
X-9614445Y4487083D01*
X-9479496Y4460240D01*
X-9341904Y4460240D01*
X-9206955Y4487083D01*
X-9079836Y4539737D01*
X-8965432Y4616179D01*
X-8908011Y4673600D01*
X-8674171Y4673600D01*
X-8679180Y4648416D01*
X-8679180Y4510824D01*
X-8652337Y4375875D01*
X-8599683Y4248756D01*
X-8523241Y4134352D01*
X-8425948Y4037059D01*
X-8311544Y3960617D01*
X-8184425Y3907963D01*
X-8049476Y3881120D01*
X-7911884Y3881120D01*
X-7776935Y3907963D01*
X-7649816Y3960617D01*
X-7535412Y4037059D01*
X-7438119Y4134352D01*
X-7361677Y4248756D01*
X-7309023Y4375875D01*
X-7282180Y4510824D01*
X-7282180Y4648416D01*
X-7287189Y4673600D01*
X-5905269Y4673600D01*
X-5993401Y4585468D01*
X-6069843Y4471064D01*
X-6122497Y4343945D01*
X-6149340Y4208996D01*
X-6149340Y4071404D01*
X-6122497Y3936455D01*
X-6069843Y3809336D01*
X-5993401Y3694932D01*
X-5896108Y3597639D01*
X-5781704Y3521197D01*
X-5654585Y3468543D01*
X-5519636Y3441700D01*
X-5382044Y3441700D01*
X-5247095Y3468543D01*
X-5119976Y3521197D01*
X-5005572Y3597639D01*
X-4908279Y3694932D01*
X-4831837Y3809336D01*
X-4779183Y3936455D01*
X-4752340Y4071404D01*
X-4752340Y4208996D01*
X-4779183Y4343945D01*
X-4831837Y4471064D01*
X-4908279Y4585468D01*
X-4996411Y4673600D01*
X-1650266Y4673600D01*
X-1325880Y4349214D01*
X-1325880Y3697328D01*
X-1381544Y3708400D01*
X-1519136Y3708400D01*
X-1654085Y3681557D01*
X-1781204Y3628903D01*
X-1870676Y3569120D01*
X-1929736Y3608583D01*
X-2056855Y3661237D01*
X-2191804Y3688080D01*
X-2329396Y3688080D01*
X-2464345Y3661237D01*
X-2591464Y3608583D01*
X-2705868Y3532141D01*
X-2803161Y3434848D01*
X-2879603Y3320444D01*
X-2932257Y3193325D01*
X-2959100Y3058376D01*
X-2959100Y3032436D01*
X-2964725Y3031317D01*
X-3091844Y2978663D01*
X-3206248Y2902221D01*
X-3303541Y2804928D01*
X-3379983Y2690524D01*
X-3432637Y2563405D01*
X-3459480Y2428456D01*
X-3459480Y2290864D01*
X-3432637Y2155915D01*
X-3379983Y2028796D01*
X-3303541Y1914392D01*
X-3206248Y1817099D01*
X-3091844Y1740657D01*
X-2964725Y1688003D01*
X-2829776Y1661160D01*
X-2692184Y1661160D01*
X-2557235Y1688003D01*
X-2430116Y1740657D01*
X-2315712Y1817099D01*
X-2218419Y1914392D01*
X-2141977Y2028796D01*
X-2089323Y2155915D01*
X-2062480Y2290864D01*
X-2062480Y2316804D01*
X-2056855Y2317923D01*
X-1929736Y2370577D01*
X-1840264Y2430360D01*
X-1781204Y2390897D01*
X-1654085Y2338243D01*
X-1519136Y2311400D01*
X-1381544Y2311400D01*
X-1304143Y2326796D01*
X-1288683Y2307957D01*
X-889903Y1909177D01*
X-870657Y1893383D01*
X-848701Y1881647D01*
X-824876Y1874420D01*
X-800100Y1871980D01*
X-155557Y1871980D01*
X-140797Y1797775D01*
X-88143Y1670656D01*
X-11701Y1556252D01*
X85592Y1458959D01*
X199996Y1382517D01*
X327115Y1329863D01*
X462064Y1303020D01*
X527486Y1303020D01*
X433676Y1264163D01*
X319272Y1187721D01*
X221979Y1090428D01*
X145537Y976024D01*
X92883Y848905D01*
X66040Y713956D01*
X66040Y576364D01*
X92883Y441415D01*
X145537Y314296D01*
X221979Y199892D01*
X319272Y102599D01*
X373749Y66198D01*
X350520Y-50584D01*
X350520Y-152782D01*
X305464Y-122677D01*
X178345Y-70023D01*
X119380Y-58294D01*
X119380Y7836D01*
X92537Y142785D01*
X39883Y269904D01*
X-36559Y384308D01*
X-133852Y481601D01*
X-248256Y558043D01*
X-375375Y610697D01*
X-510324Y637540D01*
X-647916Y637540D01*
X-782865Y610697D01*
X-909984Y558043D01*
X-1024388Y481601D01*
X-1121681Y384308D01*
X-1198123Y269904D01*
X-1250777Y142785D01*
X-1277620Y7836D01*
X-1277620Y-129756D01*
X-1250777Y-264705D01*
X-1198123Y-391824D01*
X-1189100Y-405328D01*
X-1268228Y-458199D01*
X-1365521Y-555492D01*
X-1441963Y-669896D01*
X-1494617Y-797015D01*
X-1521460Y-931964D01*
X-1521460Y-1069556D01*
X-1494617Y-1204505D01*
X-1441963Y-1331624D01*
X-1365521Y-1446028D01*
X-1268228Y-1543321D01*
X-1153824Y-1619763D01*
X-1026705Y-1672417D01*
X-891756Y-1699260D01*
X-754164Y-1699260D01*
X-619215Y-1672417D01*
X-492096Y-1619763D01*
X-377692Y-1543321D01*
X-280399Y-1446028D01*
X-252180Y-1403796D01*
X-229145Y-1413337D01*
X-94196Y-1440180D01*
X43396Y-1440180D01*
X178345Y-1413337D01*
X305464Y-1360683D01*
X419868Y-1284241D01*
X517161Y-1186948D01*
X593603Y-1072544D01*
X646257Y-945425D01*
X673100Y-810476D01*
X673100Y-708278D01*
X718156Y-738383D01*
X845275Y-791037D01*
X980224Y-817880D01*
X1117816Y-817880D01*
X1252765Y-791037D01*
X1379884Y-738383D01*
X1494288Y-661941D01*
X1591581Y-564648D01*
X1668023Y-450244D01*
X1720677Y-323125D01*
X1747520Y-188176D01*
X1747520Y-50584D01*
X1720677Y84365D01*
X1668023Y211484D01*
X1591581Y325888D01*
X1494288Y423181D01*
X1439811Y459582D01*
X1463040Y576364D01*
X1463040Y713956D01*
X1450120Y778909D01*
X1475195Y768523D01*
X1610144Y741680D01*
X1747736Y741680D01*
X1882685Y768523D01*
X1889118Y771188D01*
X1926319Y715512D01*
X1966241Y675590D01*
X1919143Y561885D01*
X1892300Y426936D01*
X1892300Y289344D01*
X1919143Y154395D01*
X1971797Y27276D01*
X2048239Y-87128D01*
X2145532Y-184421D01*
X2259936Y-260863D01*
X2387055Y-313517D01*
X2522004Y-340360D01*
X2659596Y-340360D01*
X2794545Y-313517D01*
X2921664Y-260863D01*
X3036068Y-184421D01*
X3133361Y-87128D01*
X3209803Y27276D01*
X3262457Y154395D01*
X3289300Y289344D01*
X3289300Y426936D01*
X3262457Y561885D01*
X3209803Y689004D01*
X3133361Y803408D01*
X3093439Y843330D01*
X3140537Y957035D01*
X3167380Y1091984D01*
X3167380Y1229576D01*
X3140537Y1364525D01*
X3087883Y1491644D01*
X3011441Y1606048D01*
X2914148Y1703341D01*
X2799744Y1779783D01*
X2672625Y1832437D01*
X2537676Y1859280D01*
X2400084Y1859280D01*
X2265135Y1832437D01*
X2258702Y1829772D01*
X2230500Y1871980D01*
X5850025Y1871980D01*
X5809737Y1811684D01*
X5757083Y1684565D01*
X5730240Y1549616D01*
X5730240Y1412024D01*
X5757083Y1277075D01*
X5809737Y1149956D01*
X5886179Y1035552D01*
X5983472Y938259D01*
X6097876Y861817D01*
X6224995Y809163D01*
X6359944Y782320D01*
X6497536Y782320D01*
X6573532Y797437D01*
X6575960Y772784D01*
X6583187Y748959D01*
X6594923Y727003D01*
X6610717Y707757D01*
X6822440Y496034D01*
X6822440Y472224D01*
X6849283Y337275D01*
X6901937Y210156D01*
X6978379Y95752D01*
X7075672Y-1541D01*
X7190076Y-77983D01*
X7317195Y-130637D01*
X7373620Y-141861D01*
X7373620Y-1102360D01*
X7376060Y-1127136D01*
X7383287Y-1150961D01*
X7395023Y-1172917D01*
X7410817Y-1192163D01*
X7809597Y-1590943D01*
X7828843Y-1606737D01*
X7850799Y-1618473D01*
X7874624Y-1625700D01*
X7899400Y-1628140D01*
X8949154Y-1628140D01*
X9273540Y-1952526D01*
X9273540Y-13947874D01*
X8949154Y-14272260D01*
X-2895831Y-14272260D01*
X-2868659Y-14245088D01*
X-2792217Y-14130684D01*
X-2739563Y-14003565D01*
X-2712720Y-13868616D01*
X-2712720Y-13731024D01*
X-2739563Y-13596075D01*
X-2792217Y-13468956D01*
X-2868659Y-13354552D01*
X-2965952Y-13257259D01*
X-3080356Y-13180817D01*
X-3207475Y-13128163D01*
X-3342424Y-13101320D01*
X-3480016Y-13101320D01*
X-3614965Y-13128163D01*
X-3742084Y-13180817D01*
X-3856488Y-13257259D01*
X-3953781Y-13354552D01*
X-4030223Y-13468956D01*
X-4082877Y-13596075D01*
X-4109720Y-13731024D01*
X-4109720Y-13868616D01*
X-4082877Y-14003565D01*
X-4030223Y-14130684D01*
X-3953781Y-14245088D01*
X-3926609Y-14272260D01*
X-6976736Y-14272260D01*
X-7628259Y-14022562D01*
X-8998730Y-12791224D01*
X980440Y-12791224D01*
X980440Y-12928816D01*
X1007283Y-13063765D01*
X1059937Y-13190884D01*
X1136379Y-13305288D01*
X1233672Y-13402581D01*
X1348076Y-13479023D01*
X1475195Y-13531677D01*
X1610144Y-13558520D01*
X1747736Y-13558520D01*
X1882685Y-13531677D01*
X2009804Y-13479023D01*
X2124208Y-13402581D01*
X2221501Y-13305288D01*
X2297943Y-13190884D01*
X2350597Y-13063765D01*
X2377440Y-12928816D01*
X2377440Y-12791224D01*
X2350597Y-12656275D01*
X2297943Y-12529156D01*
X2221501Y-12414752D01*
X2124208Y-12317459D01*
X2009804Y-12241017D01*
X1882685Y-12188363D01*
X1747736Y-12161520D01*
X1610144Y-12161520D01*
X1475195Y-12188363D01*
X1348076Y-12241017D01*
X1233672Y-12317459D01*
X1136379Y-12414752D01*
X1059937Y-12529156D01*
X1007283Y-12656275D01*
X980440Y-12791224D01*
X-8998730Y-12791224D01*
X-8998919Y-12791055D01*
X-9249766Y-12228452D01*
X-9020274Y-11998960D01*
X3580827Y-11998960D01*
X3580827Y-12999720D01*
X3588183Y-13074409D01*
X3609969Y-13146228D01*
X3645348Y-13212416D01*
X3692959Y-13270431D01*
X3750974Y-13318042D01*
X3817162Y-13353421D01*
X3888981Y-13375207D01*
X3963670Y-13382563D01*
X5363210Y-13382563D01*
X5437899Y-13375207D01*
X5509718Y-13353421D01*
X5575906Y-13318042D01*
X5633921Y-13270431D01*
X5656588Y-13242811D01*
X5796449Y-13317568D01*
X5962589Y-13367967D01*
X6092076Y-13380720D01*
X6577444Y-13380720D01*
X6706931Y-13367967D01*
X6873071Y-13317568D01*
X7026187Y-13235726D01*
X7160395Y-13125585D01*
X7270536Y-12991377D01*
X7352378Y-12838261D01*
X7402777Y-12672121D01*
X7419794Y-12499340D01*
X7402777Y-12326559D01*
X7352378Y-12160419D01*
X7270536Y-12007303D01*
X7265597Y-12001284D01*
X7462520Y-12001284D01*
X7462520Y-12138876D01*
X7489363Y-12273825D01*
X7542017Y-12400944D01*
X7618459Y-12515348D01*
X7715752Y-12612641D01*
X7830156Y-12689083D01*
X7957275Y-12741737D01*
X8092224Y-12768580D01*
X8229816Y-12768580D01*
X8364765Y-12741737D01*
X8491884Y-12689083D01*
X8606288Y-12612641D01*
X8703581Y-12515348D01*
X8780023Y-12400944D01*
X8832677Y-12273825D01*
X8859520Y-12138876D01*
X8859520Y-12001284D01*
X8832677Y-11866335D01*
X8780023Y-11739216D01*
X8703581Y-11624812D01*
X8606288Y-11527519D01*
X8491884Y-11451077D01*
X8364765Y-11398423D01*
X8229816Y-11371580D01*
X8092224Y-11371580D01*
X7957275Y-11398423D01*
X7830156Y-11451077D01*
X7715752Y-11527519D01*
X7618459Y-11624812D01*
X7542017Y-11739216D01*
X7489363Y-11866335D01*
X7462520Y-12001284D01*
X7265597Y-12001284D01*
X7160395Y-11873095D01*
X7026187Y-11762954D01*
X6873071Y-11681112D01*
X6706931Y-11630713D01*
X6577444Y-11617960D01*
X6092076Y-11617960D01*
X5962589Y-11630713D01*
X5796449Y-11681112D01*
X5656588Y-11755869D01*
X5633921Y-11728249D01*
X5575906Y-11680638D01*
X5509718Y-11645259D01*
X5437899Y-11623473D01*
X5363210Y-11616117D01*
X3963670Y-11616117D01*
X3888981Y-11623473D01*
X3817162Y-11645259D01*
X3750974Y-11680638D01*
X3692959Y-11728249D01*
X3645348Y-11786264D01*
X3609969Y-11852452D01*
X3588183Y-11924271D01*
X3580827Y-11998960D01*
X-9020274Y-11998960D01*
X-8949154Y-11927840D01*
X-5199380Y-11927840D01*
X-5174604Y-11925400D01*
X-5150779Y-11918173D01*
X-5128823Y-11906437D01*
X-5109577Y-11890643D01*
X-4710797Y-11491863D01*
X-4695003Y-11472617D01*
X-4683267Y-11450661D01*
X-4676040Y-11426836D01*
X-4673600Y-11402060D01*
X-4673600Y-8199120D01*
X-4676040Y-8174344D01*
X-4683267Y-8150519D01*
X-4695003Y-8128563D01*
X-4710797Y-8109317D01*
X-5109577Y-7710537D01*
X-5128823Y-7694743D01*
X-5150779Y-7683007D01*
X-5174604Y-7675780D01*
X-5199380Y-7673340D01*
X-7800340Y-7673340D01*
X-7825116Y-7675780D01*
X-7848941Y-7683007D01*
X-7870897Y-7694743D01*
X-7890143Y-7710537D01*
X-8288923Y-8109317D01*
X-8304717Y-8128563D01*
X-8316453Y-8150519D01*
X-8323680Y-8174344D01*
X-8326120Y-8199120D01*
X-8326120Y-8349714D01*
X-8650506Y-8674100D01*
X-12674737Y-8674100D01*
X-13308819Y-8411455D01*
X-14009615Y-7710659D01*
X-14272260Y-7076577D01*
X-14272260Y-6591084D01*
X-477520Y-6591084D01*
X-477520Y-6728676D01*
X-450677Y-6863625D01*
X-398023Y-6990744D01*
X-321581Y-7105148D01*
X-224288Y-7202441D01*
X-109884Y-7278883D01*
X17235Y-7331537D01*
X152184Y-7358380D01*
X289776Y-7358380D01*
X403173Y-7335824D01*
X381757Y-7367876D01*
X329103Y-7494995D01*
X302260Y-7629944D01*
X302260Y-7767536D01*
X329103Y-7902485D01*
X381757Y-8029604D01*
X458199Y-8144008D01*
X555492Y-8241301D01*
X568391Y-8249920D01*
X555492Y-8258539D01*
X458199Y-8355832D01*
X381757Y-8470236D01*
X329103Y-8597355D01*
X302260Y-8732304D01*
X302260Y-8869896D01*
X329103Y-9004845D01*
X381757Y-9131964D01*
X458199Y-9246368D01*
X462703Y-9250872D01*
X453892Y-9256759D01*
X356599Y-9354052D01*
X280157Y-9468456D01*
X227503Y-9595575D01*
X200660Y-9730524D01*
X200660Y-9868116D01*
X227503Y-10003065D01*
X280157Y-10130184D01*
X356599Y-10244588D01*
X422718Y-10310707D01*
X387523Y-10395675D01*
X386404Y-10401300D01*
X329984Y-10401300D01*
X195035Y-10428143D01*
X67916Y-10480797D01*
X-46488Y-10557239D01*
X-143781Y-10654532D01*
X-220223Y-10768936D01*
X-272877Y-10896055D01*
X-299720Y-11031004D01*
X-299720Y-11168596D01*
X-272877Y-11303545D01*
X-220223Y-11430664D01*
X-143781Y-11545068D01*
X-46488Y-11642361D01*
X67916Y-11718803D01*
X195035Y-11771457D01*
X329984Y-11798300D01*
X467576Y-11798300D01*
X602525Y-11771457D01*
X729644Y-11718803D01*
X844048Y-11642361D01*
X941341Y-11545068D01*
X1017783Y-11430664D01*
X1070437Y-11303545D01*
X1071556Y-11297920D01*
X1127976Y-11297920D01*
X1262925Y-11271077D01*
X1390044Y-11218423D01*
X1504448Y-11141981D01*
X1601741Y-11044688D01*
X1678183Y-10930284D01*
X1730837Y-10803165D01*
X1757680Y-10668216D01*
X1757680Y-10530624D01*
X1730837Y-10395675D01*
X1678183Y-10268556D01*
X1601741Y-10154152D01*
X1535622Y-10088033D01*
X1570817Y-10003065D01*
X1597660Y-9868116D01*
X1597660Y-9730524D01*
X1570817Y-9595575D01*
X1518163Y-9468456D01*
X1441721Y-9354052D01*
X1437217Y-9349548D01*
X1446028Y-9343661D01*
X1543321Y-9246368D01*
X1619763Y-9131964D01*
X1672417Y-9004845D01*
X1673535Y-8999220D01*
X3580827Y-8999220D01*
X3580827Y-9999980D01*
X3588183Y-10074669D01*
X3609969Y-10146488D01*
X3645348Y-10212676D01*
X3692959Y-10270691D01*
X3750974Y-10318302D01*
X3817162Y-10353681D01*
X3888981Y-10375467D01*
X3963670Y-10382823D01*
X5363210Y-10382823D01*
X5437899Y-10375467D01*
X5509718Y-10353681D01*
X5575906Y-10318302D01*
X5633921Y-10270691D01*
X5656588Y-10243071D01*
X5796449Y-10317828D01*
X5962589Y-10368227D01*
X6092076Y-10380980D01*
X6577444Y-10380980D01*
X6706931Y-10368227D01*
X6873071Y-10317828D01*
X7026187Y-10235986D01*
X7160395Y-10125845D01*
X7270536Y-9991637D01*
X7352378Y-9838521D01*
X7402777Y-9672381D01*
X7419794Y-9499600D01*
X7402777Y-9326819D01*
X7352378Y-9160679D01*
X7270536Y-9007563D01*
X7160395Y-8873355D01*
X7026187Y-8763214D01*
X6873071Y-8681372D01*
X6706931Y-8630973D01*
X6577444Y-8618220D01*
X6092076Y-8618220D01*
X5962589Y-8630973D01*
X5796449Y-8681372D01*
X5656588Y-8756129D01*
X5633921Y-8728509D01*
X5575906Y-8680898D01*
X5509718Y-8645519D01*
X5437899Y-8623733D01*
X5363210Y-8616377D01*
X3963670Y-8616377D01*
X3888981Y-8623733D01*
X3817162Y-8645519D01*
X3750974Y-8680898D01*
X3692959Y-8728509D01*
X3645348Y-8786524D01*
X3609969Y-8852712D01*
X3588183Y-8924531D01*
X3580827Y-8999220D01*
X1673535Y-8999220D01*
X1699260Y-8869896D01*
X1699260Y-8732304D01*
X1672417Y-8597355D01*
X1619763Y-8470236D01*
X1543321Y-8355832D01*
X1446028Y-8258539D01*
X1433129Y-8249920D01*
X1446028Y-8241301D01*
X1543321Y-8144008D01*
X1619763Y-8029604D01*
X1672417Y-7902485D01*
X1699260Y-7767536D01*
X1699260Y-7629944D01*
X1672417Y-7494995D01*
X1619763Y-7367876D01*
X1543321Y-7253472D01*
X1446028Y-7156179D01*
X1331624Y-7079737D01*
X1204505Y-7027083D01*
X1069556Y-7000240D01*
X931964Y-7000240D01*
X818567Y-7022796D01*
X839983Y-6990744D01*
X892637Y-6863625D01*
X919480Y-6728676D01*
X919480Y-6591084D01*
X913322Y-6560124D01*
X1011584Y-6519423D01*
X1125988Y-6442981D01*
X1223281Y-6345688D01*
X1299723Y-6231284D01*
X1352377Y-6104165D01*
X1373200Y-5999480D01*
X3580827Y-5999480D01*
X3580827Y-7000240D01*
X3588183Y-7074929D01*
X3609969Y-7146748D01*
X3645348Y-7212936D01*
X3692959Y-7270951D01*
X3750974Y-7318562D01*
X3817162Y-7353941D01*
X3888981Y-7375727D01*
X3963670Y-7383083D01*
X5363210Y-7383083D01*
X5437899Y-7375727D01*
X5509718Y-7353941D01*
X5575906Y-7318562D01*
X5633921Y-7270951D01*
X5656588Y-7243331D01*
X5796449Y-7318088D01*
X5962589Y-7368487D01*
X6092076Y-7381240D01*
X6577444Y-7381240D01*
X6706931Y-7368487D01*
X6873071Y-7318088D01*
X7026187Y-7236246D01*
X7160395Y-7126105D01*
X7270536Y-6991897D01*
X7352378Y-6838781D01*
X7402777Y-6672641D01*
X7419794Y-6499860D01*
X7402777Y-6327079D01*
X7352378Y-6160939D01*
X7270536Y-6007823D01*
X7160395Y-5873615D01*
X7026187Y-5763474D01*
X6873071Y-5681632D01*
X6706931Y-5631233D01*
X6577444Y-5618480D01*
X6092076Y-5618480D01*
X5962589Y-5631233D01*
X5796449Y-5681632D01*
X5656588Y-5756389D01*
X5633921Y-5728769D01*
X5575906Y-5681158D01*
X5509718Y-5645779D01*
X5437899Y-5623993D01*
X5363210Y-5616637D01*
X3963670Y-5616637D01*
X3888981Y-5623993D01*
X3817162Y-5645779D01*
X3750974Y-5681158D01*
X3692959Y-5728769D01*
X3645348Y-5786784D01*
X3609969Y-5852972D01*
X3588183Y-5924791D01*
X3580827Y-5999480D01*
X1373200Y-5999480D01*
X1379220Y-5969216D01*
X1379220Y-5831624D01*
X1352377Y-5696675D01*
X1299723Y-5569556D01*
X1223281Y-5455152D01*
X1125988Y-5357859D01*
X1011584Y-5281417D01*
X884465Y-5228763D01*
X749516Y-5201920D01*
X611924Y-5201920D01*
X476975Y-5228763D01*
X349856Y-5281417D01*
X235452Y-5357859D01*
X138159Y-5455152D01*
X61717Y-5569556D01*
X9063Y-5696675D01*
X-17780Y-5831624D01*
X-17780Y-5969216D01*
X-11622Y-6000176D01*
X-109884Y-6040877D01*
X-224288Y-6117319D01*
X-321581Y-6214612D01*
X-398023Y-6329016D01*
X-450677Y-6456135D01*
X-477520Y-6591084D01*
X-14272260Y-6591084D01*
X-14272260Y2469096D01*
X-13997940Y2469096D01*
X-13997940Y2331504D01*
X-13971097Y2196555D01*
X-13918443Y2069436D01*
X-13842001Y1955032D01*
X-13744708Y1857739D01*
X-13630304Y1781297D01*
X-13503185Y1728643D01*
X-13368236Y1701800D01*
X-13230644Y1701800D01*
X-13095695Y1728643D01*
X-12968576Y1781297D01*
X-12908884Y1821182D01*
X-12902059Y1751887D01*
X-12857397Y1604659D01*
X-12784871Y1468972D01*
X-12687268Y1350042D01*
X-12589736Y1270000D01*
X-12687268Y1189958D01*
X-12784871Y1071028D01*
X-12857397Y935341D01*
X-12902059Y788113D01*
X-12917139Y635000D01*
X-12902059Y481887D01*
X-12857397Y334659D01*
X-12784871Y198972D01*
X-12687268Y80042D01*
X-12589736Y0D01*
X-12687268Y-80042D01*
X-12784871Y-198972D01*
X-12857397Y-334659D01*
X-12902059Y-481887D01*
X-12917139Y-635000D01*
X-12913086Y-676148D01*
X-12920316Y-671317D01*
X-13047435Y-618663D01*
X-13182384Y-591820D01*
X-13319976Y-591820D01*
X-13454925Y-618663D01*
X-13582044Y-671317D01*
X-13696448Y-747759D01*
X-13793741Y-845052D01*
X-13870183Y-959456D01*
X-13922837Y-1086575D01*
X-13949680Y-1221524D01*
X-13949680Y-1359116D01*
X-13922837Y-1494065D01*
X-13870183Y-1621184D01*
X-13793741Y-1735588D01*
X-13696448Y-1832881D01*
X-13582044Y-1909323D01*
X-13454925Y-1961977D01*
X-13319976Y-1988820D01*
X-13182384Y-1988820D01*
X-13047435Y-1961977D01*
X-12920316Y-1909323D01*
X-12916936Y-1907064D01*
X-12902059Y-2058113D01*
X-12857397Y-2205341D01*
X-12784871Y-2341028D01*
X-12687268Y-2459958D01*
X-12589736Y-2540000D01*
X-12687268Y-2620042D01*
X-12784871Y-2738972D01*
X-12857397Y-2874659D01*
X-12902059Y-3021887D01*
X-12917139Y-3175000D01*
X-12902059Y-3328113D01*
X-12857397Y-3475341D01*
X-12784871Y-3611028D01*
X-12687268Y-3729958D01*
X-12589736Y-3810000D01*
X-12687268Y-3890042D01*
X-12784871Y-4008972D01*
X-12857397Y-4144659D01*
X-12902059Y-4291887D01*
X-12917139Y-4445000D01*
X-12902059Y-4598113D01*
X-12857397Y-4745341D01*
X-12784871Y-4881028D01*
X-12687268Y-4999958D01*
X-12589736Y-5080000D01*
X-12687268Y-5160042D01*
X-12784871Y-5278972D01*
X-12857397Y-5414659D01*
X-12902059Y-5561887D01*
X-12917139Y-5715000D01*
X-12902059Y-5868113D01*
X-12857397Y-6015341D01*
X-12784871Y-6151028D01*
X-12687268Y-6269958D01*
X-12568338Y-6367561D01*
X-12432651Y-6440087D01*
X-12285423Y-6484749D01*
X-12170680Y-6496050D01*
X-11695160Y-6496050D01*
X-11580417Y-6484749D01*
X-11433189Y-6440087D01*
X-11333610Y-6386861D01*
X-11276936Y-6433372D01*
X-11210748Y-6468751D01*
X-11138929Y-6490537D01*
X-11064240Y-6497893D01*
X-9865360Y-6497893D01*
X-9790671Y-6490537D01*
X-9718852Y-6468751D01*
X-9652664Y-6433372D01*
X-9594649Y-6385761D01*
X-9547038Y-6327746D01*
X-9511659Y-6261558D01*
X-9489873Y-6189739D01*
X-9482517Y-6115050D01*
X-9482517Y-5314950D01*
X-9489873Y-5240261D01*
X-9511659Y-5168442D01*
X-9547038Y-5102254D01*
X-9594649Y-5044239D01*
X-9650114Y-4998720D01*
X-2446593Y-4998720D01*
X-2446593Y-5999480D01*
X-2439237Y-6074169D01*
X-2417451Y-6145988D01*
X-2382072Y-6212176D01*
X-2334461Y-6270191D01*
X-2276446Y-6317802D01*
X-2210258Y-6353181D01*
X-2138439Y-6374967D01*
X-2063750Y-6382323D01*
X-664210Y-6382323D01*
X-589521Y-6374967D01*
X-517702Y-6353181D01*
X-451514Y-6317802D01*
X-393499Y-6270191D01*
X-345888Y-6212176D01*
X-310509Y-6145988D01*
X-288723Y-6074169D01*
X-281367Y-5999480D01*
X-281367Y-4998720D01*
X-288723Y-4924031D01*
X-310509Y-4852212D01*
X-345888Y-4786024D01*
X-393499Y-4728009D01*
X-451514Y-4680398D01*
X-517702Y-4645019D01*
X-589521Y-4623233D01*
X-664210Y-4615877D01*
X-2063750Y-4615877D01*
X-2138439Y-4623233D01*
X-2210258Y-4645019D01*
X-2276446Y-4680398D01*
X-2334461Y-4728009D01*
X-2382072Y-4786024D01*
X-2417451Y-4852212D01*
X-2439237Y-4924031D01*
X-2446593Y-4998720D01*
X-9650114Y-4998720D01*
X-9652664Y-4996628D01*
X-9690932Y-4976173D01*
X-9612849Y-4881028D01*
X-9540323Y-4745341D01*
X-9495661Y-4598113D01*
X-9480581Y-4445000D01*
X-9495661Y-4291887D01*
X-9540323Y-4144659D01*
X-9612849Y-4008972D01*
X-9710452Y-3890042D01*
X-9807984Y-3810000D01*
X-9710452Y-3729958D01*
X-9612849Y-3611028D01*
X-9540323Y-3475341D01*
X-9495661Y-3328113D01*
X-9480581Y-3175000D01*
X-9495661Y-3021887D01*
X-9502379Y-2999740D01*
X3580827Y-2999740D01*
X3580827Y-4000500D01*
X3588183Y-4075189D01*
X3609969Y-4147008D01*
X3645348Y-4213196D01*
X3692959Y-4271211D01*
X3750974Y-4318822D01*
X3817162Y-4354201D01*
X3888981Y-4375987D01*
X3963670Y-4383343D01*
X5363210Y-4383343D01*
X5437899Y-4375987D01*
X5509718Y-4354201D01*
X5575906Y-4318822D01*
X5633921Y-4271211D01*
X5656588Y-4243591D01*
X5796449Y-4318348D01*
X5962589Y-4368747D01*
X6092076Y-4381500D01*
X6577444Y-4381500D01*
X6706931Y-4368747D01*
X6873071Y-4318348D01*
X7026187Y-4236506D01*
X7160395Y-4126365D01*
X7270536Y-3992157D01*
X7352378Y-3839041D01*
X7402777Y-3672901D01*
X7419794Y-3500120D01*
X7402777Y-3327339D01*
X7352378Y-3161199D01*
X7270536Y-3008083D01*
X7160395Y-2873875D01*
X7026187Y-2763734D01*
X6873071Y-2681892D01*
X6706931Y-2631493D01*
X6577444Y-2618740D01*
X6092076Y-2618740D01*
X5962589Y-2631493D01*
X5796449Y-2681892D01*
X5656588Y-2756649D01*
X5633921Y-2729029D01*
X5575906Y-2681418D01*
X5509718Y-2646039D01*
X5437899Y-2624253D01*
X5363210Y-2616897D01*
X3963670Y-2616897D01*
X3888981Y-2624253D01*
X3817162Y-2646039D01*
X3750974Y-2681418D01*
X3692959Y-2729029D01*
X3645348Y-2787044D01*
X3609969Y-2853232D01*
X3588183Y-2925051D01*
X3580827Y-2999740D01*
X-9502379Y-2999740D01*
X-9540323Y-2874659D01*
X-9612849Y-2738972D01*
X-9710452Y-2620042D01*
X-9807984Y-2540000D01*
X-9710452Y-2459958D01*
X-9612849Y-2341028D01*
X-9543949Y-2212124D01*
X-8577580Y-2212124D01*
X-8577580Y-2349716D01*
X-8550737Y-2484665D01*
X-8498083Y-2611784D01*
X-8421641Y-2726188D01*
X-8324348Y-2823481D01*
X-8209944Y-2899923D01*
X-8082825Y-2952577D01*
X-7947876Y-2979420D01*
X-7810284Y-2979420D01*
X-7675335Y-2952577D01*
X-7548216Y-2899923D01*
X-7433812Y-2823481D01*
X-7336519Y-2726188D01*
X-7260077Y-2611784D01*
X-7207423Y-2484665D01*
X-7180580Y-2349716D01*
X-7180580Y-2212124D01*
X-7184621Y-2191804D01*
X-4018280Y-2191804D01*
X-4018280Y-2329396D01*
X-3991437Y-2464345D01*
X-3938783Y-2591464D01*
X-3862341Y-2705868D01*
X-3765048Y-2803161D01*
X-3650644Y-2879603D01*
X-3523525Y-2932257D01*
X-3388576Y-2959100D01*
X-3250984Y-2959100D01*
X-3116035Y-2932257D01*
X-2988916Y-2879603D01*
X-2874512Y-2803161D01*
X-2777219Y-2705868D01*
X-2700777Y-2591464D01*
X-2648123Y-2464345D01*
X-2621280Y-2329396D01*
X-2621280Y-2191804D01*
X-2648123Y-2056855D01*
X-2700777Y-1929736D01*
X-2766667Y-1831124D01*
X2801620Y-1831124D01*
X2801620Y-1968716D01*
X2828463Y-2103665D01*
X2881117Y-2230784D01*
X2957559Y-2345188D01*
X3054852Y-2442481D01*
X3169256Y-2518923D01*
X3296375Y-2571577D01*
X3431324Y-2598420D01*
X3568916Y-2598420D01*
X3703865Y-2571577D01*
X3830984Y-2518923D01*
X3945388Y-2442481D01*
X4042681Y-2345188D01*
X4119123Y-2230784D01*
X4171777Y-2103665D01*
X4198620Y-1968716D01*
X4198620Y-1831124D01*
X4171777Y-1696175D01*
X4119123Y-1569056D01*
X4042681Y-1454652D01*
X3945388Y-1357359D01*
X3830984Y-1280917D01*
X3703865Y-1228263D01*
X3568916Y-1201420D01*
X3431324Y-1201420D01*
X3296375Y-1228263D01*
X3169256Y-1280917D01*
X3054852Y-1357359D01*
X2957559Y-1454652D01*
X2881117Y-1569056D01*
X2828463Y-1696175D01*
X2801620Y-1831124D01*
X-2766667Y-1831124D01*
X-2777219Y-1815332D01*
X-2874512Y-1718039D01*
X-2988916Y-1641597D01*
X-3116035Y-1588943D01*
X-3250984Y-1562100D01*
X-3388576Y-1562100D01*
X-3523525Y-1588943D01*
X-3650644Y-1641597D01*
X-3765048Y-1718039D01*
X-3862341Y-1815332D01*
X-3938783Y-1929736D01*
X-3991437Y-2056855D01*
X-4018280Y-2191804D01*
X-7184621Y-2191804D01*
X-7207423Y-2077175D01*
X-7260077Y-1950056D01*
X-7336519Y-1835652D01*
X-7433812Y-1738359D01*
X-7548216Y-1661917D01*
X-7675335Y-1609263D01*
X-7810284Y-1582420D01*
X-7947876Y-1582420D01*
X-8082825Y-1609263D01*
X-8209944Y-1661917D01*
X-8324348Y-1738359D01*
X-8421641Y-1835652D01*
X-8498083Y-1950056D01*
X-8550737Y-2077175D01*
X-8577580Y-2212124D01*
X-9543949Y-2212124D01*
X-9540323Y-2205341D01*
X-9495661Y-2058113D01*
X-9480581Y-1905000D01*
X-9495661Y-1751887D01*
X-9540323Y-1604659D01*
X-9612849Y-1468972D01*
X-9710452Y-1350042D01*
X-9829382Y-1252439D01*
X-9965069Y-1179913D01*
X-10112297Y-1135251D01*
X-10227040Y-1123950D01*
X-10702560Y-1123950D01*
X-10817303Y-1135251D01*
X-10964531Y-1179913D01*
X-11100218Y-1252439D01*
X-11198860Y-1333392D01*
X-11276104Y-1270000D01*
X-11178572Y-1189958D01*
X-11080969Y-1071028D01*
X-11008443Y-935341D01*
X-10963781Y-788113D01*
X-10948701Y-635000D01*
X-10963781Y-481887D01*
X-10965171Y-477304D01*
X-6535420Y-477304D01*
X-6535420Y-614896D01*
X-6508577Y-749845D01*
X-6455923Y-876964D01*
X-6379481Y-991368D01*
X-6282188Y-1088661D01*
X-6167784Y-1165103D01*
X-6040665Y-1217757D01*
X-5905716Y-1244600D01*
X-5768124Y-1244600D01*
X-5633175Y-1217757D01*
X-5506056Y-1165103D01*
X-5391652Y-1088661D01*
X-5294359Y-991368D01*
X-5217917Y-876964D01*
X-5165263Y-749845D01*
X-5138420Y-614896D01*
X-5138420Y-477304D01*
X-5165263Y-342355D01*
X-5217917Y-215236D01*
X-5294359Y-100832D01*
X-5391652Y-3539D01*
X-5506056Y72903D01*
X-5633175Y125557D01*
X-5768124Y152400D01*
X-5905716Y152400D01*
X-6040665Y125557D01*
X-6167784Y72903D01*
X-6282188Y-3539D01*
X-6379481Y-100832D01*
X-6455923Y-215236D01*
X-6508577Y-342355D01*
X-6535420Y-477304D01*
X-10965171Y-477304D01*
X-11008443Y-334659D01*
X-11080969Y-198972D01*
X-11178572Y-80042D01*
X-11276104Y0D01*
X-11198860Y63392D01*
X-11100218Y-17561D01*
X-10964531Y-90087D01*
X-10817303Y-134749D01*
X-10702560Y-146050D01*
X-10227040Y-146050D01*
X-10112297Y-134749D01*
X-9965069Y-90087D01*
X-9829382Y-17561D01*
X-9710452Y80042D01*
X-9612849Y198972D01*
X-9540323Y334659D01*
X-9495661Y481887D01*
X-9480581Y635000D01*
X-9495661Y788113D01*
X-9540323Y935341D01*
X-9612849Y1071028D01*
X-9710452Y1189958D01*
X-9807984Y1270000D01*
X-9710452Y1350042D01*
X-9612849Y1468972D01*
X-9540323Y1604659D01*
X-9495661Y1751887D01*
X-9488993Y1819590D01*
X-9431684Y1781297D01*
X-9304565Y1728643D01*
X-9169616Y1701800D01*
X-9032024Y1701800D01*
X-8897075Y1728643D01*
X-8769956Y1781297D01*
X-8655552Y1857739D01*
X-8558259Y1955032D01*
X-8481817Y2069436D01*
X-8429163Y2196555D01*
X-8402320Y2331504D01*
X-8402320Y2469096D01*
X-8429163Y2604045D01*
X-8481817Y2731164D01*
X-8558259Y2845568D01*
X-8655552Y2942861D01*
X-8769956Y3019303D01*
X-8897075Y3071957D01*
X-9032024Y3098800D01*
X-9169616Y3098800D01*
X-9304565Y3071957D01*
X-9431684Y3019303D01*
X-9512908Y2965031D01*
X-9495661Y3021887D01*
X-9480581Y3175000D01*
X-9495661Y3328113D01*
X-9540323Y3475341D01*
X-9612849Y3611028D01*
X-9710452Y3729958D01*
X-9829382Y3827561D01*
X-9965069Y3900087D01*
X-10112297Y3944749D01*
X-10227040Y3956050D01*
X-10702560Y3956050D01*
X-10817303Y3944749D01*
X-10964531Y3900087D01*
X-11100218Y3827561D01*
X-11198860Y3746608D01*
X-11297502Y3827561D01*
X-11433189Y3900087D01*
X-11580417Y3944749D01*
X-11695160Y3956050D01*
X-12170680Y3956050D01*
X-12285423Y3944749D01*
X-12432651Y3900087D01*
X-12568338Y3827561D01*
X-12687268Y3729958D01*
X-12784871Y3611028D01*
X-12857397Y3475341D01*
X-12902059Y3328113D01*
X-12917139Y3175000D01*
X-12902059Y3021887D01*
X-12884166Y2962902D01*
X-12968576Y3019303D01*
X-13095695Y3071957D01*
X-13230644Y3098800D01*
X-13368236Y3098800D01*
X-13503185Y3071957D01*
X-13630304Y3019303D01*
X-13744708Y2942861D01*
X-13842001Y2845568D01*
X-13918443Y2731164D01*
X-13971097Y2604045D01*
X-13997940Y2469096D01*
X-14272260Y2469096D01*
X-14272260Y4349214D01*
X-13947874Y4673600D01*
X-9913389Y4673600D01*
X-9855968Y4616179D01*
%TA.AperFunction,Conductor*%
D28*
G36*
X-9855968Y4616179D02*
G01*
X-9741564Y4539737D01*
X-9614445Y4487083D01*
X-9479496Y4460240D01*
X-9341904Y4460240D01*
X-9206955Y4487083D01*
X-9079836Y4539737D01*
X-8965432Y4616179D01*
X-8908011Y4673600D01*
X-8674171Y4673600D01*
X-8679180Y4648416D01*
X-8679180Y4510824D01*
X-8652337Y4375875D01*
X-8599683Y4248756D01*
X-8523241Y4134352D01*
X-8425948Y4037059D01*
X-8311544Y3960617D01*
X-8184425Y3907963D01*
X-8049476Y3881120D01*
X-7911884Y3881120D01*
X-7776935Y3907963D01*
X-7649816Y3960617D01*
X-7535412Y4037059D01*
X-7438119Y4134352D01*
X-7361677Y4248756D01*
X-7309023Y4375875D01*
X-7282180Y4510824D01*
X-7282180Y4648416D01*
X-7287189Y4673600D01*
X-5905269Y4673600D01*
X-5993401Y4585468D01*
X-6069843Y4471064D01*
X-6122497Y4343945D01*
X-6149340Y4208996D01*
X-6149340Y4071404D01*
X-6122497Y3936455D01*
X-6069843Y3809336D01*
X-5993401Y3694932D01*
X-5896108Y3597639D01*
X-5781704Y3521197D01*
X-5654585Y3468543D01*
X-5519636Y3441700D01*
X-5382044Y3441700D01*
X-5247095Y3468543D01*
X-5119976Y3521197D01*
X-5005572Y3597639D01*
X-4908279Y3694932D01*
X-4831837Y3809336D01*
X-4779183Y3936455D01*
X-4752340Y4071404D01*
X-4752340Y4208996D01*
X-4779183Y4343945D01*
X-4831837Y4471064D01*
X-4908279Y4585468D01*
X-4996411Y4673600D01*
X-1650266Y4673600D01*
X-1325880Y4349214D01*
X-1325880Y3697328D01*
X-1381544Y3708400D01*
X-1519136Y3708400D01*
X-1654085Y3681557D01*
X-1781204Y3628903D01*
X-1870676Y3569120D01*
X-1929736Y3608583D01*
X-2056855Y3661237D01*
X-2191804Y3688080D01*
X-2329396Y3688080D01*
X-2464345Y3661237D01*
X-2591464Y3608583D01*
X-2705868Y3532141D01*
X-2803161Y3434848D01*
X-2879603Y3320444D01*
X-2932257Y3193325D01*
X-2959100Y3058376D01*
X-2959100Y3032436D01*
X-2964725Y3031317D01*
X-3091844Y2978663D01*
X-3206248Y2902221D01*
X-3303541Y2804928D01*
X-3379983Y2690524D01*
X-3432637Y2563405D01*
X-3459480Y2428456D01*
X-3459480Y2290864D01*
X-3432637Y2155915D01*
X-3379983Y2028796D01*
X-3303541Y1914392D01*
X-3206248Y1817099D01*
X-3091844Y1740657D01*
X-2964725Y1688003D01*
X-2829776Y1661160D01*
X-2692184Y1661160D01*
X-2557235Y1688003D01*
X-2430116Y1740657D01*
X-2315712Y1817099D01*
X-2218419Y1914392D01*
X-2141977Y2028796D01*
X-2089323Y2155915D01*
X-2062480Y2290864D01*
X-2062480Y2316804D01*
X-2056855Y2317923D01*
X-1929736Y2370577D01*
X-1840264Y2430360D01*
X-1781204Y2390897D01*
X-1654085Y2338243D01*
X-1519136Y2311400D01*
X-1381544Y2311400D01*
X-1304143Y2326796D01*
X-1288683Y2307957D01*
X-889903Y1909177D01*
X-870657Y1893383D01*
X-848701Y1881647D01*
X-824876Y1874420D01*
X-800100Y1871980D01*
X-155557Y1871980D01*
X-140797Y1797775D01*
X-88143Y1670656D01*
X-11701Y1556252D01*
X85592Y1458959D01*
X199996Y1382517D01*
X327115Y1329863D01*
X462064Y1303020D01*
X527486Y1303020D01*
X433676Y1264163D01*
X319272Y1187721D01*
X221979Y1090428D01*
X145537Y976024D01*
X92883Y848905D01*
X66040Y713956D01*
X66040Y576364D01*
X92883Y441415D01*
X145537Y314296D01*
X221979Y199892D01*
X319272Y102599D01*
X373749Y66198D01*
X350520Y-50584D01*
X350520Y-152782D01*
X305464Y-122677D01*
X178345Y-70023D01*
X119380Y-58294D01*
X119380Y7836D01*
X92537Y142785D01*
X39883Y269904D01*
X-36559Y384308D01*
X-133852Y481601D01*
X-248256Y558043D01*
X-375375Y610697D01*
X-510324Y637540D01*
X-647916Y637540D01*
X-782865Y610697D01*
X-909984Y558043D01*
X-1024388Y481601D01*
X-1121681Y384308D01*
X-1198123Y269904D01*
X-1250777Y142785D01*
X-1277620Y7836D01*
X-1277620Y-129756D01*
X-1250777Y-264705D01*
X-1198123Y-391824D01*
X-1189100Y-405328D01*
X-1268228Y-458199D01*
X-1365521Y-555492D01*
X-1441963Y-669896D01*
X-1494617Y-797015D01*
X-1521460Y-931964D01*
X-1521460Y-1069556D01*
X-1494617Y-1204505D01*
X-1441963Y-1331624D01*
X-1365521Y-1446028D01*
X-1268228Y-1543321D01*
X-1153824Y-1619763D01*
X-1026705Y-1672417D01*
X-891756Y-1699260D01*
X-754164Y-1699260D01*
X-619215Y-1672417D01*
X-492096Y-1619763D01*
X-377692Y-1543321D01*
X-280399Y-1446028D01*
X-252180Y-1403796D01*
X-229145Y-1413337D01*
X-94196Y-1440180D01*
X43396Y-1440180D01*
X178345Y-1413337D01*
X305464Y-1360683D01*
X419868Y-1284241D01*
X517161Y-1186948D01*
X593603Y-1072544D01*
X646257Y-945425D01*
X673100Y-810476D01*
X673100Y-708278D01*
X718156Y-738383D01*
X845275Y-791037D01*
X980224Y-817880D01*
X1117816Y-817880D01*
X1252765Y-791037D01*
X1379884Y-738383D01*
X1494288Y-661941D01*
X1591581Y-564648D01*
X1668023Y-450244D01*
X1720677Y-323125D01*
X1747520Y-188176D01*
X1747520Y-50584D01*
X1720677Y84365D01*
X1668023Y211484D01*
X1591581Y325888D01*
X1494288Y423181D01*
X1439811Y459582D01*
X1463040Y576364D01*
X1463040Y713956D01*
X1450120Y778909D01*
X1475195Y768523D01*
X1610144Y741680D01*
X1747736Y741680D01*
X1882685Y768523D01*
X1889118Y771188D01*
X1926319Y715512D01*
X1966241Y675590D01*
X1919143Y561885D01*
X1892300Y426936D01*
X1892300Y289344D01*
X1919143Y154395D01*
X1971797Y27276D01*
X2048239Y-87128D01*
X2145532Y-184421D01*
X2259936Y-260863D01*
X2387055Y-313517D01*
X2522004Y-340360D01*
X2659596Y-340360D01*
X2794545Y-313517D01*
X2921664Y-260863D01*
X3036068Y-184421D01*
X3133361Y-87128D01*
X3209803Y27276D01*
X3262457Y154395D01*
X3289300Y289344D01*
X3289300Y426936D01*
X3262457Y561885D01*
X3209803Y689004D01*
X3133361Y803408D01*
X3093439Y843330D01*
X3140537Y957035D01*
X3167380Y1091984D01*
X3167380Y1229576D01*
X3140537Y1364525D01*
X3087883Y1491644D01*
X3011441Y1606048D01*
X2914148Y1703341D01*
X2799744Y1779783D01*
X2672625Y1832437D01*
X2537676Y1859280D01*
X2400084Y1859280D01*
X2265135Y1832437D01*
X2258702Y1829772D01*
X2230500Y1871980D01*
X5850025Y1871980D01*
X5809737Y1811684D01*
X5757083Y1684565D01*
X5730240Y1549616D01*
X5730240Y1412024D01*
X5757083Y1277075D01*
X5809737Y1149956D01*
X5886179Y1035552D01*
X5983472Y938259D01*
X6097876Y861817D01*
X6224995Y809163D01*
X6359944Y782320D01*
X6497536Y782320D01*
X6573532Y797437D01*
X6575960Y772784D01*
X6583187Y748959D01*
X6594923Y727003D01*
X6610717Y707757D01*
X6822440Y496034D01*
X6822440Y472224D01*
X6849283Y337275D01*
X6901937Y210156D01*
X6978379Y95752D01*
X7075672Y-1541D01*
X7190076Y-77983D01*
X7317195Y-130637D01*
X7373620Y-141861D01*
X7373620Y-1102360D01*
X7376060Y-1127136D01*
X7383287Y-1150961D01*
X7395023Y-1172917D01*
X7410817Y-1192163D01*
X7809597Y-1590943D01*
X7828843Y-1606737D01*
X7850799Y-1618473D01*
X7874624Y-1625700D01*
X7899400Y-1628140D01*
X8949154Y-1628140D01*
X9273540Y-1952526D01*
X9273540Y-13947874D01*
X8949154Y-14272260D01*
X-2895831Y-14272260D01*
X-2868659Y-14245088D01*
X-2792217Y-14130684D01*
X-2739563Y-14003565D01*
X-2712720Y-13868616D01*
X-2712720Y-13731024D01*
X-2739563Y-13596075D01*
X-2792217Y-13468956D01*
X-2868659Y-13354552D01*
X-2965952Y-13257259D01*
X-3080356Y-13180817D01*
X-3207475Y-13128163D01*
X-3342424Y-13101320D01*
X-3480016Y-13101320D01*
X-3614965Y-13128163D01*
X-3742084Y-13180817D01*
X-3856488Y-13257259D01*
X-3953781Y-13354552D01*
X-4030223Y-13468956D01*
X-4082877Y-13596075D01*
X-4109720Y-13731024D01*
X-4109720Y-13868616D01*
X-4082877Y-14003565D01*
X-4030223Y-14130684D01*
X-3953781Y-14245088D01*
X-3926609Y-14272260D01*
X-6976736Y-14272260D01*
X-7628259Y-14022562D01*
X-8998730Y-12791224D01*
X980440Y-12791224D01*
X980440Y-12928816D01*
X1007283Y-13063765D01*
X1059937Y-13190884D01*
X1136379Y-13305288D01*
X1233672Y-13402581D01*
X1348076Y-13479023D01*
X1475195Y-13531677D01*
X1610144Y-13558520D01*
X1747736Y-13558520D01*
X1882685Y-13531677D01*
X2009804Y-13479023D01*
X2124208Y-13402581D01*
X2221501Y-13305288D01*
X2297943Y-13190884D01*
X2350597Y-13063765D01*
X2377440Y-12928816D01*
X2377440Y-12791224D01*
X2350597Y-12656275D01*
X2297943Y-12529156D01*
X2221501Y-12414752D01*
X2124208Y-12317459D01*
X2009804Y-12241017D01*
X1882685Y-12188363D01*
X1747736Y-12161520D01*
X1610144Y-12161520D01*
X1475195Y-12188363D01*
X1348076Y-12241017D01*
X1233672Y-12317459D01*
X1136379Y-12414752D01*
X1059937Y-12529156D01*
X1007283Y-12656275D01*
X980440Y-12791224D01*
X-8998730Y-12791224D01*
X-8998919Y-12791055D01*
X-9249766Y-12228452D01*
X-9020274Y-11998960D01*
X3580827Y-11998960D01*
X3580827Y-12999720D01*
X3588183Y-13074409D01*
X3609969Y-13146228D01*
X3645348Y-13212416D01*
X3692959Y-13270431D01*
X3750974Y-13318042D01*
X3817162Y-13353421D01*
X3888981Y-13375207D01*
X3963670Y-13382563D01*
X5363210Y-13382563D01*
X5437899Y-13375207D01*
X5509718Y-13353421D01*
X5575906Y-13318042D01*
X5633921Y-13270431D01*
X5656588Y-13242811D01*
X5796449Y-13317568D01*
X5962589Y-13367967D01*
X6092076Y-13380720D01*
X6577444Y-13380720D01*
X6706931Y-13367967D01*
X6873071Y-13317568D01*
X7026187Y-13235726D01*
X7160395Y-13125585D01*
X7270536Y-12991377D01*
X7352378Y-12838261D01*
X7402777Y-12672121D01*
X7419794Y-12499340D01*
X7402777Y-12326559D01*
X7352378Y-12160419D01*
X7270536Y-12007303D01*
X7265597Y-12001284D01*
X7462520Y-12001284D01*
X7462520Y-12138876D01*
X7489363Y-12273825D01*
X7542017Y-12400944D01*
X7618459Y-12515348D01*
X7715752Y-12612641D01*
X7830156Y-12689083D01*
X7957275Y-12741737D01*
X8092224Y-12768580D01*
X8229816Y-12768580D01*
X8364765Y-12741737D01*
X8491884Y-12689083D01*
X8606288Y-12612641D01*
X8703581Y-12515348D01*
X8780023Y-12400944D01*
X8832677Y-12273825D01*
X8859520Y-12138876D01*
X8859520Y-12001284D01*
X8832677Y-11866335D01*
X8780023Y-11739216D01*
X8703581Y-11624812D01*
X8606288Y-11527519D01*
X8491884Y-11451077D01*
X8364765Y-11398423D01*
X8229816Y-11371580D01*
X8092224Y-11371580D01*
X7957275Y-11398423D01*
X7830156Y-11451077D01*
X7715752Y-11527519D01*
X7618459Y-11624812D01*
X7542017Y-11739216D01*
X7489363Y-11866335D01*
X7462520Y-12001284D01*
X7265597Y-12001284D01*
X7160395Y-11873095D01*
X7026187Y-11762954D01*
X6873071Y-11681112D01*
X6706931Y-11630713D01*
X6577444Y-11617960D01*
X6092076Y-11617960D01*
X5962589Y-11630713D01*
X5796449Y-11681112D01*
X5656588Y-11755869D01*
X5633921Y-11728249D01*
X5575906Y-11680638D01*
X5509718Y-11645259D01*
X5437899Y-11623473D01*
X5363210Y-11616117D01*
X3963670Y-11616117D01*
X3888981Y-11623473D01*
X3817162Y-11645259D01*
X3750974Y-11680638D01*
X3692959Y-11728249D01*
X3645348Y-11786264D01*
X3609969Y-11852452D01*
X3588183Y-11924271D01*
X3580827Y-11998960D01*
X-9020274Y-11998960D01*
X-8949154Y-11927840D01*
X-5199380Y-11927840D01*
X-5174604Y-11925400D01*
X-5150779Y-11918173D01*
X-5128823Y-11906437D01*
X-5109577Y-11890643D01*
X-4710797Y-11491863D01*
X-4695003Y-11472617D01*
X-4683267Y-11450661D01*
X-4676040Y-11426836D01*
X-4673600Y-11402060D01*
X-4673600Y-8199120D01*
X-4676040Y-8174344D01*
X-4683267Y-8150519D01*
X-4695003Y-8128563D01*
X-4710797Y-8109317D01*
X-5109577Y-7710537D01*
X-5128823Y-7694743D01*
X-5150779Y-7683007D01*
X-5174604Y-7675780D01*
X-5199380Y-7673340D01*
X-7800340Y-7673340D01*
X-7825116Y-7675780D01*
X-7848941Y-7683007D01*
X-7870897Y-7694743D01*
X-7890143Y-7710537D01*
X-8288923Y-8109317D01*
X-8304717Y-8128563D01*
X-8316453Y-8150519D01*
X-8323680Y-8174344D01*
X-8326120Y-8199120D01*
X-8326120Y-8349714D01*
X-8650506Y-8674100D01*
X-12674737Y-8674100D01*
X-13308819Y-8411455D01*
X-14009615Y-7710659D01*
X-14272260Y-7076577D01*
X-14272260Y-6591084D01*
X-477520Y-6591084D01*
X-477520Y-6728676D01*
X-450677Y-6863625D01*
X-398023Y-6990744D01*
X-321581Y-7105148D01*
X-224288Y-7202441D01*
X-109884Y-7278883D01*
X17235Y-7331537D01*
X152184Y-7358380D01*
X289776Y-7358380D01*
X403173Y-7335824D01*
X381757Y-7367876D01*
X329103Y-7494995D01*
X302260Y-7629944D01*
X302260Y-7767536D01*
X329103Y-7902485D01*
X381757Y-8029604D01*
X458199Y-8144008D01*
X555492Y-8241301D01*
X568391Y-8249920D01*
X555492Y-8258539D01*
X458199Y-8355832D01*
X381757Y-8470236D01*
X329103Y-8597355D01*
X302260Y-8732304D01*
X302260Y-8869896D01*
X329103Y-9004845D01*
X381757Y-9131964D01*
X458199Y-9246368D01*
X462703Y-9250872D01*
X453892Y-9256759D01*
X356599Y-9354052D01*
X280157Y-9468456D01*
X227503Y-9595575D01*
X200660Y-9730524D01*
X200660Y-9868116D01*
X227503Y-10003065D01*
X280157Y-10130184D01*
X356599Y-10244588D01*
X422718Y-10310707D01*
X387523Y-10395675D01*
X386404Y-10401300D01*
X329984Y-10401300D01*
X195035Y-10428143D01*
X67916Y-10480797D01*
X-46488Y-10557239D01*
X-143781Y-10654532D01*
X-220223Y-10768936D01*
X-272877Y-10896055D01*
X-299720Y-11031004D01*
X-299720Y-11168596D01*
X-272877Y-11303545D01*
X-220223Y-11430664D01*
X-143781Y-11545068D01*
X-46488Y-11642361D01*
X67916Y-11718803D01*
X195035Y-11771457D01*
X329984Y-11798300D01*
X467576Y-11798300D01*
X602525Y-11771457D01*
X729644Y-11718803D01*
X844048Y-11642361D01*
X941341Y-11545068D01*
X1017783Y-11430664D01*
X1070437Y-11303545D01*
X1071556Y-11297920D01*
X1127976Y-11297920D01*
X1262925Y-11271077D01*
X1390044Y-11218423D01*
X1504448Y-11141981D01*
X1601741Y-11044688D01*
X1678183Y-10930284D01*
X1730837Y-10803165D01*
X1757680Y-10668216D01*
X1757680Y-10530624D01*
X1730837Y-10395675D01*
X1678183Y-10268556D01*
X1601741Y-10154152D01*
X1535622Y-10088033D01*
X1570817Y-10003065D01*
X1597660Y-9868116D01*
X1597660Y-9730524D01*
X1570817Y-9595575D01*
X1518163Y-9468456D01*
X1441721Y-9354052D01*
X1437217Y-9349548D01*
X1446028Y-9343661D01*
X1543321Y-9246368D01*
X1619763Y-9131964D01*
X1672417Y-9004845D01*
X1673535Y-8999220D01*
X3580827Y-8999220D01*
X3580827Y-9999980D01*
X3588183Y-10074669D01*
X3609969Y-10146488D01*
X3645348Y-10212676D01*
X3692959Y-10270691D01*
X3750974Y-10318302D01*
X3817162Y-10353681D01*
X3888981Y-10375467D01*
X3963670Y-10382823D01*
X5363210Y-10382823D01*
X5437899Y-10375467D01*
X5509718Y-10353681D01*
X5575906Y-10318302D01*
X5633921Y-10270691D01*
X5656588Y-10243071D01*
X5796449Y-10317828D01*
X5962589Y-10368227D01*
X6092076Y-10380980D01*
X6577444Y-10380980D01*
X6706931Y-10368227D01*
X6873071Y-10317828D01*
X7026187Y-10235986D01*
X7160395Y-10125845D01*
X7270536Y-9991637D01*
X7352378Y-9838521D01*
X7402777Y-9672381D01*
X7419794Y-9499600D01*
X7402777Y-9326819D01*
X7352378Y-9160679D01*
X7270536Y-9007563D01*
X7160395Y-8873355D01*
X7026187Y-8763214D01*
X6873071Y-8681372D01*
X6706931Y-8630973D01*
X6577444Y-8618220D01*
X6092076Y-8618220D01*
X5962589Y-8630973D01*
X5796449Y-8681372D01*
X5656588Y-8756129D01*
X5633921Y-8728509D01*
X5575906Y-8680898D01*
X5509718Y-8645519D01*
X5437899Y-8623733D01*
X5363210Y-8616377D01*
X3963670Y-8616377D01*
X3888981Y-8623733D01*
X3817162Y-8645519D01*
X3750974Y-8680898D01*
X3692959Y-8728509D01*
X3645348Y-8786524D01*
X3609969Y-8852712D01*
X3588183Y-8924531D01*
X3580827Y-8999220D01*
X1673535Y-8999220D01*
X1699260Y-8869896D01*
X1699260Y-8732304D01*
X1672417Y-8597355D01*
X1619763Y-8470236D01*
X1543321Y-8355832D01*
X1446028Y-8258539D01*
X1433129Y-8249920D01*
X1446028Y-8241301D01*
X1543321Y-8144008D01*
X1619763Y-8029604D01*
X1672417Y-7902485D01*
X1699260Y-7767536D01*
X1699260Y-7629944D01*
X1672417Y-7494995D01*
X1619763Y-7367876D01*
X1543321Y-7253472D01*
X1446028Y-7156179D01*
X1331624Y-7079737D01*
X1204505Y-7027083D01*
X1069556Y-7000240D01*
X931964Y-7000240D01*
X818567Y-7022796D01*
X839983Y-6990744D01*
X892637Y-6863625D01*
X919480Y-6728676D01*
X919480Y-6591084D01*
X913322Y-6560124D01*
X1011584Y-6519423D01*
X1125988Y-6442981D01*
X1223281Y-6345688D01*
X1299723Y-6231284D01*
X1352377Y-6104165D01*
X1373200Y-5999480D01*
X3580827Y-5999480D01*
X3580827Y-7000240D01*
X3588183Y-7074929D01*
X3609969Y-7146748D01*
X3645348Y-7212936D01*
X3692959Y-7270951D01*
X3750974Y-7318562D01*
X3817162Y-7353941D01*
X3888981Y-7375727D01*
X3963670Y-7383083D01*
X5363210Y-7383083D01*
X5437899Y-7375727D01*
X5509718Y-7353941D01*
X5575906Y-7318562D01*
X5633921Y-7270951D01*
X5656588Y-7243331D01*
X5796449Y-7318088D01*
X5962589Y-7368487D01*
X6092076Y-7381240D01*
X6577444Y-7381240D01*
X6706931Y-7368487D01*
X6873071Y-7318088D01*
X7026187Y-7236246D01*
X7160395Y-7126105D01*
X7270536Y-6991897D01*
X7352378Y-6838781D01*
X7402777Y-6672641D01*
X7419794Y-6499860D01*
X7402777Y-6327079D01*
X7352378Y-6160939D01*
X7270536Y-6007823D01*
X7160395Y-5873615D01*
X7026187Y-5763474D01*
X6873071Y-5681632D01*
X6706931Y-5631233D01*
X6577444Y-5618480D01*
X6092076Y-5618480D01*
X5962589Y-5631233D01*
X5796449Y-5681632D01*
X5656588Y-5756389D01*
X5633921Y-5728769D01*
X5575906Y-5681158D01*
X5509718Y-5645779D01*
X5437899Y-5623993D01*
X5363210Y-5616637D01*
X3963670Y-5616637D01*
X3888981Y-5623993D01*
X3817162Y-5645779D01*
X3750974Y-5681158D01*
X3692959Y-5728769D01*
X3645348Y-5786784D01*
X3609969Y-5852972D01*
X3588183Y-5924791D01*
X3580827Y-5999480D01*
X1373200Y-5999480D01*
X1379220Y-5969216D01*
X1379220Y-5831624D01*
X1352377Y-5696675D01*
X1299723Y-5569556D01*
X1223281Y-5455152D01*
X1125988Y-5357859D01*
X1011584Y-5281417D01*
X884465Y-5228763D01*
X749516Y-5201920D01*
X611924Y-5201920D01*
X476975Y-5228763D01*
X349856Y-5281417D01*
X235452Y-5357859D01*
X138159Y-5455152D01*
X61717Y-5569556D01*
X9063Y-5696675D01*
X-17780Y-5831624D01*
X-17780Y-5969216D01*
X-11622Y-6000176D01*
X-109884Y-6040877D01*
X-224288Y-6117319D01*
X-321581Y-6214612D01*
X-398023Y-6329016D01*
X-450677Y-6456135D01*
X-477520Y-6591084D01*
X-14272260Y-6591084D01*
X-14272260Y2469096D01*
X-13997940Y2469096D01*
X-13997940Y2331504D01*
X-13971097Y2196555D01*
X-13918443Y2069436D01*
X-13842001Y1955032D01*
X-13744708Y1857739D01*
X-13630304Y1781297D01*
X-13503185Y1728643D01*
X-13368236Y1701800D01*
X-13230644Y1701800D01*
X-13095695Y1728643D01*
X-12968576Y1781297D01*
X-12908884Y1821182D01*
X-12902059Y1751887D01*
X-12857397Y1604659D01*
X-12784871Y1468972D01*
X-12687268Y1350042D01*
X-12589736Y1270000D01*
X-12687268Y1189958D01*
X-12784871Y1071028D01*
X-12857397Y935341D01*
X-12902059Y788113D01*
X-12917139Y635000D01*
X-12902059Y481887D01*
X-12857397Y334659D01*
X-12784871Y198972D01*
X-12687268Y80042D01*
X-12589736Y0D01*
X-12687268Y-80042D01*
X-12784871Y-198972D01*
X-12857397Y-334659D01*
X-12902059Y-481887D01*
X-12917139Y-635000D01*
X-12913086Y-676148D01*
X-12920316Y-671317D01*
X-13047435Y-618663D01*
X-13182384Y-591820D01*
X-13319976Y-591820D01*
X-13454925Y-618663D01*
X-13582044Y-671317D01*
X-13696448Y-747759D01*
X-13793741Y-845052D01*
X-13870183Y-959456D01*
X-13922837Y-1086575D01*
X-13949680Y-1221524D01*
X-13949680Y-1359116D01*
X-13922837Y-1494065D01*
X-13870183Y-1621184D01*
X-13793741Y-1735588D01*
X-13696448Y-1832881D01*
X-13582044Y-1909323D01*
X-13454925Y-1961977D01*
X-13319976Y-1988820D01*
X-13182384Y-1988820D01*
X-13047435Y-1961977D01*
X-12920316Y-1909323D01*
X-12916936Y-1907064D01*
X-12902059Y-2058113D01*
X-12857397Y-2205341D01*
X-12784871Y-2341028D01*
X-12687268Y-2459958D01*
X-12589736Y-2540000D01*
X-12687268Y-2620042D01*
X-12784871Y-2738972D01*
X-12857397Y-2874659D01*
X-12902059Y-3021887D01*
X-12917139Y-3175000D01*
X-12902059Y-3328113D01*
X-12857397Y-3475341D01*
X-12784871Y-3611028D01*
X-12687268Y-3729958D01*
X-12589736Y-3810000D01*
X-12687268Y-3890042D01*
X-12784871Y-4008972D01*
X-12857397Y-4144659D01*
X-12902059Y-4291887D01*
X-12917139Y-4445000D01*
X-12902059Y-4598113D01*
X-12857397Y-4745341D01*
X-12784871Y-4881028D01*
X-12687268Y-4999958D01*
X-12589736Y-5080000D01*
X-12687268Y-5160042D01*
X-12784871Y-5278972D01*
X-12857397Y-5414659D01*
X-12902059Y-5561887D01*
X-12917139Y-5715000D01*
X-12902059Y-5868113D01*
X-12857397Y-6015341D01*
X-12784871Y-6151028D01*
X-12687268Y-6269958D01*
X-12568338Y-6367561D01*
X-12432651Y-6440087D01*
X-12285423Y-6484749D01*
X-12170680Y-6496050D01*
X-11695160Y-6496050D01*
X-11580417Y-6484749D01*
X-11433189Y-6440087D01*
X-11333610Y-6386861D01*
X-11276936Y-6433372D01*
X-11210748Y-6468751D01*
X-11138929Y-6490537D01*
X-11064240Y-6497893D01*
X-9865360Y-6497893D01*
X-9790671Y-6490537D01*
X-9718852Y-6468751D01*
X-9652664Y-6433372D01*
X-9594649Y-6385761D01*
X-9547038Y-6327746D01*
X-9511659Y-6261558D01*
X-9489873Y-6189739D01*
X-9482517Y-6115050D01*
X-9482517Y-5314950D01*
X-9489873Y-5240261D01*
X-9511659Y-5168442D01*
X-9547038Y-5102254D01*
X-9594649Y-5044239D01*
X-9650114Y-4998720D01*
X-2446593Y-4998720D01*
X-2446593Y-5999480D01*
X-2439237Y-6074169D01*
X-2417451Y-6145988D01*
X-2382072Y-6212176D01*
X-2334461Y-6270191D01*
X-2276446Y-6317802D01*
X-2210258Y-6353181D01*
X-2138439Y-6374967D01*
X-2063750Y-6382323D01*
X-664210Y-6382323D01*
X-589521Y-6374967D01*
X-517702Y-6353181D01*
X-451514Y-6317802D01*
X-393499Y-6270191D01*
X-345888Y-6212176D01*
X-310509Y-6145988D01*
X-288723Y-6074169D01*
X-281367Y-5999480D01*
X-281367Y-4998720D01*
X-288723Y-4924031D01*
X-310509Y-4852212D01*
X-345888Y-4786024D01*
X-393499Y-4728009D01*
X-451514Y-4680398D01*
X-517702Y-4645019D01*
X-589521Y-4623233D01*
X-664210Y-4615877D01*
X-2063750Y-4615877D01*
X-2138439Y-4623233D01*
X-2210258Y-4645019D01*
X-2276446Y-4680398D01*
X-2334461Y-4728009D01*
X-2382072Y-4786024D01*
X-2417451Y-4852212D01*
X-2439237Y-4924031D01*
X-2446593Y-4998720D01*
X-9650114Y-4998720D01*
X-9652664Y-4996628D01*
X-9690932Y-4976173D01*
X-9612849Y-4881028D01*
X-9540323Y-4745341D01*
X-9495661Y-4598113D01*
X-9480581Y-4445000D01*
X-9495661Y-4291887D01*
X-9540323Y-4144659D01*
X-9612849Y-4008972D01*
X-9710452Y-3890042D01*
X-9807984Y-3810000D01*
X-9710452Y-3729958D01*
X-9612849Y-3611028D01*
X-9540323Y-3475341D01*
X-9495661Y-3328113D01*
X-9480581Y-3175000D01*
X-9495661Y-3021887D01*
X-9502379Y-2999740D01*
X3580827Y-2999740D01*
X3580827Y-4000500D01*
X3588183Y-4075189D01*
X3609969Y-4147008D01*
X3645348Y-4213196D01*
X3692959Y-4271211D01*
X3750974Y-4318822D01*
X3817162Y-4354201D01*
X3888981Y-4375987D01*
X3963670Y-4383343D01*
X5363210Y-4383343D01*
X5437899Y-4375987D01*
X5509718Y-4354201D01*
X5575906Y-4318822D01*
X5633921Y-4271211D01*
X5656588Y-4243591D01*
X5796449Y-4318348D01*
X5962589Y-4368747D01*
X6092076Y-4381500D01*
X6577444Y-4381500D01*
X6706931Y-4368747D01*
X6873071Y-4318348D01*
X7026187Y-4236506D01*
X7160395Y-4126365D01*
X7270536Y-3992157D01*
X7352378Y-3839041D01*
X7402777Y-3672901D01*
X7419794Y-3500120D01*
X7402777Y-3327339D01*
X7352378Y-3161199D01*
X7270536Y-3008083D01*
X7160395Y-2873875D01*
X7026187Y-2763734D01*
X6873071Y-2681892D01*
X6706931Y-2631493D01*
X6577444Y-2618740D01*
X6092076Y-2618740D01*
X5962589Y-2631493D01*
X5796449Y-2681892D01*
X5656588Y-2756649D01*
X5633921Y-2729029D01*
X5575906Y-2681418D01*
X5509718Y-2646039D01*
X5437899Y-2624253D01*
X5363210Y-2616897D01*
X3963670Y-2616897D01*
X3888981Y-2624253D01*
X3817162Y-2646039D01*
X3750974Y-2681418D01*
X3692959Y-2729029D01*
X3645348Y-2787044D01*
X3609969Y-2853232D01*
X3588183Y-2925051D01*
X3580827Y-2999740D01*
X-9502379Y-2999740D01*
X-9540323Y-2874659D01*
X-9612849Y-2738972D01*
X-9710452Y-2620042D01*
X-9807984Y-2540000D01*
X-9710452Y-2459958D01*
X-9612849Y-2341028D01*
X-9543949Y-2212124D01*
X-8577580Y-2212124D01*
X-8577580Y-2349716D01*
X-8550737Y-2484665D01*
X-8498083Y-2611784D01*
X-8421641Y-2726188D01*
X-8324348Y-2823481D01*
X-8209944Y-2899923D01*
X-8082825Y-2952577D01*
X-7947876Y-2979420D01*
X-7810284Y-2979420D01*
X-7675335Y-2952577D01*
X-7548216Y-2899923D01*
X-7433812Y-2823481D01*
X-7336519Y-2726188D01*
X-7260077Y-2611784D01*
X-7207423Y-2484665D01*
X-7180580Y-2349716D01*
X-7180580Y-2212124D01*
X-7184621Y-2191804D01*
X-4018280Y-2191804D01*
X-4018280Y-2329396D01*
X-3991437Y-2464345D01*
X-3938783Y-2591464D01*
X-3862341Y-2705868D01*
X-3765048Y-2803161D01*
X-3650644Y-2879603D01*
X-3523525Y-2932257D01*
X-3388576Y-2959100D01*
X-3250984Y-2959100D01*
X-3116035Y-2932257D01*
X-2988916Y-2879603D01*
X-2874512Y-2803161D01*
X-2777219Y-2705868D01*
X-2700777Y-2591464D01*
X-2648123Y-2464345D01*
X-2621280Y-2329396D01*
X-2621280Y-2191804D01*
X-2648123Y-2056855D01*
X-2700777Y-1929736D01*
X-2766667Y-1831124D01*
X2801620Y-1831124D01*
X2801620Y-1968716D01*
X2828463Y-2103665D01*
X2881117Y-2230784D01*
X2957559Y-2345188D01*
X3054852Y-2442481D01*
X3169256Y-2518923D01*
X3296375Y-2571577D01*
X3431324Y-2598420D01*
X3568916Y-2598420D01*
X3703865Y-2571577D01*
X3830984Y-2518923D01*
X3945388Y-2442481D01*
X4042681Y-2345188D01*
X4119123Y-2230784D01*
X4171777Y-2103665D01*
X4198620Y-1968716D01*
X4198620Y-1831124D01*
X4171777Y-1696175D01*
X4119123Y-1569056D01*
X4042681Y-1454652D01*
X3945388Y-1357359D01*
X3830984Y-1280917D01*
X3703865Y-1228263D01*
X3568916Y-1201420D01*
X3431324Y-1201420D01*
X3296375Y-1228263D01*
X3169256Y-1280917D01*
X3054852Y-1357359D01*
X2957559Y-1454652D01*
X2881117Y-1569056D01*
X2828463Y-1696175D01*
X2801620Y-1831124D01*
X-2766667Y-1831124D01*
X-2777219Y-1815332D01*
X-2874512Y-1718039D01*
X-2988916Y-1641597D01*
X-3116035Y-1588943D01*
X-3250984Y-1562100D01*
X-3388576Y-1562100D01*
X-3523525Y-1588943D01*
X-3650644Y-1641597D01*
X-3765048Y-1718039D01*
X-3862341Y-1815332D01*
X-3938783Y-1929736D01*
X-3991437Y-2056855D01*
X-4018280Y-2191804D01*
X-7184621Y-2191804D01*
X-7207423Y-2077175D01*
X-7260077Y-1950056D01*
X-7336519Y-1835652D01*
X-7433812Y-1738359D01*
X-7548216Y-1661917D01*
X-7675335Y-1609263D01*
X-7810284Y-1582420D01*
X-7947876Y-1582420D01*
X-8082825Y-1609263D01*
X-8209944Y-1661917D01*
X-8324348Y-1738359D01*
X-8421641Y-1835652D01*
X-8498083Y-1950056D01*
X-8550737Y-2077175D01*
X-8577580Y-2212124D01*
X-9543949Y-2212124D01*
X-9540323Y-2205341D01*
X-9495661Y-2058113D01*
X-9480581Y-1905000D01*
X-9495661Y-1751887D01*
X-9540323Y-1604659D01*
X-9612849Y-1468972D01*
X-9710452Y-1350042D01*
X-9829382Y-1252439D01*
X-9965069Y-1179913D01*
X-10112297Y-1135251D01*
X-10227040Y-1123950D01*
X-10702560Y-1123950D01*
X-10817303Y-1135251D01*
X-10964531Y-1179913D01*
X-11100218Y-1252439D01*
X-11198860Y-1333392D01*
X-11276104Y-1270000D01*
X-11178572Y-1189958D01*
X-11080969Y-1071028D01*
X-11008443Y-935341D01*
X-10963781Y-788113D01*
X-10948701Y-635000D01*
X-10963781Y-481887D01*
X-10965171Y-477304D01*
X-6535420Y-477304D01*
X-6535420Y-614896D01*
X-6508577Y-749845D01*
X-6455923Y-876964D01*
X-6379481Y-991368D01*
X-6282188Y-1088661D01*
X-6167784Y-1165103D01*
X-6040665Y-1217757D01*
X-5905716Y-1244600D01*
X-5768124Y-1244600D01*
X-5633175Y-1217757D01*
X-5506056Y-1165103D01*
X-5391652Y-1088661D01*
X-5294359Y-991368D01*
X-5217917Y-876964D01*
X-5165263Y-749845D01*
X-5138420Y-614896D01*
X-5138420Y-477304D01*
X-5165263Y-342355D01*
X-5217917Y-215236D01*
X-5294359Y-100832D01*
X-5391652Y-3539D01*
X-5506056Y72903D01*
X-5633175Y125557D01*
X-5768124Y152400D01*
X-5905716Y152400D01*
X-6040665Y125557D01*
X-6167784Y72903D01*
X-6282188Y-3539D01*
X-6379481Y-100832D01*
X-6455923Y-215236D01*
X-6508577Y-342355D01*
X-6535420Y-477304D01*
X-10965171Y-477304D01*
X-11008443Y-334659D01*
X-11080969Y-198972D01*
X-11178572Y-80042D01*
X-11276104Y0D01*
X-11198860Y63392D01*
X-11100218Y-17561D01*
X-10964531Y-90087D01*
X-10817303Y-134749D01*
X-10702560Y-146050D01*
X-10227040Y-146050D01*
X-10112297Y-134749D01*
X-9965069Y-90087D01*
X-9829382Y-17561D01*
X-9710452Y80042D01*
X-9612849Y198972D01*
X-9540323Y334659D01*
X-9495661Y481887D01*
X-9480581Y635000D01*
X-9495661Y788113D01*
X-9540323Y935341D01*
X-9612849Y1071028D01*
X-9710452Y1189958D01*
X-9807984Y1270000D01*
X-9710452Y1350042D01*
X-9612849Y1468972D01*
X-9540323Y1604659D01*
X-9495661Y1751887D01*
X-9488993Y1819590D01*
X-9431684Y1781297D01*
X-9304565Y1728643D01*
X-9169616Y1701800D01*
X-9032024Y1701800D01*
X-8897075Y1728643D01*
X-8769956Y1781297D01*
X-8655552Y1857739D01*
X-8558259Y1955032D01*
X-8481817Y2069436D01*
X-8429163Y2196555D01*
X-8402320Y2331504D01*
X-8402320Y2469096D01*
X-8429163Y2604045D01*
X-8481817Y2731164D01*
X-8558259Y2845568D01*
X-8655552Y2942861D01*
X-8769956Y3019303D01*
X-8897075Y3071957D01*
X-9032024Y3098800D01*
X-9169616Y3098800D01*
X-9304565Y3071957D01*
X-9431684Y3019303D01*
X-9512908Y2965031D01*
X-9495661Y3021887D01*
X-9480581Y3175000D01*
X-9495661Y3328113D01*
X-9540323Y3475341D01*
X-9612849Y3611028D01*
X-9710452Y3729958D01*
X-9829382Y3827561D01*
X-9965069Y3900087D01*
X-10112297Y3944749D01*
X-10227040Y3956050D01*
X-10702560Y3956050D01*
X-10817303Y3944749D01*
X-10964531Y3900087D01*
X-11100218Y3827561D01*
X-11198860Y3746608D01*
X-11297502Y3827561D01*
X-11433189Y3900087D01*
X-11580417Y3944749D01*
X-11695160Y3956050D01*
X-12170680Y3956050D01*
X-12285423Y3944749D01*
X-12432651Y3900087D01*
X-12568338Y3827561D01*
X-12687268Y3729958D01*
X-12784871Y3611028D01*
X-12857397Y3475341D01*
X-12902059Y3328113D01*
X-12917139Y3175000D01*
X-12902059Y3021887D01*
X-12884166Y2962902D01*
X-12968576Y3019303D01*
X-13095695Y3071957D01*
X-13230644Y3098800D01*
X-13368236Y3098800D01*
X-13503185Y3071957D01*
X-13630304Y3019303D01*
X-13744708Y2942861D01*
X-13842001Y2845568D01*
X-13918443Y2731164D01*
X-13971097Y2604045D01*
X-13997940Y2469096D01*
X-14272260Y2469096D01*
X-14272260Y4349214D01*
X-13947874Y4673600D01*
X-9913389Y4673600D01*
X-9855968Y4616179D01*
G37*
%TD.AperFunction*%
%TD*%
D27*
%TO.N,GND*%
X14272260Y7148294D02*
X14272260Y1229129D01*
X14258019Y1214888D01*
X14181577Y1100484D01*
X14128923Y973365D01*
X14102080Y838416D01*
X14102080Y700824D01*
X14128923Y565875D01*
X14181577Y438756D01*
X14258019Y324352D01*
X14272260Y310111D01*
X14272260Y258849D01*
X14258019Y244608D01*
X14181577Y130204D01*
X14128923Y3085D01*
X14102080Y-131864D01*
X14102080Y-269456D01*
X14128923Y-404405D01*
X14181577Y-531524D01*
X14258019Y-645928D01*
X14272260Y-660169D01*
X14272260Y-7122160D01*
X14274034Y-7143310D01*
X14405002Y-7918750D01*
X14410273Y-7939309D01*
X16737303Y-14631794D01*
X16602614Y-15219240D01*
X15218634Y-16603220D01*
X14626162Y-16746869D01*
X12355507Y-16020351D01*
X12181950Y-15955336D01*
X12174164Y-15951848D01*
X12159827Y-15947049D01*
X12145674Y-15941747D01*
X12137434Y-15939553D01*
X10960780Y-15545672D01*
X10946504Y-15540334D01*
X10938409Y-15538183D01*
X10930455Y-15535521D01*
X10915575Y-15532118D01*
X10455537Y-15409908D01*
X10126980Y-14959818D01*
X10126980Y-12930924D01*
X12372340Y-12930924D01*
X12372340Y-13068516D01*
X12399183Y-13203465D01*
X12451837Y-13330584D01*
X12528279Y-13444988D01*
X12625572Y-13542281D01*
X12739976Y-13618723D01*
X12867095Y-13671377D01*
X13002044Y-13698220D01*
X13139636Y-13698220D01*
X13274585Y-13671377D01*
X13401704Y-13618723D01*
X13516108Y-13542281D01*
X13613401Y-13444988D01*
X13689843Y-13330584D01*
X13742497Y-13203465D01*
X13769340Y-13068516D01*
X13769340Y-12930924D01*
X13742497Y-12795975D01*
X13689843Y-12668856D01*
X13613401Y-12554452D01*
X13516108Y-12457159D01*
X13401704Y-12380717D01*
X13274585Y-12328063D01*
X13139636Y-12301220D01*
X13002044Y-12301220D01*
X12867095Y-12328063D01*
X12739976Y-12380717D01*
X12625572Y-12457159D01*
X12528279Y-12554452D01*
X12451837Y-12668856D01*
X12399183Y-12795975D01*
X12372340Y-12930924D01*
X10126980Y-12930924D01*
X10126980Y-9832124D01*
X13401040Y-9832124D01*
X13401040Y-9969716D01*
X13427883Y-10104665D01*
X13480537Y-10231784D01*
X13556979Y-10346188D01*
X13610821Y-10400030D01*
X13556979Y-10453872D01*
X13480537Y-10568276D01*
X13427883Y-10695395D01*
X13401040Y-10830344D01*
X13401040Y-10967936D01*
X13427883Y-11102885D01*
X13480537Y-11230004D01*
X13556979Y-11344408D01*
X13654272Y-11441701D01*
X13768676Y-11518143D01*
X13895795Y-11570797D01*
X14030744Y-11597640D01*
X14168336Y-11597640D01*
X14303285Y-11570797D01*
X14430404Y-11518143D01*
X14544808Y-11441701D01*
X14642101Y-11344408D01*
X14718543Y-11230004D01*
X14771197Y-11102885D01*
X14798040Y-10967936D01*
X14798040Y-10830344D01*
X14771197Y-10695395D01*
X14718543Y-10568276D01*
X14642101Y-10453872D01*
X14588259Y-10400030D01*
X14642101Y-10346188D01*
X14718543Y-10231784D01*
X14771197Y-10104665D01*
X14798040Y-9969716D01*
X14798040Y-9832124D01*
X14771197Y-9697175D01*
X14718543Y-9570056D01*
X14642101Y-9455652D01*
X14544808Y-9358359D01*
X14430404Y-9281917D01*
X14303285Y-9229263D01*
X14168336Y-9202420D01*
X14030744Y-9202420D01*
X13895795Y-9229263D01*
X13768676Y-9281917D01*
X13654272Y-9358359D01*
X13556979Y-9455652D01*
X13480537Y-9570056D01*
X13427883Y-9697175D01*
X13401040Y-9832124D01*
X10126980Y-9832124D01*
X10126980Y-6781584D01*
X12062460Y-6781584D01*
X12062460Y-6919176D01*
X12089303Y-7054125D01*
X12141957Y-7181244D01*
X12218399Y-7295648D01*
X12315692Y-7392941D01*
X12430096Y-7469383D01*
X12557215Y-7522037D01*
X12692164Y-7548880D01*
X12829756Y-7548880D01*
X12964705Y-7522037D01*
X13091824Y-7469383D01*
X13206228Y-7392941D01*
X13303521Y-7295648D01*
X13379963Y-7181244D01*
X13432617Y-7054125D01*
X13459460Y-6919176D01*
X13459460Y-6781584D01*
X13432617Y-6646635D01*
X13379963Y-6519516D01*
X13303521Y-6405112D01*
X13206228Y-6307819D01*
X13091824Y-6231377D01*
X12964705Y-6178723D01*
X12829756Y-6151880D01*
X12692164Y-6151880D01*
X12557215Y-6178723D01*
X12430096Y-6231377D01*
X12315692Y-6307819D01*
X12218399Y-6405112D01*
X12141957Y-6519516D01*
X12089303Y-6646635D01*
X12062460Y-6781584D01*
X10126980Y-6781584D01*
X10126980Y-1399540D01*
X10124540Y-1374764D01*
X10117313Y-1350939D01*
X10105577Y-1328983D01*
X10089783Y-1309737D01*
X9691003Y-910957D01*
X9671757Y-895163D01*
X9649801Y-883427D01*
X9625976Y-876200D01*
X9601200Y-873760D01*
X9542584Y-873760D01*
X9571817Y-803185D01*
X9598660Y-668236D01*
X9598660Y-530644D01*
X9571817Y-395695D01*
X9519163Y-268576D01*
X9442721Y-154172D01*
X9345428Y-56879D01*
X9231024Y19563D01*
X9103905Y72217D01*
X8968956Y99060D01*
X8831364Y99060D01*
X8696415Y72217D01*
X8569296Y19563D01*
X8454892Y-56879D01*
X8357599Y-154172D01*
X8326120Y-201284D01*
X8326120Y549910D01*
X8323680Y574686D01*
X8316453Y598511D01*
X8304717Y620467D01*
X8288923Y639713D01*
X8194764Y733872D01*
X8192597Y744765D01*
X8139943Y871884D01*
X8063501Y986288D01*
X7966208Y1083581D01*
X7851804Y1160023D01*
X7724685Y1212677D01*
X7713792Y1214844D01*
X7627620Y1301016D01*
X7627620Y2552700D01*
X11717717Y2552700D01*
X11717717Y952500D01*
X11725073Y877811D01*
X11746859Y805992D01*
X11782238Y739804D01*
X11829849Y681789D01*
X11887864Y634178D01*
X11954052Y598799D01*
X12025871Y577013D01*
X12100560Y569657D01*
X13299440Y569657D01*
X13374129Y577013D01*
X13445948Y598799D01*
X13512136Y634178D01*
X13570151Y681789D01*
X13617762Y739804D01*
X13653141Y805992D01*
X13674927Y877811D01*
X13682283Y952500D01*
X13682283Y2552700D01*
X13674927Y2627389D01*
X13653141Y2699208D01*
X13617762Y2765396D01*
X13570151Y2823411D01*
X13512136Y2871022D01*
X13445948Y2906401D01*
X13374129Y2928187D01*
X13299440Y2935543D01*
X12100560Y2935543D01*
X12025871Y2928187D01*
X11954052Y2906401D01*
X11887864Y2871022D01*
X11829849Y2823411D01*
X11782238Y2765396D01*
X11746859Y2699208D01*
X11725073Y2627389D01*
X11717717Y2552700D01*
X7627620Y2552700D01*
X7627620Y3678010D01*
X7655015Y3666663D01*
X7789964Y3639820D01*
X7927556Y3639820D01*
X8062505Y3666663D01*
X8189624Y3719317D01*
X8304028Y3795759D01*
X8401321Y3893052D01*
X8471562Y3998176D01*
X9382760Y3998176D01*
X9382760Y3860584D01*
X9409603Y3725635D01*
X9462257Y3598516D01*
X9538699Y3484112D01*
X9635992Y3386819D01*
X9750396Y3310377D01*
X9877515Y3257723D01*
X10012464Y3230880D01*
X10150056Y3230880D01*
X10285005Y3257723D01*
X10412124Y3310377D01*
X10526528Y3386819D01*
X10623821Y3484112D01*
X10700263Y3598516D01*
X10752917Y3725635D01*
X10779760Y3860584D01*
X10779760Y3998176D01*
X10752917Y4133125D01*
X10700263Y4260244D01*
X10623821Y4374648D01*
X10526528Y4471941D01*
X10412124Y4548383D01*
X10285005Y4601037D01*
X10150056Y4627880D01*
X10012464Y4627880D01*
X9877515Y4601037D01*
X9750396Y4548383D01*
X9635992Y4471941D01*
X9538699Y4374648D01*
X9462257Y4260244D01*
X9409603Y4133125D01*
X9382760Y3998176D01*
X8471562Y3998176D01*
X8477763Y4007456D01*
X8530417Y4134575D01*
X8557260Y4269524D01*
X8557260Y4407116D01*
X8530417Y4542065D01*
X8477763Y4669184D01*
X8401321Y4783588D01*
X8304028Y4880881D01*
X8189624Y4957323D01*
X8062505Y5009977D01*
X7927556Y5036820D01*
X7789964Y5036820D01*
X7772196Y5033286D01*
X7804663Y5081876D01*
X7857317Y5208995D01*
X7884160Y5343944D01*
X7884160Y5481536D01*
X7857317Y5616485D01*
X7804663Y5743604D01*
X7728221Y5858008D01*
X7645169Y5941060D01*
X7668476Y5941060D01*
X7803425Y5967903D01*
X7930544Y6020557D01*
X7978555Y6052636D01*
X8063732Y5967459D01*
X8178136Y5891017D01*
X8305255Y5838363D01*
X8440204Y5811520D01*
X8577796Y5811520D01*
X8712745Y5838363D01*
X8839864Y5891017D01*
X8954268Y5967459D01*
X9051561Y6064752D01*
X9128003Y6179156D01*
X9180657Y6306275D01*
X9207500Y6441224D01*
X9207500Y6578816D01*
X9180657Y6713765D01*
X9128003Y6840884D01*
X9051561Y6955288D01*
X8954268Y7052581D01*
X8839864Y7129023D01*
X8712745Y7181677D01*
X8577796Y7208520D01*
X8440204Y7208520D01*
X8305255Y7181677D01*
X8178136Y7129023D01*
X8130125Y7096944D01*
X8044948Y7182121D01*
X7930544Y7258563D01*
X7803425Y7311217D01*
X7792680Y7313354D01*
X7952006Y7472680D01*
X13947874Y7472680D01*
X14272260Y7148294D01*
%TA.AperFunction,Conductor*%
D28*
G36*
X14272260Y7148294D02*
G01*
X14272260Y1229129D01*
X14258019Y1214888D01*
X14181577Y1100484D01*
X14128923Y973365D01*
X14102080Y838416D01*
X14102080Y700824D01*
X14128923Y565875D01*
X14181577Y438756D01*
X14258019Y324352D01*
X14272260Y310111D01*
X14272260Y258849D01*
X14258019Y244608D01*
X14181577Y130204D01*
X14128923Y3085D01*
X14102080Y-131864D01*
X14102080Y-269456D01*
X14128923Y-404405D01*
X14181577Y-531524D01*
X14258019Y-645928D01*
X14272260Y-660169D01*
X14272260Y-7122160D01*
X14274034Y-7143310D01*
X14405002Y-7918750D01*
X14410273Y-7939309D01*
X16737303Y-14631794D01*
X16602614Y-15219240D01*
X15218634Y-16603220D01*
X14626162Y-16746869D01*
X12355507Y-16020351D01*
X12181950Y-15955336D01*
X12174164Y-15951848D01*
X12159827Y-15947049D01*
X12145674Y-15941747D01*
X12137434Y-15939553D01*
X10960780Y-15545672D01*
X10946504Y-15540334D01*
X10938409Y-15538183D01*
X10930455Y-15535521D01*
X10915575Y-15532118D01*
X10455537Y-15409908D01*
X10126980Y-14959818D01*
X10126980Y-12930924D01*
X12372340Y-12930924D01*
X12372340Y-13068516D01*
X12399183Y-13203465D01*
X12451837Y-13330584D01*
X12528279Y-13444988D01*
X12625572Y-13542281D01*
X12739976Y-13618723D01*
X12867095Y-13671377D01*
X13002044Y-13698220D01*
X13139636Y-13698220D01*
X13274585Y-13671377D01*
X13401704Y-13618723D01*
X13516108Y-13542281D01*
X13613401Y-13444988D01*
X13689843Y-13330584D01*
X13742497Y-13203465D01*
X13769340Y-13068516D01*
X13769340Y-12930924D01*
X13742497Y-12795975D01*
X13689843Y-12668856D01*
X13613401Y-12554452D01*
X13516108Y-12457159D01*
X13401704Y-12380717D01*
X13274585Y-12328063D01*
X13139636Y-12301220D01*
X13002044Y-12301220D01*
X12867095Y-12328063D01*
X12739976Y-12380717D01*
X12625572Y-12457159D01*
X12528279Y-12554452D01*
X12451837Y-12668856D01*
X12399183Y-12795975D01*
X12372340Y-12930924D01*
X10126980Y-12930924D01*
X10126980Y-9832124D01*
X13401040Y-9832124D01*
X13401040Y-9969716D01*
X13427883Y-10104665D01*
X13480537Y-10231784D01*
X13556979Y-10346188D01*
X13610821Y-10400030D01*
X13556979Y-10453872D01*
X13480537Y-10568276D01*
X13427883Y-10695395D01*
X13401040Y-10830344D01*
X13401040Y-10967936D01*
X13427883Y-11102885D01*
X13480537Y-11230004D01*
X13556979Y-11344408D01*
X13654272Y-11441701D01*
X13768676Y-11518143D01*
X13895795Y-11570797D01*
X14030744Y-11597640D01*
X14168336Y-11597640D01*
X14303285Y-11570797D01*
X14430404Y-11518143D01*
X14544808Y-11441701D01*
X14642101Y-11344408D01*
X14718543Y-11230004D01*
X14771197Y-11102885D01*
X14798040Y-10967936D01*
X14798040Y-10830344D01*
X14771197Y-10695395D01*
X14718543Y-10568276D01*
X14642101Y-10453872D01*
X14588259Y-10400030D01*
X14642101Y-10346188D01*
X14718543Y-10231784D01*
X14771197Y-10104665D01*
X14798040Y-9969716D01*
X14798040Y-9832124D01*
X14771197Y-9697175D01*
X14718543Y-9570056D01*
X14642101Y-9455652D01*
X14544808Y-9358359D01*
X14430404Y-9281917D01*
X14303285Y-9229263D01*
X14168336Y-9202420D01*
X14030744Y-9202420D01*
X13895795Y-9229263D01*
X13768676Y-9281917D01*
X13654272Y-9358359D01*
X13556979Y-9455652D01*
X13480537Y-9570056D01*
X13427883Y-9697175D01*
X13401040Y-9832124D01*
X10126980Y-9832124D01*
X10126980Y-6781584D01*
X12062460Y-6781584D01*
X12062460Y-6919176D01*
X12089303Y-7054125D01*
X12141957Y-7181244D01*
X12218399Y-7295648D01*
X12315692Y-7392941D01*
X12430096Y-7469383D01*
X12557215Y-7522037D01*
X12692164Y-7548880D01*
X12829756Y-7548880D01*
X12964705Y-7522037D01*
X13091824Y-7469383D01*
X13206228Y-7392941D01*
X13303521Y-7295648D01*
X13379963Y-7181244D01*
X13432617Y-7054125D01*
X13459460Y-6919176D01*
X13459460Y-6781584D01*
X13432617Y-6646635D01*
X13379963Y-6519516D01*
X13303521Y-6405112D01*
X13206228Y-6307819D01*
X13091824Y-6231377D01*
X12964705Y-6178723D01*
X12829756Y-6151880D01*
X12692164Y-6151880D01*
X12557215Y-6178723D01*
X12430096Y-6231377D01*
X12315692Y-6307819D01*
X12218399Y-6405112D01*
X12141957Y-6519516D01*
X12089303Y-6646635D01*
X12062460Y-6781584D01*
X10126980Y-6781584D01*
X10126980Y-1399540D01*
X10124540Y-1374764D01*
X10117313Y-1350939D01*
X10105577Y-1328983D01*
X10089783Y-1309737D01*
X9691003Y-910957D01*
X9671757Y-895163D01*
X9649801Y-883427D01*
X9625976Y-876200D01*
X9601200Y-873760D01*
X9542584Y-873760D01*
X9571817Y-803185D01*
X9598660Y-668236D01*
X9598660Y-530644D01*
X9571817Y-395695D01*
X9519163Y-268576D01*
X9442721Y-154172D01*
X9345428Y-56879D01*
X9231024Y19563D01*
X9103905Y72217D01*
X8968956Y99060D01*
X8831364Y99060D01*
X8696415Y72217D01*
X8569296Y19563D01*
X8454892Y-56879D01*
X8357599Y-154172D01*
X8326120Y-201284D01*
X8326120Y549910D01*
X8323680Y574686D01*
X8316453Y598511D01*
X8304717Y620467D01*
X8288923Y639713D01*
X8194764Y733872D01*
X8192597Y744765D01*
X8139943Y871884D01*
X8063501Y986288D01*
X7966208Y1083581D01*
X7851804Y1160023D01*
X7724685Y1212677D01*
X7713792Y1214844D01*
X7627620Y1301016D01*
X7627620Y2552700D01*
X11717717Y2552700D01*
X11717717Y952500D01*
X11725073Y877811D01*
X11746859Y805992D01*
X11782238Y739804D01*
X11829849Y681789D01*
X11887864Y634178D01*
X11954052Y598799D01*
X12025871Y577013D01*
X12100560Y569657D01*
X13299440Y569657D01*
X13374129Y577013D01*
X13445948Y598799D01*
X13512136Y634178D01*
X13570151Y681789D01*
X13617762Y739804D01*
X13653141Y805992D01*
X13674927Y877811D01*
X13682283Y952500D01*
X13682283Y2552700D01*
X13674927Y2627389D01*
X13653141Y2699208D01*
X13617762Y2765396D01*
X13570151Y2823411D01*
X13512136Y2871022D01*
X13445948Y2906401D01*
X13374129Y2928187D01*
X13299440Y2935543D01*
X12100560Y2935543D01*
X12025871Y2928187D01*
X11954052Y2906401D01*
X11887864Y2871022D01*
X11829849Y2823411D01*
X11782238Y2765396D01*
X11746859Y2699208D01*
X11725073Y2627389D01*
X11717717Y2552700D01*
X7627620Y2552700D01*
X7627620Y3678010D01*
X7655015Y3666663D01*
X7789964Y3639820D01*
X7927556Y3639820D01*
X8062505Y3666663D01*
X8189624Y3719317D01*
X8304028Y3795759D01*
X8401321Y3893052D01*
X8471562Y3998176D01*
X9382760Y3998176D01*
X9382760Y3860584D01*
X9409603Y3725635D01*
X9462257Y3598516D01*
X9538699Y3484112D01*
X9635992Y3386819D01*
X9750396Y3310377D01*
X9877515Y3257723D01*
X10012464Y3230880D01*
X10150056Y3230880D01*
X10285005Y3257723D01*
X10412124Y3310377D01*
X10526528Y3386819D01*
X10623821Y3484112D01*
X10700263Y3598516D01*
X10752917Y3725635D01*
X10779760Y3860584D01*
X10779760Y3998176D01*
X10752917Y4133125D01*
X10700263Y4260244D01*
X10623821Y4374648D01*
X10526528Y4471941D01*
X10412124Y4548383D01*
X10285005Y4601037D01*
X10150056Y4627880D01*
X10012464Y4627880D01*
X9877515Y4601037D01*
X9750396Y4548383D01*
X9635992Y4471941D01*
X9538699Y4374648D01*
X9462257Y4260244D01*
X9409603Y4133125D01*
X9382760Y3998176D01*
X8471562Y3998176D01*
X8477763Y4007456D01*
X8530417Y4134575D01*
X8557260Y4269524D01*
X8557260Y4407116D01*
X8530417Y4542065D01*
X8477763Y4669184D01*
X8401321Y4783588D01*
X8304028Y4880881D01*
X8189624Y4957323D01*
X8062505Y5009977D01*
X7927556Y5036820D01*
X7789964Y5036820D01*
X7772196Y5033286D01*
X7804663Y5081876D01*
X7857317Y5208995D01*
X7884160Y5343944D01*
X7884160Y5481536D01*
X7857317Y5616485D01*
X7804663Y5743604D01*
X7728221Y5858008D01*
X7645169Y5941060D01*
X7668476Y5941060D01*
X7803425Y5967903D01*
X7930544Y6020557D01*
X7978555Y6052636D01*
X8063732Y5967459D01*
X8178136Y5891017D01*
X8305255Y5838363D01*
X8440204Y5811520D01*
X8577796Y5811520D01*
X8712745Y5838363D01*
X8839864Y5891017D01*
X8954268Y5967459D01*
X9051561Y6064752D01*
X9128003Y6179156D01*
X9180657Y6306275D01*
X9207500Y6441224D01*
X9207500Y6578816D01*
X9180657Y6713765D01*
X9128003Y6840884D01*
X9051561Y6955288D01*
X8954268Y7052581D01*
X8839864Y7129023D01*
X8712745Y7181677D01*
X8577796Y7208520D01*
X8440204Y7208520D01*
X8305255Y7181677D01*
X8178136Y7129023D01*
X8130125Y7096944D01*
X8044948Y7182121D01*
X7930544Y7258563D01*
X7803425Y7311217D01*
X7792680Y7313354D01*
X7952006Y7472680D01*
X13947874Y7472680D01*
X14272260Y7148294D01*
G37*
%TD.AperFunction*%
%TD*%
M02*
