M48
; DRILL file {KiCad 5.1.10-88a1d61d58~90~ubuntu20.04.1} date Sun Aug 22 20:51:01 2021
; FORMAT={-:-/ absolute / inch / decimal}
; #@! TF.CreationDate,2021-08-22T20:51:01-06:00
; #@! TF.GenerationSoftware,Kicad,Pcbnew,5.1.10-88a1d61d58~90~ubuntu20.04.1
; #@! TF.FileFunction,Plated,1,4,PTH
FMAT,2
INCH
T1C0.0150
T2C0.0236
T3C0.0276
T4C0.0394
%
G90
G05
T1
X4.8803Y-3.4458
X4.9606Y-4.0946
X4.9606Y-4.1537
X4.9606Y-4.2127
X4.9606Y-4.2718
X4.9882Y-3.882
X4.9901Y-4.0273
X5.0Y-4.2718
X5.0Y-4.3111
X5.0118Y-3.6694
X5.0394Y-4.2718
X5.0539Y-3.6104
X5.059Y-4.3111
X5.0787Y-4.2718
X5.1102Y-4.319
X5.1181Y-4.2718
X5.1413Y-3.7734
X5.1535Y-3.882
X5.1535Y-4.2245
X5.1535Y-4.2718
X5.1535Y-4.3072
X5.1575Y-4.4686
X5.1705Y-4.1411
X5.1811Y-4.2009
X5.1968Y-4.4686
X5.1976Y-3.7962
X5.2016Y-4.0663
X5.2047Y-4.2245
X5.2165Y-4.5277
X5.2323Y-3.6891
X5.2362Y-4.197
X5.2362Y-4.4686
X5.2508Y-3.7171
X5.2602Y-3.5474
X5.2756Y-4.2324
X5.2756Y-4.4686
X5.282Y-3.998
X5.2913Y-3.6891
X5.2972Y-3.8135
X5.3031Y-4.197
X5.3031Y-4.2718
X5.3035Y-3.8548
X5.311Y-3.6025
X5.3177Y-3.7119
X5.3307Y-3.643
X5.3386Y-4.2324
X5.3425Y-4.2993
X5.3504Y-4.4765
X5.3661Y-3.4371
X5.3775Y-4.5198
X5.3779Y-4.3899
X5.3811Y-4.0655
X5.3831Y-3.6871
X5.4016Y-3.4371
X5.4031Y-3.8836
X5.406Y-3.7094
X5.4134Y-3.6379
X5.4134Y-4.3348
X5.4189Y-4.1289
X5.4228Y-3.8588
X5.4291Y-4.3899
X5.4358Y-3.6745
X5.4547Y-3.858
X5.4794Y-4.0159
X5.489Y-3.9789
X5.4921Y-4.4489
X5.5108Y-4.0057
X5.5205Y-4.2387
X5.5275Y-4.4135
X5.5327Y-3.8977
X5.536Y-3.824
X5.537Y-3.7115
X5.5386Y-4.2088
X5.5394Y-4.5198
X5.5419Y-3.9511
X5.5472Y-4.3623
X5.5512Y-4.2796
X5.5512Y-4.323
X5.5531Y-3.9812
X5.5535Y-4.3938
X5.566Y-3.8586
X5.5776Y-3.4386
X5.5779Y-3.9198
X5.5779Y-4.4828
X5.5866Y-3.6694
X5.593Y-3.8336
X5.609Y-3.9308
X5.613Y-3.4438
X5.6138Y-3.9624
X5.6181Y-3.6852
X5.62Y-3.5887
X5.6496Y-4.0513
X5.6547Y-3.7681
X5.689Y-3.6895
X5.702Y-3.4407
X5.7205Y-3.6655
X5.7401Y-3.7643
X5.7539Y-3.6623
X5.7563Y-3.4363
X5.7649Y-3.9182
X5.7673Y-3.8859
X5.7705Y-3.8545
X5.7795Y-3.7041
X5.7947Y-3.7634
X5.8063Y-3.4135
X5.8079Y-3.9552
X5.811Y-3.7151
X5.8212Y-3.8057
X5.8268Y-4.3958
X5.8295Y-4.5304
X5.8331Y-4.4517
X5.8346Y-4.1379
X5.8464Y-3.8781
X5.8464Y-3.9175
X5.8468Y-3.7202
X5.8492Y-3.5143
X5.8571Y-4.5478
X5.8622Y-4.0001
X5.8661Y-3.8978
X5.8661Y-4.1497
X5.8858Y-3.8781
X5.8858Y-3.9175
X5.9059Y-3.7541
X5.9087Y-3.8218
X5.9094Y-3.4135
X5.9409Y-4.071
X5.9449Y-3.4214
X5.9646Y-4.4214
X5.9685Y-3.6104
X5.9724Y-3.8269
X6.0142Y-4.2462
X6.0209Y-4.4277
X6.0264Y-4.4883
X6.0275Y-3.4214
X6.0512Y-3.3978
X6.059Y-4.2836
X6.063Y-4.2521
X6.0669Y-4.3663
X6.0669Y-4.4056
X6.0709Y-4.319
X6.0732Y-3.6291
X6.0827Y-3.4056
X6.0945Y-3.9462
X6.0945Y-3.9844
X6.1193Y-3.4122
T2
X4.9593Y-3.5709
X5.0093Y-3.5709
X5.0459Y-3.7515
X5.0459Y-3.8015
X5.0459Y-3.8515
X5.0459Y-3.9015
X5.0459Y-3.9515
X5.0459Y-4.0015
X5.0459Y-4.0515
X5.0459Y-4.1015
X5.0459Y-4.1515
X5.0459Y-4.2015
X5.0959Y-3.7515
X5.0959Y-3.8015
X5.0959Y-3.8515
X5.0959Y-3.9015
X5.0959Y-3.9515
X5.0959Y-4.0015
X5.0959Y-4.0515
X5.0959Y-4.1015
X5.0959Y-4.1515
X5.0959Y-4.2015
X5.4002Y-4.193
X5.4502Y-4.193
X5.7033Y-4.1143
X5.7033Y-4.2324
X5.7033Y-4.3505
X5.7033Y-4.4686
X5.7533Y-4.1143
X5.7533Y-4.2324
X5.7533Y-4.3505
X5.7533Y-4.4686
T3
X6.0118Y-3.8406
X6.0118Y-3.8996
X6.0197Y-4.1497
T4
X4.8425Y-3.3072
X4.8425Y-4.6458
X6.1811Y-3.3072
X6.1811Y-4.6458
T0
M30
