%TF.GenerationSoftware,KiCad,Pcbnew,5.1.10-88a1d61d58~90~ubuntu20.04.1*%
%TF.CreationDate,2021-08-22T20:49:51-06:00*%
%TF.ProjectId,Crazyflie contol board,4372617a-7966-46c6-9965-20636f6e746f,F*%
%TF.SameCoordinates,PX85839e8PY6052f5c*%
%TF.FileFunction,Profile,NP*%
%FSLAX46Y46*%
G04 Gerber Fmt 4.6, Leading zero omitted, Abs format (unit mm)*
G04 Created by KiCad (PCBNEW 5.1.10-88a1d61d58~90~ubuntu20.04.1) date 2021-08-22 20:49:51*
%MOMM*%
%LPD*%
G01*
G04 APERTURE LIST*
%ADD10C,0.020000*%
%ADD11C,0.150000*%
%ADD12C,0.300000*%
%ADD13C,0.400000*%
%TA.AperFunction,Profile*%
%ADD14C,0.200660*%
%TD*%
%TA.AperFunction,Profile*%
%ADD15C,0.200000*%
%TD*%
G04 APERTURE END LIST*
D10*
D11*
X37002480Y-65004100D02*
X37002480Y-97004100D01*
X145002480Y-97004100D01*
X145002480Y-65004100D01*
X37002480Y-65004100D01*
D10*
D11*
X-129999720Y91003100D02*
X-129999720Y-99004100D01*
X147002480Y-99004100D01*
X147002480Y91003100D01*
X-129999720Y91003100D01*
D10*
D11*
X-127999720Y89003100D02*
X-127999720Y-97004100D01*
X145002480Y-97004100D01*
X145002480Y89003100D01*
X-127999720Y89003100D01*
D10*
D11*
X-79999720Y89003100D02*
X-79999720Y91003100D01*
D10*
D11*
X-29999720Y89003100D02*
X-29999720Y91003100D01*
D10*
D11*
X20000280Y89003100D02*
X20000280Y91003100D01*
D10*
D11*
X70000280Y89003100D02*
X70000280Y91003100D01*
D10*
D11*
X120000280Y89003100D02*
X120000280Y91003100D01*
D10*
D11*
X-103934244Y89415005D02*
X-104677101Y89415005D01*
X-104305673Y89415005D02*
X-104305673Y90715005D01*
X-104429482Y90529291D01*
X-104553292Y90405481D01*
X-104677101Y90343577D01*
D10*
D11*
X-54677101Y90591196D02*
X-54615197Y90653100D01*
X-54491387Y90715005D01*
X-54181863Y90715005D01*
X-54058054Y90653100D01*
X-53996149Y90591196D01*
X-53934244Y90467386D01*
X-53934244Y90343577D01*
X-53996149Y90157862D01*
X-54739006Y89415005D01*
X-53934244Y89415005D01*
D10*
D11*
X-4739006Y90715005D02*
X-3934244Y90715005D01*
X-4367578Y90219767D01*
X-4181863Y90219767D01*
X-4058054Y90157862D01*
X-3996149Y90095958D01*
X-3934244Y89972148D01*
X-3934244Y89662624D01*
X-3996149Y89538815D01*
X-4058054Y89476910D01*
X-4181863Y89415005D01*
X-4553292Y89415005D01*
X-4677101Y89476910D01*
X-4739006Y89538815D01*
D10*
D11*
X45941946Y90281672D02*
X45941946Y89415005D01*
X45632422Y90776910D02*
X45322899Y89848339D01*
X46127660Y89848339D01*
D10*
D11*
X96003851Y90715005D02*
X95384803Y90715005D01*
X95322899Y90095958D01*
X95384803Y90157862D01*
X95508613Y90219767D01*
X95818137Y90219767D01*
X95941946Y90157862D01*
X96003851Y90095958D01*
X96065756Y89972148D01*
X96065756Y89662624D01*
X96003851Y89538815D01*
X95941946Y89476910D01*
X95818137Y89415005D01*
X95508613Y89415005D01*
X95384803Y89476910D01*
X95322899Y89538815D01*
D10*
D11*
X145941946Y90715005D02*
X145694327Y90715005D01*
X145570518Y90653100D01*
X145508613Y90591196D01*
X145384803Y90405481D01*
X145322899Y90157862D01*
X145322899Y89662624D01*
X145384803Y89538815D01*
X145446708Y89476910D01*
X145570518Y89415005D01*
X145818137Y89415005D01*
X145941946Y89476910D01*
X146003851Y89538815D01*
X146065756Y89662624D01*
X146065756Y89972148D01*
X146003851Y90095958D01*
X145941946Y90157862D01*
X145818137Y90219767D01*
X145570518Y90219767D01*
X145446708Y90157862D01*
X145384803Y90095958D01*
X145322899Y89972148D01*
D10*
D11*
X-79999720Y-97004100D02*
X-79999720Y-99004100D01*
D10*
D11*
X-29999720Y-97004100D02*
X-29999720Y-99004100D01*
D10*
D11*
X20000280Y-97004100D02*
X20000280Y-99004100D01*
D10*
D11*
X70000280Y-97004100D02*
X70000280Y-99004100D01*
D10*
D11*
X120000280Y-97004100D02*
X120000280Y-99004100D01*
D10*
D11*
X-103934244Y-98592195D02*
X-104677101Y-98592195D01*
X-104305673Y-98592195D02*
X-104305673Y-97292195D01*
X-104429482Y-97477909D01*
X-104553292Y-97601719D01*
X-104677101Y-97663623D01*
D10*
D11*
X-54677101Y-97416004D02*
X-54615197Y-97354100D01*
X-54491387Y-97292195D01*
X-54181863Y-97292195D01*
X-54058054Y-97354100D01*
X-53996149Y-97416004D01*
X-53934244Y-97539814D01*
X-53934244Y-97663623D01*
X-53996149Y-97849338D01*
X-54739006Y-98592195D01*
X-53934244Y-98592195D01*
D10*
D11*
X-4739006Y-97292195D02*
X-3934244Y-97292195D01*
X-4367578Y-97787433D01*
X-4181863Y-97787433D01*
X-4058054Y-97849338D01*
X-3996149Y-97911242D01*
X-3934244Y-98035052D01*
X-3934244Y-98344576D01*
X-3996149Y-98468385D01*
X-4058054Y-98530290D01*
X-4181863Y-98592195D01*
X-4553292Y-98592195D01*
X-4677101Y-98530290D01*
X-4739006Y-98468385D01*
D10*
D11*
X45941946Y-97725528D02*
X45941946Y-98592195D01*
X45632422Y-97230290D02*
X45322899Y-98158861D01*
X46127660Y-98158861D01*
D10*
D11*
X96003851Y-97292195D02*
X95384803Y-97292195D01*
X95322899Y-97911242D01*
X95384803Y-97849338D01*
X95508613Y-97787433D01*
X95818137Y-97787433D01*
X95941946Y-97849338D01*
X96003851Y-97911242D01*
X96065756Y-98035052D01*
X96065756Y-98344576D01*
X96003851Y-98468385D01*
X95941946Y-98530290D01*
X95818137Y-98592195D01*
X95508613Y-98592195D01*
X95384803Y-98530290D01*
X95322899Y-98468385D01*
D10*
D11*
X145941946Y-97292195D02*
X145694327Y-97292195D01*
X145570518Y-97354100D01*
X145508613Y-97416004D01*
X145384803Y-97601719D01*
X145322899Y-97849338D01*
X145322899Y-98344576D01*
X145384803Y-98468385D01*
X145446708Y-98530290D01*
X145570518Y-98592195D01*
X145818137Y-98592195D01*
X145941946Y-98530290D01*
X146003851Y-98468385D01*
X146065756Y-98344576D01*
X146065756Y-98035052D01*
X146003851Y-97911242D01*
X145941946Y-97849338D01*
X145818137Y-97787433D01*
X145570518Y-97787433D01*
X145446708Y-97849338D01*
X145384803Y-97911242D01*
X145322899Y-98035052D01*
D10*
D11*
X-129999720Y41003100D02*
X-127999720Y41003100D01*
D10*
D11*
X-129999720Y-8996900D02*
X-127999720Y-8996900D01*
D10*
D11*
X-129999720Y-58996900D02*
X-127999720Y-58996900D01*
D10*
D11*
X-129309244Y65786434D02*
X-128690197Y65786434D01*
X-129433054Y65415005D02*
X-128999720Y66715005D01*
X-128566387Y65415005D01*
D10*
D11*
X-128906863Y16095958D02*
X-128721149Y16034053D01*
X-128659244Y15972148D01*
X-128597340Y15848339D01*
X-128597340Y15662624D01*
X-128659244Y15538815D01*
X-128721149Y15476910D01*
X-128844959Y15415005D01*
X-129340197Y15415005D01*
X-129340197Y16715005D01*
X-128906863Y16715005D01*
X-128783054Y16653100D01*
X-128721149Y16591196D01*
X-128659244Y16467386D01*
X-128659244Y16343577D01*
X-128721149Y16219767D01*
X-128783054Y16157862D01*
X-128906863Y16095958D01*
X-129340197Y16095958D01*
D10*
D11*
X-128597340Y-34461185D02*
X-128659244Y-34523090D01*
X-128844959Y-34584995D01*
X-128968768Y-34584995D01*
X-129154482Y-34523090D01*
X-129278292Y-34399280D01*
X-129340197Y-34275471D01*
X-129402101Y-34027852D01*
X-129402101Y-33842138D01*
X-129340197Y-33594519D01*
X-129278292Y-33470709D01*
X-129154482Y-33346900D01*
X-128968768Y-33284995D01*
X-128844959Y-33284995D01*
X-128659244Y-33346900D01*
X-128597340Y-33408804D01*
D10*
D11*
X-129340197Y-84584995D02*
X-129340197Y-83284995D01*
X-129030673Y-83284995D01*
X-128844959Y-83346900D01*
X-128721149Y-83470709D01*
X-128659244Y-83594519D01*
X-128597340Y-83842138D01*
X-128597340Y-84027852D01*
X-128659244Y-84275471D01*
X-128721149Y-84399280D01*
X-128844959Y-84523090D01*
X-129030673Y-84584995D01*
X-129340197Y-84584995D01*
D10*
D11*
X147002480Y41003100D02*
X145002480Y41003100D01*
D10*
D11*
X147002480Y-8996900D02*
X145002480Y-8996900D01*
D10*
D11*
X147002480Y-58996900D02*
X145002480Y-58996900D01*
D10*
D11*
X145692956Y65786434D02*
X146312003Y65786434D01*
X145569146Y65415005D02*
X146002480Y66715005D01*
X146435813Y65415005D01*
D10*
D11*
X146095337Y16095958D02*
X146281051Y16034053D01*
X146342956Y15972148D01*
X146404860Y15848339D01*
X146404860Y15662624D01*
X146342956Y15538815D01*
X146281051Y15476910D01*
X146157241Y15415005D01*
X145662003Y15415005D01*
X145662003Y16715005D01*
X146095337Y16715005D01*
X146219146Y16653100D01*
X146281051Y16591196D01*
X146342956Y16467386D01*
X146342956Y16343577D01*
X146281051Y16219767D01*
X146219146Y16157862D01*
X146095337Y16095958D01*
X145662003Y16095958D01*
D10*
D11*
X146404860Y-34461185D02*
X146342956Y-34523090D01*
X146157241Y-34584995D01*
X146033432Y-34584995D01*
X145847718Y-34523090D01*
X145723908Y-34399280D01*
X145662003Y-34275471D01*
X145600099Y-34027852D01*
X145600099Y-33842138D01*
X145662003Y-33594519D01*
X145723908Y-33470709D01*
X145847718Y-33346900D01*
X146033432Y-33284995D01*
X146157241Y-33284995D01*
X146342956Y-33346900D01*
X146404860Y-33408804D01*
D10*
D11*
X145662003Y-84584995D02*
X145662003Y-83284995D01*
X145971527Y-83284995D01*
X146157241Y-83346900D01*
X146281051Y-83470709D01*
X146342956Y-83594519D01*
X146404860Y-83842138D01*
X146404860Y-84027852D01*
X146342956Y-84275471D01*
X146281051Y-84399280D01*
X146157241Y-84523090D01*
X145971527Y-84584995D01*
X145662003Y-84584995D01*
D10*
D11*
X60434622Y-92782671D02*
X60434622Y-91282671D01*
X60791765Y-91282671D01*
X61006051Y-91354100D01*
X61148908Y-91496957D01*
X61220337Y-91639814D01*
X61291765Y-91925528D01*
X61291765Y-92139814D01*
X61220337Y-92425528D01*
X61148908Y-92568385D01*
X61006051Y-92711242D01*
X60791765Y-92782671D01*
X60434622Y-92782671D01*
X62577480Y-92782671D02*
X62577480Y-91996957D01*
X62506051Y-91854100D01*
X62363194Y-91782671D01*
X62077480Y-91782671D01*
X61934622Y-91854100D01*
X62577480Y-92711242D02*
X62434622Y-92782671D01*
X62077480Y-92782671D01*
X61934622Y-92711242D01*
X61863194Y-92568385D01*
X61863194Y-92425528D01*
X61934622Y-92282671D01*
X62077480Y-92211242D01*
X62434622Y-92211242D01*
X62577480Y-92139814D01*
X63077480Y-91782671D02*
X63648908Y-91782671D01*
X63291765Y-91282671D02*
X63291765Y-92568385D01*
X63363194Y-92711242D01*
X63506051Y-92782671D01*
X63648908Y-92782671D01*
X64720337Y-92711242D02*
X64577480Y-92782671D01*
X64291765Y-92782671D01*
X64148908Y-92711242D01*
X64077480Y-92568385D01*
X64077480Y-91996957D01*
X64148908Y-91854100D01*
X64291765Y-91782671D01*
X64577480Y-91782671D01*
X64720337Y-91854100D01*
X64791765Y-91996957D01*
X64791765Y-92139814D01*
X64077480Y-92282671D01*
X65434622Y-92639814D02*
X65506051Y-92711242D01*
X65434622Y-92782671D01*
X65363194Y-92711242D01*
X65434622Y-92639814D01*
X65434622Y-92782671D01*
X65434622Y-91854100D02*
X65506051Y-91925528D01*
X65434622Y-91996957D01*
X65363194Y-91925528D01*
X65434622Y-91854100D01*
X65434622Y-91996957D01*
X67220337Y-91425528D02*
X67291765Y-91354100D01*
X67434622Y-91282671D01*
X67791765Y-91282671D01*
X67934622Y-91354100D01*
X68006051Y-91425528D01*
X68077480Y-91568385D01*
X68077480Y-91711242D01*
X68006051Y-91925528D01*
X67148908Y-92782671D01*
X68077480Y-92782671D01*
X69006051Y-91282671D02*
X69148908Y-91282671D01*
X69291765Y-91354100D01*
X69363194Y-91425528D01*
X69434622Y-91568385D01*
X69506051Y-91854100D01*
X69506051Y-92211242D01*
X69434622Y-92496957D01*
X69363194Y-92639814D01*
X69291765Y-92711242D01*
X69148908Y-92782671D01*
X69006051Y-92782671D01*
X68863194Y-92711242D01*
X68791765Y-92639814D01*
X68720337Y-92496957D01*
X68648908Y-92211242D01*
X68648908Y-91854100D01*
X68720337Y-91568385D01*
X68791765Y-91425528D01*
X68863194Y-91354100D01*
X69006051Y-91282671D01*
X70077480Y-91425528D02*
X70148908Y-91354100D01*
X70291765Y-91282671D01*
X70648908Y-91282671D01*
X70791765Y-91354100D01*
X70863194Y-91425528D01*
X70934622Y-91568385D01*
X70934622Y-91711242D01*
X70863194Y-91925528D01*
X70006051Y-92782671D01*
X70934622Y-92782671D01*
X72363194Y-92782671D02*
X71506051Y-92782671D01*
X71934622Y-92782671D02*
X71934622Y-91282671D01*
X71791765Y-91496957D01*
X71648908Y-91639814D01*
X71506051Y-91711242D01*
X73006051Y-92211242D02*
X74148908Y-92211242D01*
X75148908Y-91282671D02*
X75291765Y-91282671D01*
X75434622Y-91354100D01*
X75506051Y-91425528D01*
X75577480Y-91568385D01*
X75648908Y-91854100D01*
X75648908Y-92211242D01*
X75577480Y-92496957D01*
X75506051Y-92639814D01*
X75434622Y-92711242D01*
X75291765Y-92782671D01*
X75148908Y-92782671D01*
X75006051Y-92711242D01*
X74934622Y-92639814D01*
X74863194Y-92496957D01*
X74791765Y-92211242D01*
X74791765Y-91854100D01*
X74863194Y-91568385D01*
X74934622Y-91425528D01*
X75006051Y-91354100D01*
X75148908Y-91282671D01*
X76506051Y-91925528D02*
X76363194Y-91854100D01*
X76291765Y-91782671D01*
X76220337Y-91639814D01*
X76220337Y-91568385D01*
X76291765Y-91425528D01*
X76363194Y-91354100D01*
X76506051Y-91282671D01*
X76791765Y-91282671D01*
X76934622Y-91354100D01*
X77006051Y-91425528D01*
X77077480Y-91568385D01*
X77077480Y-91639814D01*
X77006051Y-91782671D01*
X76934622Y-91854100D01*
X76791765Y-91925528D01*
X76506051Y-91925528D01*
X76363194Y-91996957D01*
X76291765Y-92068385D01*
X76220337Y-92211242D01*
X76220337Y-92496957D01*
X76291765Y-92639814D01*
X76363194Y-92711242D01*
X76506051Y-92782671D01*
X76791765Y-92782671D01*
X76934622Y-92711242D01*
X77006051Y-92639814D01*
X77077480Y-92496957D01*
X77077480Y-92211242D01*
X77006051Y-92068385D01*
X76934622Y-91996957D01*
X76791765Y-91925528D01*
X77720337Y-92211242D02*
X78863194Y-92211242D01*
X79863194Y-91282671D02*
X80006051Y-91282671D01*
X80148908Y-91354100D01*
X80220337Y-91425528D01*
X80291765Y-91568385D01*
X80363194Y-91854100D01*
X80363194Y-92211242D01*
X80291765Y-92496957D01*
X80220337Y-92639814D01*
X80148908Y-92711242D01*
X80006051Y-92782671D01*
X79863194Y-92782671D01*
X79720337Y-92711242D01*
X79648908Y-92639814D01*
X79577480Y-92496957D01*
X79506051Y-92211242D01*
X79506051Y-91854100D01*
X79577480Y-91568385D01*
X79648908Y-91425528D01*
X79720337Y-91354100D01*
X79863194Y-91282671D01*
X81077480Y-92782671D02*
X81363194Y-92782671D01*
X81506051Y-92711242D01*
X81577480Y-92639814D01*
X81720337Y-92425528D01*
X81791765Y-92139814D01*
X81791765Y-91568385D01*
X81720337Y-91425528D01*
X81648908Y-91354100D01*
X81506051Y-91282671D01*
X81220337Y-91282671D01*
X81077480Y-91354100D01*
X81006051Y-91425528D01*
X80934622Y-91568385D01*
X80934622Y-91925528D01*
X81006051Y-92068385D01*
X81077480Y-92139814D01*
X81220337Y-92211242D01*
X81506051Y-92211242D01*
X81648908Y-92139814D01*
X81720337Y-92068385D01*
X81791765Y-91925528D01*
D10*
D11*
X37002480Y-93504100D02*
X145002480Y-93504100D01*
D10*
D11*
X38434622Y-95582671D02*
X38434622Y-94082671D01*
X39291765Y-95582671D02*
X38648908Y-94725528D01*
X39291765Y-94082671D02*
X38434622Y-94939814D01*
X39934622Y-95582671D02*
X39934622Y-94582671D01*
X39934622Y-94082671D02*
X39863194Y-94154100D01*
X39934622Y-94225528D01*
X40006051Y-94154100D01*
X39934622Y-94082671D01*
X39934622Y-94225528D01*
X41506051Y-95439814D02*
X41434622Y-95511242D01*
X41220337Y-95582671D01*
X41077480Y-95582671D01*
X40863194Y-95511242D01*
X40720337Y-95368385D01*
X40648908Y-95225528D01*
X40577480Y-94939814D01*
X40577480Y-94725528D01*
X40648908Y-94439814D01*
X40720337Y-94296957D01*
X40863194Y-94154100D01*
X41077480Y-94082671D01*
X41220337Y-94082671D01*
X41434622Y-94154100D01*
X41506051Y-94225528D01*
X42791765Y-95582671D02*
X42791765Y-94796957D01*
X42720337Y-94654100D01*
X42577480Y-94582671D01*
X42291765Y-94582671D01*
X42148908Y-94654100D01*
X42791765Y-95511242D02*
X42648908Y-95582671D01*
X42291765Y-95582671D01*
X42148908Y-95511242D01*
X42077480Y-95368385D01*
X42077480Y-95225528D01*
X42148908Y-95082671D01*
X42291765Y-95011242D01*
X42648908Y-95011242D01*
X42791765Y-94939814D01*
X44148908Y-95582671D02*
X44148908Y-94082671D01*
X44148908Y-95511242D02*
X44006051Y-95582671D01*
X43720337Y-95582671D01*
X43577480Y-95511242D01*
X43506051Y-95439814D01*
X43434622Y-95296957D01*
X43434622Y-94868385D01*
X43506051Y-94725528D01*
X43577480Y-94654100D01*
X43720337Y-94582671D01*
X44006051Y-94582671D01*
X44148908Y-94654100D01*
X46006051Y-94796957D02*
X46506051Y-94796957D01*
X46720337Y-95582671D02*
X46006051Y-95582671D01*
X46006051Y-94082671D01*
X46720337Y-94082671D01*
X47363194Y-95439814D02*
X47434622Y-95511242D01*
X47363194Y-95582671D01*
X47291765Y-95511242D01*
X47363194Y-95439814D01*
X47363194Y-95582671D01*
X48077480Y-95582671D02*
X48077480Y-94082671D01*
X48434622Y-94082671D01*
X48648908Y-94154100D01*
X48791765Y-94296957D01*
X48863194Y-94439814D01*
X48934622Y-94725528D01*
X48934622Y-94939814D01*
X48863194Y-95225528D01*
X48791765Y-95368385D01*
X48648908Y-95511242D01*
X48434622Y-95582671D01*
X48077480Y-95582671D01*
X49577480Y-95439814D02*
X49648908Y-95511242D01*
X49577480Y-95582671D01*
X49506051Y-95511242D01*
X49577480Y-95439814D01*
X49577480Y-95582671D01*
X50220337Y-95154100D02*
X50934622Y-95154100D01*
X50077480Y-95582671D02*
X50577480Y-94082671D01*
X51077480Y-95582671D01*
X51577480Y-95439814D02*
X51648908Y-95511242D01*
X51577480Y-95582671D01*
X51506051Y-95511242D01*
X51577480Y-95439814D01*
X51577480Y-95582671D01*
X54577480Y-95582671D02*
X54577480Y-94082671D01*
X54720337Y-95011242D02*
X55148908Y-95582671D01*
X55148908Y-94582671D02*
X54577480Y-95154100D01*
X55791765Y-95582671D02*
X55791765Y-94582671D01*
X55791765Y-94082671D02*
X55720337Y-94154100D01*
X55791765Y-94225528D01*
X55863194Y-94154100D01*
X55791765Y-94082671D01*
X55791765Y-94225528D01*
X57148908Y-95511242D02*
X57006051Y-95582671D01*
X56720337Y-95582671D01*
X56577480Y-95511242D01*
X56506051Y-95439814D01*
X56434622Y-95296957D01*
X56434622Y-94868385D01*
X56506051Y-94725528D01*
X56577480Y-94654100D01*
X56720337Y-94582671D01*
X57006051Y-94582671D01*
X57148908Y-94654100D01*
X58434622Y-95582671D02*
X58434622Y-94796957D01*
X58363194Y-94654100D01*
X58220337Y-94582671D01*
X57934622Y-94582671D01*
X57791765Y-94654100D01*
X58434622Y-95511242D02*
X58291765Y-95582671D01*
X57934622Y-95582671D01*
X57791765Y-95511242D01*
X57720337Y-95368385D01*
X57720337Y-95225528D01*
X57791765Y-95082671D01*
X57934622Y-95011242D01*
X58291765Y-95011242D01*
X58434622Y-94939814D01*
X59791765Y-95582671D02*
X59791765Y-94082671D01*
X59791765Y-95511242D02*
X59648908Y-95582671D01*
X59363194Y-95582671D01*
X59220337Y-95511242D01*
X59148908Y-95439814D01*
X59077480Y-95296957D01*
X59077480Y-94868385D01*
X59148908Y-94725528D01*
X59220337Y-94654100D01*
X59363194Y-94582671D01*
X59648908Y-94582671D01*
X59791765Y-94654100D01*
X62363194Y-94082671D02*
X61648908Y-94082671D01*
X61577480Y-94796957D01*
X61648908Y-94725528D01*
X61791765Y-94654100D01*
X62148908Y-94654100D01*
X62291765Y-94725528D01*
X62363194Y-94796957D01*
X62434622Y-94939814D01*
X62434622Y-95296957D01*
X62363194Y-95439814D01*
X62291765Y-95511242D01*
X62148908Y-95582671D01*
X61791765Y-95582671D01*
X61648908Y-95511242D01*
X61577480Y-95439814D01*
X63077480Y-95439814D02*
X63148908Y-95511242D01*
X63077480Y-95582671D01*
X63006051Y-95511242D01*
X63077480Y-95439814D01*
X63077480Y-95582671D01*
X64577480Y-95582671D02*
X63720337Y-95582671D01*
X64148908Y-95582671D02*
X64148908Y-94082671D01*
X64006051Y-94296957D01*
X63863194Y-94439814D01*
X63720337Y-94511242D01*
X65220337Y-95439814D02*
X65291765Y-95511242D01*
X65220337Y-95582671D01*
X65148908Y-95511242D01*
X65220337Y-95439814D01*
X65220337Y-95582671D01*
X66720337Y-95582671D02*
X65863194Y-95582671D01*
X66291765Y-95582671D02*
X66291765Y-94082671D01*
X66148908Y-94296957D01*
X66006051Y-94439814D01*
X65863194Y-94511242D01*
X67648908Y-94082671D02*
X67791765Y-94082671D01*
X67934622Y-94154100D01*
X68006051Y-94225528D01*
X68077480Y-94368385D01*
X68148908Y-94654100D01*
X68148908Y-95011242D01*
X68077480Y-95296957D01*
X68006051Y-95439814D01*
X67934622Y-95511242D01*
X67791765Y-95582671D01*
X67648908Y-95582671D01*
X67506051Y-95511242D01*
X67434622Y-95439814D01*
X67363194Y-95296957D01*
X67291765Y-95011242D01*
X67291765Y-94654100D01*
X67363194Y-94368385D01*
X67434622Y-94225528D01*
X67506051Y-94154100D01*
X67648908Y-94082671D01*
X68791765Y-95011242D02*
X69934622Y-95011242D01*
X70863194Y-94725528D02*
X70720337Y-94654100D01*
X70648908Y-94582671D01*
X70577480Y-94439814D01*
X70577480Y-94368385D01*
X70648908Y-94225528D01*
X70720337Y-94154100D01*
X70863194Y-94082671D01*
X71148908Y-94082671D01*
X71291765Y-94154100D01*
X71363194Y-94225528D01*
X71434622Y-94368385D01*
X71434622Y-94439814D01*
X71363194Y-94582671D01*
X71291765Y-94654100D01*
X71148908Y-94725528D01*
X70863194Y-94725528D01*
X70720337Y-94796957D01*
X70648908Y-94868385D01*
X70577480Y-95011242D01*
X70577480Y-95296957D01*
X70648908Y-95439814D01*
X70720337Y-95511242D01*
X70863194Y-95582671D01*
X71148908Y-95582671D01*
X71291765Y-95511242D01*
X71363194Y-95439814D01*
X71434622Y-95296957D01*
X71434622Y-95011242D01*
X71363194Y-94868385D01*
X71291765Y-94796957D01*
X71148908Y-94725528D01*
X72291765Y-94725528D02*
X72148908Y-94654100D01*
X72077480Y-94582671D01*
X72006051Y-94439814D01*
X72006051Y-94368385D01*
X72077480Y-94225528D01*
X72148908Y-94154100D01*
X72291765Y-94082671D01*
X72577480Y-94082671D01*
X72720337Y-94154100D01*
X72791765Y-94225528D01*
X72863194Y-94368385D01*
X72863194Y-94439814D01*
X72791765Y-94582671D01*
X72720337Y-94654100D01*
X72577480Y-94725528D01*
X72291765Y-94725528D01*
X72148908Y-94796957D01*
X72077480Y-94868385D01*
X72006051Y-95011242D01*
X72006051Y-95296957D01*
X72077480Y-95439814D01*
X72148908Y-95511242D01*
X72291765Y-95582671D01*
X72577480Y-95582671D01*
X72720337Y-95511242D01*
X72791765Y-95439814D01*
X72863194Y-95296957D01*
X72863194Y-95011242D01*
X72791765Y-94868385D01*
X72720337Y-94796957D01*
X72577480Y-94725528D01*
X74148908Y-95582671D02*
X74148908Y-94796957D01*
X74077480Y-94654100D01*
X73934622Y-94582671D01*
X73648908Y-94582671D01*
X73506051Y-94654100D01*
X74148908Y-95511242D02*
X74006051Y-95582671D01*
X73648908Y-95582671D01*
X73506051Y-95511242D01*
X73434622Y-95368385D01*
X73434622Y-95225528D01*
X73506051Y-95082671D01*
X73648908Y-95011242D01*
X74006051Y-95011242D01*
X74148908Y-94939814D01*
X75648908Y-95582671D02*
X74791765Y-95582671D01*
X75220337Y-95582671D02*
X75220337Y-94082671D01*
X75077480Y-94296957D01*
X74934622Y-94439814D01*
X74791765Y-94511242D01*
X76934622Y-95582671D02*
X76934622Y-94082671D01*
X76934622Y-95511242D02*
X76791765Y-95582671D01*
X76506051Y-95582671D01*
X76363194Y-95511242D01*
X76291765Y-95439814D01*
X76220337Y-95296957D01*
X76220337Y-94868385D01*
X76291765Y-94725528D01*
X76363194Y-94654100D01*
X76506051Y-94582671D01*
X76791765Y-94582671D01*
X76934622Y-94654100D01*
X78291765Y-94082671D02*
X78006051Y-94082671D01*
X77863194Y-94154100D01*
X77791765Y-94225528D01*
X77648908Y-94439814D01*
X77577480Y-94725528D01*
X77577480Y-95296957D01*
X77648908Y-95439814D01*
X77720337Y-95511242D01*
X77863194Y-95582671D01*
X78148908Y-95582671D01*
X78291765Y-95511242D01*
X78363194Y-95439814D01*
X78434622Y-95296957D01*
X78434622Y-94939814D01*
X78363194Y-94796957D01*
X78291765Y-94725528D01*
X78148908Y-94654100D01*
X77863194Y-94654100D01*
X77720337Y-94725528D01*
X77648908Y-94796957D01*
X77577480Y-94939814D01*
X79863194Y-95582671D02*
X79006051Y-95582671D01*
X79434622Y-95582671D02*
X79434622Y-94082671D01*
X79291765Y-94296957D01*
X79148908Y-94439814D01*
X79006051Y-94511242D01*
X81148908Y-95582671D02*
X81148908Y-94082671D01*
X81148908Y-95511242D02*
X81006051Y-95582671D01*
X80720337Y-95582671D01*
X80577480Y-95511242D01*
X80506051Y-95439814D01*
X80434622Y-95296957D01*
X80434622Y-94868385D01*
X80506051Y-94725528D01*
X80577480Y-94654100D01*
X80720337Y-94582671D01*
X81006051Y-94582671D01*
X81148908Y-94654100D01*
X82577480Y-94082671D02*
X81863194Y-94082671D01*
X81791765Y-94796957D01*
X81863194Y-94725528D01*
X82006051Y-94654100D01*
X82363194Y-94654100D01*
X82506051Y-94725528D01*
X82577480Y-94796957D01*
X82648908Y-94939814D01*
X82648908Y-95296957D01*
X82577480Y-95439814D01*
X82506051Y-95511242D01*
X82363194Y-95582671D01*
X82006051Y-95582671D01*
X81863194Y-95511242D01*
X81791765Y-95439814D01*
X83506051Y-94725528D02*
X83363194Y-94654100D01*
X83291765Y-94582671D01*
X83220337Y-94439814D01*
X83220337Y-94368385D01*
X83291765Y-94225528D01*
X83363194Y-94154100D01*
X83506051Y-94082671D01*
X83791765Y-94082671D01*
X83934622Y-94154100D01*
X84006051Y-94225528D01*
X84077480Y-94368385D01*
X84077480Y-94439814D01*
X84006051Y-94582671D01*
X83934622Y-94654100D01*
X83791765Y-94725528D01*
X83506051Y-94725528D01*
X83363194Y-94796957D01*
X83291765Y-94868385D01*
X83220337Y-95011242D01*
X83220337Y-95296957D01*
X83291765Y-95439814D01*
X83363194Y-95511242D01*
X83506051Y-95582671D01*
X83791765Y-95582671D01*
X83934622Y-95511242D01*
X84006051Y-95439814D01*
X84077480Y-95296957D01*
X84077480Y-95011242D01*
X84006051Y-94868385D01*
X83934622Y-94796957D01*
X83791765Y-94725528D01*
X84363194Y-93674100D02*
X85791765Y-93674100D01*
X84791765Y-95582671D02*
X85077480Y-95582671D01*
X85220337Y-95511242D01*
X85291765Y-95439814D01*
X85434622Y-95225528D01*
X85506051Y-94939814D01*
X85506051Y-94368385D01*
X85434622Y-94225528D01*
X85363194Y-94154100D01*
X85220337Y-94082671D01*
X84934622Y-94082671D01*
X84791765Y-94154100D01*
X84720337Y-94225528D01*
X84648908Y-94368385D01*
X84648908Y-94725528D01*
X84720337Y-94868385D01*
X84791765Y-94939814D01*
X84934622Y-95011242D01*
X85220337Y-95011242D01*
X85363194Y-94939814D01*
X85434622Y-94868385D01*
X85506051Y-94725528D01*
X85791765Y-93674100D02*
X87220337Y-93674100D01*
X86434622Y-94082671D02*
X86577479Y-94082671D01*
X86720337Y-94154100D01*
X86791765Y-94225528D01*
X86863194Y-94368385D01*
X86934622Y-94654100D01*
X86934622Y-95011242D01*
X86863194Y-95296957D01*
X86791765Y-95439814D01*
X86720337Y-95511242D01*
X86577479Y-95582671D01*
X86434622Y-95582671D01*
X86291765Y-95511242D01*
X86220337Y-95439814D01*
X86148908Y-95296957D01*
X86077479Y-95011242D01*
X86077479Y-94654100D01*
X86148908Y-94368385D01*
X86220337Y-94225528D01*
X86291765Y-94154100D01*
X86434622Y-94082671D01*
X88220337Y-94582671D02*
X88220337Y-95582671D01*
X87577479Y-94582671D02*
X87577479Y-95368385D01*
X87648908Y-95511242D01*
X87791765Y-95582671D01*
X88006051Y-95582671D01*
X88148908Y-95511242D01*
X88220337Y-95439814D01*
X88934622Y-95582671D02*
X88934622Y-94082671D01*
X88934622Y-94654100D02*
X89077479Y-94582671D01*
X89363194Y-94582671D01*
X89506051Y-94654100D01*
X89577479Y-94725528D01*
X89648908Y-94868385D01*
X89648908Y-95296957D01*
X89577479Y-95439814D01*
X89506051Y-95511242D01*
X89363194Y-95582671D01*
X89077479Y-95582671D01*
X88934622Y-95511242D01*
X90934622Y-94582671D02*
X90934622Y-95582671D01*
X90291765Y-94582671D02*
X90291765Y-95368385D01*
X90363194Y-95511242D01*
X90506051Y-95582671D01*
X90720337Y-95582671D01*
X90863194Y-95511242D01*
X90934622Y-95439814D01*
X91648908Y-94582671D02*
X91648908Y-95582671D01*
X91648908Y-94725528D02*
X91720337Y-94654100D01*
X91863194Y-94582671D01*
X92077479Y-94582671D01*
X92220337Y-94654100D01*
X92291765Y-94796957D01*
X92291765Y-95582671D01*
X92791765Y-94582671D02*
X93363194Y-94582671D01*
X93006051Y-94082671D02*
X93006051Y-95368385D01*
X93077479Y-95511242D01*
X93220337Y-95582671D01*
X93363194Y-95582671D01*
X94506051Y-94582671D02*
X94506051Y-95582671D01*
X93863194Y-94582671D02*
X93863194Y-95368385D01*
X93934622Y-95511242D01*
X94077480Y-95582671D01*
X94291765Y-95582671D01*
X94434622Y-95511242D01*
X94506051Y-95439814D01*
X95148908Y-94225528D02*
X95220337Y-94154100D01*
X95363194Y-94082671D01*
X95720337Y-94082671D01*
X95863194Y-94154100D01*
X95934622Y-94225528D01*
X96006051Y-94368385D01*
X96006051Y-94511242D01*
X95934622Y-94725528D01*
X95077480Y-95582671D01*
X96006051Y-95582671D01*
X96934622Y-94082671D02*
X97077479Y-94082671D01*
X97220337Y-94154100D01*
X97291765Y-94225528D01*
X97363194Y-94368385D01*
X97434622Y-94654100D01*
X97434622Y-95011242D01*
X97363194Y-95296957D01*
X97291765Y-95439814D01*
X97220337Y-95511242D01*
X97077479Y-95582671D01*
X96934622Y-95582671D01*
X96791765Y-95511242D01*
X96720337Y-95439814D01*
X96648908Y-95296957D01*
X96577479Y-95011242D01*
X96577479Y-94654100D01*
X96648908Y-94368385D01*
X96720337Y-94225528D01*
X96791765Y-94154100D01*
X96934622Y-94082671D01*
X98077479Y-95439814D02*
X98148908Y-95511242D01*
X98077479Y-95582671D01*
X98006051Y-95511242D01*
X98077479Y-95439814D01*
X98077479Y-95582671D01*
X99077479Y-94082671D02*
X99220337Y-94082671D01*
X99363194Y-94154100D01*
X99434622Y-94225528D01*
X99506051Y-94368385D01*
X99577479Y-94654100D01*
X99577479Y-95011242D01*
X99506051Y-95296957D01*
X99434622Y-95439814D01*
X99363194Y-95511242D01*
X99220337Y-95582671D01*
X99077479Y-95582671D01*
X98934622Y-95511242D01*
X98863194Y-95439814D01*
X98791765Y-95296957D01*
X98720337Y-95011242D01*
X98720337Y-94654100D01*
X98791765Y-94368385D01*
X98863194Y-94225528D01*
X98934622Y-94154100D01*
X99077479Y-94082671D01*
X100863194Y-94582671D02*
X100863194Y-95582671D01*
X100506051Y-94011242D02*
X100148908Y-95082671D01*
X101077479Y-95082671D01*
X101648908Y-95439814D02*
X101720337Y-95511242D01*
X101648908Y-95582671D01*
X101577479Y-95511242D01*
X101648908Y-95439814D01*
X101648908Y-95582671D01*
X103148908Y-95582671D02*
X102291765Y-95582671D01*
X102720337Y-95582671D02*
X102720337Y-94082671D01*
X102577479Y-94296957D01*
X102434622Y-94439814D01*
X102291765Y-94511242D01*
D10*
D11*
X37002480Y-90504100D02*
X145002480Y-90504100D01*
D10*
D12*
X124411765Y-92782671D02*
X123911765Y-92068385D01*
X123554622Y-92782671D02*
X123554622Y-91282671D01*
X124126051Y-91282671D01*
X124268908Y-91354100D01*
X124340337Y-91425528D01*
X124411765Y-91568385D01*
X124411765Y-91782671D01*
X124340337Y-91925528D01*
X124268908Y-91996957D01*
X124126051Y-92068385D01*
X123554622Y-92068385D01*
X125626051Y-92711242D02*
X125483194Y-92782671D01*
X125197480Y-92782671D01*
X125054622Y-92711242D01*
X124983194Y-92568385D01*
X124983194Y-91996957D01*
X125054622Y-91854100D01*
X125197480Y-91782671D01*
X125483194Y-91782671D01*
X125626051Y-91854100D01*
X125697480Y-91996957D01*
X125697480Y-92139814D01*
X124983194Y-92282671D01*
X126197480Y-91782671D02*
X126554622Y-92782671D01*
X126911765Y-91782671D01*
X127483194Y-92639814D02*
X127554622Y-92711242D01*
X127483194Y-92782671D01*
X127411765Y-92711242D01*
X127483194Y-92639814D01*
X127483194Y-92782671D01*
X127483194Y-91854100D02*
X127554622Y-91925528D01*
X127483194Y-91996957D01*
X127411765Y-91925528D01*
X127483194Y-91854100D01*
X127483194Y-91996957D01*
X129840337Y-91996957D02*
X129340337Y-91996957D01*
X129340337Y-92782671D02*
X129340337Y-91282671D01*
X130054622Y-91282671D01*
D10*
D11*
X38363194Y-92711242D02*
X38577480Y-92782671D01*
X38934622Y-92782671D01*
X39077480Y-92711242D01*
X39148908Y-92639814D01*
X39220337Y-92496957D01*
X39220337Y-92354100D01*
X39148908Y-92211242D01*
X39077480Y-92139814D01*
X38934622Y-92068385D01*
X38648908Y-91996957D01*
X38506051Y-91925528D01*
X38434622Y-91854100D01*
X38363194Y-91711242D01*
X38363194Y-91568385D01*
X38434622Y-91425528D01*
X38506051Y-91354100D01*
X38648908Y-91282671D01*
X39006051Y-91282671D01*
X39220337Y-91354100D01*
X39863194Y-92782671D02*
X39863194Y-91782671D01*
X39863194Y-91282671D02*
X39791765Y-91354100D01*
X39863194Y-91425528D01*
X39934622Y-91354100D01*
X39863194Y-91282671D01*
X39863194Y-91425528D01*
X40434622Y-91782671D02*
X41220337Y-91782671D01*
X40434622Y-92782671D01*
X41220337Y-92782671D01*
X42363194Y-92711242D02*
X42220337Y-92782671D01*
X41934622Y-92782671D01*
X41791765Y-92711242D01*
X41720337Y-92568385D01*
X41720337Y-91996957D01*
X41791765Y-91854100D01*
X41934622Y-91782671D01*
X42220337Y-91782671D01*
X42363194Y-91854100D01*
X42434622Y-91996957D01*
X42434622Y-92139814D01*
X41720337Y-92282671D01*
X43077480Y-92639814D02*
X43148908Y-92711242D01*
X43077480Y-92782671D01*
X43006051Y-92711242D01*
X43077480Y-92639814D01*
X43077480Y-92782671D01*
X43077480Y-91854100D02*
X43148908Y-91925528D01*
X43077480Y-91996957D01*
X43006051Y-91925528D01*
X43077480Y-91854100D01*
X43077480Y-91996957D01*
X44863194Y-92354100D02*
X45577480Y-92354100D01*
X44720337Y-92782671D02*
X45220337Y-91282671D01*
X45720337Y-92782671D01*
X46863194Y-91782671D02*
X46863194Y-92782671D01*
X46506051Y-91211242D02*
X46148908Y-92282671D01*
X47077480Y-92282671D01*
D10*
D11*
X123434622Y-95582671D02*
X123434622Y-94082671D01*
X124791765Y-95582671D02*
X124791765Y-94082671D01*
X124791765Y-95511242D02*
X124648908Y-95582671D01*
X124363194Y-95582671D01*
X124220337Y-95511242D01*
X124148908Y-95439814D01*
X124077480Y-95296957D01*
X124077480Y-94868385D01*
X124148908Y-94725528D01*
X124220337Y-94654100D01*
X124363194Y-94582671D01*
X124648908Y-94582671D01*
X124791765Y-94654100D01*
X125506051Y-95439814D02*
X125577480Y-95511242D01*
X125506051Y-95582671D01*
X125434622Y-95511242D01*
X125506051Y-95439814D01*
X125506051Y-95582671D01*
X125506051Y-94654100D02*
X125577480Y-94725528D01*
X125506051Y-94796957D01*
X125434622Y-94725528D01*
X125506051Y-94654100D01*
X125506051Y-94796957D01*
X128148908Y-95582671D02*
X127291765Y-95582671D01*
X127720337Y-95582671D02*
X127720337Y-94082671D01*
X127577480Y-94296957D01*
X127434622Y-94439814D01*
X127291765Y-94511242D01*
X129863194Y-94011242D02*
X128577480Y-95939814D01*
X131148908Y-95582671D02*
X130291765Y-95582671D01*
X130720337Y-95582671D02*
X130720337Y-94082671D01*
X130577480Y-94296957D01*
X130434622Y-94439814D01*
X130291765Y-94511242D01*
D10*
D11*
X37002480Y-86504100D02*
X145002480Y-86504100D01*
D10*
D13*
X38714860Y-87208861D02*
X39857718Y-87208861D01*
X39036289Y-89208861D02*
X39286289Y-87208861D01*
X40274384Y-89208861D02*
X40441051Y-87875528D01*
X40524384Y-87208861D02*
X40417241Y-87304100D01*
X40500575Y-87399338D01*
X40607718Y-87304100D01*
X40524384Y-87208861D01*
X40500575Y-87399338D01*
X41107718Y-87875528D02*
X41869622Y-87875528D01*
X41476765Y-87208861D02*
X41262480Y-88923147D01*
X41333908Y-89113623D01*
X41512480Y-89208861D01*
X41702956Y-89208861D01*
X42655337Y-89208861D02*
X42476765Y-89113623D01*
X42405337Y-88923147D01*
X42619622Y-87208861D01*
X44191051Y-89113623D02*
X43988670Y-89208861D01*
X43607718Y-89208861D01*
X43429146Y-89113623D01*
X43357718Y-88923147D01*
X43452956Y-88161242D01*
X43572003Y-87970766D01*
X43774384Y-87875528D01*
X44155337Y-87875528D01*
X44333908Y-87970766D01*
X44405337Y-88161242D01*
X44381527Y-88351719D01*
X43405337Y-88542195D01*
X45155337Y-89018385D02*
X45238670Y-89113623D01*
X45131527Y-89208861D01*
X45048194Y-89113623D01*
X45155337Y-89018385D01*
X45131527Y-89208861D01*
X45286289Y-87970766D02*
X45369622Y-88066004D01*
X45262480Y-88161242D01*
X45179146Y-88066004D01*
X45286289Y-87970766D01*
X45262480Y-88161242D01*
X48774384Y-89018385D02*
X48667241Y-89113623D01*
X48369622Y-89208861D01*
X48179146Y-89208861D01*
X47905337Y-89113623D01*
X47738670Y-88923147D01*
X47667241Y-88732671D01*
X47619622Y-88351719D01*
X47655337Y-88066004D01*
X47798194Y-87685052D01*
X47917241Y-87494576D01*
X48131527Y-87304100D01*
X48429146Y-87208861D01*
X48619622Y-87208861D01*
X48893432Y-87304100D01*
X48976765Y-87399338D01*
X49607718Y-89208861D02*
X49774384Y-87875528D01*
X49726765Y-88256480D02*
X49845813Y-88066004D01*
X49952956Y-87970766D01*
X50155337Y-87875528D01*
X50345813Y-87875528D01*
X51702956Y-89208861D02*
X51833908Y-88161242D01*
X51762480Y-87970766D01*
X51583908Y-87875528D01*
X51202956Y-87875528D01*
X51000575Y-87970766D01*
X51714860Y-89113623D02*
X51512480Y-89208861D01*
X51036289Y-89208861D01*
X50857718Y-89113623D01*
X50786289Y-88923147D01*
X50810099Y-88732671D01*
X50929146Y-88542195D01*
X51131527Y-88446957D01*
X51607718Y-88446957D01*
X51810099Y-88351719D01*
X52631527Y-87875528D02*
X53679146Y-87875528D01*
X52464860Y-89208861D01*
X53512480Y-89208861D01*
X54250575Y-87875528D02*
X54560099Y-89208861D01*
X55202956Y-87875528D02*
X54560099Y-89208861D01*
X54310099Y-89685052D01*
X54202956Y-89780290D01*
X54000575Y-89875528D01*
X55679146Y-87875528D02*
X56441051Y-87875528D01*
X55798194Y-89208861D02*
X56012480Y-87494576D01*
X56131527Y-87304100D01*
X56333908Y-87208861D01*
X56524384Y-87208861D01*
X57226765Y-89208861D02*
X57048194Y-89113623D01*
X56976765Y-88923147D01*
X57191051Y-87208861D01*
X57988670Y-89208861D02*
X58155337Y-87875528D01*
X58238670Y-87208861D02*
X58131527Y-87304100D01*
X58214860Y-87399338D01*
X58322003Y-87304100D01*
X58238670Y-87208861D01*
X58214860Y-87399338D01*
X59714860Y-89113623D02*
X59512480Y-89208861D01*
X59131527Y-89208861D01*
X58952956Y-89113623D01*
X58881527Y-88923147D01*
X58976765Y-88161242D01*
X59095813Y-87970766D01*
X59298194Y-87875528D01*
X59679146Y-87875528D01*
X59857718Y-87970766D01*
X59929146Y-88161242D01*
X59905337Y-88351719D01*
X58929146Y-88542195D01*
X63048194Y-89113623D02*
X62845813Y-89208861D01*
X62464860Y-89208861D01*
X62286289Y-89113623D01*
X62202956Y-89018385D01*
X62131527Y-88827909D01*
X62202956Y-88256480D01*
X62322003Y-88066004D01*
X62429146Y-87970766D01*
X62631527Y-87875528D01*
X63012480Y-87875528D01*
X63191051Y-87970766D01*
X64179146Y-89208861D02*
X64000575Y-89113623D01*
X63917241Y-89018385D01*
X63845813Y-88827909D01*
X63917241Y-88256480D01*
X64036289Y-88066004D01*
X64143432Y-87970766D01*
X64345813Y-87875528D01*
X64631527Y-87875528D01*
X64810099Y-87970766D01*
X64893432Y-88066004D01*
X64964860Y-88256480D01*
X64893432Y-88827909D01*
X64774384Y-89018385D01*
X64667241Y-89113623D01*
X64464860Y-89208861D01*
X64179146Y-89208861D01*
X65869622Y-87875528D02*
X65702956Y-89208861D01*
X65845813Y-88066004D02*
X65952956Y-87970766D01*
X66155337Y-87875528D01*
X66441051Y-87875528D01*
X66619622Y-87970766D01*
X66691051Y-88161242D01*
X66560099Y-89208861D01*
X67393432Y-87875528D02*
X68155337Y-87875528D01*
X67762480Y-87208861D02*
X67548194Y-88923147D01*
X67619622Y-89113623D01*
X67798194Y-89208861D01*
X67988670Y-89208861D01*
X68655337Y-89208861D02*
X68822003Y-87875528D01*
X68774384Y-88256480D02*
X68893432Y-88066004D01*
X69000575Y-87970766D01*
X69202956Y-87875528D01*
X69393432Y-87875528D01*
X70179146Y-89208861D02*
X70000575Y-89113623D01*
X69917241Y-89018385D01*
X69845813Y-88827909D01*
X69917241Y-88256480D01*
X70036289Y-88066004D01*
X70143432Y-87970766D01*
X70345813Y-87875528D01*
X70631527Y-87875528D01*
X70810099Y-87970766D01*
X70893432Y-88066004D01*
X70964860Y-88256480D01*
X70893432Y-88827909D01*
X70774384Y-89018385D01*
X70667241Y-89113623D01*
X70464860Y-89208861D01*
X70179146Y-89208861D01*
X71988670Y-89208861D02*
X71810099Y-89113623D01*
X71738670Y-88923147D01*
X71952956Y-87208861D01*
X74274384Y-89208861D02*
X74524384Y-87208861D01*
X74429146Y-87970766D02*
X74631527Y-87875528D01*
X75012480Y-87875528D01*
X75191051Y-87970766D01*
X75274384Y-88066004D01*
X75345813Y-88256480D01*
X75274384Y-88827909D01*
X75155337Y-89018385D01*
X75048194Y-89113623D01*
X74845813Y-89208861D01*
X74464860Y-89208861D01*
X74286289Y-89113623D01*
X76369622Y-89208861D02*
X76191051Y-89113623D01*
X76107718Y-89018385D01*
X76036289Y-88827909D01*
X76107718Y-88256480D01*
X76226765Y-88066004D01*
X76333908Y-87970766D01*
X76536289Y-87875528D01*
X76822003Y-87875528D01*
X77000575Y-87970766D01*
X77083908Y-88066004D01*
X77155337Y-88256480D01*
X77083908Y-88827909D01*
X76964860Y-89018385D01*
X76857718Y-89113623D01*
X76655337Y-89208861D01*
X76369622Y-89208861D01*
X78750575Y-89208861D02*
X78881527Y-88161242D01*
X78810099Y-87970766D01*
X78631527Y-87875528D01*
X78250575Y-87875528D01*
X78048194Y-87970766D01*
X78762480Y-89113623D02*
X78560099Y-89208861D01*
X78083908Y-89208861D01*
X77905337Y-89113623D01*
X77833908Y-88923147D01*
X77857718Y-88732671D01*
X77976765Y-88542195D01*
X78179146Y-88446957D01*
X78655337Y-88446957D01*
X78857718Y-88351719D01*
X79702956Y-89208861D02*
X79869622Y-87875528D01*
X79822003Y-88256480D02*
X79941051Y-88066004D01*
X80048194Y-87970766D01*
X80250575Y-87875528D01*
X80441051Y-87875528D01*
X81798194Y-89208861D02*
X82048194Y-87208861D01*
X81810099Y-89113623D02*
X81607718Y-89208861D01*
X81226765Y-89208861D01*
X81048194Y-89113623D01*
X80964860Y-89018385D01*
X80893432Y-88827909D01*
X80964860Y-88256480D01*
X81083908Y-88066004D01*
X81191051Y-87970766D01*
X81393432Y-87875528D01*
X81774384Y-87875528D01*
X81952956Y-87970766D01*
D10*
D11*
X38934622Y-84596957D02*
X38434622Y-84596957D01*
X38434622Y-85382671D02*
X38434622Y-83882671D01*
X39148908Y-83882671D01*
X39720337Y-85382671D02*
X39720337Y-84382671D01*
X39720337Y-83882671D02*
X39648908Y-83954100D01*
X39720337Y-84025528D01*
X39791765Y-83954100D01*
X39720337Y-83882671D01*
X39720337Y-84025528D01*
X40648908Y-85382671D02*
X40506051Y-85311242D01*
X40434622Y-85168385D01*
X40434622Y-83882671D01*
X41791765Y-85311242D02*
X41648908Y-85382671D01*
X41363194Y-85382671D01*
X41220337Y-85311242D01*
X41148908Y-85168385D01*
X41148908Y-84596957D01*
X41220337Y-84454100D01*
X41363194Y-84382671D01*
X41648908Y-84382671D01*
X41791765Y-84454100D01*
X41863194Y-84596957D01*
X41863194Y-84739814D01*
X41148908Y-84882671D01*
X42506051Y-85239814D02*
X42577480Y-85311242D01*
X42506051Y-85382671D01*
X42434622Y-85311242D01*
X42506051Y-85239814D01*
X42506051Y-85382671D01*
X42506051Y-84454100D02*
X42577480Y-84525528D01*
X42506051Y-84596957D01*
X42434622Y-84525528D01*
X42506051Y-84454100D01*
X42506051Y-84596957D01*
X45220337Y-85239814D02*
X45148908Y-85311242D01*
X44934622Y-85382671D01*
X44791765Y-85382671D01*
X44577480Y-85311242D01*
X44434622Y-85168385D01*
X44363194Y-85025528D01*
X44291765Y-84739814D01*
X44291765Y-84525528D01*
X44363194Y-84239814D01*
X44434622Y-84096957D01*
X44577480Y-83954100D01*
X44791765Y-83882671D01*
X44934622Y-83882671D01*
X45148908Y-83954100D01*
X45220337Y-84025528D01*
X45863194Y-85382671D02*
X45863194Y-84382671D01*
X45863194Y-84668385D02*
X45934622Y-84525528D01*
X46006051Y-84454100D01*
X46148908Y-84382671D01*
X46291765Y-84382671D01*
X47434622Y-85382671D02*
X47434622Y-84596957D01*
X47363194Y-84454100D01*
X47220337Y-84382671D01*
X46934622Y-84382671D01*
X46791765Y-84454100D01*
X47434622Y-85311242D02*
X47291765Y-85382671D01*
X46934622Y-85382671D01*
X46791765Y-85311242D01*
X46720337Y-85168385D01*
X46720337Y-85025528D01*
X46791765Y-84882671D01*
X46934622Y-84811242D01*
X47291765Y-84811242D01*
X47434622Y-84739814D01*
X48006051Y-84382671D02*
X48791765Y-84382671D01*
X48006051Y-85382671D01*
X48791765Y-85382671D01*
X49220337Y-84382671D02*
X49577480Y-85382671D01*
X49934622Y-84382671D02*
X49577480Y-85382671D01*
X49434622Y-85739814D01*
X49363194Y-85811242D01*
X49220337Y-85882671D01*
X50291765Y-84382671D02*
X50863194Y-84382671D01*
X50506051Y-85382671D02*
X50506051Y-84096957D01*
X50577480Y-83954100D01*
X50720337Y-83882671D01*
X50863194Y-83882671D01*
X51577480Y-85382671D02*
X51434622Y-85311242D01*
X51363194Y-85168385D01*
X51363194Y-83882671D01*
X52148908Y-85382671D02*
X52148908Y-84382671D01*
X52148908Y-83882671D02*
X52077480Y-83954100D01*
X52148908Y-84025528D01*
X52220337Y-83954100D01*
X52148908Y-83882671D01*
X52148908Y-84025528D01*
X53434622Y-85311242D02*
X53291765Y-85382671D01*
X53006051Y-85382671D01*
X52863194Y-85311242D01*
X52791765Y-85168385D01*
X52791765Y-84596957D01*
X52863194Y-84454100D01*
X53006051Y-84382671D01*
X53291765Y-84382671D01*
X53434622Y-84454100D01*
X53506051Y-84596957D01*
X53506051Y-84739814D01*
X52791765Y-84882671D01*
X55934622Y-85311242D02*
X55791765Y-85382671D01*
X55506051Y-85382671D01*
X55363194Y-85311242D01*
X55291765Y-85239814D01*
X55220337Y-85096957D01*
X55220337Y-84668385D01*
X55291765Y-84525528D01*
X55363194Y-84454100D01*
X55506051Y-84382671D01*
X55791765Y-84382671D01*
X55934622Y-84454100D01*
X56791765Y-85382671D02*
X56648908Y-85311242D01*
X56577480Y-85239814D01*
X56506051Y-85096957D01*
X56506051Y-84668385D01*
X56577480Y-84525528D01*
X56648908Y-84454100D01*
X56791765Y-84382671D01*
X57006051Y-84382671D01*
X57148908Y-84454100D01*
X57220337Y-84525528D01*
X57291765Y-84668385D01*
X57291765Y-85096957D01*
X57220337Y-85239814D01*
X57148908Y-85311242D01*
X57006051Y-85382671D01*
X56791765Y-85382671D01*
X57934622Y-84382671D02*
X57934622Y-85382671D01*
X57934622Y-84525528D02*
X58006051Y-84454100D01*
X58148908Y-84382671D01*
X58363194Y-84382671D01*
X58506051Y-84454100D01*
X58577480Y-84596957D01*
X58577480Y-85382671D01*
X59077480Y-84382671D02*
X59648908Y-84382671D01*
X59291765Y-83882671D02*
X59291765Y-85168385D01*
X59363194Y-85311242D01*
X59506051Y-85382671D01*
X59648908Y-85382671D01*
X60363194Y-85382671D02*
X60220337Y-85311242D01*
X60148908Y-85239814D01*
X60077480Y-85096957D01*
X60077480Y-84668385D01*
X60148908Y-84525528D01*
X60220337Y-84454100D01*
X60363194Y-84382671D01*
X60577480Y-84382671D01*
X60720337Y-84454100D01*
X60791765Y-84525528D01*
X60863194Y-84668385D01*
X60863194Y-85096957D01*
X60791765Y-85239814D01*
X60720337Y-85311242D01*
X60577480Y-85382671D01*
X60363194Y-85382671D01*
X61720337Y-85382671D02*
X61577480Y-85311242D01*
X61506051Y-85168385D01*
X61506051Y-83882671D01*
X63434622Y-85382671D02*
X63434622Y-83882671D01*
X63434622Y-84454100D02*
X63577480Y-84382671D01*
X63863194Y-84382671D01*
X64006051Y-84454100D01*
X64077480Y-84525528D01*
X64148908Y-84668385D01*
X64148908Y-85096957D01*
X64077480Y-85239814D01*
X64006051Y-85311242D01*
X63863194Y-85382671D01*
X63577480Y-85382671D01*
X63434622Y-85311242D01*
X65006051Y-85382671D02*
X64863194Y-85311242D01*
X64791765Y-85239814D01*
X64720337Y-85096957D01*
X64720337Y-84668385D01*
X64791765Y-84525528D01*
X64863194Y-84454100D01*
X65006051Y-84382671D01*
X65220337Y-84382671D01*
X65363194Y-84454100D01*
X65434622Y-84525528D01*
X65506051Y-84668385D01*
X65506051Y-85096957D01*
X65434622Y-85239814D01*
X65363194Y-85311242D01*
X65220337Y-85382671D01*
X65006051Y-85382671D01*
X66791765Y-85382671D02*
X66791765Y-84596957D01*
X66720337Y-84454100D01*
X66577480Y-84382671D01*
X66291765Y-84382671D01*
X66148908Y-84454100D01*
X66791765Y-85311242D02*
X66648908Y-85382671D01*
X66291765Y-85382671D01*
X66148908Y-85311242D01*
X66077480Y-85168385D01*
X66077480Y-85025528D01*
X66148908Y-84882671D01*
X66291765Y-84811242D01*
X66648908Y-84811242D01*
X66791765Y-84739814D01*
X67506051Y-85382671D02*
X67506051Y-84382671D01*
X67506051Y-84668385D02*
X67577480Y-84525528D01*
X67648908Y-84454100D01*
X67791765Y-84382671D01*
X67934622Y-84382671D01*
X69077480Y-85382671D02*
X69077480Y-83882671D01*
X69077480Y-85311242D02*
X68934622Y-85382671D01*
X68648908Y-85382671D01*
X68506051Y-85311242D01*
X68434622Y-85239814D01*
X68363194Y-85096957D01*
X68363194Y-84668385D01*
X68434622Y-84525528D01*
X68506051Y-84454100D01*
X68648908Y-84382671D01*
X68934622Y-84382671D01*
X69077480Y-84454100D01*
X69791765Y-85239814D02*
X69863194Y-85311242D01*
X69791765Y-85382671D01*
X69720337Y-85311242D01*
X69791765Y-85239814D01*
X69791765Y-85382671D01*
X70506051Y-85382671D02*
X70506051Y-83882671D01*
X70648908Y-84811242D02*
X71077480Y-85382671D01*
X71077480Y-84382671D02*
X70506051Y-84954100D01*
X71720337Y-85382671D02*
X71720337Y-84382671D01*
X71720337Y-83882671D02*
X71648908Y-83954100D01*
X71720337Y-84025528D01*
X71791765Y-83954100D01*
X71720337Y-83882671D01*
X71720337Y-84025528D01*
X73077480Y-85311242D02*
X72934622Y-85382671D01*
X72648908Y-85382671D01*
X72506051Y-85311242D01*
X72434622Y-85239814D01*
X72363194Y-85096957D01*
X72363194Y-84668385D01*
X72434622Y-84525528D01*
X72506051Y-84454100D01*
X72648908Y-84382671D01*
X72934622Y-84382671D01*
X73077480Y-84454100D01*
X74363194Y-85382671D02*
X74363194Y-84596957D01*
X74291765Y-84454100D01*
X74148908Y-84382671D01*
X73863194Y-84382671D01*
X73720337Y-84454100D01*
X74363194Y-85311242D02*
X74220337Y-85382671D01*
X73863194Y-85382671D01*
X73720337Y-85311242D01*
X73648908Y-85168385D01*
X73648908Y-85025528D01*
X73720337Y-84882671D01*
X73863194Y-84811242D01*
X74220337Y-84811242D01*
X74363194Y-84739814D01*
X75720337Y-85382671D02*
X75720337Y-83882671D01*
X75720337Y-85311242D02*
X75577480Y-85382671D01*
X75291765Y-85382671D01*
X75148908Y-85311242D01*
X75077480Y-85239814D01*
X75006051Y-85096957D01*
X75006051Y-84668385D01*
X75077480Y-84525528D01*
X75148908Y-84454100D01*
X75291765Y-84382671D01*
X75577480Y-84382671D01*
X75720337Y-84454100D01*
X76077480Y-85525528D02*
X77220337Y-85525528D01*
X77577480Y-84382671D02*
X77577480Y-85882671D01*
X77577480Y-84454100D02*
X77720337Y-84382671D01*
X78006051Y-84382671D01*
X78148908Y-84454100D01*
X78220337Y-84525528D01*
X78291765Y-84668385D01*
X78291765Y-85096957D01*
X78220337Y-85239814D01*
X78148908Y-85311242D01*
X78006051Y-85382671D01*
X77720337Y-85382671D01*
X77577480Y-85311242D01*
X79577480Y-85311242D02*
X79434622Y-85382671D01*
X79148908Y-85382671D01*
X79006051Y-85311242D01*
X78934622Y-85239814D01*
X78863194Y-85096957D01*
X78863194Y-84668385D01*
X78934622Y-84525528D01*
X79006051Y-84454100D01*
X79148908Y-84382671D01*
X79434622Y-84382671D01*
X79577480Y-84454100D01*
X80220337Y-85382671D02*
X80220337Y-83882671D01*
X80220337Y-84454100D02*
X80363194Y-84382671D01*
X80648908Y-84382671D01*
X80791765Y-84454100D01*
X80863194Y-84525528D01*
X80934622Y-84668385D01*
X80934622Y-85096957D01*
X80863194Y-85239814D01*
X80791765Y-85311242D01*
X80648908Y-85382671D01*
X80363194Y-85382671D01*
X80220337Y-85311242D01*
D10*
D11*
X37002480Y-80504100D02*
X145002480Y-80504100D01*
D10*
D11*
X38363194Y-82611242D02*
X38577480Y-82682671D01*
X38934622Y-82682671D01*
X39077480Y-82611242D01*
X39148908Y-82539814D01*
X39220337Y-82396957D01*
X39220337Y-82254100D01*
X39148908Y-82111242D01*
X39077480Y-82039814D01*
X38934622Y-81968385D01*
X38648908Y-81896957D01*
X38506051Y-81825528D01*
X38434622Y-81754100D01*
X38363194Y-81611242D01*
X38363194Y-81468385D01*
X38434622Y-81325528D01*
X38506051Y-81254100D01*
X38648908Y-81182671D01*
X39006051Y-81182671D01*
X39220337Y-81254100D01*
X39863194Y-82682671D02*
X39863194Y-81182671D01*
X40506051Y-82682671D02*
X40506051Y-81896957D01*
X40434622Y-81754100D01*
X40291765Y-81682671D01*
X40077480Y-81682671D01*
X39934622Y-81754100D01*
X39863194Y-81825528D01*
X41791765Y-82611242D02*
X41648908Y-82682671D01*
X41363194Y-82682671D01*
X41220337Y-82611242D01*
X41148908Y-82468385D01*
X41148908Y-81896957D01*
X41220337Y-81754100D01*
X41363194Y-81682671D01*
X41648908Y-81682671D01*
X41791765Y-81754100D01*
X41863194Y-81896957D01*
X41863194Y-82039814D01*
X41148908Y-82182671D01*
X43077480Y-82611242D02*
X42934622Y-82682671D01*
X42648908Y-82682671D01*
X42506051Y-82611242D01*
X42434622Y-82468385D01*
X42434622Y-81896957D01*
X42506051Y-81754100D01*
X42648908Y-81682671D01*
X42934622Y-81682671D01*
X43077480Y-81754100D01*
X43148908Y-81896957D01*
X43148908Y-82039814D01*
X42434622Y-82182671D01*
X43577480Y-81682671D02*
X44148908Y-81682671D01*
X43791765Y-81182671D02*
X43791765Y-82468385D01*
X43863194Y-82611242D01*
X44006051Y-82682671D01*
X44148908Y-82682671D01*
X44648908Y-82539814D02*
X44720337Y-82611242D01*
X44648908Y-82682671D01*
X44577480Y-82611242D01*
X44648908Y-82539814D01*
X44648908Y-82682671D01*
X44648908Y-81754100D02*
X44720337Y-81825528D01*
X44648908Y-81896957D01*
X44577480Y-81825528D01*
X44648908Y-81754100D01*
X44648908Y-81896957D01*
D10*
D12*
X39411765Y-79539814D02*
X39340337Y-79611242D01*
X39126051Y-79682671D01*
X38983194Y-79682671D01*
X38768908Y-79611242D01*
X38626051Y-79468385D01*
X38554622Y-79325528D01*
X38483194Y-79039814D01*
X38483194Y-78825528D01*
X38554622Y-78539814D01*
X38626051Y-78396957D01*
X38768908Y-78254100D01*
X38983194Y-78182671D01*
X39126051Y-78182671D01*
X39340337Y-78254100D01*
X39411765Y-78325528D01*
X40268908Y-79682671D02*
X40126051Y-79611242D01*
X40054622Y-79539814D01*
X39983194Y-79396957D01*
X39983194Y-78968385D01*
X40054622Y-78825528D01*
X40126051Y-78754100D01*
X40268908Y-78682671D01*
X40483194Y-78682671D01*
X40626051Y-78754100D01*
X40697480Y-78825528D01*
X40768908Y-78968385D01*
X40768908Y-79396957D01*
X40697480Y-79539814D01*
X40626051Y-79611242D01*
X40483194Y-79682671D01*
X40268908Y-79682671D01*
X41340337Y-79611242D02*
X41483194Y-79682671D01*
X41768908Y-79682671D01*
X41911765Y-79611242D01*
X41983194Y-79468385D01*
X41983194Y-79396957D01*
X41911765Y-79254100D01*
X41768908Y-79182671D01*
X41554622Y-79182671D01*
X41411765Y-79111242D01*
X41340337Y-78968385D01*
X41340337Y-78896957D01*
X41411765Y-78754100D01*
X41554622Y-78682671D01*
X41768908Y-78682671D01*
X41911765Y-78754100D01*
X42411765Y-78682671D02*
X42983194Y-78682671D01*
X42626051Y-78182671D02*
X42626051Y-79468385D01*
X42697480Y-79611242D01*
X42840337Y-79682671D01*
X42983194Y-79682671D01*
X44126051Y-79682671D02*
X44126051Y-78896957D01*
X44054622Y-78754100D01*
X43911765Y-78682671D01*
X43626051Y-78682671D01*
X43483194Y-78754100D01*
X44126051Y-79611242D02*
X43983194Y-79682671D01*
X43626051Y-79682671D01*
X43483194Y-79611242D01*
X43411765Y-79468385D01*
X43411765Y-79325528D01*
X43483194Y-79182671D01*
X43626051Y-79111242D01*
X43983194Y-79111242D01*
X44126051Y-79039814D01*
X46840337Y-79682671D02*
X46340337Y-78968385D01*
X45983194Y-79682671D02*
X45983194Y-78182671D01*
X46554622Y-78182671D01*
X46697480Y-78254100D01*
X46768908Y-78325528D01*
X46840337Y-78468385D01*
X46840337Y-78682671D01*
X46768908Y-78825528D01*
X46697480Y-78896957D01*
X46554622Y-78968385D01*
X45983194Y-78968385D01*
X47483194Y-79682671D02*
X47483194Y-78682671D01*
X47483194Y-78182671D02*
X47411765Y-78254100D01*
X47483194Y-78325528D01*
X47554622Y-78254100D01*
X47483194Y-78182671D01*
X47483194Y-78325528D01*
X48840337Y-79611242D02*
X48697480Y-79682671D01*
X48411765Y-79682671D01*
X48268908Y-79611242D01*
X48197480Y-79539814D01*
X48126051Y-79396957D01*
X48126051Y-78968385D01*
X48197480Y-78825528D01*
X48268908Y-78754100D01*
X48411765Y-78682671D01*
X48697480Y-78682671D01*
X48840337Y-78754100D01*
X50126051Y-79682671D02*
X50126051Y-78896957D01*
X50054622Y-78754100D01*
X49911765Y-78682671D01*
X49626051Y-78682671D01*
X49483194Y-78754100D01*
X50126051Y-79611242D02*
X49983194Y-79682671D01*
X49626051Y-79682671D01*
X49483194Y-79611242D01*
X49411765Y-79468385D01*
X49411765Y-79325528D01*
X49483194Y-79182671D01*
X49626051Y-79111242D01*
X49983194Y-79111242D01*
X50126051Y-79039814D01*
X51983194Y-79682671D02*
X51983194Y-78182671D01*
X52697480Y-78682671D02*
X52697480Y-79682671D01*
X52697480Y-78825528D02*
X52768908Y-78754100D01*
X52911765Y-78682671D01*
X53126051Y-78682671D01*
X53268908Y-78754100D01*
X53340337Y-78896957D01*
X53340337Y-79682671D01*
X53983194Y-79611242D02*
X54126051Y-79682671D01*
X54411765Y-79682671D01*
X54554622Y-79611242D01*
X54626051Y-79468385D01*
X54626051Y-79396957D01*
X54554622Y-79254100D01*
X54411765Y-79182671D01*
X54197480Y-79182671D01*
X54054622Y-79111242D01*
X53983194Y-78968385D01*
X53983194Y-78896957D01*
X54054622Y-78754100D01*
X54197480Y-78682671D01*
X54411765Y-78682671D01*
X54554622Y-78754100D01*
X55054622Y-78682671D02*
X55626051Y-78682671D01*
X55268908Y-78182671D02*
X55268908Y-79468385D01*
X55340337Y-79611242D01*
X55483194Y-79682671D01*
X55626051Y-79682671D01*
X56126051Y-79682671D02*
X56126051Y-78682671D01*
X56126051Y-78182671D02*
X56054622Y-78254100D01*
X56126051Y-78325528D01*
X56197480Y-78254100D01*
X56126051Y-78182671D01*
X56126051Y-78325528D01*
X56626051Y-78682671D02*
X57197480Y-78682671D01*
X56840337Y-78182671D02*
X56840337Y-79468385D01*
X56911765Y-79611242D01*
X57054622Y-79682671D01*
X57197480Y-79682671D01*
X58340337Y-78682671D02*
X58340337Y-79682671D01*
X57697480Y-78682671D02*
X57697480Y-79468385D01*
X57768908Y-79611242D01*
X57911765Y-79682671D01*
X58126051Y-79682671D01*
X58268908Y-79611242D01*
X58340337Y-79539814D01*
X58840337Y-78682671D02*
X59411765Y-78682671D01*
X59054622Y-78182671D02*
X59054622Y-79468385D01*
X59126051Y-79611242D01*
X59268908Y-79682671D01*
X59411765Y-79682671D01*
X60483194Y-79611242D02*
X60340337Y-79682671D01*
X60054622Y-79682671D01*
X59911765Y-79611242D01*
X59840337Y-79468385D01*
X59840337Y-78896957D01*
X59911765Y-78754100D01*
X60054622Y-78682671D01*
X60340337Y-78682671D01*
X60483194Y-78754100D01*
X60554622Y-78896957D01*
X60554622Y-79039814D01*
X59840337Y-79182671D01*
X62554622Y-79682671D02*
X62411765Y-79611242D01*
X62340337Y-79539814D01*
X62268908Y-79396957D01*
X62268908Y-78968385D01*
X62340337Y-78825528D01*
X62411765Y-78754100D01*
X62554622Y-78682671D01*
X62768908Y-78682671D01*
X62911765Y-78754100D01*
X62983194Y-78825528D01*
X63054622Y-78968385D01*
X63054622Y-79396957D01*
X62983194Y-79539814D01*
X62911765Y-79611242D01*
X62768908Y-79682671D01*
X62554622Y-79682671D01*
X63483194Y-78682671D02*
X64054622Y-78682671D01*
X63697480Y-79682671D02*
X63697480Y-78396957D01*
X63768908Y-78254100D01*
X63911765Y-78182671D01*
X64054622Y-78182671D01*
X65483194Y-78182671D02*
X66340337Y-78182671D01*
X65911765Y-79682671D02*
X65911765Y-78182671D01*
X67411765Y-79611242D02*
X67268908Y-79682671D01*
X66983194Y-79682671D01*
X66840337Y-79611242D01*
X66768908Y-79468385D01*
X66768908Y-78896957D01*
X66840337Y-78754100D01*
X66983194Y-78682671D01*
X67268908Y-78682671D01*
X67411765Y-78754100D01*
X67483194Y-78896957D01*
X67483194Y-79039814D01*
X66768908Y-79182671D01*
X68768908Y-79611242D02*
X68626051Y-79682671D01*
X68340337Y-79682671D01*
X68197480Y-79611242D01*
X68126051Y-79539814D01*
X68054622Y-79396957D01*
X68054622Y-78968385D01*
X68126051Y-78825528D01*
X68197480Y-78754100D01*
X68340337Y-78682671D01*
X68626051Y-78682671D01*
X68768908Y-78754100D01*
X69411765Y-79682671D02*
X69411765Y-78182671D01*
X70054622Y-79682671D02*
X70054622Y-78896957D01*
X69983194Y-78754100D01*
X69840337Y-78682671D01*
X69626051Y-78682671D01*
X69483194Y-78754100D01*
X69411765Y-78825528D01*
X70768908Y-78682671D02*
X70768908Y-79682671D01*
X70768908Y-78825528D02*
X70840337Y-78754100D01*
X70983194Y-78682671D01*
X71197480Y-78682671D01*
X71340337Y-78754100D01*
X71411765Y-78896957D01*
X71411765Y-79682671D01*
X72340337Y-79682671D02*
X72197480Y-79611242D01*
X72126051Y-79539814D01*
X72054622Y-79396957D01*
X72054622Y-78968385D01*
X72126051Y-78825528D01*
X72197480Y-78754100D01*
X72340337Y-78682671D01*
X72554622Y-78682671D01*
X72697480Y-78754100D01*
X72768908Y-78825528D01*
X72840337Y-78968385D01*
X72840337Y-79396957D01*
X72768908Y-79539814D01*
X72697480Y-79611242D01*
X72554622Y-79682671D01*
X72340337Y-79682671D01*
X73697480Y-79682671D02*
X73554622Y-79611242D01*
X73483194Y-79468385D01*
X73483194Y-78182671D01*
X74483194Y-79682671D02*
X74340337Y-79611242D01*
X74268908Y-79539814D01*
X74197480Y-79396957D01*
X74197480Y-78968385D01*
X74268908Y-78825528D01*
X74340337Y-78754100D01*
X74483194Y-78682671D01*
X74697480Y-78682671D01*
X74840337Y-78754100D01*
X74911765Y-78825528D01*
X74983194Y-78968385D01*
X74983194Y-79396957D01*
X74911765Y-79539814D01*
X74840337Y-79611242D01*
X74697480Y-79682671D01*
X74483194Y-79682671D01*
X76268908Y-78682671D02*
X76268908Y-79896957D01*
X76197480Y-80039814D01*
X76126051Y-80111242D01*
X75983194Y-80182671D01*
X75768908Y-80182671D01*
X75626051Y-80111242D01*
X76268908Y-79611242D02*
X76126051Y-79682671D01*
X75840337Y-79682671D01*
X75697480Y-79611242D01*
X75626051Y-79539814D01*
X75554622Y-79396957D01*
X75554622Y-78968385D01*
X75626051Y-78825528D01*
X75697480Y-78754100D01*
X75840337Y-78682671D01*
X76126051Y-78682671D01*
X76268908Y-78754100D01*
X76840337Y-78682671D02*
X77197480Y-79682671D01*
X77554622Y-78682671D02*
X77197480Y-79682671D01*
X77054622Y-80039814D01*
X76983194Y-80111242D01*
X76840337Y-80182671D01*
D10*
D11*
X38934622Y-75896957D02*
X39148908Y-75968385D01*
X39220337Y-76039814D01*
X39291765Y-76182671D01*
X39291765Y-76396957D01*
X39220337Y-76539814D01*
X39148908Y-76611242D01*
X39006051Y-76682671D01*
X38434622Y-76682671D01*
X38434622Y-75182671D01*
X38934622Y-75182671D01*
X39077480Y-75254100D01*
X39148908Y-75325528D01*
X39220337Y-75468385D01*
X39220337Y-75611242D01*
X39148908Y-75754100D01*
X39077480Y-75825528D01*
X38934622Y-75896957D01*
X38434622Y-75896957D01*
X40577480Y-76682671D02*
X40577480Y-75896957D01*
X40506051Y-75754100D01*
X40363194Y-75682671D01*
X40077480Y-75682671D01*
X39934622Y-75754100D01*
X40577480Y-76611242D02*
X40434622Y-76682671D01*
X40077480Y-76682671D01*
X39934622Y-76611242D01*
X39863194Y-76468385D01*
X39863194Y-76325528D01*
X39934622Y-76182671D01*
X40077480Y-76111242D01*
X40434622Y-76111242D01*
X40577480Y-76039814D01*
X41220337Y-76611242D02*
X41363194Y-76682671D01*
X41648908Y-76682671D01*
X41791765Y-76611242D01*
X41863194Y-76468385D01*
X41863194Y-76396957D01*
X41791765Y-76254100D01*
X41648908Y-76182671D01*
X41434622Y-76182671D01*
X41291765Y-76111242D01*
X41220337Y-75968385D01*
X41220337Y-75896957D01*
X41291765Y-75754100D01*
X41434622Y-75682671D01*
X41648908Y-75682671D01*
X41791765Y-75754100D01*
X43077480Y-76611242D02*
X42934622Y-76682671D01*
X42648908Y-76682671D01*
X42506051Y-76611242D01*
X42434622Y-76468385D01*
X42434622Y-75896957D01*
X42506051Y-75754100D01*
X42648908Y-75682671D01*
X42934622Y-75682671D01*
X43077480Y-75754100D01*
X43148908Y-75896957D01*
X43148908Y-76039814D01*
X42434622Y-76182671D01*
X44434622Y-76682671D02*
X44434622Y-75182671D01*
X44434622Y-76611242D02*
X44291765Y-76682671D01*
X44006051Y-76682671D01*
X43863194Y-76611242D01*
X43791765Y-76539814D01*
X43720337Y-76396957D01*
X43720337Y-75968385D01*
X43791765Y-75825528D01*
X43863194Y-75754100D01*
X44006051Y-75682671D01*
X44291765Y-75682671D01*
X44434622Y-75754100D01*
X46506051Y-76682671D02*
X46363194Y-76611242D01*
X46291765Y-76539814D01*
X46220337Y-76396957D01*
X46220337Y-75968385D01*
X46291765Y-75825528D01*
X46363194Y-75754100D01*
X46506051Y-75682671D01*
X46720337Y-75682671D01*
X46863194Y-75754100D01*
X46934622Y-75825528D01*
X47006051Y-75968385D01*
X47006051Y-76396957D01*
X46934622Y-76539814D01*
X46863194Y-76611242D01*
X46720337Y-76682671D01*
X46506051Y-76682671D01*
X47648908Y-75682671D02*
X47648908Y-76682671D01*
X47648908Y-75825528D02*
X47720337Y-75754100D01*
X47863194Y-75682671D01*
X48077480Y-75682671D01*
X48220337Y-75754100D01*
X48291765Y-75896957D01*
X48291765Y-76682671D01*
X52148908Y-76539814D02*
X52077480Y-76611242D01*
X51863194Y-76682671D01*
X51720337Y-76682671D01*
X51506051Y-76611242D01*
X51363194Y-76468385D01*
X51291765Y-76325528D01*
X51220337Y-76039814D01*
X51220337Y-75825528D01*
X51291765Y-75539814D01*
X51363194Y-75396957D01*
X51506051Y-75254100D01*
X51720337Y-75182671D01*
X51863194Y-75182671D01*
X52077480Y-75254100D01*
X52148908Y-75325528D01*
X52791765Y-76682671D02*
X52791765Y-75682671D01*
X52791765Y-75968385D02*
X52863194Y-75825528D01*
X52934622Y-75754100D01*
X53077480Y-75682671D01*
X53220337Y-75682671D01*
X54363194Y-76682671D02*
X54363194Y-75896957D01*
X54291765Y-75754100D01*
X54148908Y-75682671D01*
X53863194Y-75682671D01*
X53720337Y-75754100D01*
X54363194Y-76611242D02*
X54220337Y-76682671D01*
X53863194Y-76682671D01*
X53720337Y-76611242D01*
X53648908Y-76468385D01*
X53648908Y-76325528D01*
X53720337Y-76182671D01*
X53863194Y-76111242D01*
X54220337Y-76111242D01*
X54363194Y-76039814D01*
X54934622Y-75682671D02*
X55720337Y-75682671D01*
X54934622Y-76682671D01*
X55720337Y-76682671D01*
X56148908Y-75682671D02*
X56506051Y-76682671D01*
X56863194Y-75682671D02*
X56506051Y-76682671D01*
X56363194Y-77039814D01*
X56291765Y-77111242D01*
X56148908Y-77182671D01*
X57220337Y-75682671D02*
X57791765Y-75682671D01*
X57434622Y-76682671D02*
X57434622Y-75396957D01*
X57506051Y-75254100D01*
X57648908Y-75182671D01*
X57791765Y-75182671D01*
X58506051Y-76682671D02*
X58363194Y-76611242D01*
X58291765Y-76468385D01*
X58291765Y-75182671D01*
X59077480Y-76682671D02*
X59077480Y-75682671D01*
X59077480Y-75182671D02*
X59006051Y-75254100D01*
X59077480Y-75325528D01*
X59148908Y-75254100D01*
X59077480Y-75182671D01*
X59077480Y-75325528D01*
X60363194Y-76611242D02*
X60220337Y-76682671D01*
X59934622Y-76682671D01*
X59791765Y-76611242D01*
X59720337Y-76468385D01*
X59720337Y-75896957D01*
X59791765Y-75754100D01*
X59934622Y-75682671D01*
X60220337Y-75682671D01*
X60363194Y-75754100D01*
X60434622Y-75896957D01*
X60434622Y-76039814D01*
X59720337Y-76182671D01*
X62220337Y-76111242D02*
X63363194Y-76111242D01*
X65720337Y-75896957D02*
X65934622Y-75968385D01*
X66006051Y-76039814D01*
X66077480Y-76182671D01*
X66077480Y-76396957D01*
X66006051Y-76539814D01*
X65934622Y-76611242D01*
X65791765Y-76682671D01*
X65220337Y-76682671D01*
X65220337Y-75182671D01*
X65720337Y-75182671D01*
X65863194Y-75254100D01*
X65934622Y-75325528D01*
X66006051Y-75468385D01*
X66006051Y-75611242D01*
X65934622Y-75754100D01*
X65863194Y-75825528D01*
X65720337Y-75896957D01*
X65220337Y-75896957D01*
X66720337Y-76682671D02*
X66720337Y-75682671D01*
X66720337Y-75182671D02*
X66648908Y-75254100D01*
X66720337Y-75325528D01*
X66791765Y-75254100D01*
X66720337Y-75182671D01*
X66720337Y-75325528D01*
X67220337Y-75682671D02*
X67791765Y-75682671D01*
X67434622Y-75182671D02*
X67434622Y-76468385D01*
X67506051Y-76611242D01*
X67648908Y-76682671D01*
X67791765Y-76682671D01*
X68934622Y-76611242D02*
X68791765Y-76682671D01*
X68506051Y-76682671D01*
X68363194Y-76611242D01*
X68291765Y-76539814D01*
X68220337Y-76396957D01*
X68220337Y-75968385D01*
X68291765Y-75825528D01*
X68363194Y-75754100D01*
X68506051Y-75682671D01*
X68791765Y-75682671D01*
X68934622Y-75754100D01*
X69577480Y-76682671D02*
X69577480Y-75682671D01*
X69577480Y-75968385D02*
X69648908Y-75825528D01*
X69720337Y-75754100D01*
X69863194Y-75682671D01*
X70006051Y-75682671D01*
X71148908Y-76682671D02*
X71148908Y-75896957D01*
X71077480Y-75754100D01*
X70934622Y-75682671D01*
X70648908Y-75682671D01*
X70506051Y-75754100D01*
X71148908Y-76611242D02*
X71006051Y-76682671D01*
X70648908Y-76682671D01*
X70506051Y-76611242D01*
X70434622Y-76468385D01*
X70434622Y-76325528D01*
X70506051Y-76182671D01*
X70648908Y-76111242D01*
X71006051Y-76111242D01*
X71148908Y-76039814D01*
X71720337Y-75682671D02*
X72506051Y-75682671D01*
X71720337Y-76682671D01*
X72506051Y-76682671D01*
X73648908Y-76611242D02*
X73506051Y-76682671D01*
X73220337Y-76682671D01*
X73077480Y-76611242D01*
X73006051Y-76468385D01*
X73006051Y-75896957D01*
X73077480Y-75754100D01*
X73220337Y-75682671D01*
X73506051Y-75682671D01*
X73648908Y-75754100D01*
X73720337Y-75896957D01*
X73720337Y-76039814D01*
X73006051Y-76182671D01*
D10*
D11*
X57002480Y-90504100D02*
X57002480Y-93504100D01*
D10*
D11*
X121002480Y-90504100D02*
X121002480Y-97004100D01*
D14*
X-39999920Y-1000760D02*
X-25000000Y-1000000D01*
X39999920Y1003300D02*
X40000280Y-996900D01*
X-39999920Y-1000760D02*
X-39999720Y1003300D01*
X1000280Y-39996900D02*
X-999720Y-39996900D01*
X-1000760Y39999920D02*
X1000760Y39999920D01*
X-39999920Y1003300D02*
X-24998680Y1000760D01*
X-999720Y-24996900D02*
X-999720Y-39996900D01*
X1000280Y-24996900D02*
X1000280Y-39996900D01*
X25000280Y-996900D02*
X40000280Y-996900D01*
X25000280Y1003100D02*
X40000280Y1003100D01*
X1000280Y40003100D02*
X1000280Y25003100D01*
X-999720Y25003100D02*
X-999720Y40003100D01*
%TO.C,PCB_EDGE2*%
X17899380Y15400020D02*
X18501360Y16502380D01*
X17200880Y14000480D02*
X17899380Y15400020D01*
X16700500Y12799060D02*
X17200880Y14000480D01*
X16400780Y11998960D02*
X16700500Y12799060D01*
X15999460Y10800080D02*
X16400780Y11998960D01*
X15600680Y9298940D02*
X15999460Y10800080D01*
X15400020Y8399780D02*
X15600680Y9298940D01*
X15199360Y7200900D02*
X15400020Y8399780D01*
X15100300Y6499860D02*
X15199360Y7200900D01*
X15001240Y5430520D02*
X15100300Y6499860D01*
X5435600Y15001240D02*
X6502400Y15102840D01*
X6502400Y15102840D02*
X7203440Y15201900D01*
X7203440Y15201900D02*
X8402320Y15402560D01*
X8402320Y15402560D02*
X9301480Y15603220D01*
X9301480Y15603220D02*
X10802620Y16002000D01*
X10802620Y16002000D02*
X12001500Y16403320D01*
X12001500Y16403320D02*
X12801600Y16703040D01*
X12801600Y16703040D02*
X14003020Y17203420D01*
X14003020Y17203420D02*
X15402560Y17901920D01*
X15402560Y17901920D02*
X16502380Y18501360D01*
X15008860Y4864100D02*
X15001240Y5209540D01*
X15059660Y4389120D02*
X15008860Y4864100D01*
X15100300Y4150360D02*
X15059660Y4389120D01*
X15171420Y3891280D02*
X15100300Y4150360D01*
X15260320Y3657600D02*
X15171420Y3891280D01*
X15361920Y3459480D02*
X15260320Y3657600D01*
X15450820Y3319780D02*
X15361920Y3459480D01*
X15600680Y3098800D02*
X15450820Y3319780D01*
X15001240Y5209540D02*
X15001240Y5430520D01*
X16169640Y2468880D02*
X16029940Y2600960D01*
X16659860Y2090420D02*
X16380460Y2291080D01*
X16873220Y1958340D02*
X16659860Y2090420D01*
X16380460Y2291080D02*
X16169640Y2468880D01*
X16029940Y2600960D02*
X15859760Y2778760D01*
X15859760Y2778760D02*
X15730220Y2931160D01*
X15730220Y2931160D02*
X15600680Y3098800D01*
X4869180Y15008860D02*
X5173980Y15003780D01*
X4389120Y15059660D02*
X4869180Y15008860D01*
X4150360Y15100300D02*
X4389120Y15059660D01*
X3853180Y15181580D02*
X4150360Y15100300D01*
X3680460Y15250160D02*
X3853180Y15181580D01*
X3500120Y15339060D02*
X3680460Y15250160D01*
X3319780Y15450820D02*
X3500120Y15339060D01*
X3098800Y15600680D02*
X3319780Y15450820D01*
X2931160Y15730220D02*
X3098800Y15600680D01*
X2600960Y16029940D02*
X2778760Y15859760D01*
X1978660Y16845280D02*
X2120900Y16619220D01*
X2778760Y15859760D02*
X2931160Y15730220D01*
X2468880Y16169640D02*
X2303780Y16365220D01*
X5171440Y15003780D02*
X5435600Y15001240D01*
X2120900Y16619220D02*
X2303780Y16365220D01*
X2468880Y16169640D02*
X2600960Y16029940D01*
D15*
X17840000Y1590000D02*
X18597880Y1420000D01*
X17420000Y1720000D02*
X17840000Y1590000D01*
X17070000Y1860000D02*
X17420000Y1720000D01*
X16870000Y1960000D02*
X17070000Y1860000D01*
X19260000Y1300000D02*
X20256500Y1170000D01*
X18600000Y1420000D02*
X19260000Y1300000D01*
X1420000Y18590000D02*
X1300000Y19260000D01*
X1300000Y19260000D02*
X1170000Y20253960D01*
X1978660Y16845280D02*
X1892300Y17023080D01*
X1892300Y17023080D02*
X1720000Y17420000D01*
X1720000Y17420000D02*
X1590000Y17840000D01*
X1590000Y17840000D02*
X1420000Y18590000D01*
X21970000Y1090000D02*
X25000000Y1000000D01*
X20260000Y1170000D02*
X21970000Y1090000D01*
X1170000Y20256500D02*
X1090000Y21970000D01*
X1090000Y21970000D02*
X1000000Y25000000D01*
D14*
X18501360Y16502380D02*
G75*
G03*
X16502380Y18501360I-2001520J-2540D01*
G01*
X-17899380Y-15400020D02*
X-18501360Y-16502380D01*
X-17200880Y-14000480D02*
X-17899380Y-15400020D01*
X-16700500Y-12799060D02*
X-17200880Y-14000480D01*
X-16400780Y-11998960D02*
X-16700500Y-12799060D01*
X-15999460Y-10800080D02*
X-16400780Y-11998960D01*
X-15600680Y-9298940D02*
X-15999460Y-10800080D01*
X-15400020Y-8399780D02*
X-15600680Y-9298940D01*
X-15199360Y-7200900D02*
X-15400020Y-8399780D01*
X-15100300Y-6499860D02*
X-15199360Y-7200900D01*
X-15001240Y-5430520D02*
X-15100300Y-6499860D01*
X-5435600Y-15001240D02*
X-6502400Y-15102840D01*
X-6502400Y-15102840D02*
X-7203440Y-15201900D01*
X-7203440Y-15201900D02*
X-8402320Y-15402560D01*
X-8402320Y-15402560D02*
X-9301480Y-15603220D01*
X-9301480Y-15603220D02*
X-10802620Y-16002000D01*
X-10802620Y-16002000D02*
X-12001500Y-16403320D01*
X-12001500Y-16403320D02*
X-12801600Y-16703040D01*
X-12801600Y-16703040D02*
X-14003020Y-17203420D01*
X-14003020Y-17203420D02*
X-15402560Y-17901920D01*
X-15402560Y-17901920D02*
X-16502380Y-18501360D01*
X-15008860Y-4864100D02*
X-15001240Y-5209540D01*
X-15059660Y-4389120D02*
X-15008860Y-4864100D01*
X-15100300Y-4150360D02*
X-15059660Y-4389120D01*
X-15171420Y-3891280D02*
X-15100300Y-4150360D01*
X-15260320Y-3657600D02*
X-15171420Y-3891280D01*
X-15361920Y-3459480D02*
X-15260320Y-3657600D01*
X-15450820Y-3319780D02*
X-15361920Y-3459480D01*
X-15600680Y-3098800D02*
X-15450820Y-3319780D01*
X-15730220Y-2931160D02*
X-15600680Y-3098800D01*
X-16380460Y-2291080D02*
X-16169640Y-2468880D01*
X-15001240Y-5209540D02*
X-15001240Y-5430520D01*
X-16029940Y-2600960D02*
X-15859760Y-2778760D01*
X-16169640Y-2468880D02*
X-16029940Y-2600960D01*
X-16873220Y-1958340D02*
X-16659860Y-2090420D01*
X-16659860Y-2090420D02*
X-16380460Y-2291080D01*
X-15859760Y-2778760D02*
X-15730220Y-2931160D01*
X-4869180Y-15008860D02*
X-5173980Y-15003780D01*
X-4389120Y-15059660D02*
X-4869180Y-15008860D01*
X-4150360Y-15100300D02*
X-4389120Y-15059660D01*
X-3853180Y-15181580D02*
X-4150360Y-15100300D01*
X-3680460Y-15250160D02*
X-3853180Y-15181580D01*
X-3500120Y-15339060D02*
X-3680460Y-15250160D01*
X-3319780Y-15450820D02*
X-3500120Y-15339060D01*
X-3098800Y-15600680D02*
X-3319780Y-15450820D01*
X-2931160Y-15730220D02*
X-3098800Y-15600680D01*
X-2600960Y-16029940D02*
X-2778760Y-15859760D01*
X-1978660Y-16845280D02*
X-2120900Y-16619220D01*
X-2778760Y-15859760D02*
X-2931160Y-15730220D01*
X-2468880Y-16169640D02*
X-2303780Y-16365220D01*
X-5171440Y-15003780D02*
X-5435600Y-15001240D01*
X-2120900Y-16619220D02*
X-2303780Y-16365220D01*
X-2468880Y-16169640D02*
X-2600960Y-16029940D01*
D15*
X-17840000Y-1590000D02*
X-18597880Y-1420000D01*
X-17420000Y-1720000D02*
X-17840000Y-1590000D01*
X-17070000Y-1860000D02*
X-17420000Y-1720000D01*
X-16870000Y-1960000D02*
X-17070000Y-1860000D01*
X-19260000Y-1300000D02*
X-20243800Y-1170940D01*
X-18600000Y-1420000D02*
X-19260000Y-1300000D01*
X-1420000Y-18590000D02*
X-1300000Y-19260000D01*
X-1300000Y-19260000D02*
X-1170000Y-20253960D01*
X-1978660Y-16845280D02*
X-1892300Y-17023080D01*
X-1892300Y-17023080D02*
X-1720000Y-17420000D01*
X-1720000Y-17420000D02*
X-1590000Y-17840000D01*
X-1590000Y-17840000D02*
X-1420000Y-18590000D01*
X-21970000Y-1090000D02*
X-25000000Y-1000000D01*
X-20243800Y-1170940D02*
X-21970000Y-1090000D01*
X-1170000Y-20256500D02*
X-1090000Y-21970000D01*
X-1090000Y-21970000D02*
X-1000000Y-25000000D01*
D14*
X-18501360Y-16502380D02*
G75*
G03*
X-16502380Y-18501360I2001520J2540D01*
G01*
D15*
X21970000Y-1090000D02*
X25000000Y-1000000D01*
X20256500Y-1170000D02*
X21970000Y-1090000D01*
X1170000Y-20260000D02*
X1090000Y-21970000D01*
X1090000Y-21970000D02*
X1000000Y-25000000D01*
X17840000Y-1590000D02*
X18590000Y-1420000D01*
X17420000Y-1720000D02*
X17840000Y-1590000D01*
X17023080Y-1892300D02*
X17420000Y-1720000D01*
X16845280Y-1978660D02*
X17023080Y-1892300D01*
X19260000Y-1300000D02*
X20253960Y-1170000D01*
X18590000Y-1420000D02*
X19260000Y-1300000D01*
X1420000Y-18600000D02*
X1300000Y-19260000D01*
X1300000Y-19260000D02*
X1170000Y-20256500D01*
X1960000Y-16870000D02*
X1860000Y-17070000D01*
X1860000Y-17070000D02*
X1720000Y-17420000D01*
X1720000Y-17420000D02*
X1590000Y-17840000D01*
X1590000Y-17840000D02*
X1420000Y-18597880D01*
D14*
X16169640Y-2468880D02*
X16029940Y-2600960D01*
X16619220Y-2120900D02*
X16365220Y-2303780D01*
X15003780Y-5171440D02*
X15001240Y-5435600D01*
X16169640Y-2468880D02*
X16365220Y-2303780D01*
X15859760Y-2778760D02*
X15730220Y-2931160D01*
X16845280Y-1978660D02*
X16619220Y-2120900D01*
X16029940Y-2600960D02*
X15859760Y-2778760D01*
X15730220Y-2931160D02*
X15600680Y-3098800D01*
X15600680Y-3098800D02*
X15450820Y-3319780D01*
X15450820Y-3319780D02*
X15339060Y-3500120D01*
X15339060Y-3500120D02*
X15250160Y-3680460D01*
X15250160Y-3680460D02*
X15181580Y-3853180D01*
X15181580Y-3853180D02*
X15100300Y-4150360D01*
X15100300Y-4150360D02*
X15059660Y-4389120D01*
X15059660Y-4389120D02*
X15008860Y-4869180D01*
X15008860Y-4869180D02*
X15003780Y-5173980D01*
X2931160Y-15730220D02*
X3098800Y-15600680D01*
X1958340Y-16873220D02*
X2090420Y-16659860D01*
X2090420Y-16659860D02*
X2291080Y-16380460D01*
X5209540Y-15001240D02*
X5430520Y-15001240D01*
X2291080Y-16380460D02*
X2468880Y-16169640D01*
X2468880Y-16169640D02*
X2600960Y-16029940D01*
X2600960Y-16029940D02*
X2778760Y-15859760D01*
X2778760Y-15859760D02*
X2931160Y-15730220D01*
X3098800Y-15600680D02*
X3319780Y-15450820D01*
X3319780Y-15450820D02*
X3459480Y-15361920D01*
X3459480Y-15361920D02*
X3657600Y-15260320D01*
X3657600Y-15260320D02*
X3891280Y-15171420D01*
X3891280Y-15171420D02*
X4150360Y-15100300D01*
X4150360Y-15100300D02*
X4389120Y-15059660D01*
X4389120Y-15059660D02*
X4864100Y-15008860D01*
X4864100Y-15008860D02*
X5209540Y-15001240D01*
X17901920Y-15402560D02*
X18501360Y-16502380D01*
X17203420Y-14003020D02*
X17901920Y-15402560D01*
X16703040Y-12801600D02*
X17203420Y-14003020D01*
X16403320Y-12001500D02*
X16703040Y-12801600D01*
X16002000Y-10802620D02*
X16403320Y-12001500D01*
X15603220Y-9301480D02*
X16002000Y-10802620D01*
X15402560Y-8402320D02*
X15603220Y-9301480D01*
X15201900Y-7203440D02*
X15402560Y-8402320D01*
X15102840Y-6502400D02*
X15201900Y-7203440D01*
X15001240Y-5435600D02*
X15102840Y-6502400D01*
X5430520Y-15001240D02*
X6499860Y-15100300D01*
X6499860Y-15100300D02*
X7200900Y-15199360D01*
X7200900Y-15199360D02*
X8399780Y-15400020D01*
X8399780Y-15400020D02*
X9298940Y-15600680D01*
X9298940Y-15600680D02*
X10800080Y-15999460D01*
X10800080Y-15999460D02*
X11998960Y-16400780D01*
X11998960Y-16400780D02*
X12799060Y-16700500D01*
X12799060Y-16700500D02*
X14000480Y-17200880D01*
X14000480Y-17200880D02*
X15400020Y-17899380D01*
X15400020Y-17899380D02*
X16502380Y-18501360D01*
X16502380Y-18501360D02*
G75*
G03*
X18501360Y-16502380I-2540J2001520D01*
G01*
D15*
%TO.C,PCB_EDGE1*%
X-21970000Y1090000D02*
X-25000000Y1000000D01*
X-20250000Y1170000D02*
X-21970000Y1090000D01*
X-1170940Y20251420D02*
X-1090000Y21970000D01*
X-1090000Y21970000D02*
X-1000000Y25000000D01*
X-17843500Y1592580D02*
X-18600000Y1420000D01*
X-17414240Y1722120D02*
X-17843500Y1592580D01*
X-17096740Y1849120D02*
X-17414240Y1722120D01*
X-16832580Y1981200D02*
X-17096740Y1849120D01*
X-19270980Y1297940D02*
X-20250000Y1170000D01*
X-18597880Y1419860D02*
X-19270980Y1297940D01*
X-1419860Y18585180D02*
X-1300000Y19260000D01*
X-1300000Y19260000D02*
X-1170940Y20251420D01*
X-1955800Y16875760D02*
X-1860000Y17070000D01*
X-1860000Y17070000D02*
X-1720000Y17420000D01*
X-1720000Y17420000D02*
X-1590000Y17840000D01*
X-1590040Y17840000D02*
X-1420000Y18587720D01*
D14*
X-5001260Y15001240D02*
X-4859020Y15008860D01*
X-14000480Y17000220D02*
X-14000480Y17200880D01*
X-5999480Y15999460D02*
X-5999480Y16499840D01*
X-5999480Y16499840D02*
X-13500100Y16499840D01*
X-15001240Y5212080D02*
X-15006320Y5425440D01*
X-16195040Y2443480D02*
X-16012160Y2616200D01*
X-16832580Y1981200D02*
X-16598900Y2125980D01*
X-16598900Y2125980D02*
X-16195040Y2443480D01*
X-16012160Y2616200D02*
X-15859760Y2778760D01*
X-15859760Y2778760D02*
X-15730220Y2931160D01*
X-15730220Y2931160D02*
X-15600680Y3098800D01*
X-15600680Y3098800D02*
X-15450820Y3319780D01*
X-15450820Y3319780D02*
X-15339060Y3500120D01*
X-15339060Y3500120D02*
X-15250160Y3680460D01*
X-15250160Y3680460D02*
X-15179040Y3860800D01*
X-15179040Y3860800D02*
X-15100300Y4150360D01*
X-15100300Y4150360D02*
X-15059660Y4389120D01*
X-15059660Y4389120D02*
X-15008860Y4866640D01*
X-15008860Y4869180D02*
X-15001240Y5209540D01*
X-3098800Y15600680D02*
X-3319780Y15450820D01*
X-3319780Y15450820D02*
X-3500120Y15339060D01*
X-1955800Y16875760D02*
X-2090420Y16659860D01*
X-2090420Y16659860D02*
X-2291080Y16380460D01*
X-2291080Y16380460D02*
X-2468880Y16169640D01*
X-2468880Y16169640D02*
X-2600960Y16029940D01*
X-2600960Y16029940D02*
X-2778760Y15859760D01*
X-2778760Y15859760D02*
X-2931160Y15730220D01*
X-2931160Y15730220D02*
X-3098800Y15600680D01*
X-3500120Y15339060D02*
X-3680460Y15250160D01*
X-3680460Y15250160D02*
X-3860800Y15179040D01*
X-3860800Y15179040D02*
X-4150360Y15100300D01*
X-4150360Y15100300D02*
X-4389120Y15059660D01*
X-4389120Y15059660D02*
X-4861560Y15008860D01*
X-17901920Y15402560D02*
X-18501360Y16502380D01*
X-17203420Y14003020D02*
X-17901920Y15402560D01*
X-16703040Y12801600D02*
X-17203420Y14003020D01*
X-16403320Y12001500D02*
X-16703040Y12801600D01*
X-16002000Y10802620D02*
X-16403320Y12001500D01*
X-15603220Y9301480D02*
X-16002000Y10802620D01*
X-15402560Y8402320D02*
X-15603220Y9301480D01*
X-15201900Y7203440D02*
X-15402560Y8402320D01*
X-15102840Y6502400D02*
X-15201900Y7203440D01*
X-15006320Y5425440D02*
X-15102840Y6502400D01*
X-14000480Y17200880D02*
X-15400020Y17899380D01*
X-15400020Y17899380D02*
X-16499840Y18498820D01*
X-14000480Y17000220D02*
G75*
G03*
X-13500100Y16499840I500380J0D01*
G01*
X-5999480Y15999460D02*
G75*
G03*
X-5001260Y15001240I998220J0D01*
G01*
X-16499840Y18501362D02*
G75*
G03*
X-18501360Y16502380I0J-2001522D01*
G01*
%TD*%
M02*
