%TF.GenerationSoftware,KiCad,Pcbnew,5.1.10-88a1d61d58~90~ubuntu20.04.1*%
%TF.CreationDate,2021-08-22T20:49:50-06:00*%
%TF.ProjectId,Crazyflie contol board,4372617a-7966-46c6-9965-20636f6e746f,F*%
%TF.SameCoordinates,PX85839e8PY6052f5c*%
%TF.FileFunction,Copper,L4,Bot*%
%TF.FilePolarity,Positive*%
%FSLAX46Y46*%
G04 Gerber Fmt 4.6, Leading zero omitted, Abs format (unit mm)*
G04 Created by KiCad (PCBNEW 5.1.10-88a1d61d58~90~ubuntu20.04.1) date 2021-08-22 20:49:50*
%MOMM*%
%LPD*%
G01*
G04 APERTURE LIST*
%ADD10C,0.020000*%
%ADD11C,0.150000*%
%ADD12C,0.300000*%
%ADD13C,0.400000*%
%TA.AperFunction,NonConductor*%
%ADD14C,0.200025*%
%TD*%
%TA.AperFunction,NonConductor*%
%ADD15C,0.200660*%
%TD*%
%TA.AperFunction,ComponentPad*%
%ADD16C,1.800860*%
%TD*%
%TA.AperFunction,SMDPad,CuDef*%
%ADD17R,0.701040X1.000760*%
%TD*%
%TA.AperFunction,SMDPad,CuDef*%
%ADD18R,1.143000X0.635000*%
%TD*%
%TA.AperFunction,SMDPad,CuDef*%
%ADD19R,0.914400X0.914400*%
%TD*%
%TA.AperFunction,ComponentPad*%
%ADD20O,1.600200X1.198880*%
%TD*%
%TA.AperFunction,ComponentPad*%
%ADD21R,1.399540X1.000760*%
%TD*%
%TA.AperFunction,ComponentPad*%
%ADD22O,1.399540X1.000760*%
%TD*%
%TA.AperFunction,ComponentPad*%
%ADD23O,1.198880X0.800100*%
%TD*%
%TA.AperFunction,ComponentPad*%
%ADD24R,1.198880X0.800100*%
%TD*%
%TA.AperFunction,SMDPad,CuDef*%
%ADD25R,0.299720X1.300480*%
%TD*%
%TA.AperFunction,SMDPad,CuDef*%
%ADD26R,1.300480X0.299720*%
%TD*%
%TA.AperFunction,SMDPad,CuDef*%
%ADD27R,1.000760X0.599440*%
%TD*%
%TA.AperFunction,SMDPad,CuDef*%
%ADD28R,0.635000X1.143000*%
%TD*%
%TA.AperFunction,SMDPad,CuDef*%
%ADD29R,1.899920X1.099820*%
%TD*%
%TA.AperFunction,SMDPad,CuDef*%
%ADD30R,1.699260X1.699260*%
%TD*%
%TA.AperFunction,ComponentPad*%
%ADD31C,0.381000*%
%TD*%
%TA.AperFunction,SMDPad,CuDef*%
%ADD32R,0.398780X0.508000*%
%TD*%
%TA.AperFunction,SMDPad,CuDef*%
%ADD33C,0.020000*%
%TD*%
%TA.AperFunction,ComponentPad*%
%ADD34R,1.198880X1.600200*%
%TD*%
%TA.AperFunction,ComponentPad*%
%ADD35O,1.198880X1.600200*%
%TD*%
%TA.AperFunction,SMDPad,CuDef*%
%ADD36R,1.800860X1.899920*%
%TD*%
%TA.AperFunction,SMDPad,CuDef*%
%ADD37R,1.800860X1.099820*%
%TD*%
%TA.AperFunction,SMDPad,CuDef*%
%ADD38R,1.899920X1.899920*%
%TD*%
%TA.AperFunction,SMDPad,CuDef*%
%ADD39R,2.100580X1.600200*%
%TD*%
%TA.AperFunction,SMDPad,CuDef*%
%ADD40R,0.398780X1.399540*%
%TD*%
%TA.AperFunction,SMDPad,CuDef*%
%ADD41R,1.198880X1.899920*%
%TD*%
%TA.AperFunction,ViaPad*%
%ADD42C,0.635000*%
%TD*%
%TA.AperFunction,Conductor*%
%ADD43C,0.254000*%
%TD*%
%TA.AperFunction,Conductor*%
%ADD44C,0.381000*%
%TD*%
%TA.AperFunction,Conductor*%
%ADD45C,0.203200*%
%TD*%
%TA.AperFunction,Conductor*%
%ADD46C,0.152400*%
%TD*%
%TA.AperFunction,Conductor*%
%ADD47C,0.304800*%
%TD*%
%TA.AperFunction,Conductor*%
%ADD48C,0.177800*%
%TD*%
%TA.AperFunction,Conductor*%
%ADD49C,0.020000*%
%TD*%
G04 APERTURE END LIST*
D10*
D11*
X37002480Y-65004100D02*
X37002480Y-97004100D01*
X145002480Y-97004100D01*
X145002480Y-65004100D01*
X37002480Y-65004100D01*
D10*
D11*
X-129999720Y91003100D02*
X-129999720Y-99004100D01*
X147002480Y-99004100D01*
X147002480Y91003100D01*
X-129999720Y91003100D01*
D10*
D11*
X-127999720Y89003100D02*
X-127999720Y-97004100D01*
X145002480Y-97004100D01*
X145002480Y89003100D01*
X-127999720Y89003100D01*
D10*
D11*
X-79999720Y89003100D02*
X-79999720Y91003100D01*
D10*
D11*
X-29999720Y89003100D02*
X-29999720Y91003100D01*
D10*
D11*
X20000280Y89003100D02*
X20000280Y91003100D01*
D10*
D11*
X70000280Y89003100D02*
X70000280Y91003100D01*
D10*
D11*
X120000280Y89003100D02*
X120000280Y91003100D01*
D10*
D11*
X-103934244Y89415005D02*
X-104677101Y89415005D01*
X-104305673Y89415005D02*
X-104305673Y90715005D01*
X-104429482Y90529291D01*
X-104553292Y90405481D01*
X-104677101Y90343577D01*
D10*
D11*
X-54677101Y90591196D02*
X-54615197Y90653100D01*
X-54491387Y90715005D01*
X-54181863Y90715005D01*
X-54058054Y90653100D01*
X-53996149Y90591196D01*
X-53934244Y90467386D01*
X-53934244Y90343577D01*
X-53996149Y90157862D01*
X-54739006Y89415005D01*
X-53934244Y89415005D01*
D10*
D11*
X-4739006Y90715005D02*
X-3934244Y90715005D01*
X-4367578Y90219767D01*
X-4181863Y90219767D01*
X-4058054Y90157862D01*
X-3996149Y90095958D01*
X-3934244Y89972148D01*
X-3934244Y89662624D01*
X-3996149Y89538815D01*
X-4058054Y89476910D01*
X-4181863Y89415005D01*
X-4553292Y89415005D01*
X-4677101Y89476910D01*
X-4739006Y89538815D01*
D10*
D11*
X45941946Y90281672D02*
X45941946Y89415005D01*
X45632422Y90776910D02*
X45322899Y89848339D01*
X46127660Y89848339D01*
D10*
D11*
X96003851Y90715005D02*
X95384803Y90715005D01*
X95322899Y90095958D01*
X95384803Y90157862D01*
X95508613Y90219767D01*
X95818137Y90219767D01*
X95941946Y90157862D01*
X96003851Y90095958D01*
X96065756Y89972148D01*
X96065756Y89662624D01*
X96003851Y89538815D01*
X95941946Y89476910D01*
X95818137Y89415005D01*
X95508613Y89415005D01*
X95384803Y89476910D01*
X95322899Y89538815D01*
D10*
D11*
X145941946Y90715005D02*
X145694327Y90715005D01*
X145570518Y90653100D01*
X145508613Y90591196D01*
X145384803Y90405481D01*
X145322899Y90157862D01*
X145322899Y89662624D01*
X145384803Y89538815D01*
X145446708Y89476910D01*
X145570518Y89415005D01*
X145818137Y89415005D01*
X145941946Y89476910D01*
X146003851Y89538815D01*
X146065756Y89662624D01*
X146065756Y89972148D01*
X146003851Y90095958D01*
X145941946Y90157862D01*
X145818137Y90219767D01*
X145570518Y90219767D01*
X145446708Y90157862D01*
X145384803Y90095958D01*
X145322899Y89972148D01*
D10*
D11*
X-79999720Y-97004100D02*
X-79999720Y-99004100D01*
D10*
D11*
X-29999720Y-97004100D02*
X-29999720Y-99004100D01*
D10*
D11*
X20000280Y-97004100D02*
X20000280Y-99004100D01*
D10*
D11*
X70000280Y-97004100D02*
X70000280Y-99004100D01*
D10*
D11*
X120000280Y-97004100D02*
X120000280Y-99004100D01*
D10*
D11*
X-103934244Y-98592195D02*
X-104677101Y-98592195D01*
X-104305673Y-98592195D02*
X-104305673Y-97292195D01*
X-104429482Y-97477909D01*
X-104553292Y-97601719D01*
X-104677101Y-97663623D01*
D10*
D11*
X-54677101Y-97416004D02*
X-54615197Y-97354100D01*
X-54491387Y-97292195D01*
X-54181863Y-97292195D01*
X-54058054Y-97354100D01*
X-53996149Y-97416004D01*
X-53934244Y-97539814D01*
X-53934244Y-97663623D01*
X-53996149Y-97849338D01*
X-54739006Y-98592195D01*
X-53934244Y-98592195D01*
D10*
D11*
X-4739006Y-97292195D02*
X-3934244Y-97292195D01*
X-4367578Y-97787433D01*
X-4181863Y-97787433D01*
X-4058054Y-97849338D01*
X-3996149Y-97911242D01*
X-3934244Y-98035052D01*
X-3934244Y-98344576D01*
X-3996149Y-98468385D01*
X-4058054Y-98530290D01*
X-4181863Y-98592195D01*
X-4553292Y-98592195D01*
X-4677101Y-98530290D01*
X-4739006Y-98468385D01*
D10*
D11*
X45941946Y-97725528D02*
X45941946Y-98592195D01*
X45632422Y-97230290D02*
X45322899Y-98158861D01*
X46127660Y-98158861D01*
D10*
D11*
X96003851Y-97292195D02*
X95384803Y-97292195D01*
X95322899Y-97911242D01*
X95384803Y-97849338D01*
X95508613Y-97787433D01*
X95818137Y-97787433D01*
X95941946Y-97849338D01*
X96003851Y-97911242D01*
X96065756Y-98035052D01*
X96065756Y-98344576D01*
X96003851Y-98468385D01*
X95941946Y-98530290D01*
X95818137Y-98592195D01*
X95508613Y-98592195D01*
X95384803Y-98530290D01*
X95322899Y-98468385D01*
D10*
D11*
X145941946Y-97292195D02*
X145694327Y-97292195D01*
X145570518Y-97354100D01*
X145508613Y-97416004D01*
X145384803Y-97601719D01*
X145322899Y-97849338D01*
X145322899Y-98344576D01*
X145384803Y-98468385D01*
X145446708Y-98530290D01*
X145570518Y-98592195D01*
X145818137Y-98592195D01*
X145941946Y-98530290D01*
X146003851Y-98468385D01*
X146065756Y-98344576D01*
X146065756Y-98035052D01*
X146003851Y-97911242D01*
X145941946Y-97849338D01*
X145818137Y-97787433D01*
X145570518Y-97787433D01*
X145446708Y-97849338D01*
X145384803Y-97911242D01*
X145322899Y-98035052D01*
D10*
D11*
X-129999720Y41003100D02*
X-127999720Y41003100D01*
D10*
D11*
X-129999720Y-8996900D02*
X-127999720Y-8996900D01*
D10*
D11*
X-129999720Y-58996900D02*
X-127999720Y-58996900D01*
D10*
D11*
X-129309244Y65786434D02*
X-128690197Y65786434D01*
X-129433054Y65415005D02*
X-128999720Y66715005D01*
X-128566387Y65415005D01*
D10*
D11*
X-128906863Y16095958D02*
X-128721149Y16034053D01*
X-128659244Y15972148D01*
X-128597340Y15848339D01*
X-128597340Y15662624D01*
X-128659244Y15538815D01*
X-128721149Y15476910D01*
X-128844959Y15415005D01*
X-129340197Y15415005D01*
X-129340197Y16715005D01*
X-128906863Y16715005D01*
X-128783054Y16653100D01*
X-128721149Y16591196D01*
X-128659244Y16467386D01*
X-128659244Y16343577D01*
X-128721149Y16219767D01*
X-128783054Y16157862D01*
X-128906863Y16095958D01*
X-129340197Y16095958D01*
D10*
D11*
X-128597340Y-34461185D02*
X-128659244Y-34523090D01*
X-128844959Y-34584995D01*
X-128968768Y-34584995D01*
X-129154482Y-34523090D01*
X-129278292Y-34399280D01*
X-129340197Y-34275471D01*
X-129402101Y-34027852D01*
X-129402101Y-33842138D01*
X-129340197Y-33594519D01*
X-129278292Y-33470709D01*
X-129154482Y-33346900D01*
X-128968768Y-33284995D01*
X-128844959Y-33284995D01*
X-128659244Y-33346900D01*
X-128597340Y-33408804D01*
D10*
D11*
X-129340197Y-84584995D02*
X-129340197Y-83284995D01*
X-129030673Y-83284995D01*
X-128844959Y-83346900D01*
X-128721149Y-83470709D01*
X-128659244Y-83594519D01*
X-128597340Y-83842138D01*
X-128597340Y-84027852D01*
X-128659244Y-84275471D01*
X-128721149Y-84399280D01*
X-128844959Y-84523090D01*
X-129030673Y-84584995D01*
X-129340197Y-84584995D01*
D10*
D11*
X147002480Y41003100D02*
X145002480Y41003100D01*
D10*
D11*
X147002480Y-8996900D02*
X145002480Y-8996900D01*
D10*
D11*
X147002480Y-58996900D02*
X145002480Y-58996900D01*
D10*
D11*
X145692956Y65786434D02*
X146312003Y65786434D01*
X145569146Y65415005D02*
X146002480Y66715005D01*
X146435813Y65415005D01*
D10*
D11*
X146095337Y16095958D02*
X146281051Y16034053D01*
X146342956Y15972148D01*
X146404860Y15848339D01*
X146404860Y15662624D01*
X146342956Y15538815D01*
X146281051Y15476910D01*
X146157241Y15415005D01*
X145662003Y15415005D01*
X145662003Y16715005D01*
X146095337Y16715005D01*
X146219146Y16653100D01*
X146281051Y16591196D01*
X146342956Y16467386D01*
X146342956Y16343577D01*
X146281051Y16219767D01*
X146219146Y16157862D01*
X146095337Y16095958D01*
X145662003Y16095958D01*
D10*
D11*
X146404860Y-34461185D02*
X146342956Y-34523090D01*
X146157241Y-34584995D01*
X146033432Y-34584995D01*
X145847718Y-34523090D01*
X145723908Y-34399280D01*
X145662003Y-34275471D01*
X145600099Y-34027852D01*
X145600099Y-33842138D01*
X145662003Y-33594519D01*
X145723908Y-33470709D01*
X145847718Y-33346900D01*
X146033432Y-33284995D01*
X146157241Y-33284995D01*
X146342956Y-33346900D01*
X146404860Y-33408804D01*
D10*
D11*
X145662003Y-84584995D02*
X145662003Y-83284995D01*
X145971527Y-83284995D01*
X146157241Y-83346900D01*
X146281051Y-83470709D01*
X146342956Y-83594519D01*
X146404860Y-83842138D01*
X146404860Y-84027852D01*
X146342956Y-84275471D01*
X146281051Y-84399280D01*
X146157241Y-84523090D01*
X145971527Y-84584995D01*
X145662003Y-84584995D01*
D10*
D11*
X60434622Y-92782671D02*
X60434622Y-91282671D01*
X60791765Y-91282671D01*
X61006051Y-91354100D01*
X61148908Y-91496957D01*
X61220337Y-91639814D01*
X61291765Y-91925528D01*
X61291765Y-92139814D01*
X61220337Y-92425528D01*
X61148908Y-92568385D01*
X61006051Y-92711242D01*
X60791765Y-92782671D01*
X60434622Y-92782671D01*
X62577480Y-92782671D02*
X62577480Y-91996957D01*
X62506051Y-91854100D01*
X62363194Y-91782671D01*
X62077480Y-91782671D01*
X61934622Y-91854100D01*
X62577480Y-92711242D02*
X62434622Y-92782671D01*
X62077480Y-92782671D01*
X61934622Y-92711242D01*
X61863194Y-92568385D01*
X61863194Y-92425528D01*
X61934622Y-92282671D01*
X62077480Y-92211242D01*
X62434622Y-92211242D01*
X62577480Y-92139814D01*
X63077480Y-91782671D02*
X63648908Y-91782671D01*
X63291765Y-91282671D02*
X63291765Y-92568385D01*
X63363194Y-92711242D01*
X63506051Y-92782671D01*
X63648908Y-92782671D01*
X64720337Y-92711242D02*
X64577480Y-92782671D01*
X64291765Y-92782671D01*
X64148908Y-92711242D01*
X64077480Y-92568385D01*
X64077480Y-91996957D01*
X64148908Y-91854100D01*
X64291765Y-91782671D01*
X64577480Y-91782671D01*
X64720337Y-91854100D01*
X64791765Y-91996957D01*
X64791765Y-92139814D01*
X64077480Y-92282671D01*
X65434622Y-92639814D02*
X65506051Y-92711242D01*
X65434622Y-92782671D01*
X65363194Y-92711242D01*
X65434622Y-92639814D01*
X65434622Y-92782671D01*
X65434622Y-91854100D02*
X65506051Y-91925528D01*
X65434622Y-91996957D01*
X65363194Y-91925528D01*
X65434622Y-91854100D01*
X65434622Y-91996957D01*
X67220337Y-91425528D02*
X67291765Y-91354100D01*
X67434622Y-91282671D01*
X67791765Y-91282671D01*
X67934622Y-91354100D01*
X68006051Y-91425528D01*
X68077480Y-91568385D01*
X68077480Y-91711242D01*
X68006051Y-91925528D01*
X67148908Y-92782671D01*
X68077480Y-92782671D01*
X69006051Y-91282671D02*
X69148908Y-91282671D01*
X69291765Y-91354100D01*
X69363194Y-91425528D01*
X69434622Y-91568385D01*
X69506051Y-91854100D01*
X69506051Y-92211242D01*
X69434622Y-92496957D01*
X69363194Y-92639814D01*
X69291765Y-92711242D01*
X69148908Y-92782671D01*
X69006051Y-92782671D01*
X68863194Y-92711242D01*
X68791765Y-92639814D01*
X68720337Y-92496957D01*
X68648908Y-92211242D01*
X68648908Y-91854100D01*
X68720337Y-91568385D01*
X68791765Y-91425528D01*
X68863194Y-91354100D01*
X69006051Y-91282671D01*
X70077480Y-91425528D02*
X70148908Y-91354100D01*
X70291765Y-91282671D01*
X70648908Y-91282671D01*
X70791765Y-91354100D01*
X70863194Y-91425528D01*
X70934622Y-91568385D01*
X70934622Y-91711242D01*
X70863194Y-91925528D01*
X70006051Y-92782671D01*
X70934622Y-92782671D01*
X72363194Y-92782671D02*
X71506051Y-92782671D01*
X71934622Y-92782671D02*
X71934622Y-91282671D01*
X71791765Y-91496957D01*
X71648908Y-91639814D01*
X71506051Y-91711242D01*
X73006051Y-92211242D02*
X74148908Y-92211242D01*
X75148908Y-91282671D02*
X75291765Y-91282671D01*
X75434622Y-91354100D01*
X75506051Y-91425528D01*
X75577480Y-91568385D01*
X75648908Y-91854100D01*
X75648908Y-92211242D01*
X75577480Y-92496957D01*
X75506051Y-92639814D01*
X75434622Y-92711242D01*
X75291765Y-92782671D01*
X75148908Y-92782671D01*
X75006051Y-92711242D01*
X74934622Y-92639814D01*
X74863194Y-92496957D01*
X74791765Y-92211242D01*
X74791765Y-91854100D01*
X74863194Y-91568385D01*
X74934622Y-91425528D01*
X75006051Y-91354100D01*
X75148908Y-91282671D01*
X76506051Y-91925528D02*
X76363194Y-91854100D01*
X76291765Y-91782671D01*
X76220337Y-91639814D01*
X76220337Y-91568385D01*
X76291765Y-91425528D01*
X76363194Y-91354100D01*
X76506051Y-91282671D01*
X76791765Y-91282671D01*
X76934622Y-91354100D01*
X77006051Y-91425528D01*
X77077480Y-91568385D01*
X77077480Y-91639814D01*
X77006051Y-91782671D01*
X76934622Y-91854100D01*
X76791765Y-91925528D01*
X76506051Y-91925528D01*
X76363194Y-91996957D01*
X76291765Y-92068385D01*
X76220337Y-92211242D01*
X76220337Y-92496957D01*
X76291765Y-92639814D01*
X76363194Y-92711242D01*
X76506051Y-92782671D01*
X76791765Y-92782671D01*
X76934622Y-92711242D01*
X77006051Y-92639814D01*
X77077480Y-92496957D01*
X77077480Y-92211242D01*
X77006051Y-92068385D01*
X76934622Y-91996957D01*
X76791765Y-91925528D01*
X77720337Y-92211242D02*
X78863194Y-92211242D01*
X79863194Y-91282671D02*
X80006051Y-91282671D01*
X80148908Y-91354100D01*
X80220337Y-91425528D01*
X80291765Y-91568385D01*
X80363194Y-91854100D01*
X80363194Y-92211242D01*
X80291765Y-92496957D01*
X80220337Y-92639814D01*
X80148908Y-92711242D01*
X80006051Y-92782671D01*
X79863194Y-92782671D01*
X79720337Y-92711242D01*
X79648908Y-92639814D01*
X79577480Y-92496957D01*
X79506051Y-92211242D01*
X79506051Y-91854100D01*
X79577480Y-91568385D01*
X79648908Y-91425528D01*
X79720337Y-91354100D01*
X79863194Y-91282671D01*
X81077480Y-92782671D02*
X81363194Y-92782671D01*
X81506051Y-92711242D01*
X81577480Y-92639814D01*
X81720337Y-92425528D01*
X81791765Y-92139814D01*
X81791765Y-91568385D01*
X81720337Y-91425528D01*
X81648908Y-91354100D01*
X81506051Y-91282671D01*
X81220337Y-91282671D01*
X81077480Y-91354100D01*
X81006051Y-91425528D01*
X80934622Y-91568385D01*
X80934622Y-91925528D01*
X81006051Y-92068385D01*
X81077480Y-92139814D01*
X81220337Y-92211242D01*
X81506051Y-92211242D01*
X81648908Y-92139814D01*
X81720337Y-92068385D01*
X81791765Y-91925528D01*
D10*
D11*
X37002480Y-93504100D02*
X145002480Y-93504100D01*
D10*
D11*
X38434622Y-95582671D02*
X38434622Y-94082671D01*
X39291765Y-95582671D02*
X38648908Y-94725528D01*
X39291765Y-94082671D02*
X38434622Y-94939814D01*
X39934622Y-95582671D02*
X39934622Y-94582671D01*
X39934622Y-94082671D02*
X39863194Y-94154100D01*
X39934622Y-94225528D01*
X40006051Y-94154100D01*
X39934622Y-94082671D01*
X39934622Y-94225528D01*
X41506051Y-95439814D02*
X41434622Y-95511242D01*
X41220337Y-95582671D01*
X41077480Y-95582671D01*
X40863194Y-95511242D01*
X40720337Y-95368385D01*
X40648908Y-95225528D01*
X40577480Y-94939814D01*
X40577480Y-94725528D01*
X40648908Y-94439814D01*
X40720337Y-94296957D01*
X40863194Y-94154100D01*
X41077480Y-94082671D01*
X41220337Y-94082671D01*
X41434622Y-94154100D01*
X41506051Y-94225528D01*
X42791765Y-95582671D02*
X42791765Y-94796957D01*
X42720337Y-94654100D01*
X42577480Y-94582671D01*
X42291765Y-94582671D01*
X42148908Y-94654100D01*
X42791765Y-95511242D02*
X42648908Y-95582671D01*
X42291765Y-95582671D01*
X42148908Y-95511242D01*
X42077480Y-95368385D01*
X42077480Y-95225528D01*
X42148908Y-95082671D01*
X42291765Y-95011242D01*
X42648908Y-95011242D01*
X42791765Y-94939814D01*
X44148908Y-95582671D02*
X44148908Y-94082671D01*
X44148908Y-95511242D02*
X44006051Y-95582671D01*
X43720337Y-95582671D01*
X43577480Y-95511242D01*
X43506051Y-95439814D01*
X43434622Y-95296957D01*
X43434622Y-94868385D01*
X43506051Y-94725528D01*
X43577480Y-94654100D01*
X43720337Y-94582671D01*
X44006051Y-94582671D01*
X44148908Y-94654100D01*
X46006051Y-94796957D02*
X46506051Y-94796957D01*
X46720337Y-95582671D02*
X46006051Y-95582671D01*
X46006051Y-94082671D01*
X46720337Y-94082671D01*
X47363194Y-95439814D02*
X47434622Y-95511242D01*
X47363194Y-95582671D01*
X47291765Y-95511242D01*
X47363194Y-95439814D01*
X47363194Y-95582671D01*
X48077480Y-95582671D02*
X48077480Y-94082671D01*
X48434622Y-94082671D01*
X48648908Y-94154100D01*
X48791765Y-94296957D01*
X48863194Y-94439814D01*
X48934622Y-94725528D01*
X48934622Y-94939814D01*
X48863194Y-95225528D01*
X48791765Y-95368385D01*
X48648908Y-95511242D01*
X48434622Y-95582671D01*
X48077480Y-95582671D01*
X49577480Y-95439814D02*
X49648908Y-95511242D01*
X49577480Y-95582671D01*
X49506051Y-95511242D01*
X49577480Y-95439814D01*
X49577480Y-95582671D01*
X50220337Y-95154100D02*
X50934622Y-95154100D01*
X50077480Y-95582671D02*
X50577480Y-94082671D01*
X51077480Y-95582671D01*
X51577480Y-95439814D02*
X51648908Y-95511242D01*
X51577480Y-95582671D01*
X51506051Y-95511242D01*
X51577480Y-95439814D01*
X51577480Y-95582671D01*
X54577480Y-95582671D02*
X54577480Y-94082671D01*
X54720337Y-95011242D02*
X55148908Y-95582671D01*
X55148908Y-94582671D02*
X54577480Y-95154100D01*
X55791765Y-95582671D02*
X55791765Y-94582671D01*
X55791765Y-94082671D02*
X55720337Y-94154100D01*
X55791765Y-94225528D01*
X55863194Y-94154100D01*
X55791765Y-94082671D01*
X55791765Y-94225528D01*
X57148908Y-95511242D02*
X57006051Y-95582671D01*
X56720337Y-95582671D01*
X56577480Y-95511242D01*
X56506051Y-95439814D01*
X56434622Y-95296957D01*
X56434622Y-94868385D01*
X56506051Y-94725528D01*
X56577480Y-94654100D01*
X56720337Y-94582671D01*
X57006051Y-94582671D01*
X57148908Y-94654100D01*
X58434622Y-95582671D02*
X58434622Y-94796957D01*
X58363194Y-94654100D01*
X58220337Y-94582671D01*
X57934622Y-94582671D01*
X57791765Y-94654100D01*
X58434622Y-95511242D02*
X58291765Y-95582671D01*
X57934622Y-95582671D01*
X57791765Y-95511242D01*
X57720337Y-95368385D01*
X57720337Y-95225528D01*
X57791765Y-95082671D01*
X57934622Y-95011242D01*
X58291765Y-95011242D01*
X58434622Y-94939814D01*
X59791765Y-95582671D02*
X59791765Y-94082671D01*
X59791765Y-95511242D02*
X59648908Y-95582671D01*
X59363194Y-95582671D01*
X59220337Y-95511242D01*
X59148908Y-95439814D01*
X59077480Y-95296957D01*
X59077480Y-94868385D01*
X59148908Y-94725528D01*
X59220337Y-94654100D01*
X59363194Y-94582671D01*
X59648908Y-94582671D01*
X59791765Y-94654100D01*
X62363194Y-94082671D02*
X61648908Y-94082671D01*
X61577480Y-94796957D01*
X61648908Y-94725528D01*
X61791765Y-94654100D01*
X62148908Y-94654100D01*
X62291765Y-94725528D01*
X62363194Y-94796957D01*
X62434622Y-94939814D01*
X62434622Y-95296957D01*
X62363194Y-95439814D01*
X62291765Y-95511242D01*
X62148908Y-95582671D01*
X61791765Y-95582671D01*
X61648908Y-95511242D01*
X61577480Y-95439814D01*
X63077480Y-95439814D02*
X63148908Y-95511242D01*
X63077480Y-95582671D01*
X63006051Y-95511242D01*
X63077480Y-95439814D01*
X63077480Y-95582671D01*
X64577480Y-95582671D02*
X63720337Y-95582671D01*
X64148908Y-95582671D02*
X64148908Y-94082671D01*
X64006051Y-94296957D01*
X63863194Y-94439814D01*
X63720337Y-94511242D01*
X65220337Y-95439814D02*
X65291765Y-95511242D01*
X65220337Y-95582671D01*
X65148908Y-95511242D01*
X65220337Y-95439814D01*
X65220337Y-95582671D01*
X66720337Y-95582671D02*
X65863194Y-95582671D01*
X66291765Y-95582671D02*
X66291765Y-94082671D01*
X66148908Y-94296957D01*
X66006051Y-94439814D01*
X65863194Y-94511242D01*
X67648908Y-94082671D02*
X67791765Y-94082671D01*
X67934622Y-94154100D01*
X68006051Y-94225528D01*
X68077480Y-94368385D01*
X68148908Y-94654100D01*
X68148908Y-95011242D01*
X68077480Y-95296957D01*
X68006051Y-95439814D01*
X67934622Y-95511242D01*
X67791765Y-95582671D01*
X67648908Y-95582671D01*
X67506051Y-95511242D01*
X67434622Y-95439814D01*
X67363194Y-95296957D01*
X67291765Y-95011242D01*
X67291765Y-94654100D01*
X67363194Y-94368385D01*
X67434622Y-94225528D01*
X67506051Y-94154100D01*
X67648908Y-94082671D01*
X68791765Y-95011242D02*
X69934622Y-95011242D01*
X70863194Y-94725528D02*
X70720337Y-94654100D01*
X70648908Y-94582671D01*
X70577480Y-94439814D01*
X70577480Y-94368385D01*
X70648908Y-94225528D01*
X70720337Y-94154100D01*
X70863194Y-94082671D01*
X71148908Y-94082671D01*
X71291765Y-94154100D01*
X71363194Y-94225528D01*
X71434622Y-94368385D01*
X71434622Y-94439814D01*
X71363194Y-94582671D01*
X71291765Y-94654100D01*
X71148908Y-94725528D01*
X70863194Y-94725528D01*
X70720337Y-94796957D01*
X70648908Y-94868385D01*
X70577480Y-95011242D01*
X70577480Y-95296957D01*
X70648908Y-95439814D01*
X70720337Y-95511242D01*
X70863194Y-95582671D01*
X71148908Y-95582671D01*
X71291765Y-95511242D01*
X71363194Y-95439814D01*
X71434622Y-95296957D01*
X71434622Y-95011242D01*
X71363194Y-94868385D01*
X71291765Y-94796957D01*
X71148908Y-94725528D01*
X72291765Y-94725528D02*
X72148908Y-94654100D01*
X72077480Y-94582671D01*
X72006051Y-94439814D01*
X72006051Y-94368385D01*
X72077480Y-94225528D01*
X72148908Y-94154100D01*
X72291765Y-94082671D01*
X72577480Y-94082671D01*
X72720337Y-94154100D01*
X72791765Y-94225528D01*
X72863194Y-94368385D01*
X72863194Y-94439814D01*
X72791765Y-94582671D01*
X72720337Y-94654100D01*
X72577480Y-94725528D01*
X72291765Y-94725528D01*
X72148908Y-94796957D01*
X72077480Y-94868385D01*
X72006051Y-95011242D01*
X72006051Y-95296957D01*
X72077480Y-95439814D01*
X72148908Y-95511242D01*
X72291765Y-95582671D01*
X72577480Y-95582671D01*
X72720337Y-95511242D01*
X72791765Y-95439814D01*
X72863194Y-95296957D01*
X72863194Y-95011242D01*
X72791765Y-94868385D01*
X72720337Y-94796957D01*
X72577480Y-94725528D01*
X74148908Y-95582671D02*
X74148908Y-94796957D01*
X74077480Y-94654100D01*
X73934622Y-94582671D01*
X73648908Y-94582671D01*
X73506051Y-94654100D01*
X74148908Y-95511242D02*
X74006051Y-95582671D01*
X73648908Y-95582671D01*
X73506051Y-95511242D01*
X73434622Y-95368385D01*
X73434622Y-95225528D01*
X73506051Y-95082671D01*
X73648908Y-95011242D01*
X74006051Y-95011242D01*
X74148908Y-94939814D01*
X75648908Y-95582671D02*
X74791765Y-95582671D01*
X75220337Y-95582671D02*
X75220337Y-94082671D01*
X75077480Y-94296957D01*
X74934622Y-94439814D01*
X74791765Y-94511242D01*
X76934622Y-95582671D02*
X76934622Y-94082671D01*
X76934622Y-95511242D02*
X76791765Y-95582671D01*
X76506051Y-95582671D01*
X76363194Y-95511242D01*
X76291765Y-95439814D01*
X76220337Y-95296957D01*
X76220337Y-94868385D01*
X76291765Y-94725528D01*
X76363194Y-94654100D01*
X76506051Y-94582671D01*
X76791765Y-94582671D01*
X76934622Y-94654100D01*
X78291765Y-94082671D02*
X78006051Y-94082671D01*
X77863194Y-94154100D01*
X77791765Y-94225528D01*
X77648908Y-94439814D01*
X77577480Y-94725528D01*
X77577480Y-95296957D01*
X77648908Y-95439814D01*
X77720337Y-95511242D01*
X77863194Y-95582671D01*
X78148908Y-95582671D01*
X78291765Y-95511242D01*
X78363194Y-95439814D01*
X78434622Y-95296957D01*
X78434622Y-94939814D01*
X78363194Y-94796957D01*
X78291765Y-94725528D01*
X78148908Y-94654100D01*
X77863194Y-94654100D01*
X77720337Y-94725528D01*
X77648908Y-94796957D01*
X77577480Y-94939814D01*
X79863194Y-95582671D02*
X79006051Y-95582671D01*
X79434622Y-95582671D02*
X79434622Y-94082671D01*
X79291765Y-94296957D01*
X79148908Y-94439814D01*
X79006051Y-94511242D01*
X81148908Y-95582671D02*
X81148908Y-94082671D01*
X81148908Y-95511242D02*
X81006051Y-95582671D01*
X80720337Y-95582671D01*
X80577480Y-95511242D01*
X80506051Y-95439814D01*
X80434622Y-95296957D01*
X80434622Y-94868385D01*
X80506051Y-94725528D01*
X80577480Y-94654100D01*
X80720337Y-94582671D01*
X81006051Y-94582671D01*
X81148908Y-94654100D01*
X82577480Y-94082671D02*
X81863194Y-94082671D01*
X81791765Y-94796957D01*
X81863194Y-94725528D01*
X82006051Y-94654100D01*
X82363194Y-94654100D01*
X82506051Y-94725528D01*
X82577480Y-94796957D01*
X82648908Y-94939814D01*
X82648908Y-95296957D01*
X82577480Y-95439814D01*
X82506051Y-95511242D01*
X82363194Y-95582671D01*
X82006051Y-95582671D01*
X81863194Y-95511242D01*
X81791765Y-95439814D01*
X83506051Y-94725528D02*
X83363194Y-94654100D01*
X83291765Y-94582671D01*
X83220337Y-94439814D01*
X83220337Y-94368385D01*
X83291765Y-94225528D01*
X83363194Y-94154100D01*
X83506051Y-94082671D01*
X83791765Y-94082671D01*
X83934622Y-94154100D01*
X84006051Y-94225528D01*
X84077480Y-94368385D01*
X84077480Y-94439814D01*
X84006051Y-94582671D01*
X83934622Y-94654100D01*
X83791765Y-94725528D01*
X83506051Y-94725528D01*
X83363194Y-94796957D01*
X83291765Y-94868385D01*
X83220337Y-95011242D01*
X83220337Y-95296957D01*
X83291765Y-95439814D01*
X83363194Y-95511242D01*
X83506051Y-95582671D01*
X83791765Y-95582671D01*
X83934622Y-95511242D01*
X84006051Y-95439814D01*
X84077480Y-95296957D01*
X84077480Y-95011242D01*
X84006051Y-94868385D01*
X83934622Y-94796957D01*
X83791765Y-94725528D01*
X84363194Y-93674100D02*
X85791765Y-93674100D01*
X84791765Y-95582671D02*
X85077480Y-95582671D01*
X85220337Y-95511242D01*
X85291765Y-95439814D01*
X85434622Y-95225528D01*
X85506051Y-94939814D01*
X85506051Y-94368385D01*
X85434622Y-94225528D01*
X85363194Y-94154100D01*
X85220337Y-94082671D01*
X84934622Y-94082671D01*
X84791765Y-94154100D01*
X84720337Y-94225528D01*
X84648908Y-94368385D01*
X84648908Y-94725528D01*
X84720337Y-94868385D01*
X84791765Y-94939814D01*
X84934622Y-95011242D01*
X85220337Y-95011242D01*
X85363194Y-94939814D01*
X85434622Y-94868385D01*
X85506051Y-94725528D01*
X85791765Y-93674100D02*
X87220337Y-93674100D01*
X86434622Y-94082671D02*
X86577479Y-94082671D01*
X86720337Y-94154100D01*
X86791765Y-94225528D01*
X86863194Y-94368385D01*
X86934622Y-94654100D01*
X86934622Y-95011242D01*
X86863194Y-95296957D01*
X86791765Y-95439814D01*
X86720337Y-95511242D01*
X86577479Y-95582671D01*
X86434622Y-95582671D01*
X86291765Y-95511242D01*
X86220337Y-95439814D01*
X86148908Y-95296957D01*
X86077479Y-95011242D01*
X86077479Y-94654100D01*
X86148908Y-94368385D01*
X86220337Y-94225528D01*
X86291765Y-94154100D01*
X86434622Y-94082671D01*
X88220337Y-94582671D02*
X88220337Y-95582671D01*
X87577479Y-94582671D02*
X87577479Y-95368385D01*
X87648908Y-95511242D01*
X87791765Y-95582671D01*
X88006051Y-95582671D01*
X88148908Y-95511242D01*
X88220337Y-95439814D01*
X88934622Y-95582671D02*
X88934622Y-94082671D01*
X88934622Y-94654100D02*
X89077479Y-94582671D01*
X89363194Y-94582671D01*
X89506051Y-94654100D01*
X89577479Y-94725528D01*
X89648908Y-94868385D01*
X89648908Y-95296957D01*
X89577479Y-95439814D01*
X89506051Y-95511242D01*
X89363194Y-95582671D01*
X89077479Y-95582671D01*
X88934622Y-95511242D01*
X90934622Y-94582671D02*
X90934622Y-95582671D01*
X90291765Y-94582671D02*
X90291765Y-95368385D01*
X90363194Y-95511242D01*
X90506051Y-95582671D01*
X90720337Y-95582671D01*
X90863194Y-95511242D01*
X90934622Y-95439814D01*
X91648908Y-94582671D02*
X91648908Y-95582671D01*
X91648908Y-94725528D02*
X91720337Y-94654100D01*
X91863194Y-94582671D01*
X92077479Y-94582671D01*
X92220337Y-94654100D01*
X92291765Y-94796957D01*
X92291765Y-95582671D01*
X92791765Y-94582671D02*
X93363194Y-94582671D01*
X93006051Y-94082671D02*
X93006051Y-95368385D01*
X93077479Y-95511242D01*
X93220337Y-95582671D01*
X93363194Y-95582671D01*
X94506051Y-94582671D02*
X94506051Y-95582671D01*
X93863194Y-94582671D02*
X93863194Y-95368385D01*
X93934622Y-95511242D01*
X94077480Y-95582671D01*
X94291765Y-95582671D01*
X94434622Y-95511242D01*
X94506051Y-95439814D01*
X95148908Y-94225528D02*
X95220337Y-94154100D01*
X95363194Y-94082671D01*
X95720337Y-94082671D01*
X95863194Y-94154100D01*
X95934622Y-94225528D01*
X96006051Y-94368385D01*
X96006051Y-94511242D01*
X95934622Y-94725528D01*
X95077480Y-95582671D01*
X96006051Y-95582671D01*
X96934622Y-94082671D02*
X97077479Y-94082671D01*
X97220337Y-94154100D01*
X97291765Y-94225528D01*
X97363194Y-94368385D01*
X97434622Y-94654100D01*
X97434622Y-95011242D01*
X97363194Y-95296957D01*
X97291765Y-95439814D01*
X97220337Y-95511242D01*
X97077479Y-95582671D01*
X96934622Y-95582671D01*
X96791765Y-95511242D01*
X96720337Y-95439814D01*
X96648908Y-95296957D01*
X96577479Y-95011242D01*
X96577479Y-94654100D01*
X96648908Y-94368385D01*
X96720337Y-94225528D01*
X96791765Y-94154100D01*
X96934622Y-94082671D01*
X98077479Y-95439814D02*
X98148908Y-95511242D01*
X98077479Y-95582671D01*
X98006051Y-95511242D01*
X98077479Y-95439814D01*
X98077479Y-95582671D01*
X99077479Y-94082671D02*
X99220337Y-94082671D01*
X99363194Y-94154100D01*
X99434622Y-94225528D01*
X99506051Y-94368385D01*
X99577479Y-94654100D01*
X99577479Y-95011242D01*
X99506051Y-95296957D01*
X99434622Y-95439814D01*
X99363194Y-95511242D01*
X99220337Y-95582671D01*
X99077479Y-95582671D01*
X98934622Y-95511242D01*
X98863194Y-95439814D01*
X98791765Y-95296957D01*
X98720337Y-95011242D01*
X98720337Y-94654100D01*
X98791765Y-94368385D01*
X98863194Y-94225528D01*
X98934622Y-94154100D01*
X99077479Y-94082671D01*
X100863194Y-94582671D02*
X100863194Y-95582671D01*
X100506051Y-94011242D02*
X100148908Y-95082671D01*
X101077479Y-95082671D01*
X101648908Y-95439814D02*
X101720337Y-95511242D01*
X101648908Y-95582671D01*
X101577479Y-95511242D01*
X101648908Y-95439814D01*
X101648908Y-95582671D01*
X103148908Y-95582671D02*
X102291765Y-95582671D01*
X102720337Y-95582671D02*
X102720337Y-94082671D01*
X102577479Y-94296957D01*
X102434622Y-94439814D01*
X102291765Y-94511242D01*
D10*
D11*
X37002480Y-90504100D02*
X145002480Y-90504100D01*
D10*
D12*
X124411765Y-92782671D02*
X123911765Y-92068385D01*
X123554622Y-92782671D02*
X123554622Y-91282671D01*
X124126051Y-91282671D01*
X124268908Y-91354100D01*
X124340337Y-91425528D01*
X124411765Y-91568385D01*
X124411765Y-91782671D01*
X124340337Y-91925528D01*
X124268908Y-91996957D01*
X124126051Y-92068385D01*
X123554622Y-92068385D01*
X125626051Y-92711242D02*
X125483194Y-92782671D01*
X125197480Y-92782671D01*
X125054622Y-92711242D01*
X124983194Y-92568385D01*
X124983194Y-91996957D01*
X125054622Y-91854100D01*
X125197480Y-91782671D01*
X125483194Y-91782671D01*
X125626051Y-91854100D01*
X125697480Y-91996957D01*
X125697480Y-92139814D01*
X124983194Y-92282671D01*
X126197480Y-91782671D02*
X126554622Y-92782671D01*
X126911765Y-91782671D01*
X127483194Y-92639814D02*
X127554622Y-92711242D01*
X127483194Y-92782671D01*
X127411765Y-92711242D01*
X127483194Y-92639814D01*
X127483194Y-92782671D01*
X127483194Y-91854100D02*
X127554622Y-91925528D01*
X127483194Y-91996957D01*
X127411765Y-91925528D01*
X127483194Y-91854100D01*
X127483194Y-91996957D01*
X129840337Y-91996957D02*
X129340337Y-91996957D01*
X129340337Y-92782671D02*
X129340337Y-91282671D01*
X130054622Y-91282671D01*
D10*
D11*
X38363194Y-92711242D02*
X38577480Y-92782671D01*
X38934622Y-92782671D01*
X39077480Y-92711242D01*
X39148908Y-92639814D01*
X39220337Y-92496957D01*
X39220337Y-92354100D01*
X39148908Y-92211242D01*
X39077480Y-92139814D01*
X38934622Y-92068385D01*
X38648908Y-91996957D01*
X38506051Y-91925528D01*
X38434622Y-91854100D01*
X38363194Y-91711242D01*
X38363194Y-91568385D01*
X38434622Y-91425528D01*
X38506051Y-91354100D01*
X38648908Y-91282671D01*
X39006051Y-91282671D01*
X39220337Y-91354100D01*
X39863194Y-92782671D02*
X39863194Y-91782671D01*
X39863194Y-91282671D02*
X39791765Y-91354100D01*
X39863194Y-91425528D01*
X39934622Y-91354100D01*
X39863194Y-91282671D01*
X39863194Y-91425528D01*
X40434622Y-91782671D02*
X41220337Y-91782671D01*
X40434622Y-92782671D01*
X41220337Y-92782671D01*
X42363194Y-92711242D02*
X42220337Y-92782671D01*
X41934622Y-92782671D01*
X41791765Y-92711242D01*
X41720337Y-92568385D01*
X41720337Y-91996957D01*
X41791765Y-91854100D01*
X41934622Y-91782671D01*
X42220337Y-91782671D01*
X42363194Y-91854100D01*
X42434622Y-91996957D01*
X42434622Y-92139814D01*
X41720337Y-92282671D01*
X43077480Y-92639814D02*
X43148908Y-92711242D01*
X43077480Y-92782671D01*
X43006051Y-92711242D01*
X43077480Y-92639814D01*
X43077480Y-92782671D01*
X43077480Y-91854100D02*
X43148908Y-91925528D01*
X43077480Y-91996957D01*
X43006051Y-91925528D01*
X43077480Y-91854100D01*
X43077480Y-91996957D01*
X44863194Y-92354100D02*
X45577480Y-92354100D01*
X44720337Y-92782671D02*
X45220337Y-91282671D01*
X45720337Y-92782671D01*
X46863194Y-91782671D02*
X46863194Y-92782671D01*
X46506051Y-91211242D02*
X46148908Y-92282671D01*
X47077480Y-92282671D01*
D10*
D11*
X123434622Y-95582671D02*
X123434622Y-94082671D01*
X124791765Y-95582671D02*
X124791765Y-94082671D01*
X124791765Y-95511242D02*
X124648908Y-95582671D01*
X124363194Y-95582671D01*
X124220337Y-95511242D01*
X124148908Y-95439814D01*
X124077480Y-95296957D01*
X124077480Y-94868385D01*
X124148908Y-94725528D01*
X124220337Y-94654100D01*
X124363194Y-94582671D01*
X124648908Y-94582671D01*
X124791765Y-94654100D01*
X125506051Y-95439814D02*
X125577480Y-95511242D01*
X125506051Y-95582671D01*
X125434622Y-95511242D01*
X125506051Y-95439814D01*
X125506051Y-95582671D01*
X125506051Y-94654100D02*
X125577480Y-94725528D01*
X125506051Y-94796957D01*
X125434622Y-94725528D01*
X125506051Y-94654100D01*
X125506051Y-94796957D01*
X128148908Y-95582671D02*
X127291765Y-95582671D01*
X127720337Y-95582671D02*
X127720337Y-94082671D01*
X127577480Y-94296957D01*
X127434622Y-94439814D01*
X127291765Y-94511242D01*
X129863194Y-94011242D02*
X128577480Y-95939814D01*
X131148908Y-95582671D02*
X130291765Y-95582671D01*
X130720337Y-95582671D02*
X130720337Y-94082671D01*
X130577480Y-94296957D01*
X130434622Y-94439814D01*
X130291765Y-94511242D01*
D10*
D11*
X37002480Y-86504100D02*
X145002480Y-86504100D01*
D10*
D13*
X38714860Y-87208861D02*
X39857718Y-87208861D01*
X39036289Y-89208861D02*
X39286289Y-87208861D01*
X40274384Y-89208861D02*
X40441051Y-87875528D01*
X40524384Y-87208861D02*
X40417241Y-87304100D01*
X40500575Y-87399338D01*
X40607718Y-87304100D01*
X40524384Y-87208861D01*
X40500575Y-87399338D01*
X41107718Y-87875528D02*
X41869622Y-87875528D01*
X41476765Y-87208861D02*
X41262480Y-88923147D01*
X41333908Y-89113623D01*
X41512480Y-89208861D01*
X41702956Y-89208861D01*
X42655337Y-89208861D02*
X42476765Y-89113623D01*
X42405337Y-88923147D01*
X42619622Y-87208861D01*
X44191051Y-89113623D02*
X43988670Y-89208861D01*
X43607718Y-89208861D01*
X43429146Y-89113623D01*
X43357718Y-88923147D01*
X43452956Y-88161242D01*
X43572003Y-87970766D01*
X43774384Y-87875528D01*
X44155337Y-87875528D01*
X44333908Y-87970766D01*
X44405337Y-88161242D01*
X44381527Y-88351719D01*
X43405337Y-88542195D01*
X45155337Y-89018385D02*
X45238670Y-89113623D01*
X45131527Y-89208861D01*
X45048194Y-89113623D01*
X45155337Y-89018385D01*
X45131527Y-89208861D01*
X45286289Y-87970766D02*
X45369622Y-88066004D01*
X45262480Y-88161242D01*
X45179146Y-88066004D01*
X45286289Y-87970766D01*
X45262480Y-88161242D01*
X48774384Y-89018385D02*
X48667241Y-89113623D01*
X48369622Y-89208861D01*
X48179146Y-89208861D01*
X47905337Y-89113623D01*
X47738670Y-88923147D01*
X47667241Y-88732671D01*
X47619622Y-88351719D01*
X47655337Y-88066004D01*
X47798194Y-87685052D01*
X47917241Y-87494576D01*
X48131527Y-87304100D01*
X48429146Y-87208861D01*
X48619622Y-87208861D01*
X48893432Y-87304100D01*
X48976765Y-87399338D01*
X49607718Y-89208861D02*
X49774384Y-87875528D01*
X49726765Y-88256480D02*
X49845813Y-88066004D01*
X49952956Y-87970766D01*
X50155337Y-87875528D01*
X50345813Y-87875528D01*
X51702956Y-89208861D02*
X51833908Y-88161242D01*
X51762480Y-87970766D01*
X51583908Y-87875528D01*
X51202956Y-87875528D01*
X51000575Y-87970766D01*
X51714860Y-89113623D02*
X51512480Y-89208861D01*
X51036289Y-89208861D01*
X50857718Y-89113623D01*
X50786289Y-88923147D01*
X50810099Y-88732671D01*
X50929146Y-88542195D01*
X51131527Y-88446957D01*
X51607718Y-88446957D01*
X51810099Y-88351719D01*
X52631527Y-87875528D02*
X53679146Y-87875528D01*
X52464860Y-89208861D01*
X53512480Y-89208861D01*
X54250575Y-87875528D02*
X54560099Y-89208861D01*
X55202956Y-87875528D02*
X54560099Y-89208861D01*
X54310099Y-89685052D01*
X54202956Y-89780290D01*
X54000575Y-89875528D01*
X55679146Y-87875528D02*
X56441051Y-87875528D01*
X55798194Y-89208861D02*
X56012480Y-87494576D01*
X56131527Y-87304100D01*
X56333908Y-87208861D01*
X56524384Y-87208861D01*
X57226765Y-89208861D02*
X57048194Y-89113623D01*
X56976765Y-88923147D01*
X57191051Y-87208861D01*
X57988670Y-89208861D02*
X58155337Y-87875528D01*
X58238670Y-87208861D02*
X58131527Y-87304100D01*
X58214860Y-87399338D01*
X58322003Y-87304100D01*
X58238670Y-87208861D01*
X58214860Y-87399338D01*
X59714860Y-89113623D02*
X59512480Y-89208861D01*
X59131527Y-89208861D01*
X58952956Y-89113623D01*
X58881527Y-88923147D01*
X58976765Y-88161242D01*
X59095813Y-87970766D01*
X59298194Y-87875528D01*
X59679146Y-87875528D01*
X59857718Y-87970766D01*
X59929146Y-88161242D01*
X59905337Y-88351719D01*
X58929146Y-88542195D01*
X63048194Y-89113623D02*
X62845813Y-89208861D01*
X62464860Y-89208861D01*
X62286289Y-89113623D01*
X62202956Y-89018385D01*
X62131527Y-88827909D01*
X62202956Y-88256480D01*
X62322003Y-88066004D01*
X62429146Y-87970766D01*
X62631527Y-87875528D01*
X63012480Y-87875528D01*
X63191051Y-87970766D01*
X64179146Y-89208861D02*
X64000575Y-89113623D01*
X63917241Y-89018385D01*
X63845813Y-88827909D01*
X63917241Y-88256480D01*
X64036289Y-88066004D01*
X64143432Y-87970766D01*
X64345813Y-87875528D01*
X64631527Y-87875528D01*
X64810099Y-87970766D01*
X64893432Y-88066004D01*
X64964860Y-88256480D01*
X64893432Y-88827909D01*
X64774384Y-89018385D01*
X64667241Y-89113623D01*
X64464860Y-89208861D01*
X64179146Y-89208861D01*
X65869622Y-87875528D02*
X65702956Y-89208861D01*
X65845813Y-88066004D02*
X65952956Y-87970766D01*
X66155337Y-87875528D01*
X66441051Y-87875528D01*
X66619622Y-87970766D01*
X66691051Y-88161242D01*
X66560099Y-89208861D01*
X67393432Y-87875528D02*
X68155337Y-87875528D01*
X67762480Y-87208861D02*
X67548194Y-88923147D01*
X67619622Y-89113623D01*
X67798194Y-89208861D01*
X67988670Y-89208861D01*
X68655337Y-89208861D02*
X68822003Y-87875528D01*
X68774384Y-88256480D02*
X68893432Y-88066004D01*
X69000575Y-87970766D01*
X69202956Y-87875528D01*
X69393432Y-87875528D01*
X70179146Y-89208861D02*
X70000575Y-89113623D01*
X69917241Y-89018385D01*
X69845813Y-88827909D01*
X69917241Y-88256480D01*
X70036289Y-88066004D01*
X70143432Y-87970766D01*
X70345813Y-87875528D01*
X70631527Y-87875528D01*
X70810099Y-87970766D01*
X70893432Y-88066004D01*
X70964860Y-88256480D01*
X70893432Y-88827909D01*
X70774384Y-89018385D01*
X70667241Y-89113623D01*
X70464860Y-89208861D01*
X70179146Y-89208861D01*
X71988670Y-89208861D02*
X71810099Y-89113623D01*
X71738670Y-88923147D01*
X71952956Y-87208861D01*
X74274384Y-89208861D02*
X74524384Y-87208861D01*
X74429146Y-87970766D02*
X74631527Y-87875528D01*
X75012480Y-87875528D01*
X75191051Y-87970766D01*
X75274384Y-88066004D01*
X75345813Y-88256480D01*
X75274384Y-88827909D01*
X75155337Y-89018385D01*
X75048194Y-89113623D01*
X74845813Y-89208861D01*
X74464860Y-89208861D01*
X74286289Y-89113623D01*
X76369622Y-89208861D02*
X76191051Y-89113623D01*
X76107718Y-89018385D01*
X76036289Y-88827909D01*
X76107718Y-88256480D01*
X76226765Y-88066004D01*
X76333908Y-87970766D01*
X76536289Y-87875528D01*
X76822003Y-87875528D01*
X77000575Y-87970766D01*
X77083908Y-88066004D01*
X77155337Y-88256480D01*
X77083908Y-88827909D01*
X76964860Y-89018385D01*
X76857718Y-89113623D01*
X76655337Y-89208861D01*
X76369622Y-89208861D01*
X78750575Y-89208861D02*
X78881527Y-88161242D01*
X78810099Y-87970766D01*
X78631527Y-87875528D01*
X78250575Y-87875528D01*
X78048194Y-87970766D01*
X78762480Y-89113623D02*
X78560099Y-89208861D01*
X78083908Y-89208861D01*
X77905337Y-89113623D01*
X77833908Y-88923147D01*
X77857718Y-88732671D01*
X77976765Y-88542195D01*
X78179146Y-88446957D01*
X78655337Y-88446957D01*
X78857718Y-88351719D01*
X79702956Y-89208861D02*
X79869622Y-87875528D01*
X79822003Y-88256480D02*
X79941051Y-88066004D01*
X80048194Y-87970766D01*
X80250575Y-87875528D01*
X80441051Y-87875528D01*
X81798194Y-89208861D02*
X82048194Y-87208861D01*
X81810099Y-89113623D02*
X81607718Y-89208861D01*
X81226765Y-89208861D01*
X81048194Y-89113623D01*
X80964860Y-89018385D01*
X80893432Y-88827909D01*
X80964860Y-88256480D01*
X81083908Y-88066004D01*
X81191051Y-87970766D01*
X81393432Y-87875528D01*
X81774384Y-87875528D01*
X81952956Y-87970766D01*
D10*
D11*
X38934622Y-84596957D02*
X38434622Y-84596957D01*
X38434622Y-85382671D02*
X38434622Y-83882671D01*
X39148908Y-83882671D01*
X39720337Y-85382671D02*
X39720337Y-84382671D01*
X39720337Y-83882671D02*
X39648908Y-83954100D01*
X39720337Y-84025528D01*
X39791765Y-83954100D01*
X39720337Y-83882671D01*
X39720337Y-84025528D01*
X40648908Y-85382671D02*
X40506051Y-85311242D01*
X40434622Y-85168385D01*
X40434622Y-83882671D01*
X41791765Y-85311242D02*
X41648908Y-85382671D01*
X41363194Y-85382671D01*
X41220337Y-85311242D01*
X41148908Y-85168385D01*
X41148908Y-84596957D01*
X41220337Y-84454100D01*
X41363194Y-84382671D01*
X41648908Y-84382671D01*
X41791765Y-84454100D01*
X41863194Y-84596957D01*
X41863194Y-84739814D01*
X41148908Y-84882671D01*
X42506051Y-85239814D02*
X42577480Y-85311242D01*
X42506051Y-85382671D01*
X42434622Y-85311242D01*
X42506051Y-85239814D01*
X42506051Y-85382671D01*
X42506051Y-84454100D02*
X42577480Y-84525528D01*
X42506051Y-84596957D01*
X42434622Y-84525528D01*
X42506051Y-84454100D01*
X42506051Y-84596957D01*
X45220337Y-85239814D02*
X45148908Y-85311242D01*
X44934622Y-85382671D01*
X44791765Y-85382671D01*
X44577480Y-85311242D01*
X44434622Y-85168385D01*
X44363194Y-85025528D01*
X44291765Y-84739814D01*
X44291765Y-84525528D01*
X44363194Y-84239814D01*
X44434622Y-84096957D01*
X44577480Y-83954100D01*
X44791765Y-83882671D01*
X44934622Y-83882671D01*
X45148908Y-83954100D01*
X45220337Y-84025528D01*
X45863194Y-85382671D02*
X45863194Y-84382671D01*
X45863194Y-84668385D02*
X45934622Y-84525528D01*
X46006051Y-84454100D01*
X46148908Y-84382671D01*
X46291765Y-84382671D01*
X47434622Y-85382671D02*
X47434622Y-84596957D01*
X47363194Y-84454100D01*
X47220337Y-84382671D01*
X46934622Y-84382671D01*
X46791765Y-84454100D01*
X47434622Y-85311242D02*
X47291765Y-85382671D01*
X46934622Y-85382671D01*
X46791765Y-85311242D01*
X46720337Y-85168385D01*
X46720337Y-85025528D01*
X46791765Y-84882671D01*
X46934622Y-84811242D01*
X47291765Y-84811242D01*
X47434622Y-84739814D01*
X48006051Y-84382671D02*
X48791765Y-84382671D01*
X48006051Y-85382671D01*
X48791765Y-85382671D01*
X49220337Y-84382671D02*
X49577480Y-85382671D01*
X49934622Y-84382671D02*
X49577480Y-85382671D01*
X49434622Y-85739814D01*
X49363194Y-85811242D01*
X49220337Y-85882671D01*
X50291765Y-84382671D02*
X50863194Y-84382671D01*
X50506051Y-85382671D02*
X50506051Y-84096957D01*
X50577480Y-83954100D01*
X50720337Y-83882671D01*
X50863194Y-83882671D01*
X51577480Y-85382671D02*
X51434622Y-85311242D01*
X51363194Y-85168385D01*
X51363194Y-83882671D01*
X52148908Y-85382671D02*
X52148908Y-84382671D01*
X52148908Y-83882671D02*
X52077480Y-83954100D01*
X52148908Y-84025528D01*
X52220337Y-83954100D01*
X52148908Y-83882671D01*
X52148908Y-84025528D01*
X53434622Y-85311242D02*
X53291765Y-85382671D01*
X53006051Y-85382671D01*
X52863194Y-85311242D01*
X52791765Y-85168385D01*
X52791765Y-84596957D01*
X52863194Y-84454100D01*
X53006051Y-84382671D01*
X53291765Y-84382671D01*
X53434622Y-84454100D01*
X53506051Y-84596957D01*
X53506051Y-84739814D01*
X52791765Y-84882671D01*
X55934622Y-85311242D02*
X55791765Y-85382671D01*
X55506051Y-85382671D01*
X55363194Y-85311242D01*
X55291765Y-85239814D01*
X55220337Y-85096957D01*
X55220337Y-84668385D01*
X55291765Y-84525528D01*
X55363194Y-84454100D01*
X55506051Y-84382671D01*
X55791765Y-84382671D01*
X55934622Y-84454100D01*
X56791765Y-85382671D02*
X56648908Y-85311242D01*
X56577480Y-85239814D01*
X56506051Y-85096957D01*
X56506051Y-84668385D01*
X56577480Y-84525528D01*
X56648908Y-84454100D01*
X56791765Y-84382671D01*
X57006051Y-84382671D01*
X57148908Y-84454100D01*
X57220337Y-84525528D01*
X57291765Y-84668385D01*
X57291765Y-85096957D01*
X57220337Y-85239814D01*
X57148908Y-85311242D01*
X57006051Y-85382671D01*
X56791765Y-85382671D01*
X57934622Y-84382671D02*
X57934622Y-85382671D01*
X57934622Y-84525528D02*
X58006051Y-84454100D01*
X58148908Y-84382671D01*
X58363194Y-84382671D01*
X58506051Y-84454100D01*
X58577480Y-84596957D01*
X58577480Y-85382671D01*
X59077480Y-84382671D02*
X59648908Y-84382671D01*
X59291765Y-83882671D02*
X59291765Y-85168385D01*
X59363194Y-85311242D01*
X59506051Y-85382671D01*
X59648908Y-85382671D01*
X60363194Y-85382671D02*
X60220337Y-85311242D01*
X60148908Y-85239814D01*
X60077480Y-85096957D01*
X60077480Y-84668385D01*
X60148908Y-84525528D01*
X60220337Y-84454100D01*
X60363194Y-84382671D01*
X60577480Y-84382671D01*
X60720337Y-84454100D01*
X60791765Y-84525528D01*
X60863194Y-84668385D01*
X60863194Y-85096957D01*
X60791765Y-85239814D01*
X60720337Y-85311242D01*
X60577480Y-85382671D01*
X60363194Y-85382671D01*
X61720337Y-85382671D02*
X61577480Y-85311242D01*
X61506051Y-85168385D01*
X61506051Y-83882671D01*
X63434622Y-85382671D02*
X63434622Y-83882671D01*
X63434622Y-84454100D02*
X63577480Y-84382671D01*
X63863194Y-84382671D01*
X64006051Y-84454100D01*
X64077480Y-84525528D01*
X64148908Y-84668385D01*
X64148908Y-85096957D01*
X64077480Y-85239814D01*
X64006051Y-85311242D01*
X63863194Y-85382671D01*
X63577480Y-85382671D01*
X63434622Y-85311242D01*
X65006051Y-85382671D02*
X64863194Y-85311242D01*
X64791765Y-85239814D01*
X64720337Y-85096957D01*
X64720337Y-84668385D01*
X64791765Y-84525528D01*
X64863194Y-84454100D01*
X65006051Y-84382671D01*
X65220337Y-84382671D01*
X65363194Y-84454100D01*
X65434622Y-84525528D01*
X65506051Y-84668385D01*
X65506051Y-85096957D01*
X65434622Y-85239814D01*
X65363194Y-85311242D01*
X65220337Y-85382671D01*
X65006051Y-85382671D01*
X66791765Y-85382671D02*
X66791765Y-84596957D01*
X66720337Y-84454100D01*
X66577480Y-84382671D01*
X66291765Y-84382671D01*
X66148908Y-84454100D01*
X66791765Y-85311242D02*
X66648908Y-85382671D01*
X66291765Y-85382671D01*
X66148908Y-85311242D01*
X66077480Y-85168385D01*
X66077480Y-85025528D01*
X66148908Y-84882671D01*
X66291765Y-84811242D01*
X66648908Y-84811242D01*
X66791765Y-84739814D01*
X67506051Y-85382671D02*
X67506051Y-84382671D01*
X67506051Y-84668385D02*
X67577480Y-84525528D01*
X67648908Y-84454100D01*
X67791765Y-84382671D01*
X67934622Y-84382671D01*
X69077480Y-85382671D02*
X69077480Y-83882671D01*
X69077480Y-85311242D02*
X68934622Y-85382671D01*
X68648908Y-85382671D01*
X68506051Y-85311242D01*
X68434622Y-85239814D01*
X68363194Y-85096957D01*
X68363194Y-84668385D01*
X68434622Y-84525528D01*
X68506051Y-84454100D01*
X68648908Y-84382671D01*
X68934622Y-84382671D01*
X69077480Y-84454100D01*
X69791765Y-85239814D02*
X69863194Y-85311242D01*
X69791765Y-85382671D01*
X69720337Y-85311242D01*
X69791765Y-85239814D01*
X69791765Y-85382671D01*
X70506051Y-85382671D02*
X70506051Y-83882671D01*
X70648908Y-84811242D02*
X71077480Y-85382671D01*
X71077480Y-84382671D02*
X70506051Y-84954100D01*
X71720337Y-85382671D02*
X71720337Y-84382671D01*
X71720337Y-83882671D02*
X71648908Y-83954100D01*
X71720337Y-84025528D01*
X71791765Y-83954100D01*
X71720337Y-83882671D01*
X71720337Y-84025528D01*
X73077480Y-85311242D02*
X72934622Y-85382671D01*
X72648908Y-85382671D01*
X72506051Y-85311242D01*
X72434622Y-85239814D01*
X72363194Y-85096957D01*
X72363194Y-84668385D01*
X72434622Y-84525528D01*
X72506051Y-84454100D01*
X72648908Y-84382671D01*
X72934622Y-84382671D01*
X73077480Y-84454100D01*
X74363194Y-85382671D02*
X74363194Y-84596957D01*
X74291765Y-84454100D01*
X74148908Y-84382671D01*
X73863194Y-84382671D01*
X73720337Y-84454100D01*
X74363194Y-85311242D02*
X74220337Y-85382671D01*
X73863194Y-85382671D01*
X73720337Y-85311242D01*
X73648908Y-85168385D01*
X73648908Y-85025528D01*
X73720337Y-84882671D01*
X73863194Y-84811242D01*
X74220337Y-84811242D01*
X74363194Y-84739814D01*
X75720337Y-85382671D02*
X75720337Y-83882671D01*
X75720337Y-85311242D02*
X75577480Y-85382671D01*
X75291765Y-85382671D01*
X75148908Y-85311242D01*
X75077480Y-85239814D01*
X75006051Y-85096957D01*
X75006051Y-84668385D01*
X75077480Y-84525528D01*
X75148908Y-84454100D01*
X75291765Y-84382671D01*
X75577480Y-84382671D01*
X75720337Y-84454100D01*
X76077480Y-85525528D02*
X77220337Y-85525528D01*
X77577480Y-84382671D02*
X77577480Y-85882671D01*
X77577480Y-84454100D02*
X77720337Y-84382671D01*
X78006051Y-84382671D01*
X78148908Y-84454100D01*
X78220337Y-84525528D01*
X78291765Y-84668385D01*
X78291765Y-85096957D01*
X78220337Y-85239814D01*
X78148908Y-85311242D01*
X78006051Y-85382671D01*
X77720337Y-85382671D01*
X77577480Y-85311242D01*
X79577480Y-85311242D02*
X79434622Y-85382671D01*
X79148908Y-85382671D01*
X79006051Y-85311242D01*
X78934622Y-85239814D01*
X78863194Y-85096957D01*
X78863194Y-84668385D01*
X78934622Y-84525528D01*
X79006051Y-84454100D01*
X79148908Y-84382671D01*
X79434622Y-84382671D01*
X79577480Y-84454100D01*
X80220337Y-85382671D02*
X80220337Y-83882671D01*
X80220337Y-84454100D02*
X80363194Y-84382671D01*
X80648908Y-84382671D01*
X80791765Y-84454100D01*
X80863194Y-84525528D01*
X80934622Y-84668385D01*
X80934622Y-85096957D01*
X80863194Y-85239814D01*
X80791765Y-85311242D01*
X80648908Y-85382671D01*
X80363194Y-85382671D01*
X80220337Y-85311242D01*
D10*
D11*
X37002480Y-80504100D02*
X145002480Y-80504100D01*
D10*
D11*
X38363194Y-82611242D02*
X38577480Y-82682671D01*
X38934622Y-82682671D01*
X39077480Y-82611242D01*
X39148908Y-82539814D01*
X39220337Y-82396957D01*
X39220337Y-82254100D01*
X39148908Y-82111242D01*
X39077480Y-82039814D01*
X38934622Y-81968385D01*
X38648908Y-81896957D01*
X38506051Y-81825528D01*
X38434622Y-81754100D01*
X38363194Y-81611242D01*
X38363194Y-81468385D01*
X38434622Y-81325528D01*
X38506051Y-81254100D01*
X38648908Y-81182671D01*
X39006051Y-81182671D01*
X39220337Y-81254100D01*
X39863194Y-82682671D02*
X39863194Y-81182671D01*
X40506051Y-82682671D02*
X40506051Y-81896957D01*
X40434622Y-81754100D01*
X40291765Y-81682671D01*
X40077480Y-81682671D01*
X39934622Y-81754100D01*
X39863194Y-81825528D01*
X41791765Y-82611242D02*
X41648908Y-82682671D01*
X41363194Y-82682671D01*
X41220337Y-82611242D01*
X41148908Y-82468385D01*
X41148908Y-81896957D01*
X41220337Y-81754100D01*
X41363194Y-81682671D01*
X41648908Y-81682671D01*
X41791765Y-81754100D01*
X41863194Y-81896957D01*
X41863194Y-82039814D01*
X41148908Y-82182671D01*
X43077480Y-82611242D02*
X42934622Y-82682671D01*
X42648908Y-82682671D01*
X42506051Y-82611242D01*
X42434622Y-82468385D01*
X42434622Y-81896957D01*
X42506051Y-81754100D01*
X42648908Y-81682671D01*
X42934622Y-81682671D01*
X43077480Y-81754100D01*
X43148908Y-81896957D01*
X43148908Y-82039814D01*
X42434622Y-82182671D01*
X43577480Y-81682671D02*
X44148908Y-81682671D01*
X43791765Y-81182671D02*
X43791765Y-82468385D01*
X43863194Y-82611242D01*
X44006051Y-82682671D01*
X44148908Y-82682671D01*
X44648908Y-82539814D02*
X44720337Y-82611242D01*
X44648908Y-82682671D01*
X44577480Y-82611242D01*
X44648908Y-82539814D01*
X44648908Y-82682671D01*
X44648908Y-81754100D02*
X44720337Y-81825528D01*
X44648908Y-81896957D01*
X44577480Y-81825528D01*
X44648908Y-81754100D01*
X44648908Y-81896957D01*
D10*
D12*
X39411765Y-79539814D02*
X39340337Y-79611242D01*
X39126051Y-79682671D01*
X38983194Y-79682671D01*
X38768908Y-79611242D01*
X38626051Y-79468385D01*
X38554622Y-79325528D01*
X38483194Y-79039814D01*
X38483194Y-78825528D01*
X38554622Y-78539814D01*
X38626051Y-78396957D01*
X38768908Y-78254100D01*
X38983194Y-78182671D01*
X39126051Y-78182671D01*
X39340337Y-78254100D01*
X39411765Y-78325528D01*
X40268908Y-79682671D02*
X40126051Y-79611242D01*
X40054622Y-79539814D01*
X39983194Y-79396957D01*
X39983194Y-78968385D01*
X40054622Y-78825528D01*
X40126051Y-78754100D01*
X40268908Y-78682671D01*
X40483194Y-78682671D01*
X40626051Y-78754100D01*
X40697480Y-78825528D01*
X40768908Y-78968385D01*
X40768908Y-79396957D01*
X40697480Y-79539814D01*
X40626051Y-79611242D01*
X40483194Y-79682671D01*
X40268908Y-79682671D01*
X41340337Y-79611242D02*
X41483194Y-79682671D01*
X41768908Y-79682671D01*
X41911765Y-79611242D01*
X41983194Y-79468385D01*
X41983194Y-79396957D01*
X41911765Y-79254100D01*
X41768908Y-79182671D01*
X41554622Y-79182671D01*
X41411765Y-79111242D01*
X41340337Y-78968385D01*
X41340337Y-78896957D01*
X41411765Y-78754100D01*
X41554622Y-78682671D01*
X41768908Y-78682671D01*
X41911765Y-78754100D01*
X42411765Y-78682671D02*
X42983194Y-78682671D01*
X42626051Y-78182671D02*
X42626051Y-79468385D01*
X42697480Y-79611242D01*
X42840337Y-79682671D01*
X42983194Y-79682671D01*
X44126051Y-79682671D02*
X44126051Y-78896957D01*
X44054622Y-78754100D01*
X43911765Y-78682671D01*
X43626051Y-78682671D01*
X43483194Y-78754100D01*
X44126051Y-79611242D02*
X43983194Y-79682671D01*
X43626051Y-79682671D01*
X43483194Y-79611242D01*
X43411765Y-79468385D01*
X43411765Y-79325528D01*
X43483194Y-79182671D01*
X43626051Y-79111242D01*
X43983194Y-79111242D01*
X44126051Y-79039814D01*
X46840337Y-79682671D02*
X46340337Y-78968385D01*
X45983194Y-79682671D02*
X45983194Y-78182671D01*
X46554622Y-78182671D01*
X46697480Y-78254100D01*
X46768908Y-78325528D01*
X46840337Y-78468385D01*
X46840337Y-78682671D01*
X46768908Y-78825528D01*
X46697480Y-78896957D01*
X46554622Y-78968385D01*
X45983194Y-78968385D01*
X47483194Y-79682671D02*
X47483194Y-78682671D01*
X47483194Y-78182671D02*
X47411765Y-78254100D01*
X47483194Y-78325528D01*
X47554622Y-78254100D01*
X47483194Y-78182671D01*
X47483194Y-78325528D01*
X48840337Y-79611242D02*
X48697480Y-79682671D01*
X48411765Y-79682671D01*
X48268908Y-79611242D01*
X48197480Y-79539814D01*
X48126051Y-79396957D01*
X48126051Y-78968385D01*
X48197480Y-78825528D01*
X48268908Y-78754100D01*
X48411765Y-78682671D01*
X48697480Y-78682671D01*
X48840337Y-78754100D01*
X50126051Y-79682671D02*
X50126051Y-78896957D01*
X50054622Y-78754100D01*
X49911765Y-78682671D01*
X49626051Y-78682671D01*
X49483194Y-78754100D01*
X50126051Y-79611242D02*
X49983194Y-79682671D01*
X49626051Y-79682671D01*
X49483194Y-79611242D01*
X49411765Y-79468385D01*
X49411765Y-79325528D01*
X49483194Y-79182671D01*
X49626051Y-79111242D01*
X49983194Y-79111242D01*
X50126051Y-79039814D01*
X51983194Y-79682671D02*
X51983194Y-78182671D01*
X52697480Y-78682671D02*
X52697480Y-79682671D01*
X52697480Y-78825528D02*
X52768908Y-78754100D01*
X52911765Y-78682671D01*
X53126051Y-78682671D01*
X53268908Y-78754100D01*
X53340337Y-78896957D01*
X53340337Y-79682671D01*
X53983194Y-79611242D02*
X54126051Y-79682671D01*
X54411765Y-79682671D01*
X54554622Y-79611242D01*
X54626051Y-79468385D01*
X54626051Y-79396957D01*
X54554622Y-79254100D01*
X54411765Y-79182671D01*
X54197480Y-79182671D01*
X54054622Y-79111242D01*
X53983194Y-78968385D01*
X53983194Y-78896957D01*
X54054622Y-78754100D01*
X54197480Y-78682671D01*
X54411765Y-78682671D01*
X54554622Y-78754100D01*
X55054622Y-78682671D02*
X55626051Y-78682671D01*
X55268908Y-78182671D02*
X55268908Y-79468385D01*
X55340337Y-79611242D01*
X55483194Y-79682671D01*
X55626051Y-79682671D01*
X56126051Y-79682671D02*
X56126051Y-78682671D01*
X56126051Y-78182671D02*
X56054622Y-78254100D01*
X56126051Y-78325528D01*
X56197480Y-78254100D01*
X56126051Y-78182671D01*
X56126051Y-78325528D01*
X56626051Y-78682671D02*
X57197480Y-78682671D01*
X56840337Y-78182671D02*
X56840337Y-79468385D01*
X56911765Y-79611242D01*
X57054622Y-79682671D01*
X57197480Y-79682671D01*
X58340337Y-78682671D02*
X58340337Y-79682671D01*
X57697480Y-78682671D02*
X57697480Y-79468385D01*
X57768908Y-79611242D01*
X57911765Y-79682671D01*
X58126051Y-79682671D01*
X58268908Y-79611242D01*
X58340337Y-79539814D01*
X58840337Y-78682671D02*
X59411765Y-78682671D01*
X59054622Y-78182671D02*
X59054622Y-79468385D01*
X59126051Y-79611242D01*
X59268908Y-79682671D01*
X59411765Y-79682671D01*
X60483194Y-79611242D02*
X60340337Y-79682671D01*
X60054622Y-79682671D01*
X59911765Y-79611242D01*
X59840337Y-79468385D01*
X59840337Y-78896957D01*
X59911765Y-78754100D01*
X60054622Y-78682671D01*
X60340337Y-78682671D01*
X60483194Y-78754100D01*
X60554622Y-78896957D01*
X60554622Y-79039814D01*
X59840337Y-79182671D01*
X62554622Y-79682671D02*
X62411765Y-79611242D01*
X62340337Y-79539814D01*
X62268908Y-79396957D01*
X62268908Y-78968385D01*
X62340337Y-78825528D01*
X62411765Y-78754100D01*
X62554622Y-78682671D01*
X62768908Y-78682671D01*
X62911765Y-78754100D01*
X62983194Y-78825528D01*
X63054622Y-78968385D01*
X63054622Y-79396957D01*
X62983194Y-79539814D01*
X62911765Y-79611242D01*
X62768908Y-79682671D01*
X62554622Y-79682671D01*
X63483194Y-78682671D02*
X64054622Y-78682671D01*
X63697480Y-79682671D02*
X63697480Y-78396957D01*
X63768908Y-78254100D01*
X63911765Y-78182671D01*
X64054622Y-78182671D01*
X65483194Y-78182671D02*
X66340337Y-78182671D01*
X65911765Y-79682671D02*
X65911765Y-78182671D01*
X67411765Y-79611242D02*
X67268908Y-79682671D01*
X66983194Y-79682671D01*
X66840337Y-79611242D01*
X66768908Y-79468385D01*
X66768908Y-78896957D01*
X66840337Y-78754100D01*
X66983194Y-78682671D01*
X67268908Y-78682671D01*
X67411765Y-78754100D01*
X67483194Y-78896957D01*
X67483194Y-79039814D01*
X66768908Y-79182671D01*
X68768908Y-79611242D02*
X68626051Y-79682671D01*
X68340337Y-79682671D01*
X68197480Y-79611242D01*
X68126051Y-79539814D01*
X68054622Y-79396957D01*
X68054622Y-78968385D01*
X68126051Y-78825528D01*
X68197480Y-78754100D01*
X68340337Y-78682671D01*
X68626051Y-78682671D01*
X68768908Y-78754100D01*
X69411765Y-79682671D02*
X69411765Y-78182671D01*
X70054622Y-79682671D02*
X70054622Y-78896957D01*
X69983194Y-78754100D01*
X69840337Y-78682671D01*
X69626051Y-78682671D01*
X69483194Y-78754100D01*
X69411765Y-78825528D01*
X70768908Y-78682671D02*
X70768908Y-79682671D01*
X70768908Y-78825528D02*
X70840337Y-78754100D01*
X70983194Y-78682671D01*
X71197480Y-78682671D01*
X71340337Y-78754100D01*
X71411765Y-78896957D01*
X71411765Y-79682671D01*
X72340337Y-79682671D02*
X72197480Y-79611242D01*
X72126051Y-79539814D01*
X72054622Y-79396957D01*
X72054622Y-78968385D01*
X72126051Y-78825528D01*
X72197480Y-78754100D01*
X72340337Y-78682671D01*
X72554622Y-78682671D01*
X72697480Y-78754100D01*
X72768908Y-78825528D01*
X72840337Y-78968385D01*
X72840337Y-79396957D01*
X72768908Y-79539814D01*
X72697480Y-79611242D01*
X72554622Y-79682671D01*
X72340337Y-79682671D01*
X73697480Y-79682671D02*
X73554622Y-79611242D01*
X73483194Y-79468385D01*
X73483194Y-78182671D01*
X74483194Y-79682671D02*
X74340337Y-79611242D01*
X74268908Y-79539814D01*
X74197480Y-79396957D01*
X74197480Y-78968385D01*
X74268908Y-78825528D01*
X74340337Y-78754100D01*
X74483194Y-78682671D01*
X74697480Y-78682671D01*
X74840337Y-78754100D01*
X74911765Y-78825528D01*
X74983194Y-78968385D01*
X74983194Y-79396957D01*
X74911765Y-79539814D01*
X74840337Y-79611242D01*
X74697480Y-79682671D01*
X74483194Y-79682671D01*
X76268908Y-78682671D02*
X76268908Y-79896957D01*
X76197480Y-80039814D01*
X76126051Y-80111242D01*
X75983194Y-80182671D01*
X75768908Y-80182671D01*
X75626051Y-80111242D01*
X76268908Y-79611242D02*
X76126051Y-79682671D01*
X75840337Y-79682671D01*
X75697480Y-79611242D01*
X75626051Y-79539814D01*
X75554622Y-79396957D01*
X75554622Y-78968385D01*
X75626051Y-78825528D01*
X75697480Y-78754100D01*
X75840337Y-78682671D01*
X76126051Y-78682671D01*
X76268908Y-78754100D01*
X76840337Y-78682671D02*
X77197480Y-79682671D01*
X77554622Y-78682671D02*
X77197480Y-79682671D01*
X77054622Y-80039814D01*
X76983194Y-80111242D01*
X76840337Y-80182671D01*
D10*
D11*
X38934622Y-75896957D02*
X39148908Y-75968385D01*
X39220337Y-76039814D01*
X39291765Y-76182671D01*
X39291765Y-76396957D01*
X39220337Y-76539814D01*
X39148908Y-76611242D01*
X39006051Y-76682671D01*
X38434622Y-76682671D01*
X38434622Y-75182671D01*
X38934622Y-75182671D01*
X39077480Y-75254100D01*
X39148908Y-75325528D01*
X39220337Y-75468385D01*
X39220337Y-75611242D01*
X39148908Y-75754100D01*
X39077480Y-75825528D01*
X38934622Y-75896957D01*
X38434622Y-75896957D01*
X40577480Y-76682671D02*
X40577480Y-75896957D01*
X40506051Y-75754100D01*
X40363194Y-75682671D01*
X40077480Y-75682671D01*
X39934622Y-75754100D01*
X40577480Y-76611242D02*
X40434622Y-76682671D01*
X40077480Y-76682671D01*
X39934622Y-76611242D01*
X39863194Y-76468385D01*
X39863194Y-76325528D01*
X39934622Y-76182671D01*
X40077480Y-76111242D01*
X40434622Y-76111242D01*
X40577480Y-76039814D01*
X41220337Y-76611242D02*
X41363194Y-76682671D01*
X41648908Y-76682671D01*
X41791765Y-76611242D01*
X41863194Y-76468385D01*
X41863194Y-76396957D01*
X41791765Y-76254100D01*
X41648908Y-76182671D01*
X41434622Y-76182671D01*
X41291765Y-76111242D01*
X41220337Y-75968385D01*
X41220337Y-75896957D01*
X41291765Y-75754100D01*
X41434622Y-75682671D01*
X41648908Y-75682671D01*
X41791765Y-75754100D01*
X43077480Y-76611242D02*
X42934622Y-76682671D01*
X42648908Y-76682671D01*
X42506051Y-76611242D01*
X42434622Y-76468385D01*
X42434622Y-75896957D01*
X42506051Y-75754100D01*
X42648908Y-75682671D01*
X42934622Y-75682671D01*
X43077480Y-75754100D01*
X43148908Y-75896957D01*
X43148908Y-76039814D01*
X42434622Y-76182671D01*
X44434622Y-76682671D02*
X44434622Y-75182671D01*
X44434622Y-76611242D02*
X44291765Y-76682671D01*
X44006051Y-76682671D01*
X43863194Y-76611242D01*
X43791765Y-76539814D01*
X43720337Y-76396957D01*
X43720337Y-75968385D01*
X43791765Y-75825528D01*
X43863194Y-75754100D01*
X44006051Y-75682671D01*
X44291765Y-75682671D01*
X44434622Y-75754100D01*
X46506051Y-76682671D02*
X46363194Y-76611242D01*
X46291765Y-76539814D01*
X46220337Y-76396957D01*
X46220337Y-75968385D01*
X46291765Y-75825528D01*
X46363194Y-75754100D01*
X46506051Y-75682671D01*
X46720337Y-75682671D01*
X46863194Y-75754100D01*
X46934622Y-75825528D01*
X47006051Y-75968385D01*
X47006051Y-76396957D01*
X46934622Y-76539814D01*
X46863194Y-76611242D01*
X46720337Y-76682671D01*
X46506051Y-76682671D01*
X47648908Y-75682671D02*
X47648908Y-76682671D01*
X47648908Y-75825528D02*
X47720337Y-75754100D01*
X47863194Y-75682671D01*
X48077480Y-75682671D01*
X48220337Y-75754100D01*
X48291765Y-75896957D01*
X48291765Y-76682671D01*
X52148908Y-76539814D02*
X52077480Y-76611242D01*
X51863194Y-76682671D01*
X51720337Y-76682671D01*
X51506051Y-76611242D01*
X51363194Y-76468385D01*
X51291765Y-76325528D01*
X51220337Y-76039814D01*
X51220337Y-75825528D01*
X51291765Y-75539814D01*
X51363194Y-75396957D01*
X51506051Y-75254100D01*
X51720337Y-75182671D01*
X51863194Y-75182671D01*
X52077480Y-75254100D01*
X52148908Y-75325528D01*
X52791765Y-76682671D02*
X52791765Y-75682671D01*
X52791765Y-75968385D02*
X52863194Y-75825528D01*
X52934622Y-75754100D01*
X53077480Y-75682671D01*
X53220337Y-75682671D01*
X54363194Y-76682671D02*
X54363194Y-75896957D01*
X54291765Y-75754100D01*
X54148908Y-75682671D01*
X53863194Y-75682671D01*
X53720337Y-75754100D01*
X54363194Y-76611242D02*
X54220337Y-76682671D01*
X53863194Y-76682671D01*
X53720337Y-76611242D01*
X53648908Y-76468385D01*
X53648908Y-76325528D01*
X53720337Y-76182671D01*
X53863194Y-76111242D01*
X54220337Y-76111242D01*
X54363194Y-76039814D01*
X54934622Y-75682671D02*
X55720337Y-75682671D01*
X54934622Y-76682671D01*
X55720337Y-76682671D01*
X56148908Y-75682671D02*
X56506051Y-76682671D01*
X56863194Y-75682671D02*
X56506051Y-76682671D01*
X56363194Y-77039814D01*
X56291765Y-77111242D01*
X56148908Y-77182671D01*
X57220337Y-75682671D02*
X57791765Y-75682671D01*
X57434622Y-76682671D02*
X57434622Y-75396957D01*
X57506051Y-75254100D01*
X57648908Y-75182671D01*
X57791765Y-75182671D01*
X58506051Y-76682671D02*
X58363194Y-76611242D01*
X58291765Y-76468385D01*
X58291765Y-75182671D01*
X59077480Y-76682671D02*
X59077480Y-75682671D01*
X59077480Y-75182671D02*
X59006051Y-75254100D01*
X59077480Y-75325528D01*
X59148908Y-75254100D01*
X59077480Y-75182671D01*
X59077480Y-75325528D01*
X60363194Y-76611242D02*
X60220337Y-76682671D01*
X59934622Y-76682671D01*
X59791765Y-76611242D01*
X59720337Y-76468385D01*
X59720337Y-75896957D01*
X59791765Y-75754100D01*
X59934622Y-75682671D01*
X60220337Y-75682671D01*
X60363194Y-75754100D01*
X60434622Y-75896957D01*
X60434622Y-76039814D01*
X59720337Y-76182671D01*
X62220337Y-76111242D02*
X63363194Y-76111242D01*
X65720337Y-75896957D02*
X65934622Y-75968385D01*
X66006051Y-76039814D01*
X66077480Y-76182671D01*
X66077480Y-76396957D01*
X66006051Y-76539814D01*
X65934622Y-76611242D01*
X65791765Y-76682671D01*
X65220337Y-76682671D01*
X65220337Y-75182671D01*
X65720337Y-75182671D01*
X65863194Y-75254100D01*
X65934622Y-75325528D01*
X66006051Y-75468385D01*
X66006051Y-75611242D01*
X65934622Y-75754100D01*
X65863194Y-75825528D01*
X65720337Y-75896957D01*
X65220337Y-75896957D01*
X66720337Y-76682671D02*
X66720337Y-75682671D01*
X66720337Y-75182671D02*
X66648908Y-75254100D01*
X66720337Y-75325528D01*
X66791765Y-75254100D01*
X66720337Y-75182671D01*
X66720337Y-75325528D01*
X67220337Y-75682671D02*
X67791765Y-75682671D01*
X67434622Y-75182671D02*
X67434622Y-76468385D01*
X67506051Y-76611242D01*
X67648908Y-76682671D01*
X67791765Y-76682671D01*
X68934622Y-76611242D02*
X68791765Y-76682671D01*
X68506051Y-76682671D01*
X68363194Y-76611242D01*
X68291765Y-76539814D01*
X68220337Y-76396957D01*
X68220337Y-75968385D01*
X68291765Y-75825528D01*
X68363194Y-75754100D01*
X68506051Y-75682671D01*
X68791765Y-75682671D01*
X68934622Y-75754100D01*
X69577480Y-76682671D02*
X69577480Y-75682671D01*
X69577480Y-75968385D02*
X69648908Y-75825528D01*
X69720337Y-75754100D01*
X69863194Y-75682671D01*
X70006051Y-75682671D01*
X71148908Y-76682671D02*
X71148908Y-75896957D01*
X71077480Y-75754100D01*
X70934622Y-75682671D01*
X70648908Y-75682671D01*
X70506051Y-75754100D01*
X71148908Y-76611242D02*
X71006051Y-76682671D01*
X70648908Y-76682671D01*
X70506051Y-76611242D01*
X70434622Y-76468385D01*
X70434622Y-76325528D01*
X70506051Y-76182671D01*
X70648908Y-76111242D01*
X71006051Y-76111242D01*
X71148908Y-76039814D01*
X71720337Y-75682671D02*
X72506051Y-75682671D01*
X71720337Y-76682671D01*
X72506051Y-76682671D01*
X73648908Y-76611242D02*
X73506051Y-76682671D01*
X73220337Y-76682671D01*
X73077480Y-76611242D01*
X73006051Y-76468385D01*
X73006051Y-75896957D01*
X73077480Y-75754100D01*
X73220337Y-75682671D01*
X73506051Y-75682671D01*
X73648908Y-75754100D01*
X73720337Y-75896957D01*
X73720337Y-76039814D01*
X73006051Y-76182671D01*
D10*
D11*
X57002480Y-90504100D02*
X57002480Y-93504100D01*
D10*
D11*
X121002480Y-90504100D02*
X121002480Y-97004100D01*
D14*
X13420228Y-15662910D02*
X13639303Y-15281910D01*
X13877428Y-15662910D02*
X13777416Y-14862810D01*
X13472616Y-14862810D01*
X13401178Y-14900910D01*
X13367841Y-14939010D01*
X13339266Y-15015210D01*
X13353553Y-15129510D01*
X13401178Y-15205710D01*
X13444041Y-15243810D01*
X13525003Y-15281910D01*
X13829803Y-15281910D01*
X12767766Y-15624810D02*
X12848728Y-15662910D01*
X13001128Y-15662910D01*
X13072566Y-15624810D01*
X13101141Y-15548610D01*
X13063041Y-15243810D01*
X13015416Y-15167610D01*
X12934453Y-15129510D01*
X12782053Y-15129510D01*
X12710616Y-15167610D01*
X12682041Y-15243810D01*
X12691566Y-15320010D01*
X13082091Y-15396210D01*
X12401053Y-15129510D02*
X12277228Y-15662910D01*
X12020053Y-15129510D01*
X11772403Y-15586710D02*
X11739066Y-15624810D01*
X11781928Y-15662910D01*
X11815266Y-15624810D01*
X11772403Y-15586710D01*
X11781928Y-15662910D01*
X11081841Y-15243810D02*
X11348541Y-15243810D01*
X11400928Y-15662910D02*
X11300916Y-14862810D01*
X10919916Y-14862810D01*
D15*
D14*
X-15847060Y171450D02*
X-15847060Y-361950D01*
X-16037560Y476250D02*
X-16228060Y-95250D01*
X-15732760Y-95250D01*
D15*
D16*
%TO.P,PCB_EDGE2,1*%
%TO.N,N/C*%
X17000220Y17000220D03*
%TD*%
%TO.P,PCB_EDGE2,1*%
%TO.N,N/C*%
X-17000220Y-17000220D03*
%TD*%
%TO.P,PCB_EDGE2,1*%
%TO.N,N/C*%
X17000220Y-17000220D03*
%TD*%
%TO.P,PCB_EDGE1,1*%
%TO.N,N/C*%
X-17000220Y17000220D03*
%TD*%
D17*
%TO.P,U9,6*%
%TO.N,VCC*%
X11046460Y-10271760D03*
%TO.P,U9,5*%
%TO.N,N-000078*%
X11998960Y-10271760D03*
%TO.P,U9,4*%
%TO.N,N-000087*%
X12951460Y-10271760D03*
%TO.P,U9,3*%
%TO.N,VCOM*%
X12951460Y-7731760D03*
%TO.P,U9,2*%
%TO.N,GND*%
X11998960Y-7731760D03*
%TO.P,U9,1*%
%TO.N,VCOM*%
X11046460Y-7731760D03*
%TD*%
%TO.P,U7,6*%
%TO.N,VCCA*%
X10947400Y13271500D03*
%TO.P,U7,5*%
%TO.N,N-000080*%
X9994900Y13271500D03*
%TO.P,U7,4*%
%TO.N,N-000079*%
X9042400Y13271500D03*
%TO.P,U7,3*%
%TO.N,N-000093*%
X9042400Y10731500D03*
%TO.P,U7,2*%
%TO.N,GND*%
X9994900Y10731500D03*
%TO.P,U7,1*%
%TO.N,N-000093*%
X10947400Y10731500D03*
%TD*%
D18*
%TO.P,R38,1*%
%TO.N,N-000076*%
X15300960Y-13761720D03*
%TO.P,R38,2*%
%TO.N,VCC*%
X15300960Y-12237720D03*
%TD*%
D19*
%TO.P,Q6,S*%
%TO.N,GND*%
X11084560Y7388860D03*
%TO.P,Q6,G*%
%TO.N,/POWER/VUSB*%
X11084560Y5610860D03*
%TO.P,Q6,D*%
%TO.N,N-000077*%
X13116560Y6499860D03*
%TD*%
%TO.P,Q5,S*%
%TO.N,/POWER/VBAT*%
X12011660Y-2616200D03*
%TO.P,Q5,G*%
%TO.N,VCOM*%
X13789660Y-2616200D03*
%TO.P,Q5,D*%
%TO.N,N-000089*%
X12900660Y-584200D03*
%TD*%
D20*
%TO.P,P9,1*%
%TO.N,GND*%
X12900660Y-4399280D03*
%TD*%
D21*
%TO.P,P8,1*%
%TO.N,/POWER/VUSB*%
X-12562840Y10302240D03*
D22*
%TO.P,P8,2*%
%TO.N,DGND*%
X-14234160Y10302240D03*
%TD*%
D18*
%TO.P,R33,1*%
%TO.N,N-000081*%
X13401040Y9161780D03*
%TO.P,R33,2*%
%TO.N,N-000077*%
X13401040Y7637780D03*
%TD*%
D21*
%TO.P,P2,1*%
%TO.N,+BATT*%
X4663440Y-6499860D03*
D22*
%TO.P,P2,2*%
%TO.N,N-000052*%
X6334760Y-6499860D03*
%TD*%
D21*
%TO.P,P5,1*%
%TO.N,VCC*%
X-1363980Y-5499100D03*
D22*
%TO.P,P5,2*%
%TO.N,DGND*%
X-3035300Y-5499100D03*
%TD*%
D21*
%TO.P,P4,1*%
%TO.N,+BATT*%
X4663440Y-12499340D03*
D22*
%TO.P,P4,2*%
%TO.N,N-000053*%
X6334760Y-12499340D03*
%TD*%
D21*
%TO.P,P1,1*%
%TO.N,+BATT*%
X4663440Y-3500120D03*
D22*
%TO.P,P1,2*%
%TO.N,N-000051*%
X6334760Y-3500120D03*
%TD*%
D21*
%TO.P,P3,1*%
%TO.N,+BATT*%
X4663440Y-9499600D03*
D22*
%TO.P,P3,2*%
%TO.N,N-000011*%
X6334760Y-9499600D03*
%TD*%
D23*
%TO.P,P6,19*%
%TO.N,AGND*%
X-10464800Y5715000D03*
%TO.P,P6,17*%
%TO.N,DGND*%
X-10464800Y4445000D03*
%TO.P,P6,20*%
%TO.N,VCCA*%
X-11932920Y5715000D03*
%TO.P,P6,18*%
%TO.N,DGND*%
X-11932920Y4445000D03*
D24*
%TO.P,P6,1*%
%TO.N,VCC*%
X-10464800Y-5715000D03*
D23*
%TO.P,P6,2*%
%TO.N,/TMS*%
X-11932920Y-5715000D03*
%TO.P,P6,4*%
%TO.N,/TCK*%
X-11932920Y-4445000D03*
%TO.P,P6,6*%
%TO.N,/TDO*%
X-11932920Y-3175000D03*
%TO.P,P6,8*%
%TO.N,/TDI*%
X-11932920Y-1905000D03*
%TO.P,P6,10*%
%TO.N,/SNRST*%
X-11932920Y-635000D03*
%TO.P,P6,12*%
%TO.N,/EXT_SPI_MOSI*%
X-11932920Y635000D03*
%TO.P,P6,14*%
%TO.N,/EXT_SPI_MISO*%
X-11932920Y1905000D03*
%TO.P,P6,16*%
%TO.N,VCOM*%
X-11932920Y3175000D03*
%TO.P,P6,3*%
%TO.N,/EXT_I2C_SCL/TX*%
X-10464800Y-4445000D03*
%TO.P,P6,5*%
%TO.N,/EXT_I2C_SDA/RX*%
X-10464800Y-3175000D03*
%TO.P,P6,7*%
%TO.N,N/C*%
X-10464800Y-1905000D03*
%TO.P,P6,9*%
%TO.N,DGND*%
X-10464800Y-635000D03*
%TO.P,P6,11*%
%TO.N,/EXT_SPI_CS*%
X-10464800Y635000D03*
%TO.P,P6,13*%
%TO.N,/EXT_SPI_SCK*%
X-10464800Y1905000D03*
%TO.P,P6,15*%
%TO.N,VCC*%
X-10464800Y3175000D03*
%TD*%
D25*
%TO.P,U1,4*%
%TO.N,/POWER/PGOOD*%
X-1249680Y5600700D03*
%TO.P,U1,5*%
%TO.N,N-000028*%
X-749300Y5600700D03*
%TO.P,U1,6*%
%TO.N,N-000029*%
X-248920Y5600700D03*
%TO.P,U1,7*%
%TO.N,/SNRST*%
X248920Y5600700D03*
%TO.P,U1,8*%
%TO.N,AGND*%
X749300Y5600700D03*
%TO.P,U1,1*%
%TO.N,VCC*%
X-2750820Y5600700D03*
%TO.P,U1,2*%
%TO.N,/POWER/EN1*%
X-2250440Y5600700D03*
%TO.P,U1,3*%
%TO.N,/IMU/INT_GA*%
X-1750060Y5600700D03*
D26*
%TO.P,U1,13*%
%TO.N,/POWER/VBAT*%
X4099560Y4251960D03*
%TO.P,U1,14*%
%TO.N,/EXT_SPI_CS*%
X4099560Y3751580D03*
%TO.P,U1,15*%
%TO.N,/EXT_SPI_SCK*%
X4099560Y3251200D03*
%TO.P,U1,16*%
%TO.N,/EXT_SPI_MISO*%
X4099560Y2750820D03*
%TO.P,U1,17*%
%TO.N,/EXT_SPI_MOSI*%
X4099560Y2250440D03*
%TO.P,U1,18*%
%TO.N,/MOTOR2*%
X4099560Y1750060D03*
%TO.P,U1,19*%
%TO.N,/MOTOR1*%
X4099560Y1252220D03*
%TO.P,U1,20*%
%TO.N,/POWER/CHG*%
X4099560Y751840D03*
D25*
%TO.P,U1,25*%
%TO.N,/WIRELESS/W_CS*%
X2750820Y-2598420D03*
%TO.P,U1,26*%
%TO.N,/WIRELESS/SPI_SCK*%
X2250440Y-2598420D03*
%TO.P,U1,27*%
%TO.N,/WIRELESS/SPI_MISO*%
X1750060Y-2598420D03*
%TO.P,U1,28*%
%TO.N,/WIRELESS/SPI_MOSI*%
X1249680Y-2598420D03*
%TO.P,U1,29*%
%TO.N,/WIRELESS/W_CK*%
X749300Y-2598420D03*
%TO.P,U1,30*%
%TO.N,/WIRELESS/W_INT*%
X248920Y-2598420D03*
%TO.P,U1,31*%
%TO.N,/WIRELESS/W_CE*%
X-248920Y-2598420D03*
%TO.P,U1,32*%
%TO.N,/POWER/USBD-*%
X-749300Y-2598420D03*
D26*
%TO.P,U1,37*%
%TO.N,/TCK*%
X-4099560Y-1249680D03*
%TO.P,U1,38*%
%TO.N,/TDI*%
X-4099560Y-749300D03*
%TO.P,U1,39*%
%TO.N,/TDO*%
X-4099560Y-248920D03*
%TO.P,U1,40*%
%TO.N,/LED_RED*%
X-4099560Y251460D03*
%TO.P,U1,41*%
%TO.N,/LED_GREEN*%
X-4099560Y751840D03*
%TO.P,U1,42*%
%TO.N,/IMU/I2C_SCL_VCCA*%
X-4099560Y1252220D03*
%TO.P,U1,43*%
%TO.N,/IMU/I2C_SDA_VCCA*%
X-4099560Y1750060D03*
%TO.P,U1,44*%
%TO.N,/BOOT0*%
X-4099560Y2250440D03*
D25*
%TO.P,U1,9*%
%TO.N,VCCA*%
X1249680Y5600700D03*
%TO.P,U1,10*%
%TO.N,/POWER/USB_CON*%
X1750060Y5600700D03*
%TO.P,U1,11*%
%TO.N,/POWER/SYSOFF*%
X2250440Y5600700D03*
%TO.P,U1,12*%
%TO.N,/POWER/EN2*%
X2750820Y5600700D03*
D26*
%TO.P,U1,21*%
%TO.N,/EXT_I2C_SCL/TX*%
X4099560Y251460D03*
%TO.P,U1,22*%
%TO.N,/EXT_I2C_SDA/RX*%
X4099560Y-248920D03*
%TO.P,U1,23*%
%TO.N,DGND*%
X4099560Y-749300D03*
%TO.P,U1,24*%
%TO.N,VCC*%
X4099560Y-1249680D03*
D25*
%TO.P,U1,33*%
%TO.N,/POWER/USBD+*%
X-1249680Y-2598420D03*
%TO.P,U1,34*%
%TO.N,/TMS*%
X-1750060Y-2598420D03*
%TO.P,U1,35*%
%TO.N,DGND*%
X-2250440Y-2598420D03*
%TO.P,U1,36*%
%TO.N,VCC*%
X-2750820Y-2598420D03*
D26*
%TO.P,U1,45*%
%TO.N,/MOTOR4*%
X-4099560Y2750820D03*
%TO.P,U1,46*%
%TO.N,/MOTOR3*%
X-4099560Y3251200D03*
%TO.P,U1,47*%
%TO.N,DGND*%
X-4099560Y3751580D03*
%TO.P,U1,48*%
%TO.N,VCC*%
X-4099560Y4251960D03*
%TD*%
D27*
%TO.P,D4,2*%
%TO.N,+BATT*%
X4399280Y-14000480D03*
%TO.P,D4,1*%
%TO.N,N-000053*%
X6598920Y-14000480D03*
%TD*%
%TO.P,D3,2*%
%TO.N,+BATT*%
X4399280Y-11000740D03*
%TO.P,D3,1*%
%TO.N,N-000011*%
X6598920Y-11000740D03*
%TD*%
%TO.P,D2,2*%
%TO.N,+BATT*%
X4399280Y-8001000D03*
%TO.P,D2,1*%
%TO.N,N-000052*%
X6598920Y-8001000D03*
%TD*%
%TO.P,D1,2*%
%TO.N,+BATT*%
X4399280Y-5001260D03*
%TO.P,D1,1*%
%TO.N,N-000051*%
X6598920Y-5001260D03*
%TD*%
D18*
%TO.P,R32,1*%
%TO.N,GND*%
X10099040Y-2961640D03*
%TO.P,R32,2*%
%TO.N,/POWER/VBAT*%
X10099040Y-1437640D03*
%TD*%
D28*
%TO.P,R30,1*%
%TO.N,N-000089*%
X11361420Y-198120D03*
%TO.P,R30,2*%
%TO.N,+BATT*%
X9837420Y-198120D03*
%TD*%
%TO.P,R29,1*%
%TO.N,DGND*%
X9237980Y-6002020D03*
%TO.P,R29,2*%
%TO.N,GND*%
X10761980Y-6002020D03*
%TD*%
%TO.P,R7,1*%
%TO.N,/BOOT0*%
X-5537200Y1998980D03*
%TO.P,R7,2*%
%TO.N,DGND*%
X-7061200Y1998980D03*
%TD*%
D18*
%TO.P,R28,1*%
%TO.N,DGND*%
X7998460Y-11264900D03*
%TO.P,R28,2*%
%TO.N,N-000078*%
X7998460Y-9740900D03*
%TD*%
%TO.P,R23,1*%
%TO.N,N-000078*%
X9499600Y-8763000D03*
%TO.P,R23,2*%
%TO.N,/POWER/PGOOD*%
X9499600Y-7239000D03*
%TD*%
%TO.P,R21,1*%
%TO.N,/POWER/PGOOD*%
X8001000Y-7239000D03*
%TO.P,R21,2*%
%TO.N,VCC*%
X8001000Y-8763000D03*
%TD*%
%TO.P,R20,1*%
%TO.N,N-000078*%
X9499600Y-9740900D03*
%TO.P,R20,2*%
%TO.N,VCC*%
X9499600Y-11264900D03*
%TD*%
D28*
%TO.P,R16,1*%
%TO.N,N-000080*%
X12237720Y10500360D03*
%TO.P,R16,2*%
%TO.N,VCCA*%
X13761720Y10500360D03*
%TD*%
%TO.P,R17,1*%
%TO.N,N-000093*%
X9961880Y7500620D03*
%TO.P,R17,2*%
%TO.N,VCOM*%
X8437880Y7500620D03*
%TD*%
%TO.P,R18,1*%
%TO.N,AGND*%
X6238240Y12499340D03*
%TO.P,R18,2*%
%TO.N,N-000080*%
X7762240Y12499340D03*
%TD*%
%TO.P,R19,1*%
%TO.N,AGND*%
X6738620Y8999220D03*
%TO.P,R19,2*%
%TO.N,GND*%
X8262620Y8999220D03*
%TD*%
%TO.P,C14,1*%
%TO.N,VCC*%
X-2738120Y-13799820D03*
%TO.P,C14,2*%
%TO.N,DGND*%
X-4262120Y-13799820D03*
%TD*%
%TO.P,C8,1*%
%TO.N,VCCA*%
X3637280Y10998200D03*
%TO.P,C8,2*%
%TO.N,AGND*%
X5161280Y10998200D03*
%TD*%
%TO.P,C7,1*%
%TO.N,VCCA*%
X3637280Y9497060D03*
%TO.P,C7,2*%
%TO.N,AGND*%
X5161280Y9497060D03*
%TD*%
%TO.P,C6,1*%
%TO.N,VCC*%
X-5537200Y5199380D03*
%TO.P,C6,2*%
%TO.N,DGND*%
X-7061200Y5199380D03*
%TD*%
%TO.P,C5,1*%
%TO.N,VCC*%
X-4239260Y-2999740D03*
%TO.P,C5,2*%
%TO.N,DGND*%
X-5763260Y-2999740D03*
%TD*%
D18*
%TO.P,C4,1*%
%TO.N,VCC*%
X5999480Y-2263140D03*
%TO.P,C4,2*%
%TO.N,DGND*%
X5999480Y-739140D03*
%TD*%
D28*
%TO.P,C3,1*%
%TO.N,N-000029*%
X3637280Y12496800D03*
%TO.P,C3,2*%
%TO.N,AGND*%
X5161280Y12496800D03*
%TD*%
D18*
%TO.P,C2,1*%
%TO.N,N-000028*%
X-4500880Y12760960D03*
%TO.P,C2,2*%
%TO.N,AGND*%
X-4500880Y11236960D03*
%TD*%
%TO.P,C1,1*%
%TO.N,/SNRST*%
X-8300720Y1737360D03*
%TO.P,C1,2*%
%TO.N,DGND*%
X-8300720Y3261360D03*
%TD*%
%TO.P,C41,1*%
%TO.N,/POWER/VBAT*%
X8699500Y-1437640D03*
%TO.P,C41,2*%
%TO.N,GND*%
X8699500Y-2961640D03*
%TD*%
%TO.P,C40,1*%
%TO.N,N-000087*%
X13830300Y-12237720D03*
%TO.P,C40,2*%
%TO.N,DGND*%
X13830300Y-13761720D03*
%TD*%
%TO.P,C39,1*%
%TO.N,+BATT*%
X10899140Y1041400D03*
%TO.P,C39,2*%
%TO.N,GND*%
X10899140Y2565400D03*
%TD*%
D28*
%TO.P,C38,1*%
%TO.N,VCOM*%
X13261340Y-6002020D03*
%TO.P,C38,2*%
%TO.N,GND*%
X11737340Y-6002020D03*
%TD*%
D18*
%TO.P,C37,1*%
%TO.N,VCC*%
X9499600Y-12240260D03*
%TO.P,C37,2*%
%TO.N,DGND*%
X9499600Y-13764260D03*
%TD*%
D28*
%TO.P,C36,1*%
%TO.N,/POWER/VUSB*%
X-11960860Y7800340D03*
%TO.P,C36,2*%
%TO.N,DGND*%
X-10436860Y7800340D03*
%TD*%
%TO.P,C35,1*%
%TO.N,VCC*%
X10739120Y-12499340D03*
%TO.P,C35,2*%
%TO.N,N-000078*%
X12263120Y-12499340D03*
%TD*%
%TO.P,C32,1*%
%TO.N,N-000079*%
X7762240Y11000740D03*
%TO.P,C32,2*%
%TO.N,AGND*%
X6238240Y11000740D03*
%TD*%
%TO.P,C31,1*%
%TO.N,N-000093*%
X10756900Y9001760D03*
%TO.P,C31,2*%
%TO.N,GND*%
X9232900Y9001760D03*
%TD*%
%TO.P,C30,1*%
%TO.N,VCCA*%
X12237720Y13500100D03*
%TO.P,C30,2*%
%TO.N,AGND*%
X13761720Y13500100D03*
%TD*%
%TO.P,C29,1*%
%TO.N,VCCA*%
X13761720Y12001500D03*
%TO.P,C29,2*%
%TO.N,N-000080*%
X12237720Y12001500D03*
%TD*%
D29*
%TO.P,X1,4*%
%TO.N,AGND*%
X-2501900Y10050780D03*
%TO.P,X1,3*%
%TO.N,N-000029*%
X1099820Y10050780D03*
%TO.P,X1,1*%
%TO.N,N-000028*%
X-2501900Y12550140D03*
%TO.P,X1,2*%
%TO.N,AGND*%
X1099820Y12550140D03*
%TD*%
D30*
%TO.P,U8,17*%
%TO.N,GND*%
X8999220Y1998980D03*
D31*
X8999220Y1998980D03*
X8498840Y1498600D03*
X9499600Y1498600D03*
X8498840Y2499360D03*
X9499600Y2499360D03*
%TD*%
D32*
%TO.P,U6,1*%
%TO.N,/POWER/USBD+*%
X-8049260Y7749540D03*
%TO.P,U6,3*%
%TO.N,/POWER/USBD-*%
X-9349740Y7749540D03*
%TO.P,U6,5*%
%TO.N,/POWER/USB_CON*%
X-8699500Y9649460D03*
%TO.P,U6,2*%
%TO.N,DGND*%
X-8699500Y7749540D03*
%TO.P,U6,4*%
%TO.N,/POWER/D-*%
X-9349740Y9649460D03*
%TO.P,U6,6*%
%TO.N,/POWER/D+*%
X-8049260Y9649460D03*
%TD*%
%TA.AperFunction,SMDPad,CuDef*%
D33*
%TO.P,D8,1*%
%TO.N,N-000076*%
G36*
X16028915Y-14405285D02*
G01*
X16592875Y-14969245D01*
X16028915Y-15533205D01*
X15464955Y-14969245D01*
X16028915Y-14405285D01*
G37*
%TD.AperFunction*%
%TA.AperFunction,SMDPad,CuDef*%
%TO.P,D8,2*%
%TO.N,DGND*%
G36*
X14969245Y-15464955D02*
G01*
X15533205Y-16028915D01*
X14969245Y-16592875D01*
X14405285Y-16028915D01*
X14969245Y-15464955D01*
G37*
%TD.AperFunction*%
%TD*%
D34*
%TO.P,BT1,1*%
%TO.N,+BATT*%
X12700000Y1752600D03*
D35*
%TO.P,BT1,2*%
%TO.N,GND*%
X12700000Y3652520D03*
%TD*%
D36*
%TO.P,P7,*%
%TO.N,*%
X-14500860Y14800580D03*
D37*
X-6550660Y14401800D03*
D38*
X-11699240Y14800580D03*
X-9301480Y14800580D03*
D39*
X-7401560Y12250420D03*
X-13599160Y12250420D03*
D40*
%TO.P,P7,3*%
%TO.N,/POWER/D+*%
X-10500360Y12100560D03*
%TO.P,P7,4*%
%TO.N,N/C*%
X-9850120Y12100560D03*
%TO.P,P7,5*%
%TO.N,DGND*%
X-9199880Y12100560D03*
%TO.P,P7,2*%
%TO.N,/POWER/D-*%
X-11150600Y12100560D03*
%TO.P,P7,1*%
%TO.N,/POWER/VUSB*%
X-11800840Y12100560D03*
D41*
%TO.P,P7,*%
%TO.N,*%
X-6850380Y14800580D03*
%TD*%
D42*
%TO.N,/EXT_I2C_SCL/TX*%
X-25400Y-741680D03*
%TO.N,/EXT_I2C_SDA/RX*%
X-822960Y-1000760D03*
%TO.N,/EXT_SPI_CS*%
X2062480Y3629660D03*
%TO.N,/EXT_SPI_MISO*%
X530860Y2001520D03*
%TO.N,/EXT_SPI_MOSI*%
X764540Y645160D03*
%TO.N,/EXT_SPI_SCK*%
X1376680Y2994660D03*
%TO.N,/IMU/I2C_SCL_VCCA*%
X-6390640Y10899140D03*
%TO.N,/IMU/I2C_SDA_VCCA*%
X-2760980Y2359660D03*
%TO.N,/IMU/INT_GA*%
X1671320Y13662660D03*
%TO.N,/LED_GREEN*%
X-6629400Y6588760D03*
X7480300Y14300200D03*
X-4930140Y6720840D03*
%TO.N,/LED_RED*%
X-13251180Y-1290320D03*
%TO.N,/MOTOR1*%
X2468880Y1160780D03*
%TO.N,/MOTOR2*%
X1678940Y1440180D03*
%TO.N,/MOTOR3*%
X1049020Y-119380D03*
%TO.N,/MOTOR4*%
X-579120Y-60960D03*
%TO.N,/POWER/CHG*%
X2590800Y358140D03*
%TO.N,/POWER/EN1*%
X-2687320Y6784340D03*
%TO.N,/POWER/EN2*%
X10081260Y3929380D03*
%TO.N,/POWER/PGOOD*%
X3629660Y5293360D03*
X7858760Y4338320D03*
%TO.N,/POWER/SYSOFF*%
X7185660Y5412740D03*
%TO.N,/POWER/USBD+*%
X-2260600Y2989580D03*
X-7980680Y4579620D03*
%TO.N,/POWER/USBD-*%
X-1450340Y3009900D03*
X-9410700Y5158740D03*
%TO.N,/POWER/USB_CON*%
X-4599940Y8470900D03*
X-11630660Y9298940D03*
X2700020Y7399020D03*
X-3268980Y7350760D03*
%TO.N,/POWER/VUSB*%
X5798820Y5389880D03*
X-12700000Y7800340D03*
X7520940Y541020D03*
%TO.N,/SNRST*%
X614680Y3873500D03*
X-9100820Y2400300D03*
%TO.N,/TDI*%
X-5836920Y-546100D03*
%TO.N,/WIRELESS/SPI_MISO*%
X1000760Y-7698740D03*
%TO.N,/WIRELESS/SPI_MOSI*%
X1000760Y-8801100D03*
%TO.N,/WIRELESS/SPI_SCK*%
X899160Y-9799320D03*
%TO.N,/WIRELESS/W_CE*%
X398780Y-11099800D03*
%TO.N,/WIRELESS/W_CK*%
X680720Y-5900420D03*
%TO.N,/WIRELESS/W_CS*%
X1059180Y-10599420D03*
%TO.N,/WIRELESS/W_INT*%
X220980Y-6659880D03*
%TO.N,AGND*%
X13098780Y14099540D03*
X8569960Y11739880D03*
X-2499360Y8600440D03*
X6210300Y13721080D03*
X-5600700Y7299960D03*
X13700760Y14698980D03*
X6149340Y7980680D03*
X640080Y6731000D03*
X-2799080Y13700760D03*
X-1930400Y7670800D03*
X14500860Y14500860D03*
X2570480Y13530580D03*
%TO.N,DGND*%
X-14000480Y-7500620D03*
X-8001000Y-12499340D03*
X8199120Y-4099560D03*
X-12999720Y-7500620D03*
X-9100820Y-8399780D03*
X8770620Y-14511020D03*
X701040Y-13799820D03*
X-8669020Y-4180840D03*
X8069580Y-14069060D03*
X-14000480Y-5999480D03*
X-2100580Y-10500360D03*
X-10200640Y-8699500D03*
X-11501120Y-8498840D03*
X-2499360Y-9100820D03*
X-500380Y-11998960D03*
X-4300220Y-8199120D03*
X-5290820Y3091180D03*
X-11998960Y-7500620D03*
X-5999480Y-12499340D03*
X-7800340Y-6299200D03*
X-8399780Y-5699760D03*
X-7000240Y-5600700D03*
X-14000480Y-4500880D03*
X8001000Y-10650220D03*
X-9100820Y-7500620D03*
X-9999980Y-7500620D03*
X-2359660Y-3870960D03*
X-14000480Y-2999740D03*
X8999220Y-4399280D03*
X-8999220Y-12499340D03*
X-5300980Y-7500620D03*
X-7000240Y-12499340D03*
X-5999480Y-6499860D03*
X-12999720Y-8498840D03*
X-4399280Y-6499860D03*
X-7500620Y-14000480D03*
X-5300980Y-5600700D03*
X-3401060Y-10500360D03*
X-4099560Y-12700000D03*
X-11000740Y-7500620D03*
X-9100820Y-6299200D03*
%TO.N,GND*%
X11501120Y-11300460D03*
X11699240Y3799840D03*
X12931140Y-11460480D03*
X10010140Y5648960D03*
X13898880Y-7800340D03*
X14201140Y-8699500D03*
X14000480Y-7000240D03*
X10899140Y-2400300D03*
%TO.N,N-000069*%
X5300980Y7899400D03*
X7599680Y6639560D03*
%TO.N,N-000073*%
X6799580Y6918960D03*
X4500880Y7289800D03*
%TO.N,N-000077*%
X8900160Y-599440D03*
%TO.N,N-000081*%
X14259560Y8823960D03*
%TO.N,VCC*%
X-5450840Y4140200D03*
X14800580Y769620D03*
X3500120Y-1899920D03*
X-3411220Y-13799820D03*
X13070840Y-12999720D03*
X-13299440Y2400300D03*
X1678940Y-12860020D03*
X15430500Y14333220D03*
X8161020Y-12070080D03*
X-3319780Y-2260600D03*
X-7879080Y-2280920D03*
X-16040100Y13479780D03*
%TO.N,VCCA*%
X-7099300Y7299960D03*
X-3700780Y13700760D03*
X4831080Y13609320D03*
X2748280Y9850120D03*
X11000740Y14099540D03*
X10099040Y14300200D03*
X1899920Y7800340D03*
X11600180Y9298940D03*
X-5100320Y9499600D03*
%TO.N,VCOM*%
X6570980Y3098800D03*
X8509000Y6510020D03*
X14099540Y-10899140D03*
X14800580Y-200660D03*
X14099540Y-9900920D03*
X12760960Y-6850380D03*
X6428740Y1480820D03*
X6489700Y2301240D03*
%TD*%
D43*
%TO.N,+BATT*%
X10899140Y863600D02*
X9837420Y-198120D01*
D44*
X4399280Y-6964680D02*
X4864100Y-6499860D01*
X4399280Y-5001260D02*
X4399280Y-3964940D01*
X4399280Y-11000740D02*
X4399280Y-9964420D01*
X4399280Y-14000480D02*
X4399280Y-12964160D01*
X10899140Y1041400D02*
X11938000Y1041400D01*
X11938000Y1041400D02*
X12700000Y1953260D01*
X4399280Y-12964160D02*
X4864100Y-12499340D01*
X4399280Y-9964420D02*
X4864100Y-9499600D01*
X4399280Y-3964940D02*
X4864100Y-3500120D01*
D43*
X10899140Y1041400D02*
X10899140Y863600D01*
D44*
X4399280Y-8001000D02*
X4399280Y-6964680D01*
D45*
%TO.N,/BOOT0*%
X-4099560Y2250440D02*
X-5285740Y2250440D01*
X-5285740Y2250440D02*
X-5537200Y1998980D01*
%TO.N,/EXT_I2C_SCL/TX*%
X3413760Y251460D02*
X4099560Y251460D01*
X-25400Y-741680D02*
X2420620Y-741680D01*
X2420620Y-741680D02*
X3413760Y251460D01*
%TO.N,/EXT_I2C_SDA/RX*%
X-822960Y-1000760D02*
X-502920Y-1320800D01*
X3429000Y-248920D02*
X4099560Y-248920D01*
X2357120Y-1320800D02*
X3429000Y-248920D01*
X-502920Y-1320800D02*
X2357120Y-1320800D01*
%TO.N,/EXT_SPI_CS*%
X2184400Y3751580D02*
X2062480Y3629660D01*
X4099560Y3751580D02*
X2184400Y3751580D01*
%TO.N,/EXT_SPI_MISO*%
X1910080Y2684780D02*
X1638300Y2413000D01*
X1638300Y2413000D02*
X942340Y2413000D01*
X942340Y2413000D02*
X530860Y2001520D01*
X4033520Y2684780D02*
X1910080Y2684780D01*
X4099560Y2750820D02*
X4033520Y2684780D01*
%TO.N,/EXT_SPI_MOSI*%
X1991360Y2250440D02*
X1790700Y2049780D01*
X4099560Y2250440D02*
X1991360Y2250440D01*
X1790700Y2049780D02*
X1465580Y2049780D01*
X1465580Y2049780D02*
X764540Y1348740D01*
X764540Y1348740D02*
X764540Y645160D01*
%TO.N,/EXT_SPI_SCK*%
X1430020Y3048000D02*
X1376680Y2994660D01*
X3187700Y3251200D02*
X2984500Y3048000D01*
X2984500Y3048000D02*
X1430020Y3048000D01*
X4099560Y3251200D02*
X3187700Y3251200D01*
%TO.N,/IMU/I2C_SCL_VCCA*%
X-6009640Y6350000D02*
X-6009640Y6860540D01*
X-6019800Y1140460D02*
X-6111240Y1231900D01*
X-4940300Y1140460D02*
X-6019800Y1140460D01*
X-6390640Y7241540D02*
X-6390640Y10899140D01*
X-6111240Y1231900D02*
X-6111240Y6248400D01*
X-4828540Y1252220D02*
X-4940300Y1140460D01*
X-6111240Y6248400D02*
X-6009640Y6350000D01*
X-6009640Y6860540D02*
X-6390640Y7241540D01*
X-4099560Y1252220D02*
X-4828540Y1252220D01*
%TO.N,/IMU/I2C_SDA_VCCA*%
X-4099560Y1750060D02*
X-3370580Y1750060D01*
X-2760980Y2359660D02*
X-3370580Y1750060D01*
%TO.N,/IMU/INT_GA*%
X-4500880Y10500360D02*
X-5199380Y10500360D01*
X-3799840Y9799320D02*
X-4500880Y10500360D01*
X-4498340Y13799820D02*
X-4732020Y13799820D01*
X-1762760Y13662660D02*
X-2400300Y14300200D01*
X-1750060Y6667500D02*
X-2997200Y7914640D01*
X-5199380Y10500360D02*
X-5339080Y10640060D01*
X-3997960Y14300200D02*
X-4498340Y13799820D01*
X1671320Y13662660D02*
X-1762760Y13662660D01*
X-3799840Y9098280D02*
X-3799840Y9799320D01*
X-2997200Y7914640D02*
X-2997200Y8295640D01*
X-5339080Y10640060D02*
X-5339080Y13192760D01*
X-4732020Y13799820D02*
X-5339080Y13192760D01*
X-2997200Y8295640D02*
X-3799840Y9098280D01*
X-2400300Y14300200D02*
X-3997960Y14300200D01*
X-1750060Y5600700D02*
X-1750060Y6667500D01*
%TO.N,/LED_GREEN*%
X-1965960Y14373860D02*
X-2252980Y14660880D01*
X-4930140Y7701280D02*
X-4930140Y6720840D01*
X7406640Y14373860D02*
X-1965960Y14373860D01*
X-6471920Y1084580D02*
X-6471920Y6431280D01*
X-5699760Y13340080D02*
X-5699760Y8470900D01*
X-4099560Y751840D02*
X-5201920Y751840D01*
X-6471920Y6431280D02*
X-6629400Y6588760D01*
X-5699760Y8470900D02*
X-4930140Y7701280D01*
X-4643120Y14160500D02*
X-4879340Y14160500D01*
X-5201920Y751840D02*
X-5229860Y779780D01*
X-4142740Y14660880D02*
X-4643120Y14160500D01*
X-2252980Y14660880D02*
X-4142740Y14660880D01*
X-6167120Y779780D02*
X-6471920Y1084580D01*
X7480300Y14300200D02*
X7406640Y14373860D01*
X-5229860Y779780D02*
X-6167120Y779780D01*
X-4879340Y14160500D02*
X-5699760Y13340080D01*
%TO.N,/LED_RED*%
X-5303520Y251460D02*
X-5466080Y414020D01*
D46*
X-9771380Y-1270000D02*
X-12788900Y-1270000D01*
D45*
X-12788900Y-1270000D02*
X-13230860Y-1270000D01*
D46*
X-8084820Y414020D02*
X-8087360Y414020D01*
D45*
X-5466080Y414020D02*
X-8084820Y414020D01*
X-8087360Y414020D02*
X-9771380Y-1270000D01*
X-4099560Y251460D02*
X-5303520Y251460D01*
X-13230860Y-1270000D02*
X-13251180Y-1290320D01*
%TO.N,/MOTOR1*%
X4099560Y1252220D02*
X2560320Y1252220D01*
X2560320Y1252220D02*
X2468880Y1160780D01*
%TO.N,/MOTOR2*%
X1988820Y1750060D02*
X1678940Y1440180D01*
X4099560Y1750060D02*
X1988820Y1750060D01*
%TO.N,/MOTOR3*%
X-1082040Y3970020D02*
X-218440Y3106420D01*
X-218440Y558800D02*
X459740Y-119380D01*
X459740Y-119380D02*
X1049020Y-119380D01*
X-218440Y3106420D02*
X-218440Y558800D01*
X-4099560Y3251200D02*
X-3335020Y3251200D01*
X-3335020Y3251200D02*
X-2616200Y3970020D01*
X-2616200Y3970020D02*
X-1082040Y3970020D01*
%TO.N,/MOTOR4*%
X-3238500Y2750820D02*
X-2819400Y3169920D01*
X-579120Y2959100D02*
X-579120Y-60960D01*
X-2819400Y3169920D02*
X-2819400Y3261360D01*
X-2819400Y3261360D02*
X-2471420Y3609340D01*
X-1229360Y3609340D02*
X-579120Y2959100D01*
X-4099560Y2750820D02*
X-3238500Y2750820D01*
X-2471420Y3609340D02*
X-1229360Y3609340D01*
%TO.N,/POWER/CHG*%
X3187700Y751840D02*
X4099560Y751840D01*
X2794000Y358140D02*
X2590800Y358140D01*
X3187700Y751840D02*
X2794000Y358140D01*
%TO.N,/POWER/D+*%
X-8379460Y10449560D02*
X-9768840Y10449560D01*
X-8049260Y9649460D02*
X-8049260Y10119360D01*
X-10500360Y11181080D02*
X-10500360Y12100560D01*
X-9768840Y10449560D02*
X-10500360Y11181080D01*
X-8049260Y10119360D02*
X-8379460Y10449560D01*
%TO.N,/POWER/D-*%
X-9349740Y9989820D02*
X-9448800Y10088880D01*
X-11150600Y11170920D02*
X-11150600Y12100560D01*
X-9448800Y10088880D02*
X-10068560Y10088880D01*
X-10068560Y10088880D02*
X-11150600Y11170920D01*
X-9349740Y9649460D02*
X-9349740Y9989820D01*
%TO.N,/POWER/EN1*%
X-2250440Y6512560D02*
X-2415540Y6512560D01*
X-2415540Y6512560D02*
X-2687320Y6784340D01*
X-2250440Y5600700D02*
X-2250440Y6512560D01*
%TO.N,/POWER/EN2*%
X10081260Y3929380D02*
X9906000Y3754120D01*
X3045460Y5895340D02*
X3868420Y5895340D01*
X3868420Y5895340D02*
X6009640Y3754120D01*
X6009640Y3754120D02*
X9906000Y3754120D01*
X3045460Y5895340D02*
X2750820Y5600700D01*
%TO.N,/POWER/PGOOD*%
X12900660Y-3200400D02*
X12700000Y-3401060D01*
X-1249680Y5600700D02*
X-1249680Y4688840D01*
X12900660Y-2095500D02*
X14030960Y-965200D01*
X11788140Y4856480D02*
X10888980Y4856480D01*
X3012440Y4676140D02*
X2240280Y4676140D01*
X13990320Y8249920D02*
X13840460Y8399780D01*
X11844020Y4912360D02*
X11788140Y4856480D01*
X121920Y3279140D02*
X35560Y3365500D01*
X3629660Y5293360D02*
X3012440Y4676140D01*
X12400280Y8399780D02*
X11844020Y7843520D01*
X9999980Y-6738620D02*
X9499600Y-7239000D01*
X10888980Y4856480D02*
X10657840Y4625340D01*
X12900660Y-3200400D02*
X12900660Y-2095500D01*
X14239240Y7109460D02*
X14030960Y6901180D01*
X11844020Y7843520D02*
X11844020Y4912360D01*
X35560Y3365500D02*
X35560Y3975100D01*
X13840460Y8399780D02*
X12400280Y8399780D01*
X8145780Y4625340D02*
X7858760Y4338320D01*
X2240280Y4676140D02*
X843280Y3279140D01*
X843280Y3279140D02*
X121920Y3279140D01*
X12700000Y-3401060D02*
X11399520Y-3401060D01*
X9999980Y-4800600D02*
X9999980Y-6738620D01*
X14239240Y8150860D02*
X14239240Y7109460D01*
X14140180Y8249920D02*
X14239240Y8150860D01*
X13990320Y8249920D02*
X14140180Y8249920D01*
X35560Y3975100D02*
X-678180Y4688840D01*
X11399520Y-3401060D02*
X9999980Y-4800600D01*
X14030960Y-965200D02*
X14030960Y6901180D01*
X10657840Y4625340D02*
X8145780Y4625340D01*
X-678180Y4688840D02*
X-1249680Y4688840D01*
X9499600Y-7239000D02*
X8001000Y-7239000D01*
%TO.N,/POWER/SYSOFF*%
X6548120Y4775200D02*
X5557520Y4775200D01*
X5557520Y4775200D02*
X3690620Y6642100D01*
X2540000Y6642100D02*
X2250440Y6352540D01*
X7185660Y5412740D02*
X6548120Y4775200D01*
X3690620Y6642100D02*
X2540000Y6642100D01*
X2250440Y6352540D02*
X2250440Y5600700D01*
%TO.N,/POWER/USBD+*%
X-1770380Y2499360D02*
X-1770380Y-1394460D01*
X-2260600Y2989580D02*
X-1770380Y2499360D01*
X-7980680Y6880860D02*
X-8049260Y6949440D01*
X-1249680Y-1915160D02*
X-1249680Y-2598420D01*
X-7980680Y4579620D02*
X-7980680Y6880860D01*
X-1770380Y-1394460D02*
X-1249680Y-1915160D01*
X-8049260Y7749540D02*
X-8049260Y6949440D01*
%TO.N,/POWER/USBD-*%
X-9410700Y5158740D02*
X-9410700Y7089140D01*
X-9349740Y7150100D02*
X-9349740Y7749540D01*
X-9410700Y7089140D02*
X-9349740Y7150100D01*
X-749300Y-1686560D02*
X-970280Y-1686560D01*
X-1409700Y-1247140D02*
X-1409700Y2969260D01*
X-970280Y-1686560D02*
X-1409700Y-1247140D01*
X-1409700Y2969260D02*
X-1450340Y3009900D01*
X-749300Y-2598420D02*
X-749300Y-1686560D01*
%TO.N,/POWER/USB_CON*%
X1750060Y5600700D02*
X1750060Y6449060D01*
X-8920480Y8999220D02*
X-11330940Y8999220D01*
X-4599940Y8470900D02*
X-3479800Y7350760D01*
X-3479800Y7350760D02*
X-3268980Y7350760D01*
X1750060Y6449060D02*
X2700020Y7399020D01*
X-8699500Y9220200D02*
X-8920480Y8999220D01*
X-8699500Y9220200D02*
X-8699500Y9649460D01*
X-11330940Y8999220D02*
X-11630660Y9298940D01*
%TO.N,/POWER/VBAT*%
X6299200Y-99060D02*
X5600700Y599440D01*
X12011660Y-2616200D02*
X12011660Y-2011680D01*
X5600700Y3599180D02*
X5600700Y599440D01*
X8699500Y-1437640D02*
X7962900Y-701040D01*
X10099040Y-1437640D02*
X8699500Y-1437640D01*
X4947920Y4251960D02*
X5600700Y3599180D01*
X7254240Y-701040D02*
X6652260Y-99060D01*
X6652260Y-99060D02*
X6299200Y-99060D01*
X11437620Y-1437640D02*
X10099040Y-1437640D01*
X4947920Y4251960D02*
X4099560Y4251960D01*
X12011660Y-2011680D02*
X11437620Y-1437640D01*
X7962900Y-701040D02*
X7254240Y-701040D01*
D47*
%TO.N,/POWER/VUSB*%
X-11960860Y7800340D02*
X-12700000Y7800340D01*
D45*
X6428740Y6019800D02*
X5798820Y5389880D01*
D44*
X-12766040Y9316720D02*
X-12763500Y10302240D01*
D47*
X-12600940Y10302240D02*
X-12763500Y10302240D01*
D45*
X9121140Y5041900D02*
X8143240Y6019800D01*
D47*
X-11800840Y12100560D02*
X-11800840Y11102340D01*
D45*
X10515600Y5041900D02*
X9121140Y5041900D01*
D47*
X-11800840Y11102340D02*
X-12600940Y10302240D01*
D44*
X-11960860Y8511540D02*
X-12766040Y9316720D01*
D45*
X11084560Y5610860D02*
X10515600Y5041900D01*
X8143240Y6019800D02*
X6428740Y6019800D01*
D44*
X-11960860Y7800340D02*
X-11960860Y8511540D01*
D45*
%TO.N,/SNRST*%
X-9100820Y2400300D02*
X-8437880Y1737360D01*
X248920Y4277360D02*
X614680Y3911600D01*
X-8437880Y1737360D02*
X-8300720Y1737360D01*
D46*
X-9601200Y0D02*
X-11198860Y0D01*
X-11198860Y0D02*
X-11833860Y-635000D01*
D45*
X248920Y5600700D02*
X248920Y4277360D01*
X-8300720Y1737360D02*
X-8300720Y1297940D01*
X614680Y3911600D02*
X614680Y3873500D01*
X-8300720Y1297940D02*
X-9598660Y0D01*
X-9598660Y0D02*
X-9601200Y0D01*
%TO.N,/TCK*%
X-8600440Y-2100580D02*
X-7749540Y-1249680D01*
X-7749540Y-1249680D02*
X-4099560Y-1249680D01*
X-11833860Y-4445000D02*
X-11198860Y-3810000D01*
X-9710420Y-3810000D02*
X-8600440Y-2700020D01*
X-8600440Y-2700020D02*
X-8600440Y-2100580D01*
D46*
X-11198860Y-3810000D02*
X-9710420Y-3810000D01*
D45*
%TO.N,/TDI*%
X-5633720Y-749300D02*
X-5836920Y-546100D01*
X-4099560Y-749300D02*
X-5633720Y-749300D01*
%TO.N,/TDO*%
X-11833860Y-3175000D02*
X-11198860Y-2540000D01*
X-9687560Y-2540000D02*
X-7094220Y53340D01*
D46*
X-11198860Y-2540000D02*
X-9687560Y-2540000D01*
D45*
X-7094220Y53340D02*
X-5613400Y53340D01*
X-5613400Y53340D02*
X-5311140Y-248920D01*
X-5311140Y-248920D02*
X-4099560Y-248920D01*
%TO.N,/TMS*%
X-8481060Y-5080000D02*
X-8100060Y-4699000D01*
X-1750060Y-4371340D02*
X-1750060Y-2598420D01*
X-9489440Y-5080000D02*
X-8481060Y-5080000D01*
X-2077720Y-4699000D02*
X-1750060Y-4371340D01*
D46*
X-11290300Y-5080000D02*
X-9489440Y-5080000D01*
D45*
X-8100060Y-4699000D02*
X-2077720Y-4699000D01*
X-11833860Y-5715000D02*
X-11290300Y-5080000D01*
%TO.N,/WIRELESS/SPI_MISO*%
X1750060Y-6949440D02*
X1750060Y-2598420D01*
X1000760Y-7698740D02*
X1750060Y-6949440D01*
%TO.N,/WIRELESS/SPI_MOSI*%
X304800Y-7393940D02*
X1366520Y-6332220D01*
X1366520Y-6332220D02*
X1366520Y-3665220D01*
X1249680Y-3548380D02*
X1249680Y-2598420D01*
X1000760Y-8801100D02*
X304800Y-8105140D01*
X1366520Y-3665220D02*
X1249680Y-3548380D01*
X304800Y-8105140D02*
X304800Y-7393940D01*
%TO.N,/WIRELESS/SPI_SCK*%
X899160Y-9799320D02*
X2250440Y-8448040D01*
X2250440Y-8448040D02*
X2250440Y-2598420D01*
%TO.N,/WIRELESS/W_CE*%
X-355600Y-3644900D02*
X-355600Y-10345420D01*
X-248920Y-3538220D02*
X-355600Y-3644900D01*
X-248920Y-2598420D02*
X-248920Y-3538220D01*
X-355600Y-10345420D02*
X398780Y-11099800D01*
%TO.N,/WIRELESS/W_CK*%
X749300Y-2598420D02*
X749300Y-5831840D01*
X749300Y-5831840D02*
X680720Y-5900420D01*
%TO.N,/WIRELESS/W_CS*%
X2687320Y-3573780D02*
X2687320Y-8971280D01*
X2750820Y-2598420D02*
X2750820Y-3510280D01*
X2687320Y-8971280D02*
X1059180Y-10599420D01*
X2750820Y-3510280D02*
X2687320Y-3573780D01*
%TO.N,/WIRELESS/W_INT*%
X248920Y-3782060D02*
X248920Y-2598420D01*
X60960Y-6499860D02*
X60960Y-3970020D01*
X60960Y-3970020D02*
X248920Y-3782060D01*
X220980Y-6659880D02*
X60960Y-6499860D01*
D43*
%TO.N,AGND*%
X749300Y5600700D02*
X749300Y6621780D01*
X6235700Y12496800D02*
X6238240Y12499340D01*
X6238240Y13693140D02*
X6238240Y12499340D01*
X-2501900Y10703560D02*
X-3035300Y11236960D01*
X13098780Y14099540D02*
X13761720Y13538200D01*
X-2501900Y8602980D02*
X-2499360Y8600440D01*
X13761720Y14638020D02*
X13700760Y14698980D01*
X5161280Y10998200D02*
X5161280Y9497060D01*
X13761720Y13500100D02*
X13761720Y14638020D01*
X6738620Y8569960D02*
X6738620Y8999220D01*
X5161280Y12496800D02*
X5161280Y10998200D01*
X-2501900Y10050780D02*
X-2501900Y8602980D01*
X-2501900Y10050780D02*
X-2501900Y10703560D01*
X749300Y6621780D02*
X640080Y6731000D01*
X5161280Y12496800D02*
X6235700Y12496800D01*
X-3035300Y11236960D02*
X-4500880Y11236960D01*
X6238240Y12499340D02*
X6238240Y11000740D01*
X6149340Y7980680D02*
X6738620Y8569960D01*
X1590040Y12550140D02*
X2570480Y13530580D01*
X13761720Y13538200D02*
X13761720Y13500100D01*
X6210300Y13721080D02*
X6238240Y13693140D01*
X1099820Y12550140D02*
X1590040Y12550140D01*
%TO.N,DGND*%
X4099560Y-749300D02*
X5989320Y-749300D01*
D44*
X-8699500Y7749540D02*
X-8699500Y4800600D01*
D43*
X-2250440Y-3761740D02*
X-2359660Y-3870960D01*
D44*
X-7399020Y10269220D02*
X-8130540Y11000740D01*
D43*
X-8300720Y3261360D02*
X-7312660Y3261360D01*
X-9055100Y4445000D02*
X-10563860Y4445000D01*
D45*
X-5290820Y3469640D02*
X-5290820Y3091180D01*
D43*
X-14000480Y-4500880D02*
X-14000480Y-2999740D01*
X13497560Y-13764260D02*
X13830300Y-13761720D01*
X7998460Y-11264900D02*
X7998460Y-10652760D01*
X10571480Y-14201140D02*
X10134600Y-13764260D01*
X-7099300Y-5699760D02*
X-8399780Y-5699760D01*
X5989320Y-749300D02*
X5999480Y-739140D01*
X-7487920Y-2999740D02*
X-8669020Y-4180840D01*
X8498840Y-4399280D02*
X8199120Y-4099560D01*
D44*
X9499600Y-13782040D02*
X8770620Y-14511020D01*
D43*
X9237980Y-6002020D02*
X9237980Y-4638040D01*
X-9100820Y8549640D02*
X-9687560Y8549640D01*
X-5298440Y-5600700D02*
X-5300980Y-5600700D01*
X-11501120Y-8498840D02*
X-12999720Y-8498840D01*
X9237980Y-4638040D02*
X8999220Y-4399280D01*
X-5300980Y-7500620D02*
X-4602480Y-8199120D01*
D45*
X-4099560Y3751580D02*
X-5008880Y3751580D01*
D43*
X-8699500Y7749540D02*
X-8699500Y8148320D01*
D45*
X-5008880Y3751580D02*
X-5290820Y3469640D01*
D43*
X-8699500Y8148320D02*
X-9100820Y8549640D01*
X-2250440Y-2598420D02*
X-2250440Y-3761740D01*
X13830300Y-13761720D02*
X13208000Y-13761720D01*
X7480300Y-13479780D02*
X8069580Y-14069060D01*
X-7061200Y3009900D02*
X-7061200Y1998980D01*
X8199120Y-3949700D02*
X6979920Y-2730500D01*
D44*
X-8001000Y8498840D02*
X-8351520Y8498840D01*
D43*
X6979920Y-970280D02*
X6748780Y-739140D01*
X-7312660Y3261360D02*
X-7061200Y3009900D01*
X13208000Y-13761720D02*
X12768580Y-14201140D01*
X-4399280Y-6499860D02*
X-5298440Y-5600700D01*
X7955280Y-11264900D02*
X7480300Y-11739880D01*
X8199120Y-4099560D02*
X8199120Y-3949700D01*
X14968220Y-14899640D02*
X13830300Y-13761720D01*
X-4262120Y-12862560D02*
X-4262120Y-13799820D01*
X-11000740Y-7500620D02*
X-9999980Y-7500620D01*
X12768580Y-14201140D02*
X10571480Y-14201140D01*
D44*
X-9199880Y12100560D02*
X-9199880Y11191240D01*
X9499600Y-13764260D02*
X9499600Y-13782040D01*
D43*
X-9100820Y-7500620D02*
X-9100820Y-6299200D01*
X13497560Y-13764260D02*
X13830300Y-13761720D01*
X-12999720Y-7500620D02*
X-11998960Y-7500620D01*
D44*
X-8351520Y8498840D02*
X-8699500Y8150860D01*
X-7399020Y9100820D02*
X-7399020Y10269220D01*
D43*
X-7500620Y-14000480D02*
X-8999220Y-12499340D01*
X6748780Y-739140D02*
X5999480Y-739140D01*
X-9900920Y-8399780D02*
X-9100820Y-8399780D01*
X14721840Y-16276320D02*
X14968220Y-16029940D01*
X-4602480Y-8199120D02*
X-4300220Y-8199120D01*
X-7061200Y5199380D02*
X-7061200Y3009900D01*
X14968220Y-16029940D02*
X14968220Y-14899640D01*
X-8699500Y4800600D02*
X-9055100Y4445000D01*
X14721840Y-16276320D02*
X14968220Y-16029940D01*
D44*
X-8699500Y8148320D02*
X-8699500Y8150860D01*
X-7399020Y9100820D02*
X-8001000Y8498840D01*
D43*
X7998460Y-11264900D02*
X7955280Y-11264900D01*
X7998460Y-10652760D02*
X8001000Y-10650220D01*
X8999220Y-4399280D02*
X8498840Y-4399280D01*
X-8001000Y-12499340D02*
X-7000240Y-12499340D01*
X-7800340Y-6299200D02*
X-5999480Y-6499860D01*
X-10200640Y-8699500D02*
X-9900920Y-8399780D01*
D44*
X-8130540Y11000740D02*
X-9009380Y11000740D01*
D43*
X7480300Y-11739880D02*
X7480300Y-13479780D01*
X-7000240Y-12499340D02*
X-5999480Y-12499340D01*
X-4099560Y-12700000D02*
X-4262120Y-12862560D01*
X-9687560Y8549640D02*
X-10436860Y7800340D01*
X-14000480Y-7500620D02*
X-14000480Y-5999480D01*
X10134600Y-13764260D02*
X9499600Y-13764260D01*
X6979920Y-2730500D02*
X6979920Y-970280D01*
D44*
X-9009380Y11000740D02*
X-9199880Y11191240D01*
D43*
X-7000240Y-5600700D02*
X-7099300Y-5699760D01*
X-5763260Y-2999740D02*
X-7487920Y-2999740D01*
D44*
%TO.N,GND*%
X12352020Y3799840D02*
X12700000Y3451860D01*
X11737340Y-5161280D02*
X12499340Y-4399280D01*
D47*
X9232900Y9001760D02*
X9232900Y6776720D01*
X8265160Y9001760D02*
X8262620Y8999220D01*
X9232900Y6776720D02*
X10010140Y5999480D01*
X9232900Y9001760D02*
X8265160Y9001760D01*
D45*
X10010140Y5999480D02*
X10010140Y5648960D01*
X11084560Y7388860D02*
X11084560Y7086600D01*
D44*
X10899140Y2999740D02*
X11699240Y3799840D01*
X10899140Y2565400D02*
X10899140Y2999740D01*
D47*
X11737340Y-6002020D02*
X10761980Y-6002020D01*
X11998960Y-7731760D02*
X11968480Y-7731760D01*
X10337800Y-2961640D02*
X10899140Y-2400300D01*
X11968480Y-7731760D02*
X11899900Y-7800340D01*
X10099040Y-2961640D02*
X10337800Y-2961640D01*
X9994900Y10731500D02*
X9994900Y9763760D01*
X11899900Y-7800340D02*
X11998960Y-7731760D01*
D44*
X11699240Y3799840D02*
X12352020Y3799840D01*
D47*
X11737340Y-6936740D02*
X11998960Y-7198360D01*
X10099040Y-2961640D02*
X8699500Y-2961640D01*
D44*
X11737340Y-6002020D02*
X11737340Y-5161280D01*
D47*
X11998960Y-7198360D02*
X11998960Y-7731760D01*
D45*
X10010140Y6012180D02*
X10010140Y5999480D01*
X11084560Y7086600D02*
X10010140Y6012180D01*
D47*
X9994900Y9763760D02*
X9232900Y9001760D01*
X11737340Y-6002020D02*
X11737340Y-6936740D01*
D44*
X12499340Y-4399280D02*
X12900660Y-4399280D01*
%TO.N,N-000011*%
X6598920Y-11000740D02*
X6598920Y-9964420D01*
X6598920Y-9964420D02*
X6134100Y-9499600D01*
D43*
%TO.N,N-000028*%
X-2712720Y12760960D02*
X-2501900Y12550140D01*
X-1264920Y12550140D02*
X-2501900Y12550140D01*
X-749300Y5600700D02*
X-749300Y12034520D01*
X-4500880Y12760960D02*
X-2712720Y12760960D01*
X-749300Y12034520D02*
X-1264920Y12550140D01*
%TO.N,N-000029*%
X-248920Y9939020D02*
X-248920Y5600700D01*
X1099820Y10050780D02*
X-137160Y10050780D01*
X3197860Y12496800D02*
X3637280Y12496800D01*
X1099820Y10050780D02*
X1099820Y10398760D01*
X-137160Y10050780D02*
X-248920Y9939020D01*
X1099820Y10398760D02*
X3197860Y12496800D01*
D44*
%TO.N,N-000051*%
X6598920Y-5001260D02*
X6598920Y-3964940D01*
X6598920Y-3964940D02*
X6134100Y-3500120D01*
%TO.N,N-000052*%
X6598920Y-8001000D02*
X6598920Y-6964680D01*
X6598920Y-6964680D02*
X6134100Y-6499860D01*
%TO.N,N-000053*%
X6598920Y-14000480D02*
X6598920Y-12964160D01*
X6598920Y-12964160D02*
X6134100Y-12499340D01*
D45*
%TO.N,N-000069*%
X7541260Y6697980D02*
X7541260Y7228840D01*
X7541260Y7228840D02*
X7228840Y7541260D01*
X6339840Y7320280D02*
X5880100Y7320280D01*
X7599680Y6639560D02*
X7541260Y6697980D01*
X7228840Y7541260D02*
X6560820Y7541260D01*
X5880100Y7320280D02*
X5300980Y7899400D01*
X6560820Y7541260D02*
X6339840Y7320280D01*
%TO.N,N-000073*%
X6799580Y6918960D02*
X6710680Y6830060D01*
X4960620Y6830060D02*
X4500880Y7289800D01*
X6710680Y6830060D02*
X4960620Y6830060D01*
%TO.N,N-000076*%
X15400020Y-14338300D02*
X16029940Y-14968220D01*
X15300960Y-13761720D02*
X15400020Y-14338300D01*
%TO.N,N-000077*%
X7399020Y2999740D02*
X7399020Y1399540D01*
X6901180Y160020D02*
X7401560Y-340360D01*
X10899140Y3909060D02*
X10909300Y3909060D01*
X7401560Y-340360D02*
X8641080Y-340360D01*
X7399020Y1399540D02*
X6901180Y901700D01*
X13116560Y7520940D02*
X13401040Y7637780D01*
X10200640Y3210560D02*
X7609840Y3210560D01*
X8641080Y-340360D02*
X8900160Y-599440D01*
X7609840Y3210560D02*
X7399020Y2999740D01*
X12999720Y7637780D02*
X13116560Y7520940D01*
X10909300Y3909060D02*
X11399520Y4399280D01*
X13116560Y6499860D02*
X13116560Y5527040D01*
X6901180Y901700D02*
X6901180Y160020D01*
X13116560Y6499860D02*
X13116560Y7454900D01*
X10200640Y3210560D02*
X10899140Y3909060D01*
X11988800Y4399280D02*
X13116560Y5527040D01*
X13116560Y7454900D02*
X13401040Y7637780D01*
X13401040Y7637780D02*
X12999720Y7637780D01*
X11399520Y4399280D02*
X11988800Y4399280D01*
%TO.N,N-000078*%
X12263120Y-11643360D02*
X12263120Y-12499340D01*
X11838940Y-9441180D02*
X10414000Y-9441180D01*
X10414000Y-9441180D02*
X10358120Y-9497060D01*
X11998960Y-9601200D02*
X11838940Y-9441180D01*
X10358120Y-9497060D02*
X10353040Y-9497060D01*
X12100560Y-11071860D02*
X12100560Y-11480800D01*
X9499600Y-8763000D02*
X9499600Y-9740900D01*
X12100560Y-11480800D02*
X12263120Y-11643360D01*
X11998960Y-10970260D02*
X12100560Y-11071860D01*
X7998460Y-9740900D02*
X9499600Y-9740900D01*
X11998960Y-10271760D02*
X11998960Y-9601200D01*
X10353040Y-9497060D02*
X10109200Y-9740900D01*
X10109200Y-9740900D02*
X9499600Y-9740900D01*
X11998960Y-10271760D02*
X11998960Y-10970260D01*
%TO.N,N-000079*%
X8498840Y13500100D02*
X7299960Y13500100D01*
X7299960Y13500100D02*
X7000240Y13200380D01*
X9042400Y13271500D02*
X8727440Y13271500D01*
X7000240Y11762740D02*
X7762240Y11000740D01*
X7000240Y13200380D02*
X7000240Y11762740D01*
X8727440Y13271500D02*
X8498840Y13500100D01*
%TO.N,N-000080*%
X9994900Y12565380D02*
X9994900Y12306300D01*
X10200640Y12100560D02*
X12138660Y12100560D01*
X9819640Y12390120D02*
X7871460Y12390120D01*
X9994900Y12306300D02*
X10200640Y12100560D01*
X9994900Y13271500D02*
X9994900Y12565380D01*
X7871460Y12390120D02*
X7762240Y12499340D01*
X12237720Y12001500D02*
X12237720Y10500360D01*
X12138660Y12100560D02*
X12237720Y12001500D01*
X9994900Y12565380D02*
X9819640Y12390120D01*
D48*
%TO.N,N-000081*%
X14259560Y8823960D02*
X13967460Y9161780D01*
X13401040Y9161780D02*
X13967460Y9161780D01*
D45*
%TO.N,N-000087*%
X12951460Y-10271760D02*
X12951460Y-10632440D01*
X13830300Y-11511280D02*
X13830300Y-12237720D01*
X12951460Y-10632440D02*
X13830300Y-11511280D01*
D43*
%TO.N,N-000089*%
X11361420Y-198120D02*
X11902440Y-198120D01*
X12288520Y-584200D02*
X12900660Y-584200D01*
X11902440Y-198120D02*
X12288520Y-584200D01*
%TO.N,N-000093*%
X9961880Y8562340D02*
X9961880Y7500620D01*
D45*
X10947400Y10731500D02*
X10947400Y10048240D01*
X9398000Y11699240D02*
X10599420Y11699240D01*
D43*
X10756900Y9001760D02*
X10401300Y9001760D01*
D45*
X10947400Y10048240D02*
X10756900Y9857740D01*
X10947400Y11351260D02*
X10947400Y10731500D01*
X10599420Y11699240D02*
X10947400Y11351260D01*
D43*
X10401300Y9001760D02*
X9961880Y8562340D01*
D45*
X10756900Y9857740D02*
X10756900Y9001760D01*
X9042400Y10731500D02*
X9042400Y11343640D01*
X9042400Y11343640D02*
X9398000Y11699240D01*
D43*
%TO.N,VCC*%
X-3634740Y-2999740D02*
X-3634740Y-2913380D01*
X-4099560Y4251960D02*
X-3162300Y4251960D01*
X-2750820Y4663440D02*
X-3162300Y4251960D01*
D44*
X9499600Y-12240260D02*
X10480040Y-12240260D01*
D43*
X14919960Y8590280D02*
X14919960Y11899900D01*
X-5537200Y4638040D02*
X-5537200Y5199380D01*
X-14599920Y9301480D02*
X-15280640Y9982200D01*
D44*
X9685020Y-10634980D02*
X9499600Y-10820400D01*
D43*
X14625320Y6878320D02*
X14417040Y6670040D01*
D44*
X8821420Y-12240260D02*
X8651240Y-12070080D01*
X9499600Y-10820400D02*
X9499600Y-11264900D01*
D43*
X6987540Y-8658860D02*
X3660140Y-8658860D01*
D44*
X10020300Y-10634980D02*
X9685020Y-10634980D01*
D43*
X12570460Y-13500100D02*
X13070840Y-12999720D01*
X-2750820Y5600700D02*
X-2750820Y4663440D01*
D44*
X8651240Y-12070080D02*
X8161020Y-12070080D01*
D43*
X3863340Y-2263140D02*
X3500120Y-1899920D01*
X15400020Y-12501880D02*
X14902180Y-12999720D01*
X10739120Y-13159740D02*
X11079480Y-13500100D01*
X3309620Y-11229340D02*
X1678940Y-12860020D01*
D44*
X9499600Y-12240260D02*
X8821420Y-12240260D01*
D43*
X3309620Y-9009380D02*
X3309620Y-11229340D01*
X14625320Y8295640D02*
X14625320Y6878320D01*
D45*
X-5537200Y4226560D02*
X-5450840Y4140200D01*
D43*
X15450820Y12430760D02*
X15450820Y14249400D01*
X4099560Y-1249680D02*
X4986020Y-1249680D01*
X10739120Y-12499340D02*
X10739120Y-13159740D01*
X5999480Y-2263140D02*
X3863340Y-2263140D01*
X11079480Y-13500100D02*
X12570460Y-13500100D01*
X14919960Y11899900D02*
X15450820Y12430760D01*
D44*
X10383520Y-10271760D02*
X10020300Y-10634980D01*
D43*
X-5151120Y4251960D02*
X-5537200Y4638040D01*
X-2738120Y-13799820D02*
X-3411220Y-13799820D01*
X3660140Y-8658860D02*
X3309620Y-9009380D01*
X-4099560Y4251960D02*
X-5151120Y4251960D01*
X-2750820Y-2598420D02*
X-3319780Y-2598420D01*
X7091680Y-8763000D02*
X6987540Y-8658860D01*
D44*
X11046460Y-10271760D02*
X10383520Y-10271760D01*
D43*
X15450820Y14249400D02*
X15430500Y14333220D01*
X-3319780Y-2598420D02*
X-3319780Y-2260600D01*
X15300960Y-12237720D02*
X15400020Y-12501880D01*
X-15280640Y12720320D02*
X-16040100Y13479780D01*
X14417040Y6670040D02*
X14417040Y1153160D01*
X-3634740Y-2913380D02*
X-3319780Y-2598420D01*
D44*
X9499600Y-11264900D02*
X9499600Y-12240260D01*
D43*
X10480040Y-12240260D02*
X10739120Y-12499340D01*
X14417040Y1153160D02*
X14800580Y769620D01*
D45*
X-5537200Y5199380D02*
X-5537200Y4226560D01*
D43*
X-13299440Y2400300D02*
X-13299440Y6360160D01*
X-13299440Y6360160D02*
X-14599920Y7660640D01*
X-15280640Y9982200D02*
X-15280640Y12720320D01*
X-4239260Y-2999740D02*
X-3634740Y-2999740D01*
X-14599920Y7660640D02*
X-14599920Y9301480D01*
X4986020Y-1249680D02*
X5999480Y-2263140D01*
X14902180Y-12999720D02*
X13070840Y-12999720D01*
X7091680Y-8763000D02*
X8001000Y-8763000D01*
X14919960Y8590280D02*
X14625320Y8295640D01*
%TO.N,VCCA*%
X3637280Y9497060D02*
X3637280Y10998200D01*
X13761720Y12001500D02*
X13761720Y10500360D01*
X12499340Y13500100D02*
X12999720Y12999720D01*
X10947400Y13271500D02*
X12009120Y13271500D01*
X3637280Y9497060D02*
X3596640Y9497060D01*
X10947400Y14046200D02*
X11000740Y14099540D01*
X12999720Y12999720D02*
X12999720Y12763500D01*
X10947400Y13271500D02*
X10947400Y14046200D01*
X1249680Y7150100D02*
X1899920Y7800340D01*
X11000740Y13324840D02*
X10947400Y13271500D01*
X3596640Y9497060D02*
X1899920Y7800340D01*
X11000740Y14099540D02*
X11000740Y13324840D01*
X12009120Y13271500D02*
X12237720Y13500100D01*
D45*
X3101340Y9497060D02*
X2748280Y9850120D01*
D43*
X1249680Y7150100D02*
X1249680Y5600700D01*
X10299700Y14099540D02*
X10099040Y14300200D01*
D45*
X3637280Y9497060D02*
X3101340Y9497060D01*
D43*
X12999720Y12763500D02*
X13761720Y12001500D01*
X11000740Y14099540D02*
X10299700Y14099540D01*
X12237720Y13500100D02*
X12499340Y13500100D01*
D44*
%TO.N,VCOM*%
X8437880Y7500620D02*
X8437880Y6581140D01*
X8437880Y6581140D02*
X8509000Y6510020D01*
D47*
X13789660Y-2616200D02*
X13789660Y-1910080D01*
X13789660Y-1910080D02*
X14800580Y-899160D01*
X14800580Y-899160D02*
X14800580Y-200660D01*
X11046460Y-8475980D02*
X11046460Y-7731760D01*
X12951460Y-8376920D02*
X12578080Y-8750300D01*
X12578080Y-8750300D02*
X11320780Y-8750300D01*
X12951460Y-7246620D02*
X12951460Y-7040880D01*
X11320780Y-8750300D02*
X11046460Y-8475980D01*
X12951460Y-7246620D02*
X12951460Y-7731760D01*
X13261340Y-6936740D02*
X12951460Y-7246620D01*
X13261340Y-6002020D02*
X13261340Y-6936740D01*
X12951460Y-7731760D02*
X12951460Y-8376920D01*
X12951460Y-7040880D02*
X12760960Y-6850380D01*
%TD*%
D43*
%TO.N,DGND*%
X14516764Y-14397542D02*
X14582952Y-14432921D01*
X14654771Y-14454707D01*
X14729460Y-14462063D01*
X14933248Y-14462063D01*
X14936367Y-14472343D01*
X14947291Y-14512074D01*
X14950145Y-14517768D01*
X14951998Y-14523876D01*
X14971427Y-14560224D01*
X14989891Y-14597059D01*
X14993808Y-14602096D01*
X14996812Y-14607715D01*
X15022945Y-14639558D01*
X15048253Y-14672098D01*
X15071051Y-14691830D01*
X15142849Y-14763628D01*
X15111254Y-14822737D01*
X15089468Y-14894556D01*
X15082112Y-14969245D01*
X15089468Y-15043934D01*
X15111254Y-15115753D01*
X15146633Y-15181941D01*
X15194244Y-15239956D01*
X15758204Y-15803916D01*
X15816219Y-15851527D01*
X15882407Y-15886906D01*
X15922719Y-15899135D01*
X15218465Y-16603389D01*
X14624636Y-16749557D01*
X13686363Y-16456533D01*
X14462760Y-16456533D01*
X14462760Y-14353223D01*
X14516764Y-14397542D01*
%TA.AperFunction,Conductor*%
D49*
G36*
X14516764Y-14397542D02*
G01*
X14582952Y-14432921D01*
X14654771Y-14454707D01*
X14729460Y-14462063D01*
X14933248Y-14462063D01*
X14936367Y-14472343D01*
X14947291Y-14512074D01*
X14950145Y-14517768D01*
X14951998Y-14523876D01*
X14971427Y-14560224D01*
X14989891Y-14597059D01*
X14993808Y-14602096D01*
X14996812Y-14607715D01*
X15022945Y-14639558D01*
X15048253Y-14672098D01*
X15071051Y-14691830D01*
X15142849Y-14763628D01*
X15111254Y-14822737D01*
X15089468Y-14894556D01*
X15082112Y-14969245D01*
X15089468Y-15043934D01*
X15111254Y-15115753D01*
X15146633Y-15181941D01*
X15194244Y-15239956D01*
X15758204Y-15803916D01*
X15816219Y-15851527D01*
X15882407Y-15886906D01*
X15922719Y-15899135D01*
X15218465Y-16603389D01*
X14624636Y-16749557D01*
X13686363Y-16456533D01*
X14462760Y-16456533D01*
X14462760Y-14353223D01*
X14516764Y-14397542D01*
G37*
%TD.AperFunction*%
D43*
X8781592Y-10412101D02*
X8853411Y-10433887D01*
X8928100Y-10441243D01*
X9071449Y-10441243D01*
X9027624Y-10494644D01*
X9022116Y-10501356D01*
X8988334Y-10564557D01*
X8928100Y-10564557D01*
X8853411Y-10571913D01*
X8781592Y-10593699D01*
X8715404Y-10629078D01*
X8657389Y-10676689D01*
X8609778Y-10734704D01*
X8574399Y-10800892D01*
X8552613Y-10872711D01*
X8545257Y-10947400D01*
X8545257Y-11486740D01*
X8491884Y-11451077D01*
X8364765Y-11398423D01*
X8229816Y-11371580D01*
X8092224Y-11371580D01*
X7957275Y-11398423D01*
X7830156Y-11451077D01*
X7715752Y-11527519D01*
X7618459Y-11624812D01*
X7542017Y-11739216D01*
X7489363Y-11866335D01*
X7462520Y-12001284D01*
X7462520Y-12138876D01*
X7489363Y-12273825D01*
X7542017Y-12400944D01*
X7618459Y-12515348D01*
X7715752Y-12612641D01*
X7830156Y-12689083D01*
X7957275Y-12741737D01*
X8092224Y-12768580D01*
X8229816Y-12768580D01*
X8364765Y-12741737D01*
X8475647Y-12695809D01*
X8502375Y-12717744D01*
X8601658Y-12770812D01*
X8612858Y-12774210D01*
X8657389Y-12828471D01*
X8715404Y-12876082D01*
X8781592Y-12911461D01*
X8853411Y-12933247D01*
X8928100Y-12940603D01*
X10038777Y-12940603D01*
X10038777Y-13070840D01*
X10046133Y-13145529D01*
X10067919Y-13217348D01*
X10103298Y-13283536D01*
X10150909Y-13341551D01*
X10208924Y-13389162D01*
X10275112Y-13424541D01*
X10310361Y-13435234D01*
X10314691Y-13443335D01*
X10356855Y-13494712D01*
X10378173Y-13520688D01*
X10397551Y-13536591D01*
X10702621Y-13841660D01*
X10718532Y-13861048D01*
X10795885Y-13924529D01*
X10884137Y-13971701D01*
X10979895Y-14000749D01*
X11054533Y-14008100D01*
X11054536Y-14008100D01*
X11079480Y-14010557D01*
X11104424Y-14008100D01*
X12545516Y-14008100D01*
X12570460Y-14010557D01*
X12595404Y-14008100D01*
X12595407Y-14008100D01*
X12670045Y-14000749D01*
X12765803Y-13971701D01*
X12854055Y-13924529D01*
X12931408Y-13861048D01*
X12947315Y-13841666D01*
X13090760Y-13698220D01*
X13139636Y-13698220D01*
X13274585Y-13671377D01*
X13401704Y-13618723D01*
X13516108Y-13542281D01*
X13550669Y-13507720D01*
X14346617Y-13507720D01*
X14346617Y-14079220D01*
X14353973Y-14153909D01*
X14375759Y-14225728D01*
X14411138Y-14291916D01*
X14412621Y-14293723D01*
X10337800Y-14293723D01*
X10337800Y-15378631D01*
X9648840Y-15195608D01*
X9029432Y-15002166D01*
X8420908Y-14594721D01*
X8404189Y-14585274D01*
X7762604Y-14284284D01*
X7739137Y-14275970D01*
X7708665Y-14272260D01*
X7482143Y-14272260D01*
X7482143Y-13700760D01*
X7474787Y-13626071D01*
X7453001Y-13554252D01*
X7417622Y-13488064D01*
X7370011Y-13430049D01*
X7311996Y-13382438D01*
X7245808Y-13347059D01*
X7173989Y-13325273D01*
X7170420Y-13324921D01*
X7170420Y-13113369D01*
X7270536Y-12991377D01*
X7352378Y-12838261D01*
X7402777Y-12672121D01*
X7419794Y-12499340D01*
X7402777Y-12326559D01*
X7352378Y-12160419D01*
X7270536Y-12007303D01*
X7160395Y-11873095D01*
X7026187Y-11762954D01*
X6877170Y-11683303D01*
X7099300Y-11683303D01*
X7173989Y-11675947D01*
X7245808Y-11654161D01*
X7311996Y-11618782D01*
X7370011Y-11571171D01*
X7417622Y-11513156D01*
X7453001Y-11446968D01*
X7474787Y-11375149D01*
X7482143Y-11300460D01*
X7482143Y-10701020D01*
X7474787Y-10626331D01*
X7453001Y-10554512D01*
X7417622Y-10488324D01*
X7374765Y-10436102D01*
X7426960Y-10441243D01*
X8569960Y-10441243D01*
X8644649Y-10433887D01*
X8716468Y-10412101D01*
X8749030Y-10394696D01*
X8781592Y-10412101D01*
%TA.AperFunction,Conductor*%
D49*
G36*
X8781592Y-10412101D02*
G01*
X8853411Y-10433887D01*
X8928100Y-10441243D01*
X9071449Y-10441243D01*
X9027624Y-10494644D01*
X9022116Y-10501356D01*
X8988334Y-10564557D01*
X8928100Y-10564557D01*
X8853411Y-10571913D01*
X8781592Y-10593699D01*
X8715404Y-10629078D01*
X8657389Y-10676689D01*
X8609778Y-10734704D01*
X8574399Y-10800892D01*
X8552613Y-10872711D01*
X8545257Y-10947400D01*
X8545257Y-11486740D01*
X8491884Y-11451077D01*
X8364765Y-11398423D01*
X8229816Y-11371580D01*
X8092224Y-11371580D01*
X7957275Y-11398423D01*
X7830156Y-11451077D01*
X7715752Y-11527519D01*
X7618459Y-11624812D01*
X7542017Y-11739216D01*
X7489363Y-11866335D01*
X7462520Y-12001284D01*
X7462520Y-12138876D01*
X7489363Y-12273825D01*
X7542017Y-12400944D01*
X7618459Y-12515348D01*
X7715752Y-12612641D01*
X7830156Y-12689083D01*
X7957275Y-12741737D01*
X8092224Y-12768580D01*
X8229816Y-12768580D01*
X8364765Y-12741737D01*
X8475647Y-12695809D01*
X8502375Y-12717744D01*
X8601658Y-12770812D01*
X8612858Y-12774210D01*
X8657389Y-12828471D01*
X8715404Y-12876082D01*
X8781592Y-12911461D01*
X8853411Y-12933247D01*
X8928100Y-12940603D01*
X10038777Y-12940603D01*
X10038777Y-13070840D01*
X10046133Y-13145529D01*
X10067919Y-13217348D01*
X10103298Y-13283536D01*
X10150909Y-13341551D01*
X10208924Y-13389162D01*
X10275112Y-13424541D01*
X10310361Y-13435234D01*
X10314691Y-13443335D01*
X10356855Y-13494712D01*
X10378173Y-13520688D01*
X10397551Y-13536591D01*
X10702621Y-13841660D01*
X10718532Y-13861048D01*
X10795885Y-13924529D01*
X10884137Y-13971701D01*
X10979895Y-14000749D01*
X11054533Y-14008100D01*
X11054536Y-14008100D01*
X11079480Y-14010557D01*
X11104424Y-14008100D01*
X12545516Y-14008100D01*
X12570460Y-14010557D01*
X12595404Y-14008100D01*
X12595407Y-14008100D01*
X12670045Y-14000749D01*
X12765803Y-13971701D01*
X12854055Y-13924529D01*
X12931408Y-13861048D01*
X12947315Y-13841666D01*
X13090760Y-13698220D01*
X13139636Y-13698220D01*
X13274585Y-13671377D01*
X13401704Y-13618723D01*
X13516108Y-13542281D01*
X13550669Y-13507720D01*
X14346617Y-13507720D01*
X14346617Y-14079220D01*
X14353973Y-14153909D01*
X14375759Y-14225728D01*
X14411138Y-14291916D01*
X14412621Y-14293723D01*
X10337800Y-14293723D01*
X10337800Y-15378631D01*
X9648840Y-15195608D01*
X9029432Y-15002166D01*
X8420908Y-14594721D01*
X8404189Y-14585274D01*
X7762604Y-14284284D01*
X7739137Y-14275970D01*
X7708665Y-14272260D01*
X7482143Y-14272260D01*
X7482143Y-13700760D01*
X7474787Y-13626071D01*
X7453001Y-13554252D01*
X7417622Y-13488064D01*
X7370011Y-13430049D01*
X7311996Y-13382438D01*
X7245808Y-13347059D01*
X7173989Y-13325273D01*
X7170420Y-13324921D01*
X7170420Y-13113369D01*
X7270536Y-12991377D01*
X7352378Y-12838261D01*
X7402777Y-12672121D01*
X7419794Y-12499340D01*
X7402777Y-12326559D01*
X7352378Y-12160419D01*
X7270536Y-12007303D01*
X7160395Y-11873095D01*
X7026187Y-11762954D01*
X6877170Y-11683303D01*
X7099300Y-11683303D01*
X7173989Y-11675947D01*
X7245808Y-11654161D01*
X7311996Y-11618782D01*
X7370011Y-11571171D01*
X7417622Y-11513156D01*
X7453001Y-11446968D01*
X7474787Y-11375149D01*
X7482143Y-11300460D01*
X7482143Y-10701020D01*
X7474787Y-10626331D01*
X7453001Y-10554512D01*
X7417622Y-10488324D01*
X7374765Y-10436102D01*
X7426960Y-10441243D01*
X8569960Y-10441243D01*
X8644649Y-10433887D01*
X8716468Y-10412101D01*
X8749030Y-10394696D01*
X8781592Y-10412101D01*
G37*
%TD.AperFunction*%
D43*
X-13807440Y2880129D02*
X-13842001Y2845568D01*
X-13918443Y2731164D01*
X-13971097Y2604045D01*
X-13997940Y2469096D01*
X-13997940Y2331504D01*
X-13971097Y2196555D01*
X-13918443Y2069436D01*
X-13842001Y1955032D01*
X-13744708Y1857739D01*
X-13630304Y1781297D01*
X-13503185Y1728643D01*
X-13368236Y1701800D01*
X-13230644Y1701800D01*
X-13095695Y1728643D01*
X-12968576Y1781297D01*
X-12908884Y1821182D01*
X-12902059Y1751887D01*
X-12857397Y1604659D01*
X-12784871Y1468972D01*
X-12687268Y1350042D01*
X-12589736Y1270000D01*
X-12687268Y1189958D01*
X-12784871Y1071028D01*
X-12857397Y935341D01*
X-12902059Y788113D01*
X-12917139Y635000D01*
X-12902059Y481887D01*
X-12857397Y334659D01*
X-12784871Y198972D01*
X-12687268Y80042D01*
X-12589736Y0D01*
X-12687268Y-80042D01*
X-12784871Y-198972D01*
X-12857397Y-334659D01*
X-12902059Y-481887D01*
X-12917139Y-635000D01*
X-12913086Y-676148D01*
X-12920316Y-671317D01*
X-13047435Y-618663D01*
X-13182384Y-591820D01*
X-13319976Y-591820D01*
X-13454925Y-618663D01*
X-13582044Y-671317D01*
X-13696448Y-747759D01*
X-13793741Y-845052D01*
X-13870183Y-959456D01*
X-13922837Y-1086575D01*
X-13949680Y-1221524D01*
X-13949680Y-1359116D01*
X-13922837Y-1494065D01*
X-13870183Y-1621184D01*
X-13793741Y-1735588D01*
X-13696448Y-1832881D01*
X-13582044Y-1909323D01*
X-13454925Y-1961977D01*
X-13319976Y-1988820D01*
X-13182384Y-1988820D01*
X-13047435Y-1961977D01*
X-12920316Y-1909323D01*
X-12916936Y-1907064D01*
X-12902059Y-2058113D01*
X-12857397Y-2205341D01*
X-12784871Y-2341028D01*
X-12687268Y-2459958D01*
X-12589736Y-2540000D01*
X-12687268Y-2620042D01*
X-12784871Y-2738972D01*
X-12857397Y-2874659D01*
X-12902059Y-3021887D01*
X-12917139Y-3175000D01*
X-12902059Y-3328113D01*
X-12857397Y-3475341D01*
X-12784871Y-3611028D01*
X-12687268Y-3729958D01*
X-12589736Y-3810000D01*
X-12687268Y-3890042D01*
X-12784871Y-4008972D01*
X-12857397Y-4144659D01*
X-12902059Y-4291887D01*
X-12917139Y-4445000D01*
X-12902059Y-4598113D01*
X-12857397Y-4745341D01*
X-12784871Y-4881028D01*
X-12687268Y-4999958D01*
X-12589736Y-5080000D01*
X-12687268Y-5160042D01*
X-12784871Y-5278972D01*
X-12857397Y-5414659D01*
X-12902059Y-5561887D01*
X-12917139Y-5715000D01*
X-12902059Y-5868113D01*
X-12857397Y-6015341D01*
X-12784871Y-6151028D01*
X-12687268Y-6269958D01*
X-12568338Y-6367561D01*
X-12432651Y-6440087D01*
X-12285423Y-6484749D01*
X-12170680Y-6496050D01*
X-11695160Y-6496050D01*
X-11580417Y-6484749D01*
X-11433189Y-6440087D01*
X-11333610Y-6386861D01*
X-11276936Y-6433372D01*
X-11210748Y-6468751D01*
X-11138929Y-6490537D01*
X-11064240Y-6497893D01*
X-9865360Y-6497893D01*
X-9790671Y-6490537D01*
X-9718852Y-6468751D01*
X-9652664Y-6433372D01*
X-9594649Y-6385761D01*
X-9547038Y-6327746D01*
X-9511659Y-6261558D01*
X-9489873Y-6189739D01*
X-9482517Y-6115050D01*
X-9482517Y-5562600D01*
X-8504765Y-5562600D01*
X-8481060Y-5564935D01*
X-8457355Y-5562600D01*
X-8457353Y-5562600D01*
X-8386454Y-5555617D01*
X-8295483Y-5528022D01*
X-8211645Y-5483209D01*
X-8138159Y-5422901D01*
X-8123043Y-5404482D01*
X-7900161Y-5181600D01*
X-2446593Y-5181600D01*
X-2446593Y-5999480D01*
X-2439237Y-6074169D01*
X-2417451Y-6145988D01*
X-2382072Y-6212176D01*
X-2334461Y-6270191D01*
X-2276446Y-6317802D01*
X-2210258Y-6353181D01*
X-2138439Y-6374967D01*
X-2063750Y-6382323D01*
X-838200Y-6382323D01*
X-838199Y-10321705D01*
X-840535Y-10345420D01*
X-831216Y-10440026D01*
X-803622Y-10530996D01*
X-758808Y-10614835D01*
X-724904Y-10656147D01*
X-698500Y-10688321D01*
X-680087Y-10703432D01*
X-299720Y-11083799D01*
X-299720Y-11168596D01*
X-272877Y-11303545D01*
X-220223Y-11430664D01*
X-143781Y-11545068D01*
X-46488Y-11642361D01*
X67916Y-11718803D01*
X195035Y-11771457D01*
X329984Y-11798300D01*
X467576Y-11798300D01*
X602525Y-11771457D01*
X729644Y-11718803D01*
X844048Y-11642361D01*
X941341Y-11545068D01*
X1017783Y-11430664D01*
X1070437Y-11303545D01*
X1071556Y-11297920D01*
X1127976Y-11297920D01*
X1262925Y-11271077D01*
X1390044Y-11218423D01*
X1504448Y-11141981D01*
X1601741Y-11044688D01*
X1678183Y-10930284D01*
X1730837Y-10803165D01*
X1757680Y-10668216D01*
X1757680Y-10583419D01*
X2801620Y-9539480D01*
X2801621Y-11018919D01*
X1659020Y-12161520D01*
X1610144Y-12161520D01*
X1475195Y-12188363D01*
X1348076Y-12241017D01*
X1233672Y-12317459D01*
X1136379Y-12414752D01*
X1059937Y-12529156D01*
X1007283Y-12656275D01*
X980440Y-12791224D01*
X980440Y-12928816D01*
X1007283Y-13063765D01*
X1059937Y-13190884D01*
X1136379Y-13305288D01*
X1233672Y-13402581D01*
X1348076Y-13479023D01*
X1475195Y-13531677D01*
X1610144Y-13558520D01*
X1747736Y-13558520D01*
X1882685Y-13531677D01*
X2009804Y-13479023D01*
X2124208Y-13402581D01*
X2221501Y-13305288D01*
X2297943Y-13190884D01*
X2350597Y-13063765D01*
X2377440Y-12928816D01*
X2377440Y-12879940D01*
X3651185Y-11606195D01*
X3661026Y-11598119D01*
X3686204Y-11618782D01*
X3752392Y-11654161D01*
X3783088Y-11663472D01*
X3750974Y-11680638D01*
X3692959Y-11728249D01*
X3645348Y-11786264D01*
X3609969Y-11852452D01*
X3588183Y-11924271D01*
X3580827Y-11998960D01*
X3580827Y-12999720D01*
X3588183Y-13074409D01*
X3609969Y-13146228D01*
X3645348Y-13212416D01*
X3692959Y-13270431D01*
X3750974Y-13318042D01*
X3786119Y-13336828D01*
X3752392Y-13347059D01*
X3686204Y-13382438D01*
X3628189Y-13430049D01*
X3580578Y-13488064D01*
X3545199Y-13554252D01*
X3523413Y-13626071D01*
X3516057Y-13700760D01*
X3516057Y-14272260D01*
X-2037777Y-14272260D01*
X-2037777Y-13228320D01*
X-2045133Y-13153631D01*
X-2066919Y-13081812D01*
X-2102298Y-13015624D01*
X-2149909Y-12957609D01*
X-2207924Y-12909998D01*
X-2274112Y-12874619D01*
X-2345931Y-12852833D01*
X-2420620Y-12845477D01*
X-3055620Y-12845477D01*
X-3130309Y-12852833D01*
X-3202128Y-12874619D01*
X-3268316Y-12909998D01*
X-3326331Y-12957609D01*
X-3373942Y-13015624D01*
X-3409321Y-13081812D01*
X-3415239Y-13101320D01*
X-3480016Y-13101320D01*
X-3614965Y-13128163D01*
X-3742084Y-13180817D01*
X-3856488Y-13257259D01*
X-3953781Y-13354552D01*
X-4030223Y-13468956D01*
X-4082877Y-13596075D01*
X-4109720Y-13731024D01*
X-4109720Y-13868616D01*
X-4082877Y-14003565D01*
X-4030223Y-14130684D01*
X-3953781Y-14245088D01*
X-3926609Y-14272260D01*
X-6977754Y-14272260D01*
X-7614206Y-14011287D01*
X-14007958Y-7708044D01*
X-14272260Y-7076342D01*
X-14272260Y4549874D01*
X-13947874Y4874260D01*
X-13807439Y4874260D01*
X-13807440Y2880129D01*
%TA.AperFunction,Conductor*%
D49*
G36*
X-13807440Y2880129D02*
G01*
X-13842001Y2845568D01*
X-13918443Y2731164D01*
X-13971097Y2604045D01*
X-13997940Y2469096D01*
X-13997940Y2331504D01*
X-13971097Y2196555D01*
X-13918443Y2069436D01*
X-13842001Y1955032D01*
X-13744708Y1857739D01*
X-13630304Y1781297D01*
X-13503185Y1728643D01*
X-13368236Y1701800D01*
X-13230644Y1701800D01*
X-13095695Y1728643D01*
X-12968576Y1781297D01*
X-12908884Y1821182D01*
X-12902059Y1751887D01*
X-12857397Y1604659D01*
X-12784871Y1468972D01*
X-12687268Y1350042D01*
X-12589736Y1270000D01*
X-12687268Y1189958D01*
X-12784871Y1071028D01*
X-12857397Y935341D01*
X-12902059Y788113D01*
X-12917139Y635000D01*
X-12902059Y481887D01*
X-12857397Y334659D01*
X-12784871Y198972D01*
X-12687268Y80042D01*
X-12589736Y0D01*
X-12687268Y-80042D01*
X-12784871Y-198972D01*
X-12857397Y-334659D01*
X-12902059Y-481887D01*
X-12917139Y-635000D01*
X-12913086Y-676148D01*
X-12920316Y-671317D01*
X-13047435Y-618663D01*
X-13182384Y-591820D01*
X-13319976Y-591820D01*
X-13454925Y-618663D01*
X-13582044Y-671317D01*
X-13696448Y-747759D01*
X-13793741Y-845052D01*
X-13870183Y-959456D01*
X-13922837Y-1086575D01*
X-13949680Y-1221524D01*
X-13949680Y-1359116D01*
X-13922837Y-1494065D01*
X-13870183Y-1621184D01*
X-13793741Y-1735588D01*
X-13696448Y-1832881D01*
X-13582044Y-1909323D01*
X-13454925Y-1961977D01*
X-13319976Y-1988820D01*
X-13182384Y-1988820D01*
X-13047435Y-1961977D01*
X-12920316Y-1909323D01*
X-12916936Y-1907064D01*
X-12902059Y-2058113D01*
X-12857397Y-2205341D01*
X-12784871Y-2341028D01*
X-12687268Y-2459958D01*
X-12589736Y-2540000D01*
X-12687268Y-2620042D01*
X-12784871Y-2738972D01*
X-12857397Y-2874659D01*
X-12902059Y-3021887D01*
X-12917139Y-3175000D01*
X-12902059Y-3328113D01*
X-12857397Y-3475341D01*
X-12784871Y-3611028D01*
X-12687268Y-3729958D01*
X-12589736Y-3810000D01*
X-12687268Y-3890042D01*
X-12784871Y-4008972D01*
X-12857397Y-4144659D01*
X-12902059Y-4291887D01*
X-12917139Y-4445000D01*
X-12902059Y-4598113D01*
X-12857397Y-4745341D01*
X-12784871Y-4881028D01*
X-12687268Y-4999958D01*
X-12589736Y-5080000D01*
X-12687268Y-5160042D01*
X-12784871Y-5278972D01*
X-12857397Y-5414659D01*
X-12902059Y-5561887D01*
X-12917139Y-5715000D01*
X-12902059Y-5868113D01*
X-12857397Y-6015341D01*
X-12784871Y-6151028D01*
X-12687268Y-6269958D01*
X-12568338Y-6367561D01*
X-12432651Y-6440087D01*
X-12285423Y-6484749D01*
X-12170680Y-6496050D01*
X-11695160Y-6496050D01*
X-11580417Y-6484749D01*
X-11433189Y-6440087D01*
X-11333610Y-6386861D01*
X-11276936Y-6433372D01*
X-11210748Y-6468751D01*
X-11138929Y-6490537D01*
X-11064240Y-6497893D01*
X-9865360Y-6497893D01*
X-9790671Y-6490537D01*
X-9718852Y-6468751D01*
X-9652664Y-6433372D01*
X-9594649Y-6385761D01*
X-9547038Y-6327746D01*
X-9511659Y-6261558D01*
X-9489873Y-6189739D01*
X-9482517Y-6115050D01*
X-9482517Y-5562600D01*
X-8504765Y-5562600D01*
X-8481060Y-5564935D01*
X-8457355Y-5562600D01*
X-8457353Y-5562600D01*
X-8386454Y-5555617D01*
X-8295483Y-5528022D01*
X-8211645Y-5483209D01*
X-8138159Y-5422901D01*
X-8123043Y-5404482D01*
X-7900161Y-5181600D01*
X-2446593Y-5181600D01*
X-2446593Y-5999480D01*
X-2439237Y-6074169D01*
X-2417451Y-6145988D01*
X-2382072Y-6212176D01*
X-2334461Y-6270191D01*
X-2276446Y-6317802D01*
X-2210258Y-6353181D01*
X-2138439Y-6374967D01*
X-2063750Y-6382323D01*
X-838200Y-6382323D01*
X-838199Y-10321705D01*
X-840535Y-10345420D01*
X-831216Y-10440026D01*
X-803622Y-10530996D01*
X-758808Y-10614835D01*
X-724904Y-10656147D01*
X-698500Y-10688321D01*
X-680087Y-10703432D01*
X-299720Y-11083799D01*
X-299720Y-11168596D01*
X-272877Y-11303545D01*
X-220223Y-11430664D01*
X-143781Y-11545068D01*
X-46488Y-11642361D01*
X67916Y-11718803D01*
X195035Y-11771457D01*
X329984Y-11798300D01*
X467576Y-11798300D01*
X602525Y-11771457D01*
X729644Y-11718803D01*
X844048Y-11642361D01*
X941341Y-11545068D01*
X1017783Y-11430664D01*
X1070437Y-11303545D01*
X1071556Y-11297920D01*
X1127976Y-11297920D01*
X1262925Y-11271077D01*
X1390044Y-11218423D01*
X1504448Y-11141981D01*
X1601741Y-11044688D01*
X1678183Y-10930284D01*
X1730837Y-10803165D01*
X1757680Y-10668216D01*
X1757680Y-10583419D01*
X2801620Y-9539480D01*
X2801621Y-11018919D01*
X1659020Y-12161520D01*
X1610144Y-12161520D01*
X1475195Y-12188363D01*
X1348076Y-12241017D01*
X1233672Y-12317459D01*
X1136379Y-12414752D01*
X1059937Y-12529156D01*
X1007283Y-12656275D01*
X980440Y-12791224D01*
X980440Y-12928816D01*
X1007283Y-13063765D01*
X1059937Y-13190884D01*
X1136379Y-13305288D01*
X1233672Y-13402581D01*
X1348076Y-13479023D01*
X1475195Y-13531677D01*
X1610144Y-13558520D01*
X1747736Y-13558520D01*
X1882685Y-13531677D01*
X2009804Y-13479023D01*
X2124208Y-13402581D01*
X2221501Y-13305288D01*
X2297943Y-13190884D01*
X2350597Y-13063765D01*
X2377440Y-12928816D01*
X2377440Y-12879940D01*
X3651185Y-11606195D01*
X3661026Y-11598119D01*
X3686204Y-11618782D01*
X3752392Y-11654161D01*
X3783088Y-11663472D01*
X3750974Y-11680638D01*
X3692959Y-11728249D01*
X3645348Y-11786264D01*
X3609969Y-11852452D01*
X3588183Y-11924271D01*
X3580827Y-11998960D01*
X3580827Y-12999720D01*
X3588183Y-13074409D01*
X3609969Y-13146228D01*
X3645348Y-13212416D01*
X3692959Y-13270431D01*
X3750974Y-13318042D01*
X3786119Y-13336828D01*
X3752392Y-13347059D01*
X3686204Y-13382438D01*
X3628189Y-13430049D01*
X3580578Y-13488064D01*
X3545199Y-13554252D01*
X3523413Y-13626071D01*
X3516057Y-13700760D01*
X3516057Y-14272260D01*
X-2037777Y-14272260D01*
X-2037777Y-13228320D01*
X-2045133Y-13153631D01*
X-2066919Y-13081812D01*
X-2102298Y-13015624D01*
X-2149909Y-12957609D01*
X-2207924Y-12909998D01*
X-2274112Y-12874619D01*
X-2345931Y-12852833D01*
X-2420620Y-12845477D01*
X-3055620Y-12845477D01*
X-3130309Y-12852833D01*
X-3202128Y-12874619D01*
X-3268316Y-12909998D01*
X-3326331Y-12957609D01*
X-3373942Y-13015624D01*
X-3409321Y-13081812D01*
X-3415239Y-13101320D01*
X-3480016Y-13101320D01*
X-3614965Y-13128163D01*
X-3742084Y-13180817D01*
X-3856488Y-13257259D01*
X-3953781Y-13354552D01*
X-4030223Y-13468956D01*
X-4082877Y-13596075D01*
X-4109720Y-13731024D01*
X-4109720Y-13868616D01*
X-4082877Y-14003565D01*
X-4030223Y-14130684D01*
X-3953781Y-14245088D01*
X-3926609Y-14272260D01*
X-6977754Y-14272260D01*
X-7614206Y-14011287D01*
X-14007958Y-7708044D01*
X-14272260Y-7076342D01*
X-14272260Y4549874D01*
X-13947874Y4874260D01*
X-13807439Y4874260D01*
X-13807440Y2880129D01*
G37*
%TD.AperFunction*%
D43*
X5125084Y504834D02*
X5152678Y413864D01*
X5197492Y330025D01*
X5235442Y283783D01*
X5257800Y256539D01*
X5276213Y241428D01*
X5941183Y-423542D01*
X5956299Y-441961D01*
X6029785Y-502269D01*
X6113623Y-547082D01*
X6204594Y-574677D01*
X6275493Y-581660D01*
X6275494Y-581660D01*
X6299199Y-583995D01*
X6322904Y-581660D01*
X6452361Y-581660D01*
X6896223Y-1025522D01*
X6911339Y-1043941D01*
X6984825Y-1104249D01*
X7068663Y-1149062D01*
X7159634Y-1176657D01*
X7230533Y-1183640D01*
X7230534Y-1183640D01*
X7254239Y-1185975D01*
X7277944Y-1183640D01*
X7745157Y-1183640D01*
X7745157Y-1755140D01*
X7752513Y-1829829D01*
X7774299Y-1901648D01*
X7809678Y-1967836D01*
X7857289Y-2025851D01*
X7915304Y-2073462D01*
X7981492Y-2108841D01*
X8053311Y-2130627D01*
X8128000Y-2137983D01*
X9271000Y-2137983D01*
X9345689Y-2130627D01*
X9399270Y-2114373D01*
X9452851Y-2130627D01*
X9527540Y-2137983D01*
X10251744Y-2137983D01*
X10227483Y-2196555D01*
X10214605Y-2261297D01*
X9527540Y-2261297D01*
X9452851Y-2268653D01*
X9399270Y-2284907D01*
X9345689Y-2268653D01*
X9271000Y-2261297D01*
X8128000Y-2261297D01*
X8053311Y-2268653D01*
X7981492Y-2290439D01*
X7915304Y-2325818D01*
X7857289Y-2373429D01*
X7809678Y-2431444D01*
X7774299Y-2497632D01*
X7752513Y-2569451D01*
X7745157Y-2644140D01*
X7745157Y-3279140D01*
X7752513Y-3353829D01*
X7774299Y-3425648D01*
X7809678Y-3491836D01*
X7857289Y-3549851D01*
X7915304Y-3597462D01*
X7981492Y-3632841D01*
X8053311Y-3654627D01*
X8128000Y-3661983D01*
X9271000Y-3661983D01*
X9345689Y-3654627D01*
X9399270Y-3638373D01*
X9452851Y-3654627D01*
X9527540Y-3661983D01*
X10456098Y-3661983D01*
X9675498Y-4442583D01*
X9657079Y-4457699D01*
X9596771Y-4531185D01*
X9551958Y-4615024D01*
X9524363Y-4705995D01*
X9519486Y-4755514D01*
X9515045Y-4800600D01*
X9517380Y-4824305D01*
X9517381Y-6538657D01*
X8928100Y-6538657D01*
X8853411Y-6546013D01*
X8781592Y-6567799D01*
X8750300Y-6584525D01*
X8719008Y-6567799D01*
X8647189Y-6546013D01*
X8572500Y-6538657D01*
X7429500Y-6538657D01*
X7415840Y-6540002D01*
X7419794Y-6499860D01*
X7402777Y-6327079D01*
X7352378Y-6160939D01*
X7270536Y-6007823D01*
X7160395Y-5873615D01*
X7026187Y-5763474D01*
X6877170Y-5683823D01*
X7099300Y-5683823D01*
X7173989Y-5676467D01*
X7245808Y-5654681D01*
X7311996Y-5619302D01*
X7370011Y-5571691D01*
X7417622Y-5513676D01*
X7453001Y-5447488D01*
X7474787Y-5375669D01*
X7482143Y-5300980D01*
X7482143Y-4701540D01*
X7474787Y-4626851D01*
X7453001Y-4555032D01*
X7417622Y-4488844D01*
X7370011Y-4430829D01*
X7311996Y-4383218D01*
X7245808Y-4347839D01*
X7173989Y-4326053D01*
X7170420Y-4325701D01*
X7170420Y-4114149D01*
X7270536Y-3992157D01*
X7352378Y-3839041D01*
X7402777Y-3672901D01*
X7419794Y-3500120D01*
X7402777Y-3327339D01*
X7352378Y-3161199D01*
X7270536Y-3008083D01*
X7160395Y-2873875D01*
X7026187Y-2763734D01*
X6929293Y-2711943D01*
X6946467Y-2655329D01*
X6953823Y-2580640D01*
X6953823Y-1945640D01*
X6946467Y-1870951D01*
X6924681Y-1799132D01*
X6889302Y-1732944D01*
X6841691Y-1674929D01*
X6783676Y-1627318D01*
X6717488Y-1591939D01*
X6645669Y-1570153D01*
X6570980Y-1562797D01*
X6017557Y-1562797D01*
X5362875Y-908115D01*
X5346968Y-888732D01*
X5269615Y-825251D01*
X5181363Y-778079D01*
X5085605Y-749031D01*
X5010967Y-741680D01*
X5010964Y-741680D01*
X4986020Y-739223D01*
X4961076Y-741680D01*
X4916515Y-741680D01*
X4962496Y-717102D01*
X5020511Y-669491D01*
X5068122Y-611476D01*
X5103501Y-545288D01*
X5125287Y-473469D01*
X5132643Y-398780D01*
X5132643Y-99060D01*
X5125287Y-24371D01*
X5117509Y1270D01*
X5125287Y26911D01*
X5132643Y101600D01*
X5132643Y401320D01*
X5125287Y476009D01*
X5117509Y501650D01*
X5123464Y521281D01*
X5125084Y504834D01*
%TA.AperFunction,Conductor*%
D49*
G36*
X5125084Y504834D02*
G01*
X5152678Y413864D01*
X5197492Y330025D01*
X5235442Y283783D01*
X5257800Y256539D01*
X5276213Y241428D01*
X5941183Y-423542D01*
X5956299Y-441961D01*
X6029785Y-502269D01*
X6113623Y-547082D01*
X6204594Y-574677D01*
X6275493Y-581660D01*
X6275494Y-581660D01*
X6299199Y-583995D01*
X6322904Y-581660D01*
X6452361Y-581660D01*
X6896223Y-1025522D01*
X6911339Y-1043941D01*
X6984825Y-1104249D01*
X7068663Y-1149062D01*
X7159634Y-1176657D01*
X7230533Y-1183640D01*
X7230534Y-1183640D01*
X7254239Y-1185975D01*
X7277944Y-1183640D01*
X7745157Y-1183640D01*
X7745157Y-1755140D01*
X7752513Y-1829829D01*
X7774299Y-1901648D01*
X7809678Y-1967836D01*
X7857289Y-2025851D01*
X7915304Y-2073462D01*
X7981492Y-2108841D01*
X8053311Y-2130627D01*
X8128000Y-2137983D01*
X9271000Y-2137983D01*
X9345689Y-2130627D01*
X9399270Y-2114373D01*
X9452851Y-2130627D01*
X9527540Y-2137983D01*
X10251744Y-2137983D01*
X10227483Y-2196555D01*
X10214605Y-2261297D01*
X9527540Y-2261297D01*
X9452851Y-2268653D01*
X9399270Y-2284907D01*
X9345689Y-2268653D01*
X9271000Y-2261297D01*
X8128000Y-2261297D01*
X8053311Y-2268653D01*
X7981492Y-2290439D01*
X7915304Y-2325818D01*
X7857289Y-2373429D01*
X7809678Y-2431444D01*
X7774299Y-2497632D01*
X7752513Y-2569451D01*
X7745157Y-2644140D01*
X7745157Y-3279140D01*
X7752513Y-3353829D01*
X7774299Y-3425648D01*
X7809678Y-3491836D01*
X7857289Y-3549851D01*
X7915304Y-3597462D01*
X7981492Y-3632841D01*
X8053311Y-3654627D01*
X8128000Y-3661983D01*
X9271000Y-3661983D01*
X9345689Y-3654627D01*
X9399270Y-3638373D01*
X9452851Y-3654627D01*
X9527540Y-3661983D01*
X10456098Y-3661983D01*
X9675498Y-4442583D01*
X9657079Y-4457699D01*
X9596771Y-4531185D01*
X9551958Y-4615024D01*
X9524363Y-4705995D01*
X9519486Y-4755514D01*
X9515045Y-4800600D01*
X9517380Y-4824305D01*
X9517381Y-6538657D01*
X8928100Y-6538657D01*
X8853411Y-6546013D01*
X8781592Y-6567799D01*
X8750300Y-6584525D01*
X8719008Y-6567799D01*
X8647189Y-6546013D01*
X8572500Y-6538657D01*
X7429500Y-6538657D01*
X7415840Y-6540002D01*
X7419794Y-6499860D01*
X7402777Y-6327079D01*
X7352378Y-6160939D01*
X7270536Y-6007823D01*
X7160395Y-5873615D01*
X7026187Y-5763474D01*
X6877170Y-5683823D01*
X7099300Y-5683823D01*
X7173989Y-5676467D01*
X7245808Y-5654681D01*
X7311996Y-5619302D01*
X7370011Y-5571691D01*
X7417622Y-5513676D01*
X7453001Y-5447488D01*
X7474787Y-5375669D01*
X7482143Y-5300980D01*
X7482143Y-4701540D01*
X7474787Y-4626851D01*
X7453001Y-4555032D01*
X7417622Y-4488844D01*
X7370011Y-4430829D01*
X7311996Y-4383218D01*
X7245808Y-4347839D01*
X7173989Y-4326053D01*
X7170420Y-4325701D01*
X7170420Y-4114149D01*
X7270536Y-3992157D01*
X7352378Y-3839041D01*
X7402777Y-3672901D01*
X7419794Y-3500120D01*
X7402777Y-3327339D01*
X7352378Y-3161199D01*
X7270536Y-3008083D01*
X7160395Y-2873875D01*
X7026187Y-2763734D01*
X6929293Y-2711943D01*
X6946467Y-2655329D01*
X6953823Y-2580640D01*
X6953823Y-1945640D01*
X6946467Y-1870951D01*
X6924681Y-1799132D01*
X6889302Y-1732944D01*
X6841691Y-1674929D01*
X6783676Y-1627318D01*
X6717488Y-1591939D01*
X6645669Y-1570153D01*
X6570980Y-1562797D01*
X6017557Y-1562797D01*
X5362875Y-908115D01*
X5346968Y-888732D01*
X5269615Y-825251D01*
X5181363Y-778079D01*
X5085605Y-749031D01*
X5010967Y-741680D01*
X5010964Y-741680D01*
X4986020Y-739223D01*
X4961076Y-741680D01*
X4916515Y-741680D01*
X4962496Y-717102D01*
X5020511Y-669491D01*
X5068122Y-611476D01*
X5103501Y-545288D01*
X5125287Y-473469D01*
X5132643Y-398780D01*
X5132643Y-99060D01*
X5125287Y-24371D01*
X5117509Y1270D01*
X5125287Y26911D01*
X5132643Y101600D01*
X5132643Y401320D01*
X5125287Y476009D01*
X5117509Y501650D01*
X5123464Y521281D01*
X5125084Y504834D01*
G37*
%TD.AperFunction*%
D43*
X-4896308Y-1753241D02*
X-4824489Y-1775027D01*
X-4749800Y-1782383D01*
X-3829392Y-1782383D01*
X-3862341Y-1815332D01*
X-3938783Y-1929736D01*
X-3986691Y-2045397D01*
X-4556760Y-2045397D01*
X-4631449Y-2052753D01*
X-4703268Y-2074539D01*
X-4769456Y-2109918D01*
X-4827471Y-2157529D01*
X-4875082Y-2215544D01*
X-4910461Y-2281732D01*
X-4932247Y-2353551D01*
X-4939603Y-2428240D01*
X-4939603Y-3571240D01*
X-4932247Y-3645929D01*
X-4910461Y-3717748D01*
X-4875082Y-3783936D01*
X-4827471Y-3841951D01*
X-4769456Y-3889562D01*
X-4703268Y-3924941D01*
X-4631449Y-3946727D01*
X-4556760Y-3954083D01*
X-3921760Y-3954083D01*
X-3847071Y-3946727D01*
X-3775252Y-3924941D01*
X-3709064Y-3889562D01*
X-3651049Y-3841951D01*
X-3603438Y-3783936D01*
X-3568059Y-3717748D01*
X-3546273Y-3645929D01*
X-3538917Y-3571240D01*
X-3538917Y-3500760D01*
X-3535155Y-3500389D01*
X-3439397Y-3471341D01*
X-3351145Y-3424169D01*
X-3273792Y-3360688D01*
X-3267256Y-3352724D01*
X-3254381Y-3395168D01*
X-3219002Y-3461356D01*
X-3171391Y-3519371D01*
X-3113376Y-3566982D01*
X-3047188Y-3602361D01*
X-2975369Y-3624147D01*
X-2900680Y-3631503D01*
X-2600960Y-3631503D01*
X-2526271Y-3624147D01*
X-2454452Y-3602361D01*
X-2388264Y-3566982D01*
X-2330249Y-3519371D01*
X-2282638Y-3461356D01*
X-2250440Y-3401119D01*
X-2232659Y-3434383D01*
X-2232660Y-4171441D01*
X-2277619Y-4216400D01*
X-8076364Y-4216400D01*
X-8100061Y-4214066D01*
X-8123758Y-4216400D01*
X-8123767Y-4216400D01*
X-8194666Y-4223383D01*
X-8285637Y-4250978D01*
X-8369475Y-4295791D01*
X-8442961Y-4356099D01*
X-8458077Y-4374518D01*
X-8680959Y-4597400D01*
X-9495591Y-4597400D01*
X-9480581Y-4445000D01*
X-9495661Y-4291887D01*
X-9508572Y-4249324D01*
X-9441005Y-4213208D01*
X-9385934Y-4168013D01*
X-8275952Y-3058032D01*
X-8257539Y-3042921D01*
X-8235130Y-3015616D01*
X-8214588Y-2990585D01*
X-8197231Y-2969435D01*
X-8169115Y-2916835D01*
X-8082825Y-2952577D01*
X-7947876Y-2979420D01*
X-7810284Y-2979420D01*
X-7675335Y-2952577D01*
X-7548216Y-2899923D01*
X-7433812Y-2823481D01*
X-7336519Y-2726188D01*
X-7260077Y-2611784D01*
X-7207423Y-2484665D01*
X-7180580Y-2349716D01*
X-7180580Y-2212124D01*
X-7207423Y-2077175D01*
X-7260077Y-1950056D01*
X-7336519Y-1835652D01*
X-7433812Y-1738359D01*
X-7442910Y-1732280D01*
X-4935522Y-1732280D01*
X-4896308Y-1753241D01*
%TA.AperFunction,Conductor*%
D49*
G36*
X-4896308Y-1753241D02*
G01*
X-4824489Y-1775027D01*
X-4749800Y-1782383D01*
X-3829392Y-1782383D01*
X-3862341Y-1815332D01*
X-3938783Y-1929736D01*
X-3986691Y-2045397D01*
X-4556760Y-2045397D01*
X-4631449Y-2052753D01*
X-4703268Y-2074539D01*
X-4769456Y-2109918D01*
X-4827471Y-2157529D01*
X-4875082Y-2215544D01*
X-4910461Y-2281732D01*
X-4932247Y-2353551D01*
X-4939603Y-2428240D01*
X-4939603Y-3571240D01*
X-4932247Y-3645929D01*
X-4910461Y-3717748D01*
X-4875082Y-3783936D01*
X-4827471Y-3841951D01*
X-4769456Y-3889562D01*
X-4703268Y-3924941D01*
X-4631449Y-3946727D01*
X-4556760Y-3954083D01*
X-3921760Y-3954083D01*
X-3847071Y-3946727D01*
X-3775252Y-3924941D01*
X-3709064Y-3889562D01*
X-3651049Y-3841951D01*
X-3603438Y-3783936D01*
X-3568059Y-3717748D01*
X-3546273Y-3645929D01*
X-3538917Y-3571240D01*
X-3538917Y-3500760D01*
X-3535155Y-3500389D01*
X-3439397Y-3471341D01*
X-3351145Y-3424169D01*
X-3273792Y-3360688D01*
X-3267256Y-3352724D01*
X-3254381Y-3395168D01*
X-3219002Y-3461356D01*
X-3171391Y-3519371D01*
X-3113376Y-3566982D01*
X-3047188Y-3602361D01*
X-2975369Y-3624147D01*
X-2900680Y-3631503D01*
X-2600960Y-3631503D01*
X-2526271Y-3624147D01*
X-2454452Y-3602361D01*
X-2388264Y-3566982D01*
X-2330249Y-3519371D01*
X-2282638Y-3461356D01*
X-2250440Y-3401119D01*
X-2232659Y-3434383D01*
X-2232660Y-4171441D01*
X-2277619Y-4216400D01*
X-8076364Y-4216400D01*
X-8100061Y-4214066D01*
X-8123758Y-4216400D01*
X-8123767Y-4216400D01*
X-8194666Y-4223383D01*
X-8285637Y-4250978D01*
X-8369475Y-4295791D01*
X-8442961Y-4356099D01*
X-8458077Y-4374518D01*
X-8680959Y-4597400D01*
X-9495591Y-4597400D01*
X-9480581Y-4445000D01*
X-9495661Y-4291887D01*
X-9508572Y-4249324D01*
X-9441005Y-4213208D01*
X-9385934Y-4168013D01*
X-8275952Y-3058032D01*
X-8257539Y-3042921D01*
X-8235130Y-3015616D01*
X-8214588Y-2990585D01*
X-8197231Y-2969435D01*
X-8169115Y-2916835D01*
X-8082825Y-2952577D01*
X-7947876Y-2979420D01*
X-7810284Y-2979420D01*
X-7675335Y-2952577D01*
X-7548216Y-2899923D01*
X-7433812Y-2823481D01*
X-7336519Y-2726188D01*
X-7260077Y-2611784D01*
X-7207423Y-2484665D01*
X-7180580Y-2349716D01*
X-7180580Y-2212124D01*
X-7207423Y-2077175D01*
X-7260077Y-1950056D01*
X-7336519Y-1835652D01*
X-7433812Y-1738359D01*
X-7442910Y-1732280D01*
X-4935522Y-1732280D01*
X-4896308Y-1753241D01*
G37*
%TD.AperFunction*%
D43*
X-9695806Y-475617D02*
X-9662752Y-478873D01*
X-9996679Y-812800D01*
X-10971270Y-812800D01*
X-10963781Y-788113D01*
X-10948701Y-635000D01*
X-10963781Y-481887D01*
X-10971270Y-457200D01*
X-9756520Y-457200D01*
X-9695806Y-475617D01*
%TA.AperFunction,Conductor*%
D49*
G36*
X-9695806Y-475617D02*
G01*
X-9662752Y-478873D01*
X-9996679Y-812800D01*
X-10971270Y-812800D01*
X-10963781Y-788113D01*
X-10948701Y-635000D01*
X-10963781Y-481887D01*
X-10971270Y-457200D01*
X-9756520Y-457200D01*
X-9695806Y-475617D01*
G37*
%TD.AperFunction*%
D43*
X-10029703Y4827876D02*
X-9953261Y4713472D01*
X-9855968Y4616179D01*
X-9741564Y4539737D01*
X-9614445Y4487083D01*
X-9479496Y4460240D01*
X-9341904Y4460240D01*
X-9206955Y4487083D01*
X-9079836Y4539737D01*
X-8965432Y4616179D01*
X-8868139Y4713472D01*
X-8791697Y4827876D01*
X-8772484Y4874260D01*
X-8614687Y4874260D01*
X-8652337Y4783365D01*
X-8679180Y4648416D01*
X-8679180Y4510824D01*
X-8652337Y4375875D01*
X-8599683Y4248756D01*
X-8523241Y4134352D01*
X-8425948Y4037059D01*
X-8311544Y3960617D01*
X-8184425Y3907963D01*
X-8049476Y3881120D01*
X-7911884Y3881120D01*
X-7776935Y3907963D01*
X-7649816Y3960617D01*
X-7535412Y4037059D01*
X-7438119Y4134352D01*
X-7361677Y4248756D01*
X-7309023Y4375875D01*
X-7282180Y4510824D01*
X-7282180Y4648416D01*
X-7309023Y4783365D01*
X-7346673Y4874260D01*
X-6954519Y4874260D01*
X-6954520Y1108285D01*
X-6956855Y1084580D01*
X-6954520Y1060875D01*
X-6954520Y1060874D01*
X-6947537Y989975D01*
X-6919942Y899004D01*
X-6918668Y896620D01*
X-8019541Y896620D01*
X-7976238Y939923D01*
X-7957819Y955039D01*
X-7897511Y1028525D01*
X-7892972Y1037017D01*
X-7729220Y1037017D01*
X-7654531Y1044373D01*
X-7582712Y1066159D01*
X-7516524Y1101538D01*
X-7458509Y1149149D01*
X-7410898Y1207164D01*
X-7375519Y1273352D01*
X-7353733Y1345171D01*
X-7346377Y1419860D01*
X-7346377Y2054860D01*
X-7353733Y2129549D01*
X-7375519Y2201368D01*
X-7410898Y2267556D01*
X-7458509Y2325571D01*
X-7516524Y2373182D01*
X-7582712Y2408561D01*
X-7654531Y2430347D01*
X-7729220Y2437703D01*
X-8402320Y2437703D01*
X-8402320Y2469096D01*
X-8429163Y2604045D01*
X-8481817Y2731164D01*
X-8558259Y2845568D01*
X-8655552Y2942861D01*
X-8769956Y3019303D01*
X-8897075Y3071957D01*
X-9032024Y3098800D01*
X-9169616Y3098800D01*
X-9304565Y3071957D01*
X-9431684Y3019303D01*
X-9512908Y2965031D01*
X-9495661Y3021887D01*
X-9480581Y3175000D01*
X-9495661Y3328113D01*
X-9540323Y3475341D01*
X-9612849Y3611028D01*
X-9710452Y3729958D01*
X-9829382Y3827561D01*
X-9965069Y3900087D01*
X-10112297Y3944749D01*
X-10227040Y3956050D01*
X-10702560Y3956050D01*
X-10817303Y3944749D01*
X-10964531Y3900087D01*
X-11100218Y3827561D01*
X-11198860Y3746608D01*
X-11297502Y3827561D01*
X-11433189Y3900087D01*
X-11580417Y3944749D01*
X-11695160Y3956050D01*
X-12170680Y3956050D01*
X-12285423Y3944749D01*
X-12432651Y3900087D01*
X-12568338Y3827561D01*
X-12687268Y3729958D01*
X-12784871Y3611028D01*
X-12791440Y3598738D01*
X-12791440Y4874260D01*
X-10048916Y4874260D01*
X-10029703Y4827876D01*
%TA.AperFunction,Conductor*%
D49*
G36*
X-10029703Y4827876D02*
G01*
X-9953261Y4713472D01*
X-9855968Y4616179D01*
X-9741564Y4539737D01*
X-9614445Y4487083D01*
X-9479496Y4460240D01*
X-9341904Y4460240D01*
X-9206955Y4487083D01*
X-9079836Y4539737D01*
X-8965432Y4616179D01*
X-8868139Y4713472D01*
X-8791697Y4827876D01*
X-8772484Y4874260D01*
X-8614687Y4874260D01*
X-8652337Y4783365D01*
X-8679180Y4648416D01*
X-8679180Y4510824D01*
X-8652337Y4375875D01*
X-8599683Y4248756D01*
X-8523241Y4134352D01*
X-8425948Y4037059D01*
X-8311544Y3960617D01*
X-8184425Y3907963D01*
X-8049476Y3881120D01*
X-7911884Y3881120D01*
X-7776935Y3907963D01*
X-7649816Y3960617D01*
X-7535412Y4037059D01*
X-7438119Y4134352D01*
X-7361677Y4248756D01*
X-7309023Y4375875D01*
X-7282180Y4510824D01*
X-7282180Y4648416D01*
X-7309023Y4783365D01*
X-7346673Y4874260D01*
X-6954519Y4874260D01*
X-6954520Y1108285D01*
X-6956855Y1084580D01*
X-6954520Y1060875D01*
X-6954520Y1060874D01*
X-6947537Y989975D01*
X-6919942Y899004D01*
X-6918668Y896620D01*
X-8019541Y896620D01*
X-7976238Y939923D01*
X-7957819Y955039D01*
X-7897511Y1028525D01*
X-7892972Y1037017D01*
X-7729220Y1037017D01*
X-7654531Y1044373D01*
X-7582712Y1066159D01*
X-7516524Y1101538D01*
X-7458509Y1149149D01*
X-7410898Y1207164D01*
X-7375519Y1273352D01*
X-7353733Y1345171D01*
X-7346377Y1419860D01*
X-7346377Y2054860D01*
X-7353733Y2129549D01*
X-7375519Y2201368D01*
X-7410898Y2267556D01*
X-7458509Y2325571D01*
X-7516524Y2373182D01*
X-7582712Y2408561D01*
X-7654531Y2430347D01*
X-7729220Y2437703D01*
X-8402320Y2437703D01*
X-8402320Y2469096D01*
X-8429163Y2604045D01*
X-8481817Y2731164D01*
X-8558259Y2845568D01*
X-8655552Y2942861D01*
X-8769956Y3019303D01*
X-8897075Y3071957D01*
X-9032024Y3098800D01*
X-9169616Y3098800D01*
X-9304565Y3071957D01*
X-9431684Y3019303D01*
X-9512908Y2965031D01*
X-9495661Y3021887D01*
X-9480581Y3175000D01*
X-9495661Y3328113D01*
X-9540323Y3475341D01*
X-9612849Y3611028D01*
X-9710452Y3729958D01*
X-9829382Y3827561D01*
X-9965069Y3900087D01*
X-10112297Y3944749D01*
X-10227040Y3956050D01*
X-10702560Y3956050D01*
X-10817303Y3944749D01*
X-10964531Y3900087D01*
X-11100218Y3827561D01*
X-11198860Y3746608D01*
X-11297502Y3827561D01*
X-11433189Y3900087D01*
X-11580417Y3944749D01*
X-11695160Y3956050D01*
X-12170680Y3956050D01*
X-12285423Y3944749D01*
X-12432651Y3900087D01*
X-12568338Y3827561D01*
X-12687268Y3729958D01*
X-12784871Y3611028D01*
X-12791440Y3598738D01*
X-12791440Y4874260D01*
X-10048916Y4874260D01*
X-10029703Y4827876D01*
G37*
%TD.AperFunction*%
D43*
X-5125287Y3475749D02*
X-5132643Y3401060D01*
X-5132643Y3101340D01*
X-5125287Y3026651D01*
X-5117509Y3001010D01*
X-5125287Y2975369D01*
X-5128671Y2941010D01*
X-5145011Y2945967D01*
X-5219700Y2953323D01*
X-5628640Y2953323D01*
X-5628640Y3463382D01*
X-5519636Y3441700D01*
X-5382044Y3441700D01*
X-5247095Y3468543D01*
X-5119976Y3521197D01*
X-5109346Y3528300D01*
X-5125287Y3475749D01*
%TA.AperFunction,Conductor*%
D49*
G36*
X-5125287Y3475749D02*
G01*
X-5132643Y3401060D01*
X-5132643Y3101340D01*
X-5125287Y3026651D01*
X-5117509Y3001010D01*
X-5125287Y2975369D01*
X-5128671Y2941010D01*
X-5145011Y2945967D01*
X-5219700Y2953323D01*
X-5628640Y2953323D01*
X-5628640Y3463382D01*
X-5519636Y3441700D01*
X-5382044Y3441700D01*
X-5247095Y3468543D01*
X-5119976Y3521197D01*
X-5109346Y3528300D01*
X-5125287Y3475749D01*
G37*
%TD.AperFunction*%
%TD*%
D43*
%TO.N,AGND*%
X-13533321Y9531149D02*
X-13475306Y9483538D01*
X-13409118Y9448159D01*
X-13337299Y9426373D01*
X-13337259Y9426369D01*
X-13337467Y9345534D01*
X-13340305Y9316720D01*
X-13334836Y9261190D01*
X-13329557Y9206138D01*
X-13329344Y9205430D01*
X-13329271Y9204687D01*
X-13313082Y9151319D01*
X-13297156Y9098327D01*
X-13296809Y9097673D01*
X-13296592Y9096959D01*
X-13270333Y9047832D01*
X-13244344Y8998907D01*
X-13243875Y8998332D01*
X-13243524Y8997676D01*
X-13208408Y8954887D01*
X-13173152Y8911701D01*
X-13150816Y8893274D01*
X-12756383Y8498840D01*
X-12768796Y8498840D01*
X-12903745Y8471997D01*
X-13030864Y8419343D01*
X-13145268Y8342901D01*
X-13242561Y8245608D01*
X-13319003Y8131204D01*
X-13371657Y8004085D01*
X-13398500Y7869136D01*
X-13398500Y7731544D01*
X-13371657Y7596595D01*
X-13319003Y7469476D01*
X-13242561Y7355072D01*
X-13145268Y7257779D01*
X-13030864Y7181337D01*
X-12903745Y7128683D01*
X-12768796Y7101840D01*
X-12637979Y7101840D01*
X-12632061Y7082332D01*
X-12596682Y7016144D01*
X-12549071Y6958129D01*
X-12491056Y6910518D01*
X-12424868Y6875139D01*
X-12353049Y6853353D01*
X-12278360Y6845997D01*
X-11643360Y6845997D01*
X-11568671Y6853353D01*
X-11496852Y6875139D01*
X-11430664Y6910518D01*
X-11372649Y6958129D01*
X-11325038Y7016144D01*
X-11289659Y7082332D01*
X-11267873Y7154151D01*
X-11260517Y7228840D01*
X-11260517Y8371840D01*
X-11267873Y8446529D01*
X-11289135Y8516620D01*
X-11108585Y8516620D01*
X-11129847Y8446529D01*
X-11137203Y8371840D01*
X-11137203Y7228840D01*
X-11129847Y7154151D01*
X-11108061Y7082332D01*
X-11072682Y7016144D01*
X-11025071Y6958129D01*
X-10967056Y6910518D01*
X-10900868Y6875139D01*
X-10829049Y6853353D01*
X-10754360Y6845997D01*
X-10119360Y6845997D01*
X-10044671Y6853353D01*
X-9972852Y6875139D01*
X-9906664Y6910518D01*
X-9893299Y6921486D01*
X-9893300Y5663969D01*
X-9931169Y5626100D01*
X-10957457Y5626100D01*
X-10948701Y5715000D01*
X-10963781Y5868113D01*
X-11008443Y6015341D01*
X-11080969Y6151028D01*
X-11178572Y6269958D01*
X-11297502Y6367561D01*
X-11433189Y6440087D01*
X-11580417Y6484749D01*
X-11695160Y6496050D01*
X-12170680Y6496050D01*
X-12285423Y6484749D01*
X-12432651Y6440087D01*
X-12568338Y6367561D01*
X-12687268Y6269958D01*
X-12784871Y6151028D01*
X-12791440Y6138738D01*
X-12791440Y6335217D01*
X-12788983Y6360161D01*
X-12791920Y6389976D01*
X-12798791Y6459745D01*
X-12827839Y6555503D01*
X-12835193Y6569262D01*
X-12875011Y6643756D01*
X-12922590Y6701731D01*
X-12938492Y6721108D01*
X-12957869Y6737010D01*
X-14091920Y7871060D01*
X-14091920Y9276537D01*
X-14089463Y9301481D01*
X-14091920Y9326427D01*
X-14099271Y9401065D01*
X-14105276Y9420860D01*
X-13991476Y9420860D01*
X-13861989Y9433613D01*
X-13695849Y9484012D01*
X-13555988Y9558769D01*
X-13533321Y9531149D01*
%TA.AperFunction,Conductor*%
D49*
G36*
X-13533321Y9531149D02*
G01*
X-13475306Y9483538D01*
X-13409118Y9448159D01*
X-13337299Y9426373D01*
X-13337259Y9426369D01*
X-13337467Y9345534D01*
X-13340305Y9316720D01*
X-13334836Y9261190D01*
X-13329557Y9206138D01*
X-13329344Y9205430D01*
X-13329271Y9204687D01*
X-13313082Y9151319D01*
X-13297156Y9098327D01*
X-13296809Y9097673D01*
X-13296592Y9096959D01*
X-13270333Y9047832D01*
X-13244344Y8998907D01*
X-13243875Y8998332D01*
X-13243524Y8997676D01*
X-13208408Y8954887D01*
X-13173152Y8911701D01*
X-13150816Y8893274D01*
X-12756383Y8498840D01*
X-12768796Y8498840D01*
X-12903745Y8471997D01*
X-13030864Y8419343D01*
X-13145268Y8342901D01*
X-13242561Y8245608D01*
X-13319003Y8131204D01*
X-13371657Y8004085D01*
X-13398500Y7869136D01*
X-13398500Y7731544D01*
X-13371657Y7596595D01*
X-13319003Y7469476D01*
X-13242561Y7355072D01*
X-13145268Y7257779D01*
X-13030864Y7181337D01*
X-12903745Y7128683D01*
X-12768796Y7101840D01*
X-12637979Y7101840D01*
X-12632061Y7082332D01*
X-12596682Y7016144D01*
X-12549071Y6958129D01*
X-12491056Y6910518D01*
X-12424868Y6875139D01*
X-12353049Y6853353D01*
X-12278360Y6845997D01*
X-11643360Y6845997D01*
X-11568671Y6853353D01*
X-11496852Y6875139D01*
X-11430664Y6910518D01*
X-11372649Y6958129D01*
X-11325038Y7016144D01*
X-11289659Y7082332D01*
X-11267873Y7154151D01*
X-11260517Y7228840D01*
X-11260517Y8371840D01*
X-11267873Y8446529D01*
X-11289135Y8516620D01*
X-11108585Y8516620D01*
X-11129847Y8446529D01*
X-11137203Y8371840D01*
X-11137203Y7228840D01*
X-11129847Y7154151D01*
X-11108061Y7082332D01*
X-11072682Y7016144D01*
X-11025071Y6958129D01*
X-10967056Y6910518D01*
X-10900868Y6875139D01*
X-10829049Y6853353D01*
X-10754360Y6845997D01*
X-10119360Y6845997D01*
X-10044671Y6853353D01*
X-9972852Y6875139D01*
X-9906664Y6910518D01*
X-9893299Y6921486D01*
X-9893300Y5663969D01*
X-9931169Y5626100D01*
X-10957457Y5626100D01*
X-10948701Y5715000D01*
X-10963781Y5868113D01*
X-11008443Y6015341D01*
X-11080969Y6151028D01*
X-11178572Y6269958D01*
X-11297502Y6367561D01*
X-11433189Y6440087D01*
X-11580417Y6484749D01*
X-11695160Y6496050D01*
X-12170680Y6496050D01*
X-12285423Y6484749D01*
X-12432651Y6440087D01*
X-12568338Y6367561D01*
X-12687268Y6269958D01*
X-12784871Y6151028D01*
X-12791440Y6138738D01*
X-12791440Y6335217D01*
X-12788983Y6360161D01*
X-12791920Y6389976D01*
X-12798791Y6459745D01*
X-12827839Y6555503D01*
X-12835193Y6569262D01*
X-12875011Y6643756D01*
X-12922590Y6701731D01*
X-12938492Y6721108D01*
X-12957869Y6737010D01*
X-14091920Y7871060D01*
X-14091920Y9276537D01*
X-14089463Y9301481D01*
X-14091920Y9326427D01*
X-14099271Y9401065D01*
X-14105276Y9420860D01*
X-13991476Y9420860D01*
X-13861989Y9433613D01*
X-13695849Y9484012D01*
X-13555988Y9558769D01*
X-13533321Y9531149D01*
G37*
%TD.AperFunction*%
D43*
X2417416Y9231117D02*
X2544535Y9178463D01*
X2557119Y9175960D01*
X1880000Y8498840D01*
X1831124Y8498840D01*
X1696175Y8471997D01*
X1569056Y8419343D01*
X1454652Y8342901D01*
X1357359Y8245608D01*
X1280917Y8131204D01*
X1228263Y8004085D01*
X1201420Y7869136D01*
X1201420Y7820260D01*
X908115Y7526955D01*
X888732Y7511048D01*
X825251Y7433695D01*
X778079Y7345442D01*
X749031Y7249684D01*
X742773Y7186145D01*
X739223Y7150100D01*
X741680Y7125155D01*
X741680Y6417654D01*
X717102Y6463636D01*
X669491Y6521651D01*
X611476Y6569262D01*
X545288Y6604641D01*
X473469Y6626427D01*
X398780Y6633783D01*
X259080Y6633783D01*
X259080Y9118027D01*
X2049780Y9118027D01*
X2124469Y9125383D01*
X2196288Y9147169D01*
X2262476Y9182548D01*
X2320491Y9230159D01*
X2355325Y9272605D01*
X2417416Y9231117D01*
%TA.AperFunction,Conductor*%
D49*
G36*
X2417416Y9231117D02*
G01*
X2544535Y9178463D01*
X2557119Y9175960D01*
X1880000Y8498840D01*
X1831124Y8498840D01*
X1696175Y8471997D01*
X1569056Y8419343D01*
X1454652Y8342901D01*
X1357359Y8245608D01*
X1280917Y8131204D01*
X1228263Y8004085D01*
X1201420Y7869136D01*
X1201420Y7820260D01*
X908115Y7526955D01*
X888732Y7511048D01*
X825251Y7433695D01*
X778079Y7345442D01*
X749031Y7249684D01*
X742773Y7186145D01*
X739223Y7150100D01*
X741680Y7125155D01*
X741680Y6417654D01*
X717102Y6463636D01*
X669491Y6521651D01*
X611476Y6569262D01*
X545288Y6604641D01*
X473469Y6626427D01*
X398780Y6633783D01*
X259080Y6633783D01*
X259080Y9118027D01*
X2049780Y9118027D01*
X2124469Y9125383D01*
X2196288Y9147169D01*
X2262476Y9182548D01*
X2320491Y9230159D01*
X2355325Y9272605D01*
X2417416Y9231117D01*
G37*
%TD.AperFunction*%
D43*
X-3834703Y12000230D02*
X-3827347Y11925541D01*
X-3805561Y11853722D01*
X-3770182Y11787534D01*
X-3722571Y11729519D01*
X-3664556Y11681908D01*
X-3598368Y11646529D01*
X-3526549Y11624743D01*
X-3451860Y11617387D01*
X-1551940Y11617387D01*
X-1477251Y11624743D01*
X-1405432Y11646529D01*
X-1339244Y11681908D01*
X-1281229Y11729519D01*
X-1257299Y11758678D01*
X-1257300Y6633783D01*
X-1267460Y6633783D01*
X-1267460Y6643796D01*
X-1265125Y6667501D01*
X-1268377Y6700520D01*
X-1274443Y6762106D01*
X-1302038Y6853077D01*
X-1346851Y6936915D01*
X-1407159Y7010401D01*
X-1425578Y7025517D01*
X-2514600Y8114539D01*
X-2514600Y8271944D01*
X-2512266Y8295641D01*
X-2514600Y8319338D01*
X-2514600Y8319346D01*
X-2521583Y8390245D01*
X-2549178Y8481217D01*
X-2593991Y8565055D01*
X-2654299Y8638541D01*
X-2672718Y8653657D01*
X-3317240Y9298179D01*
X-3317240Y9775616D01*
X-3314905Y9799321D01*
X-3317240Y9823027D01*
X-3324223Y9893926D01*
X-3351818Y9984897D01*
X-3396631Y10068735D01*
X-3456939Y10142221D01*
X-3475358Y10157337D01*
X-4142863Y10824842D01*
X-4157979Y10843261D01*
X-4231465Y10903569D01*
X-4315303Y10948382D01*
X-4406274Y10975977D01*
X-4477173Y10982960D01*
X-4477175Y10982960D01*
X-4500880Y10985295D01*
X-4524585Y10982960D01*
X-4856480Y10982960D01*
X-4856480Y12060617D01*
X-3929380Y12060617D01*
X-3854691Y12067973D01*
X-3834703Y12074036D01*
X-3834703Y12000230D01*
%TA.AperFunction,Conductor*%
D49*
G36*
X-3834703Y12000230D02*
G01*
X-3827347Y11925541D01*
X-3805561Y11853722D01*
X-3770182Y11787534D01*
X-3722571Y11729519D01*
X-3664556Y11681908D01*
X-3598368Y11646529D01*
X-3526549Y11624743D01*
X-3451860Y11617387D01*
X-1551940Y11617387D01*
X-1477251Y11624743D01*
X-1405432Y11646529D01*
X-1339244Y11681908D01*
X-1281229Y11729519D01*
X-1257299Y11758678D01*
X-1257300Y6633783D01*
X-1267460Y6633783D01*
X-1267460Y6643796D01*
X-1265125Y6667501D01*
X-1268377Y6700520D01*
X-1274443Y6762106D01*
X-1302038Y6853077D01*
X-1346851Y6936915D01*
X-1407159Y7010401D01*
X-1425578Y7025517D01*
X-2514600Y8114539D01*
X-2514600Y8271944D01*
X-2512266Y8295641D01*
X-2514600Y8319338D01*
X-2514600Y8319346D01*
X-2521583Y8390245D01*
X-2549178Y8481217D01*
X-2593991Y8565055D01*
X-2654299Y8638541D01*
X-2672718Y8653657D01*
X-3317240Y9298179D01*
X-3317240Y9775616D01*
X-3314905Y9799321D01*
X-3317240Y9823027D01*
X-3324223Y9893926D01*
X-3351818Y9984897D01*
X-3396631Y10068735D01*
X-3456939Y10142221D01*
X-3475358Y10157337D01*
X-4142863Y10824842D01*
X-4157979Y10843261D01*
X-4231465Y10903569D01*
X-4315303Y10948382D01*
X-4406274Y10975977D01*
X-4477173Y10982960D01*
X-4477175Y10982960D01*
X-4500880Y10985295D01*
X-4524585Y10982960D01*
X-4856480Y10982960D01*
X-4856480Y12060617D01*
X-3929380Y12060617D01*
X-3854691Y12067973D01*
X-3834703Y12074036D01*
X-3834703Y12000230D01*
G37*
%TD.AperFunction*%
D43*
X-5412740Y7501380D02*
X-5412740Y7226069D01*
X-5472701Y7166108D01*
X-5549143Y7051704D01*
X-5557323Y7031957D01*
X-5561618Y7046117D01*
X-5606431Y7129955D01*
X-5666739Y7203441D01*
X-5685158Y7218557D01*
X-5908040Y7441439D01*
X-5908040Y7996681D01*
X-5412740Y7501380D01*
%TA.AperFunction,Conductor*%
D49*
G36*
X-5412740Y7501380D02*
G01*
X-5412740Y7226069D01*
X-5472701Y7166108D01*
X-5549143Y7051704D01*
X-5557323Y7031957D01*
X-5561618Y7046117D01*
X-5606431Y7129955D01*
X-5666739Y7203441D01*
X-5685158Y7218557D01*
X-5908040Y7441439D01*
X-5908040Y7996681D01*
X-5412740Y7501380D01*
G37*
%TD.AperFunction*%
D43*
X6937739Y13854932D02*
X6953728Y13838943D01*
X6941944Y13824583D01*
X6675758Y13558397D01*
X6657339Y13543281D01*
X6597031Y13469795D01*
X6552218Y13385956D01*
X6524623Y13294985D01*
X6519138Y13239296D01*
X6515305Y13200380D01*
X6517640Y13176675D01*
X6517641Y11786455D01*
X6515305Y11762740D01*
X6524624Y11668134D01*
X6552218Y11577164D01*
X6597032Y11493325D01*
X6635980Y11445867D01*
X6657340Y11419839D01*
X6675753Y11404728D01*
X7061897Y11018583D01*
X7061897Y10429240D01*
X7069253Y10354551D01*
X7091039Y10282732D01*
X7126418Y10216544D01*
X7174029Y10158529D01*
X7232044Y10110918D01*
X7298232Y10075539D01*
X7370051Y10053753D01*
X7444740Y10046397D01*
X8079740Y10046397D01*
X8154429Y10053753D01*
X8226248Y10075539D01*
X8292436Y10110918D01*
X8322672Y10135732D01*
X8338179Y10084612D01*
X8373558Y10018424D01*
X8421169Y9960409D01*
X8429511Y9953563D01*
X7945120Y9953563D01*
X7870431Y9946207D01*
X7798612Y9924421D01*
X7732424Y9889042D01*
X7674409Y9841431D01*
X7626798Y9783416D01*
X7591419Y9717228D01*
X7569633Y9645409D01*
X7562277Y9570720D01*
X7562277Y8427720D01*
X7569633Y8353031D01*
X7591419Y8281212D01*
X7626798Y8215024D01*
X7674409Y8157009D01*
X7732424Y8109398D01*
X7740769Y8104937D01*
X7737537Y8072120D01*
X7737537Y7715062D01*
X7586857Y7865742D01*
X7571741Y7884161D01*
X7498255Y7944469D01*
X7414417Y7989282D01*
X7323446Y8016877D01*
X7252547Y8023860D01*
X7252545Y8023860D01*
X7228840Y8026195D01*
X7205135Y8023860D01*
X6584527Y8023860D01*
X6560820Y8026195D01*
X6466213Y8016877D01*
X6390816Y7994006D01*
X6375243Y7989282D01*
X6291405Y7944469D01*
X6217919Y7884161D01*
X6202803Y7865742D01*
X6139941Y7802880D01*
X6079999Y7802880D01*
X5999480Y7883399D01*
X5999480Y7968196D01*
X5972637Y8103145D01*
X5919983Y8230264D01*
X5843541Y8344668D01*
X5746248Y8441961D01*
X5631844Y8518403D01*
X5504725Y8571057D01*
X5369776Y8597900D01*
X5232184Y8597900D01*
X5097235Y8571057D01*
X4970116Y8518403D01*
X4855712Y8441961D01*
X4758419Y8344668D01*
X4681977Y8230264D01*
X4629323Y8103145D01*
X4605078Y7981258D01*
X4569676Y7988300D01*
X4432084Y7988300D01*
X4297135Y7961457D01*
X4170016Y7908803D01*
X4055612Y7832361D01*
X3958319Y7735068D01*
X3881877Y7620664D01*
X3829223Y7493545D01*
X3802380Y7358596D01*
X3802380Y7221004D01*
X3825346Y7105547D01*
X3785226Y7117717D01*
X3714327Y7124700D01*
X3714325Y7124700D01*
X3690620Y7127035D01*
X3666915Y7124700D01*
X3342444Y7124700D01*
X3371677Y7195275D01*
X3398520Y7330224D01*
X3398520Y7467816D01*
X3371677Y7602765D01*
X3319023Y7729884D01*
X3242581Y7844288D01*
X3145288Y7941581D01*
X3030884Y8018023D01*
X2903765Y8070677D01*
X2891181Y8073180D01*
X3360718Y8542717D01*
X3954780Y8542717D01*
X4029469Y8550073D01*
X4101288Y8571859D01*
X4167476Y8607238D01*
X4225491Y8654849D01*
X4273102Y8712864D01*
X4308481Y8779052D01*
X4330267Y8850871D01*
X4337623Y8925560D01*
X4337623Y10068560D01*
X4330267Y10143249D01*
X4308481Y10215068D01*
X4291076Y10247630D01*
X4308481Y10280192D01*
X4330267Y10352011D01*
X4337623Y10426700D01*
X4337623Y11569700D01*
X4330267Y11644389D01*
X4308481Y11716208D01*
X4291755Y11747500D01*
X4308481Y11778792D01*
X4330267Y11850611D01*
X4337623Y11925300D01*
X4337623Y13068300D01*
X4332527Y13120044D01*
X4385812Y13066759D01*
X4500216Y12990317D01*
X4627335Y12937663D01*
X4762284Y12910820D01*
X4899876Y12910820D01*
X5034825Y12937663D01*
X5161944Y12990317D01*
X5276348Y13066759D01*
X5373641Y13164052D01*
X5450083Y13278456D01*
X5502737Y13405575D01*
X5529580Y13540524D01*
X5529580Y13678116D01*
X5502737Y13813065D01*
X5470348Y13891260D01*
X6913466Y13891260D01*
X6937739Y13854932D01*
%TA.AperFunction,Conductor*%
D49*
G36*
X6937739Y13854932D02*
G01*
X6953728Y13838943D01*
X6941944Y13824583D01*
X6675758Y13558397D01*
X6657339Y13543281D01*
X6597031Y13469795D01*
X6552218Y13385956D01*
X6524623Y13294985D01*
X6519138Y13239296D01*
X6515305Y13200380D01*
X6517640Y13176675D01*
X6517641Y11786455D01*
X6515305Y11762740D01*
X6524624Y11668134D01*
X6552218Y11577164D01*
X6597032Y11493325D01*
X6635980Y11445867D01*
X6657340Y11419839D01*
X6675753Y11404728D01*
X7061897Y11018583D01*
X7061897Y10429240D01*
X7069253Y10354551D01*
X7091039Y10282732D01*
X7126418Y10216544D01*
X7174029Y10158529D01*
X7232044Y10110918D01*
X7298232Y10075539D01*
X7370051Y10053753D01*
X7444740Y10046397D01*
X8079740Y10046397D01*
X8154429Y10053753D01*
X8226248Y10075539D01*
X8292436Y10110918D01*
X8322672Y10135732D01*
X8338179Y10084612D01*
X8373558Y10018424D01*
X8421169Y9960409D01*
X8429511Y9953563D01*
X7945120Y9953563D01*
X7870431Y9946207D01*
X7798612Y9924421D01*
X7732424Y9889042D01*
X7674409Y9841431D01*
X7626798Y9783416D01*
X7591419Y9717228D01*
X7569633Y9645409D01*
X7562277Y9570720D01*
X7562277Y8427720D01*
X7569633Y8353031D01*
X7591419Y8281212D01*
X7626798Y8215024D01*
X7674409Y8157009D01*
X7732424Y8109398D01*
X7740769Y8104937D01*
X7737537Y8072120D01*
X7737537Y7715062D01*
X7586857Y7865742D01*
X7571741Y7884161D01*
X7498255Y7944469D01*
X7414417Y7989282D01*
X7323446Y8016877D01*
X7252547Y8023860D01*
X7252545Y8023860D01*
X7228840Y8026195D01*
X7205135Y8023860D01*
X6584527Y8023860D01*
X6560820Y8026195D01*
X6466213Y8016877D01*
X6390816Y7994006D01*
X6375243Y7989282D01*
X6291405Y7944469D01*
X6217919Y7884161D01*
X6202803Y7865742D01*
X6139941Y7802880D01*
X6079999Y7802880D01*
X5999480Y7883399D01*
X5999480Y7968196D01*
X5972637Y8103145D01*
X5919983Y8230264D01*
X5843541Y8344668D01*
X5746248Y8441961D01*
X5631844Y8518403D01*
X5504725Y8571057D01*
X5369776Y8597900D01*
X5232184Y8597900D01*
X5097235Y8571057D01*
X4970116Y8518403D01*
X4855712Y8441961D01*
X4758419Y8344668D01*
X4681977Y8230264D01*
X4629323Y8103145D01*
X4605078Y7981258D01*
X4569676Y7988300D01*
X4432084Y7988300D01*
X4297135Y7961457D01*
X4170016Y7908803D01*
X4055612Y7832361D01*
X3958319Y7735068D01*
X3881877Y7620664D01*
X3829223Y7493545D01*
X3802380Y7358596D01*
X3802380Y7221004D01*
X3825346Y7105547D01*
X3785226Y7117717D01*
X3714327Y7124700D01*
X3714325Y7124700D01*
X3690620Y7127035D01*
X3666915Y7124700D01*
X3342444Y7124700D01*
X3371677Y7195275D01*
X3398520Y7330224D01*
X3398520Y7467816D01*
X3371677Y7602765D01*
X3319023Y7729884D01*
X3242581Y7844288D01*
X3145288Y7941581D01*
X3030884Y8018023D01*
X2903765Y8070677D01*
X2891181Y8073180D01*
X3360718Y8542717D01*
X3954780Y8542717D01*
X4029469Y8550073D01*
X4101288Y8571859D01*
X4167476Y8607238D01*
X4225491Y8654849D01*
X4273102Y8712864D01*
X4308481Y8779052D01*
X4330267Y8850871D01*
X4337623Y8925560D01*
X4337623Y10068560D01*
X4330267Y10143249D01*
X4308481Y10215068D01*
X4291076Y10247630D01*
X4308481Y10280192D01*
X4330267Y10352011D01*
X4337623Y10426700D01*
X4337623Y11569700D01*
X4330267Y11644389D01*
X4308481Y11716208D01*
X4291755Y11747500D01*
X4308481Y11778792D01*
X4330267Y11850611D01*
X4337623Y11925300D01*
X4337623Y13068300D01*
X4332527Y13120044D01*
X4385812Y13066759D01*
X4500216Y12990317D01*
X4627335Y12937663D01*
X4762284Y12910820D01*
X4899876Y12910820D01*
X5034825Y12937663D01*
X5161944Y12990317D01*
X5276348Y13066759D01*
X5373641Y13164052D01*
X5450083Y13278456D01*
X5502737Y13405575D01*
X5529580Y13540524D01*
X5529580Y13678116D01*
X5502737Y13813065D01*
X5470348Y13891260D01*
X6913466Y13891260D01*
X6937739Y13854932D01*
G37*
%TD.AperFunction*%
D43*
X4159423Y13813065D02*
X4132580Y13678116D01*
X4132580Y13540524D01*
X4159423Y13405575D01*
X4167216Y13386761D01*
X4101288Y13422001D01*
X4029469Y13443787D01*
X3954780Y13451143D01*
X3319780Y13451143D01*
X3245091Y13443787D01*
X3173272Y13422001D01*
X3107084Y13386622D01*
X3049069Y13339011D01*
X3001458Y13280996D01*
X2966079Y13214808D01*
X2944293Y13142989D01*
X2936937Y13068300D01*
X2936937Y12933348D01*
X2914265Y12921229D01*
X2836912Y12857748D01*
X2821005Y12838365D01*
X966173Y10983533D01*
X149860Y10983533D01*
X75171Y10976177D01*
X3352Y10954391D01*
X-62836Y10919012D01*
X-120851Y10871401D01*
X-168462Y10813386D01*
X-203841Y10747198D01*
X-225627Y10675379D01*
X-232983Y10600690D01*
X-232983Y10551800D01*
X-236745Y10551429D01*
X-241300Y10550047D01*
X-241300Y12009576D01*
X-238843Y12034520D01*
X-241300Y12059467D01*
X-248651Y12134105D01*
X-277699Y12229863D01*
X-324871Y12318115D01*
X-388352Y12395468D01*
X-407735Y12411375D01*
X-888065Y12891705D01*
X-903972Y12911088D01*
X-981325Y12974569D01*
X-1069577Y13021741D01*
X-1165335Y13050789D01*
X-1169097Y13051160D01*
X-1169097Y13100050D01*
X-1176453Y13174739D01*
X-1178067Y13180060D01*
X1166091Y13180060D01*
X1226052Y13120099D01*
X1340456Y13043657D01*
X1467575Y12991003D01*
X1602524Y12964160D01*
X1740116Y12964160D01*
X1875065Y12991003D01*
X2002184Y13043657D01*
X2116588Y13120099D01*
X2213881Y13217392D01*
X2290323Y13331796D01*
X2342977Y13458915D01*
X2369820Y13593864D01*
X2369820Y13731456D01*
X2342977Y13866405D01*
X2332682Y13891260D01*
X4191812Y13891260D01*
X4159423Y13813065D01*
%TA.AperFunction,Conductor*%
D49*
G36*
X4159423Y13813065D02*
G01*
X4132580Y13678116D01*
X4132580Y13540524D01*
X4159423Y13405575D01*
X4167216Y13386761D01*
X4101288Y13422001D01*
X4029469Y13443787D01*
X3954780Y13451143D01*
X3319780Y13451143D01*
X3245091Y13443787D01*
X3173272Y13422001D01*
X3107084Y13386622D01*
X3049069Y13339011D01*
X3001458Y13280996D01*
X2966079Y13214808D01*
X2944293Y13142989D01*
X2936937Y13068300D01*
X2936937Y12933348D01*
X2914265Y12921229D01*
X2836912Y12857748D01*
X2821005Y12838365D01*
X966173Y10983533D01*
X149860Y10983533D01*
X75171Y10976177D01*
X3352Y10954391D01*
X-62836Y10919012D01*
X-120851Y10871401D01*
X-168462Y10813386D01*
X-203841Y10747198D01*
X-225627Y10675379D01*
X-232983Y10600690D01*
X-232983Y10551800D01*
X-236745Y10551429D01*
X-241300Y10550047D01*
X-241300Y12009576D01*
X-238843Y12034520D01*
X-241300Y12059467D01*
X-248651Y12134105D01*
X-277699Y12229863D01*
X-324871Y12318115D01*
X-388352Y12395468D01*
X-407735Y12411375D01*
X-888065Y12891705D01*
X-903972Y12911088D01*
X-981325Y12974569D01*
X-1069577Y13021741D01*
X-1165335Y13050789D01*
X-1169097Y13051160D01*
X-1169097Y13100050D01*
X-1176453Y13174739D01*
X-1178067Y13180060D01*
X1166091Y13180060D01*
X1226052Y13120099D01*
X1340456Y13043657D01*
X1467575Y12991003D01*
X1602524Y12964160D01*
X1740116Y12964160D01*
X1875065Y12991003D01*
X2002184Y13043657D01*
X2116588Y13120099D01*
X2213881Y13217392D01*
X2290323Y13331796D01*
X2342977Y13458915D01*
X2369820Y13593864D01*
X2369820Y13731456D01*
X2342977Y13866405D01*
X2332682Y13891260D01*
X4191812Y13891260D01*
X4159423Y13813065D01*
G37*
%TD.AperFunction*%
D43*
X8717913Y11701652D02*
X8699500Y11686541D01*
X8684389Y11668128D01*
X8684387Y11668126D01*
X8639192Y11613055D01*
X8637205Y11609338D01*
X8617191Y11607367D01*
X8545372Y11585581D01*
X8479184Y11550202D01*
X8462583Y11536578D01*
X8462583Y11572240D01*
X8455227Y11646929D01*
X8433441Y11718748D01*
X8416715Y11750040D01*
X8433441Y11781332D01*
X8455227Y11853151D01*
X8460582Y11907520D01*
X8923781Y11907520D01*
X8717913Y11701652D01*
%TA.AperFunction,Conductor*%
D49*
G36*
X8717913Y11701652D02*
G01*
X8699500Y11686541D01*
X8684389Y11668128D01*
X8684387Y11668126D01*
X8639192Y11613055D01*
X8637205Y11609338D01*
X8617191Y11607367D01*
X8545372Y11585581D01*
X8479184Y11550202D01*
X8462583Y11536578D01*
X8462583Y11572240D01*
X8455227Y11646929D01*
X8433441Y11718748D01*
X8416715Y11750040D01*
X8433441Y11781332D01*
X8455227Y11853151D01*
X8460582Y11907520D01*
X8923781Y11907520D01*
X8717913Y11701652D01*
G37*
%TD.AperFunction*%
D43*
X15218058Y16603364D02*
X16403688Y15416059D01*
X16561663Y14815853D01*
X15958820Y12637325D01*
X15958820Y13873711D01*
X15973061Y13887952D01*
X16049503Y14002356D01*
X16102157Y14129475D01*
X16129000Y14264424D01*
X16129000Y14402016D01*
X16102157Y14536965D01*
X16049503Y14664084D01*
X15973061Y14778488D01*
X15875768Y14875781D01*
X15761364Y14952223D01*
X15634245Y15004877D01*
X15499296Y15031720D01*
X15361704Y15031720D01*
X15226755Y15004877D01*
X15099636Y14952223D01*
X14985232Y14875781D01*
X14887939Y14778488D01*
X14811497Y14664084D01*
X14758843Y14536965D01*
X14732000Y14402016D01*
X14732000Y14264424D01*
X14758843Y14129475D01*
X14811497Y14002356D01*
X14887939Y13887952D01*
X14942821Y13833070D01*
X14942820Y12641181D01*
X14578390Y12276750D01*
X14559013Y12260848D01*
X14543111Y12241471D01*
X14543110Y12241470D01*
X14495531Y12183495D01*
X14462063Y12120880D01*
X14462063Y12573000D01*
X14454707Y12647689D01*
X14432921Y12719508D01*
X14397542Y12785696D01*
X14349931Y12843711D01*
X14291916Y12891322D01*
X14225728Y12926701D01*
X14153909Y12948487D01*
X14079220Y12955843D01*
X13525797Y12955843D01*
X13507720Y12973920D01*
X13507720Y12974777D01*
X13510177Y12999721D01*
X13507720Y13024667D01*
X13500369Y13099305D01*
X13471321Y13195063D01*
X13459860Y13216505D01*
X13424149Y13283316D01*
X13376570Y13341291D01*
X13360668Y13360668D01*
X13341290Y13376571D01*
X12938063Y13779797D01*
X12938063Y14071600D01*
X12930707Y14146289D01*
X12908921Y14218108D01*
X12873542Y14284296D01*
X12825931Y14342311D01*
X12767916Y14389922D01*
X12701728Y14425301D01*
X12629909Y14447087D01*
X12555220Y14454443D01*
X11920220Y14454443D01*
X11845531Y14447087D01*
X11773712Y14425301D01*
X11707524Y14389922D01*
X11654526Y14346429D01*
X11619743Y14430404D01*
X11543301Y14544808D01*
X11446008Y14642101D01*
X11331604Y14718543D01*
X11204485Y14771197D01*
X11069536Y14798040D01*
X10931944Y14798040D01*
X10796995Y14771197D01*
X10669876Y14718543D01*
X10662766Y14713792D01*
X10641601Y14745468D01*
X10544308Y14842761D01*
X10429904Y14919203D01*
X10302785Y14971857D01*
X10167836Y14998700D01*
X10030244Y14998700D01*
X9895295Y14971857D01*
X9768176Y14919203D01*
X9653772Y14842761D01*
X9556479Y14745468D01*
X9480037Y14631064D01*
X9427383Y14503945D01*
X9400540Y14368996D01*
X9400540Y14231404D01*
X9416250Y14152425D01*
X9392920Y14154723D01*
X8691880Y14154723D01*
X8617191Y14147367D01*
X8545372Y14125581D01*
X8479184Y14090202D01*
X8421169Y14042591D01*
X8373558Y13984576D01*
X8372555Y13982700D01*
X8104839Y13982700D01*
X8151957Y14096455D01*
X8178800Y14231404D01*
X8178800Y14368996D01*
X8151957Y14503945D01*
X8099303Y14631064D01*
X8028946Y14736360D01*
X9116529Y15068776D01*
X9392682Y15130404D01*
X9402215Y15131957D01*
X9415735Y15135548D01*
X9429386Y15138595D01*
X9438559Y15141612D01*
X10918115Y15534658D01*
X10932995Y15538061D01*
X10940949Y15540723D01*
X10949044Y15542874D01*
X10963320Y15548212D01*
X12139974Y15942093D01*
X12148214Y15944287D01*
X12162367Y15949589D01*
X12176704Y15954388D01*
X12184490Y15957876D01*
X12889475Y16221965D01*
X14623295Y16751902D01*
X15218058Y16603364D01*
%TA.AperFunction,Conductor*%
D49*
G36*
X15218058Y16603364D02*
G01*
X16403688Y15416059D01*
X16561663Y14815853D01*
X15958820Y12637325D01*
X15958820Y13873711D01*
X15973061Y13887952D01*
X16049503Y14002356D01*
X16102157Y14129475D01*
X16129000Y14264424D01*
X16129000Y14402016D01*
X16102157Y14536965D01*
X16049503Y14664084D01*
X15973061Y14778488D01*
X15875768Y14875781D01*
X15761364Y14952223D01*
X15634245Y15004877D01*
X15499296Y15031720D01*
X15361704Y15031720D01*
X15226755Y15004877D01*
X15099636Y14952223D01*
X14985232Y14875781D01*
X14887939Y14778488D01*
X14811497Y14664084D01*
X14758843Y14536965D01*
X14732000Y14402016D01*
X14732000Y14264424D01*
X14758843Y14129475D01*
X14811497Y14002356D01*
X14887939Y13887952D01*
X14942821Y13833070D01*
X14942820Y12641181D01*
X14578390Y12276750D01*
X14559013Y12260848D01*
X14543111Y12241471D01*
X14543110Y12241470D01*
X14495531Y12183495D01*
X14462063Y12120880D01*
X14462063Y12573000D01*
X14454707Y12647689D01*
X14432921Y12719508D01*
X14397542Y12785696D01*
X14349931Y12843711D01*
X14291916Y12891322D01*
X14225728Y12926701D01*
X14153909Y12948487D01*
X14079220Y12955843D01*
X13525797Y12955843D01*
X13507720Y12973920D01*
X13507720Y12974777D01*
X13510177Y12999721D01*
X13507720Y13024667D01*
X13500369Y13099305D01*
X13471321Y13195063D01*
X13459860Y13216505D01*
X13424149Y13283316D01*
X13376570Y13341291D01*
X13360668Y13360668D01*
X13341290Y13376571D01*
X12938063Y13779797D01*
X12938063Y14071600D01*
X12930707Y14146289D01*
X12908921Y14218108D01*
X12873542Y14284296D01*
X12825931Y14342311D01*
X12767916Y14389922D01*
X12701728Y14425301D01*
X12629909Y14447087D01*
X12555220Y14454443D01*
X11920220Y14454443D01*
X11845531Y14447087D01*
X11773712Y14425301D01*
X11707524Y14389922D01*
X11654526Y14346429D01*
X11619743Y14430404D01*
X11543301Y14544808D01*
X11446008Y14642101D01*
X11331604Y14718543D01*
X11204485Y14771197D01*
X11069536Y14798040D01*
X10931944Y14798040D01*
X10796995Y14771197D01*
X10669876Y14718543D01*
X10662766Y14713792D01*
X10641601Y14745468D01*
X10544308Y14842761D01*
X10429904Y14919203D01*
X10302785Y14971857D01*
X10167836Y14998700D01*
X10030244Y14998700D01*
X9895295Y14971857D01*
X9768176Y14919203D01*
X9653772Y14842761D01*
X9556479Y14745468D01*
X9480037Y14631064D01*
X9427383Y14503945D01*
X9400540Y14368996D01*
X9400540Y14231404D01*
X9416250Y14152425D01*
X9392920Y14154723D01*
X8691880Y14154723D01*
X8617191Y14147367D01*
X8545372Y14125581D01*
X8479184Y14090202D01*
X8421169Y14042591D01*
X8373558Y13984576D01*
X8372555Y13982700D01*
X8104839Y13982700D01*
X8151957Y14096455D01*
X8178800Y14231404D01*
X8178800Y14368996D01*
X8151957Y14503945D01*
X8099303Y14631064D01*
X8028946Y14736360D01*
X9116529Y15068776D01*
X9392682Y15130404D01*
X9402215Y15131957D01*
X9415735Y15135548D01*
X9429386Y15138595D01*
X9438559Y15141612D01*
X10918115Y15534658D01*
X10932995Y15538061D01*
X10940949Y15540723D01*
X10949044Y15542874D01*
X10963320Y15548212D01*
X12139974Y15942093D01*
X12148214Y15944287D01*
X12162367Y15949589D01*
X12176704Y15954388D01*
X12184490Y15957876D01*
X12889475Y16221965D01*
X14623295Y16751902D01*
X15218058Y16603364D01*
G37*
%TD.AperFunction*%
D43*
X-2265493Y13482893D02*
X-3034972Y13482893D01*
X-3029123Y13497015D01*
X-3002280Y13631964D01*
X-3002280Y13769556D01*
X-3011837Y13817600D01*
X-2600199Y13817600D01*
X-2265493Y13482893D01*
%TA.AperFunction,Conductor*%
D49*
G36*
X-2265493Y13482893D02*
G01*
X-3034972Y13482893D01*
X-3029123Y13497015D01*
X-3002280Y13631964D01*
X-3002280Y13769556D01*
X-3011837Y13817600D01*
X-2600199Y13817600D01*
X-2265493Y13482893D01*
G37*
%TD.AperFunction*%
%TD*%
M02*
