%TF.GenerationSoftware,KiCad,Pcbnew,6.0.2-378541a8eb~116~ubuntu20.04.1*%
%TF.CreationDate,2022-03-13T20:33:59-06:00*%
%TF.ProjectId,Crazyflie contol board,4372617a-7966-46c6-9965-20636f6e746f,F*%
%TF.SameCoordinates,Original*%
%TF.FileFunction,Copper,L3,Inr*%
%TF.FilePolarity,Positive*%
%FSLAX46Y46*%
G04 Gerber Fmt 4.6, Leading zero omitted, Abs format (unit mm)*
G04 Created by KiCad (PCBNEW 6.0.2-378541a8eb~116~ubuntu20.04.1) date 2022-03-13 20:33:59*
%MOMM*%
%LPD*%
G01*
G04 APERTURE LIST*
%ADD10C,0.200025*%
%TA.AperFunction,NonConductor*%
%ADD11C,0.200025*%
%TD*%
%TA.AperFunction,ComponentPad*%
%ADD12C,0.381000*%
%TD*%
%TA.AperFunction,Conductor*%
%ADD13R,1.699260X1.699260*%
%TD*%
%TA.AperFunction,ComponentPad*%
%ADD14R,1.198880X0.800100*%
%TD*%
%TA.AperFunction,ComponentPad*%
%ADD15O,1.198880X0.800100*%
%TD*%
%TA.AperFunction,ComponentPad*%
%ADD16R,1.399540X1.000760*%
%TD*%
%TA.AperFunction,ComponentPad*%
%ADD17O,1.399540X1.000760*%
%TD*%
%TA.AperFunction,ComponentPad*%
%ADD18C,1.800860*%
%TD*%
%TA.AperFunction,ComponentPad*%
%ADD19R,1.198880X1.600200*%
%TD*%
%TA.AperFunction,ComponentPad*%
%ADD20O,1.198880X1.600200*%
%TD*%
%TA.AperFunction,ComponentPad*%
%ADD21O,1.600200X1.198880*%
%TD*%
%TA.AperFunction,ViaPad*%
%ADD22C,0.635000*%
%TD*%
%TA.AperFunction,Conductor*%
%ADD23C,1.501140*%
%TD*%
%TA.AperFunction,Conductor*%
%ADD24C,1.000760*%
%TD*%
%TA.AperFunction,Conductor*%
%ADD25C,0.304800*%
%TD*%
%TA.AperFunction,Conductor*%
%ADD26C,0.381000*%
%TD*%
G04 APERTURE END LIST*
D10*
D11*
X139561570Y-117269260D02*
X139561570Y-116773960D01*
X139866370Y-117040660D01*
X139866370Y-116926360D01*
X139904470Y-116850160D01*
X139942570Y-116812060D01*
X140018770Y-116773960D01*
X140209270Y-116773960D01*
X140285470Y-116812060D01*
X140323570Y-116850160D01*
X140361670Y-116926360D01*
X140361670Y-117154960D01*
X140323570Y-117231160D01*
X140285470Y-117269260D01*
D12*
%TO.N,GND*%
%TO.C,U8*%
X149499320Y-99504500D03*
X148498560Y-98503740D03*
D13*
X148998940Y-99004120D03*
D12*
X148498560Y-99504500D03*
X149499320Y-98503740D03*
X148998940Y-99004120D03*
%TD*%
D14*
%TO.N,VCC*%
%TO.C,P6*%
X129534920Y-106718100D03*
D15*
%TO.N,/TMS*%
X128066800Y-106718100D03*
%TO.N,/EXT_I2C_SCL{slash}TX*%
X129534920Y-105448100D03*
%TO.N,/TCK*%
X128066800Y-105448100D03*
%TO.N,/EXT_I2C_SDA{slash}RX*%
X129534920Y-104178100D03*
%TO.N,/TDO*%
X128066800Y-104178100D03*
%TO.N,unconnected-(P6-Pad7)*%
X129534920Y-102908100D03*
%TO.N,/TDI*%
X128066800Y-102908100D03*
%TO.N,DGND*%
X129534920Y-101638100D03*
%TO.N,/SNRST*%
X128066800Y-101638100D03*
%TO.N,/EXT_SPI_CS*%
X129534920Y-100368100D03*
%TO.N,/EXT_SPI_MOSI*%
X128066800Y-100368100D03*
%TO.N,/EXT_SPI_SCK*%
X129534920Y-99098100D03*
%TO.N,/EXT_SPI_MISO*%
X128066800Y-99098100D03*
%TO.N,VCC*%
X129534920Y-97828100D03*
%TO.N,VCOM*%
X128066800Y-97828100D03*
%TO.N,DGND*%
X129534920Y-96558100D03*
X128066800Y-96558100D03*
%TO.N,AGND*%
X129534920Y-95288100D03*
%TO.N,VCCA*%
X128066800Y-95288100D03*
%TD*%
D16*
%TO.N,VCC*%
%TO.C,P5*%
X138635740Y-106502200D03*
D17*
%TO.N,DGND*%
X136964420Y-106502200D03*
%TD*%
D18*
%TO.N,N/C*%
%TO.C,PCB_EDGE2*%
X156999940Y-84002880D03*
%TD*%
D16*
%TO.N,/POWER/VUSB*%
%TO.C,P8*%
X127436880Y-90700860D03*
D17*
%TO.N,DGND*%
X125765560Y-90700860D03*
%TD*%
D19*
%TO.N,+BATT*%
%TO.C,BT1*%
X152699720Y-99250500D03*
D20*
%TO.N,GND*%
X152699720Y-97350580D03*
%TD*%
D18*
%TO.N,N/C*%
%TO.C,PCB_EDGE1*%
X122999500Y-84002880D03*
%TD*%
%TO.N,N/C*%
%TO.C,PCB_EDGE3*%
X156999940Y-118003320D03*
%TD*%
%TO.N,N/C*%
%TO.C,PCB_EDGE4*%
X122999500Y-118003320D03*
%TD*%
D16*
%TO.N,+BATT*%
%TO.C,P4*%
X144663160Y-113502440D03*
D17*
%TO.N,Net-(D4-Pad1)*%
X146334480Y-113502440D03*
%TD*%
D16*
%TO.N,+BATT*%
%TO.C,P3*%
X144663160Y-110502700D03*
D17*
%TO.N,Net-(D3-Pad1)*%
X146334480Y-110502700D03*
%TD*%
D16*
%TO.N,+BATT*%
%TO.C,P2*%
X144663160Y-107502960D03*
D17*
%TO.N,Net-(D2-Pad1)*%
X146334480Y-107502960D03*
%TD*%
D16*
%TO.N,+BATT*%
%TO.C,P1*%
X144663160Y-104503220D03*
D17*
%TO.N,Net-(D1-Pad1)*%
X146334480Y-104503220D03*
%TD*%
D21*
%TO.N,GND*%
%TO.C,P9*%
X152900380Y-105402380D03*
%TD*%
D22*
%TO.N,/EXT_SPI_CS*%
X142062200Y-97373440D03*
%TO.N,/EXT_SPI_MISO*%
X140530580Y-99001580D03*
%TO.N,/EXT_SPI_MOSI*%
X140764260Y-100357940D03*
%TO.N,/EXT_SPI_SCK*%
X141376400Y-98008440D03*
%TO.N,/LED_GREEN*%
X135069580Y-94282260D03*
X147480020Y-86702900D03*
X133370320Y-94414340D03*
%TO.N,/LED_RED*%
X126748540Y-102293420D03*
%TO.N,/MOTOR1*%
X142468600Y-99842320D03*
%TO.N,/MOTOR2*%
X141678660Y-99562920D03*
%TO.N,/MOTOR3*%
X141048740Y-101122480D03*
%TO.N,/MOTOR4*%
X139420600Y-101064060D03*
%TO.N,/POWER/USBD+*%
X137739120Y-98013520D03*
X132019040Y-96423480D03*
%TO.N,/POWER/USBD-*%
X138549380Y-97993200D03*
X130589020Y-95844360D03*
%TO.N,/POWER/USB_CON*%
X128369060Y-91704160D03*
X142699740Y-93604080D03*
X136730740Y-93652340D03*
X135399780Y-92532200D03*
%TO.N,/POWER/VUSB*%
X127299720Y-93202760D03*
X147520660Y-100462080D03*
X145798540Y-95613220D03*
%TO.N,/SNRST*%
X130898900Y-98602800D03*
X140614400Y-97129600D03*
%TO.N,/TDI*%
X134162800Y-101549200D03*
%TO.N,/WIRELESS/W_CS*%
X141058900Y-111602520D03*
%TO.N,AGND*%
X140639800Y-94272100D03*
X154500580Y-86502240D03*
X137500360Y-92402660D03*
X142570200Y-87472520D03*
X153700480Y-86304120D03*
X153098500Y-86903560D03*
X137200640Y-87302340D03*
X146149060Y-93022420D03*
X146210020Y-87282020D03*
X134399020Y-93703140D03*
X138069320Y-93332300D03*
X148569680Y-89263220D03*
%TO.N,DGND*%
X125999240Y-107002580D03*
X134698740Y-106603800D03*
X134000240Y-107502960D03*
X125999240Y-104002840D03*
X130898900Y-107302300D03*
X129799080Y-109702600D03*
X140700760Y-114802920D03*
X134000240Y-113502440D03*
X131330700Y-105183940D03*
X131998720Y-113502440D03*
X135900160Y-113703100D03*
X135600440Y-107502960D03*
X137500360Y-110103920D03*
X148069300Y-115072160D03*
X130898900Y-109402880D03*
X125999240Y-108503720D03*
X137899140Y-111503460D03*
X132999480Y-113502440D03*
X148998940Y-105402380D03*
X132999480Y-106603800D03*
X127000000Y-108503720D03*
X128000760Y-108503720D03*
X131599940Y-106702860D03*
X132499100Y-115003580D03*
X132199380Y-107302300D03*
X125999240Y-105503980D03*
X131000500Y-113502440D03*
X127000000Y-109501940D03*
X135699500Y-109202220D03*
X148770340Y-115514120D03*
X136598660Y-111503460D03*
X130898900Y-108503720D03*
X129999740Y-108503720D03*
X128998980Y-108503720D03*
X148000720Y-111653320D03*
X134708900Y-97911920D03*
X148198840Y-105102660D03*
X128498600Y-109501940D03*
X137640060Y-104874060D03*
X139499340Y-113002060D03*
X134698740Y-108503720D03*
%TO.N,GND*%
X151500840Y-112303560D03*
X154200860Y-109702600D03*
X150898860Y-103403400D03*
X152930860Y-112463580D03*
X151698960Y-97203260D03*
X150009860Y-95354140D03*
X153898600Y-108803440D03*
X154000200Y-108003340D03*
%TO.N,/EXT_I2C_SCL{slash}TX*%
X139974320Y-101744780D03*
%TO.N,/EXT_I2C_SDA{slash}RX*%
X139176760Y-102003860D03*
%TO.N,Net-(Q6-PadD)*%
X148899880Y-101602540D03*
%TO.N,/I2C_SCK_VCCA*%
X137238740Y-98643440D03*
%TO.N,/I2C_SCL_VCCA*%
X133609080Y-90103960D03*
%TO.N,/PGOOD*%
X143629380Y-95709740D03*
X147858480Y-96664780D03*
%TO.N,/SYSOFF*%
X147185380Y-95590360D03*
%TO.N,Net-(R33-Pad1)*%
X154259280Y-92179140D03*
%TO.N,/EN1*%
X137312400Y-94218760D03*
%TO.N,/INT_GA*%
X141671040Y-87340440D03*
%TO.N,VCC*%
X141678660Y-113863120D03*
X153070560Y-114002820D03*
X136588500Y-114802920D03*
X143499840Y-102903020D03*
X155430220Y-86669880D03*
X132120640Y-103284020D03*
X123959620Y-87523320D03*
X134548880Y-96862900D03*
X148160740Y-113073180D03*
X154800300Y-100233480D03*
X136679940Y-103263700D03*
X126700280Y-98602800D03*
%TO.N,VCCA*%
X136298940Y-87302340D03*
X134899400Y-91503500D03*
X151000460Y-86903560D03*
X142748000Y-91152980D03*
X141899640Y-93202760D03*
X132900420Y-93703140D03*
X144830800Y-87393780D03*
X150098760Y-86702900D03*
X151599900Y-91704160D03*
%TO.N,VCOM*%
X154099260Y-111902240D03*
X148508720Y-94493080D03*
X146428460Y-99522280D03*
X154800300Y-101203760D03*
X152760680Y-107853480D03*
X146570700Y-97904300D03*
X154099260Y-110904020D03*
X146489420Y-98701860D03*
%TO.N,/CHG*%
X142590520Y-100644960D03*
%TO.N,/SPI_SCK*%
X140898880Y-110802420D03*
%TO.N,/SPI_MISO*%
X141000480Y-108701840D03*
%TO.N,/SPI_MOSI*%
X141000480Y-109804200D03*
%TO.N,/W_CK*%
X140680440Y-106903520D03*
%TO.N,/W_INT*%
X140220700Y-107662980D03*
%TO.N,/W_CE*%
X140398500Y-112102900D03*
%TO.N,/EN2*%
X150080980Y-97073720D03*
%TO.N,unconnected-(U3-Pad6)*%
X146799300Y-94084140D03*
X144500600Y-93713300D03*
%TO.N,unconnected-(U3-Pad7)*%
X147599400Y-94363540D03*
X145300700Y-93103700D03*
%TD*%
D23*
%TO.N,+BATT*%
X152250140Y-100149660D02*
X152600660Y-99799140D01*
X145453100Y-102951280D02*
X149448520Y-102951280D01*
D24*
X144863820Y-110502700D02*
X144863820Y-113502440D01*
X145453100Y-102951280D02*
X144863820Y-103540560D01*
X144863820Y-104503220D02*
X144863820Y-103540560D01*
X152250140Y-100149660D02*
X152250140Y-99499420D01*
X144863820Y-107502960D02*
X144863820Y-110502700D01*
X144863820Y-104503220D02*
X144863820Y-107502960D01*
D25*
X152699720Y-99049840D02*
X152600660Y-99799140D01*
D23*
X149448520Y-102951280D02*
X152250140Y-100149660D01*
D24*
X152250140Y-99499420D02*
X152699720Y-99049840D01*
D26*
%TO.N,/POWER/VUSB*%
X132999480Y-95102680D02*
X136398000Y-95102680D01*
X146100800Y-96403160D02*
X147520660Y-97823020D01*
X146100800Y-95915480D02*
X145798540Y-95613220D01*
X146100800Y-96403160D02*
X146100800Y-95915480D01*
X143200120Y-96403160D02*
X146100800Y-96403160D01*
X147520660Y-97823020D02*
X147520660Y-100462080D01*
X137198100Y-95902780D02*
X142699740Y-95902780D01*
X131099560Y-93202760D02*
X132999480Y-95102680D01*
X136398000Y-95102680D02*
X137198100Y-95902780D01*
X127299720Y-93202760D02*
X131099560Y-93202760D01*
X142699740Y-95902780D02*
X143200120Y-96403160D01*
D25*
%TO.N,VCOM*%
X144500600Y-98701860D02*
X145501360Y-98701860D01*
X126100840Y-96801940D02*
X126100840Y-94802960D01*
X130903980Y-93903800D02*
X130903980Y-93906340D01*
X142273020Y-96474280D02*
X144500600Y-98701860D01*
X136070340Y-95684340D02*
X136860280Y-96474280D01*
X126100840Y-94802960D02*
X127000000Y-93903800D01*
D26*
X146489420Y-98701860D02*
X145501360Y-98701860D01*
D25*
X132681980Y-95684340D02*
X136070340Y-95684340D01*
X130903980Y-93906340D02*
X132681980Y-95684340D01*
X136860280Y-96474280D02*
X142273020Y-96474280D01*
X127127000Y-97828100D02*
X126100840Y-96801940D01*
X127000000Y-93903800D02*
X130903980Y-93903800D01*
X128165860Y-97828100D02*
X127127000Y-97828100D01*
%TD*%
%TA.AperFunction,Conductor*%
%TO.N,+BATT*%
G36*
X145632509Y-103720582D02*
G01*
X145679002Y-103774238D01*
X145689106Y-103844512D01*
X145659612Y-103909092D01*
X145649895Y-103918639D01*
X145647576Y-103920160D01*
X145526519Y-104047951D01*
X145438107Y-104200163D01*
X145435986Y-104207167D01*
X145435984Y-104207171D01*
X145397147Y-104335404D01*
X145387083Y-104368632D01*
X145376183Y-104544321D01*
X145405993Y-104717805D01*
X145408858Y-104724539D01*
X145408859Y-104724541D01*
X145443639Y-104806277D01*
X145474914Y-104879778D01*
X145579247Y-105021552D01*
X145713398Y-105135521D01*
X145719913Y-105138848D01*
X145719915Y-105138849D01*
X145791783Y-105175546D01*
X145870169Y-105215572D01*
X145877275Y-105217311D01*
X145877278Y-105217312D01*
X145958743Y-105237246D01*
X146041151Y-105257411D01*
X146046753Y-105257759D01*
X146046756Y-105257759D01*
X146050318Y-105257980D01*
X146050327Y-105257980D01*
X146052257Y-105258100D01*
X146373580Y-105258100D01*
X146441701Y-105278102D01*
X146488194Y-105331758D01*
X146499580Y-105384100D01*
X146499580Y-106622080D01*
X146479578Y-106690201D01*
X146425922Y-106736694D01*
X146373580Y-106748080D01*
X146091013Y-106748080D01*
X146087379Y-106748504D01*
X146087374Y-106748504D01*
X145967521Y-106762478D01*
X145960248Y-106763326D01*
X145794785Y-106823386D01*
X145647576Y-106919900D01*
X145526519Y-107047691D01*
X145438107Y-107199903D01*
X145435986Y-107206907D01*
X145435984Y-107206911D01*
X145397147Y-107335144D01*
X145387083Y-107368372D01*
X145376183Y-107544061D01*
X145405993Y-107717545D01*
X145408858Y-107724279D01*
X145408859Y-107724281D01*
X145443639Y-107806017D01*
X145474914Y-107879518D01*
X145579247Y-108021292D01*
X145713398Y-108135261D01*
X145719913Y-108138588D01*
X145719915Y-108138589D01*
X145791784Y-108175287D01*
X145870169Y-108215312D01*
X145877275Y-108217051D01*
X145877278Y-108217052D01*
X145958743Y-108236986D01*
X146041151Y-108257151D01*
X146046753Y-108257499D01*
X146046756Y-108257499D01*
X146050318Y-108257720D01*
X146050327Y-108257720D01*
X146052257Y-108257840D01*
X146373580Y-108257840D01*
X146441701Y-108277842D01*
X146488194Y-108331498D01*
X146499580Y-108383840D01*
X146499580Y-109621820D01*
X146479578Y-109689941D01*
X146425922Y-109736434D01*
X146373580Y-109747820D01*
X146091013Y-109747820D01*
X146087379Y-109748244D01*
X146087374Y-109748244D01*
X145967521Y-109762218D01*
X145960248Y-109763066D01*
X145794785Y-109823126D01*
X145647576Y-109919640D01*
X145526519Y-110047431D01*
X145438107Y-110199643D01*
X145435986Y-110206647D01*
X145435984Y-110206651D01*
X145397147Y-110334884D01*
X145387083Y-110368112D01*
X145376183Y-110543801D01*
X145405993Y-110717285D01*
X145408858Y-110724019D01*
X145408859Y-110724021D01*
X145443639Y-110805757D01*
X145474914Y-110879258D01*
X145579247Y-111021032D01*
X145713398Y-111135001D01*
X145719913Y-111138328D01*
X145719915Y-111138329D01*
X145791783Y-111175026D01*
X145870169Y-111215052D01*
X145877275Y-111216791D01*
X145877278Y-111216792D01*
X145958743Y-111236726D01*
X146041151Y-111256891D01*
X146046753Y-111257239D01*
X146046756Y-111257239D01*
X146050318Y-111257460D01*
X146050327Y-111257460D01*
X146052257Y-111257580D01*
X146373580Y-111257580D01*
X146441701Y-111277582D01*
X146488194Y-111331238D01*
X146499580Y-111383580D01*
X146499580Y-112621560D01*
X146479578Y-112689681D01*
X146425922Y-112736174D01*
X146373580Y-112747560D01*
X146091013Y-112747560D01*
X146087379Y-112747984D01*
X146087374Y-112747984D01*
X145967521Y-112761958D01*
X145960248Y-112762806D01*
X145794785Y-112822866D01*
X145647576Y-112919380D01*
X145526519Y-113047171D01*
X145438107Y-113199383D01*
X145435986Y-113206387D01*
X145435984Y-113206391D01*
X145397147Y-113334624D01*
X145387083Y-113367852D01*
X145376183Y-113543541D01*
X145405993Y-113717025D01*
X145408858Y-113723759D01*
X145408859Y-113723761D01*
X145443639Y-113805497D01*
X145474914Y-113878998D01*
X145579247Y-114020772D01*
X145713398Y-114134741D01*
X145719913Y-114138068D01*
X145719915Y-114138069D01*
X145791784Y-114174767D01*
X145870169Y-114214792D01*
X145877275Y-114216531D01*
X145877278Y-114216532D01*
X145958743Y-114236466D01*
X146041151Y-114256631D01*
X146046753Y-114256979D01*
X146046756Y-114256979D01*
X146050318Y-114257200D01*
X146050327Y-114257200D01*
X146052257Y-114257320D01*
X146373580Y-114257320D01*
X146441701Y-114277322D01*
X146488194Y-114330978D01*
X146499580Y-114383320D01*
X146499580Y-114948850D01*
X146479578Y-115016971D01*
X146462675Y-115037945D01*
X146137705Y-115362915D01*
X146075393Y-115396941D01*
X146048610Y-115399820D01*
X143950810Y-115399820D01*
X143882689Y-115379818D01*
X143861715Y-115362915D01*
X143536745Y-115037945D01*
X143502719Y-114975633D01*
X143499840Y-114948850D01*
X143499840Y-104151550D01*
X143519842Y-104083429D01*
X143536745Y-104062455D01*
X143861715Y-103737485D01*
X143924027Y-103703459D01*
X143950810Y-103700580D01*
X145564388Y-103700580D01*
X145632509Y-103720582D01*
G37*
%TD.AperFunction*%
%TD*%
%TA.AperFunction,Conductor*%
%TO.N,VCOM*%
G36*
X154016131Y-94322582D02*
G01*
X154037105Y-94339485D01*
X154362075Y-94664455D01*
X154396101Y-94726767D01*
X154398980Y-94753550D01*
X154398980Y-96710500D01*
X154518404Y-97090975D01*
X154518404Y-97090978D01*
X155277722Y-99510106D01*
X155287723Y-99541970D01*
X155291926Y-99559813D01*
X155302080Y-99623342D01*
X155293080Y-99693766D01*
X155247434Y-99748144D01*
X155179636Y-99769212D01*
X155111210Y-99750282D01*
X155100957Y-99743192D01*
X155088768Y-99733839D01*
X154949622Y-99676203D01*
X154800300Y-99656544D01*
X154650978Y-99676203D01*
X154511832Y-99733839D01*
X154392345Y-99825525D01*
X154300659Y-99945012D01*
X154243023Y-100084158D01*
X154223364Y-100233480D01*
X154243023Y-100382802D01*
X154300659Y-100521948D01*
X154392345Y-100641435D01*
X154511832Y-100733121D01*
X154650978Y-100790757D01*
X154800300Y-100810416D01*
X154949622Y-100790757D01*
X155088768Y-100733121D01*
X155208255Y-100641435D01*
X155208364Y-100641293D01*
X155267391Y-100609061D01*
X155338206Y-100614126D01*
X155395042Y-100656673D01*
X155419853Y-100723193D01*
X155420164Y-100730564D01*
X155420323Y-100742918D01*
X155428787Y-101402015D01*
X155428806Y-101403519D01*
X155414680Y-101463123D01*
X155375837Y-101538052D01*
X155354817Y-101565387D01*
X155300680Y-101602540D01*
X154355800Y-102732840D01*
X154335070Y-107334915D01*
X154314761Y-107402945D01*
X154260896Y-107449195D01*
X154190578Y-107458982D01*
X154160857Y-107450757D01*
X154157159Y-107449226D01*
X154157157Y-107449225D01*
X154149522Y-107446063D01*
X154000200Y-107426404D01*
X153850878Y-107446063D01*
X153711732Y-107503699D01*
X153592245Y-107595385D01*
X153500559Y-107714872D01*
X153442923Y-107854018D01*
X153423264Y-108003340D01*
X153442923Y-108152662D01*
X153446084Y-108160293D01*
X153497134Y-108283540D01*
X153504723Y-108354130D01*
X153480689Y-108408460D01*
X153398959Y-108514972D01*
X153341323Y-108654118D01*
X153321664Y-108803440D01*
X153341323Y-108952762D01*
X153398959Y-109091908D01*
X153490645Y-109211395D01*
X153610132Y-109303081D01*
X153617763Y-109306242D01*
X153624916Y-109310372D01*
X153623188Y-109313365D01*
X153666020Y-109347887D01*
X153688435Y-109415252D01*
X153678924Y-109467957D01*
X153643583Y-109553278D01*
X153623924Y-109702600D01*
X153643583Y-109851922D01*
X153701219Y-109991068D01*
X153792905Y-110110555D01*
X153912392Y-110202241D01*
X154051538Y-110259877D01*
X154200860Y-110279536D01*
X154350182Y-110259877D01*
X154489328Y-110202241D01*
X154608815Y-110110555D01*
X154693411Y-110000308D01*
X154750746Y-109958443D01*
X154821617Y-109954221D01*
X154883520Y-109988985D01*
X154912306Y-110035416D01*
X156856304Y-115593658D01*
X156860208Y-115663303D01*
X156795788Y-115945452D01*
X156726039Y-116250937D01*
X156692295Y-116311985D01*
X155307876Y-117696404D01*
X155248687Y-117729709D01*
X154654975Y-117874769D01*
X154587100Y-117872511D01*
X151223225Y-116809288D01*
X149186559Y-116165557D01*
X149127633Y-116125955D01*
X149099473Y-116060782D01*
X149111017Y-115990730D01*
X149147825Y-115945455D01*
X149178295Y-115922075D01*
X149269981Y-115802588D01*
X149327617Y-115663442D01*
X149347276Y-115514120D01*
X149327617Y-115364798D01*
X149269981Y-115225652D01*
X149178295Y-115106165D01*
X149058808Y-115014479D01*
X148919662Y-114956843D01*
X148770340Y-114937184D01*
X148735501Y-114941771D01*
X148665355Y-114930832D01*
X148612256Y-114883705D01*
X148602647Y-114865066D01*
X148572103Y-114791324D01*
X148572100Y-114791320D01*
X148568941Y-114783692D01*
X148477255Y-114664205D01*
X148357768Y-114572519D01*
X148218622Y-114514883D01*
X148069300Y-114495224D01*
X147919978Y-114514883D01*
X147780832Y-114572519D01*
X147661345Y-114664205D01*
X147569659Y-114783692D01*
X147539663Y-114856109D01*
X147495115Y-114911390D01*
X147427751Y-114933811D01*
X147358960Y-114916253D01*
X147310582Y-114864291D01*
X147297254Y-114807867D01*
X147297300Y-114569359D01*
X147297409Y-114002820D01*
X152493624Y-114002820D01*
X152513283Y-114152142D01*
X152570919Y-114291288D01*
X152662605Y-114410775D01*
X152782092Y-114502461D01*
X152921238Y-114560097D01*
X153070560Y-114579756D01*
X153219882Y-114560097D01*
X153359028Y-114502461D01*
X153478515Y-114410775D01*
X153570201Y-114291288D01*
X153627837Y-114152142D01*
X153647496Y-114002820D01*
X153627837Y-113853498D01*
X153570201Y-113714352D01*
X153478515Y-113594865D01*
X153359028Y-113503179D01*
X153219882Y-113445543D01*
X153070560Y-113425884D01*
X152921238Y-113445543D01*
X152782092Y-113503179D01*
X152662605Y-113594865D01*
X152570919Y-113714352D01*
X152513283Y-113853498D01*
X152493624Y-114002820D01*
X147297409Y-114002820D01*
X147297588Y-113073180D01*
X147583804Y-113073180D01*
X147603463Y-113222502D01*
X147661099Y-113361648D01*
X147752785Y-113481135D01*
X147872272Y-113572821D01*
X148011418Y-113630457D01*
X148160740Y-113650116D01*
X148310062Y-113630457D01*
X148449208Y-113572821D01*
X148568695Y-113481135D01*
X148660381Y-113361648D01*
X148718017Y-113222502D01*
X148737676Y-113073180D01*
X148718017Y-112923858D01*
X148660381Y-112784712D01*
X148568695Y-112665225D01*
X148449208Y-112573539D01*
X148310062Y-112515903D01*
X148160740Y-112496244D01*
X148011418Y-112515903D01*
X147872272Y-112573539D01*
X147752785Y-112665225D01*
X147661099Y-112784712D01*
X147603463Y-112923858D01*
X147583804Y-113073180D01*
X147297588Y-113073180D01*
X147297736Y-112303560D01*
X150923904Y-112303560D01*
X150943563Y-112452882D01*
X151001199Y-112592028D01*
X151092885Y-112711515D01*
X151212372Y-112803201D01*
X151351518Y-112860837D01*
X151500840Y-112880496D01*
X151650162Y-112860837D01*
X151789308Y-112803201D01*
X151908795Y-112711515D01*
X152000481Y-112592028D01*
X152053686Y-112463580D01*
X152353924Y-112463580D01*
X152373583Y-112612902D01*
X152431219Y-112752048D01*
X152522905Y-112871535D01*
X152642392Y-112963221D01*
X152781538Y-113020857D01*
X152930860Y-113040516D01*
X153080182Y-113020857D01*
X153219328Y-112963221D01*
X153338815Y-112871535D01*
X153430501Y-112752048D01*
X153488137Y-112612902D01*
X153507796Y-112463580D01*
X153488137Y-112314258D01*
X153430501Y-112175112D01*
X153338815Y-112055625D01*
X153219328Y-111963939D01*
X153080182Y-111906303D01*
X152930860Y-111886644D01*
X152781538Y-111906303D01*
X152642392Y-111963939D01*
X152522905Y-112055625D01*
X152431219Y-112175112D01*
X152373583Y-112314258D01*
X152353924Y-112463580D01*
X152053686Y-112463580D01*
X152058117Y-112452882D01*
X152077776Y-112303560D01*
X152058117Y-112154238D01*
X152000481Y-112015092D01*
X151908795Y-111895605D01*
X151789308Y-111803919D01*
X151650162Y-111746283D01*
X151500840Y-111726624D01*
X151351518Y-111746283D01*
X151212372Y-111803919D01*
X151092885Y-111895605D01*
X151001199Y-112015092D01*
X150943563Y-112154238D01*
X150923904Y-112303560D01*
X147297736Y-112303560D01*
X147297785Y-112048008D01*
X147317800Y-111979892D01*
X147371465Y-111933409D01*
X147441741Y-111923319D01*
X147506316Y-111952824D01*
X147523741Y-111971322D01*
X147592765Y-112061275D01*
X147712252Y-112152961D01*
X147851398Y-112210597D01*
X148000720Y-112230256D01*
X148150042Y-112210597D01*
X148289188Y-112152961D01*
X148408675Y-112061275D01*
X148500361Y-111941788D01*
X148557997Y-111802642D01*
X148577656Y-111653320D01*
X148557997Y-111503998D01*
X148500361Y-111364852D01*
X148408675Y-111245365D01*
X148289188Y-111153679D01*
X148150042Y-111096043D01*
X148000720Y-111076384D01*
X147851398Y-111096043D01*
X147712252Y-111153679D01*
X147592765Y-111245365D01*
X147523897Y-111335115D01*
X147466562Y-111376980D01*
X147395691Y-111381202D01*
X147333788Y-111346438D01*
X147300507Y-111283725D01*
X147297937Y-111258385D01*
X147298570Y-107972864D01*
X147299122Y-105102660D01*
X147621904Y-105102660D01*
X147641563Y-105251982D01*
X147699199Y-105391128D01*
X147790885Y-105510615D01*
X147910372Y-105602301D01*
X148049518Y-105659937D01*
X148198840Y-105679596D01*
X148348162Y-105659937D01*
X148355793Y-105656776D01*
X148363769Y-105654639D01*
X148364124Y-105655962D01*
X148426120Y-105649299D01*
X148489606Y-105681080D01*
X148503706Y-105696592D01*
X148520586Y-105718590D01*
X148590985Y-105810335D01*
X148710472Y-105902021D01*
X148849618Y-105959657D01*
X148998940Y-105979316D01*
X149148262Y-105959657D01*
X149287408Y-105902021D01*
X149406895Y-105810335D01*
X149498581Y-105690848D01*
X149556217Y-105551702D01*
X149575876Y-105402380D01*
X149569563Y-105354431D01*
X151842084Y-105354431D01*
X151842441Y-105361247D01*
X151842441Y-105361252D01*
X151847110Y-105450329D01*
X151851795Y-105539714D01*
X151901065Y-105718590D01*
X151987597Y-105882713D01*
X151992002Y-105887926D01*
X151992005Y-105887930D01*
X152102947Y-106019212D01*
X152102951Y-106019216D01*
X152107354Y-106024426D01*
X152112777Y-106028573D01*
X152112779Y-106028574D01*
X152249327Y-106132973D01*
X152249331Y-106132976D01*
X152254748Y-106137117D01*
X152422902Y-106215528D01*
X152503386Y-106233518D01*
X152598927Y-106254875D01*
X152598933Y-106254876D01*
X152603971Y-106256002D01*
X152609659Y-106256320D01*
X153147388Y-106256320D01*
X153160690Y-106254875D01*
X153185938Y-106252132D01*
X153285492Y-106241317D01*
X153461339Y-106182138D01*
X153620376Y-106086579D01*
X153625338Y-106081887D01*
X153750224Y-105963788D01*
X153750226Y-105963786D01*
X153755182Y-105959099D01*
X153834060Y-105843034D01*
X153855638Y-105811283D01*
X153855639Y-105811281D01*
X153859470Y-105805644D01*
X153896922Y-105712008D01*
X153925837Y-105639716D01*
X153925838Y-105639714D01*
X153928373Y-105633375D01*
X153958676Y-105450329D01*
X153958319Y-105443513D01*
X153958319Y-105443508D01*
X153949322Y-105271859D01*
X153948965Y-105265046D01*
X153899695Y-105086170D01*
X153813163Y-104922047D01*
X153808758Y-104916834D01*
X153808755Y-104916830D01*
X153697813Y-104785548D01*
X153697809Y-104785544D01*
X153693406Y-104780334D01*
X153687981Y-104776186D01*
X153551433Y-104671787D01*
X153551429Y-104671784D01*
X153546012Y-104667643D01*
X153377858Y-104589232D01*
X153272225Y-104565620D01*
X153201833Y-104549885D01*
X153201827Y-104549884D01*
X153196789Y-104548758D01*
X153191101Y-104548440D01*
X152653372Y-104548440D01*
X152649976Y-104548809D01*
X152649975Y-104548809D01*
X152614822Y-104552628D01*
X152515268Y-104563443D01*
X152339421Y-104622622D01*
X152180384Y-104718181D01*
X152175424Y-104722872D01*
X152175422Y-104722873D01*
X152065817Y-104826522D01*
X152045578Y-104845661D01*
X152041744Y-104851303D01*
X151947894Y-104989399D01*
X151941290Y-104999116D01*
X151938759Y-105005445D01*
X151938758Y-105005446D01*
X151886732Y-105135521D01*
X151872387Y-105171385D01*
X151856882Y-105265046D01*
X151844372Y-105340613D01*
X151842084Y-105354431D01*
X149569563Y-105354431D01*
X149556217Y-105253058D01*
X149498581Y-105113912D01*
X149406895Y-104994425D01*
X149287408Y-104902739D01*
X149148262Y-104845103D01*
X148998940Y-104825444D01*
X148849618Y-104845103D01*
X148841987Y-104848264D01*
X148834011Y-104850401D01*
X148833656Y-104849078D01*
X148771660Y-104855741D01*
X148708174Y-104823960D01*
X148694074Y-104808448D01*
X148611821Y-104701255D01*
X148606795Y-104694705D01*
X148487308Y-104603019D01*
X148348162Y-104545383D01*
X148198840Y-104525724D01*
X148049518Y-104545383D01*
X147910372Y-104603019D01*
X147790885Y-104694705D01*
X147699199Y-104814192D01*
X147641563Y-104953338D01*
X147621904Y-105102660D01*
X147299122Y-105102660D01*
X147299318Y-104082325D01*
X147319333Y-104014209D01*
X147372998Y-103967726D01*
X147425318Y-103956350D01*
X149432316Y-103956350D01*
X149435834Y-103956399D01*
X149516128Y-103958642D01*
X149516131Y-103958642D01*
X149522510Y-103958820D01*
X149556514Y-103952824D01*
X149582212Y-103948293D01*
X149591359Y-103947024D01*
X149645313Y-103941544D01*
X149645316Y-103941543D01*
X149651660Y-103940899D01*
X149679287Y-103932241D01*
X149695077Y-103928392D01*
X149723592Y-103923364D01*
X149779968Y-103901043D01*
X149788665Y-103897964D01*
X149840407Y-103881749D01*
X149840409Y-103881748D01*
X149846501Y-103879839D01*
X149852081Y-103876746D01*
X149852088Y-103876743D01*
X149871823Y-103865804D01*
X149886520Y-103858856D01*
X149907510Y-103850545D01*
X149913438Y-103848198D01*
X149964160Y-103815007D01*
X149972065Y-103810238D01*
X150019502Y-103783943D01*
X150019504Y-103783942D01*
X150025085Y-103780848D01*
X150047067Y-103762007D01*
X150060059Y-103752252D01*
X150084293Y-103736394D01*
X150089278Y-103731906D01*
X150128386Y-103692798D01*
X150135484Y-103686225D01*
X150175267Y-103652127D01*
X150180117Y-103647970D01*
X150184029Y-103642926D01*
X150186319Y-103640522D01*
X150247782Y-103604987D01*
X150318701Y-103608322D01*
X150376558Y-103649469D01*
X150393970Y-103679196D01*
X150399219Y-103691868D01*
X150490905Y-103811355D01*
X150610392Y-103903041D01*
X150749538Y-103960677D01*
X150898860Y-103980336D01*
X151048182Y-103960677D01*
X151187328Y-103903041D01*
X151306815Y-103811355D01*
X151398501Y-103691868D01*
X151456137Y-103552722D01*
X151475796Y-103403400D01*
X151456137Y-103254078D01*
X151398501Y-103114932D01*
X151306815Y-102995445D01*
X151187328Y-102903759D01*
X151179700Y-102900600D01*
X151179696Y-102900597D01*
X151170699Y-102896871D01*
X151115416Y-102852325D01*
X151092993Y-102784962D01*
X151110549Y-102716170D01*
X151129818Y-102691366D01*
X153347433Y-100473751D01*
X153415386Y-100390433D01*
X153440036Y-100360209D01*
X153440037Y-100360207D01*
X153444068Y-100355265D01*
X153538665Y-100174315D01*
X153594946Y-99978040D01*
X153603057Y-99872630D01*
X153610122Y-99780817D01*
X153610122Y-99780813D01*
X153610611Y-99774457D01*
X153585020Y-99571883D01*
X153574867Y-99542057D01*
X153560382Y-99499509D01*
X153553660Y-99458904D01*
X153553659Y-98431523D01*
X153553659Y-98425334D01*
X153538894Y-98351099D01*
X153482644Y-98266916D01*
X153472327Y-98260022D01*
X153425423Y-98228681D01*
X153379896Y-98174204D01*
X153371049Y-98103761D01*
X153395330Y-98047388D01*
X153430313Y-98001633D01*
X153430316Y-98001629D01*
X153434457Y-97996212D01*
X153512868Y-97828058D01*
X153540844Y-97702901D01*
X153552215Y-97652033D01*
X153552216Y-97652027D01*
X153553342Y-97646989D01*
X153553660Y-97641301D01*
X153553660Y-97103572D01*
X153538657Y-96965468D01*
X153479478Y-96789621D01*
X153383919Y-96630584D01*
X153379227Y-96625622D01*
X153261128Y-96500736D01*
X153261126Y-96500734D01*
X153256439Y-96495778D01*
X153102984Y-96391490D01*
X153084113Y-96383942D01*
X152937056Y-96325123D01*
X152937054Y-96325122D01*
X152930715Y-96322587D01*
X152806329Y-96301995D01*
X152754406Y-96293399D01*
X152754403Y-96293399D01*
X152747669Y-96292284D01*
X152740853Y-96292641D01*
X152740848Y-96292641D01*
X152593122Y-96300384D01*
X152562386Y-96301995D01*
X152383510Y-96351265D01*
X152219387Y-96437797D01*
X152214174Y-96442202D01*
X152214170Y-96442205D01*
X152082888Y-96553147D01*
X152082884Y-96553151D01*
X152077674Y-96557554D01*
X152029982Y-96619933D01*
X151972717Y-96661900D01*
X151901853Y-96666245D01*
X151881668Y-96659812D01*
X151855913Y-96649144D01*
X151855914Y-96649144D01*
X151848282Y-96645983D01*
X151698960Y-96626324D01*
X151549638Y-96645983D01*
X151410492Y-96703619D01*
X151291005Y-96795305D01*
X151199319Y-96914792D01*
X151141683Y-97053938D01*
X151122024Y-97203260D01*
X151141683Y-97352582D01*
X151199319Y-97491728D01*
X151291005Y-97611215D01*
X151410492Y-97702901D01*
X151549638Y-97760537D01*
X151698960Y-97780196D01*
X151765464Y-97771440D01*
X151835611Y-97782379D01*
X151888710Y-97829506D01*
X151901329Y-97856173D01*
X151917784Y-97905069D01*
X151917786Y-97905074D01*
X151919962Y-97911539D01*
X151961892Y-97981322D01*
X152009564Y-98060662D01*
X152027504Y-98129355D01*
X152005457Y-98196842D01*
X151971565Y-98230320D01*
X151916796Y-98266916D01*
X151860546Y-98351099D01*
X151845780Y-98425333D01*
X151845780Y-98784028D01*
X151825778Y-98852149D01*
X151808875Y-98873123D01*
X151763590Y-98918408D01*
X151749178Y-98930794D01*
X151731808Y-98943577D01*
X151727065Y-98949160D01*
X151697773Y-98983639D01*
X151690843Y-98991155D01*
X151685192Y-98996806D01*
X151682920Y-98999678D01*
X151682919Y-98999679D01*
X151667676Y-99018947D01*
X151664893Y-99022342D01*
X151617839Y-99077728D01*
X151614510Y-99084248D01*
X151611209Y-99089197D01*
X151608053Y-99094306D01*
X151603508Y-99100052D01*
X151572744Y-99165875D01*
X151570841Y-99169769D01*
X151537788Y-99234499D01*
X151536050Y-99241602D01*
X151533973Y-99247186D01*
X151532075Y-99252892D01*
X151528977Y-99259521D01*
X151524729Y-99279943D01*
X151514184Y-99330640D01*
X151513213Y-99334928D01*
X151495949Y-99405481D01*
X151495260Y-99416587D01*
X151495227Y-99416585D01*
X151494983Y-99420625D01*
X151494619Y-99424698D01*
X151493130Y-99431859D01*
X151493328Y-99439171D01*
X151492894Y-99444033D01*
X151466916Y-99510106D01*
X151456488Y-99521928D01*
X149610427Y-101367989D01*
X149548115Y-101402015D01*
X149477300Y-101396950D01*
X149420464Y-101354403D01*
X149404925Y-101327117D01*
X149402682Y-101321704D01*
X149402681Y-101321702D01*
X149399521Y-101314072D01*
X149307835Y-101194585D01*
X149188348Y-101102899D01*
X149049202Y-101045263D01*
X148899880Y-101025604D01*
X148750558Y-101045263D01*
X148611412Y-101102899D01*
X148491925Y-101194585D01*
X148400239Y-101314072D01*
X148342603Y-101453218D01*
X148322944Y-101602540D01*
X148342603Y-101751862D01*
X148345764Y-101759493D01*
X148350941Y-101771992D01*
X148358530Y-101842582D01*
X148326750Y-101906069D01*
X148265692Y-101942296D01*
X148234532Y-101946210D01*
X145402074Y-101946210D01*
X145330134Y-101953517D01*
X145256309Y-101961016D01*
X145256308Y-101961016D01*
X145249960Y-101961661D01*
X145055119Y-102022721D01*
X144986364Y-102060833D01*
X144917090Y-102076364D01*
X144850413Y-102051976D01*
X144836185Y-102039725D01*
X144636565Y-101840105D01*
X144602539Y-101777793D01*
X144599660Y-101751010D01*
X144599660Y-96974160D01*
X144619662Y-96906039D01*
X144673318Y-96859546D01*
X144725660Y-96848160D01*
X145864285Y-96848160D01*
X145932406Y-96868162D01*
X145953380Y-96885065D01*
X147038755Y-97970440D01*
X147072781Y-98032752D01*
X147075660Y-98059535D01*
X147075660Y-100059632D01*
X147055658Y-100127753D01*
X147049622Y-100136336D01*
X147021019Y-100173612D01*
X146963383Y-100312758D01*
X146943724Y-100462080D01*
X146963383Y-100611402D01*
X147021019Y-100750548D01*
X147112705Y-100870035D01*
X147232192Y-100961721D01*
X147371338Y-101019357D01*
X147520660Y-101039016D01*
X147669982Y-101019357D01*
X147809128Y-100961721D01*
X147928615Y-100870035D01*
X148020301Y-100750548D01*
X148077937Y-100611402D01*
X148097596Y-100462080D01*
X148077937Y-100312758D01*
X148065391Y-100282469D01*
X148057801Y-100211880D01*
X148089579Y-100148393D01*
X148150637Y-100112164D01*
X148181799Y-100108250D01*
X149703788Y-100108249D01*
X149873636Y-100108249D01*
X149909388Y-100101138D01*
X149935696Y-100095906D01*
X149935698Y-100095905D01*
X149947871Y-100093484D01*
X149958191Y-100086589D01*
X149958192Y-100086588D01*
X150021738Y-100044127D01*
X150032054Y-100037234D01*
X150088304Y-99953051D01*
X150103070Y-99878817D01*
X150103069Y-98129424D01*
X150091873Y-98073133D01*
X150090726Y-98067364D01*
X150090725Y-98067362D01*
X150088304Y-98055189D01*
X150078030Y-98039812D01*
X150038947Y-97981322D01*
X150032054Y-97971006D01*
X149947871Y-97914756D01*
X149873637Y-97899990D01*
X148999082Y-97899990D01*
X148124244Y-97899991D01*
X148117448Y-97901343D01*
X148117062Y-97901308D01*
X148112016Y-97901805D01*
X148111922Y-97900848D01*
X148046739Y-97895019D01*
X147990669Y-97851467D01*
X147968915Y-97800402D01*
X147960056Y-97751894D01*
X147959406Y-97747990D01*
X147952192Y-97700005D01*
X147952192Y-97700004D01*
X147950792Y-97690694D01*
X147947704Y-97684264D01*
X147946423Y-97677248D01*
X147942082Y-97668891D01*
X147942080Y-97668886D01*
X147919712Y-97625827D01*
X147917974Y-97622350D01*
X147892868Y-97570068D01*
X147888024Y-97564828D01*
X147884738Y-97558502D01*
X147880476Y-97553511D01*
X147843697Y-97516732D01*
X147840268Y-97513166D01*
X147808430Y-97478724D01*
X147802035Y-97471806D01*
X147795741Y-97468150D01*
X147789738Y-97462773D01*
X147782698Y-97455733D01*
X147748672Y-97393421D01*
X147753737Y-97322606D01*
X147796284Y-97265770D01*
X147858587Y-97242532D01*
X147858480Y-97241716D01*
X148007802Y-97222057D01*
X148146948Y-97164421D01*
X148265151Y-97073720D01*
X149504044Y-97073720D01*
X149523703Y-97223042D01*
X149581339Y-97362188D01*
X149673025Y-97481675D01*
X149792512Y-97573361D01*
X149931658Y-97630997D01*
X150080980Y-97650656D01*
X150230302Y-97630997D01*
X150369448Y-97573361D01*
X150488935Y-97481675D01*
X150580621Y-97362188D01*
X150638257Y-97223042D01*
X150657916Y-97073720D01*
X150638257Y-96924398D01*
X150580621Y-96785252D01*
X150488935Y-96665765D01*
X150369448Y-96574079D01*
X150230302Y-96516443D01*
X150080980Y-96496784D01*
X149931658Y-96516443D01*
X149792512Y-96574079D01*
X149673025Y-96665765D01*
X149581339Y-96785252D01*
X149523703Y-96924398D01*
X149504044Y-97073720D01*
X148265151Y-97073720D01*
X148266435Y-97072735D01*
X148358121Y-96953248D01*
X148415757Y-96814102D01*
X148435416Y-96664780D01*
X148415757Y-96515458D01*
X148358121Y-96376312D01*
X148266435Y-96256825D01*
X148146948Y-96165139D01*
X148007802Y-96107503D01*
X147858480Y-96087844D01*
X147850292Y-96088922D01*
X147850291Y-96088922D01*
X147788710Y-96097029D01*
X147718561Y-96086089D01*
X147665463Y-96038961D01*
X147646273Y-95970607D01*
X147667084Y-95902729D01*
X147672290Y-95895420D01*
X147685021Y-95878828D01*
X147742657Y-95739682D01*
X147762316Y-95590360D01*
X147742657Y-95441038D01*
X147706663Y-95354140D01*
X149432924Y-95354140D01*
X149452583Y-95503462D01*
X149510219Y-95642608D01*
X149601905Y-95762095D01*
X149721392Y-95853781D01*
X149860538Y-95911417D01*
X150009860Y-95931076D01*
X150159182Y-95911417D01*
X150298328Y-95853781D01*
X150417815Y-95762095D01*
X150509501Y-95642608D01*
X150567137Y-95503462D01*
X150586796Y-95354140D01*
X150567137Y-95204818D01*
X150509501Y-95065672D01*
X150417815Y-94946185D01*
X150298328Y-94854499D01*
X150159182Y-94796863D01*
X150009860Y-94777204D01*
X149860538Y-94796863D01*
X149721392Y-94854499D01*
X149601905Y-94946185D01*
X149510219Y-95065672D01*
X149452583Y-95204818D01*
X149432924Y-95354140D01*
X147706663Y-95354140D01*
X147685021Y-95301892D01*
X147593335Y-95182405D01*
X147566438Y-95161766D01*
X147524571Y-95104428D01*
X147520349Y-95033557D01*
X147555113Y-94971654D01*
X147617826Y-94938373D01*
X147626687Y-94936884D01*
X147748722Y-94920817D01*
X147887868Y-94863181D01*
X148007355Y-94771495D01*
X148099041Y-94652008D01*
X148156677Y-94512862D01*
X148169939Y-94412133D01*
X148198660Y-94347207D01*
X148257925Y-94308115D01*
X148294860Y-94302580D01*
X153948010Y-94302580D01*
X154016131Y-94322582D01*
G37*
%TD.AperFunction*%
%TD*%
%TA.AperFunction,Conductor*%
%TO.N,VCC*%
G36*
X131395642Y-96222502D02*
G01*
X131442135Y-96276158D01*
X131452443Y-96344946D01*
X131449264Y-96369094D01*
X131442104Y-96423480D01*
X131461763Y-96572802D01*
X131519399Y-96711948D01*
X131611085Y-96831435D01*
X131730572Y-96923121D01*
X131869718Y-96980757D01*
X132019040Y-97000416D01*
X132168362Y-96980757D01*
X132307508Y-96923121D01*
X132426995Y-96831435D01*
X132518681Y-96711948D01*
X132576317Y-96572802D01*
X132595976Y-96423480D01*
X132588816Y-96369094D01*
X132585637Y-96344946D01*
X132596576Y-96274797D01*
X132643705Y-96221699D01*
X132710559Y-96202500D01*
X135947030Y-96202500D01*
X136015151Y-96222502D01*
X136036125Y-96239405D01*
X136199880Y-96403160D01*
X136199880Y-96603820D01*
X136408788Y-96603820D01*
X136431022Y-96620465D01*
X136618129Y-96807572D01*
X136638184Y-96817790D01*
X136655039Y-96828120D01*
X136673248Y-96841350D01*
X136682681Y-96844415D01*
X136682683Y-96844416D01*
X136694660Y-96848308D01*
X136712921Y-96855872D01*
X136732974Y-96866089D01*
X136742767Y-96867640D01*
X136755206Y-96869610D01*
X136774432Y-96874226D01*
X136795834Y-96881180D01*
X139926494Y-96881180D01*
X139994615Y-96901182D01*
X140041108Y-96954838D01*
X140051416Y-97023627D01*
X140037464Y-97129600D01*
X140057123Y-97278922D01*
X140114759Y-97418068D01*
X140206445Y-97537555D01*
X140325932Y-97629241D01*
X140465078Y-97686877D01*
X140614400Y-97706536D01*
X140683185Y-97697480D01*
X140753334Y-97708419D01*
X140806433Y-97755547D01*
X140825623Y-97823901D01*
X140821596Y-97853148D01*
X140819123Y-97859118D01*
X140799464Y-98008440D01*
X140819123Y-98157762D01*
X140838767Y-98205187D01*
X140874818Y-98292222D01*
X140882407Y-98362812D01*
X140850628Y-98426299D01*
X140789569Y-98462526D01*
X140718618Y-98459992D01*
X140710191Y-98456849D01*
X140687533Y-98447464D01*
X140687534Y-98447464D01*
X140679902Y-98444303D01*
X140530580Y-98424644D01*
X140381258Y-98444303D01*
X140242112Y-98501939D01*
X140122625Y-98593625D01*
X140030939Y-98713112D01*
X139973303Y-98852258D01*
X139953644Y-99001580D01*
X139973303Y-99150902D01*
X140030939Y-99290048D01*
X140122625Y-99409535D01*
X140242112Y-99501221D01*
X140381258Y-99558857D01*
X140530580Y-99578516D01*
X140530338Y-99580354D01*
X140588527Y-99597440D01*
X140635020Y-99651096D01*
X140645124Y-99721370D01*
X140615630Y-99785950D01*
X140568625Y-99819847D01*
X140475792Y-99858299D01*
X140356305Y-99949985D01*
X140264619Y-100069472D01*
X140206983Y-100208618D01*
X140187324Y-100357940D01*
X140206983Y-100507262D01*
X140264619Y-100646408D01*
X140356305Y-100765895D01*
X140445077Y-100834012D01*
X140448611Y-100836724D01*
X140490478Y-100894062D01*
X140493563Y-100968089D01*
X140491463Y-100973158D01*
X140471804Y-101122480D01*
X140473550Y-101135740D01*
X140462612Y-101205887D01*
X140415485Y-101258987D01*
X140347131Y-101278178D01*
X140279253Y-101257368D01*
X140271926Y-101252151D01*
X140262788Y-101245139D01*
X140123642Y-101187503D01*
X140106013Y-101185182D01*
X140041085Y-101156460D01*
X140001993Y-101097196D01*
X139997298Y-101065867D01*
X139997536Y-101064060D01*
X139977877Y-100914738D01*
X139920241Y-100775592D01*
X139828555Y-100656105D01*
X139709068Y-100564419D01*
X139569922Y-100506783D01*
X139420600Y-100487124D01*
X139271278Y-100506783D01*
X139132132Y-100564419D01*
X139012645Y-100656105D01*
X138920959Y-100775592D01*
X138863323Y-100914738D01*
X138843664Y-101064060D01*
X138863323Y-101213382D01*
X138875168Y-101241979D01*
X138920959Y-101352528D01*
X138919474Y-101353143D01*
X138933972Y-101412928D01*
X138910745Y-101480018D01*
X138884819Y-101506884D01*
X138768805Y-101595905D01*
X138677119Y-101715392D01*
X138619483Y-101854538D01*
X138599824Y-102003860D01*
X138619483Y-102153182D01*
X138677119Y-102292328D01*
X138768805Y-102411815D01*
X138888292Y-102503501D01*
X139027438Y-102561137D01*
X139176760Y-102580796D01*
X139326082Y-102561137D01*
X139465228Y-102503501D01*
X139584715Y-102411815D01*
X139647718Y-102329708D01*
X139705056Y-102287841D01*
X139775927Y-102283619D01*
X139795899Y-102290004D01*
X139817364Y-102298895D01*
X139824998Y-102302057D01*
X139974320Y-102321716D01*
X140123642Y-102302057D01*
X140262788Y-102244421D01*
X140382275Y-102152735D01*
X140473961Y-102033248D01*
X140531597Y-101894102D01*
X140551256Y-101744780D01*
X140549510Y-101731520D01*
X140560448Y-101661373D01*
X140607575Y-101608273D01*
X140675929Y-101589082D01*
X140743807Y-101609892D01*
X140751132Y-101615107D01*
X140760272Y-101622121D01*
X140899418Y-101679757D01*
X141048740Y-101699416D01*
X141198062Y-101679757D01*
X141337208Y-101622121D01*
X141456695Y-101530435D01*
X141548381Y-101410948D01*
X141606017Y-101271802D01*
X141625676Y-101122480D01*
X141606017Y-100973158D01*
X141548381Y-100834012D01*
X141456695Y-100714525D01*
X141364389Y-100643696D01*
X141322522Y-100586358D01*
X141319437Y-100512331D01*
X141321537Y-100507262D01*
X141341196Y-100357940D01*
X141325725Y-100240430D01*
X141336664Y-100170282D01*
X141383792Y-100117183D01*
X141452146Y-100097993D01*
X141498864Y-100107575D01*
X141521704Y-100117035D01*
X141529338Y-100120197D01*
X141678660Y-100139856D01*
X141827982Y-100120197D01*
X141839467Y-100115440D01*
X141842981Y-100115062D01*
X141843589Y-100114899D01*
X141843614Y-100114994D01*
X141910055Y-100107849D01*
X141973542Y-100139627D01*
X141987648Y-100155144D01*
X142060645Y-100250275D01*
X142059121Y-100251444D01*
X142088074Y-100304466D01*
X142081362Y-100379467D01*
X142047011Y-100462398D01*
X142033243Y-100495638D01*
X142013584Y-100644960D01*
X142033243Y-100794282D01*
X142090879Y-100933428D01*
X142182565Y-101052915D01*
X142302052Y-101144601D01*
X142441198Y-101202237D01*
X142590520Y-101221896D01*
X142739842Y-101202237D01*
X142878988Y-101144601D01*
X142998475Y-101052915D01*
X143090161Y-100933428D01*
X143147797Y-100794282D01*
X143167456Y-100644960D01*
X143147797Y-100495638D01*
X143090161Y-100356492D01*
X142998475Y-100237005D01*
X142999999Y-100235836D01*
X142971046Y-100182814D01*
X142977758Y-100107813D01*
X143022716Y-99999273D01*
X143025877Y-99991642D01*
X143045536Y-99842320D01*
X143025877Y-99692998D01*
X142968241Y-99553852D01*
X142876555Y-99434365D01*
X142757068Y-99342679D01*
X142617922Y-99285043D01*
X142468600Y-99265384D01*
X142319278Y-99285043D01*
X142307793Y-99289800D01*
X142304279Y-99290178D01*
X142303671Y-99290341D01*
X142303646Y-99290246D01*
X142237205Y-99297391D01*
X142173718Y-99265613D01*
X142159612Y-99250096D01*
X142091641Y-99161515D01*
X142086615Y-99154965D01*
X141967128Y-99063279D01*
X141827982Y-99005643D01*
X141678660Y-98985984D01*
X141529338Y-99005643D01*
X141390192Y-99063279D01*
X141335037Y-99105601D01*
X141308046Y-99126312D01*
X141241826Y-99151913D01*
X141172277Y-99137648D01*
X141121481Y-99088047D01*
X141105565Y-99018858D01*
X141106418Y-99009917D01*
X141107516Y-99001580D01*
X141087857Y-98852258D01*
X141032162Y-98717798D01*
X141024573Y-98647208D01*
X141056352Y-98583721D01*
X141117411Y-98547494D01*
X141188362Y-98550028D01*
X141196789Y-98553171D01*
X141227078Y-98565717D01*
X141376400Y-98585376D01*
X141525722Y-98565717D01*
X141664868Y-98508081D01*
X141784355Y-98416395D01*
X141876041Y-98296908D01*
X141933677Y-98157762D01*
X141946699Y-98058852D01*
X141975422Y-97993924D01*
X142034687Y-97954833D01*
X142062243Y-97950703D01*
X142062200Y-97950376D01*
X142211522Y-97930717D01*
X142350668Y-97873081D01*
X142470155Y-97781395D01*
X142561841Y-97661908D01*
X142584389Y-97607472D01*
X142628938Y-97552192D01*
X142696301Y-97529771D01*
X142765093Y-97547329D01*
X142789893Y-97566596D01*
X143692476Y-98469179D01*
X143726502Y-98531491D01*
X143729367Y-98556411D01*
X143792885Y-102852871D01*
X143773892Y-102921280D01*
X143756651Y-102943168D01*
X143437794Y-103266774D01*
X143375735Y-103301259D01*
X143348042Y-103304340D01*
X142798800Y-103304340D01*
X142764400Y-107505517D01*
X142711354Y-113983938D01*
X142703430Y-114951707D01*
X142682871Y-115019661D01*
X142666170Y-115040128D01*
X142337800Y-115365821D01*
X142275350Y-115399589D01*
X142249071Y-115402360D01*
X141217286Y-115402360D01*
X141149165Y-115382358D01*
X141102672Y-115328702D01*
X141092568Y-115258428D01*
X141117322Y-115199658D01*
X141200401Y-115091388D01*
X141258037Y-114952242D01*
X141277696Y-114802920D01*
X141258037Y-114653598D01*
X141200401Y-114514452D01*
X141108715Y-114394965D01*
X140989228Y-114303279D01*
X140850082Y-114245643D01*
X140700760Y-114225984D01*
X140551438Y-114245643D01*
X140412292Y-114303279D01*
X140292805Y-114394965D01*
X140201119Y-114514452D01*
X140143483Y-114653598D01*
X140123824Y-114802920D01*
X140143483Y-114952242D01*
X140201119Y-115091388D01*
X140284198Y-115199658D01*
X140309797Y-115265876D01*
X140295532Y-115335425D01*
X140245931Y-115386221D01*
X140184234Y-115402360D01*
X136551292Y-115402360D01*
X136483171Y-115382358D01*
X136462802Y-115366057D01*
X136132215Y-115039919D01*
X136097769Y-114977839D01*
X136094717Y-114951929D01*
X136087258Y-114401515D01*
X136086303Y-114331027D01*
X136105380Y-114262643D01*
X136164073Y-114212912D01*
X136164604Y-114212692D01*
X136188628Y-114202741D01*
X136308115Y-114111055D01*
X136399801Y-113991568D01*
X136457437Y-113852422D01*
X136477096Y-113703100D01*
X136457437Y-113553778D01*
X136399801Y-113414632D01*
X136308115Y-113295145D01*
X136188628Y-113203459D01*
X136147007Y-113186219D01*
X136091726Y-113141671D01*
X136069237Y-113071517D01*
X136068296Y-113002060D01*
X138922404Y-113002060D01*
X138942063Y-113151382D01*
X138999699Y-113290528D01*
X139091385Y-113410015D01*
X139210872Y-113501701D01*
X139350018Y-113559337D01*
X139499340Y-113578996D01*
X139648662Y-113559337D01*
X139787808Y-113501701D01*
X139907295Y-113410015D01*
X139998981Y-113290528D01*
X140056617Y-113151382D01*
X140076276Y-113002060D01*
X140056617Y-112852738D01*
X140036865Y-112805052D01*
X140029276Y-112734462D01*
X140061056Y-112670975D01*
X140122114Y-112634748D01*
X140193065Y-112637282D01*
X140201492Y-112640425D01*
X140249178Y-112660177D01*
X140398500Y-112679836D01*
X140547822Y-112660177D01*
X140686968Y-112602541D01*
X140806455Y-112510855D01*
X140898141Y-112391368D01*
X140954146Y-112256160D01*
X140998694Y-112200879D01*
X141059225Y-112181926D01*
X141058900Y-112179456D01*
X141208222Y-112159797D01*
X141347368Y-112102161D01*
X141466855Y-112010475D01*
X141558541Y-111890988D01*
X141616177Y-111751842D01*
X141635836Y-111602520D01*
X141616177Y-111453198D01*
X141558541Y-111314052D01*
X141466855Y-111194565D01*
X141459117Y-111188628D01*
X141458369Y-111187603D01*
X141454464Y-111183698D01*
X141455073Y-111183089D01*
X141417252Y-111131292D01*
X141413030Y-111060421D01*
X141419414Y-111040450D01*
X141452995Y-110959376D01*
X141452996Y-110959373D01*
X141456157Y-110951742D01*
X141475816Y-110802420D01*
X141456157Y-110653098D01*
X141398521Y-110513952D01*
X141333142Y-110428749D01*
X141307541Y-110362529D01*
X141321806Y-110292980D01*
X141356400Y-110252083D01*
X141401885Y-110217181D01*
X141408435Y-110212155D01*
X141500121Y-110092668D01*
X141557757Y-109953522D01*
X141577416Y-109804200D01*
X141557757Y-109654878D01*
X141500121Y-109515732D01*
X141408435Y-109396245D01*
X141352054Y-109352982D01*
X141310187Y-109295644D01*
X141305965Y-109224773D01*
X141340729Y-109162870D01*
X141352054Y-109153058D01*
X141401885Y-109114821D01*
X141408435Y-109109795D01*
X141500121Y-108990308D01*
X141557757Y-108851162D01*
X141577416Y-108701840D01*
X141557757Y-108552518D01*
X141500121Y-108413372D01*
X141408435Y-108293885D01*
X141288948Y-108202199D01*
X141149802Y-108144563D01*
X141000480Y-108124904D01*
X140851158Y-108144563D01*
X140851115Y-108144239D01*
X140785108Y-108142665D01*
X140726314Y-108102868D01*
X140698369Y-108037602D01*
X140710146Y-107967589D01*
X140714362Y-107959646D01*
X140715309Y-107958006D01*
X140720341Y-107951448D01*
X140777977Y-107812302D01*
X140797636Y-107662980D01*
X140786675Y-107579726D01*
X140797614Y-107509579D01*
X140844742Y-107456480D01*
X140863375Y-107446874D01*
X140968908Y-107403161D01*
X141088395Y-107311475D01*
X141180081Y-107191988D01*
X141237717Y-107052842D01*
X141257376Y-106903520D01*
X141237717Y-106754198D01*
X141180081Y-106615052D01*
X141088395Y-106495565D01*
X140968908Y-106403879D01*
X140829762Y-106346243D01*
X140680440Y-106326584D01*
X140531118Y-106346243D01*
X140391972Y-106403879D01*
X140272485Y-106495565D01*
X140180799Y-106615052D01*
X140123163Y-106754198D01*
X140103504Y-106903520D01*
X140108188Y-106939094D01*
X140114465Y-106986772D01*
X140103526Y-107056921D01*
X140056398Y-107110020D01*
X140037765Y-107119626D01*
X139932232Y-107163339D01*
X139812745Y-107255025D01*
X139721059Y-107374512D01*
X139663423Y-107513658D01*
X139643764Y-107662980D01*
X139663423Y-107812302D01*
X139721059Y-107951448D01*
X139812745Y-108070935D01*
X139932232Y-108162621D01*
X140071378Y-108220257D01*
X140220700Y-108239916D01*
X140367948Y-108220530D01*
X140370022Y-108220257D01*
X140370065Y-108220581D01*
X140436072Y-108222155D01*
X140494866Y-108261952D01*
X140522811Y-108327218D01*
X140511034Y-108397231D01*
X140506818Y-108405174D01*
X140505871Y-108406814D01*
X140500839Y-108413372D01*
X140443203Y-108552518D01*
X140423544Y-108701840D01*
X140443203Y-108851162D01*
X140500839Y-108990308D01*
X140592525Y-109109795D01*
X140599075Y-109114821D01*
X140648906Y-109153058D01*
X140690773Y-109210396D01*
X140694995Y-109281267D01*
X140660231Y-109343170D01*
X140648906Y-109352982D01*
X140592525Y-109396245D01*
X140500839Y-109515732D01*
X140443203Y-109654878D01*
X140423544Y-109804200D01*
X140443203Y-109953522D01*
X140500839Y-110092668D01*
X140515756Y-110112108D01*
X140566218Y-110177871D01*
X140591819Y-110244091D01*
X140577554Y-110313640D01*
X140542960Y-110354537D01*
X140490925Y-110394465D01*
X140399239Y-110513952D01*
X140341603Y-110653098D01*
X140321944Y-110802420D01*
X140341603Y-110951742D01*
X140399239Y-111090888D01*
X140490925Y-111210375D01*
X140498663Y-111216312D01*
X140499411Y-111217337D01*
X140503316Y-111221242D01*
X140502707Y-111221851D01*
X140540528Y-111273648D01*
X140544750Y-111344519D01*
X140538366Y-111364491D01*
X140503254Y-111449260D01*
X140458706Y-111504541D01*
X140398175Y-111523494D01*
X140398500Y-111525964D01*
X140249178Y-111545623D01*
X140110032Y-111603259D01*
X139990545Y-111694945D01*
X139898859Y-111814432D01*
X139841223Y-111953578D01*
X139821564Y-112102900D01*
X139841223Y-112252222D01*
X139844384Y-112259853D01*
X139860975Y-112299908D01*
X139868564Y-112370498D01*
X139836784Y-112433985D01*
X139775726Y-112470212D01*
X139704775Y-112467678D01*
X139696348Y-112464535D01*
X139656293Y-112447944D01*
X139656294Y-112447944D01*
X139648662Y-112444783D01*
X139499340Y-112425124D01*
X139350018Y-112444783D01*
X139210872Y-112502419D01*
X139091385Y-112594105D01*
X138999699Y-112713592D01*
X138942063Y-112852738D01*
X138922404Y-113002060D01*
X136068296Y-113002060D01*
X136055598Y-112064944D01*
X136074675Y-111996559D01*
X136127696Y-111949343D01*
X136197826Y-111938288D01*
X136258290Y-111963275D01*
X136310192Y-112003101D01*
X136449338Y-112060737D01*
X136598660Y-112080396D01*
X136747982Y-112060737D01*
X136887128Y-112003101D01*
X137006615Y-111911415D01*
X137098301Y-111791928D01*
X137132491Y-111709386D01*
X137177039Y-111654105D01*
X137244403Y-111631684D01*
X137313194Y-111649242D01*
X137361572Y-111701204D01*
X137365309Y-111709386D01*
X137399499Y-111791928D01*
X137491185Y-111911415D01*
X137610672Y-112003101D01*
X137749818Y-112060737D01*
X137899140Y-112080396D01*
X138048462Y-112060737D01*
X138187608Y-112003101D01*
X138307095Y-111911415D01*
X138398781Y-111791928D01*
X138456417Y-111652782D01*
X138476076Y-111503460D01*
X138456417Y-111354138D01*
X138398781Y-111214992D01*
X138307095Y-111095505D01*
X138187608Y-111003819D01*
X138048462Y-110946183D01*
X137899140Y-110926524D01*
X137749818Y-110946183D01*
X137610672Y-111003819D01*
X137491185Y-111095505D01*
X137399499Y-111214992D01*
X137396339Y-111222622D01*
X137365309Y-111297534D01*
X137320761Y-111352815D01*
X137253397Y-111375236D01*
X137184606Y-111357678D01*
X137136228Y-111305716D01*
X137132491Y-111297534D01*
X137101461Y-111222622D01*
X137098301Y-111214992D01*
X137006615Y-111095505D01*
X136887128Y-111003819D01*
X136747982Y-110946183D01*
X136598660Y-110926524D01*
X136449338Y-110946183D01*
X136310192Y-111003819D01*
X136303641Y-111008846D01*
X136303639Y-111008847D01*
X136243276Y-111055166D01*
X136177056Y-111080767D01*
X136107507Y-111066503D01*
X136056711Y-111016902D01*
X136040584Y-110956911D01*
X136029025Y-110103920D01*
X136923424Y-110103920D01*
X136943083Y-110253242D01*
X137000719Y-110392388D01*
X137092405Y-110511875D01*
X137211892Y-110603561D01*
X137351038Y-110661197D01*
X137500360Y-110680856D01*
X137649682Y-110661197D01*
X137788828Y-110603561D01*
X137908315Y-110511875D01*
X138000001Y-110392388D01*
X138057637Y-110253242D01*
X138077296Y-110103920D01*
X138057637Y-109954598D01*
X138000001Y-109815452D01*
X137908315Y-109695965D01*
X137788828Y-109604279D01*
X137649682Y-109546643D01*
X137500360Y-109526984D01*
X137351038Y-109546643D01*
X137211892Y-109604279D01*
X137092405Y-109695965D01*
X137000719Y-109815452D01*
X136943083Y-109954598D01*
X136923424Y-110103920D01*
X136029025Y-110103920D01*
X136028914Y-110095732D01*
X136024067Y-109738012D01*
X136043144Y-109669628D01*
X136073351Y-109636344D01*
X136100905Y-109615201D01*
X136107455Y-109610175D01*
X136199141Y-109490688D01*
X136256777Y-109351542D01*
X136276436Y-109202220D01*
X136256777Y-109052898D01*
X136199141Y-108913752D01*
X136107455Y-108794265D01*
X136058725Y-108756873D01*
X136016858Y-108699535D01*
X136009441Y-108658618D01*
X136004623Y-108303023D01*
X135999403Y-107917815D01*
X136001845Y-107915941D01*
X136008395Y-107910915D01*
X136100081Y-107791428D01*
X136157717Y-107652282D01*
X136177376Y-107502960D01*
X136157717Y-107353638D01*
X136127131Y-107279796D01*
X136116566Y-107254290D01*
X136108977Y-107183700D01*
X136140757Y-107120213D01*
X136201815Y-107083986D01*
X136272766Y-107086520D01*
X136314551Y-107110045D01*
X136343338Y-107134501D01*
X136349853Y-107137828D01*
X136349855Y-107137829D01*
X136395384Y-107161077D01*
X136500109Y-107214552D01*
X136507215Y-107216291D01*
X136507218Y-107216292D01*
X136588683Y-107236226D01*
X136671091Y-107256391D01*
X136676693Y-107256739D01*
X136676696Y-107256739D01*
X136680258Y-107256960D01*
X136680267Y-107256960D01*
X136682197Y-107257080D01*
X137207887Y-107257080D01*
X137211521Y-107256656D01*
X137211526Y-107256656D01*
X137331379Y-107242682D01*
X137338652Y-107241834D01*
X137413978Y-107214492D01*
X137497236Y-107184271D01*
X137504115Y-107181774D01*
X137634174Y-107096504D01*
X137645205Y-107089272D01*
X137645206Y-107089271D01*
X137651324Y-107085260D01*
X137772381Y-106957469D01*
X137860793Y-106805257D01*
X137871857Y-106768729D01*
X137909695Y-106643794D01*
X137911817Y-106636788D01*
X137922717Y-106461099D01*
X137920546Y-106448464D01*
X137894147Y-106294829D01*
X137894146Y-106294826D01*
X137892907Y-106287615D01*
X137874038Y-106243270D01*
X137826853Y-106132379D01*
X137826852Y-106132377D01*
X137823986Y-106125642D01*
X137719653Y-105983868D01*
X137585502Y-105869899D01*
X137578987Y-105866572D01*
X137578985Y-105866571D01*
X137446656Y-105799001D01*
X137428731Y-105789848D01*
X137421625Y-105788109D01*
X137421622Y-105788108D01*
X137327447Y-105765064D01*
X137257749Y-105748009D01*
X137252147Y-105747661D01*
X137252144Y-105747661D01*
X137248582Y-105747440D01*
X137248573Y-105747440D01*
X137246643Y-105747320D01*
X136720953Y-105747320D01*
X136717319Y-105747744D01*
X136717314Y-105747744D01*
X136613929Y-105759798D01*
X136590188Y-105762566D01*
X136583306Y-105765064D01*
X136505859Y-105793176D01*
X136424725Y-105822626D01*
X136345392Y-105874639D01*
X136288506Y-105911935D01*
X136277516Y-105919140D01*
X136156459Y-106046931D01*
X136124095Y-106102650D01*
X136082934Y-106173514D01*
X136068047Y-106199143D01*
X136065926Y-106206147D01*
X136065924Y-106206151D01*
X136040566Y-106289879D01*
X136017023Y-106367612D01*
X136006123Y-106543301D01*
X136007363Y-106550517D01*
X136007363Y-106550519D01*
X136034348Y-106707559D01*
X136035933Y-106716785D01*
X136038798Y-106723519D01*
X136038799Y-106723521D01*
X136100523Y-106868580D01*
X136108790Y-106939094D01*
X136077622Y-107002883D01*
X136016914Y-107039695D01*
X135945942Y-107037843D01*
X135907879Y-107017876D01*
X135907461Y-107017555D01*
X135888908Y-107003319D01*
X135749762Y-106945683D01*
X135600440Y-106926024D01*
X135451118Y-106945683D01*
X135422664Y-106957469D01*
X135400366Y-106966705D01*
X135329776Y-106974294D01*
X135266289Y-106942514D01*
X135230062Y-106881456D01*
X135232596Y-106810505D01*
X135235739Y-106802078D01*
X135252856Y-106760753D01*
X135256017Y-106753122D01*
X135275676Y-106603800D01*
X135256017Y-106454478D01*
X135198381Y-106315332D01*
X135106695Y-106195845D01*
X134987208Y-106104159D01*
X134848062Y-106046523D01*
X134698740Y-106026864D01*
X134549418Y-106046523D01*
X134410272Y-106104159D01*
X134290785Y-106195845D01*
X134199099Y-106315332D01*
X134141463Y-106454478D01*
X134121804Y-106603800D01*
X134141463Y-106753122D01*
X134144624Y-106760753D01*
X134146761Y-106768729D01*
X134143517Y-106769598D01*
X134149426Y-106824645D01*
X134117637Y-106888127D01*
X134056572Y-106924344D01*
X134016687Y-106926718D01*
X134016687Y-106927102D01*
X134010233Y-106927102D01*
X134008990Y-106927176D01*
X134008428Y-106927102D01*
X134000240Y-106926024D01*
X133850918Y-106945683D01*
X133711772Y-107003319D01*
X133705218Y-107008348D01*
X133698070Y-107012475D01*
X133697344Y-107011218D01*
X133639460Y-107033598D01*
X133569911Y-107019336D01*
X133519113Y-106969736D01*
X133503195Y-106900547D01*
X133512563Y-106859817D01*
X133553596Y-106760753D01*
X133556757Y-106753122D01*
X133576416Y-106603800D01*
X133556757Y-106454478D01*
X133499121Y-106315332D01*
X133407435Y-106195845D01*
X133287948Y-106104159D01*
X133148802Y-106046523D01*
X132999480Y-106026864D01*
X132850158Y-106046523D01*
X132711012Y-106104159D01*
X132591525Y-106195845D01*
X132499839Y-106315332D01*
X132442203Y-106454478D01*
X132422544Y-106603800D01*
X132423551Y-106611452D01*
X132403620Y-106679332D01*
X132349964Y-106725825D01*
X132281177Y-106736133D01*
X132275349Y-106735366D01*
X132210423Y-106706644D01*
X132171331Y-106647379D01*
X132166874Y-106626890D01*
X132165557Y-106616888D01*
X132157217Y-106553538D01*
X132099581Y-106414392D01*
X132007895Y-106294905D01*
X131888408Y-106203219D01*
X131749262Y-106145583D01*
X131599940Y-106125924D01*
X131450618Y-106145583D01*
X131311472Y-106203219D01*
X131191985Y-106294905D01*
X131100299Y-106414392D01*
X131042663Y-106553538D01*
X131034565Y-106615052D01*
X131034323Y-106616888D01*
X131005601Y-106681815D01*
X130946336Y-106720907D01*
X130909401Y-106726442D01*
X130907088Y-106726442D01*
X130898900Y-106725364D01*
X130749578Y-106745023D01*
X130610432Y-106802659D01*
X130490945Y-106894345D01*
X130399259Y-107013832D01*
X130341623Y-107152978D01*
X130321964Y-107302300D01*
X130341623Y-107451622D01*
X130399259Y-107590768D01*
X130484287Y-107701578D01*
X130509886Y-107767796D01*
X130495621Y-107837345D01*
X130446020Y-107888141D01*
X130384323Y-107904280D01*
X125950169Y-107904280D01*
X125882048Y-107884278D01*
X125860667Y-107866967D01*
X125771625Y-107777107D01*
X125737885Y-107714640D01*
X125743274Y-107643848D01*
X125786080Y-107587208D01*
X125852713Y-107562701D01*
X125877573Y-107563498D01*
X125999240Y-107579516D01*
X126148562Y-107559857D01*
X126287708Y-107502221D01*
X126407195Y-107410535D01*
X126498881Y-107291048D01*
X126556517Y-107151902D01*
X126576176Y-107002580D01*
X126556517Y-106853258D01*
X126498881Y-106714112D01*
X126407195Y-106594625D01*
X126287708Y-106502939D01*
X126148562Y-106445303D01*
X125999240Y-106425644D01*
X125849918Y-106445303D01*
X125710772Y-106502939D01*
X125704218Y-106507968D01*
X125701629Y-106509463D01*
X125632634Y-106526201D01*
X125565542Y-106502981D01*
X125521654Y-106447175D01*
X125512633Y-106399191D01*
X125513128Y-106345165D01*
X125514617Y-106182436D01*
X125515311Y-106106609D01*
X125535936Y-106038674D01*
X125590015Y-105992674D01*
X125660378Y-105983214D01*
X125704267Y-105998630D01*
X125710772Y-106003621D01*
X125849918Y-106061257D01*
X125999240Y-106080916D01*
X126148562Y-106061257D01*
X126287708Y-106003621D01*
X126407195Y-105911935D01*
X126498881Y-105792448D01*
X126556517Y-105653302D01*
X126576176Y-105503980D01*
X126556517Y-105354658D01*
X126498881Y-105215512D01*
X126407195Y-105096025D01*
X126287708Y-105004339D01*
X126148562Y-104946703D01*
X125999240Y-104927044D01*
X125849918Y-104946703D01*
X125710772Y-105004339D01*
X125710655Y-105004057D01*
X125646422Y-105019641D01*
X125579330Y-104996422D01*
X125535441Y-104940616D01*
X125526420Y-104892631D01*
X125528976Y-104613359D01*
X125549601Y-104545424D01*
X125603680Y-104499424D01*
X125674043Y-104489964D01*
X125710633Y-104502816D01*
X125710772Y-104502481D01*
X125849918Y-104560117D01*
X125999240Y-104579776D01*
X126148562Y-104560117D01*
X126287708Y-104502481D01*
X126407195Y-104410795D01*
X126498881Y-104291308D01*
X126556517Y-104152162D01*
X126576176Y-104002840D01*
X126556517Y-103853518D01*
X126498881Y-103714372D01*
X126407195Y-103594885D01*
X126287708Y-103503199D01*
X126148562Y-103445563D01*
X125999240Y-103425904D01*
X125849918Y-103445563D01*
X125842286Y-103448724D01*
X125842287Y-103448724D01*
X125714437Y-103501681D01*
X125643847Y-103509270D01*
X125580360Y-103477491D01*
X125544133Y-103416433D01*
X125540225Y-103384125D01*
X125597031Y-97176606D01*
X125617656Y-97108671D01*
X125671735Y-97062671D01*
X125742098Y-97053211D01*
X125806406Y-97083294D01*
X125812121Y-97088664D01*
X126861922Y-98138466D01*
X126861926Y-98138469D01*
X126884849Y-98161392D01*
X126904907Y-98171612D01*
X126921759Y-98181940D01*
X126939968Y-98195169D01*
X126961368Y-98202122D01*
X126979633Y-98209687D01*
X126999694Y-98219909D01*
X127009485Y-98221460D01*
X127009489Y-98221461D01*
X127021937Y-98223433D01*
X127041157Y-98228047D01*
X127062553Y-98234999D01*
X127094972Y-98234999D01*
X127094976Y-98235000D01*
X127294648Y-98235000D01*
X127362769Y-98255002D01*
X127380901Y-98269150D01*
X127479618Y-98361851D01*
X127484563Y-98364570D01*
X127527296Y-98419986D01*
X127533373Y-98490722D01*
X127500242Y-98553514D01*
X127483943Y-98567637D01*
X127479800Y-98570647D01*
X127415779Y-98617161D01*
X127310363Y-98744587D01*
X127239949Y-98894225D01*
X127238464Y-98902008D01*
X127238463Y-98902012D01*
X127210445Y-99048888D01*
X127208960Y-99056674D01*
X127219344Y-99221725D01*
X127270449Y-99379009D01*
X127274692Y-99385696D01*
X127274694Y-99385699D01*
X127308005Y-99438188D01*
X127359062Y-99518642D01*
X127479618Y-99631851D01*
X127484563Y-99634570D01*
X127527296Y-99689986D01*
X127533373Y-99760722D01*
X127500242Y-99823514D01*
X127483943Y-99837637D01*
X127466228Y-99850508D01*
X127415779Y-99887161D01*
X127310363Y-100014587D01*
X127239949Y-100164225D01*
X127238464Y-100172008D01*
X127238463Y-100172012D01*
X127213196Y-100304466D01*
X127208960Y-100326674D01*
X127219344Y-100491725D01*
X127221793Y-100499261D01*
X127221793Y-100499263D01*
X127224392Y-100507262D01*
X127270449Y-100649009D01*
X127274692Y-100655696D01*
X127274694Y-100655699D01*
X127311972Y-100714439D01*
X127359062Y-100788642D01*
X127479618Y-100901851D01*
X127484563Y-100904570D01*
X127527296Y-100959986D01*
X127533373Y-101030722D01*
X127500242Y-101093514D01*
X127483943Y-101107637D01*
X127415779Y-101157161D01*
X127310363Y-101284587D01*
X127239949Y-101434225D01*
X127238464Y-101442008D01*
X127238463Y-101442012D01*
X127220637Y-101535461D01*
X127208960Y-101596674D01*
X127213031Y-101661373D01*
X127213636Y-101670993D01*
X127197951Y-101740235D01*
X127147321Y-101790006D01*
X127077820Y-101804502D01*
X127037735Y-101792025D01*
X127037008Y-101793779D01*
X127027899Y-101790006D01*
X126897862Y-101736143D01*
X126748540Y-101716484D01*
X126599218Y-101736143D01*
X126460072Y-101793779D01*
X126340585Y-101885465D01*
X126248899Y-102004952D01*
X126191263Y-102144098D01*
X126171604Y-102293420D01*
X126191263Y-102442742D01*
X126248899Y-102581888D01*
X126340585Y-102701375D01*
X126460072Y-102793061D01*
X126599218Y-102850697D01*
X126748540Y-102870356D01*
X126897862Y-102850697D01*
X127037008Y-102793061D01*
X127038389Y-102796395D01*
X127091242Y-102783507D01*
X127158361Y-102806647D01*
X127202315Y-102862402D01*
X127211148Y-102901459D01*
X127214662Y-102957312D01*
X127219344Y-103031725D01*
X127270449Y-103189009D01*
X127274692Y-103195696D01*
X127274694Y-103195699D01*
X127311972Y-103254439D01*
X127359062Y-103328642D01*
X127479618Y-103441851D01*
X127484563Y-103444570D01*
X127527296Y-103499986D01*
X127533373Y-103570722D01*
X127500242Y-103633514D01*
X127483943Y-103647637D01*
X127415779Y-103697161D01*
X127310363Y-103824587D01*
X127239949Y-103974225D01*
X127238464Y-103982008D01*
X127238463Y-103982012D01*
X127236052Y-103994652D01*
X127208960Y-104136674D01*
X127210415Y-104159793D01*
X127218689Y-104291308D01*
X127219344Y-104301725D01*
X127221793Y-104309261D01*
X127221793Y-104309263D01*
X127225264Y-104319944D01*
X127270449Y-104459009D01*
X127274692Y-104465696D01*
X127274694Y-104465699D01*
X127335298Y-104561195D01*
X127359062Y-104598642D01*
X127479618Y-104711851D01*
X127484563Y-104714570D01*
X127527296Y-104769986D01*
X127533373Y-104840722D01*
X127500242Y-104903514D01*
X127483943Y-104917637D01*
X127415779Y-104967161D01*
X127310363Y-105094587D01*
X127239949Y-105244225D01*
X127238464Y-105252008D01*
X127238463Y-105252012D01*
X127216209Y-105368672D01*
X127208960Y-105406674D01*
X127219344Y-105571725D01*
X127221793Y-105579261D01*
X127221793Y-105579263D01*
X127227531Y-105596921D01*
X127270449Y-105729009D01*
X127274692Y-105735696D01*
X127274694Y-105735699D01*
X127293330Y-105765064D01*
X127359062Y-105868642D01*
X127479618Y-105981851D01*
X127484563Y-105984570D01*
X127527296Y-106039986D01*
X127533373Y-106110722D01*
X127500242Y-106173514D01*
X127483943Y-106187637D01*
X127472646Y-106195845D01*
X127415779Y-106237161D01*
X127310363Y-106364587D01*
X127239949Y-106514225D01*
X127238464Y-106522008D01*
X127238463Y-106522012D01*
X127215232Y-106643794D01*
X127208960Y-106676674D01*
X127213459Y-106748184D01*
X127217203Y-106807688D01*
X127219344Y-106841725D01*
X127221793Y-106849261D01*
X127221793Y-106849263D01*
X127242083Y-106911708D01*
X127270449Y-106999009D01*
X127274692Y-107005696D01*
X127274694Y-107005699D01*
X127325185Y-107085260D01*
X127359062Y-107138642D01*
X127479618Y-107251851D01*
X127486561Y-107255668D01*
X127497306Y-107261575D01*
X127624539Y-107331522D01*
X127784721Y-107372650D01*
X128307369Y-107372650D01*
X128354866Y-107366650D01*
X128422399Y-107358119D01*
X128422402Y-107358118D01*
X128430264Y-107357125D01*
X128437630Y-107354208D01*
X128437632Y-107354208D01*
X128576659Y-107299163D01*
X128576661Y-107299162D01*
X128584028Y-107296245D01*
X128606669Y-107279796D01*
X128711407Y-107203699D01*
X128717821Y-107199039D01*
X128823237Y-107071613D01*
X128893651Y-106921975D01*
X128895136Y-106914192D01*
X128895137Y-106914188D01*
X128923155Y-106767312D01*
X128923155Y-106767310D01*
X128924640Y-106759526D01*
X128919595Y-106679332D01*
X128914754Y-106602385D01*
X128914753Y-106602382D01*
X128914256Y-106594475D01*
X128897629Y-106543301D01*
X128865600Y-106444729D01*
X128863151Y-106437191D01*
X128858908Y-106430504D01*
X128858906Y-106430501D01*
X128778786Y-106304252D01*
X128774538Y-106297558D01*
X128653982Y-106184349D01*
X128649037Y-106181630D01*
X128606304Y-106126214D01*
X128600227Y-106055478D01*
X128633358Y-105992686D01*
X128649657Y-105978563D01*
X128711408Y-105933698D01*
X128717821Y-105929039D01*
X128719675Y-105926798D01*
X128781034Y-105895756D01*
X128851656Y-105903045D01*
X128890186Y-105927807D01*
X128937076Y-105971839D01*
X128947738Y-105981851D01*
X129092659Y-106061522D01*
X129252841Y-106102650D01*
X129775489Y-106102650D01*
X129822986Y-106096650D01*
X129890519Y-106088119D01*
X129890522Y-106088118D01*
X129898384Y-106087125D01*
X129905750Y-106084208D01*
X129905752Y-106084208D01*
X130044779Y-106029163D01*
X130044781Y-106029162D01*
X130052148Y-106026245D01*
X130083288Y-106003621D01*
X130179527Y-105933699D01*
X130179528Y-105933698D01*
X130185941Y-105929039D01*
X130291357Y-105801613D01*
X130361771Y-105651975D01*
X130363256Y-105644192D01*
X130363257Y-105644188D01*
X130391275Y-105497312D01*
X130391275Y-105497310D01*
X130392760Y-105489526D01*
X130388045Y-105414585D01*
X130382874Y-105332385D01*
X130382873Y-105332382D01*
X130382376Y-105324475D01*
X130336713Y-105183940D01*
X130753764Y-105183940D01*
X130773423Y-105333262D01*
X130831059Y-105472408D01*
X130922745Y-105591895D01*
X131042232Y-105683581D01*
X131181378Y-105741217D01*
X131330700Y-105760876D01*
X131480022Y-105741217D01*
X131619168Y-105683581D01*
X131738655Y-105591895D01*
X131830341Y-105472408D01*
X131887977Y-105333262D01*
X131907636Y-105183940D01*
X131887977Y-105034618D01*
X131830341Y-104895472D01*
X131813911Y-104874060D01*
X137063124Y-104874060D01*
X137082783Y-105023382D01*
X137140419Y-105162528D01*
X137232105Y-105282015D01*
X137351592Y-105373701D01*
X137490738Y-105431337D01*
X137640060Y-105450996D01*
X137789382Y-105431337D01*
X137928528Y-105373701D01*
X138048015Y-105282015D01*
X138139701Y-105162528D01*
X138197337Y-105023382D01*
X138216996Y-104874060D01*
X138197337Y-104724738D01*
X138139701Y-104585592D01*
X138048015Y-104466105D01*
X137928528Y-104374419D01*
X137789382Y-104316783D01*
X137640060Y-104297124D01*
X137490738Y-104316783D01*
X137351592Y-104374419D01*
X137232105Y-104466105D01*
X137140419Y-104585592D01*
X137082783Y-104724738D01*
X137063124Y-104874060D01*
X131813911Y-104874060D01*
X131738655Y-104775985D01*
X131619168Y-104684299D01*
X131480022Y-104626663D01*
X131330700Y-104607004D01*
X131181378Y-104626663D01*
X131042232Y-104684299D01*
X130922745Y-104775985D01*
X130831059Y-104895472D01*
X130773423Y-105034618D01*
X130753764Y-105183940D01*
X130336713Y-105183940D01*
X130331271Y-105167191D01*
X130327028Y-105160504D01*
X130327026Y-105160501D01*
X130246906Y-105034252D01*
X130242658Y-105027558D01*
X130122102Y-104914349D01*
X130117157Y-104911630D01*
X130074424Y-104856214D01*
X130068347Y-104785478D01*
X130101478Y-104722686D01*
X130117777Y-104708563D01*
X130179527Y-104663699D01*
X130179528Y-104663698D01*
X130185941Y-104659039D01*
X130291357Y-104531613D01*
X130303579Y-104505641D01*
X130319100Y-104472655D01*
X130361771Y-104381975D01*
X130363256Y-104374192D01*
X130363257Y-104374188D01*
X130391275Y-104227312D01*
X130391275Y-104227310D01*
X130392760Y-104219526D01*
X130388007Y-104143973D01*
X130382874Y-104062385D01*
X130382873Y-104062382D01*
X130382376Y-104054475D01*
X130331271Y-103897191D01*
X130327028Y-103890504D01*
X130327026Y-103890501D01*
X130246906Y-103764252D01*
X130242658Y-103757558D01*
X130122102Y-103644349D01*
X130117157Y-103641630D01*
X130074424Y-103586214D01*
X130068347Y-103515478D01*
X130101478Y-103452686D01*
X130117777Y-103438563D01*
X130179527Y-103393699D01*
X130179528Y-103393698D01*
X130185941Y-103389039D01*
X130291357Y-103261613D01*
X130361771Y-103111975D01*
X130363256Y-103104192D01*
X130363257Y-103104188D01*
X130391275Y-102957312D01*
X130391275Y-102957310D01*
X130392760Y-102949526D01*
X130387711Y-102869278D01*
X130382874Y-102792385D01*
X130382873Y-102792382D01*
X130382376Y-102784475D01*
X130331271Y-102627191D01*
X130327028Y-102620504D01*
X130327026Y-102620501D01*
X130246906Y-102494252D01*
X130242658Y-102487558D01*
X130122102Y-102374349D01*
X130117157Y-102371630D01*
X130074424Y-102316214D01*
X130068347Y-102245478D01*
X130101478Y-102182686D01*
X130117777Y-102168563D01*
X130176173Y-102126136D01*
X130185941Y-102119039D01*
X130291357Y-101991613D01*
X130361771Y-101841975D01*
X130363256Y-101834192D01*
X130363257Y-101834188D01*
X130391275Y-101687312D01*
X130391275Y-101687310D01*
X130392760Y-101679526D01*
X130387911Y-101602455D01*
X130384561Y-101549200D01*
X133585864Y-101549200D01*
X133605523Y-101698522D01*
X133663159Y-101837668D01*
X133754845Y-101957155D01*
X133874332Y-102048841D01*
X134013478Y-102106477D01*
X134162800Y-102126136D01*
X134312122Y-102106477D01*
X134451268Y-102048841D01*
X134570755Y-101957155D01*
X134662441Y-101837668D01*
X134720077Y-101698522D01*
X134739736Y-101549200D01*
X134720077Y-101399878D01*
X134662441Y-101260732D01*
X134570755Y-101141245D01*
X134451268Y-101049559D01*
X134312122Y-100991923D01*
X134162800Y-100972264D01*
X134013478Y-100991923D01*
X133874332Y-101049559D01*
X133754845Y-101141245D01*
X133663159Y-101260732D01*
X133605523Y-101399878D01*
X133585864Y-101549200D01*
X130384561Y-101549200D01*
X130382874Y-101522385D01*
X130382873Y-101522382D01*
X130382376Y-101514475D01*
X130331271Y-101357191D01*
X130327028Y-101350504D01*
X130327026Y-101350501D01*
X130246906Y-101224252D01*
X130242658Y-101217558D01*
X130122102Y-101104349D01*
X130117157Y-101101630D01*
X130074424Y-101046214D01*
X130068347Y-100975478D01*
X130101478Y-100912686D01*
X130117777Y-100898563D01*
X130179527Y-100853699D01*
X130179528Y-100853698D01*
X130185941Y-100849039D01*
X130291357Y-100721613D01*
X130297058Y-100709499D01*
X130319100Y-100662655D01*
X130361771Y-100571975D01*
X130363256Y-100564192D01*
X130363257Y-100564188D01*
X130391275Y-100417312D01*
X130391275Y-100417310D01*
X130392760Y-100409526D01*
X130388045Y-100334585D01*
X130382874Y-100252385D01*
X130382873Y-100252382D01*
X130382376Y-100244475D01*
X130331271Y-100087191D01*
X130327028Y-100080504D01*
X130327026Y-100080501D01*
X130246906Y-99954252D01*
X130242658Y-99947558D01*
X130122102Y-99834349D01*
X130117157Y-99831630D01*
X130074424Y-99776214D01*
X130068347Y-99705478D01*
X130101478Y-99642686D01*
X130117777Y-99628563D01*
X130179527Y-99583699D01*
X130179528Y-99583698D01*
X130185941Y-99579039D01*
X130291357Y-99451613D01*
X130361771Y-99301975D01*
X130363256Y-99294192D01*
X130363257Y-99294188D01*
X130388422Y-99162266D01*
X130420834Y-99099100D01*
X130482251Y-99063485D01*
X130553174Y-99066728D01*
X130588891Y-99085912D01*
X130610432Y-99102441D01*
X130749578Y-99160077D01*
X130898900Y-99179736D01*
X131048222Y-99160077D01*
X131187368Y-99102441D01*
X131306855Y-99010755D01*
X131398541Y-98891268D01*
X131456177Y-98752122D01*
X131470486Y-98643440D01*
X136661804Y-98643440D01*
X136681463Y-98792762D01*
X136739099Y-98931908D01*
X136830785Y-99051395D01*
X136950272Y-99143081D01*
X137089418Y-99200717D01*
X137238740Y-99220376D01*
X137388062Y-99200717D01*
X137527208Y-99143081D01*
X137646695Y-99051395D01*
X137738381Y-98931908D01*
X137796017Y-98792762D01*
X137812099Y-98670609D01*
X137840822Y-98605682D01*
X137888802Y-98570648D01*
X138027588Y-98513161D01*
X138080789Y-98472338D01*
X138147007Y-98446739D01*
X138216556Y-98461004D01*
X138234188Y-98472335D01*
X138260912Y-98492841D01*
X138400058Y-98550477D01*
X138549380Y-98570136D01*
X138698702Y-98550477D01*
X138837848Y-98492841D01*
X138957335Y-98401155D01*
X139049021Y-98281668D01*
X139106657Y-98142522D01*
X139126316Y-97993200D01*
X139106657Y-97843878D01*
X139049021Y-97704732D01*
X138957335Y-97585245D01*
X138837848Y-97493559D01*
X138698702Y-97435923D01*
X138549380Y-97416264D01*
X138400058Y-97435923D01*
X138260912Y-97493559D01*
X138207711Y-97534382D01*
X138141493Y-97559981D01*
X138071944Y-97545716D01*
X138054312Y-97534385D01*
X138027588Y-97513879D01*
X137888442Y-97456243D01*
X137739120Y-97436584D01*
X137589798Y-97456243D01*
X137450652Y-97513879D01*
X137331165Y-97605565D01*
X137239479Y-97725052D01*
X137181843Y-97864198D01*
X137165937Y-97985012D01*
X137165761Y-97986351D01*
X137137038Y-98051278D01*
X137089058Y-98086312D01*
X136950272Y-98143799D01*
X136830785Y-98235485D01*
X136739099Y-98354972D01*
X136681463Y-98494118D01*
X136661804Y-98643440D01*
X131470486Y-98643440D01*
X131475836Y-98602800D01*
X131456177Y-98453478D01*
X131398541Y-98314332D01*
X131306855Y-98194845D01*
X131187368Y-98103159D01*
X131048222Y-98045523D01*
X130898900Y-98025864D01*
X130749578Y-98045523D01*
X130610432Y-98103159D01*
X130490945Y-98194845D01*
X130399259Y-98314332D01*
X130341623Y-98453478D01*
X130340545Y-98461667D01*
X130340545Y-98461668D01*
X130336549Y-98492018D01*
X130307827Y-98556945D01*
X130248561Y-98596037D01*
X130177570Y-98596882D01*
X130135313Y-98573030D01*
X130134293Y-98574434D01*
X130127879Y-98569774D01*
X130122102Y-98564349D01*
X129977181Y-98484678D01*
X129816999Y-98443550D01*
X129294351Y-98443550D01*
X129246854Y-98449550D01*
X129179321Y-98458081D01*
X129179318Y-98458082D01*
X129171456Y-98459075D01*
X129164090Y-98461992D01*
X129164088Y-98461992D01*
X129025061Y-98517037D01*
X129025059Y-98517038D01*
X129017692Y-98519955D01*
X129011281Y-98524613D01*
X129011279Y-98524614D01*
X128976300Y-98550028D01*
X128883899Y-98617161D01*
X128882045Y-98619402D01*
X128820686Y-98650444D01*
X128750064Y-98643155D01*
X128711534Y-98618393D01*
X128660848Y-98570797D01*
X128653982Y-98564349D01*
X128649037Y-98561630D01*
X128606304Y-98506214D01*
X128600227Y-98435478D01*
X128633358Y-98372686D01*
X128649657Y-98358563D01*
X128711407Y-98313699D01*
X128717821Y-98309039D01*
X128823237Y-98181613D01*
X128827946Y-98171607D01*
X128861641Y-98099999D01*
X128893651Y-98031975D01*
X128895136Y-98024192D01*
X128895137Y-98024188D01*
X128916553Y-97911920D01*
X134131964Y-97911920D01*
X134151623Y-98061242D01*
X134209259Y-98200388D01*
X134300945Y-98319875D01*
X134420432Y-98411561D01*
X134559578Y-98469197D01*
X134708900Y-98488856D01*
X134858222Y-98469197D01*
X134997368Y-98411561D01*
X135116855Y-98319875D01*
X135208541Y-98200388D01*
X135266177Y-98061242D01*
X135285836Y-97911920D01*
X135266177Y-97762598D01*
X135208541Y-97623452D01*
X135116855Y-97503965D01*
X134997368Y-97412279D01*
X134858222Y-97354643D01*
X134708900Y-97334984D01*
X134559578Y-97354643D01*
X134420432Y-97412279D01*
X134300945Y-97503965D01*
X134209259Y-97623452D01*
X134151623Y-97762598D01*
X134131964Y-97911920D01*
X128916553Y-97911920D01*
X128923155Y-97877312D01*
X128923155Y-97877310D01*
X128924640Y-97869526D01*
X128915231Y-97719972D01*
X128914754Y-97712385D01*
X128914753Y-97712382D01*
X128914256Y-97704475D01*
X128908889Y-97687955D01*
X128877644Y-97591795D01*
X128863151Y-97547191D01*
X128858908Y-97540504D01*
X128858906Y-97540501D01*
X128778786Y-97414252D01*
X128774538Y-97407558D01*
X128653982Y-97294349D01*
X128649037Y-97291630D01*
X128606304Y-97236214D01*
X128600227Y-97165478D01*
X128633358Y-97102686D01*
X128649657Y-97088563D01*
X128711408Y-97043698D01*
X128717821Y-97039039D01*
X128719675Y-97036798D01*
X128781034Y-97005756D01*
X128851656Y-97013045D01*
X128890186Y-97037807D01*
X128925821Y-97071270D01*
X128947738Y-97091851D01*
X129092659Y-97171522D01*
X129252841Y-97212650D01*
X129775489Y-97212650D01*
X129822986Y-97206650D01*
X129890519Y-97198119D01*
X129890522Y-97198118D01*
X129898384Y-97197125D01*
X129905750Y-97194208D01*
X129905752Y-97194208D01*
X130044779Y-97139163D01*
X130044781Y-97139162D01*
X130052148Y-97136245D01*
X130090101Y-97108671D01*
X130179527Y-97043699D01*
X130179528Y-97043698D01*
X130185941Y-97039039D01*
X130291357Y-96911613D01*
X130296266Y-96901182D01*
X130314897Y-96861588D01*
X130361771Y-96761975D01*
X130363256Y-96754192D01*
X130363257Y-96754188D01*
X130391275Y-96607312D01*
X130391275Y-96607310D01*
X130392760Y-96599526D01*
X130390829Y-96568826D01*
X130389429Y-96546573D01*
X130405114Y-96477330D01*
X130455745Y-96427561D01*
X130531626Y-96413740D01*
X130580831Y-96420218D01*
X130580832Y-96420218D01*
X130589020Y-96421296D01*
X130738342Y-96401637D01*
X130877488Y-96344001D01*
X130937232Y-96298158D01*
X130990422Y-96257344D01*
X130990425Y-96257341D01*
X130996975Y-96252315D01*
X131002001Y-96245765D01*
X131007843Y-96239923D01*
X131010287Y-96242367D01*
X131054710Y-96209929D01*
X131097336Y-96202500D01*
X131327521Y-96202500D01*
X131395642Y-96222502D01*
G37*
%TD.AperFunction*%
%TD*%
%TA.AperFunction,Conductor*%
%TO.N,VCCA*%
G36*
X130748828Y-94330702D02*
G01*
X130769802Y-94347605D01*
X131909222Y-95487025D01*
X131943248Y-95549337D01*
X131938183Y-95620152D01*
X131895636Y-95676988D01*
X131829116Y-95701799D01*
X131820127Y-95702120D01*
X131233421Y-95702120D01*
X131165300Y-95682118D01*
X131117012Y-95624338D01*
X131112407Y-95613220D01*
X131088661Y-95555892D01*
X130996975Y-95436405D01*
X130877488Y-95344719D01*
X130738342Y-95287083D01*
X130589020Y-95267424D01*
X130580832Y-95268502D01*
X130580831Y-95268502D01*
X130523535Y-95276045D01*
X130453386Y-95265106D01*
X130400288Y-95217977D01*
X130383320Y-95174731D01*
X130382874Y-95172394D01*
X130382376Y-95164475D01*
X130372086Y-95132804D01*
X130350273Y-95065672D01*
X130331271Y-95007191D01*
X130327028Y-95000504D01*
X130327026Y-95000501D01*
X130246906Y-94874252D01*
X130242658Y-94867558D01*
X130122102Y-94754349D01*
X129977181Y-94674678D01*
X129816999Y-94633550D01*
X129294351Y-94633550D01*
X129246854Y-94639550D01*
X129179321Y-94648081D01*
X129179318Y-94648082D01*
X129171456Y-94649075D01*
X129164090Y-94651992D01*
X129164088Y-94651992D01*
X129025061Y-94707037D01*
X129025059Y-94707038D01*
X129017692Y-94709955D01*
X129011281Y-94714613D01*
X129011279Y-94714614D01*
X128931088Y-94772876D01*
X128883899Y-94807161D01*
X128778483Y-94934587D01*
X128708069Y-95084225D01*
X128706584Y-95092008D01*
X128706583Y-95092012D01*
X128684979Y-95205265D01*
X128677080Y-95246674D01*
X128679622Y-95287083D01*
X128683050Y-95341559D01*
X128687464Y-95411725D01*
X128689913Y-95419261D01*
X128689913Y-95419263D01*
X128728228Y-95537184D01*
X128730255Y-95608152D01*
X128693593Y-95668949D01*
X128629881Y-95700275D01*
X128608395Y-95702120D01*
X126633740Y-95702120D01*
X126565619Y-95682118D01*
X126519126Y-95628462D01*
X126507740Y-95576120D01*
X126507740Y-95023694D01*
X126527742Y-94955573D01*
X126544645Y-94934598D01*
X127131640Y-94347604D01*
X127193952Y-94313579D01*
X127220735Y-94310700D01*
X130680707Y-94310700D01*
X130748828Y-94330702D01*
G37*
%TD.AperFunction*%
%TA.AperFunction,Conductor*%
G36*
X155248724Y-84276610D02*
G01*
X155307508Y-84309861D01*
X156493405Y-85497433D01*
X156526137Y-85554547D01*
X156683327Y-86154822D01*
X156682789Y-86220648D01*
X156584235Y-86573360D01*
X155067587Y-92001255D01*
X155058864Y-92032474D01*
X155021268Y-92092699D01*
X154957080Y-92123037D01*
X154886679Y-92113857D01*
X154832418Y-92068073D01*
X154817121Y-92034099D01*
X154816557Y-92029818D01*
X154758921Y-91890672D01*
X154667235Y-91771185D01*
X154547748Y-91679499D01*
X154408602Y-91621863D01*
X154259280Y-91602204D01*
X154109958Y-91621863D01*
X153970812Y-91679499D01*
X153851325Y-91771185D01*
X153759639Y-91890672D01*
X153702003Y-92029818D01*
X153682344Y-92179140D01*
X153702003Y-92328462D01*
X153705164Y-92336093D01*
X153743689Y-92429102D01*
X153751278Y-92499692D01*
X153719498Y-92563179D01*
X153658440Y-92599406D01*
X153627280Y-92603320D01*
X146585262Y-92603320D01*
X146517141Y-92583318D01*
X146508566Y-92577289D01*
X146437528Y-92522779D01*
X146298382Y-92465143D01*
X146149060Y-92445484D01*
X145999738Y-92465143D01*
X145860592Y-92522779D01*
X145789561Y-92577284D01*
X145723341Y-92602883D01*
X145712858Y-92603320D01*
X145612447Y-92603320D01*
X145564229Y-92593729D01*
X145548213Y-92587095D01*
X145450022Y-92546423D01*
X145300700Y-92526764D01*
X145151378Y-92546423D01*
X145053187Y-92587095D01*
X145037171Y-92593729D01*
X144988953Y-92603320D01*
X142199360Y-92603320D01*
X142199360Y-93292333D01*
X142189769Y-93340551D01*
X142142463Y-93454758D01*
X142122804Y-93604080D01*
X142142463Y-93753402D01*
X142177704Y-93838482D01*
X142189769Y-93867609D01*
X142199360Y-93915827D01*
X142199360Y-95251150D01*
X142179358Y-95319271D01*
X142162455Y-95340245D01*
X142081825Y-95420875D01*
X142019513Y-95454901D01*
X141992730Y-95457780D01*
X137434615Y-95457780D01*
X137366494Y-95437778D01*
X137345520Y-95420875D01*
X136746258Y-94821613D01*
X136726169Y-94784823D01*
X136710139Y-94779061D01*
X136708470Y-94777677D01*
X136706064Y-94774625D01*
X136658409Y-94741689D01*
X136655196Y-94739393D01*
X136616160Y-94710560D01*
X136608581Y-94704962D01*
X136601850Y-94702598D01*
X136595984Y-94698544D01*
X136540766Y-94681081D01*
X136537025Y-94679833D01*
X136491214Y-94663745D01*
X136491209Y-94663744D01*
X136482327Y-94660625D01*
X136475198Y-94660345D01*
X136468400Y-94658195D01*
X136461857Y-94657680D01*
X136409841Y-94657680D01*
X136404895Y-94657583D01*
X136404633Y-94657573D01*
X136348616Y-94655372D01*
X136341581Y-94657237D01*
X136333535Y-94657680D01*
X135721777Y-94657680D01*
X135653656Y-94637678D01*
X135607163Y-94584022D01*
X135597059Y-94513748D01*
X135605368Y-94483463D01*
X135623695Y-94439216D01*
X135623695Y-94439215D01*
X135626857Y-94431582D01*
X135646516Y-94282260D01*
X135626857Y-94132938D01*
X135569221Y-93993792D01*
X135477535Y-93874305D01*
X135358048Y-93782619D01*
X135218902Y-93724983D01*
X135070453Y-93705439D01*
X135005525Y-93676716D01*
X134989447Y-93652340D01*
X136153804Y-93652340D01*
X136173463Y-93801662D01*
X136231099Y-93940808D01*
X136322785Y-94060295D01*
X136442272Y-94151981D01*
X136581418Y-94209617D01*
X136600020Y-94212066D01*
X136641102Y-94217475D01*
X136706028Y-94246198D01*
X136745119Y-94305464D01*
X136749576Y-94325950D01*
X136755123Y-94368082D01*
X136812759Y-94507228D01*
X136884404Y-94600597D01*
X136892368Y-94621197D01*
X136895738Y-94621930D01*
X136912057Y-94632556D01*
X136914000Y-94634047D01*
X137023932Y-94718401D01*
X137163078Y-94776037D01*
X137312400Y-94795696D01*
X137461722Y-94776037D01*
X137600868Y-94718401D01*
X137720355Y-94626715D01*
X137812041Y-94507228D01*
X137869677Y-94368082D01*
X137882314Y-94272100D01*
X140062864Y-94272100D01*
X140082523Y-94421422D01*
X140140159Y-94560568D01*
X140231845Y-94680055D01*
X140351332Y-94771741D01*
X140490478Y-94829377D01*
X140639800Y-94849036D01*
X140789122Y-94829377D01*
X140928268Y-94771741D01*
X141047755Y-94680055D01*
X141139441Y-94560568D01*
X141197077Y-94421422D01*
X141216736Y-94272100D01*
X141197077Y-94122778D01*
X141139441Y-93983632D01*
X141047755Y-93864145D01*
X140928268Y-93772459D01*
X140789122Y-93714823D01*
X140639800Y-93695164D01*
X140490478Y-93714823D01*
X140351332Y-93772459D01*
X140231845Y-93864145D01*
X140140159Y-93983632D01*
X140082523Y-94122778D01*
X140062864Y-94272100D01*
X137882314Y-94272100D01*
X137889336Y-94218760D01*
X137877077Y-94125643D01*
X137870755Y-94077625D01*
X137870755Y-94077624D01*
X137869677Y-94069438D01*
X137866517Y-94061808D01*
X137865531Y-94058130D01*
X137867219Y-93987153D01*
X137907013Y-93928357D01*
X137972277Y-93900408D01*
X138003683Y-93900595D01*
X138061131Y-93908158D01*
X138061132Y-93908158D01*
X138069320Y-93909236D01*
X138218642Y-93889577D01*
X138357788Y-93831941D01*
X138477275Y-93740255D01*
X138568961Y-93620768D01*
X138626597Y-93481622D01*
X138646256Y-93332300D01*
X138626597Y-93182978D01*
X138568961Y-93043832D01*
X138477275Y-92924345D01*
X138357788Y-92832659D01*
X138218642Y-92775023D01*
X138195343Y-92771956D01*
X138141155Y-92764821D01*
X138076228Y-92736098D01*
X138037137Y-92676832D01*
X138036292Y-92605841D01*
X138041193Y-92591681D01*
X138046329Y-92579283D01*
X138057637Y-92551982D01*
X138077296Y-92402660D01*
X138057637Y-92253338D01*
X138000001Y-92114192D01*
X137908315Y-91994705D01*
X137788828Y-91903019D01*
X137649682Y-91845383D01*
X137500360Y-91825724D01*
X137351038Y-91845383D01*
X137211892Y-91903019D01*
X137092405Y-91994705D01*
X137000719Y-92114192D01*
X136943083Y-92253338D01*
X136923424Y-92402660D01*
X136943083Y-92551982D01*
X137000719Y-92691128D01*
X137092405Y-92810615D01*
X137211892Y-92902301D01*
X137351038Y-92959937D01*
X137374337Y-92963004D01*
X137428525Y-92970139D01*
X137493452Y-92998862D01*
X137532543Y-93058128D01*
X137533388Y-93129119D01*
X137528488Y-93143276D01*
X137512043Y-93182978D01*
X137492384Y-93332300D01*
X137493462Y-93340488D01*
X137493462Y-93340489D01*
X137495629Y-93356949D01*
X137484690Y-93427097D01*
X137437562Y-93480196D01*
X137369208Y-93499386D01*
X137301330Y-93478575D01*
X137254298Y-93421613D01*
X137233541Y-93371502D01*
X137230381Y-93363872D01*
X137138695Y-93244385D01*
X137019208Y-93152699D01*
X136880062Y-93095063D01*
X136730740Y-93075404D01*
X136581418Y-93095063D01*
X136442272Y-93152699D01*
X136322785Y-93244385D01*
X136231099Y-93363872D01*
X136173463Y-93503018D01*
X136153804Y-93652340D01*
X134989447Y-93652340D01*
X134966434Y-93617451D01*
X134961977Y-93596963D01*
X134961513Y-93593434D01*
X134956297Y-93553818D01*
X134898661Y-93414672D01*
X134806975Y-93295185D01*
X134687488Y-93203499D01*
X134548342Y-93145863D01*
X134399020Y-93126204D01*
X134249698Y-93145863D01*
X134110552Y-93203499D01*
X133991065Y-93295185D01*
X133899379Y-93414672D01*
X133841743Y-93553818D01*
X133822084Y-93703140D01*
X133823162Y-93711328D01*
X133823162Y-93711329D01*
X133832488Y-93782167D01*
X133821549Y-93852315D01*
X133774421Y-93905414D01*
X133706067Y-93924604D01*
X133659924Y-93911956D01*
X133658788Y-93914699D01*
X133624286Y-93900408D01*
X133519642Y-93857063D01*
X133370320Y-93837404D01*
X133220998Y-93857063D01*
X133081852Y-93914699D01*
X132962365Y-94006385D01*
X132870679Y-94125872D01*
X132870643Y-94125845D01*
X132822147Y-94172087D01*
X132752433Y-94185524D01*
X132686522Y-94159137D01*
X132675314Y-94149189D01*
X131438187Y-92912062D01*
X131428332Y-92900973D01*
X131413455Y-92882102D01*
X131407624Y-92874705D01*
X131399877Y-92869350D01*
X131399875Y-92869349D01*
X131359979Y-92841776D01*
X131356756Y-92839473D01*
X131317720Y-92810640D01*
X131310141Y-92805042D01*
X131303410Y-92802678D01*
X131297544Y-92798624D01*
X131242326Y-92781161D01*
X131238585Y-92779913D01*
X131192774Y-92763825D01*
X131192769Y-92763824D01*
X131183887Y-92760705D01*
X131176758Y-92760425D01*
X131169960Y-92758275D01*
X131163417Y-92757760D01*
X131111401Y-92757760D01*
X131106455Y-92757663D01*
X131106193Y-92757653D01*
X131050176Y-92755452D01*
X131043141Y-92757317D01*
X131035095Y-92757760D01*
X127702168Y-92757760D01*
X127634047Y-92737758D01*
X127625464Y-92731722D01*
X127621579Y-92728741D01*
X127588188Y-92703119D01*
X127449042Y-92645483D01*
X127299720Y-92625824D01*
X127150398Y-92645483D01*
X127011252Y-92703119D01*
X126891765Y-92794805D01*
X126800079Y-92914292D01*
X126742443Y-93053438D01*
X126722784Y-93202760D01*
X126742443Y-93352082D01*
X126745604Y-93359713D01*
X126778713Y-93439645D01*
X126786302Y-93510234D01*
X126751399Y-93576958D01*
X126734936Y-93593421D01*
X126734922Y-93593434D01*
X125858689Y-94469668D01*
X125815556Y-94512801D01*
X125753243Y-94546826D01*
X125682428Y-94541762D01*
X125625592Y-94499215D01*
X125600781Y-94432695D01*
X125600460Y-94423706D01*
X125600460Y-92702380D01*
X125527108Y-92532200D01*
X134822844Y-92532200D01*
X134842503Y-92681522D01*
X134900139Y-92820668D01*
X134991825Y-92940155D01*
X135111312Y-93031841D01*
X135250458Y-93089477D01*
X135399780Y-93109136D01*
X135549102Y-93089477D01*
X135688248Y-93031841D01*
X135807735Y-92940155D01*
X135899421Y-92820668D01*
X135957057Y-92681522D01*
X135976716Y-92532200D01*
X135957057Y-92382878D01*
X135899421Y-92243732D01*
X135807735Y-92124245D01*
X135688248Y-92032559D01*
X135549102Y-91974923D01*
X135399780Y-91955264D01*
X135250458Y-91974923D01*
X135111312Y-92032559D01*
X134991825Y-92124245D01*
X134900139Y-92243732D01*
X134842503Y-92382878D01*
X134822844Y-92532200D01*
X125527108Y-92532200D01*
X125110826Y-91566411D01*
X125102230Y-91495936D01*
X125133101Y-91432003D01*
X125193636Y-91394908D01*
X125264616Y-91396429D01*
X125283833Y-91404319D01*
X125301249Y-91413212D01*
X125308355Y-91414951D01*
X125308358Y-91414952D01*
X125386525Y-91434079D01*
X125472231Y-91455051D01*
X125477833Y-91455399D01*
X125477836Y-91455399D01*
X125481398Y-91455620D01*
X125481407Y-91455620D01*
X125483337Y-91455740D01*
X126009027Y-91455740D01*
X126012661Y-91455316D01*
X126012666Y-91455316D01*
X126132519Y-91441342D01*
X126139792Y-91440494D01*
X126239447Y-91404321D01*
X126298376Y-91382931D01*
X126305255Y-91380434D01*
X126371517Y-91336991D01*
X126439452Y-91316369D01*
X126507753Y-91335749D01*
X126545366Y-91372362D01*
X126553626Y-91384724D01*
X126637809Y-91440974D01*
X126712043Y-91455740D01*
X126751725Y-91455740D01*
X127681155Y-91455739D01*
X127749275Y-91475741D01*
X127795768Y-91529397D01*
X127806076Y-91598186D01*
X127792124Y-91704160D01*
X127811783Y-91853482D01*
X127869419Y-91992628D01*
X127961105Y-92112115D01*
X128080592Y-92203801D01*
X128219738Y-92261437D01*
X128369060Y-92281096D01*
X128518382Y-92261437D01*
X128657528Y-92203801D01*
X128777015Y-92112115D01*
X128868701Y-91992628D01*
X128926337Y-91853482D01*
X128945996Y-91704160D01*
X128926337Y-91554838D01*
X128868701Y-91415692D01*
X128777015Y-91296205D01*
X128657528Y-91204519D01*
X128518382Y-91146883D01*
X128500700Y-91144555D01*
X128435774Y-91115830D01*
X128396684Y-91056564D01*
X128391150Y-91019633D01*
X128391149Y-90181603D01*
X128391149Y-90175414D01*
X128381616Y-90127484D01*
X128378806Y-90113354D01*
X128378805Y-90113352D01*
X128376937Y-90103960D01*
X133032144Y-90103960D01*
X133051803Y-90253282D01*
X133109439Y-90392428D01*
X133201125Y-90511915D01*
X133320612Y-90603601D01*
X133459758Y-90661237D01*
X133609080Y-90680896D01*
X133758402Y-90661237D01*
X133897548Y-90603601D01*
X134017035Y-90511915D01*
X134108721Y-90392428D01*
X134166357Y-90253282D01*
X134186016Y-90103960D01*
X134166357Y-89954638D01*
X134108721Y-89815492D01*
X134017035Y-89696005D01*
X133897548Y-89604319D01*
X133758402Y-89546683D01*
X133609080Y-89527024D01*
X133459758Y-89546683D01*
X133320612Y-89604319D01*
X133201125Y-89696005D01*
X133109439Y-89815492D01*
X133051803Y-89954638D01*
X133032144Y-90103960D01*
X128376937Y-90103960D01*
X128376384Y-90101179D01*
X128362376Y-90080214D01*
X128327027Y-90027312D01*
X128320134Y-90016996D01*
X128235951Y-89960746D01*
X128161717Y-89945980D01*
X127436998Y-89945980D01*
X126712044Y-89945981D01*
X126676292Y-89953092D01*
X126649984Y-89958324D01*
X126649982Y-89958325D01*
X126637809Y-89960746D01*
X126627489Y-89967641D01*
X126627488Y-89967642D01*
X126567095Y-90007996D01*
X126553626Y-90016996D01*
X126546733Y-90027312D01*
X126537956Y-90036089D01*
X126536816Y-90034949D01*
X126493242Y-90071365D01*
X126422798Y-90080214D01*
X126385653Y-90068053D01*
X126236391Y-89991837D01*
X126236389Y-89991836D01*
X126229871Y-89988508D01*
X126222765Y-89986769D01*
X126222762Y-89986768D01*
X126124921Y-89962827D01*
X126058889Y-89946669D01*
X126053287Y-89946321D01*
X126053284Y-89946321D01*
X126049722Y-89946100D01*
X126049713Y-89946100D01*
X126047783Y-89945980D01*
X125522093Y-89945980D01*
X125518459Y-89946404D01*
X125518454Y-89946404D01*
X125398601Y-89960378D01*
X125391328Y-89961226D01*
X125225865Y-90021286D01*
X125123114Y-90088652D01*
X125087277Y-90112148D01*
X125078656Y-90117800D01*
X124957599Y-90245591D01*
X124869187Y-90397803D01*
X124867065Y-90404808D01*
X124867065Y-90404809D01*
X124860929Y-90425069D01*
X124822039Y-90484467D01*
X124757210Y-90513410D01*
X124687025Y-90502710D01*
X124633766Y-90455763D01*
X124624630Y-90438419D01*
X124118087Y-89263220D01*
X147992744Y-89263220D01*
X148012403Y-89412542D01*
X148070039Y-89551688D01*
X148161725Y-89671175D01*
X148281212Y-89762861D01*
X148420358Y-89820497D01*
X148569680Y-89840156D01*
X148719002Y-89820497D01*
X148858148Y-89762861D01*
X148977635Y-89671175D01*
X149069321Y-89551688D01*
X149126957Y-89412542D01*
X149146616Y-89263220D01*
X149126957Y-89113898D01*
X149069321Y-88974752D01*
X148977635Y-88855265D01*
X148858148Y-88763579D01*
X148719002Y-88705943D01*
X148569680Y-88686284D01*
X148420358Y-88705943D01*
X148281212Y-88763579D01*
X148161725Y-88855265D01*
X148070039Y-88974752D01*
X148012403Y-89113898D01*
X147992744Y-89263220D01*
X124118087Y-89263220D01*
X123684019Y-88256167D01*
X123675423Y-88185692D01*
X123706294Y-88121759D01*
X123766829Y-88084664D01*
X123816174Y-88081371D01*
X123951431Y-88099178D01*
X123951432Y-88099178D01*
X123959620Y-88100256D01*
X124108942Y-88080597D01*
X124248088Y-88022961D01*
X124367575Y-87931275D01*
X124459261Y-87811788D01*
X124516897Y-87672642D01*
X124536556Y-87523320D01*
X124516897Y-87373998D01*
X124459261Y-87234852D01*
X124367575Y-87115365D01*
X124248088Y-87023679D01*
X124108942Y-86966043D01*
X123959620Y-86946384D01*
X123810298Y-86966043D01*
X123671152Y-87023679D01*
X123551665Y-87115365D01*
X123546639Y-87121915D01*
X123465884Y-87227157D01*
X123459979Y-87234852D01*
X123459700Y-87235525D01*
X123410842Y-87282110D01*
X123341128Y-87295545D01*
X123275217Y-87269157D01*
X123237398Y-87219990D01*
X123227709Y-87197512D01*
X122972010Y-86604280D01*
X122963968Y-86530708D01*
X122964070Y-86530180D01*
X123061144Y-86023282D01*
X123073539Y-85958561D01*
X123108195Y-85893165D01*
X123799616Y-85201744D01*
X123840493Y-85174430D01*
X124474945Y-84911631D01*
X124523163Y-84902040D01*
X133250353Y-84902040D01*
X133318474Y-84922042D01*
X133338470Y-84937977D01*
X133672497Y-85264788D01*
X133707201Y-85326725D01*
X133710350Y-85352100D01*
X133726976Y-86113383D01*
X133726977Y-86113386D01*
X133736080Y-86530180D01*
X134134858Y-86531512D01*
X135463661Y-86535949D01*
X136911470Y-86540784D01*
X136979523Y-86561013D01*
X137025837Y-86614824D01*
X137035706Y-86685131D01*
X137005997Y-86749613D01*
X136959266Y-86783192D01*
X136919804Y-86799537D01*
X136919800Y-86799540D01*
X136912172Y-86802699D01*
X136792685Y-86894385D01*
X136700999Y-87013872D01*
X136643363Y-87153018D01*
X136623704Y-87302340D01*
X136643363Y-87451662D01*
X136700999Y-87590808D01*
X136792685Y-87710295D01*
X136912172Y-87801981D01*
X137051318Y-87859617D01*
X137200640Y-87879276D01*
X137349962Y-87859617D01*
X137489108Y-87801981D01*
X137608595Y-87710295D01*
X137700281Y-87590808D01*
X137757917Y-87451662D01*
X137777576Y-87302340D01*
X137757917Y-87153018D01*
X137700281Y-87013872D01*
X137608595Y-86894385D01*
X137489108Y-86802699D01*
X137446719Y-86785141D01*
X137391439Y-86740592D01*
X137369018Y-86673228D01*
X137386577Y-86604437D01*
X137438539Y-86556059D01*
X137495358Y-86542733D01*
X140201650Y-86551770D01*
X141437368Y-86555896D01*
X141505420Y-86576125D01*
X141551734Y-86629936D01*
X141561603Y-86700243D01*
X141531894Y-86764725D01*
X141485164Y-86798304D01*
X141482180Y-86799540D01*
X141382572Y-86840799D01*
X141263085Y-86932485D01*
X141171399Y-87051972D01*
X141113763Y-87191118D01*
X141094104Y-87340440D01*
X141113763Y-87489762D01*
X141171399Y-87628908D01*
X141263085Y-87748395D01*
X141382572Y-87840081D01*
X141521718Y-87897717D01*
X141671040Y-87917376D01*
X141820362Y-87897717D01*
X141959508Y-87840081D01*
X141967641Y-87833840D01*
X141969215Y-87833232D01*
X141973210Y-87830925D01*
X141973570Y-87831548D01*
X142033858Y-87808239D01*
X142103407Y-87822502D01*
X142144307Y-87857098D01*
X142162245Y-87880475D01*
X142281732Y-87972161D01*
X142420878Y-88029797D01*
X142570200Y-88049456D01*
X142719522Y-88029797D01*
X142858668Y-87972161D01*
X142978155Y-87880475D01*
X143069841Y-87760988D01*
X143127477Y-87621842D01*
X143147136Y-87472520D01*
X143127477Y-87323198D01*
X143069841Y-87184052D01*
X142978155Y-87064565D01*
X142858668Y-86972879D01*
X142719522Y-86915243D01*
X142570200Y-86895584D01*
X142420878Y-86915243D01*
X142281732Y-86972879D01*
X142273599Y-86979120D01*
X142272025Y-86979728D01*
X142268030Y-86982035D01*
X142267670Y-86981412D01*
X142207382Y-87004721D01*
X142137833Y-86990458D01*
X142096933Y-86955862D01*
X142084021Y-86939035D01*
X142078995Y-86932485D01*
X141959508Y-86840799D01*
X141870090Y-86803761D01*
X141860721Y-86799880D01*
X141805440Y-86755332D01*
X141783019Y-86687968D01*
X141800577Y-86619177D01*
X141852539Y-86570799D01*
X141909358Y-86557472D01*
X145826850Y-86570554D01*
X145894900Y-86590782D01*
X145941214Y-86644593D01*
X145951083Y-86714900D01*
X145921374Y-86779382D01*
X145903131Y-86796514D01*
X145802065Y-86874065D01*
X145710379Y-86993552D01*
X145652743Y-87132698D01*
X145633084Y-87282020D01*
X145652743Y-87431342D01*
X145710379Y-87570488D01*
X145802065Y-87689975D01*
X145921552Y-87781661D01*
X146060698Y-87839297D01*
X146210020Y-87858956D01*
X146359342Y-87839297D01*
X146498488Y-87781661D01*
X146617975Y-87689975D01*
X146709661Y-87570488D01*
X146767297Y-87431342D01*
X146786956Y-87282020D01*
X146767297Y-87132698D01*
X146751596Y-87094792D01*
X146744837Y-87031925D01*
X146723927Y-87017407D01*
X146712917Y-87001348D01*
X146712821Y-87001182D01*
X146709661Y-86993552D01*
X146617975Y-86874065D01*
X146498488Y-86782379D01*
X146490860Y-86779220D01*
X146490856Y-86779217D01*
X146484255Y-86776483D01*
X146428975Y-86731934D01*
X146406555Y-86664570D01*
X146424114Y-86595779D01*
X146448978Y-86572631D01*
X146667220Y-86573360D01*
X146849734Y-86517065D01*
X146892269Y-86553542D01*
X146912619Y-86621560D01*
X146911543Y-86638646D01*
X146903084Y-86702900D01*
X146922743Y-86852222D01*
X146938444Y-86890128D01*
X146945203Y-86952995D01*
X146966113Y-86967513D01*
X146977123Y-86983572D01*
X146977218Y-86983736D01*
X146980379Y-86991368D01*
X147072065Y-87110855D01*
X147191552Y-87202541D01*
X147330698Y-87260177D01*
X147480020Y-87279836D01*
X147629342Y-87260177D01*
X147768488Y-87202541D01*
X147887975Y-87110855D01*
X147979661Y-86991368D01*
X148016032Y-86903560D01*
X152521564Y-86903560D01*
X152541223Y-87052882D01*
X152598859Y-87192028D01*
X152690545Y-87311515D01*
X152810032Y-87403201D01*
X152949178Y-87460837D01*
X153098500Y-87480496D01*
X153247822Y-87460837D01*
X153386968Y-87403201D01*
X153506455Y-87311515D01*
X153598141Y-87192028D01*
X153655777Y-87052882D01*
X153665389Y-86979870D01*
X153694111Y-86914944D01*
X153753376Y-86875852D01*
X153773864Y-86871395D01*
X153824882Y-86864678D01*
X153849802Y-86861397D01*
X153907159Y-86837639D01*
X153916324Y-86833843D01*
X153986914Y-86826254D01*
X154050401Y-86858034D01*
X154064503Y-86873546D01*
X154092625Y-86910195D01*
X154212112Y-87001881D01*
X154351258Y-87059517D01*
X154500580Y-87079176D01*
X154649902Y-87059517D01*
X154789048Y-87001881D01*
X154799194Y-86994096D01*
X154865411Y-86968497D01*
X154934960Y-86982762D01*
X154975857Y-87017355D01*
X155022265Y-87077835D01*
X155141752Y-87169521D01*
X155280898Y-87227157D01*
X155430220Y-87246816D01*
X155579542Y-87227157D01*
X155718688Y-87169521D01*
X155838175Y-87077835D01*
X155929861Y-86958348D01*
X155987497Y-86819202D01*
X156007156Y-86669880D01*
X155987497Y-86520558D01*
X155929861Y-86381412D01*
X155838175Y-86261925D01*
X155718688Y-86170239D01*
X155579542Y-86112603D01*
X155430220Y-86092944D01*
X155280898Y-86112603D01*
X155141752Y-86170239D01*
X155131606Y-86178024D01*
X155065389Y-86203623D01*
X154995840Y-86189358D01*
X154954943Y-86154765D01*
X154954712Y-86154464D01*
X154908535Y-86094285D01*
X154789048Y-86002599D01*
X154649902Y-85944963D01*
X154500580Y-85925304D01*
X154351258Y-85944963D01*
X154343626Y-85948124D01*
X154343627Y-85948124D01*
X154284736Y-85972517D01*
X154214146Y-85980106D01*
X154150659Y-85948326D01*
X154136556Y-85932813D01*
X154130794Y-85925304D01*
X154108435Y-85896165D01*
X153988948Y-85804479D01*
X153849802Y-85746843D01*
X153700480Y-85727184D01*
X153551158Y-85746843D01*
X153412012Y-85804479D01*
X153292525Y-85896165D01*
X153200839Y-86015652D01*
X153143203Y-86154798D01*
X153134152Y-86223551D01*
X153133591Y-86227809D01*
X153104869Y-86292736D01*
X153045604Y-86331828D01*
X153025116Y-86336285D01*
X152974098Y-86343002D01*
X152949178Y-86346283D01*
X152810032Y-86403919D01*
X152690545Y-86495605D01*
X152598859Y-86615092D01*
X152541223Y-86754238D01*
X152521564Y-86903560D01*
X148016032Y-86903560D01*
X148037297Y-86852222D01*
X148056956Y-86702900D01*
X148037297Y-86553578D01*
X147979661Y-86414432D01*
X147937372Y-86359320D01*
X147911771Y-86293100D01*
X147926036Y-86223551D01*
X147975637Y-86172755D01*
X148000196Y-86162214D01*
X149407108Y-85728262D01*
X154586402Y-84130748D01*
X154653913Y-84128867D01*
X155248724Y-84276610D01*
G37*
%TD.AperFunction*%
%TD*%
M02*
