%TF.GenerationSoftware,KiCad,Pcbnew,6.0.2-378541a8eb~116~ubuntu20.04.1*%
%TF.CreationDate,2022-03-13T20:33:59-06:00*%
%TF.ProjectId,Crazyflie contol board,4372617a-7966-46c6-9965-20636f6e746f,F*%
%TF.SameCoordinates,Original*%
%TF.FileFunction,Copper,L2,Inr*%
%TF.FilePolarity,Positive*%
%FSLAX46Y46*%
G04 Gerber Fmt 4.6, Leading zero omitted, Abs format (unit mm)*
G04 Created by KiCad (PCBNEW 6.0.2-378541a8eb~116~ubuntu20.04.1) date 2022-03-13 20:33:59*
%MOMM*%
%LPD*%
G01*
G04 APERTURE LIST*
%ADD10C,0.200025*%
%TA.AperFunction,NonConductor*%
%ADD11C,0.200025*%
%TD*%
%TA.AperFunction,ComponentPad*%
%ADD12C,0.381000*%
%TD*%
%TA.AperFunction,Conductor*%
%ADD13R,1.699260X1.699260*%
%TD*%
%TA.AperFunction,ComponentPad*%
%ADD14R,1.198880X0.800100*%
%TD*%
%TA.AperFunction,ComponentPad*%
%ADD15O,1.198880X0.800100*%
%TD*%
%TA.AperFunction,ComponentPad*%
%ADD16R,1.399540X1.000760*%
%TD*%
%TA.AperFunction,ComponentPad*%
%ADD17O,1.399540X1.000760*%
%TD*%
%TA.AperFunction,ComponentPad*%
%ADD18C,1.800860*%
%TD*%
%TA.AperFunction,ComponentPad*%
%ADD19R,1.198880X1.600200*%
%TD*%
%TA.AperFunction,ComponentPad*%
%ADD20O,1.198880X1.600200*%
%TD*%
%TA.AperFunction,ComponentPad*%
%ADD21O,1.600200X1.198880*%
%TD*%
%TA.AperFunction,ViaPad*%
%ADD22C,0.635000*%
%TD*%
G04 APERTURE END LIST*
D10*
D11*
X155770580Y-100641150D02*
X155808680Y-100603050D01*
X155884880Y-100564950D01*
X156075380Y-100564950D01*
X156151580Y-100603050D01*
X156189680Y-100641150D01*
X156227780Y-100717350D01*
X156227780Y-100793550D01*
X156189680Y-100907850D01*
X155732480Y-101365050D01*
X156227780Y-101365050D01*
D12*
%TO.N,GND*%
%TO.C,U8*%
X149499320Y-99504500D03*
X148498560Y-98503740D03*
D13*
X148998940Y-99004120D03*
D12*
X148498560Y-99504500D03*
X149499320Y-98503740D03*
X148998940Y-99004120D03*
%TD*%
D14*
%TO.N,VCC*%
%TO.C,P6*%
X129534920Y-106718100D03*
D15*
%TO.N,/TMS*%
X128066800Y-106718100D03*
%TO.N,/EXT_I2C_SCL{slash}TX*%
X129534920Y-105448100D03*
%TO.N,/TCK*%
X128066800Y-105448100D03*
%TO.N,/EXT_I2C_SDA{slash}RX*%
X129534920Y-104178100D03*
%TO.N,/TDO*%
X128066800Y-104178100D03*
%TO.N,unconnected-(P6-Pad7)*%
X129534920Y-102908100D03*
%TO.N,/TDI*%
X128066800Y-102908100D03*
%TO.N,DGND*%
X129534920Y-101638100D03*
%TO.N,/SNRST*%
X128066800Y-101638100D03*
%TO.N,/EXT_SPI_CS*%
X129534920Y-100368100D03*
%TO.N,/EXT_SPI_MOSI*%
X128066800Y-100368100D03*
%TO.N,/EXT_SPI_SCK*%
X129534920Y-99098100D03*
%TO.N,/EXT_SPI_MISO*%
X128066800Y-99098100D03*
%TO.N,VCC*%
X129534920Y-97828100D03*
%TO.N,VCOM*%
X128066800Y-97828100D03*
%TO.N,DGND*%
X129534920Y-96558100D03*
X128066800Y-96558100D03*
%TO.N,AGND*%
X129534920Y-95288100D03*
%TO.N,VCCA*%
X128066800Y-95288100D03*
%TD*%
D16*
%TO.N,VCC*%
%TO.C,P5*%
X138635740Y-106502200D03*
D17*
%TO.N,DGND*%
X136964420Y-106502200D03*
%TD*%
D18*
%TO.N,N/C*%
%TO.C,PCB_EDGE2*%
X156999940Y-84002880D03*
%TD*%
D16*
%TO.N,/POWER/VUSB*%
%TO.C,P8*%
X127436880Y-90700860D03*
D17*
%TO.N,DGND*%
X125765560Y-90700860D03*
%TD*%
D19*
%TO.N,+BATT*%
%TO.C,BT1*%
X152699720Y-99250500D03*
D20*
%TO.N,GND*%
X152699720Y-97350580D03*
%TD*%
D18*
%TO.N,N/C*%
%TO.C,PCB_EDGE1*%
X122999500Y-84002880D03*
%TD*%
%TO.N,N/C*%
%TO.C,PCB_EDGE3*%
X156999940Y-118003320D03*
%TD*%
%TO.N,N/C*%
%TO.C,PCB_EDGE4*%
X122999500Y-118003320D03*
%TD*%
D16*
%TO.N,+BATT*%
%TO.C,P4*%
X144663160Y-113502440D03*
D17*
%TO.N,Net-(D4-Pad1)*%
X146334480Y-113502440D03*
%TD*%
D16*
%TO.N,+BATT*%
%TO.C,P3*%
X144663160Y-110502700D03*
D17*
%TO.N,Net-(D3-Pad1)*%
X146334480Y-110502700D03*
%TD*%
D16*
%TO.N,+BATT*%
%TO.C,P2*%
X144663160Y-107502960D03*
D17*
%TO.N,Net-(D2-Pad1)*%
X146334480Y-107502960D03*
%TD*%
D16*
%TO.N,+BATT*%
%TO.C,P1*%
X144663160Y-104503220D03*
D17*
%TO.N,Net-(D1-Pad1)*%
X146334480Y-104503220D03*
%TD*%
D21*
%TO.N,GND*%
%TO.C,P9*%
X152900380Y-105402380D03*
%TD*%
D22*
%TO.N,/EXT_SPI_CS*%
X142062200Y-97373440D03*
%TO.N,/EXT_SPI_MISO*%
X140530580Y-99001580D03*
%TO.N,/EXT_SPI_MOSI*%
X140764260Y-100357940D03*
%TO.N,/EXT_SPI_SCK*%
X141376400Y-98008440D03*
%TO.N,/LED_GREEN*%
X135069580Y-94282260D03*
X147480020Y-86702900D03*
X133370320Y-94414340D03*
%TO.N,/LED_RED*%
X126748540Y-102293420D03*
%TO.N,/MOTOR1*%
X142468600Y-99842320D03*
%TO.N,/MOTOR2*%
X141678660Y-99562920D03*
%TO.N,/MOTOR3*%
X141048740Y-101122480D03*
%TO.N,/MOTOR4*%
X139420600Y-101064060D03*
%TO.N,/POWER/USBD+*%
X137739120Y-98013520D03*
X132019040Y-96423480D03*
%TO.N,/POWER/USBD-*%
X138549380Y-97993200D03*
X130589020Y-95844360D03*
%TO.N,/POWER/USB_CON*%
X128369060Y-91704160D03*
X142699740Y-93604080D03*
X136730740Y-93652340D03*
X135399780Y-92532200D03*
%TO.N,/POWER/VUSB*%
X127299720Y-93202760D03*
X147520660Y-100462080D03*
X145798540Y-95613220D03*
%TO.N,/SNRST*%
X130898900Y-98602800D03*
X140614400Y-97129600D03*
%TO.N,/TDI*%
X134162800Y-101549200D03*
%TO.N,/WIRELESS/W_CS*%
X141058900Y-111602520D03*
%TO.N,AGND*%
X140639800Y-94272100D03*
X154500580Y-86502240D03*
X137500360Y-92402660D03*
X142570200Y-87472520D03*
X153700480Y-86304120D03*
X153098500Y-86903560D03*
X137200640Y-87302340D03*
X146149060Y-93022420D03*
X146210020Y-87282020D03*
X134399020Y-93703140D03*
X138069320Y-93332300D03*
X148569680Y-89263220D03*
%TO.N,DGND*%
X125999240Y-107002580D03*
X134698740Y-106603800D03*
X134000240Y-107502960D03*
X125999240Y-104002840D03*
X130898900Y-107302300D03*
X129799080Y-109702600D03*
X140700760Y-114802920D03*
X134000240Y-113502440D03*
X131330700Y-105183940D03*
X131998720Y-113502440D03*
X135900160Y-113703100D03*
X135600440Y-107502960D03*
X137500360Y-110103920D03*
X148069300Y-115072160D03*
X130898900Y-109402880D03*
X125999240Y-108503720D03*
X137899140Y-111503460D03*
X132999480Y-113502440D03*
X148998940Y-105402380D03*
X132999480Y-106603800D03*
X127000000Y-108503720D03*
X128000760Y-108503720D03*
X131599940Y-106702860D03*
X132499100Y-115003580D03*
X132199380Y-107302300D03*
X125999240Y-105503980D03*
X131000500Y-113502440D03*
X127000000Y-109501940D03*
X135699500Y-109202220D03*
X148770340Y-115514120D03*
X136598660Y-111503460D03*
X130898900Y-108503720D03*
X129999740Y-108503720D03*
X128998980Y-108503720D03*
X148000720Y-111653320D03*
X134708900Y-97911920D03*
X148198840Y-105102660D03*
X128498600Y-109501940D03*
X137640060Y-104874060D03*
X139499340Y-113002060D03*
X134698740Y-108503720D03*
%TO.N,GND*%
X151500840Y-112303560D03*
X154200860Y-109702600D03*
X150898860Y-103403400D03*
X152930860Y-112463580D03*
X151698960Y-97203260D03*
X150009860Y-95354140D03*
X153898600Y-108803440D03*
X154000200Y-108003340D03*
%TO.N,/EXT_I2C_SCL{slash}TX*%
X139974320Y-101744780D03*
%TO.N,/EXT_I2C_SDA{slash}RX*%
X139176760Y-102003860D03*
%TO.N,Net-(Q6-PadD)*%
X148899880Y-101602540D03*
%TO.N,/I2C_SCK_VCCA*%
X137238740Y-98643440D03*
%TO.N,/I2C_SCL_VCCA*%
X133609080Y-90103960D03*
%TO.N,/PGOOD*%
X143629380Y-95709740D03*
X147858480Y-96664780D03*
%TO.N,/SYSOFF*%
X147185380Y-95590360D03*
%TO.N,Net-(R33-Pad1)*%
X154259280Y-92179140D03*
%TO.N,/EN1*%
X137312400Y-94218760D03*
%TO.N,/INT_GA*%
X141671040Y-87340440D03*
%TO.N,VCC*%
X141678660Y-113863120D03*
X153070560Y-114002820D03*
X136588500Y-114802920D03*
X143499840Y-102903020D03*
X155430220Y-86669880D03*
X132120640Y-103284020D03*
X123959620Y-87523320D03*
X134548880Y-96862900D03*
X148160740Y-113073180D03*
X154800300Y-100233480D03*
X136679940Y-103263700D03*
X126700280Y-98602800D03*
%TO.N,VCCA*%
X136298940Y-87302340D03*
X134899400Y-91503500D03*
X151000460Y-86903560D03*
X142748000Y-91152980D03*
X141899640Y-93202760D03*
X132900420Y-93703140D03*
X144830800Y-87393780D03*
X150098760Y-86702900D03*
X151599900Y-91704160D03*
%TO.N,VCOM*%
X154099260Y-111902240D03*
X148508720Y-94493080D03*
X146428460Y-99522280D03*
X154800300Y-101203760D03*
X152760680Y-107853480D03*
X146570700Y-97904300D03*
X154099260Y-110904020D03*
X146489420Y-98701860D03*
%TO.N,/CHG*%
X142590520Y-100644960D03*
%TO.N,/SPI_SCK*%
X140898880Y-110802420D03*
%TO.N,/SPI_MISO*%
X141000480Y-108701840D03*
%TO.N,/SPI_MOSI*%
X141000480Y-109804200D03*
%TO.N,/W_CK*%
X140680440Y-106903520D03*
%TO.N,/W_INT*%
X140220700Y-107662980D03*
%TO.N,/W_CE*%
X140398500Y-112102900D03*
%TO.N,/EN2*%
X150080980Y-97073720D03*
%TO.N,unconnected-(U3-Pad6)*%
X146799300Y-94084140D03*
X144500600Y-93713300D03*
%TO.N,unconnected-(U3-Pad7)*%
X147599400Y-94363540D03*
X145300700Y-93103700D03*
%TD*%
%TA.AperFunction,Conductor*%
%TO.N,GND*%
G36*
X154016131Y-93423422D02*
G01*
X154037105Y-93440325D01*
X154362075Y-93765295D01*
X154396101Y-93827607D01*
X154398980Y-93854390D01*
X154398980Y-99774107D01*
X154378978Y-99842228D01*
X154372951Y-99850800D01*
X154300659Y-99945012D01*
X154243023Y-100084158D01*
X154223364Y-100233480D01*
X154243023Y-100382802D01*
X154300659Y-100521948D01*
X154372944Y-100616151D01*
X154398543Y-100682369D01*
X154398980Y-100692853D01*
X154398980Y-100744387D01*
X154378978Y-100812508D01*
X154372951Y-100821080D01*
X154300659Y-100915292D01*
X154243023Y-101054438D01*
X154223364Y-101203760D01*
X154243023Y-101353082D01*
X154300659Y-101492228D01*
X154372944Y-101586431D01*
X154398543Y-101652649D01*
X154398980Y-101663133D01*
X154398980Y-108524040D01*
X154529948Y-108900700D01*
X154531679Y-108905679D01*
X154531680Y-108905682D01*
X155519033Y-111745287D01*
X156406577Y-114297841D01*
X156857073Y-115593458D01*
X156860875Y-115662996D01*
X156726057Y-116251005D01*
X156692339Y-116311941D01*
X155307960Y-117696320D01*
X155248554Y-117729677D01*
X154952045Y-117801568D01*
X154655535Y-117873459D01*
X154587451Y-117871014D01*
X152500330Y-117203220D01*
X150418654Y-116537168D01*
X150359868Y-116497358D01*
X150355282Y-116491451D01*
X150023931Y-116037534D01*
X149999922Y-115970720D01*
X149999700Y-115963244D01*
X149999700Y-114002820D01*
X152493624Y-114002820D01*
X152513283Y-114152142D01*
X152570919Y-114291288D01*
X152662605Y-114410775D01*
X152782092Y-114502461D01*
X152921238Y-114560097D01*
X153070560Y-114579756D01*
X153219882Y-114560097D01*
X153359028Y-114502461D01*
X153478515Y-114410775D01*
X153570201Y-114291288D01*
X153627837Y-114152142D01*
X153647496Y-114002820D01*
X153627837Y-113853498D01*
X153570201Y-113714352D01*
X153478515Y-113594865D01*
X153359028Y-113503179D01*
X153219882Y-113445543D01*
X153070560Y-113425884D01*
X152921238Y-113445543D01*
X152782092Y-113503179D01*
X152662605Y-113594865D01*
X152570919Y-113714352D01*
X152513283Y-113853498D01*
X152493624Y-114002820D01*
X149999700Y-114002820D01*
X149999700Y-111902240D01*
X153522324Y-111902240D01*
X153541983Y-112051562D01*
X153599619Y-112190708D01*
X153691305Y-112310195D01*
X153810792Y-112401881D01*
X153949938Y-112459517D01*
X154099260Y-112479176D01*
X154248582Y-112459517D01*
X154387728Y-112401881D01*
X154507215Y-112310195D01*
X154598901Y-112190708D01*
X154656537Y-112051562D01*
X154676196Y-111902240D01*
X154656537Y-111752918D01*
X154598901Y-111613772D01*
X154507215Y-111494285D01*
X154502982Y-111491037D01*
X154469605Y-111429913D01*
X154474670Y-111359098D01*
X154502756Y-111315397D01*
X154507215Y-111311975D01*
X154598901Y-111192488D01*
X154656537Y-111053342D01*
X154676196Y-110904020D01*
X154656537Y-110754698D01*
X154598901Y-110615552D01*
X154507215Y-110496065D01*
X154387728Y-110404379D01*
X154248582Y-110346743D01*
X154099260Y-110327084D01*
X153949938Y-110346743D01*
X153810792Y-110404379D01*
X153691305Y-110496065D01*
X153599619Y-110615552D01*
X153541983Y-110754698D01*
X153522324Y-110904020D01*
X153541983Y-111053342D01*
X153599619Y-111192488D01*
X153691305Y-111311975D01*
X153695538Y-111315223D01*
X153728915Y-111376347D01*
X153723850Y-111447162D01*
X153695764Y-111490863D01*
X153691305Y-111494285D01*
X153599619Y-111613772D01*
X153541983Y-111752918D01*
X153522324Y-111902240D01*
X149999700Y-111902240D01*
X149999700Y-107853480D01*
X152183744Y-107853480D01*
X152203403Y-108002802D01*
X152261039Y-108141948D01*
X152352725Y-108261435D01*
X152472212Y-108353121D01*
X152611358Y-108410757D01*
X152760680Y-108430416D01*
X152910002Y-108410757D01*
X153049148Y-108353121D01*
X153168635Y-108261435D01*
X153260321Y-108141948D01*
X153317957Y-108002802D01*
X153337616Y-107853480D01*
X153317957Y-107704158D01*
X153260321Y-107565012D01*
X153168635Y-107445525D01*
X153049148Y-107353839D01*
X152910002Y-107296203D01*
X152760680Y-107276544D01*
X152611358Y-107296203D01*
X152472212Y-107353839D01*
X152352725Y-107445525D01*
X152261039Y-107565012D01*
X152203403Y-107704158D01*
X152183744Y-107853480D01*
X149999700Y-107853480D01*
X149999700Y-102003860D01*
X149541349Y-102003860D01*
X149473228Y-101983858D01*
X149426735Y-101930202D01*
X149416631Y-101859928D01*
X149424940Y-101829643D01*
X149453995Y-101759496D01*
X149453995Y-101759495D01*
X149457157Y-101751862D01*
X149476816Y-101602540D01*
X149457157Y-101453218D01*
X149399521Y-101314072D01*
X149307835Y-101194585D01*
X149188348Y-101102899D01*
X149049202Y-101045263D01*
X148899880Y-101025604D01*
X148750558Y-101045263D01*
X148611412Y-101102899D01*
X148491925Y-101194585D01*
X148486899Y-101201135D01*
X148424802Y-101282061D01*
X148367464Y-101323928D01*
X148296593Y-101328150D01*
X148234690Y-101293386D01*
X148201409Y-101230673D01*
X148198840Y-101205357D01*
X148198840Y-100103940D01*
X147966840Y-100103940D01*
X147928615Y-100054125D01*
X147809128Y-99962439D01*
X147669982Y-99904803D01*
X147670380Y-99903842D01*
X147620955Y-99875305D01*
X147537245Y-99791595D01*
X147503219Y-99729283D01*
X147500340Y-99702500D01*
X147500340Y-98425333D01*
X151845780Y-98425333D01*
X151845781Y-100075666D01*
X151860546Y-100149901D01*
X151916796Y-100234084D01*
X152000979Y-100290334D01*
X152075213Y-100305100D01*
X152699619Y-100305100D01*
X153324226Y-100305099D01*
X153359978Y-100297988D01*
X153386286Y-100292756D01*
X153386288Y-100292755D01*
X153398461Y-100290334D01*
X153408781Y-100283439D01*
X153408782Y-100283438D01*
X153472328Y-100240977D01*
X153482644Y-100234084D01*
X153538894Y-100149901D01*
X153553660Y-100075667D01*
X153553659Y-98425334D01*
X153538894Y-98351099D01*
X153482644Y-98266916D01*
X153398461Y-98210666D01*
X153324227Y-98195900D01*
X152699821Y-98195900D01*
X152075214Y-98195901D01*
X152039462Y-98203012D01*
X152013154Y-98208244D01*
X152013152Y-98208245D01*
X152000979Y-98210666D01*
X151990659Y-98217561D01*
X151990658Y-98217562D01*
X151930265Y-98257916D01*
X151916796Y-98266916D01*
X151860546Y-98351099D01*
X151845780Y-98425333D01*
X147500340Y-98425333D01*
X147500340Y-97324134D01*
X147520342Y-97256013D01*
X147573998Y-97209520D01*
X147644272Y-97199416D01*
X147674554Y-97207724D01*
X147709158Y-97222057D01*
X147858480Y-97241716D01*
X148007802Y-97222057D01*
X148146948Y-97164421D01*
X148265151Y-97073720D01*
X149504044Y-97073720D01*
X149523703Y-97223042D01*
X149581339Y-97362188D01*
X149673025Y-97481675D01*
X149792512Y-97573361D01*
X149931658Y-97630997D01*
X150080980Y-97650656D01*
X150230302Y-97630997D01*
X150369448Y-97573361D01*
X150488935Y-97481675D01*
X150580621Y-97362188D01*
X150638257Y-97223042D01*
X150657916Y-97073720D01*
X150638257Y-96924398D01*
X150580621Y-96785252D01*
X150488935Y-96665765D01*
X150369448Y-96574079D01*
X150230302Y-96516443D01*
X150080980Y-96496784D01*
X149931658Y-96516443D01*
X149792512Y-96574079D01*
X149673025Y-96665765D01*
X149581339Y-96785252D01*
X149523703Y-96924398D01*
X149504044Y-97073720D01*
X148265151Y-97073720D01*
X148266435Y-97072735D01*
X148358121Y-96953248D01*
X148415757Y-96814102D01*
X148435416Y-96664780D01*
X148415757Y-96515458D01*
X148358121Y-96376312D01*
X148266435Y-96256825D01*
X148146948Y-96165139D01*
X148007802Y-96107503D01*
X147858480Y-96087844D01*
X147850292Y-96088922D01*
X147850291Y-96088922D01*
X147788710Y-96097029D01*
X147718561Y-96086089D01*
X147665463Y-96038961D01*
X147646273Y-95970607D01*
X147667084Y-95902729D01*
X147672290Y-95895420D01*
X147685021Y-95878828D01*
X147742657Y-95739682D01*
X147762316Y-95590360D01*
X147742657Y-95441038D01*
X147685021Y-95301892D01*
X147593335Y-95182405D01*
X147566438Y-95161766D01*
X147524571Y-95104428D01*
X147520349Y-95033557D01*
X147555113Y-94971654D01*
X147617826Y-94938373D01*
X147626687Y-94936884D01*
X147748722Y-94920817D01*
X147887868Y-94863181D01*
X147903624Y-94851091D01*
X147969845Y-94825491D01*
X148039393Y-94839756D01*
X148080287Y-94874347D01*
X148100765Y-94901035D01*
X148220252Y-94992721D01*
X148359398Y-95050357D01*
X148508720Y-95070016D01*
X148658042Y-95050357D01*
X148797188Y-94992721D01*
X148916675Y-94901035D01*
X149008361Y-94781548D01*
X149065997Y-94642402D01*
X149085656Y-94493080D01*
X149065997Y-94343758D01*
X149008361Y-94204612D01*
X148916675Y-94085125D01*
X148797188Y-93993439D01*
X148658042Y-93935803D01*
X148508720Y-93916144D01*
X148359398Y-93935803D01*
X148220252Y-93993439D01*
X148213701Y-93998466D01*
X148213699Y-93998467D01*
X148204496Y-94005529D01*
X148138275Y-94031129D01*
X148068727Y-94016864D01*
X148027833Y-93982273D01*
X148007355Y-93955585D01*
X147887868Y-93863899D01*
X147748722Y-93806263D01*
X147749577Y-93804200D01*
X147698933Y-93773339D01*
X147667904Y-93709482D01*
X147676324Y-93638987D01*
X147703062Y-93599478D01*
X147862215Y-93440325D01*
X147924527Y-93406299D01*
X147951310Y-93403420D01*
X153948010Y-93403420D01*
X154016131Y-93423422D01*
G37*
%TD.AperFunction*%
%TD*%
%TA.AperFunction,Conductor*%
%TO.N,DGND*%
G36*
X130148825Y-96222502D02*
G01*
X130169030Y-96241090D01*
X130170197Y-96239923D01*
X130176039Y-96245765D01*
X130181065Y-96252315D01*
X130187615Y-96257341D01*
X130187618Y-96257344D01*
X130224917Y-96285964D01*
X130300552Y-96344001D01*
X130439698Y-96401637D01*
X130589020Y-96421296D01*
X130738342Y-96401637D01*
X130877488Y-96344001D01*
X130953123Y-96285964D01*
X130990422Y-96257344D01*
X130990425Y-96257341D01*
X130996975Y-96252315D01*
X131002001Y-96245765D01*
X131007843Y-96239923D01*
X131010287Y-96242367D01*
X131054710Y-96209929D01*
X131097336Y-96202500D01*
X131327521Y-96202500D01*
X131395642Y-96222502D01*
X131442135Y-96276158D01*
X131452443Y-96344946D01*
X131450032Y-96363259D01*
X131442104Y-96423480D01*
X131461763Y-96572802D01*
X131519399Y-96711948D01*
X131611085Y-96831435D01*
X131730572Y-96923121D01*
X131869718Y-96980757D01*
X132019040Y-97000416D01*
X132168362Y-96980757D01*
X132307508Y-96923121D01*
X132426995Y-96831435D01*
X132518681Y-96711948D01*
X132576317Y-96572802D01*
X132595976Y-96423480D01*
X132588048Y-96363259D01*
X132585637Y-96344946D01*
X132596576Y-96274797D01*
X132643705Y-96221699D01*
X132710559Y-96202500D01*
X134098734Y-96202500D01*
X134166855Y-96222502D01*
X134213348Y-96276158D01*
X134223452Y-96346432D01*
X134193958Y-96411012D01*
X134175438Y-96428462D01*
X134140925Y-96454945D01*
X134049239Y-96574432D01*
X133991603Y-96713578D01*
X133971944Y-96862900D01*
X133991603Y-97012222D01*
X134049239Y-97151368D01*
X134140925Y-97270855D01*
X134260412Y-97362541D01*
X134399558Y-97420177D01*
X134548880Y-97439836D01*
X134698202Y-97420177D01*
X134837348Y-97362541D01*
X134956835Y-97270855D01*
X135048521Y-97151368D01*
X135106157Y-97012222D01*
X135125816Y-96862900D01*
X135106157Y-96713578D01*
X135048521Y-96574432D01*
X134956835Y-96454945D01*
X134922322Y-96428462D01*
X134880455Y-96371124D01*
X134876233Y-96300253D01*
X134910997Y-96238350D01*
X134973710Y-96205069D01*
X134999026Y-96202500D01*
X138349870Y-96202500D01*
X138417991Y-96222502D01*
X138438965Y-96239405D01*
X138763935Y-96564375D01*
X138797961Y-96626687D01*
X138800840Y-96653470D01*
X138800840Y-97305694D01*
X138780838Y-97373815D01*
X138727182Y-97420308D01*
X138658394Y-97430616D01*
X138557569Y-97417342D01*
X138557568Y-97417342D01*
X138549380Y-97416264D01*
X138400058Y-97435923D01*
X138260912Y-97493559D01*
X138207711Y-97534382D01*
X138141493Y-97559981D01*
X138071944Y-97545716D01*
X138054312Y-97534385D01*
X138027588Y-97513879D01*
X137888442Y-97456243D01*
X137739120Y-97436584D01*
X137589798Y-97456243D01*
X137450652Y-97513879D01*
X137331165Y-97605565D01*
X137239479Y-97725052D01*
X137181843Y-97864198D01*
X137172552Y-97934767D01*
X137165761Y-97986351D01*
X137137038Y-98051278D01*
X137089058Y-98086312D01*
X136950272Y-98143799D01*
X136830785Y-98235485D01*
X136739099Y-98354972D01*
X136681463Y-98494118D01*
X136661804Y-98643440D01*
X136681463Y-98792762D01*
X136739099Y-98931908D01*
X136830785Y-99051395D01*
X136950272Y-99143081D01*
X137089418Y-99200717D01*
X137238740Y-99220376D01*
X137388062Y-99200717D01*
X137527208Y-99143081D01*
X137646695Y-99051395D01*
X137738381Y-98931908D01*
X137796017Y-98792762D01*
X137812099Y-98670609D01*
X137840822Y-98605682D01*
X137888802Y-98570648D01*
X138027588Y-98513161D01*
X138080789Y-98472338D01*
X138147007Y-98446739D01*
X138216556Y-98461004D01*
X138234188Y-98472335D01*
X138260912Y-98492841D01*
X138400058Y-98550477D01*
X138549380Y-98570136D01*
X138681756Y-98552708D01*
X138751904Y-98563647D01*
X138796309Y-98598567D01*
X138800840Y-98604189D01*
X138800840Y-99004120D01*
X139843480Y-99004120D01*
X139911601Y-99024122D01*
X139958094Y-99077778D01*
X139968402Y-99113674D01*
X139973303Y-99150902D01*
X140030939Y-99290048D01*
X140122625Y-99409535D01*
X140242112Y-99501221D01*
X140381258Y-99558857D01*
X140530580Y-99578516D01*
X140530338Y-99580354D01*
X140588527Y-99597440D01*
X140635020Y-99651096D01*
X140645124Y-99721370D01*
X140615630Y-99785950D01*
X140568625Y-99819847D01*
X140475792Y-99858299D01*
X140356305Y-99949985D01*
X140264619Y-100069472D01*
X140206983Y-100208618D01*
X140187324Y-100357940D01*
X140206983Y-100507262D01*
X140264619Y-100646408D01*
X140356305Y-100765895D01*
X140445077Y-100834012D01*
X140448611Y-100836724D01*
X140490478Y-100894062D01*
X140493563Y-100968089D01*
X140491463Y-100973158D01*
X140490385Y-100981344D01*
X140490385Y-100981345D01*
X140484947Y-101022650D01*
X140471804Y-101122480D01*
X140473550Y-101135740D01*
X140462612Y-101205887D01*
X140415485Y-101258987D01*
X140347131Y-101278178D01*
X140279253Y-101257368D01*
X140271926Y-101252151D01*
X140262788Y-101245139D01*
X140123642Y-101187503D01*
X140106013Y-101185182D01*
X140041085Y-101156460D01*
X140001993Y-101097196D01*
X139997298Y-101065867D01*
X139997536Y-101064060D01*
X139977877Y-100914738D01*
X139920241Y-100775592D01*
X139828555Y-100656105D01*
X139709068Y-100564419D01*
X139569922Y-100506783D01*
X139420600Y-100487124D01*
X139271278Y-100506783D01*
X139132132Y-100564419D01*
X139012645Y-100656105D01*
X138920959Y-100775592D01*
X138863323Y-100914738D01*
X138843664Y-101064060D01*
X138863323Y-101213382D01*
X138875168Y-101241979D01*
X138920959Y-101352528D01*
X138919474Y-101353143D01*
X138933972Y-101412928D01*
X138910745Y-101480018D01*
X138884819Y-101506884D01*
X138768805Y-101595905D01*
X138677119Y-101715392D01*
X138619483Y-101854538D01*
X138599824Y-102003860D01*
X138619483Y-102153182D01*
X138677119Y-102292328D01*
X138768805Y-102411815D01*
X138888292Y-102503501D01*
X139027438Y-102561137D01*
X139176760Y-102580796D01*
X139326082Y-102561137D01*
X139465228Y-102503501D01*
X139584715Y-102411815D01*
X139647718Y-102329708D01*
X139705056Y-102287841D01*
X139775927Y-102283619D01*
X139795899Y-102290004D01*
X139817364Y-102298895D01*
X139824998Y-102302057D01*
X139974320Y-102321716D01*
X140123642Y-102302057D01*
X140262788Y-102244421D01*
X140382275Y-102152735D01*
X140473961Y-102033248D01*
X140531597Y-101894102D01*
X140551256Y-101744780D01*
X140549510Y-101731520D01*
X140560448Y-101661373D01*
X140607575Y-101608273D01*
X140675929Y-101589082D01*
X140743807Y-101609892D01*
X140751132Y-101615107D01*
X140760272Y-101622121D01*
X140899418Y-101679757D01*
X141048740Y-101699416D01*
X141198062Y-101679757D01*
X141337208Y-101622121D01*
X141456695Y-101530435D01*
X141548381Y-101410948D01*
X141606017Y-101271802D01*
X141625676Y-101122480D01*
X141606017Y-100973158D01*
X141548381Y-100834012D01*
X141456695Y-100714525D01*
X141364389Y-100643696D01*
X141322522Y-100586358D01*
X141319437Y-100512331D01*
X141321537Y-100507262D01*
X141327486Y-100462080D01*
X141340118Y-100366128D01*
X141341196Y-100357940D01*
X141325725Y-100240430D01*
X141336664Y-100170282D01*
X141383792Y-100117183D01*
X141452146Y-100097993D01*
X141498864Y-100107575D01*
X141521704Y-100117035D01*
X141529338Y-100120197D01*
X141678660Y-100139856D01*
X141827982Y-100120197D01*
X141839467Y-100115440D01*
X141842981Y-100115062D01*
X141843589Y-100114899D01*
X141843614Y-100114994D01*
X141910055Y-100107849D01*
X141973542Y-100139627D01*
X141987648Y-100155144D01*
X142060645Y-100250275D01*
X142059121Y-100251444D01*
X142088074Y-100304466D01*
X142081362Y-100379467D01*
X142047143Y-100462080D01*
X142033243Y-100495638D01*
X142013584Y-100644960D01*
X142033243Y-100794282D01*
X142090879Y-100933428D01*
X142182565Y-101052915D01*
X142302052Y-101144601D01*
X142441198Y-101202237D01*
X142590520Y-101221896D01*
X142739842Y-101202237D01*
X142878988Y-101144601D01*
X142998475Y-101052915D01*
X143090161Y-100933428D01*
X143147797Y-100794282D01*
X143167456Y-100644960D01*
X143147797Y-100495638D01*
X143090161Y-100356492D01*
X142998475Y-100237005D01*
X142999999Y-100235836D01*
X142971046Y-100182814D01*
X142977758Y-100107813D01*
X143022716Y-99999273D01*
X143025877Y-99991642D01*
X143045536Y-99842320D01*
X143025877Y-99692998D01*
X142968241Y-99553852D01*
X142876555Y-99434365D01*
X142757068Y-99342679D01*
X142617922Y-99285043D01*
X142468600Y-99265384D01*
X142319278Y-99285043D01*
X142307793Y-99289800D01*
X142304279Y-99290178D01*
X142303671Y-99290341D01*
X142303646Y-99290246D01*
X142237205Y-99297391D01*
X142173718Y-99265613D01*
X142159612Y-99250096D01*
X142126408Y-99206824D01*
X142100807Y-99140604D01*
X142115072Y-99071055D01*
X142164673Y-99020259D01*
X142226370Y-99004120D01*
X145849566Y-99004120D01*
X145917687Y-99024122D01*
X145964180Y-99077778D01*
X145974284Y-99148052D01*
X145949529Y-99206822D01*
X145928819Y-99233812D01*
X145871183Y-99372958D01*
X145851524Y-99522280D01*
X145871183Y-99671602D01*
X145928819Y-99810748D01*
X146020505Y-99930235D01*
X146139992Y-100021921D01*
X146279138Y-100079557D01*
X146428460Y-100099216D01*
X146558238Y-100082130D01*
X146628386Y-100093069D01*
X146681485Y-100140197D01*
X146695580Y-100171554D01*
X146700240Y-100187425D01*
X146700240Y-100604320D01*
X146962451Y-100604320D01*
X146963383Y-100611402D01*
X147021019Y-100750548D01*
X147112705Y-100870035D01*
X147232192Y-100961721D01*
X147371338Y-101019357D01*
X147381372Y-101020678D01*
X147390789Y-101021918D01*
X147455716Y-101050642D01*
X147494806Y-101109909D01*
X147500340Y-101146840D01*
X147500340Y-102504240D01*
X148949290Y-102504240D01*
X149017411Y-102524242D01*
X149038385Y-102541145D01*
X149363355Y-102866115D01*
X149397381Y-102928427D01*
X149400260Y-102955210D01*
X149400260Y-114951390D01*
X149380258Y-115019511D01*
X149363355Y-115040485D01*
X149038385Y-115365455D01*
X148976073Y-115399481D01*
X148949290Y-115402360D01*
X137105026Y-115402360D01*
X137036905Y-115382358D01*
X136990412Y-115328702D01*
X136980308Y-115258428D01*
X137005062Y-115199658D01*
X137088141Y-115091388D01*
X137145777Y-114952242D01*
X137165436Y-114802920D01*
X137145777Y-114653598D01*
X137088141Y-114514452D01*
X136996455Y-114394965D01*
X136876968Y-114303279D01*
X136737822Y-114245643D01*
X136588500Y-114225984D01*
X136439178Y-114245643D01*
X136300032Y-114303279D01*
X136180545Y-114394965D01*
X136088859Y-114514452D01*
X136031223Y-114653598D01*
X136011564Y-114802920D01*
X136031223Y-114952242D01*
X136088859Y-115091388D01*
X136171938Y-115199658D01*
X136197537Y-115265876D01*
X136183272Y-115335425D01*
X136133671Y-115386221D01*
X136071974Y-115402360D01*
X133022798Y-115402360D01*
X132977706Y-115394015D01*
X132325839Y-115144185D01*
X132286720Y-115120256D01*
X131942640Y-114811108D01*
X130915762Y-113888482D01*
X130897305Y-113863120D01*
X141101724Y-113863120D01*
X141121383Y-114012442D01*
X141179019Y-114151588D01*
X141270705Y-114271075D01*
X141390192Y-114362761D01*
X141529338Y-114420397D01*
X141678660Y-114440056D01*
X141827982Y-114420397D01*
X141967128Y-114362761D01*
X142086615Y-114271075D01*
X142178301Y-114151588D01*
X142235937Y-114012442D01*
X142255596Y-113863120D01*
X142235937Y-113713798D01*
X142178301Y-113574652D01*
X142086615Y-113455165D01*
X141967128Y-113363479D01*
X141827982Y-113305843D01*
X141678660Y-113286184D01*
X141529338Y-113305843D01*
X141390192Y-113363479D01*
X141270705Y-113455165D01*
X141179019Y-113574652D01*
X141121383Y-113713798D01*
X141101724Y-113863120D01*
X130897305Y-113863120D01*
X130884894Y-113846066D01*
X130671830Y-113368201D01*
X130633681Y-113282640D01*
X130624209Y-113212278D01*
X130654281Y-113147965D01*
X130659665Y-113142235D01*
X130824907Y-112976993D01*
X143708890Y-112976993D01*
X143708891Y-114027886D01*
X143713200Y-114049550D01*
X143719294Y-114080188D01*
X143723656Y-114102121D01*
X143730551Y-114112441D01*
X143730552Y-114112442D01*
X143743577Y-114131935D01*
X143779906Y-114186304D01*
X143864089Y-114242554D01*
X143938323Y-114257320D01*
X144663042Y-114257320D01*
X145387996Y-114257319D01*
X145423748Y-114250208D01*
X145450056Y-114244976D01*
X145450058Y-114244975D01*
X145462231Y-114242554D01*
X145472551Y-114235659D01*
X145472552Y-114235658D01*
X145536098Y-114193197D01*
X145546414Y-114186304D01*
X145553307Y-114175988D01*
X145562084Y-114167211D01*
X145563224Y-114168351D01*
X145606798Y-114131935D01*
X145677242Y-114123086D01*
X145714387Y-114135247D01*
X145863649Y-114211463D01*
X145863651Y-114211464D01*
X145870169Y-114214792D01*
X145877275Y-114216531D01*
X145877278Y-114216532D01*
X145920312Y-114227062D01*
X146041151Y-114256631D01*
X146046753Y-114256979D01*
X146046756Y-114256979D01*
X146050318Y-114257200D01*
X146050327Y-114257200D01*
X146052257Y-114257320D01*
X146577947Y-114257320D01*
X146581581Y-114256896D01*
X146581586Y-114256896D01*
X146701439Y-114242922D01*
X146708712Y-114242074D01*
X146726388Y-114235658D01*
X146867296Y-114184511D01*
X146874175Y-114182014D01*
X147021384Y-114085500D01*
X147142441Y-113957709D01*
X147230853Y-113805497D01*
X147281877Y-113637028D01*
X147292777Y-113461339D01*
X147291537Y-113454121D01*
X147264207Y-113295069D01*
X147264206Y-113295066D01*
X147262967Y-113287855D01*
X147231674Y-113214313D01*
X147196913Y-113132619D01*
X147196912Y-113132617D01*
X147194046Y-113125882D01*
X147155262Y-113073180D01*
X147583804Y-113073180D01*
X147603463Y-113222502D01*
X147661099Y-113361648D01*
X147752785Y-113481135D01*
X147872272Y-113572821D01*
X148011418Y-113630457D01*
X148160740Y-113650116D01*
X148310062Y-113630457D01*
X148449208Y-113572821D01*
X148568695Y-113481135D01*
X148660381Y-113361648D01*
X148718017Y-113222502D01*
X148737676Y-113073180D01*
X148718017Y-112923858D01*
X148660381Y-112784712D01*
X148568695Y-112665225D01*
X148449208Y-112573539D01*
X148310062Y-112515903D01*
X148160740Y-112496244D01*
X148011418Y-112515903D01*
X147872272Y-112573539D01*
X147752785Y-112665225D01*
X147661099Y-112784712D01*
X147603463Y-112923858D01*
X147583804Y-113073180D01*
X147155262Y-113073180D01*
X147089713Y-112984108D01*
X146955562Y-112870139D01*
X146949047Y-112866812D01*
X146949045Y-112866811D01*
X146858093Y-112820369D01*
X146798791Y-112790088D01*
X146791685Y-112788349D01*
X146791682Y-112788348D01*
X146697507Y-112765304D01*
X146627809Y-112748249D01*
X146622207Y-112747901D01*
X146622204Y-112747901D01*
X146618642Y-112747680D01*
X146618633Y-112747680D01*
X146616703Y-112747560D01*
X146091013Y-112747560D01*
X146087379Y-112747984D01*
X146087374Y-112747984D01*
X145967521Y-112761958D01*
X145960248Y-112762806D01*
X145953366Y-112765304D01*
X145875919Y-112793416D01*
X145794785Y-112822866D01*
X145732856Y-112863468D01*
X145728523Y-112866309D01*
X145660588Y-112886931D01*
X145592287Y-112867551D01*
X145554674Y-112830938D01*
X145553307Y-112828892D01*
X145546414Y-112818576D01*
X145462231Y-112762326D01*
X145387997Y-112747560D01*
X144663278Y-112747560D01*
X143938324Y-112747561D01*
X143902572Y-112754672D01*
X143876264Y-112759904D01*
X143876262Y-112759905D01*
X143864089Y-112762326D01*
X143853769Y-112769221D01*
X143853768Y-112769222D01*
X143830586Y-112784712D01*
X143779906Y-112818576D01*
X143723656Y-112902759D01*
X143708890Y-112976993D01*
X130824907Y-112976993D01*
X130961055Y-112840845D01*
X131023367Y-112806819D01*
X131050150Y-112803940D01*
X135199120Y-112803940D01*
X135199120Y-108803440D01*
X131800600Y-108803440D01*
X131800600Y-109353230D01*
X131780598Y-109421351D01*
X131763695Y-109442325D01*
X131438725Y-109767295D01*
X131376413Y-109801321D01*
X131349630Y-109804200D01*
X127324783Y-109804200D01*
X127276565Y-109794609D01*
X127262078Y-109788608D01*
X126920802Y-109647247D01*
X126642113Y-109531810D01*
X126601236Y-109504496D01*
X125900164Y-108803424D01*
X125872850Y-108762547D01*
X125648226Y-108220257D01*
X125610051Y-108128094D01*
X125600460Y-108079877D01*
X125600460Y-107662980D01*
X139643764Y-107662980D01*
X139663423Y-107812302D01*
X139721059Y-107951448D01*
X139812745Y-108070935D01*
X139932232Y-108162621D01*
X140071378Y-108220257D01*
X140220700Y-108239916D01*
X140367948Y-108220530D01*
X140370022Y-108220257D01*
X140370065Y-108220581D01*
X140436072Y-108222155D01*
X140494866Y-108261952D01*
X140522811Y-108327218D01*
X140511034Y-108397231D01*
X140506818Y-108405174D01*
X140505871Y-108406814D01*
X140500839Y-108413372D01*
X140443203Y-108552518D01*
X140423544Y-108701840D01*
X140443203Y-108851162D01*
X140500839Y-108990308D01*
X140592525Y-109109795D01*
X140599075Y-109114821D01*
X140648906Y-109153058D01*
X140690773Y-109210396D01*
X140694995Y-109281267D01*
X140660231Y-109343170D01*
X140648906Y-109352982D01*
X140592525Y-109396245D01*
X140500839Y-109515732D01*
X140443203Y-109654878D01*
X140423544Y-109804200D01*
X140443203Y-109953522D01*
X140500839Y-110092668D01*
X140566218Y-110177871D01*
X140591819Y-110244091D01*
X140577554Y-110313640D01*
X140542960Y-110354537D01*
X140490925Y-110394465D01*
X140399239Y-110513952D01*
X140341603Y-110653098D01*
X140321944Y-110802420D01*
X140341603Y-110951742D01*
X140399239Y-111090888D01*
X140490925Y-111210375D01*
X140498663Y-111216312D01*
X140499411Y-111217337D01*
X140503316Y-111221242D01*
X140502707Y-111221851D01*
X140540528Y-111273648D01*
X140544750Y-111344519D01*
X140538366Y-111364491D01*
X140503254Y-111449260D01*
X140458706Y-111504541D01*
X140398175Y-111523494D01*
X140398500Y-111525964D01*
X140249178Y-111545623D01*
X140110032Y-111603259D01*
X139990545Y-111694945D01*
X139898859Y-111814432D01*
X139841223Y-111953578D01*
X139821564Y-112102900D01*
X139841223Y-112252222D01*
X139898859Y-112391368D01*
X139990545Y-112510855D01*
X140110032Y-112602541D01*
X140249178Y-112660177D01*
X140398500Y-112679836D01*
X140547822Y-112660177D01*
X140686968Y-112602541D01*
X140806455Y-112510855D01*
X140898141Y-112391368D01*
X140954146Y-112256160D01*
X140998694Y-112200879D01*
X141059225Y-112181926D01*
X141058900Y-112179456D01*
X141208222Y-112159797D01*
X141347368Y-112102161D01*
X141466855Y-112010475D01*
X141558541Y-111890988D01*
X141616177Y-111751842D01*
X141635836Y-111602520D01*
X141616177Y-111453198D01*
X141558541Y-111314052D01*
X141466855Y-111194565D01*
X141459117Y-111188628D01*
X141458369Y-111187603D01*
X141454464Y-111183698D01*
X141455073Y-111183089D01*
X141417252Y-111131292D01*
X141413030Y-111060421D01*
X141419414Y-111040450D01*
X141452995Y-110959376D01*
X141452996Y-110959373D01*
X141456157Y-110951742D01*
X141475816Y-110802420D01*
X141456157Y-110653098D01*
X141398521Y-110513952D01*
X141333142Y-110428749D01*
X141307541Y-110362529D01*
X141321806Y-110292980D01*
X141356400Y-110252083D01*
X141401885Y-110217181D01*
X141408435Y-110212155D01*
X141500121Y-110092668D01*
X141547927Y-109977253D01*
X143708890Y-109977253D01*
X143708891Y-111028146D01*
X143713200Y-111049810D01*
X143719853Y-111083258D01*
X143723656Y-111102381D01*
X143730551Y-111112701D01*
X143730552Y-111112702D01*
X143742974Y-111131292D01*
X143779906Y-111186564D01*
X143864089Y-111242814D01*
X143938323Y-111257580D01*
X144663042Y-111257580D01*
X145387996Y-111257579D01*
X145423748Y-111250468D01*
X145450056Y-111245236D01*
X145450058Y-111245235D01*
X145462231Y-111242814D01*
X145472551Y-111235919D01*
X145472552Y-111235918D01*
X145536098Y-111193457D01*
X145546414Y-111186564D01*
X145553307Y-111176248D01*
X145562084Y-111167471D01*
X145563224Y-111168611D01*
X145606798Y-111132195D01*
X145677242Y-111123346D01*
X145714387Y-111135507D01*
X145863649Y-111211723D01*
X145863651Y-111211724D01*
X145870169Y-111215052D01*
X145877275Y-111216791D01*
X145877278Y-111216792D01*
X145955441Y-111235918D01*
X146041151Y-111256891D01*
X146046753Y-111257239D01*
X146046756Y-111257239D01*
X146050318Y-111257460D01*
X146050327Y-111257460D01*
X146052257Y-111257580D01*
X146577947Y-111257580D01*
X146581581Y-111257156D01*
X146581586Y-111257156D01*
X146701439Y-111243182D01*
X146708712Y-111242334D01*
X146780407Y-111216310D01*
X146867296Y-111184771D01*
X146874175Y-111182274D01*
X146996033Y-111102381D01*
X147015265Y-111089772D01*
X147015266Y-111089771D01*
X147021384Y-111085760D01*
X147142441Y-110957969D01*
X147230853Y-110805757D01*
X147281877Y-110637288D01*
X147292777Y-110461599D01*
X147291537Y-110454381D01*
X147264207Y-110295329D01*
X147264206Y-110295326D01*
X147262967Y-110288115D01*
X147247635Y-110252083D01*
X147196913Y-110132879D01*
X147196912Y-110132877D01*
X147194046Y-110126142D01*
X147089713Y-109984368D01*
X146955562Y-109870399D01*
X146949047Y-109867072D01*
X146949045Y-109867071D01*
X146858093Y-109820629D01*
X146798791Y-109790348D01*
X146791685Y-109788609D01*
X146791682Y-109788608D01*
X146697507Y-109765564D01*
X146627809Y-109748509D01*
X146622207Y-109748161D01*
X146622204Y-109748161D01*
X146618642Y-109747940D01*
X146618633Y-109747940D01*
X146616703Y-109747820D01*
X146091013Y-109747820D01*
X146087379Y-109748244D01*
X146087374Y-109748244D01*
X145967521Y-109762218D01*
X145960248Y-109763066D01*
X145953366Y-109765564D01*
X145875919Y-109793676D01*
X145794785Y-109823126D01*
X145732856Y-109863728D01*
X145728523Y-109866569D01*
X145660588Y-109887191D01*
X145592287Y-109867811D01*
X145554674Y-109831198D01*
X145553307Y-109829152D01*
X145546414Y-109818836D01*
X145462231Y-109762586D01*
X145387997Y-109747820D01*
X144663278Y-109747820D01*
X143938324Y-109747821D01*
X143902572Y-109754932D01*
X143876264Y-109760164D01*
X143876262Y-109760165D01*
X143864089Y-109762586D01*
X143853769Y-109769481D01*
X143853768Y-109769482D01*
X143825145Y-109788608D01*
X143779906Y-109818836D01*
X143723656Y-109903019D01*
X143708890Y-109977253D01*
X141547927Y-109977253D01*
X141557757Y-109953522D01*
X141577416Y-109804200D01*
X141557757Y-109654878D01*
X141500121Y-109515732D01*
X141408435Y-109396245D01*
X141352054Y-109352982D01*
X141310187Y-109295644D01*
X141305965Y-109224773D01*
X141340729Y-109162870D01*
X141352054Y-109153058D01*
X141401885Y-109114821D01*
X141408435Y-109109795D01*
X141500121Y-108990308D01*
X141557757Y-108851162D01*
X141577416Y-108701840D01*
X141557757Y-108552518D01*
X141500121Y-108413372D01*
X141408435Y-108293885D01*
X141288948Y-108202199D01*
X141149802Y-108144563D01*
X141000480Y-108124904D01*
X140851158Y-108144563D01*
X140851115Y-108144239D01*
X140785108Y-108142665D01*
X140726314Y-108102868D01*
X140698369Y-108037602D01*
X140710146Y-107967589D01*
X140714362Y-107959646D01*
X140715309Y-107958006D01*
X140720341Y-107951448D01*
X140777977Y-107812302D01*
X140797636Y-107662980D01*
X140786675Y-107579726D01*
X140797614Y-107509579D01*
X140844742Y-107456480D01*
X140863375Y-107446874D01*
X140968908Y-107403161D01*
X141088395Y-107311475D01*
X141180081Y-107191988D01*
X141237717Y-107052842D01*
X141247634Y-106977513D01*
X143708890Y-106977513D01*
X143708891Y-108028406D01*
X143710720Y-108037602D01*
X143719294Y-108080708D01*
X143723656Y-108102641D01*
X143730551Y-108112961D01*
X143730552Y-108112962D01*
X143763734Y-108162621D01*
X143779906Y-108186824D01*
X143864089Y-108243074D01*
X143938323Y-108257840D01*
X144663042Y-108257840D01*
X145387996Y-108257839D01*
X145423748Y-108250728D01*
X145450056Y-108245496D01*
X145450058Y-108245495D01*
X145462231Y-108243074D01*
X145472551Y-108236179D01*
X145472552Y-108236178D01*
X145536098Y-108193717D01*
X145546414Y-108186824D01*
X145553307Y-108176508D01*
X145562084Y-108167731D01*
X145563224Y-108168871D01*
X145606798Y-108132455D01*
X145677242Y-108123606D01*
X145714387Y-108135767D01*
X145863649Y-108211983D01*
X145863651Y-108211984D01*
X145870169Y-108215312D01*
X145877275Y-108217051D01*
X145877278Y-108217052D01*
X145955441Y-108236178D01*
X146041151Y-108257151D01*
X146046753Y-108257499D01*
X146046756Y-108257499D01*
X146050318Y-108257720D01*
X146050327Y-108257720D01*
X146052257Y-108257840D01*
X146577947Y-108257840D01*
X146581581Y-108257416D01*
X146581586Y-108257416D01*
X146701439Y-108243442D01*
X146708712Y-108242594D01*
X146767280Y-108221335D01*
X146867296Y-108185031D01*
X146874175Y-108182534D01*
X146980290Y-108112962D01*
X147015265Y-108090032D01*
X147015266Y-108090031D01*
X147021384Y-108086020D01*
X147142441Y-107958229D01*
X147230853Y-107806017D01*
X147281877Y-107637548D01*
X147292777Y-107461859D01*
X147277241Y-107371443D01*
X147264207Y-107295589D01*
X147264206Y-107295586D01*
X147262967Y-107288375D01*
X147253355Y-107265785D01*
X147196913Y-107133139D01*
X147196912Y-107133137D01*
X147194046Y-107126402D01*
X147089713Y-106984628D01*
X146955562Y-106870659D01*
X146949047Y-106867332D01*
X146949045Y-106867331D01*
X146858093Y-106820889D01*
X146798791Y-106790608D01*
X146791685Y-106788869D01*
X146791682Y-106788868D01*
X146697507Y-106765824D01*
X146627809Y-106748769D01*
X146622207Y-106748421D01*
X146622204Y-106748421D01*
X146618642Y-106748200D01*
X146618633Y-106748200D01*
X146616703Y-106748080D01*
X146091013Y-106748080D01*
X146087379Y-106748504D01*
X146087374Y-106748504D01*
X145967521Y-106762478D01*
X145960248Y-106763326D01*
X145953366Y-106765824D01*
X145875919Y-106793936D01*
X145794785Y-106823386D01*
X145755316Y-106849263D01*
X145728523Y-106866829D01*
X145660588Y-106887451D01*
X145592287Y-106868071D01*
X145554674Y-106831458D01*
X145553307Y-106829412D01*
X145546414Y-106819096D01*
X145462231Y-106762846D01*
X145387997Y-106748080D01*
X144663278Y-106748080D01*
X143938324Y-106748081D01*
X143902572Y-106755192D01*
X143876264Y-106760424D01*
X143876262Y-106760425D01*
X143864089Y-106762846D01*
X143853769Y-106769741D01*
X143853768Y-106769742D01*
X143825145Y-106788868D01*
X143779906Y-106819096D01*
X143723656Y-106903279D01*
X143708890Y-106977513D01*
X141247634Y-106977513D01*
X141257376Y-106903520D01*
X141237717Y-106754198D01*
X141180081Y-106615052D01*
X141088395Y-106495565D01*
X140968908Y-106403879D01*
X140829762Y-106346243D01*
X140680440Y-106326584D01*
X140531118Y-106346243D01*
X140391972Y-106403879D01*
X140272485Y-106495565D01*
X140180799Y-106615052D01*
X140123163Y-106754198D01*
X140103504Y-106903520D01*
X140114183Y-106984628D01*
X140114465Y-106986772D01*
X140103526Y-107056921D01*
X140056398Y-107110020D01*
X140037765Y-107119626D01*
X139932232Y-107163339D01*
X139812745Y-107255025D01*
X139721059Y-107374512D01*
X139663423Y-107513658D01*
X139643764Y-107662980D01*
X125600460Y-107662980D01*
X125600460Y-98602800D01*
X126123344Y-98602800D01*
X126143003Y-98752122D01*
X126200639Y-98891268D01*
X126292325Y-99010755D01*
X126411812Y-99102441D01*
X126550958Y-99160077D01*
X126700280Y-99179736D01*
X126849602Y-99160077D01*
X126988748Y-99102441D01*
X127013961Y-99083094D01*
X127080180Y-99057495D01*
X127149728Y-99071760D01*
X127200524Y-99121361D01*
X127216414Y-99175147D01*
X127217730Y-99196077D01*
X127218407Y-99206825D01*
X127219344Y-99221725D01*
X127270449Y-99379009D01*
X127274692Y-99385696D01*
X127274694Y-99385699D01*
X127308005Y-99438188D01*
X127359062Y-99518642D01*
X127479618Y-99631851D01*
X127484563Y-99634570D01*
X127527296Y-99689986D01*
X127533373Y-99760722D01*
X127500242Y-99823514D01*
X127483943Y-99837637D01*
X127466228Y-99850508D01*
X127415779Y-99887161D01*
X127310363Y-100014587D01*
X127239949Y-100164225D01*
X127238464Y-100172008D01*
X127238463Y-100172012D01*
X127210445Y-100318888D01*
X127208960Y-100326674D01*
X127219344Y-100491725D01*
X127221793Y-100499261D01*
X127221793Y-100499263D01*
X127224392Y-100507262D01*
X127270449Y-100649009D01*
X127274692Y-100655696D01*
X127274694Y-100655699D01*
X127311972Y-100714439D01*
X127359062Y-100788642D01*
X127479618Y-100901851D01*
X127484563Y-100904570D01*
X127527296Y-100959986D01*
X127533373Y-101030722D01*
X127500242Y-101093514D01*
X127483943Y-101107637D01*
X127415779Y-101157161D01*
X127310363Y-101284587D01*
X127239949Y-101434225D01*
X127238464Y-101442008D01*
X127238463Y-101442012D01*
X127220637Y-101535461D01*
X127208960Y-101596674D01*
X127213031Y-101661373D01*
X127213636Y-101670993D01*
X127197951Y-101740235D01*
X127147321Y-101790006D01*
X127077820Y-101804502D01*
X127037735Y-101792025D01*
X127037008Y-101793779D01*
X127027899Y-101790006D01*
X126897862Y-101736143D01*
X126748540Y-101716484D01*
X126599218Y-101736143D01*
X126460072Y-101793779D01*
X126340585Y-101885465D01*
X126248899Y-102004952D01*
X126191263Y-102144098D01*
X126171604Y-102293420D01*
X126191263Y-102442742D01*
X126248899Y-102581888D01*
X126340585Y-102701375D01*
X126460072Y-102793061D01*
X126599218Y-102850697D01*
X126748540Y-102870356D01*
X126897862Y-102850697D01*
X127037008Y-102793061D01*
X127038389Y-102796395D01*
X127091242Y-102783507D01*
X127158361Y-102806647D01*
X127202315Y-102862402D01*
X127211148Y-102901459D01*
X127216656Y-102988999D01*
X127219344Y-103031725D01*
X127270449Y-103189009D01*
X127274692Y-103195696D01*
X127274694Y-103195699D01*
X127316524Y-103261613D01*
X127359062Y-103328642D01*
X127479618Y-103441851D01*
X127484563Y-103444570D01*
X127527296Y-103499986D01*
X127533373Y-103570722D01*
X127500242Y-103633514D01*
X127483943Y-103647637D01*
X127415779Y-103697161D01*
X127310363Y-103824587D01*
X127239949Y-103974225D01*
X127238464Y-103982008D01*
X127238463Y-103982012D01*
X127210870Y-104126662D01*
X127208960Y-104136674D01*
X127209458Y-104144585D01*
X127218097Y-104281899D01*
X127219344Y-104301725D01*
X127270449Y-104459009D01*
X127274692Y-104465696D01*
X127274694Y-104465699D01*
X127277062Y-104469430D01*
X127359062Y-104598642D01*
X127479618Y-104711851D01*
X127484563Y-104714570D01*
X127527296Y-104769986D01*
X127533373Y-104840722D01*
X127500242Y-104903514D01*
X127483943Y-104917637D01*
X127415779Y-104967161D01*
X127310363Y-105094587D01*
X127239949Y-105244225D01*
X127238464Y-105252008D01*
X127238463Y-105252012D01*
X127237383Y-105257676D01*
X127208960Y-105406674D01*
X127219344Y-105571725D01*
X127270449Y-105729009D01*
X127274692Y-105735696D01*
X127274694Y-105735699D01*
X127295816Y-105768982D01*
X127359062Y-105868642D01*
X127479618Y-105981851D01*
X127484563Y-105984570D01*
X127527296Y-106039986D01*
X127533373Y-106110722D01*
X127500242Y-106173514D01*
X127483943Y-106187637D01*
X127415779Y-106237161D01*
X127310363Y-106364587D01*
X127239949Y-106514225D01*
X127238464Y-106522008D01*
X127238463Y-106522012D01*
X127210445Y-106668888D01*
X127208960Y-106676674D01*
X127213580Y-106750104D01*
X127218443Y-106827398D01*
X127219344Y-106841725D01*
X127221793Y-106849261D01*
X127221793Y-106849263D01*
X127244745Y-106919900D01*
X127270449Y-106999009D01*
X127274692Y-107005696D01*
X127274694Y-107005699D01*
X127328008Y-107089708D01*
X127359062Y-107138642D01*
X127479618Y-107251851D01*
X127486561Y-107255668D01*
X127497306Y-107261575D01*
X127624539Y-107331522D01*
X127784721Y-107372650D01*
X128307369Y-107372650D01*
X128354866Y-107366650D01*
X128422399Y-107358119D01*
X128422402Y-107358118D01*
X128430264Y-107357125D01*
X128437630Y-107354208D01*
X128437632Y-107354208D01*
X128576659Y-107299163D01*
X128576661Y-107299162D01*
X128584028Y-107296245D01*
X128591359Y-107290919D01*
X128593117Y-107289642D01*
X128595565Y-107288768D01*
X128597387Y-107287767D01*
X128597549Y-107288061D01*
X128659985Y-107265785D01*
X128729136Y-107281868D01*
X128748743Y-107296766D01*
X128751996Y-107301634D01*
X128836179Y-107357884D01*
X128910413Y-107372650D01*
X129534819Y-107372650D01*
X130159426Y-107372649D01*
X130195178Y-107365538D01*
X130221486Y-107360306D01*
X130221488Y-107360305D01*
X130233661Y-107357884D01*
X130243981Y-107350989D01*
X130243982Y-107350988D01*
X130307528Y-107308527D01*
X130317844Y-107301634D01*
X130374094Y-107217451D01*
X130388860Y-107143217D01*
X130388859Y-106292984D01*
X130377756Y-106237161D01*
X130376516Y-106230924D01*
X130376515Y-106230922D01*
X130374094Y-106218749D01*
X130353306Y-106187637D01*
X130324737Y-106144882D01*
X130317844Y-106134566D01*
X130239445Y-106082181D01*
X130193917Y-106027704D01*
X130187518Y-105976753D01*
X137681470Y-105976753D01*
X137681471Y-107027646D01*
X137696236Y-107101881D01*
X137703131Y-107112200D01*
X137703132Y-107112202D01*
X137716326Y-107131948D01*
X137752486Y-107186064D01*
X137836669Y-107242314D01*
X137910903Y-107257080D01*
X138635622Y-107257080D01*
X139360576Y-107257079D01*
X139396328Y-107249968D01*
X139422636Y-107244736D01*
X139422638Y-107244735D01*
X139434811Y-107242314D01*
X139445131Y-107235419D01*
X139445132Y-107235418D01*
X139508678Y-107192957D01*
X139518994Y-107186064D01*
X139575244Y-107101881D01*
X139590010Y-107027647D01*
X139590009Y-105976754D01*
X139575244Y-105902519D01*
X139518994Y-105818336D01*
X139434811Y-105762086D01*
X139360577Y-105747320D01*
X138635858Y-105747320D01*
X137910904Y-105747321D01*
X137875152Y-105754432D01*
X137848844Y-105759664D01*
X137848842Y-105759665D01*
X137836669Y-105762086D01*
X137826349Y-105768981D01*
X137826348Y-105768982D01*
X137788250Y-105794439D01*
X137752486Y-105818336D01*
X137696236Y-105902519D01*
X137681470Y-105976753D01*
X130187518Y-105976753D01*
X130185070Y-105957261D01*
X130212363Y-105897100D01*
X130216419Y-105892198D01*
X130241444Y-105861948D01*
X130286304Y-105807722D01*
X130286307Y-105807718D01*
X130291357Y-105801613D01*
X130361771Y-105651975D01*
X130363256Y-105644192D01*
X130363257Y-105644188D01*
X130391275Y-105497312D01*
X130391275Y-105497310D01*
X130392760Y-105489526D01*
X130388045Y-105414585D01*
X130382874Y-105332385D01*
X130382873Y-105332382D01*
X130382376Y-105324475D01*
X130360417Y-105256891D01*
X130339974Y-105193977D01*
X130331271Y-105167191D01*
X130327028Y-105160504D01*
X130327026Y-105160501D01*
X130246906Y-105034252D01*
X130242658Y-105027558D01*
X130122102Y-104914349D01*
X130117157Y-104911630D01*
X130074424Y-104856214D01*
X130068347Y-104785478D01*
X130101478Y-104722686D01*
X130117777Y-104708563D01*
X130179527Y-104663699D01*
X130179528Y-104663698D01*
X130185941Y-104659039D01*
X130291357Y-104531613D01*
X130361771Y-104381975D01*
X130363256Y-104374192D01*
X130363257Y-104374188D01*
X130391275Y-104227312D01*
X130391275Y-104227310D01*
X130392760Y-104219526D01*
X130388045Y-104144585D01*
X130382874Y-104062385D01*
X130382873Y-104062382D01*
X130382376Y-104054475D01*
X130357454Y-103977773D01*
X143708890Y-103977773D01*
X143708891Y-105028666D01*
X143713200Y-105050330D01*
X143720788Y-105088479D01*
X143723656Y-105102901D01*
X143730551Y-105113221D01*
X143730552Y-105113222D01*
X143743577Y-105132715D01*
X143779906Y-105187084D01*
X143864089Y-105243334D01*
X143938323Y-105258100D01*
X144663042Y-105258100D01*
X145387996Y-105258099D01*
X145423748Y-105250988D01*
X145450056Y-105245756D01*
X145450058Y-105245755D01*
X145462231Y-105243334D01*
X145472551Y-105236439D01*
X145472552Y-105236438D01*
X145536098Y-105193977D01*
X145546414Y-105187084D01*
X145553307Y-105176768D01*
X145562084Y-105167991D01*
X145563224Y-105169131D01*
X145606798Y-105132715D01*
X145677242Y-105123866D01*
X145714387Y-105136027D01*
X145863649Y-105212243D01*
X145863651Y-105212244D01*
X145870169Y-105215572D01*
X145877275Y-105217311D01*
X145877278Y-105217312D01*
X145955441Y-105236438D01*
X146041151Y-105257411D01*
X146046753Y-105257759D01*
X146046756Y-105257759D01*
X146050318Y-105257980D01*
X146050327Y-105257980D01*
X146052257Y-105258100D01*
X146577947Y-105258100D01*
X146581581Y-105257676D01*
X146581586Y-105257676D01*
X146701439Y-105243702D01*
X146708712Y-105242854D01*
X146874175Y-105182794D01*
X146996033Y-105102901D01*
X147015265Y-105090292D01*
X147015266Y-105090291D01*
X147021384Y-105086280D01*
X147142441Y-104958489D01*
X147230853Y-104806277D01*
X147237153Y-104785478D01*
X147279755Y-104644814D01*
X147281877Y-104637808D01*
X147292777Y-104462119D01*
X147291537Y-104454901D01*
X147264207Y-104295849D01*
X147264206Y-104295846D01*
X147262967Y-104288635D01*
X147260101Y-104281899D01*
X147196913Y-104133399D01*
X147196912Y-104133397D01*
X147194046Y-104126662D01*
X147089713Y-103984888D01*
X146955562Y-103870919D01*
X146949047Y-103867592D01*
X146949045Y-103867591D01*
X146857756Y-103820977D01*
X146798791Y-103790868D01*
X146791685Y-103789129D01*
X146791682Y-103789128D01*
X146690020Y-103764252D01*
X146627809Y-103749029D01*
X146622207Y-103748681D01*
X146622204Y-103748681D01*
X146618642Y-103748460D01*
X146618633Y-103748460D01*
X146616703Y-103748340D01*
X146091013Y-103748340D01*
X146087379Y-103748764D01*
X146087374Y-103748764D01*
X145967521Y-103762738D01*
X145960248Y-103763586D01*
X145953366Y-103766084D01*
X145875919Y-103794196D01*
X145794785Y-103823646D01*
X145739522Y-103859878D01*
X145728523Y-103867089D01*
X145660588Y-103887711D01*
X145592287Y-103868331D01*
X145554674Y-103831718D01*
X145553307Y-103829672D01*
X145546414Y-103819356D01*
X145462231Y-103763106D01*
X145387997Y-103748340D01*
X144663278Y-103748340D01*
X143938324Y-103748341D01*
X143902572Y-103755452D01*
X143876264Y-103760684D01*
X143876262Y-103760685D01*
X143864089Y-103763106D01*
X143853769Y-103770001D01*
X143853768Y-103770002D01*
X143828597Y-103786821D01*
X143779906Y-103819356D01*
X143723656Y-103903539D01*
X143708890Y-103977773D01*
X130357454Y-103977773D01*
X130331271Y-103897191D01*
X130327028Y-103890504D01*
X130327026Y-103890501D01*
X130246906Y-103764252D01*
X130242658Y-103757558D01*
X130122102Y-103644349D01*
X130117157Y-103641630D01*
X130074424Y-103586214D01*
X130068347Y-103515478D01*
X130101478Y-103452686D01*
X130117777Y-103438563D01*
X130179527Y-103393699D01*
X130179528Y-103393698D01*
X130185941Y-103389039D01*
X130272820Y-103284020D01*
X131543704Y-103284020D01*
X131563363Y-103433342D01*
X131620999Y-103572488D01*
X131712685Y-103691975D01*
X131832172Y-103783661D01*
X131971318Y-103841297D01*
X132120640Y-103860956D01*
X132269962Y-103841297D01*
X132409108Y-103783661D01*
X132528595Y-103691975D01*
X132620281Y-103572488D01*
X132677917Y-103433342D01*
X132697576Y-103284020D01*
X132694901Y-103263700D01*
X136103004Y-103263700D01*
X136122663Y-103413022D01*
X136180299Y-103552168D01*
X136271985Y-103671655D01*
X136391472Y-103763341D01*
X136530618Y-103820977D01*
X136679940Y-103840636D01*
X136829262Y-103820977D01*
X136968408Y-103763341D01*
X137087895Y-103671655D01*
X137179581Y-103552168D01*
X137237217Y-103413022D01*
X137256876Y-103263700D01*
X137237217Y-103114378D01*
X137179581Y-102975232D01*
X137124171Y-102903020D01*
X142922904Y-102903020D01*
X142942563Y-103052342D01*
X143000199Y-103191488D01*
X143091885Y-103310975D01*
X143211372Y-103402661D01*
X143350518Y-103460297D01*
X143499840Y-103479956D01*
X143649162Y-103460297D01*
X143788308Y-103402661D01*
X143907795Y-103310975D01*
X143999481Y-103191488D01*
X144057117Y-103052342D01*
X144076776Y-102903020D01*
X144057117Y-102753698D01*
X143999481Y-102614552D01*
X143907795Y-102495065D01*
X143788308Y-102403379D01*
X143649162Y-102345743D01*
X143499840Y-102326084D01*
X143350518Y-102345743D01*
X143211372Y-102403379D01*
X143091885Y-102495065D01*
X143000199Y-102614552D01*
X142942563Y-102753698D01*
X142922904Y-102903020D01*
X137124171Y-102903020D01*
X137087895Y-102855745D01*
X136968408Y-102764059D01*
X136829262Y-102706423D01*
X136679940Y-102686764D01*
X136530618Y-102706423D01*
X136391472Y-102764059D01*
X136271985Y-102855745D01*
X136180299Y-102975232D01*
X136122663Y-103114378D01*
X136103004Y-103263700D01*
X132694901Y-103263700D01*
X132677917Y-103134698D01*
X132620281Y-102995552D01*
X132528595Y-102876065D01*
X132409108Y-102784379D01*
X132269962Y-102726743D01*
X132120640Y-102707084D01*
X131971318Y-102726743D01*
X131832172Y-102784379D01*
X131712685Y-102876065D01*
X131620999Y-102995552D01*
X131563363Y-103134698D01*
X131543704Y-103284020D01*
X130272820Y-103284020D01*
X130291357Y-103261613D01*
X130361771Y-103111975D01*
X130363256Y-103104192D01*
X130363257Y-103104188D01*
X130391275Y-102957312D01*
X130391275Y-102957310D01*
X130392760Y-102949526D01*
X130387711Y-102869278D01*
X130382874Y-102792385D01*
X130382873Y-102792382D01*
X130382376Y-102784475D01*
X130377377Y-102769088D01*
X130350978Y-102687842D01*
X130331271Y-102627191D01*
X130327028Y-102620504D01*
X130327026Y-102620501D01*
X130246906Y-102494252D01*
X130242658Y-102487558D01*
X130122102Y-102374349D01*
X129977181Y-102294678D01*
X129816999Y-102253550D01*
X129294351Y-102253550D01*
X129246854Y-102259550D01*
X129179321Y-102268081D01*
X129179318Y-102268082D01*
X129171456Y-102269075D01*
X129164090Y-102271992D01*
X129164088Y-102271992D01*
X129025061Y-102327037D01*
X129025059Y-102327038D01*
X129017692Y-102329955D01*
X129011281Y-102334613D01*
X129011279Y-102334614D01*
X128991611Y-102348904D01*
X128883899Y-102427161D01*
X128882045Y-102429402D01*
X128820686Y-102460444D01*
X128750064Y-102453155D01*
X128711534Y-102428393D01*
X128659762Y-102379777D01*
X128653982Y-102374349D01*
X128649037Y-102371630D01*
X128606304Y-102316214D01*
X128600227Y-102245478D01*
X128633358Y-102182686D01*
X128649657Y-102168563D01*
X128708053Y-102126136D01*
X128717821Y-102119039D01*
X128823237Y-101991613D01*
X128893651Y-101841975D01*
X128895136Y-101834192D01*
X128895137Y-101834188D01*
X128923155Y-101687312D01*
X128923155Y-101687310D01*
X128924640Y-101679526D01*
X128919791Y-101602455D01*
X128916441Y-101549200D01*
X133585864Y-101549200D01*
X133605523Y-101698522D01*
X133663159Y-101837668D01*
X133754845Y-101957155D01*
X133874332Y-102048841D01*
X134013478Y-102106477D01*
X134162800Y-102126136D01*
X134312122Y-102106477D01*
X134451268Y-102048841D01*
X134570755Y-101957155D01*
X134662441Y-101837668D01*
X134720077Y-101698522D01*
X134739736Y-101549200D01*
X134720077Y-101399878D01*
X134662441Y-101260732D01*
X134570755Y-101141245D01*
X134451268Y-101049559D01*
X134312122Y-100991923D01*
X134162800Y-100972264D01*
X134013478Y-100991923D01*
X133874332Y-101049559D01*
X133754845Y-101141245D01*
X133663159Y-101260732D01*
X133605523Y-101399878D01*
X133585864Y-101549200D01*
X128916441Y-101549200D01*
X128914754Y-101522385D01*
X128914753Y-101522382D01*
X128914256Y-101514475D01*
X128863151Y-101357191D01*
X128858908Y-101350504D01*
X128858906Y-101350501D01*
X128778786Y-101224252D01*
X128774538Y-101217558D01*
X128653982Y-101104349D01*
X128649037Y-101101630D01*
X128606304Y-101046214D01*
X128600227Y-100975478D01*
X128633358Y-100912686D01*
X128649657Y-100898563D01*
X128688922Y-100870035D01*
X128717821Y-100849039D01*
X128719675Y-100846798D01*
X128781034Y-100815756D01*
X128851656Y-100823045D01*
X128890186Y-100847807D01*
X128906882Y-100863485D01*
X128947738Y-100901851D01*
X129092659Y-100981522D01*
X129252841Y-101022650D01*
X129775489Y-101022650D01*
X129822986Y-101016650D01*
X129890519Y-101008119D01*
X129890522Y-101008118D01*
X129898384Y-101007125D01*
X129905750Y-101004208D01*
X129905752Y-101004208D01*
X130044779Y-100949163D01*
X130044781Y-100949162D01*
X130052148Y-100946245D01*
X130069790Y-100933428D01*
X130179527Y-100853699D01*
X130179528Y-100853698D01*
X130185941Y-100849039D01*
X130291357Y-100721613D01*
X130297058Y-100709499D01*
X130319100Y-100662655D01*
X130361771Y-100571975D01*
X130363256Y-100564192D01*
X130363257Y-100564188D01*
X130391275Y-100417312D01*
X130391275Y-100417310D01*
X130392760Y-100409526D01*
X130388045Y-100334585D01*
X130382874Y-100252385D01*
X130382873Y-100252382D01*
X130382376Y-100244475D01*
X130331271Y-100087191D01*
X130327028Y-100080504D01*
X130327026Y-100080501D01*
X130246906Y-99954252D01*
X130242658Y-99947558D01*
X130122102Y-99834349D01*
X130117157Y-99831630D01*
X130074424Y-99776214D01*
X130068347Y-99705478D01*
X130101478Y-99642686D01*
X130117777Y-99628563D01*
X130179527Y-99583699D01*
X130179528Y-99583698D01*
X130185941Y-99579039D01*
X130291357Y-99451613D01*
X130361771Y-99301975D01*
X130363256Y-99294192D01*
X130363257Y-99294188D01*
X130388422Y-99162266D01*
X130420834Y-99099100D01*
X130482251Y-99063485D01*
X130553174Y-99066728D01*
X130588891Y-99085912D01*
X130610432Y-99102441D01*
X130749578Y-99160077D01*
X130898900Y-99179736D01*
X131048222Y-99160077D01*
X131187368Y-99102441D01*
X131306855Y-99010755D01*
X131398541Y-98891268D01*
X131456177Y-98752122D01*
X131475836Y-98602800D01*
X131456177Y-98453478D01*
X131398541Y-98314332D01*
X131306855Y-98194845D01*
X131187368Y-98103159D01*
X131048222Y-98045523D01*
X130898900Y-98025864D01*
X130749578Y-98045523D01*
X130610432Y-98103159D01*
X130565685Y-98137495D01*
X130499467Y-98163094D01*
X130429918Y-98148829D01*
X130379122Y-98099228D01*
X130363206Y-98030038D01*
X130365215Y-98013921D01*
X130365292Y-98013520D01*
X130384132Y-97914756D01*
X130391275Y-97877312D01*
X130391275Y-97877310D01*
X130392760Y-97869526D01*
X130388045Y-97794585D01*
X130382874Y-97712385D01*
X130382873Y-97712382D01*
X130382376Y-97704475D01*
X130331271Y-97547191D01*
X130327028Y-97540504D01*
X130327026Y-97540501D01*
X130246906Y-97414252D01*
X130242658Y-97407558D01*
X130122102Y-97294349D01*
X129977181Y-97214678D01*
X129816999Y-97173550D01*
X129294351Y-97173550D01*
X129246854Y-97179550D01*
X129179321Y-97188081D01*
X129179318Y-97188082D01*
X129171456Y-97189075D01*
X129164090Y-97191992D01*
X129164088Y-97191992D01*
X129025061Y-97247037D01*
X129025059Y-97247038D01*
X129017692Y-97249955D01*
X129011281Y-97254613D01*
X129011279Y-97254614D01*
X128982008Y-97275881D01*
X128883899Y-97347161D01*
X128882045Y-97349402D01*
X128820686Y-97380444D01*
X128750064Y-97373155D01*
X128711534Y-97348393D01*
X128659759Y-97299774D01*
X128653982Y-97294349D01*
X128509061Y-97214678D01*
X128348879Y-97173550D01*
X127826231Y-97173550D01*
X127778734Y-97179550D01*
X127711201Y-97188081D01*
X127711198Y-97188082D01*
X127703336Y-97189075D01*
X127695970Y-97191992D01*
X127695968Y-97191992D01*
X127556941Y-97247037D01*
X127556939Y-97247038D01*
X127549572Y-97249955D01*
X127543161Y-97254613D01*
X127543159Y-97254614D01*
X127443027Y-97327364D01*
X127415779Y-97347161D01*
X127310363Y-97474587D01*
X127306988Y-97481760D01*
X127306987Y-97481761D01*
X127299070Y-97498585D01*
X127239949Y-97624225D01*
X127238464Y-97632008D01*
X127238463Y-97632012D01*
X127215006Y-97754978D01*
X127208960Y-97786674D01*
X127209458Y-97794585D01*
X127214353Y-97872387D01*
X127219344Y-97951725D01*
X127221793Y-97959261D01*
X127221793Y-97959263D01*
X127236082Y-98003239D01*
X127238110Y-98074206D01*
X127201447Y-98135004D01*
X127137735Y-98166330D01*
X127067201Y-98158237D01*
X127039545Y-98142137D01*
X127022977Y-98129424D01*
X126988748Y-98103159D01*
X126849602Y-98045523D01*
X126700280Y-98025864D01*
X126550958Y-98045523D01*
X126411812Y-98103159D01*
X126292325Y-98194845D01*
X126200639Y-98314332D01*
X126143003Y-98453478D01*
X126123344Y-98602800D01*
X125600460Y-98602800D01*
X125600460Y-96653470D01*
X125620462Y-96585349D01*
X125637365Y-96564375D01*
X125962335Y-96239405D01*
X126024647Y-96205379D01*
X126051430Y-96202500D01*
X130080704Y-96202500D01*
X130148825Y-96222502D01*
G37*
%TD.AperFunction*%
%TD*%
%TA.AperFunction,Conductor*%
%TO.N,AGND*%
G36*
X154664068Y-84133576D02*
G01*
X155248476Y-84276669D01*
X155307668Y-84310021D01*
X156493269Y-85497297D01*
X156526091Y-85554758D01*
X156670198Y-86111525D01*
X156681190Y-86153995D01*
X156680367Y-86220162D01*
X156143798Y-88099178D01*
X155037037Y-91974948D01*
X154999099Y-92034959D01*
X154934739Y-92064932D01*
X154864392Y-92055351D01*
X154810392Y-92009259D01*
X154799471Y-91988569D01*
X154793372Y-91973845D01*
X154758921Y-91890672D01*
X154667235Y-91771185D01*
X154547748Y-91679499D01*
X154408602Y-91621863D01*
X154259280Y-91602204D01*
X154109958Y-91621863D01*
X153970812Y-91679499D01*
X153851325Y-91771185D01*
X153759639Y-91890672D01*
X153702003Y-92029818D01*
X153682344Y-92179140D01*
X153702003Y-92328462D01*
X153759639Y-92467608D01*
X153851325Y-92587095D01*
X153855347Y-92590181D01*
X153888665Y-92651197D01*
X153883600Y-92722012D01*
X153841053Y-92778848D01*
X153774533Y-92803659D01*
X153765544Y-92803980D01*
X147099020Y-92803980D01*
X147099020Y-93404071D01*
X147079018Y-93472192D01*
X147025362Y-93518685D01*
X146955088Y-93528789D01*
X146951490Y-93528051D01*
X146948622Y-93526863D01*
X146799300Y-93507204D01*
X146649978Y-93526863D01*
X146510832Y-93584499D01*
X146391345Y-93676185D01*
X146299659Y-93795672D01*
X146242023Y-93934818D01*
X146222364Y-94084140D01*
X146242023Y-94233462D01*
X146299659Y-94372608D01*
X146391345Y-94492095D01*
X146510832Y-94583781D01*
X146649978Y-94641417D01*
X146799300Y-94661076D01*
X146807488Y-94659998D01*
X146948622Y-94641417D01*
X146948791Y-94642701D01*
X147011392Y-94644194D01*
X147070185Y-94683991D01*
X147098130Y-94749257D01*
X147099020Y-94764209D01*
X147099020Y-94922813D01*
X147079018Y-94990934D01*
X147021239Y-95039221D01*
X146896912Y-95090719D01*
X146777425Y-95182405D01*
X146685739Y-95301892D01*
X146628103Y-95441038D01*
X146627025Y-95449227D01*
X146615377Y-95537698D01*
X146588053Y-95599462D01*
X146618387Y-95665882D01*
X146628103Y-95739682D01*
X146685739Y-95878828D01*
X146777425Y-95998315D01*
X146896912Y-96090001D01*
X147021239Y-96141499D01*
X147076519Y-96186046D01*
X147099020Y-96257907D01*
X147099020Y-97333202D01*
X147079018Y-97401323D01*
X147025362Y-97447816D01*
X146955088Y-97457920D01*
X146896318Y-97433165D01*
X146859168Y-97404659D01*
X146720022Y-97347023D01*
X146570700Y-97327364D01*
X146421378Y-97347023D01*
X146282232Y-97404659D01*
X146162745Y-97496345D01*
X146071059Y-97615832D01*
X146013423Y-97754978D01*
X145993764Y-97904300D01*
X146013423Y-98053622D01*
X146050775Y-98143799D01*
X146071059Y-98192768D01*
X146069640Y-98193356D01*
X146084200Y-98253383D01*
X146058307Y-98324086D01*
X146036238Y-98352845D01*
X145978902Y-98394711D01*
X145936277Y-98402140D01*
X142021025Y-98402140D01*
X141952904Y-98382138D01*
X141906411Y-98328482D01*
X141896307Y-98258208D01*
X141904616Y-98227922D01*
X141930516Y-98165393D01*
X141933677Y-98157762D01*
X141946699Y-98058852D01*
X141975422Y-97993924D01*
X142034687Y-97954833D01*
X142062243Y-97950703D01*
X142062200Y-97950376D01*
X142211522Y-97930717D01*
X142350668Y-97873081D01*
X142470155Y-97781395D01*
X142561841Y-97661908D01*
X142619477Y-97522762D01*
X142639136Y-97373440D01*
X142619477Y-97224118D01*
X142561841Y-97084972D01*
X142470155Y-96965485D01*
X142350668Y-96873799D01*
X142211522Y-96816163D01*
X142062200Y-96796504D01*
X141912878Y-96816163D01*
X141773732Y-96873799D01*
X141654245Y-96965485D01*
X141562559Y-97084972D01*
X141504923Y-97224118D01*
X141498786Y-97270733D01*
X141491901Y-97323028D01*
X141463178Y-97387956D01*
X141403913Y-97427047D01*
X141376357Y-97431177D01*
X141376400Y-97431504D01*
X141307615Y-97440560D01*
X141237466Y-97429621D01*
X141184367Y-97382493D01*
X141165177Y-97314139D01*
X141169204Y-97284892D01*
X141171677Y-97278922D01*
X141191336Y-97129600D01*
X141171677Y-96980278D01*
X141114041Y-96841132D01*
X141022355Y-96721645D01*
X140902868Y-96629959D01*
X140763722Y-96572323D01*
X140614400Y-96552664D01*
X140465078Y-96572323D01*
X140325932Y-96629959D01*
X140206445Y-96721645D01*
X140114759Y-96841132D01*
X140057123Y-96980278D01*
X140037464Y-97129600D01*
X140057123Y-97278922D01*
X140114759Y-97418068D01*
X140206445Y-97537555D01*
X140325932Y-97629241D01*
X140465078Y-97686877D01*
X140614400Y-97706536D01*
X140683185Y-97697480D01*
X140753334Y-97708419D01*
X140806433Y-97755547D01*
X140825623Y-97823901D01*
X140821596Y-97853148D01*
X140819123Y-97859118D01*
X140799464Y-98008440D01*
X140819123Y-98157762D01*
X140822284Y-98165393D01*
X140848184Y-98227922D01*
X140855773Y-98298512D01*
X140823993Y-98361999D01*
X140762935Y-98398226D01*
X140731775Y-98402140D01*
X139851250Y-98402140D01*
X139783129Y-98382138D01*
X139762155Y-98365235D01*
X139437185Y-98040265D01*
X139403159Y-97977953D01*
X139400280Y-97951170D01*
X139400280Y-95709740D01*
X143052444Y-95709740D01*
X143072103Y-95859062D01*
X143129739Y-95998208D01*
X143221425Y-96117695D01*
X143340912Y-96209381D01*
X143480058Y-96267017D01*
X143629380Y-96286676D01*
X143778702Y-96267017D01*
X143917848Y-96209381D01*
X144037335Y-96117695D01*
X144129021Y-95998208D01*
X144186657Y-95859062D01*
X144206316Y-95709740D01*
X144193609Y-95613220D01*
X145221604Y-95613220D01*
X145241263Y-95762542D01*
X145298899Y-95901688D01*
X145390585Y-96021175D01*
X145510072Y-96112861D01*
X145649218Y-96170497D01*
X145798540Y-96190156D01*
X145947862Y-96170497D01*
X146087008Y-96112861D01*
X146206495Y-96021175D01*
X146298181Y-95901688D01*
X146355817Y-95762542D01*
X146368543Y-95665882D01*
X146395867Y-95604118D01*
X146365533Y-95537697D01*
X146356895Y-95472088D01*
X146356895Y-95472087D01*
X146355817Y-95463898D01*
X146298181Y-95324752D01*
X146206495Y-95205265D01*
X146087008Y-95113579D01*
X145947862Y-95055943D01*
X145798540Y-95036284D01*
X145649218Y-95055943D01*
X145510072Y-95113579D01*
X145390585Y-95205265D01*
X145298899Y-95324752D01*
X145241263Y-95463898D01*
X145221604Y-95613220D01*
X144193609Y-95613220D01*
X144186657Y-95560418D01*
X144129021Y-95421272D01*
X144037335Y-95301785D01*
X143917848Y-95210099D01*
X143778702Y-95152463D01*
X143629380Y-95132804D01*
X143480058Y-95152463D01*
X143340912Y-95210099D01*
X143221425Y-95301785D01*
X143129739Y-95421272D01*
X143072103Y-95560418D01*
X143052444Y-95709740D01*
X139400280Y-95709740D01*
X139400280Y-95603060D01*
X131186990Y-95603060D01*
X131118869Y-95583058D01*
X131087028Y-95553764D01*
X131039616Y-95491975D01*
X130996975Y-95436405D01*
X130877488Y-95344719D01*
X130738342Y-95287083D01*
X130589020Y-95267424D01*
X130439698Y-95287083D01*
X130300552Y-95344719D01*
X130181065Y-95436405D01*
X130138425Y-95491975D01*
X130091012Y-95553764D01*
X130033674Y-95595631D01*
X129991050Y-95603060D01*
X129024768Y-95603060D01*
X128956647Y-95583058D01*
X128910154Y-95529402D01*
X128901000Y-95453450D01*
X128904824Y-95433407D01*
X128924640Y-95329526D01*
X128919925Y-95254585D01*
X128914754Y-95172385D01*
X128914753Y-95172382D01*
X128914256Y-95164475D01*
X128903966Y-95132804D01*
X128880019Y-95059104D01*
X128863151Y-95007191D01*
X128858908Y-95000504D01*
X128858906Y-95000501D01*
X128778786Y-94874252D01*
X128774538Y-94867558D01*
X128653982Y-94754349D01*
X128509061Y-94674678D01*
X128348879Y-94633550D01*
X127826231Y-94633550D01*
X127788979Y-94638256D01*
X127711201Y-94648081D01*
X127711198Y-94648082D01*
X127703336Y-94649075D01*
X127695970Y-94651992D01*
X127695968Y-94651992D01*
X127556941Y-94707037D01*
X127556939Y-94707038D01*
X127549572Y-94709955D01*
X127543161Y-94714613D01*
X127543159Y-94714614D01*
X127446197Y-94785061D01*
X127415779Y-94807161D01*
X127310363Y-94934587D01*
X127239949Y-95084225D01*
X127238464Y-95092008D01*
X127238463Y-95092012D01*
X127210445Y-95238888D01*
X127208960Y-95246674D01*
X127211502Y-95287083D01*
X127214930Y-95341559D01*
X127219344Y-95411725D01*
X127227922Y-95438126D01*
X127229950Y-95509090D01*
X127193288Y-95569888D01*
X127129577Y-95601214D01*
X127108089Y-95603060D01*
X125949830Y-95603060D01*
X125881709Y-95583058D01*
X125860735Y-95566155D01*
X125535765Y-95241185D01*
X125501739Y-95178873D01*
X125498860Y-95152090D01*
X125498860Y-93202760D01*
X126722784Y-93202760D01*
X126742443Y-93352082D01*
X126800079Y-93491228D01*
X126891765Y-93610715D01*
X127011252Y-93702401D01*
X127150398Y-93760037D01*
X127299720Y-93779696D01*
X127449042Y-93760037D01*
X127586404Y-93703140D01*
X132323484Y-93703140D01*
X132343143Y-93852462D01*
X132400779Y-93991608D01*
X132492465Y-94111095D01*
X132611952Y-94202781D01*
X132721091Y-94247988D01*
X132776371Y-94292535D01*
X132798792Y-94359898D01*
X132797794Y-94380842D01*
X132793384Y-94414340D01*
X132813043Y-94563662D01*
X132870679Y-94702808D01*
X132962365Y-94822295D01*
X133081852Y-94913981D01*
X133220998Y-94971617D01*
X133370320Y-94991276D01*
X133519642Y-94971617D01*
X133658788Y-94913981D01*
X133778275Y-94822295D01*
X133869961Y-94702808D01*
X133927597Y-94563662D01*
X133947256Y-94414340D01*
X133929867Y-94282260D01*
X134492644Y-94282260D01*
X134512303Y-94431582D01*
X134569939Y-94570728D01*
X134661625Y-94690215D01*
X134781112Y-94781901D01*
X134920258Y-94839537D01*
X135069580Y-94859196D01*
X135218902Y-94839537D01*
X135358048Y-94781901D01*
X135477535Y-94690215D01*
X135569221Y-94570728D01*
X135626857Y-94431582D01*
X135646516Y-94282260D01*
X135626857Y-94132938D01*
X135569221Y-93993792D01*
X135477535Y-93874305D01*
X135358048Y-93782619D01*
X135218902Y-93724983D01*
X135069580Y-93705324D01*
X134920258Y-93724983D01*
X134781112Y-93782619D01*
X134661625Y-93874305D01*
X134569939Y-93993792D01*
X134512303Y-94132938D01*
X134492644Y-94282260D01*
X133929867Y-94282260D01*
X133927597Y-94265018D01*
X133869961Y-94125872D01*
X133778275Y-94006385D01*
X133658788Y-93914699D01*
X133549649Y-93869492D01*
X133494369Y-93824945D01*
X133471948Y-93757582D01*
X133472946Y-93736638D01*
X133476278Y-93711329D01*
X133476278Y-93711328D01*
X133477356Y-93703140D01*
X133470668Y-93652340D01*
X136153804Y-93652340D01*
X136173463Y-93801662D01*
X136231099Y-93940808D01*
X136322785Y-94060295D01*
X136442272Y-94151981D01*
X136581418Y-94209617D01*
X136604686Y-94212680D01*
X136641102Y-94217475D01*
X136706028Y-94246198D01*
X136745119Y-94305464D01*
X136749576Y-94325950D01*
X136755123Y-94368082D01*
X136812759Y-94507228D01*
X136904445Y-94626715D01*
X137023932Y-94718401D01*
X137163078Y-94776037D01*
X137312400Y-94795696D01*
X137461722Y-94776037D01*
X137600868Y-94718401D01*
X137720355Y-94626715D01*
X137812041Y-94507228D01*
X137869677Y-94368082D01*
X137889336Y-94218760D01*
X137869677Y-94069438D01*
X137812041Y-93930292D01*
X137720355Y-93810805D01*
X137600868Y-93719119D01*
X137461722Y-93661483D01*
X137433869Y-93657816D01*
X137402038Y-93653625D01*
X137337112Y-93624902D01*
X137298021Y-93565636D01*
X137293564Y-93545150D01*
X137293449Y-93544275D01*
X137288017Y-93503018D01*
X137230381Y-93363872D01*
X137138695Y-93244385D01*
X137084448Y-93202760D01*
X141322704Y-93202760D01*
X141342363Y-93352082D01*
X141399999Y-93491228D01*
X141491685Y-93610715D01*
X141611172Y-93702401D01*
X141750318Y-93760037D01*
X141899640Y-93779696D01*
X141907828Y-93778618D01*
X141907829Y-93778618D01*
X142044378Y-93760641D01*
X142114526Y-93771580D01*
X142167625Y-93818708D01*
X142177233Y-93837345D01*
X142180103Y-93844273D01*
X142200099Y-93892548D01*
X142291785Y-94012035D01*
X142411272Y-94103721D01*
X142550418Y-94161357D01*
X142699740Y-94181016D01*
X142849062Y-94161357D01*
X142988208Y-94103721D01*
X143107695Y-94012035D01*
X143199381Y-93892548D01*
X143257017Y-93753402D01*
X143262297Y-93713300D01*
X143923664Y-93713300D01*
X143943323Y-93862622D01*
X144000959Y-94001768D01*
X144092645Y-94121255D01*
X144212132Y-94212941D01*
X144351278Y-94270577D01*
X144500600Y-94290236D01*
X144649922Y-94270577D01*
X144789068Y-94212941D01*
X144908555Y-94121255D01*
X145000241Y-94001768D01*
X145057877Y-93862622D01*
X145069119Y-93777234D01*
X145097842Y-93712307D01*
X145157107Y-93673216D01*
X145210487Y-93668759D01*
X145300700Y-93680636D01*
X145450022Y-93660977D01*
X145589168Y-93603341D01*
X145708655Y-93511655D01*
X145800341Y-93392168D01*
X145857977Y-93253022D01*
X145877636Y-93103700D01*
X145857977Y-92954378D01*
X145800341Y-92815232D01*
X145708655Y-92695745D01*
X145589168Y-92604059D01*
X145450022Y-92546423D01*
X145300700Y-92526764D01*
X145151378Y-92546423D01*
X145012232Y-92604059D01*
X144892745Y-92695745D01*
X144801059Y-92815232D01*
X144743423Y-92954378D01*
X144742345Y-92962567D01*
X144732181Y-93039766D01*
X144703458Y-93104693D01*
X144644193Y-93143784D01*
X144590813Y-93148241D01*
X144500600Y-93136364D01*
X144351278Y-93156023D01*
X144212132Y-93213659D01*
X144092645Y-93305345D01*
X144000959Y-93424832D01*
X143943323Y-93563978D01*
X143923664Y-93713300D01*
X143262297Y-93713300D01*
X143276676Y-93604080D01*
X143257017Y-93454758D01*
X143199381Y-93315612D01*
X143107695Y-93196125D01*
X142988208Y-93104439D01*
X142849062Y-93046803D01*
X142699740Y-93027144D01*
X142691552Y-93028222D01*
X142691551Y-93028222D01*
X142555002Y-93046199D01*
X142484854Y-93035260D01*
X142431755Y-92988132D01*
X142422147Y-92969495D01*
X142412724Y-92946747D01*
X142399281Y-92914292D01*
X142307595Y-92794805D01*
X142188108Y-92703119D01*
X142048962Y-92645483D01*
X141899640Y-92625824D01*
X141750318Y-92645483D01*
X141611172Y-92703119D01*
X141491685Y-92794805D01*
X141399999Y-92914292D01*
X141342363Y-93053438D01*
X141322704Y-93202760D01*
X137084448Y-93202760D01*
X137019208Y-93152699D01*
X136880062Y-93095063D01*
X136730740Y-93075404D01*
X136581418Y-93095063D01*
X136442272Y-93152699D01*
X136322785Y-93244385D01*
X136231099Y-93363872D01*
X136173463Y-93503018D01*
X136153804Y-93652340D01*
X133470668Y-93652340D01*
X133457697Y-93553818D01*
X133400061Y-93414672D01*
X133308375Y-93295185D01*
X133188888Y-93203499D01*
X133049742Y-93145863D01*
X132900420Y-93126204D01*
X132751098Y-93145863D01*
X132611952Y-93203499D01*
X132492465Y-93295185D01*
X132400779Y-93414672D01*
X132343143Y-93553818D01*
X132323484Y-93703140D01*
X127586404Y-93703140D01*
X127588188Y-93702401D01*
X127707675Y-93610715D01*
X127799361Y-93491228D01*
X127856997Y-93352082D01*
X127876656Y-93202760D01*
X127856997Y-93053438D01*
X127799361Y-92914292D01*
X127707675Y-92794805D01*
X127588188Y-92703119D01*
X127449042Y-92645483D01*
X127299720Y-92625824D01*
X127150398Y-92645483D01*
X127011252Y-92703119D01*
X126891765Y-92794805D01*
X126800079Y-92914292D01*
X126742443Y-93053438D01*
X126722784Y-93202760D01*
X125498860Y-93202760D01*
X125498860Y-92402660D01*
X125140748Y-91580315D01*
X125131889Y-91509876D01*
X125162520Y-91445827D01*
X125222916Y-91408506D01*
X125298567Y-91411842D01*
X125301249Y-91413212D01*
X125472231Y-91455051D01*
X125477833Y-91455399D01*
X125477836Y-91455399D01*
X125481398Y-91455620D01*
X125481407Y-91455620D01*
X125483337Y-91455740D01*
X126009027Y-91455740D01*
X126012661Y-91455316D01*
X126012666Y-91455316D01*
X126132519Y-91441342D01*
X126139792Y-91440494D01*
X126305255Y-91380434D01*
X126371517Y-91336991D01*
X126439452Y-91316369D01*
X126507753Y-91335749D01*
X126545366Y-91372362D01*
X126553626Y-91384724D01*
X126637809Y-91440974D01*
X126712043Y-91455740D01*
X126751725Y-91455740D01*
X127681155Y-91455739D01*
X127749275Y-91475741D01*
X127795768Y-91529397D01*
X127806076Y-91598186D01*
X127792124Y-91704160D01*
X127811783Y-91853482D01*
X127869419Y-91992628D01*
X127961105Y-92112115D01*
X128080592Y-92203801D01*
X128219738Y-92261437D01*
X128369060Y-92281096D01*
X128518382Y-92261437D01*
X128657528Y-92203801D01*
X128777015Y-92112115D01*
X128868701Y-91992628D01*
X128926337Y-91853482D01*
X128945996Y-91704160D01*
X128926337Y-91554838D01*
X128905072Y-91503500D01*
X134322464Y-91503500D01*
X134342123Y-91652822D01*
X134399759Y-91791968D01*
X134491445Y-91911455D01*
X134610932Y-92003141D01*
X134750078Y-92060777D01*
X134801903Y-92067600D01*
X134866830Y-92096322D01*
X134905922Y-92155588D01*
X134906767Y-92226579D01*
X134899632Y-92243522D01*
X134900139Y-92243732D01*
X134842503Y-92382878D01*
X134822844Y-92532200D01*
X134842503Y-92681522D01*
X134900139Y-92820668D01*
X134991825Y-92940155D01*
X135111312Y-93031841D01*
X135250458Y-93089477D01*
X135399780Y-93109136D01*
X135549102Y-93089477D01*
X135688248Y-93031841D01*
X135807735Y-92940155D01*
X135899421Y-92820668D01*
X135957057Y-92681522D01*
X135976716Y-92532200D01*
X135957057Y-92382878D01*
X135899421Y-92243732D01*
X135807735Y-92124245D01*
X135688248Y-92032559D01*
X135549102Y-91974923D01*
X135497277Y-91968100D01*
X135432350Y-91939378D01*
X135393258Y-91880112D01*
X135392413Y-91809121D01*
X135399548Y-91792178D01*
X135399041Y-91791968D01*
X135453516Y-91660453D01*
X135456677Y-91652822D01*
X135476336Y-91503500D01*
X135456677Y-91354178D01*
X135399041Y-91215032D01*
X135351427Y-91152980D01*
X142171064Y-91152980D01*
X142190723Y-91302302D01*
X142248359Y-91441448D01*
X142340045Y-91560935D01*
X142459532Y-91652621D01*
X142598678Y-91710257D01*
X142748000Y-91729916D01*
X142897322Y-91710257D01*
X142912042Y-91704160D01*
X151022964Y-91704160D01*
X151042623Y-91853482D01*
X151100259Y-91992628D01*
X151191945Y-92112115D01*
X151311432Y-92203801D01*
X151450578Y-92261437D01*
X151599900Y-92281096D01*
X151749222Y-92261437D01*
X151888368Y-92203801D01*
X152007855Y-92112115D01*
X152099541Y-91992628D01*
X152157177Y-91853482D01*
X152176836Y-91704160D01*
X152157177Y-91554838D01*
X152099541Y-91415692D01*
X152007855Y-91296205D01*
X151888368Y-91204519D01*
X151749222Y-91146883D01*
X151599900Y-91127224D01*
X151450578Y-91146883D01*
X151311432Y-91204519D01*
X151191945Y-91296205D01*
X151100259Y-91415692D01*
X151042623Y-91554838D01*
X151022964Y-91704160D01*
X142912042Y-91704160D01*
X143036468Y-91652621D01*
X143155955Y-91560935D01*
X143247641Y-91441448D01*
X143305277Y-91302302D01*
X143324936Y-91152980D01*
X143305277Y-91003658D01*
X143247641Y-90864512D01*
X143155955Y-90745025D01*
X143036468Y-90653339D01*
X142897322Y-90595703D01*
X142748000Y-90576044D01*
X142598678Y-90595703D01*
X142459532Y-90653339D01*
X142340045Y-90745025D01*
X142248359Y-90864512D01*
X142190723Y-91003658D01*
X142171064Y-91152980D01*
X135351427Y-91152980D01*
X135307355Y-91095545D01*
X135187868Y-91003859D01*
X135048722Y-90946223D01*
X134899400Y-90926564D01*
X134750078Y-90946223D01*
X134610932Y-91003859D01*
X134491445Y-91095545D01*
X134399759Y-91215032D01*
X134342123Y-91354178D01*
X134322464Y-91503500D01*
X128905072Y-91503500D01*
X128868701Y-91415692D01*
X128777015Y-91296205D01*
X128657528Y-91204519D01*
X128518382Y-91146883D01*
X128500700Y-91144555D01*
X128435774Y-91115830D01*
X128396684Y-91056564D01*
X128391150Y-91019633D01*
X128391149Y-90181603D01*
X128391149Y-90175414D01*
X128381616Y-90127484D01*
X128378806Y-90113354D01*
X128378805Y-90113352D01*
X128376937Y-90103960D01*
X133032144Y-90103960D01*
X133051803Y-90253282D01*
X133109439Y-90392428D01*
X133201125Y-90511915D01*
X133320612Y-90603601D01*
X133459758Y-90661237D01*
X133609080Y-90680896D01*
X133758402Y-90661237D01*
X133897548Y-90603601D01*
X134017035Y-90511915D01*
X134108721Y-90392428D01*
X134166357Y-90253282D01*
X134186016Y-90103960D01*
X134166357Y-89954638D01*
X134108721Y-89815492D01*
X134017035Y-89696005D01*
X133897548Y-89604319D01*
X133758402Y-89546683D01*
X133609080Y-89527024D01*
X133459758Y-89546683D01*
X133320612Y-89604319D01*
X133201125Y-89696005D01*
X133109439Y-89815492D01*
X133051803Y-89954638D01*
X133032144Y-90103960D01*
X128376937Y-90103960D01*
X128376384Y-90101179D01*
X128362376Y-90080214D01*
X128327027Y-90027312D01*
X128320134Y-90016996D01*
X128235951Y-89960746D01*
X128161717Y-89945980D01*
X127436998Y-89945980D01*
X126712044Y-89945981D01*
X126676292Y-89953092D01*
X126649984Y-89958324D01*
X126649982Y-89958325D01*
X126637809Y-89960746D01*
X126627489Y-89967641D01*
X126627488Y-89967642D01*
X126567095Y-90007996D01*
X126553626Y-90016996D01*
X126546733Y-90027312D01*
X126537956Y-90036089D01*
X126536816Y-90034949D01*
X126493242Y-90071365D01*
X126422798Y-90080214D01*
X126385653Y-90068053D01*
X126236391Y-89991837D01*
X126236389Y-89991836D01*
X126229871Y-89988508D01*
X126222765Y-89986769D01*
X126222762Y-89986768D01*
X126124921Y-89962827D01*
X126058889Y-89946669D01*
X126053287Y-89946321D01*
X126053284Y-89946321D01*
X126049722Y-89946100D01*
X126049713Y-89946100D01*
X126047783Y-89945980D01*
X125522093Y-89945980D01*
X125518459Y-89946404D01*
X125518454Y-89946404D01*
X125398601Y-89960378D01*
X125391328Y-89961226D01*
X125225865Y-90021286D01*
X125123114Y-90088652D01*
X125087277Y-90112148D01*
X125078656Y-90117800D01*
X124957599Y-90245591D01*
X124869187Y-90397803D01*
X124867065Y-90404811D01*
X124864148Y-90411519D01*
X124861560Y-90410394D01*
X124829756Y-90458954D01*
X124764922Y-90487887D01*
X124694738Y-90477176D01*
X124641487Y-90430220D01*
X124632557Y-90413341D01*
X123693901Y-88257876D01*
X123685041Y-88187434D01*
X123715672Y-88123385D01*
X123776068Y-88086064D01*
X123825869Y-88082647D01*
X123959620Y-88100256D01*
X124108942Y-88080597D01*
X124248088Y-88022961D01*
X124367575Y-87931275D01*
X124459261Y-87811788D01*
X124516897Y-87672642D01*
X124536556Y-87523320D01*
X124516897Y-87373998D01*
X124459261Y-87234852D01*
X124367575Y-87115365D01*
X124248088Y-87023679D01*
X124108942Y-86966043D01*
X123959620Y-86946384D01*
X123810298Y-86966043D01*
X123671152Y-87023679D01*
X123551665Y-87115365D01*
X123459979Y-87234852D01*
X123459049Y-87234138D01*
X123413418Y-87277642D01*
X123343703Y-87291074D01*
X123277794Y-87264683D01*
X123240167Y-87215952D01*
X122973566Y-86603748D01*
X122965292Y-86529974D01*
X122985749Y-86422062D01*
X123073586Y-85958702D01*
X123108286Y-85893074D01*
X123799616Y-85201744D01*
X123840493Y-85174430D01*
X124474945Y-84911631D01*
X124523163Y-84902040D01*
X133249550Y-84902040D01*
X133317671Y-84922042D01*
X133338645Y-84938945D01*
X133663615Y-85263915D01*
X133697641Y-85326227D01*
X133700520Y-85353010D01*
X133700520Y-86603840D01*
X135898447Y-86603840D01*
X135966568Y-86623842D01*
X136013061Y-86677498D01*
X136023165Y-86747772D01*
X135993671Y-86812352D01*
X135975152Y-86829801D01*
X135890985Y-86894385D01*
X135799299Y-87013872D01*
X135741663Y-87153018D01*
X135722004Y-87302340D01*
X135741663Y-87451662D01*
X135799299Y-87590808D01*
X135890985Y-87710295D01*
X136010472Y-87801981D01*
X136149618Y-87859617D01*
X136298940Y-87879276D01*
X136448262Y-87859617D01*
X136587408Y-87801981D01*
X136706895Y-87710295D01*
X136798581Y-87590808D01*
X136856217Y-87451662D01*
X136875876Y-87302340D01*
X136856217Y-87153018D01*
X136798581Y-87013872D01*
X136706895Y-86894385D01*
X136622729Y-86829802D01*
X136580862Y-86772464D01*
X136576640Y-86701593D01*
X136611404Y-86639691D01*
X136674117Y-86606409D01*
X136699433Y-86603840D01*
X141324915Y-86603840D01*
X141393036Y-86623842D01*
X141439529Y-86677498D01*
X141449633Y-86747772D01*
X141420139Y-86812352D01*
X141388824Y-86838209D01*
X141382572Y-86840799D01*
X141263085Y-86932485D01*
X141171399Y-87051972D01*
X141113763Y-87191118D01*
X141094104Y-87340440D01*
X141113763Y-87489762D01*
X141171399Y-87628908D01*
X141263085Y-87748395D01*
X141382572Y-87840081D01*
X141521718Y-87897717D01*
X141671040Y-87917376D01*
X141820362Y-87897717D01*
X141959508Y-87840081D01*
X142078995Y-87748395D01*
X142170681Y-87628908D01*
X142228317Y-87489762D01*
X142247976Y-87340440D01*
X142228317Y-87191118D01*
X142170681Y-87051972D01*
X142078995Y-86932485D01*
X141959508Y-86840799D01*
X141953575Y-86838342D01*
X141905171Y-86787576D01*
X141891736Y-86717862D01*
X141918123Y-86651951D01*
X141975955Y-86610770D01*
X142017165Y-86603840D01*
X144609731Y-86603840D01*
X144677852Y-86623842D01*
X144724345Y-86677498D01*
X144734449Y-86747772D01*
X144704955Y-86812352D01*
X144657949Y-86846249D01*
X144542332Y-86894139D01*
X144422845Y-86985825D01*
X144331159Y-87105312D01*
X144273523Y-87244458D01*
X144253864Y-87393780D01*
X144273523Y-87543102D01*
X144331159Y-87682248D01*
X144422845Y-87801735D01*
X144542332Y-87893421D01*
X144681478Y-87951057D01*
X144830800Y-87970716D01*
X144980122Y-87951057D01*
X145119268Y-87893421D01*
X145238755Y-87801735D01*
X145330441Y-87682248D01*
X145388077Y-87543102D01*
X145407736Y-87393780D01*
X145388077Y-87244458D01*
X145330441Y-87105312D01*
X145238755Y-86985825D01*
X145119268Y-86894139D01*
X145003651Y-86846249D01*
X144948370Y-86801701D01*
X144925949Y-86734337D01*
X144943507Y-86665546D01*
X144995469Y-86617168D01*
X145051869Y-86603840D01*
X146763740Y-86603840D01*
X146857809Y-86574137D01*
X146885993Y-86598063D01*
X146906684Y-86665977D01*
X146905612Y-86683696D01*
X146903084Y-86702900D01*
X146922743Y-86852222D01*
X146980379Y-86991368D01*
X147072065Y-87110855D01*
X147191552Y-87202541D01*
X147330698Y-87260177D01*
X147480020Y-87279836D01*
X147629342Y-87260177D01*
X147768488Y-87202541D01*
X147887975Y-87110855D01*
X147979661Y-86991368D01*
X148037297Y-86852222D01*
X148056956Y-86702900D01*
X149521824Y-86702900D01*
X149541483Y-86852222D01*
X149599119Y-86991368D01*
X149690805Y-87110855D01*
X149810292Y-87202541D01*
X149949438Y-87260177D01*
X150098760Y-87279836D01*
X150248082Y-87260177D01*
X150387228Y-87202541D01*
X150388277Y-87205073D01*
X150444192Y-87191515D01*
X150511281Y-87214745D01*
X150538142Y-87240668D01*
X150592505Y-87311515D01*
X150711992Y-87403201D01*
X150851138Y-87460837D01*
X151000460Y-87480496D01*
X151149782Y-87460837D01*
X151288928Y-87403201D01*
X151408415Y-87311515D01*
X151500101Y-87192028D01*
X151557737Y-87052882D01*
X151577396Y-86903560D01*
X151557737Y-86754238D01*
X151522795Y-86669880D01*
X154853284Y-86669880D01*
X154872943Y-86819202D01*
X154930579Y-86958348D01*
X155022265Y-87077835D01*
X155141752Y-87169521D01*
X155280898Y-87227157D01*
X155430220Y-87246816D01*
X155579542Y-87227157D01*
X155718688Y-87169521D01*
X155838175Y-87077835D01*
X155929861Y-86958348D01*
X155987497Y-86819202D01*
X156007156Y-86669880D01*
X155987497Y-86520558D01*
X155929861Y-86381412D01*
X155838175Y-86261925D01*
X155718688Y-86170239D01*
X155579542Y-86112603D01*
X155430220Y-86092944D01*
X155280898Y-86112603D01*
X155141752Y-86170239D01*
X155022265Y-86261925D01*
X154930579Y-86381412D01*
X154872943Y-86520558D01*
X154853284Y-86669880D01*
X151522795Y-86669880D01*
X151500101Y-86615092D01*
X151408415Y-86495605D01*
X151288928Y-86403919D01*
X151149782Y-86346283D01*
X151000460Y-86326624D01*
X150851138Y-86346283D01*
X150711992Y-86403919D01*
X150710943Y-86401387D01*
X150655028Y-86414945D01*
X150587939Y-86391715D01*
X150561078Y-86365792D01*
X150511741Y-86301495D01*
X150506715Y-86294945D01*
X150387228Y-86203259D01*
X150248082Y-86145623D01*
X150098760Y-86125964D01*
X149949438Y-86145623D01*
X149810292Y-86203259D01*
X149690805Y-86294945D01*
X149599119Y-86414432D01*
X149541483Y-86553578D01*
X149521824Y-86702900D01*
X148056956Y-86702900D01*
X148037297Y-86553578D01*
X147979661Y-86414432D01*
X147969004Y-86400544D01*
X147943402Y-86334326D01*
X147957665Y-86264777D01*
X148007265Y-86213980D01*
X148031026Y-86203686D01*
X154587047Y-84133576D01*
X154654952Y-84131344D01*
X154664068Y-84133576D01*
G37*
%TD.AperFunction*%
%TD*%
M02*
