%TF.GenerationSoftware,KiCad,Pcbnew,6.0.2-378541a8eb~116~ubuntu20.04.1*%
%TF.CreationDate,2022-03-13T20:33:59-06:00*%
%TF.ProjectId,Crazyflie contol board,4372617a-7966-46c6-9965-20636f6e746f,F*%
%TF.SameCoordinates,Original*%
%TF.FileFunction,Soldermask,Bot*%
%TF.FilePolarity,Negative*%
%FSLAX46Y46*%
G04 Gerber Fmt 4.6, Leading zero omitted, Abs format (unit mm)*
G04 Created by KiCad (PCBNEW 6.0.2-378541a8eb~116~ubuntu20.04.1) date 2022-03-13 20:33:59*
%MOMM*%
%LPD*%
G01*
G04 APERTURE LIST*
G04 Aperture macros list*
%AMRoundRect*
0 Rectangle with rounded corners*
0 $1 Rounding radius*
0 $2 $3 $4 $5 $6 $7 $8 $9 X,Y pos of 4 corners*
0 Add a 4 corners polygon primitive as box body*
4,1,4,$2,$3,$4,$5,$6,$7,$8,$9,$2,$3,0*
0 Add four circle primitives for the rounded corners*
1,1,$1+$1,$2,$3*
1,1,$1+$1,$4,$5*
1,1,$1+$1,$6,$7*
1,1,$1+$1,$8,$9*
0 Add four rect primitives between the rounded corners*
20,1,$1+$1,$2,$3,$4,$5,0*
20,1,$1+$1,$4,$5,$6,$7,0*
20,1,$1+$1,$6,$7,$8,$9,0*
20,1,$1+$1,$8,$9,$2,$3,0*%
G04 Aperture macros list end*
%ADD10C,0.523240*%
%ADD11RoundRect,0.071120X0.599440X-0.400050X0.599440X0.400050X-0.599440X0.400050X-0.599440X-0.400050X0*%
%ADD12O,1.341120X0.942340*%
%ADD13RoundRect,0.071120X0.699770X-0.500380X0.699770X0.500380X-0.699770X0.500380X-0.699770X-0.500380X0*%
%ADD14O,1.541780X1.143000*%
%ADD15C,1.943100*%
%ADD16RoundRect,0.071120X0.599440X-0.800100X0.599440X0.800100X-0.599440X0.800100X-0.599440X-0.800100X0*%
%ADD17O,1.341120X1.742440*%
%ADD18RoundRect,0.071120X-0.949960X-0.549910X0.949960X-0.549910X0.949960X0.549910X-0.949960X0.549910X0*%
%ADD19RoundRect,0.071120X0.350520X0.500380X-0.350520X0.500380X-0.350520X-0.500380X0.350520X-0.500380X0*%
%ADD20RoundRect,0.071120X-0.350520X-0.500380X0.350520X-0.500380X0.350520X0.500380X-0.350520X0.500380X0*%
%ADD21RoundRect,0.071120X0.500380X0.299720X-0.500380X0.299720X-0.500380X-0.299720X0.500380X-0.299720X0*%
%ADD22RoundRect,0.071120X0.317500X0.571500X-0.317500X0.571500X-0.317500X-0.571500X0.317500X-0.571500X0*%
%ADD23RoundRect,0.071120X-0.317500X-0.571500X0.317500X-0.571500X0.317500X0.571500X-0.317500X0.571500X0*%
%ADD24RoundRect,0.071120X-0.571500X0.317500X-0.571500X-0.317500X0.571500X-0.317500X0.571500X0.317500X0*%
%ADD25RoundRect,0.071120X0.571500X-0.317500X0.571500X0.317500X-0.571500X0.317500X-0.571500X-0.317500X0*%
%ADD26RoundRect,0.071120X-0.149860X-0.650240X0.149860X-0.650240X0.149860X0.650240X-0.149860X0.650240X0*%
%ADD27RoundRect,0.071120X-0.650240X-0.149860X0.650240X-0.149860X0.650240X0.149860X-0.650240X0.149860X0*%
%ADD28RoundRect,0.071120X0.199390X-0.254000X0.199390X0.254000X-0.199390X0.254000X-0.199390X-0.254000X0*%
%ADD29RoundRect,0.071120X-1.050290X-0.800100X1.050290X-0.800100X1.050290X0.800100X-1.050290X0.800100X0*%
%ADD30RoundRect,0.071120X-0.599440X-0.949960X0.599440X-0.949960X0.599440X0.949960X-0.599440X0.949960X0*%
%ADD31RoundRect,0.071120X-0.900430X-0.549910X0.900430X-0.549910X0.900430X0.549910X-0.900430X0.549910X0*%
%ADD32RoundRect,0.071120X-0.949960X-0.949960X0.949960X-0.949960X0.949960X0.949960X-0.949960X0.949960X0*%
%ADD33RoundRect,0.071120X-0.900430X-0.949960X0.900430X-0.949960X0.900430X0.949960X-0.900430X0.949960X0*%
%ADD34RoundRect,0.071120X-0.199390X-0.699770X0.199390X-0.699770X0.199390X0.699770X-0.199390X0.699770X0*%
%ADD35O,1.742440X1.341120*%
%ADD36RoundRect,0.071120X-0.457200X-0.457200X0.457200X-0.457200X0.457200X0.457200X-0.457200X0.457200X0*%
%ADD37RoundRect,0.071120X-0.457200X0.457200X-0.457200X-0.457200X0.457200X-0.457200X0.457200X0.457200X0*%
%ADD38RoundRect,0.071120X0.000000X0.563960X-0.563960X0.000000X0.000000X-0.563960X0.563960X0.000000X0*%
G04 APERTURE END LIST*
D10*
%TO.C,U8*%
X149499320Y-99504500D03*
X148498560Y-98503740D03*
X148498560Y-99504500D03*
X149499320Y-98503740D03*
X148998940Y-99004120D03*
%TD*%
D11*
%TO.C,P6*%
X129534920Y-106718100D03*
D12*
X128066800Y-106718100D03*
X129534920Y-105448100D03*
X128066800Y-105448100D03*
X129534920Y-104178100D03*
X128066800Y-104178100D03*
X129534920Y-102908100D03*
X128066800Y-102908100D03*
X129534920Y-101638100D03*
X128066800Y-101638100D03*
X129534920Y-100368100D03*
X128066800Y-100368100D03*
X129534920Y-99098100D03*
X128066800Y-99098100D03*
X129534920Y-97828100D03*
X128066800Y-97828100D03*
X129534920Y-96558100D03*
X128066800Y-96558100D03*
X129534920Y-95288100D03*
X128066800Y-95288100D03*
%TD*%
D13*
%TO.C,P5*%
X138635740Y-106502200D03*
D14*
X136964420Y-106502200D03*
%TD*%
D15*
%TO.C,PCB_EDGE2*%
X156999940Y-84002880D03*
%TD*%
D13*
%TO.C,P8*%
X127436880Y-90700860D03*
D14*
X125765560Y-90700860D03*
%TD*%
D16*
%TO.C,BT1*%
X152699720Y-99250500D03*
D17*
X152699720Y-97350580D03*
%TD*%
D15*
%TO.C,PCB_EDGE1*%
X122999500Y-84002880D03*
%TD*%
%TO.C,PCB_EDGE3*%
X156999940Y-118003320D03*
%TD*%
%TO.C,PCB_EDGE4*%
X122999500Y-118003320D03*
%TD*%
D18*
%TO.C,X1*%
X137497820Y-88452960D03*
X141099540Y-88452960D03*
X141099540Y-90952320D03*
X137497820Y-90952320D03*
%TD*%
D19*
%TO.C,U7*%
X150947120Y-90271600D03*
X149994620Y-90271600D03*
X149042120Y-90271600D03*
X149042120Y-87731600D03*
X149994620Y-87731600D03*
X150947120Y-87731600D03*
%TD*%
D20*
%TO.C,U9*%
X151046180Y-108734860D03*
X151998680Y-108734860D03*
X152951180Y-108734860D03*
X152951180Y-111274860D03*
X151998680Y-111274860D03*
X151046180Y-111274860D03*
%TD*%
D21*
%TO.C,D1*%
X146598640Y-106004360D03*
X144399000Y-106004360D03*
%TD*%
%TO.C,D2*%
X146598640Y-109004100D03*
X144399000Y-109004100D03*
%TD*%
%TO.C,D3*%
X146598640Y-112003840D03*
X144399000Y-112003840D03*
%TD*%
%TO.C,D4*%
X146598640Y-115003580D03*
X144399000Y-115003580D03*
%TD*%
D22*
%TO.C,C29*%
X153761440Y-89001600D03*
X152237440Y-89001600D03*
%TD*%
D23*
%TO.C,C30*%
X152237440Y-87503000D03*
X153761440Y-87503000D03*
%TD*%
D22*
%TO.C,C31*%
X150756620Y-92001340D03*
X149232620Y-92001340D03*
%TD*%
%TO.C,C32*%
X147761960Y-90002360D03*
X146237960Y-90002360D03*
%TD*%
D23*
%TO.C,C35*%
X150738840Y-113502440D03*
X152262840Y-113502440D03*
%TD*%
%TO.C,C36*%
X128038860Y-93202760D03*
X129562860Y-93202760D03*
%TD*%
D24*
%TO.C,C37*%
X149499320Y-113243360D03*
X149499320Y-114767360D03*
%TD*%
D22*
%TO.C,C38*%
X153261060Y-107005120D03*
X151737060Y-107005120D03*
%TD*%
D25*
%TO.C,C39*%
X150898860Y-99961700D03*
X150898860Y-98437700D03*
%TD*%
D24*
%TO.C,C40*%
X153830020Y-113240820D03*
X153830020Y-114764820D03*
%TD*%
%TO.C,C41*%
X148699220Y-102440740D03*
X148699220Y-103964740D03*
%TD*%
D25*
%TO.C,C1*%
X131699000Y-99265740D03*
X131699000Y-97741740D03*
%TD*%
D24*
%TO.C,C2*%
X135498840Y-88242140D03*
X135498840Y-89766140D03*
%TD*%
D23*
%TO.C,C3*%
X143637000Y-88506300D03*
X145161000Y-88506300D03*
%TD*%
D25*
%TO.C,C4*%
X145999200Y-103266240D03*
X145999200Y-101742240D03*
%TD*%
D22*
%TO.C,C5*%
X135760460Y-104002840D03*
X134236460Y-104002840D03*
%TD*%
%TO.C,C6*%
X134462520Y-95803720D03*
X132938520Y-95803720D03*
%TD*%
D23*
%TO.C,C7*%
X143637000Y-91506040D03*
X145161000Y-91506040D03*
%TD*%
%TO.C,C8*%
X143637000Y-90004900D03*
X145161000Y-90004900D03*
%TD*%
D22*
%TO.C,C14*%
X137261600Y-114802920D03*
X135737600Y-114802920D03*
%TD*%
D23*
%TO.C,R19*%
X146738340Y-92003880D03*
X148262340Y-92003880D03*
%TD*%
%TO.C,R18*%
X146237960Y-88503760D03*
X147761960Y-88503760D03*
%TD*%
D22*
%TO.C,R17*%
X149961600Y-93502480D03*
X148437600Y-93502480D03*
%TD*%
D23*
%TO.C,R16*%
X152237440Y-90502740D03*
X153761440Y-90502740D03*
%TD*%
D24*
%TO.C,R20*%
X149499320Y-110744000D03*
X149499320Y-112268000D03*
%TD*%
%TO.C,R21*%
X148000720Y-108242100D03*
X148000720Y-109766100D03*
%TD*%
D25*
%TO.C,R23*%
X149499320Y-109766100D03*
X149499320Y-108242100D03*
%TD*%
%TO.C,R28*%
X147998180Y-112268000D03*
X147998180Y-110744000D03*
%TD*%
D22*
%TO.C,R7*%
X134462520Y-99004120D03*
X132938520Y-99004120D03*
%TD*%
D23*
%TO.C,R29*%
X149237700Y-107005120D03*
X150761700Y-107005120D03*
%TD*%
D22*
%TO.C,R30*%
X151361140Y-101201220D03*
X149837140Y-101201220D03*
%TD*%
D26*
%TO.C,U1*%
X137248900Y-95402400D03*
X137749280Y-95402400D03*
X138249660Y-95402400D03*
X138750040Y-95402400D03*
X139250420Y-95402400D03*
X139750800Y-95402400D03*
X140248640Y-95402400D03*
X140749020Y-95402400D03*
X141249400Y-95402400D03*
X141749780Y-95402400D03*
X142250160Y-95402400D03*
X142750540Y-95402400D03*
D27*
X144099280Y-96751140D03*
X144099280Y-97251520D03*
X144099280Y-97751900D03*
X144099280Y-98252280D03*
X144099280Y-98752660D03*
X144099280Y-99253040D03*
X144099280Y-99750880D03*
X144099280Y-100251260D03*
X144099280Y-100751640D03*
X144099280Y-101252020D03*
X144099280Y-101752400D03*
X144099280Y-102252780D03*
D26*
X142750540Y-103601520D03*
X142250160Y-103601520D03*
X141749780Y-103601520D03*
X141249400Y-103601520D03*
X140749020Y-103601520D03*
X140248640Y-103601520D03*
X139750800Y-103601520D03*
X139250420Y-103601520D03*
X138750040Y-103601520D03*
X138249660Y-103601520D03*
X137749280Y-103601520D03*
X137248900Y-103601520D03*
D27*
X135900160Y-102252780D03*
X135900160Y-101752400D03*
X135900160Y-101252020D03*
X135900160Y-100751640D03*
X135900160Y-100251260D03*
X135900160Y-99750880D03*
X135900160Y-99253040D03*
X135900160Y-98752660D03*
X135900160Y-98252280D03*
X135900160Y-97751900D03*
X135900160Y-97251520D03*
X135900160Y-96751140D03*
%TD*%
D13*
%TO.C,P4*%
X144663160Y-113502440D03*
D14*
X146334480Y-113502440D03*
%TD*%
D13*
%TO.C,P3*%
X144663160Y-110502700D03*
D14*
X146334480Y-110502700D03*
%TD*%
D13*
%TO.C,P2*%
X144663160Y-107502960D03*
D14*
X146334480Y-107502960D03*
%TD*%
D13*
%TO.C,P1*%
X144663160Y-104503220D03*
D14*
X146334480Y-104503220D03*
%TD*%
D25*
%TO.C,R32*%
X150098760Y-103964740D03*
X150098760Y-102440740D03*
%TD*%
D28*
%TO.C,U6*%
X131950460Y-93253560D03*
X131300220Y-93253560D03*
X130649980Y-93253560D03*
X130649980Y-91353640D03*
X131300220Y-91353640D03*
X131950460Y-91353640D03*
%TD*%
D29*
%TO.C,P7*%
X132598160Y-88752680D03*
D30*
X133149340Y-86202520D03*
D31*
X133449060Y-86601300D03*
D29*
X126400560Y-88752680D03*
D32*
X130698240Y-86202520D03*
D33*
X125498860Y-86202520D03*
D32*
X128300480Y-86202520D03*
D34*
X128198880Y-88902540D03*
X128849120Y-88902540D03*
X129499360Y-88902540D03*
X130149600Y-88902540D03*
X130799840Y-88902540D03*
%TD*%
D24*
%TO.C,R33*%
X153400760Y-91841320D03*
X153400760Y-93365320D03*
%TD*%
D35*
%TO.C,P9*%
X152900380Y-105402380D03*
%TD*%
D36*
%TO.C,Q5*%
X152900380Y-101587300D03*
X153789380Y-103619300D03*
X152011380Y-103619300D03*
%TD*%
D37*
%TO.C,Q6*%
X153116280Y-94503240D03*
X151084280Y-95392240D03*
X151084280Y-93614240D03*
%TD*%
D38*
%TO.C,D8*%
X156028635Y-115972345D03*
X154968965Y-117032015D03*
%TD*%
D25*
%TO.C,R38*%
X155300680Y-114764820D03*
X155300680Y-113240820D03*
%TD*%
M02*
