%TF.GenerationSoftware,KiCad,Pcbnew,6.0.2-378541a8eb~116~ubuntu20.04.1*%
%TF.CreationDate,2022-03-13T20:33:59-06:00*%
%TF.ProjectId,Crazyflie contol board,4372617a-7966-46c6-9965-20636f6e746f,F*%
%TF.SameCoordinates,Original*%
%TF.FileFunction,Paste,Top*%
%TF.FilePolarity,Positive*%
%FSLAX46Y46*%
G04 Gerber Fmt 4.6, Leading zero omitted, Abs format (unit mm)*
G04 Created by KiCad (PCBNEW 6.0.2-378541a8eb~116~ubuntu20.04.1) date 2022-03-13 20:33:59*
%MOMM*%
%LPD*%
G01*
G04 APERTURE LIST*
G04 Aperture macros list*
%AMRotRect*
0 Rectangle, with rotation*
0 The origin of the aperture is its center*
0 $1 length*
0 $2 width*
0 $3 Rotation angle, in degrees counterclockwise*
0 Add horizontal line*
21,1,$1,$2,0,0,$3*%
G04 Aperture macros list end*
%ADD10R,0.816864X0.816864*%
%ADD11R,0.899770X0.612038*%
%ADD12R,1.036320X0.548640*%
%ADD13R,0.514502X0.321868*%
%ADD14R,0.321868X0.514502*%
%ADD15R,0.548640X1.036320*%
%ADD16O,0.707136X0.178004*%
%ADD17O,0.178004X0.707136*%
%ADD18R,1.570330X1.570330*%
%ADD19RotRect,0.704698X0.704698X225.000000*%
%ADD20RotRect,0.704698X0.704698X135.000000*%
%ADD21RotRect,0.704698X0.704698X45.000000*%
%ADD22RotRect,2.338426X0.899770X315.000000*%
%ADD23RotRect,1.570330X0.899770X162.000000*%
%ADD24R,0.899770X0.419404*%
%ADD25R,0.275540X0.755904*%
%ADD26R,0.755904X0.275540*%
G04 APERTURE END LIST*
D10*
%TO.C,Q1*%
X147985480Y-103502460D03*
X150017480Y-104391460D03*
X150017480Y-102613460D03*
%TD*%
%TO.C,Q2*%
X147985480Y-107002580D03*
X150017480Y-107891580D03*
X150017480Y-106113580D03*
%TD*%
%TO.C,Q3*%
X147985480Y-110502700D03*
X150017480Y-111391700D03*
X150017480Y-109613700D03*
%TD*%
%TO.C,Q4*%
X147985480Y-114002820D03*
X150017480Y-114891820D03*
X150017480Y-113113820D03*
%TD*%
D11*
%TO.C,U10*%
X151429720Y-93251020D03*
X151429720Y-94203520D03*
X151429720Y-95156020D03*
X153969720Y-95156020D03*
X153969720Y-94203520D03*
X153969720Y-93251020D03*
%TD*%
D12*
%TO.C,C34*%
X152999440Y-111264700D03*
X152999440Y-109740700D03*
%TD*%
D13*
%TO.C,L3*%
X133200140Y-109552740D03*
X133200140Y-110451900D03*
%TD*%
%TO.C,L2*%
X134200900Y-111353600D03*
X134200900Y-110454440D03*
%TD*%
D14*
%TO.C,L1*%
X132349240Y-111302800D03*
X133248400Y-111302800D03*
%TD*%
%TO.C,C9*%
X130649980Y-111302800D03*
X131549140Y-111302800D03*
%TD*%
D13*
%TO.C,C10*%
X129799080Y-111152940D03*
X129799080Y-110253780D03*
%TD*%
D15*
%TO.C,C11*%
X133162040Y-108303060D03*
X131638040Y-108303060D03*
%TD*%
D14*
%TO.C,C12*%
X132349240Y-109402880D03*
X131450080Y-109402880D03*
%TD*%
D15*
%TO.C,C13*%
X137261600Y-114802920D03*
X135737600Y-114802920D03*
%TD*%
%TO.C,C15*%
X138236960Y-114802920D03*
X139760960Y-114802920D03*
%TD*%
%TO.C,C16*%
X144538700Y-92003880D03*
X146062700Y-92003880D03*
%TD*%
D12*
%TO.C,C17*%
X135999220Y-89664540D03*
X135999220Y-88140540D03*
%TD*%
%TO.C,C18*%
X144299940Y-90764360D03*
X144299940Y-89240360D03*
%TD*%
D15*
%TO.C,C20*%
X140662660Y-86903560D03*
X139138660Y-86903560D03*
%TD*%
D12*
%TO.C,R14*%
X131500880Y-85641180D03*
X131500880Y-87165180D03*
%TD*%
%TO.C,R13*%
X129999740Y-85641180D03*
X129999740Y-87165180D03*
%TD*%
D15*
%TO.C,R22*%
X155661360Y-113502440D03*
X154137360Y-113502440D03*
%TD*%
%TO.C,R26*%
X152760680Y-101503480D03*
X151236680Y-101503480D03*
%TD*%
D12*
%TO.C,R27*%
X152999440Y-104264460D03*
X152999440Y-102740460D03*
%TD*%
D15*
%TO.C,R9*%
X132760720Y-104002840D03*
X131236720Y-104002840D03*
%TD*%
%TO.C,R8*%
X132760720Y-102504240D03*
X131236720Y-102504240D03*
%TD*%
%TO.C,R5*%
X125437900Y-87904320D03*
X126961900Y-87904320D03*
%TD*%
D12*
%TO.C,R4*%
X151500840Y-114764820D03*
X151500840Y-113240820D03*
%TD*%
%TO.C,R3*%
X151500840Y-111264700D03*
X151500840Y-109740700D03*
%TD*%
%TO.C,R2*%
X151500840Y-107764580D03*
X151500840Y-106240580D03*
%TD*%
%TO.C,R1*%
X151500840Y-104264460D03*
X151500840Y-102740460D03*
%TD*%
D16*
%TO.C,U2*%
X139400280Y-112003840D03*
X139397740Y-111500920D03*
X139397740Y-111000540D03*
X139397740Y-110502700D03*
X139397740Y-110002320D03*
D17*
X138498580Y-109103160D03*
X137998200Y-109103160D03*
X137497820Y-109103160D03*
X136997440Y-109103160D03*
X136499600Y-109103160D03*
D16*
X135600440Y-110002320D03*
X135600440Y-110502700D03*
X135600440Y-111005620D03*
X135600440Y-111503460D03*
X135600440Y-112006380D03*
D17*
X136499600Y-112903000D03*
X136999980Y-112903000D03*
X137500360Y-112903000D03*
X138000740Y-112903000D03*
X138501120Y-112903000D03*
%TD*%
D16*
%TO.C,U8*%
X150500080Y-99755960D03*
X150500080Y-99253040D03*
X150500080Y-98755200D03*
X150500080Y-98254820D03*
D17*
X149748240Y-97502980D03*
X149247860Y-97502980D03*
X148747480Y-97502980D03*
X148249640Y-97502980D03*
D16*
X147497800Y-98257360D03*
X147497800Y-98755200D03*
X147497800Y-99255580D03*
X147497800Y-99755960D03*
D17*
X148249640Y-100505260D03*
X148747480Y-100505260D03*
X149247860Y-100505260D03*
X149748240Y-100505260D03*
D18*
X148998940Y-99004120D03*
%TD*%
D19*
%TO.C,D7*%
X156028635Y-115972345D03*
X154968965Y-117032015D03*
%TD*%
D20*
%TO.C,D6*%
X155929575Y-86132915D03*
X154869905Y-85073245D03*
%TD*%
D21*
%TO.C,D5*%
X124069865Y-86033855D03*
X125129535Y-84974185D03*
%TD*%
D12*
%TO.C,R31*%
X149999700Y-94742000D03*
X149999700Y-96266000D03*
%TD*%
%TO.C,R24*%
X144899380Y-102765860D03*
X144899380Y-101241860D03*
%TD*%
D15*
%TO.C,R12*%
X134762240Y-114802920D03*
X133238240Y-114802920D03*
%TD*%
D12*
%TO.C,R11*%
X134099300Y-103741220D03*
X134099300Y-105265220D03*
%TD*%
%TO.C,R10*%
X135600440Y-103741220D03*
X135600440Y-105265220D03*
%TD*%
D15*
%TO.C,C33*%
X145361660Y-99603560D03*
X143837660Y-99603560D03*
%TD*%
%TO.C,R6*%
X151338280Y-85803740D03*
X152862280Y-85803740D03*
%TD*%
D12*
%TO.C,R25*%
X146400520Y-102765860D03*
X146400520Y-101241860D03*
%TD*%
D22*
%TO.C,Y1*%
X128832691Y-112269189D03*
X124166549Y-116935331D03*
%TD*%
D15*
%TO.C,R36*%
X143837660Y-98102420D03*
X145361660Y-98102420D03*
%TD*%
%TO.C,R37*%
X144838420Y-95603060D03*
X146362420Y-95603060D03*
%TD*%
D23*
%TO.C,SW1*%
X154543524Y-91214700D03*
X155656516Y-87789260D03*
%TD*%
D12*
%TO.C,C24*%
X133799580Y-91340940D03*
X133799580Y-92864940D03*
%TD*%
D24*
%TO.C,U5*%
X129550160Y-89029540D03*
X129550160Y-90279220D03*
X129550160Y-91528900D03*
X129550160Y-92778580D03*
X132049520Y-92778580D03*
X132049520Y-91528900D03*
X132059680Y-90279220D03*
X132049520Y-89029540D03*
%TD*%
D13*
%TO.C,R39*%
X142400020Y-103299260D03*
X142400020Y-104198420D03*
%TD*%
%TO.C,R40*%
X141500860Y-103299260D03*
X141500860Y-104198420D03*
%TD*%
%TO.C,R41*%
X140599160Y-103299260D03*
X140599160Y-104198420D03*
%TD*%
%TO.C,R42*%
X139700000Y-103299260D03*
X139700000Y-104198420D03*
%TD*%
D25*
%TO.C,U3*%
X138351260Y-92549980D03*
X138851640Y-92549980D03*
X139352020Y-92549980D03*
X139849860Y-92549980D03*
X140350240Y-92549980D03*
X140850620Y-92549980D03*
D26*
X141622780Y-91653360D03*
X141622780Y-91152980D03*
X141622780Y-90652600D03*
X141622780Y-90154760D03*
X141622780Y-89654380D03*
X141622780Y-89154000D03*
D25*
X140850620Y-88257380D03*
X140350240Y-88257380D03*
X139849860Y-88257380D03*
X139352020Y-88257380D03*
X138851640Y-88257380D03*
X138351260Y-88257380D03*
D26*
X137576560Y-89154000D03*
X137576560Y-89654380D03*
X137576560Y-90154760D03*
X137576560Y-90652600D03*
X137576560Y-91152980D03*
X137576560Y-91653360D03*
%TD*%
M02*
