%TF.GenerationSoftware,KiCad,Pcbnew,6.0.2-378541a8eb~116~ubuntu20.04.1*%
%TF.CreationDate,2022-03-13T20:33:59-06:00*%
%TF.ProjectId,Crazyflie contol board,4372617a-7966-46c6-9965-20636f6e746f,F*%
%TF.SameCoordinates,Original*%
%TF.FileFunction,Copper,L4,Bot*%
%TF.FilePolarity,Positive*%
%FSLAX46Y46*%
G04 Gerber Fmt 4.6, Leading zero omitted, Abs format (unit mm)*
G04 Created by KiCad (PCBNEW 6.0.2-378541a8eb~116~ubuntu20.04.1) date 2022-03-13 20:33:59*
%MOMM*%
%LPD*%
G01*
G04 APERTURE LIST*
G04 Aperture macros list*
%AMRotRect*
0 Rectangle, with rotation*
0 The origin of the aperture is its center*
0 $1 length*
0 $2 width*
0 $3 Rotation angle, in degrees counterclockwise*
0 Add horizontal line*
21,1,$1,$2,0,0,$3*%
G04 Aperture macros list end*
%ADD10C,0.200025*%
%TA.AperFunction,NonConductor*%
%ADD11C,0.200025*%
%TD*%
%TA.AperFunction,ComponentPad*%
%ADD12C,0.381000*%
%TD*%
%TA.AperFunction,SMDPad,CuDef*%
%ADD13R,1.699260X1.699260*%
%TD*%
%TA.AperFunction,ComponentPad*%
%ADD14R,1.198880X0.800100*%
%TD*%
%TA.AperFunction,ComponentPad*%
%ADD15O,1.198880X0.800100*%
%TD*%
%TA.AperFunction,ComponentPad*%
%ADD16R,1.399540X1.000760*%
%TD*%
%TA.AperFunction,ComponentPad*%
%ADD17O,1.399540X1.000760*%
%TD*%
%TA.AperFunction,ComponentPad*%
%ADD18C,1.800860*%
%TD*%
%TA.AperFunction,ComponentPad*%
%ADD19R,1.198880X1.600200*%
%TD*%
%TA.AperFunction,ComponentPad*%
%ADD20O,1.198880X1.600200*%
%TD*%
%TA.AperFunction,SMDPad,CuDef*%
%ADD21R,1.899920X1.099820*%
%TD*%
%TA.AperFunction,SMDPad,CuDef*%
%ADD22R,0.701040X1.000760*%
%TD*%
%TA.AperFunction,SMDPad,CuDef*%
%ADD23R,1.000760X0.599440*%
%TD*%
%TA.AperFunction,SMDPad,CuDef*%
%ADD24R,0.635000X1.143000*%
%TD*%
%TA.AperFunction,SMDPad,CuDef*%
%ADD25R,1.143000X0.635000*%
%TD*%
%TA.AperFunction,SMDPad,CuDef*%
%ADD26R,0.299720X1.300480*%
%TD*%
%TA.AperFunction,SMDPad,CuDef*%
%ADD27R,1.300480X0.299720*%
%TD*%
%TA.AperFunction,SMDPad,CuDef*%
%ADD28R,0.398780X0.508000*%
%TD*%
%TA.AperFunction,SMDPad,CuDef*%
%ADD29R,2.100580X1.600200*%
%TD*%
%TA.AperFunction,SMDPad,CuDef*%
%ADD30R,1.198880X1.899920*%
%TD*%
%TA.AperFunction,SMDPad,CuDef*%
%ADD31R,1.800860X1.099820*%
%TD*%
%TA.AperFunction,SMDPad,CuDef*%
%ADD32R,1.899920X1.899920*%
%TD*%
%TA.AperFunction,SMDPad,CuDef*%
%ADD33R,1.800860X1.899920*%
%TD*%
%TA.AperFunction,SMDPad,CuDef*%
%ADD34R,0.398780X1.399540*%
%TD*%
%TA.AperFunction,ComponentPad*%
%ADD35O,1.600200X1.198880*%
%TD*%
%TA.AperFunction,SMDPad,CuDef*%
%ADD36R,0.914400X0.914400*%
%TD*%
%TA.AperFunction,SMDPad,CuDef*%
%ADD37RotRect,0.797560X0.797560X225.000000*%
%TD*%
%TA.AperFunction,ViaPad*%
%ADD38C,0.635000*%
%TD*%
%TA.AperFunction,Conductor*%
%ADD39C,0.381000*%
%TD*%
%TA.AperFunction,Conductor*%
%ADD40C,0.254000*%
%TD*%
%TA.AperFunction,Conductor*%
%ADD41C,0.203200*%
%TD*%
%TA.AperFunction,Conductor*%
%ADD42C,0.152400*%
%TD*%
%TA.AperFunction,Conductor*%
%ADD43C,0.304800*%
%TD*%
%TA.AperFunction,Conductor*%
%ADD44C,0.177800*%
%TD*%
G04 APERTURE END LIST*
D10*
D11*
X124152660Y-100831650D02*
X124152660Y-101365050D01*
X123962160Y-100526850D02*
X123771660Y-101098350D01*
X124266960Y-101098350D01*
D10*
D11*
X153409197Y-116666010D02*
X153628272Y-116285010D01*
X153866397Y-116666010D02*
X153766385Y-115865910D01*
X153461585Y-115865910D01*
X153390147Y-115904010D01*
X153356810Y-115942110D01*
X153328235Y-116018310D01*
X153342522Y-116132610D01*
X153390147Y-116208810D01*
X153433010Y-116246910D01*
X153513972Y-116285010D01*
X153818772Y-116285010D01*
X152756735Y-116627910D02*
X152837697Y-116666010D01*
X152990097Y-116666010D01*
X153061535Y-116627910D01*
X153090110Y-116551710D01*
X153052010Y-116246910D01*
X153004385Y-116170710D01*
X152923422Y-116132610D01*
X152771022Y-116132610D01*
X152699585Y-116170710D01*
X152671010Y-116246910D01*
X152680535Y-116323110D01*
X153071060Y-116399310D01*
X152390022Y-116132610D02*
X152266197Y-116666010D01*
X152009022Y-116132610D01*
X151761372Y-116589810D02*
X151728035Y-116627910D01*
X151770897Y-116666010D01*
X151804235Y-116627910D01*
X151761372Y-116589810D01*
X151770897Y-116666010D01*
X151070810Y-116246910D02*
X151337510Y-116246910D01*
X151389897Y-116666010D02*
X151289885Y-115865910D01*
X150908885Y-115865910D01*
D12*
%TO.P,U8,17,TPAD*%
%TO.N,GND*%
X149499320Y-99504500D03*
X148498560Y-98503740D03*
D13*
X148998940Y-99004120D03*
D12*
X148498560Y-99504500D03*
X149499320Y-98503740D03*
X148998940Y-99004120D03*
%TD*%
D14*
%TO.P,P6,1,P1*%
%TO.N,VCC*%
X129534920Y-106718100D03*
D15*
%TO.P,P6,2,P2*%
%TO.N,/TMS*%
X128066800Y-106718100D03*
%TO.P,P6,3,P3*%
%TO.N,/EXT_I2C_SCL{slash}TX*%
X129534920Y-105448100D03*
%TO.P,P6,4,P4*%
%TO.N,/TCK*%
X128066800Y-105448100D03*
%TO.P,P6,5,P5*%
%TO.N,/EXT_I2C_SDA{slash}RX*%
X129534920Y-104178100D03*
%TO.P,P6,6,P6*%
%TO.N,/TDO*%
X128066800Y-104178100D03*
%TO.P,P6,7,P7*%
%TO.N,unconnected-(P6-Pad7)*%
X129534920Y-102908100D03*
%TO.P,P6,8,P8*%
%TO.N,/TDI*%
X128066800Y-102908100D03*
%TO.P,P6,9,P9*%
%TO.N,DGND*%
X129534920Y-101638100D03*
%TO.P,P6,10,P10*%
%TO.N,/SNRST*%
X128066800Y-101638100D03*
%TO.P,P6,11,P11*%
%TO.N,/EXT_SPI_CS*%
X129534920Y-100368100D03*
%TO.P,P6,12,P12*%
%TO.N,/EXT_SPI_MOSI*%
X128066800Y-100368100D03*
%TO.P,P6,13,P13*%
%TO.N,/EXT_SPI_SCK*%
X129534920Y-99098100D03*
%TO.P,P6,14,P14*%
%TO.N,/EXT_SPI_MISO*%
X128066800Y-99098100D03*
%TO.P,P6,15,P15*%
%TO.N,VCC*%
X129534920Y-97828100D03*
%TO.P,P6,16,P16*%
%TO.N,VCOM*%
X128066800Y-97828100D03*
%TO.P,P6,17,P17*%
%TO.N,DGND*%
X129534920Y-96558100D03*
%TO.P,P6,18,P18*%
X128066800Y-96558100D03*
%TO.P,P6,19,P19*%
%TO.N,AGND*%
X129534920Y-95288100D03*
%TO.P,P6,20,P20*%
%TO.N,VCCA*%
X128066800Y-95288100D03*
%TD*%
D16*
%TO.P,P5,1,P1*%
%TO.N,VCC*%
X138635740Y-106502200D03*
D17*
%TO.P,P5,2,PM*%
%TO.N,DGND*%
X136964420Y-106502200D03*
%TD*%
D18*
%TO.P,PCB_EDGE2,1*%
%TO.N,N/C*%
X156999940Y-84002880D03*
%TD*%
D16*
%TO.P,P8,1,P1*%
%TO.N,/POWER/VUSB*%
X127436880Y-90700860D03*
D17*
%TO.P,P8,2,PM*%
%TO.N,DGND*%
X125765560Y-90700860D03*
%TD*%
D19*
%TO.P,BT1,1,+*%
%TO.N,+BATT*%
X152699720Y-99250500D03*
D20*
%TO.P,BT1,2,-*%
%TO.N,GND*%
X152699720Y-97350580D03*
%TD*%
D18*
%TO.P,PCB_EDGE1,1*%
%TO.N,N/C*%
X122999500Y-84002880D03*
%TD*%
%TO.P,PCB_EDGE3,1*%
%TO.N,N/C*%
X156999940Y-118003320D03*
%TD*%
%TO.P,PCB_EDGE4,1*%
%TO.N,N/C*%
X122999500Y-118003320D03*
%TD*%
D21*
%TO.P,X1,1,1*%
%TO.N,Net-(C2-Pad1)*%
X137497820Y-88452960D03*
%TO.P,X1,2,GND*%
%TO.N,AGND*%
X141099540Y-88452960D03*
%TO.P,X1,3,3*%
%TO.N,Net-(C3-Pad1)*%
X141099540Y-90952320D03*
%TO.P,X1,4,GND*%
%TO.N,AGND*%
X137497820Y-90952320D03*
%TD*%
D22*
%TO.P,U7,1,IN*%
%TO.N,Net-(C31-Pad1)*%
X150947120Y-90271600D03*
%TO.P,U7,2,GND*%
%TO.N,GND*%
X149994620Y-90271600D03*
%TO.P,U7,3,EN*%
%TO.N,Net-(C31-Pad1)*%
X149042120Y-90271600D03*
%TO.P,U7,4,NR*%
%TO.N,Net-(C32-Pad1)*%
X149042120Y-87731600D03*
%TO.P,U7,5,FB*%
%TO.N,Net-(C29-Pad2)*%
X149994620Y-87731600D03*
%TO.P,U7,6,OUT*%
%TO.N,VCCA*%
X150947120Y-87731600D03*
%TD*%
%TO.P,U9,1,IN*%
%TO.N,VCOM*%
X151046180Y-108734860D03*
%TO.P,U9,2,GND*%
%TO.N,GND*%
X151998680Y-108734860D03*
%TO.P,U9,3,EN*%
%TO.N,VCOM*%
X152951180Y-108734860D03*
%TO.P,U9,4,NR*%
%TO.N,Net-(C40-Pad1)*%
X152951180Y-111274860D03*
%TO.P,U9,5,FB*%
%TO.N,Net-(C35-Pad2)*%
X151998680Y-111274860D03*
%TO.P,U9,6,OUT*%
%TO.N,VCC*%
X151046180Y-111274860D03*
%TD*%
D23*
%TO.P,D1,1*%
%TO.N,N-000051*%
X146598640Y-106004360D03*
%TO.P,D1,2*%
%TO.N,+BATT*%
X144399000Y-106004360D03*
%TD*%
%TO.P,D2,1*%
%TO.N,N-000052*%
X146598640Y-109004100D03*
%TO.P,D2,2*%
%TO.N,+BATT*%
X144399000Y-109004100D03*
%TD*%
%TO.P,D3,1*%
%TO.N,N-000011*%
X146598640Y-112003840D03*
%TO.P,D3,2*%
%TO.N,+BATT*%
X144399000Y-112003840D03*
%TD*%
%TO.P,D4,1*%
%TO.N,N-000053*%
X146598640Y-115003580D03*
%TO.P,D4,2*%
%TO.N,+BATT*%
X144399000Y-115003580D03*
%TD*%
D24*
%TO.P,C29,1*%
%TO.N,VCCA*%
X153761440Y-89001600D03*
%TO.P,C29,2*%
%TO.N,Net-(C29-Pad2)*%
X152237440Y-89001600D03*
%TD*%
%TO.P,C30,1*%
%TO.N,VCCA*%
X152237440Y-87503000D03*
%TO.P,C30,2*%
%TO.N,AGND*%
X153761440Y-87503000D03*
%TD*%
%TO.P,C31,1*%
%TO.N,Net-(C31-Pad1)*%
X150756620Y-92001340D03*
%TO.P,C31,2*%
%TO.N,GND*%
X149232620Y-92001340D03*
%TD*%
%TO.P,C32,1*%
%TO.N,Net-(C32-Pad1)*%
X147761960Y-90002360D03*
%TO.P,C32,2*%
%TO.N,AGND*%
X146237960Y-90002360D03*
%TD*%
%TO.P,C35,1*%
%TO.N,VCC*%
X150738840Y-113502440D03*
%TO.P,C35,2*%
%TO.N,Net-(C35-Pad2)*%
X152262840Y-113502440D03*
%TD*%
%TO.P,C36,1*%
%TO.N,/POWER/VUSB*%
X128038860Y-93202760D03*
%TO.P,C36,2*%
%TO.N,DGND*%
X129562860Y-93202760D03*
%TD*%
D25*
%TO.P,C37,1*%
%TO.N,VCC*%
X149499320Y-113243360D03*
%TO.P,C37,2*%
%TO.N,DGND*%
X149499320Y-114767360D03*
%TD*%
D24*
%TO.P,C38,1*%
%TO.N,VCOM*%
X153261060Y-107005120D03*
%TO.P,C38,2*%
%TO.N,GND*%
X151737060Y-107005120D03*
%TD*%
D25*
%TO.P,C39,1*%
%TO.N,+BATT*%
X150898860Y-99961700D03*
%TO.P,C39,2*%
%TO.N,GND*%
X150898860Y-98437700D03*
%TD*%
%TO.P,C40,1*%
%TO.N,Net-(C40-Pad1)*%
X153830020Y-113240820D03*
%TO.P,C40,2*%
%TO.N,DGND*%
X153830020Y-114764820D03*
%TD*%
%TO.P,C41,1*%
%TO.N,/POWER/VBAT*%
X148699220Y-102440740D03*
%TO.P,C41,2*%
%TO.N,GND*%
X148699220Y-103964740D03*
%TD*%
%TO.P,C1,1*%
%TO.N,/SNRST*%
X131699000Y-99265740D03*
%TO.P,C1,2*%
%TO.N,DGND*%
X131699000Y-97741740D03*
%TD*%
%TO.P,C2,1*%
%TO.N,Net-(C2-Pad1)*%
X135498840Y-88242140D03*
%TO.P,C2,2*%
%TO.N,AGND*%
X135498840Y-89766140D03*
%TD*%
D24*
%TO.P,C3,1*%
%TO.N,Net-(C3-Pad1)*%
X143637000Y-88506300D03*
%TO.P,C3,2*%
%TO.N,AGND*%
X145161000Y-88506300D03*
%TD*%
D25*
%TO.P,C4,1*%
%TO.N,VCC*%
X145999200Y-103266240D03*
%TO.P,C4,2*%
%TO.N,DGND*%
X145999200Y-101742240D03*
%TD*%
D24*
%TO.P,C5,1*%
%TO.N,VCC*%
X135760460Y-104002840D03*
%TO.P,C5,2*%
%TO.N,DGND*%
X134236460Y-104002840D03*
%TD*%
%TO.P,C6,1*%
%TO.N,VCC*%
X134462520Y-95803720D03*
%TO.P,C6,2*%
%TO.N,DGND*%
X132938520Y-95803720D03*
%TD*%
%TO.P,C7,1*%
%TO.N,VCCA*%
X143637000Y-91506040D03*
%TO.P,C7,2*%
%TO.N,AGND*%
X145161000Y-91506040D03*
%TD*%
%TO.P,C8,1*%
%TO.N,VCCA*%
X143637000Y-90004900D03*
%TO.P,C8,2*%
%TO.N,AGND*%
X145161000Y-90004900D03*
%TD*%
%TO.P,C14,1*%
%TO.N,VCC*%
X137261600Y-114802920D03*
%TO.P,C14,2*%
%TO.N,DGND*%
X135737600Y-114802920D03*
%TD*%
%TO.P,R19,1*%
%TO.N,AGND*%
X146738340Y-92003880D03*
%TO.P,R19,2*%
%TO.N,GND*%
X148262340Y-92003880D03*
%TD*%
%TO.P,R18,1*%
%TO.N,AGND*%
X146237960Y-88503760D03*
%TO.P,R18,2*%
%TO.N,Net-(C29-Pad2)*%
X147761960Y-88503760D03*
%TD*%
%TO.P,R17,1*%
%TO.N,Net-(C31-Pad1)*%
X149961600Y-93502480D03*
%TO.P,R17,2*%
%TO.N,VCOM*%
X148437600Y-93502480D03*
%TD*%
%TO.P,R16,1*%
%TO.N,Net-(C29-Pad2)*%
X152237440Y-90502740D03*
%TO.P,R16,2*%
%TO.N,VCCA*%
X153761440Y-90502740D03*
%TD*%
D25*
%TO.P,R20,1*%
%TO.N,Net-(C35-Pad2)*%
X149499320Y-110744000D03*
%TO.P,R20,2*%
%TO.N,VCC*%
X149499320Y-112268000D03*
%TD*%
%TO.P,R21,1*%
%TO.N,/PGOOD*%
X148000720Y-108242100D03*
%TO.P,R21,2*%
%TO.N,VCC*%
X148000720Y-109766100D03*
%TD*%
%TO.P,R23,1*%
%TO.N,Net-(C35-Pad2)*%
X149499320Y-109766100D03*
%TO.P,R23,2*%
%TO.N,/PGOOD*%
X149499320Y-108242100D03*
%TD*%
%TO.P,R28,1*%
%TO.N,DGND*%
X147998180Y-112268000D03*
%TO.P,R28,2*%
%TO.N,Net-(C35-Pad2)*%
X147998180Y-110744000D03*
%TD*%
D24*
%TO.P,R7,1*%
%TO.N,/BOOT0*%
X134462520Y-99004120D03*
%TO.P,R7,2*%
%TO.N,DGND*%
X132938520Y-99004120D03*
%TD*%
%TO.P,R29,1*%
%TO.N,DGND*%
X149237700Y-107005120D03*
%TO.P,R29,2*%
%TO.N,GND*%
X150761700Y-107005120D03*
%TD*%
%TO.P,R30,1*%
%TO.N,Net-(Q5-PadD)*%
X151361140Y-101201220D03*
%TO.P,R30,2*%
%TO.N,+BATT*%
X149837140Y-101201220D03*
%TD*%
D26*
%TO.P,U1,1,VBAT*%
%TO.N,VCC*%
X137248900Y-95402400D03*
%TO.P,U1,2,PC13/TAMPER-RTC*%
%TO.N,/EN1*%
X137749280Y-95402400D03*
%TO.P,U1,3,PC14/OSC32_IN*%
%TO.N,/INT_GA*%
X138249660Y-95402400D03*
%TO.P,U1,4,PC15/OSC32_OUT*%
%TO.N,/PGOOD*%
X138750040Y-95402400D03*
%TO.P,U1,5,OSC_IN/PD0*%
%TO.N,Net-(C2-Pad1)*%
X139250420Y-95402400D03*
%TO.P,U1,6,OSC_OUT/PD1*%
%TO.N,Net-(C3-Pad1)*%
X139750800Y-95402400D03*
%TO.P,U1,7,NRST*%
%TO.N,/SNRST*%
X140248640Y-95402400D03*
%TO.P,U1,8,VSSA*%
%TO.N,AGND*%
X140749020Y-95402400D03*
%TO.P,U1,9,VDDA*%
%TO.N,VCCA*%
X141249400Y-95402400D03*
%TO.P,U1,10,PA0/AIN0*%
%TO.N,/POWER/USB_CON*%
X141749780Y-95402400D03*
%TO.P,U1,11,PA1/AIN1*%
%TO.N,/SYSOFF*%
X142250160Y-95402400D03*
%TO.P,U1,12,PA2/AIN2*%
%TO.N,/EN2*%
X142750540Y-95402400D03*
D27*
%TO.P,U1,13,PA3/AIN3*%
%TO.N,/POWER/VBAT*%
X144099280Y-96751140D03*
%TO.P,U1,14,PA4/AIN4*%
%TO.N,/EXT_SPI_CS*%
X144099280Y-97251520D03*
%TO.P,U1,15,PA5/AIN5*%
%TO.N,/EXT_SPI_SCK*%
X144099280Y-97751900D03*
%TO.P,U1,16,PA6/AIN6*%
%TO.N,/EXT_SPI_MISO*%
X144099280Y-98252280D03*
%TO.P,U1,17,PA7/AIN7*%
%TO.N,/EXT_SPI_MOSI*%
X144099280Y-98752660D03*
%TO.P,U1,18,PB0*%
%TO.N,/MOTOR2*%
X144099280Y-99253040D03*
%TO.P,U1,19,PB1*%
%TO.N,/MOTOR1*%
X144099280Y-99750880D03*
%TO.P,U1,20,PB2/BOOT1*%
%TO.N,/CHG*%
X144099280Y-100251260D03*
%TO.P,U1,21,PB10/I2C2_SCL/U3_TX*%
%TO.N,/EXT_I2C_SCL{slash}TX*%
X144099280Y-100751640D03*
%TO.P,U1,22,PB11/I2C2_SCK/U3_RX*%
%TO.N,/EXT_I2C_SDA{slash}RX*%
X144099280Y-101252020D03*
%TO.P,U1,23,VSS_1*%
%TO.N,DGND*%
X144099280Y-101752400D03*
%TO.P,U1,24,VDD_1*%
%TO.N,VCC*%
X144099280Y-102252780D03*
D26*
%TO.P,U1,25,PB12/SPI2_NSS*%
%TO.N,/WIRELESS/W_CS*%
X142750540Y-103601520D03*
%TO.P,U1,26,PB13/SPI2_SCK*%
%TO.N,/SPI_SCK*%
X142250160Y-103601520D03*
%TO.P,U1,27,PB14/SPI2_MISO*%
%TO.N,/SPI_MISO*%
X141749780Y-103601520D03*
%TO.P,U1,28,PB15/SPI2_MOSI*%
%TO.N,/SPI_MOSI*%
X141249400Y-103601520D03*
%TO.P,U1,29,PA8/MCO*%
%TO.N,/W_CK*%
X140749020Y-103601520D03*
%TO.P,U1,30,PA9*%
%TO.N,/W_INT*%
X140248640Y-103601520D03*
%TO.P,U1,31,PA10*%
%TO.N,/W_CE*%
X139750800Y-103601520D03*
%TO.P,U1,32,PA11/USBDM*%
%TO.N,/POWER/USBD-*%
X139250420Y-103601520D03*
%TO.P,U1,33,PA12/USBDP*%
%TO.N,/POWER/USBD+*%
X138750040Y-103601520D03*
%TO.P,U1,34,PA13/JTMS*%
%TO.N,/TMS*%
X138249660Y-103601520D03*
%TO.P,U1,35,VSS_2*%
%TO.N,DGND*%
X137749280Y-103601520D03*
%TO.P,U1,36,VDD_2*%
%TO.N,VCC*%
X137248900Y-103601520D03*
D27*
%TO.P,U1,37,PA14/JTCK*%
%TO.N,/TCK*%
X135900160Y-102252780D03*
%TO.P,U1,38,PA15/JTDI*%
%TO.N,/TDI*%
X135900160Y-101752400D03*
%TO.P,U1,39,PB3/JTD0*%
%TO.N,/TDO*%
X135900160Y-101252020D03*
%TO.P,U1,40,PB4/JNTRST*%
%TO.N,/LED_RED*%
X135900160Y-100751640D03*
%TO.P,U1,41,PB5*%
%TO.N,/LED_GREEN*%
X135900160Y-100251260D03*
%TO.P,U1,42,PB6/TIM4_CH1*%
%TO.N,/I2C_SCL_VCCA*%
X135900160Y-99750880D03*
%TO.P,U1,43,PB7/TIM4_CH2*%
%TO.N,/I2C_SCK_VCCA*%
X135900160Y-99253040D03*
%TO.P,U1,44,BOOT0*%
%TO.N,/BOOT0*%
X135900160Y-98752660D03*
%TO.P,U1,45,PB8/TIM4_CH3*%
%TO.N,/MOTOR4*%
X135900160Y-98252280D03*
%TO.P,U1,46,PB9/TIM4_CH4*%
%TO.N,/MOTOR3*%
X135900160Y-97751900D03*
%TO.P,U1,47,VSS_3*%
%TO.N,DGND*%
X135900160Y-97251520D03*
%TO.P,U1,48,VDD_3*%
%TO.N,VCC*%
X135900160Y-96751140D03*
%TD*%
D16*
%TO.P,P4,1,P1*%
%TO.N,+BATT*%
X144663160Y-113502440D03*
D17*
%TO.P,P4,2,PM*%
%TO.N,Net-(D4-Pad1)*%
X146334480Y-113502440D03*
%TD*%
D16*
%TO.P,P3,1,P1*%
%TO.N,+BATT*%
X144663160Y-110502700D03*
D17*
%TO.P,P3,2,PM*%
%TO.N,Net-(D3-Pad1)*%
X146334480Y-110502700D03*
%TD*%
D16*
%TO.P,P2,1,P1*%
%TO.N,+BATT*%
X144663160Y-107502960D03*
D17*
%TO.P,P2,2,PM*%
%TO.N,Net-(D2-Pad1)*%
X146334480Y-107502960D03*
%TD*%
D16*
%TO.P,P1,1,P1*%
%TO.N,+BATT*%
X144663160Y-104503220D03*
D17*
%TO.P,P1,2,PM*%
%TO.N,Net-(D1-Pad1)*%
X146334480Y-104503220D03*
%TD*%
D25*
%TO.P,R32,1*%
%TO.N,GND*%
X150098760Y-103964740D03*
%TO.P,R32,2*%
%TO.N,/POWER/VBAT*%
X150098760Y-102440740D03*
%TD*%
D28*
%TO.P,U6,1,D1I*%
%TO.N,/POWER/USBD+*%
X131950460Y-93253560D03*
%TO.P,U6,2,GND*%
%TO.N,DGND*%
X131300220Y-93253560D03*
%TO.P,U6,3,D2I*%
%TO.N,/POWER/USBD-*%
X130649980Y-93253560D03*
%TO.P,U6,4,D2C*%
%TO.N,/POWER/D-*%
X130649980Y-91353640D03*
%TO.P,U6,5,VBUS*%
%TO.N,/POWER/USB_CON*%
X131300220Y-91353640D03*
%TO.P,U6,6,D1C*%
%TO.N,/POWER/D+*%
X131950460Y-91353640D03*
%TD*%
D29*
%TO.P,P7,*%
%TO.N,*%
X132598160Y-88752680D03*
D30*
X133149340Y-86202520D03*
D31*
X133449060Y-86601300D03*
D29*
X126400560Y-88752680D03*
D32*
X130698240Y-86202520D03*
D33*
X125498860Y-86202520D03*
D32*
X128300480Y-86202520D03*
D34*
%TO.P,P7,1,VCC*%
%TO.N,/POWER/VUSB*%
X128198880Y-88902540D03*
%TO.P,P7,2,D-*%
%TO.N,/POWER/D-*%
X128849120Y-88902540D03*
%TO.P,P7,3,D+*%
%TO.N,/POWER/D+*%
X129499360Y-88902540D03*
%TO.P,P7,4,ID*%
%TO.N,unconnected-(P7-Pad4)*%
X130149600Y-88902540D03*
%TO.P,P7,5,GND*%
%TO.N,DGND*%
X130799840Y-88902540D03*
%TD*%
D25*
%TO.P,R33,1*%
%TO.N,Net-(R33-Pad1)*%
X153400760Y-91841320D03*
%TO.P,R33,2*%
%TO.N,Net-(Q6-PadD)*%
X153400760Y-93365320D03*
%TD*%
D35*
%TO.P,P9,1,1*%
%TO.N,GND*%
X152900380Y-105402380D03*
%TD*%
D36*
%TO.P,Q5,D,D*%
%TO.N,Net-(Q5-PadD)*%
X152900380Y-101587300D03*
%TO.P,Q5,G,G*%
%TO.N,VCOM*%
X153789380Y-103619300D03*
%TO.P,Q5,S,S*%
%TO.N,/POWER/VBAT*%
X152011380Y-103619300D03*
%TD*%
%TO.P,Q6,D,D*%
%TO.N,Net-(Q6-PadD)*%
X153116280Y-94503240D03*
%TO.P,Q6,G,G*%
%TO.N,/POWER/VUSB*%
X151084280Y-95392240D03*
%TO.P,Q6,S,S*%
%TO.N,GND*%
X151084280Y-93614240D03*
%TD*%
D37*
%TO.P,D8,1,A*%
%TO.N,Net-(D8-Pad1)*%
X156028635Y-115972345D03*
%TO.P,D8,2,K*%
%TO.N,DGND*%
X154968965Y-117032015D03*
%TD*%
D25*
%TO.P,R38,1*%
%TO.N,Net-(D8-Pad1)*%
X155300680Y-114764820D03*
%TO.P,R38,2*%
%TO.N,VCC*%
X155300680Y-113240820D03*
%TD*%
D38*
%TO.N,/EXT_SPI_CS*%
X142062200Y-97373440D03*
%TO.N,/EXT_SPI_MISO*%
X140530580Y-99001580D03*
%TO.N,/EXT_SPI_MOSI*%
X140764260Y-100357940D03*
%TO.N,/EXT_SPI_SCK*%
X141376400Y-98008440D03*
%TO.N,/LED_GREEN*%
X135069580Y-94282260D03*
X147480020Y-86702900D03*
X133370320Y-94414340D03*
%TO.N,/LED_RED*%
X126748540Y-102293420D03*
%TO.N,/MOTOR1*%
X142468600Y-99842320D03*
%TO.N,/MOTOR2*%
X141678660Y-99562920D03*
%TO.N,/MOTOR3*%
X141048740Y-101122480D03*
%TO.N,/MOTOR4*%
X139420600Y-101064060D03*
%TO.N,/POWER/USBD+*%
X137739120Y-98013520D03*
X132019040Y-96423480D03*
%TO.N,/POWER/USBD-*%
X138549380Y-97993200D03*
X130589020Y-95844360D03*
%TO.N,/POWER/USB_CON*%
X128369060Y-91704160D03*
X142699740Y-93604080D03*
X136730740Y-93652340D03*
X135399780Y-92532200D03*
%TO.N,/POWER/VUSB*%
X127299720Y-93202760D03*
X147520660Y-100462080D03*
X145798540Y-95613220D03*
%TO.N,/SNRST*%
X130898900Y-98602800D03*
X140614400Y-97129600D03*
%TO.N,/TDI*%
X134162800Y-101549200D03*
%TO.N,/WIRELESS/W_CS*%
X141058900Y-111602520D03*
%TO.N,AGND*%
X140639800Y-94272100D03*
X154500580Y-86502240D03*
X137500360Y-92402660D03*
X142570200Y-87472520D03*
X153700480Y-86304120D03*
X153098500Y-86903560D03*
X137200640Y-87302340D03*
X146149060Y-93022420D03*
X146210020Y-87282020D03*
X134399020Y-93703140D03*
X138069320Y-93332300D03*
X148569680Y-89263220D03*
%TO.N,DGND*%
X125999240Y-107002580D03*
X134698740Y-106603800D03*
X134000240Y-107502960D03*
X125999240Y-104002840D03*
X130898900Y-107302300D03*
X129799080Y-109702600D03*
X140700760Y-114802920D03*
X134000240Y-113502440D03*
X131330700Y-105183940D03*
X131998720Y-113502440D03*
X135900160Y-113703100D03*
X135600440Y-107502960D03*
X137500360Y-110103920D03*
X148069300Y-115072160D03*
X130898900Y-109402880D03*
X125999240Y-108503720D03*
X137899140Y-111503460D03*
X132999480Y-113502440D03*
X148998940Y-105402380D03*
X132999480Y-106603800D03*
X127000000Y-108503720D03*
X128000760Y-108503720D03*
X131599940Y-106702860D03*
X132499100Y-115003580D03*
X132199380Y-107302300D03*
X125999240Y-105503980D03*
X131000500Y-113502440D03*
X127000000Y-109501940D03*
X135699500Y-109202220D03*
X148770340Y-115514120D03*
X136598660Y-111503460D03*
X130898900Y-108503720D03*
X129999740Y-108503720D03*
X128998980Y-108503720D03*
X148000720Y-111653320D03*
X134708900Y-97911920D03*
X148198840Y-105102660D03*
X128498600Y-109501940D03*
X137640060Y-104874060D03*
X139499340Y-113002060D03*
X134698740Y-108503720D03*
%TO.N,GND*%
X151500840Y-112303560D03*
X154200860Y-109702600D03*
X150898860Y-103403400D03*
X152930860Y-112463580D03*
X151698960Y-97203260D03*
X150009860Y-95354140D03*
X153898600Y-108803440D03*
X154000200Y-108003340D03*
%TO.N,/EXT_I2C_SCL{slash}TX*%
X139974320Y-101744780D03*
%TO.N,/EXT_I2C_SDA{slash}RX*%
X139176760Y-102003860D03*
%TO.N,Net-(Q6-PadD)*%
X148899880Y-101602540D03*
%TO.N,/I2C_SCK_VCCA*%
X137238740Y-98643440D03*
%TO.N,/I2C_SCL_VCCA*%
X133609080Y-90103960D03*
%TO.N,/PGOOD*%
X143629380Y-95709740D03*
X147858480Y-96664780D03*
%TO.N,/SYSOFF*%
X147185380Y-95590360D03*
%TO.N,Net-(R33-Pad1)*%
X154259280Y-92179140D03*
%TO.N,/EN1*%
X137312400Y-94218760D03*
%TO.N,/INT_GA*%
X141671040Y-87340440D03*
%TO.N,VCC*%
X141678660Y-113863120D03*
X153070560Y-114002820D03*
X136588500Y-114802920D03*
X143499840Y-102903020D03*
X155430220Y-86669880D03*
X132120640Y-103284020D03*
X123959620Y-87523320D03*
X134548880Y-96862900D03*
X148160740Y-113073180D03*
X154800300Y-100233480D03*
X136679940Y-103263700D03*
X126700280Y-98602800D03*
%TO.N,VCCA*%
X136298940Y-87302340D03*
X134899400Y-91503500D03*
X151000460Y-86903560D03*
X142748000Y-91152980D03*
X141899640Y-93202760D03*
X132900420Y-93703140D03*
X144830800Y-87393780D03*
X150098760Y-86702900D03*
X151599900Y-91704160D03*
%TO.N,VCOM*%
X154099260Y-111902240D03*
X148508720Y-94493080D03*
X146428460Y-99522280D03*
X154800300Y-101203760D03*
X152760680Y-107853480D03*
X146570700Y-97904300D03*
X154099260Y-110904020D03*
X146489420Y-98701860D03*
%TO.N,/CHG*%
X142590520Y-100644960D03*
%TO.N,/SPI_SCK*%
X140898880Y-110802420D03*
%TO.N,/SPI_MISO*%
X141000480Y-108701840D03*
%TO.N,/SPI_MOSI*%
X141000480Y-109804200D03*
%TO.N,/W_CK*%
X140680440Y-106903520D03*
%TO.N,/W_INT*%
X140220700Y-107662980D03*
%TO.N,/W_CE*%
X140398500Y-112102900D03*
%TO.N,/EN2*%
X150080980Y-97073720D03*
%TO.N,unconnected-(U3-Pad6)*%
X146799300Y-94084140D03*
X144500600Y-93713300D03*
%TO.N,unconnected-(U3-Pad7)*%
X147599400Y-94363540D03*
X145300700Y-93103700D03*
%TD*%
D39*
%TO.N,+BATT*%
X144399000Y-104968040D02*
X144863820Y-104503220D01*
X144399000Y-106004360D02*
X144399000Y-104968040D01*
X144399000Y-113967260D02*
X144863820Y-113502440D01*
X144399000Y-107967780D02*
X144863820Y-107502960D01*
X144399000Y-110967520D02*
X144863820Y-110502700D01*
X144399000Y-112003840D02*
X144399000Y-110967520D01*
X144399000Y-109004100D02*
X144399000Y-107967780D01*
X151937720Y-99961700D02*
X152699720Y-99049840D01*
X150898860Y-99961700D02*
X151937720Y-99961700D01*
D40*
X150898860Y-100139500D02*
X149837140Y-101201220D01*
D39*
X144399000Y-115003580D02*
X144399000Y-113967260D01*
D40*
X150898860Y-99961700D02*
X150898860Y-100139500D01*
D41*
%TO.N,/BOOT0*%
X135900160Y-98752660D02*
X134713980Y-98752660D01*
X134713980Y-98752660D02*
X134462520Y-99004120D01*
D40*
%TO.N,Net-(C2-Pad1)*%
X135498840Y-88242140D02*
X137287000Y-88242140D01*
X137287000Y-88242140D02*
X137497820Y-88452960D01*
X138734800Y-88452960D02*
X137497820Y-88452960D01*
X139250420Y-88968580D02*
X138734800Y-88452960D01*
X139250420Y-95402400D02*
X139250420Y-88968580D01*
%TO.N,Net-(C3-Pad1)*%
X141099540Y-90952320D02*
X139862560Y-90952320D01*
X139862560Y-90952320D02*
X139750800Y-91064080D01*
X139750800Y-91064080D02*
X139750800Y-95402400D01*
X143197580Y-88506300D02*
X143637000Y-88506300D01*
X141099540Y-90604340D02*
X143197580Y-88506300D01*
X141099540Y-90952320D02*
X141099540Y-90604340D01*
D41*
%TO.N,/EXT_SPI_CS*%
X142184120Y-97251520D02*
X142062200Y-97373440D01*
X144099280Y-97251520D02*
X142184120Y-97251520D01*
%TO.N,/EXT_SPI_MISO*%
X141638020Y-98590100D02*
X140942060Y-98590100D01*
X144033240Y-98318320D02*
X141909800Y-98318320D01*
X140942060Y-98590100D02*
X140530580Y-99001580D01*
X141909800Y-98318320D02*
X141638020Y-98590100D01*
X144099280Y-98252280D02*
X144033240Y-98318320D01*
%TO.N,/EXT_SPI_MOSI*%
X141465300Y-98953320D02*
X140764260Y-99654360D01*
X141991080Y-98752660D02*
X141790420Y-98953320D01*
X140764260Y-99654360D02*
X140764260Y-100357940D01*
X144099280Y-98752660D02*
X141991080Y-98752660D01*
X141790420Y-98953320D02*
X141465300Y-98953320D01*
%TO.N,/EXT_SPI_SCK*%
X143187420Y-97751900D02*
X142984220Y-97955100D01*
X144099280Y-97751900D02*
X143187420Y-97751900D01*
X142984220Y-97955100D02*
X141429740Y-97955100D01*
X141429740Y-97955100D02*
X141376400Y-98008440D01*
%TO.N,/LED_GREEN*%
X137746740Y-86342220D02*
X135856980Y-86342220D01*
X138033760Y-86629240D02*
X137746740Y-86342220D01*
X134299960Y-87663020D02*
X134299960Y-92532200D01*
X135069580Y-93301820D02*
X135069580Y-94282260D01*
X134797800Y-100251260D02*
X134769860Y-100223320D01*
X134769860Y-100223320D02*
X133832600Y-100223320D01*
X147406360Y-86629240D02*
X138033760Y-86629240D01*
X147480020Y-86702900D02*
X147406360Y-86629240D01*
X134299960Y-92532200D02*
X135069580Y-93301820D01*
X135900160Y-100251260D02*
X134797800Y-100251260D01*
X135120380Y-86842600D02*
X134299960Y-87663020D01*
X133832600Y-100223320D02*
X133527800Y-99918520D01*
X135356600Y-86842600D02*
X135120380Y-86842600D01*
X135856980Y-86342220D02*
X135356600Y-86842600D01*
X133527800Y-94571820D02*
X133370320Y-94414340D01*
X133527800Y-99918520D02*
X133527800Y-94571820D01*
%TO.N,/LED_RED*%
X135900160Y-100751640D02*
X134696200Y-100751640D01*
X134533640Y-100589080D02*
X131914900Y-100589080D01*
D42*
X130228340Y-102273100D02*
X127210820Y-102273100D01*
D41*
X126768860Y-102273100D02*
X126748540Y-102293420D01*
D42*
X131914900Y-100589080D02*
X131912360Y-100589080D01*
D41*
X134696200Y-100751640D02*
X134533640Y-100589080D01*
X127210820Y-102273100D02*
X126768860Y-102273100D01*
X131912360Y-100589080D02*
X130228340Y-102273100D01*
%TO.N,/MOTOR1*%
X144099280Y-99750880D02*
X142560040Y-99750880D01*
X142560040Y-99750880D02*
X142468600Y-99842320D01*
%TO.N,/MOTOR2*%
X141988540Y-99253040D02*
X141678660Y-99562920D01*
X144099280Y-99253040D02*
X141988540Y-99253040D01*
%TO.N,/MOTOR3*%
X138917680Y-97033080D02*
X139781280Y-97896680D01*
X140459460Y-101122480D02*
X141048740Y-101122480D01*
X139781280Y-100444300D02*
X140459460Y-101122480D01*
X136664700Y-97751900D02*
X137383520Y-97033080D01*
X137383520Y-97033080D02*
X138917680Y-97033080D01*
X139781280Y-97896680D02*
X139781280Y-100444300D01*
X135900160Y-97751900D02*
X136664700Y-97751900D01*
%TO.N,/MOTOR4*%
X139420600Y-98044000D02*
X139420600Y-101064060D01*
X137180320Y-97741740D02*
X137528300Y-97393760D01*
X136761220Y-98252280D02*
X137180320Y-97833180D01*
X138770360Y-97393760D02*
X139420600Y-98044000D01*
X135900160Y-98252280D02*
X136761220Y-98252280D01*
X137528300Y-97393760D02*
X138770360Y-97393760D01*
X137180320Y-97833180D02*
X137180320Y-97741740D01*
%TO.N,Net-(C29-Pad2)*%
X152138380Y-88902540D02*
X152237440Y-89001600D01*
X149994620Y-88437720D02*
X149994620Y-88696800D01*
X149819360Y-88612980D02*
X147871180Y-88612980D01*
X150200360Y-88902540D02*
X152138380Y-88902540D01*
X152237440Y-89001600D02*
X152237440Y-90502740D01*
X149994620Y-87731600D02*
X149994620Y-88437720D01*
X149994620Y-88437720D02*
X149819360Y-88612980D01*
X147871180Y-88612980D02*
X147761960Y-88503760D01*
X149994620Y-88696800D02*
X150200360Y-88902540D01*
%TO.N,/POWER/D+*%
X131950460Y-90883740D02*
X131620260Y-90553540D01*
X130230880Y-90553540D02*
X129499360Y-89822020D01*
X129499360Y-89822020D02*
X129499360Y-88902540D01*
X131950460Y-91353640D02*
X131950460Y-90883740D01*
X131620260Y-90553540D02*
X130230880Y-90553540D01*
%TO.N,/POWER/D-*%
X128849120Y-89832180D02*
X128849120Y-88902540D01*
X130649980Y-91013280D02*
X130550920Y-90914220D01*
X129931160Y-90914220D02*
X128849120Y-89832180D01*
X130550920Y-90914220D02*
X129931160Y-90914220D01*
X130649980Y-91353640D02*
X130649980Y-91013280D01*
%TO.N,Net-(C31-Pad1)*%
X150756620Y-91145360D02*
X150756620Y-92001340D01*
X149042120Y-90271600D02*
X149042120Y-89659460D01*
D40*
X150756620Y-92001340D02*
X150401020Y-92001340D01*
D41*
X149042120Y-89659460D02*
X149397720Y-89303860D01*
X150947120Y-89651840D02*
X150947120Y-90271600D01*
X149397720Y-89303860D02*
X150599140Y-89303860D01*
X150599140Y-89303860D02*
X150947120Y-89651840D01*
X150947120Y-90271600D02*
X150947120Y-90954860D01*
X150947120Y-90954860D02*
X150756620Y-91145360D01*
D40*
X150401020Y-92001340D02*
X149961600Y-92440760D01*
X149961600Y-92440760D02*
X149961600Y-93502480D01*
D41*
%TO.N,Net-(C32-Pad1)*%
X148498560Y-87503000D02*
X147299680Y-87503000D01*
X146999960Y-87802720D02*
X146999960Y-89240360D01*
X147299680Y-87503000D02*
X146999960Y-87802720D01*
X148727160Y-87731600D02*
X148498560Y-87503000D01*
X149042120Y-87731600D02*
X148727160Y-87731600D01*
X146999960Y-89240360D02*
X147761960Y-90002360D01*
%TO.N,Net-(C35-Pad2)*%
X152100280Y-112483900D02*
X152262840Y-112646460D01*
X152100280Y-112074960D02*
X152100280Y-112483900D01*
X151998680Y-111274860D02*
X151998680Y-111973360D01*
X151998680Y-111274860D02*
X151998680Y-110604300D01*
X150352760Y-110500160D02*
X150108920Y-110744000D01*
X147998180Y-110744000D02*
X149499320Y-110744000D01*
X150357840Y-110500160D02*
X150352760Y-110500160D01*
X151998680Y-110604300D02*
X151838660Y-110444280D01*
X151998680Y-111973360D02*
X152100280Y-112074960D01*
X152262840Y-112646460D02*
X152262840Y-113502440D01*
X149499320Y-109766100D02*
X149499320Y-110744000D01*
X151838660Y-110444280D02*
X150413720Y-110444280D01*
X150413720Y-110444280D02*
X150357840Y-110500160D01*
X150108920Y-110744000D02*
X149499320Y-110744000D01*
%TO.N,Net-(C40-Pad1)*%
X152951180Y-111274860D02*
X152951180Y-111635540D01*
X153830020Y-112514380D02*
X153830020Y-113240820D01*
X152951180Y-111635540D02*
X153830020Y-112514380D01*
%TO.N,/POWER/USBD+*%
X138229340Y-102397560D02*
X138750040Y-102918260D01*
X132019040Y-94122240D02*
X131950460Y-94053660D01*
X138750040Y-102918260D02*
X138750040Y-103601520D01*
X132019040Y-96423480D02*
X132019040Y-94122240D01*
X138229340Y-98503740D02*
X138229340Y-102397560D01*
X137739120Y-98013520D02*
X138229340Y-98503740D01*
X131950460Y-93253560D02*
X131950460Y-94053660D01*
%TO.N,/POWER/USBD-*%
X139250420Y-102689660D02*
X139029440Y-102689660D01*
X139250420Y-103601520D02*
X139250420Y-102689660D01*
X130649980Y-93853000D02*
X130649980Y-93253560D01*
X138590020Y-102250240D02*
X138590020Y-98033840D01*
X130589020Y-93913960D02*
X130649980Y-93853000D01*
X130589020Y-95844360D02*
X130589020Y-93913960D01*
X139029440Y-102689660D02*
X138590020Y-102250240D01*
X138590020Y-98033840D02*
X138549380Y-97993200D01*
%TO.N,/POWER/USB_CON*%
X128668780Y-92003880D02*
X128369060Y-91704160D01*
X131300220Y-91782900D02*
X131300220Y-91353640D01*
X136519920Y-93652340D02*
X136730740Y-93652340D01*
X131079240Y-92003880D02*
X128668780Y-92003880D01*
X141749780Y-94554040D02*
X142699740Y-93604080D01*
X141749780Y-95402400D02*
X141749780Y-94554040D01*
X135399780Y-92532200D02*
X136519920Y-93652340D01*
X131300220Y-91782900D02*
X131079240Y-92003880D01*
%TO.N,/POWER/VBAT*%
X146298920Y-101102160D02*
X145600420Y-100403660D01*
X147962620Y-101704140D02*
X147253960Y-101704140D01*
X148699220Y-102440740D02*
X147962620Y-101704140D01*
X144947640Y-96751140D02*
X145600420Y-97403920D01*
X144947640Y-96751140D02*
X144099280Y-96751140D01*
X152011380Y-103014780D02*
X151437340Y-102440740D01*
X151437340Y-102440740D02*
X150098760Y-102440740D01*
X146651980Y-101102160D02*
X146298920Y-101102160D01*
X145600420Y-97403920D02*
X145600420Y-100403660D01*
X152011380Y-103619300D02*
X152011380Y-103014780D01*
X147253960Y-101704140D02*
X146651980Y-101102160D01*
X150098760Y-102440740D02*
X148699220Y-102440740D01*
%TO.N,/POWER/VUSB*%
X149120860Y-95961200D02*
X148142960Y-94983300D01*
D43*
X127398780Y-90700860D02*
X127236220Y-90700860D01*
D41*
X151084280Y-95392240D02*
X150515320Y-95961200D01*
X150515320Y-95961200D02*
X149120860Y-95961200D01*
D43*
X128198880Y-89900760D02*
X127398780Y-90700860D01*
D41*
X146428460Y-94983300D02*
X145798540Y-95613220D01*
X148142960Y-94983300D02*
X146428460Y-94983300D01*
D43*
X128198880Y-88902540D02*
X128198880Y-89900760D01*
D39*
X127233680Y-91686380D02*
X127236220Y-90700860D01*
X128038860Y-92491560D02*
X127233680Y-91686380D01*
X128038860Y-93202760D02*
X128038860Y-92491560D01*
D43*
X128038860Y-93202760D02*
X127299720Y-93202760D01*
D41*
%TO.N,/SNRST*%
X131699000Y-99705160D02*
X130401060Y-101003100D01*
D42*
X130398520Y-101003100D02*
X128800860Y-101003100D01*
D41*
X131561840Y-99265740D02*
X131699000Y-99265740D01*
D42*
X128800860Y-101003100D02*
X128165860Y-101638100D01*
D41*
X130401060Y-101003100D02*
X130398520Y-101003100D01*
X140248640Y-95402400D02*
X140248640Y-96725740D01*
X131699000Y-99265740D02*
X131699000Y-99705160D01*
X140614400Y-97091500D02*
X140614400Y-97129600D01*
X140248640Y-96725740D02*
X140614400Y-97091500D01*
X130898900Y-98602800D02*
X131561840Y-99265740D01*
%TO.N,/TCK*%
X131399280Y-103703120D02*
X131399280Y-103103680D01*
X132250180Y-102252780D02*
X135900160Y-102252780D01*
X131399280Y-103103680D02*
X132250180Y-102252780D01*
X128165860Y-105448100D02*
X128800860Y-104813100D01*
D42*
X128800860Y-104813100D02*
X130289300Y-104813100D01*
D41*
X130289300Y-104813100D02*
X131399280Y-103703120D01*
%TO.N,/TDI*%
X134366000Y-101752400D02*
X134162800Y-101549200D01*
X135900160Y-101752400D02*
X134366000Y-101752400D01*
%TO.N,/TDO*%
X134688580Y-101252020D02*
X135900160Y-101252020D01*
X132905500Y-100949760D02*
X134386320Y-100949760D01*
X134386320Y-100949760D02*
X134688580Y-101252020D01*
X128165860Y-104178100D02*
X128800860Y-103543100D01*
D42*
X128800860Y-103543100D02*
X130312160Y-103543100D01*
D41*
X130312160Y-103543100D02*
X132905500Y-100949760D01*
%TO.N,/TMS*%
X128165860Y-106718100D02*
X128709420Y-106083100D01*
X138249660Y-105374440D02*
X138249660Y-103601520D01*
X137922000Y-105702100D02*
X138249660Y-105374440D01*
X131899660Y-105702100D02*
X137922000Y-105702100D01*
X131518660Y-106083100D02*
X131899660Y-105702100D01*
X130510280Y-106083100D02*
X131518660Y-106083100D01*
D42*
X128709420Y-106083100D02*
X130510280Y-106083100D01*
D41*
%TO.N,Net-(D8-Pad1)*%
X155300680Y-114764820D02*
X155399740Y-115341400D01*
X155399740Y-115341400D02*
X156029660Y-115971320D01*
D39*
%TO.N,Net-(D1-Pad1)*%
X146598640Y-106004360D02*
X146598640Y-104968040D01*
X146598640Y-104968040D02*
X146133820Y-104503220D01*
D41*
%TO.N,/WIRELESS/W_CS*%
X142750540Y-104513380D02*
X142687040Y-104576880D01*
X142750540Y-103601520D02*
X142750540Y-104513380D01*
X142687040Y-104576880D02*
X142687040Y-109974380D01*
X142687040Y-109974380D02*
X141058900Y-111602520D01*
D39*
%TO.N,Net-(D2-Pad1)*%
X146598640Y-109004100D02*
X146598640Y-107967780D01*
X146598640Y-107967780D02*
X146133820Y-107502960D01*
D40*
%TO.N,AGND*%
X137497820Y-90952320D02*
X137497820Y-92400120D01*
X145161000Y-88506300D02*
X146235420Y-88506300D01*
X136964420Y-89766140D02*
X135498840Y-89766140D01*
X146149060Y-93022420D02*
X146738340Y-92433140D01*
X137497820Y-90952320D02*
X137497820Y-90299540D01*
X145161000Y-90004900D02*
X145161000Y-91506040D01*
X137497820Y-90299540D02*
X136964420Y-89766140D01*
X137497820Y-92400120D02*
X137500360Y-92402660D01*
X141589760Y-88452960D02*
X142570200Y-87472520D01*
X140749020Y-94381320D02*
X140639800Y-94272100D01*
X153761440Y-87503000D02*
X153761440Y-86365080D01*
X146738340Y-92433140D02*
X146738340Y-92003880D01*
X153761440Y-86365080D02*
X153700480Y-86304120D01*
X153761440Y-87464900D02*
X153761440Y-87503000D01*
X145161000Y-88506300D02*
X145161000Y-90004900D01*
X141099540Y-88452960D02*
X141589760Y-88452960D01*
X146235420Y-88506300D02*
X146237960Y-88503760D01*
X140749020Y-95402400D02*
X140749020Y-94381320D01*
X153098500Y-86903560D02*
X153761440Y-87464900D01*
X146237960Y-88503760D02*
X146237960Y-90002360D01*
X146210020Y-87282020D02*
X146237960Y-87309960D01*
X146237960Y-87309960D02*
X146237960Y-88503760D01*
%TO.N,DGND*%
X130898900Y-108503720D02*
X130898900Y-107302300D01*
X153497280Y-114767360D02*
X153830020Y-114764820D01*
X135900160Y-113703100D02*
X135737600Y-113865660D01*
X148198840Y-104952800D02*
X146979640Y-103733600D01*
D39*
X131998720Y-92504260D02*
X131648200Y-92504260D01*
D40*
X132900420Y-106702860D02*
X131599940Y-106702860D01*
X132999480Y-106603800D02*
X132900420Y-106702860D01*
D39*
X149499320Y-114785140D02*
X148770340Y-115514120D01*
D40*
X130944620Y-96558100D02*
X129435860Y-96558100D01*
X147998180Y-112268000D02*
X147998180Y-111655860D01*
X149237700Y-107005120D02*
X149237700Y-105641140D01*
X131300220Y-92854780D02*
X130898900Y-92453460D01*
X127000000Y-108503720D02*
X128000760Y-108503720D01*
D39*
X130799840Y-88902540D02*
X130799840Y-89811860D01*
D40*
X130898900Y-92453460D02*
X130312160Y-92453460D01*
D39*
X132600700Y-91902280D02*
X132600700Y-90733880D01*
D40*
X148198840Y-105102660D02*
X148198840Y-104952800D01*
X148498560Y-105402380D02*
X148198840Y-105102660D01*
X132199380Y-107302300D02*
X134000240Y-107502960D01*
D41*
X135900160Y-97251520D02*
X134990840Y-97251520D01*
D40*
X131699000Y-97741740D02*
X132687060Y-97741740D01*
D39*
X131300220Y-92854780D02*
X131300220Y-92852240D01*
D40*
X145989040Y-101752400D02*
X145999200Y-101742240D01*
X147480020Y-114482880D02*
X148069300Y-115072160D01*
X146979640Y-103733600D02*
X146979640Y-101973380D01*
X131998720Y-113502440D02*
X132999480Y-113502440D01*
X146748500Y-101742240D02*
X145999200Y-101742240D01*
X132499100Y-115003580D02*
X131000500Y-113502440D01*
X144099280Y-101752400D02*
X145989040Y-101752400D01*
D39*
X132600700Y-91902280D02*
X131998720Y-92504260D01*
X149499320Y-114767360D02*
X149499320Y-114785140D01*
D40*
X132511800Y-104002840D02*
X131330700Y-105183940D01*
X153830020Y-114764820D02*
X153207720Y-114764820D01*
X146979640Y-101973380D02*
X146748500Y-101742240D01*
X129799080Y-109702600D02*
X130098800Y-109402880D01*
X135600440Y-107502960D02*
X134701280Y-106603800D01*
X132687060Y-97741740D02*
X132938520Y-97993200D01*
X134236460Y-104002840D02*
X132511800Y-104002840D01*
X135737600Y-113865660D02*
X135737600Y-114802920D01*
X128998980Y-108503720D02*
X129999740Y-108503720D01*
D39*
X131300220Y-93253560D02*
X131300220Y-96202500D01*
D40*
X153207720Y-114764820D02*
X152768300Y-115204240D01*
X154967940Y-117033040D02*
X154967940Y-115902740D01*
X154721560Y-117279420D02*
X154967940Y-117033040D01*
X131300220Y-96202500D02*
X130944620Y-96558100D01*
D39*
X131648200Y-92504260D02*
X131300220Y-92852240D01*
D40*
X130312160Y-92453460D02*
X129562860Y-93202760D01*
X131300220Y-93253560D02*
X131300220Y-92854780D01*
X128498600Y-109501940D02*
X127000000Y-109501940D01*
X134701280Y-106603800D02*
X134698740Y-106603800D01*
X149237700Y-105641140D02*
X148998940Y-105402380D01*
X132938520Y-95803720D02*
X132938520Y-97993200D01*
X147480020Y-112742980D02*
X147480020Y-114482880D01*
X153497280Y-114767360D02*
X153830020Y-114764820D01*
X154721560Y-117279420D02*
X154967940Y-117033040D01*
X147955000Y-112268000D02*
X147480020Y-112742980D01*
D39*
X131869180Y-90002360D02*
X130990340Y-90002360D01*
D40*
X148998940Y-105402380D02*
X148498560Y-105402380D01*
X130098800Y-109402880D02*
X130898900Y-109402880D01*
X147998180Y-111655860D02*
X148000720Y-111653320D01*
D39*
X130990340Y-90002360D02*
X130799840Y-89811860D01*
D41*
X134990840Y-97251520D02*
X134708900Y-97533460D01*
D40*
X125999240Y-105503980D02*
X125999240Y-104002840D01*
X154967940Y-115902740D02*
X153830020Y-114764820D01*
X147998180Y-112268000D02*
X147955000Y-112268000D01*
X135397240Y-109202220D02*
X135699500Y-109202220D01*
X137749280Y-104764840D02*
X137640060Y-104874060D01*
X134698740Y-108503720D02*
X135397240Y-109202220D01*
X150571200Y-115204240D02*
X150134320Y-114767360D01*
X125999240Y-108503720D02*
X125999240Y-107002580D01*
D39*
X132600700Y-90733880D02*
X131869180Y-90002360D01*
D41*
X134708900Y-97533460D02*
X134708900Y-97911920D01*
D40*
X132999480Y-113502440D02*
X134000240Y-113502440D01*
X150134320Y-114767360D02*
X149499320Y-114767360D01*
X152768300Y-115204240D02*
X150571200Y-115204240D01*
X137749280Y-103601520D02*
X137749280Y-104764840D01*
X132938520Y-97993200D02*
X132938520Y-99004120D01*
D39*
%TO.N,GND*%
X152499060Y-105402380D02*
X152900380Y-105402380D01*
D43*
X150337520Y-103964740D02*
X150898860Y-103403400D01*
D41*
X150009860Y-95003620D02*
X150009860Y-95354140D01*
D43*
X149994620Y-90271600D02*
X149994620Y-91239340D01*
X150098760Y-103964740D02*
X148699220Y-103964740D01*
X151737060Y-107005120D02*
X150761700Y-107005120D01*
X151737060Y-107939840D02*
X151998680Y-108201460D01*
D41*
X151084280Y-93916500D02*
X150009860Y-94990920D01*
D43*
X149232620Y-92001340D02*
X149232620Y-94226380D01*
X151899620Y-108803440D02*
X151998680Y-108734860D01*
D39*
X151698960Y-97203260D02*
X152351740Y-97203260D01*
X151737060Y-107005120D02*
X151737060Y-106164380D01*
D43*
X151998680Y-108734860D02*
X151968200Y-108734860D01*
D41*
X150009860Y-94990920D02*
X150009860Y-95003620D01*
D43*
X151737060Y-107005120D02*
X151737060Y-107939840D01*
D39*
X152351740Y-97203260D02*
X152699720Y-97551240D01*
D43*
X149232620Y-94226380D02*
X150009860Y-95003620D01*
X148264880Y-92001340D02*
X148262340Y-92003880D01*
X151968200Y-108734860D02*
X151899620Y-108803440D01*
X149232620Y-92001340D02*
X148264880Y-92001340D01*
X151998680Y-108201460D02*
X151998680Y-108734860D01*
D39*
X151737060Y-106164380D02*
X152499060Y-105402380D01*
X150898860Y-98437700D02*
X150898860Y-98003360D01*
X150898860Y-98003360D02*
X151698960Y-97203260D01*
D43*
X150098760Y-103964740D02*
X150337520Y-103964740D01*
X149994620Y-91239340D02*
X149232620Y-92001340D01*
D41*
X151084280Y-93614240D02*
X151084280Y-93916500D01*
D39*
%TO.N,Net-(D3-Pad1)*%
X146598640Y-110967520D02*
X146133820Y-110502700D01*
X146598640Y-112003840D02*
X146598640Y-110967520D01*
%TO.N,Net-(D4-Pad1)*%
X146598640Y-113967260D02*
X146133820Y-113502440D01*
X146598640Y-115003580D02*
X146598640Y-113967260D01*
D41*
%TO.N,/EXT_I2C_SCL{slash}TX*%
X139974320Y-101744780D02*
X142420340Y-101744780D01*
X143413480Y-100751640D02*
X144099280Y-100751640D01*
X142420340Y-101744780D02*
X143413480Y-100751640D01*
%TO.N,/EXT_I2C_SDA{slash}RX*%
X143428720Y-101252020D02*
X144099280Y-101252020D01*
X142356840Y-102323900D02*
X143428720Y-101252020D01*
X139496800Y-102323900D02*
X142356840Y-102323900D01*
X139176760Y-102003860D02*
X139496800Y-102323900D01*
D40*
%TO.N,Net-(Q5-PadD)*%
X152288240Y-101587300D02*
X152900380Y-101587300D01*
X151902160Y-101201220D02*
X152288240Y-101587300D01*
X151361140Y-101201220D02*
X151902160Y-101201220D01*
D41*
%TO.N,Net-(Q6-PadD)*%
X147609560Y-97792540D02*
X147398740Y-98003360D01*
X153116280Y-93482160D02*
X153400760Y-93365320D01*
X151399240Y-96603820D02*
X151988520Y-96603820D01*
X150200360Y-97792540D02*
X147609560Y-97792540D01*
X150898860Y-97094040D02*
X150909020Y-97094040D01*
X148640800Y-101343460D02*
X148899880Y-101602540D01*
X150909020Y-97094040D02*
X151399240Y-96603820D01*
X153116280Y-94503240D02*
X153116280Y-95476060D01*
X147398740Y-98003360D02*
X147398740Y-99603560D01*
X147401280Y-101343460D02*
X148640800Y-101343460D01*
X152999440Y-93365320D02*
X153116280Y-93482160D01*
X153116280Y-93548200D02*
X153400760Y-93365320D01*
X153400760Y-93365320D02*
X152999440Y-93365320D01*
X151988520Y-96603820D02*
X153116280Y-95476060D01*
X150200360Y-97792540D02*
X150898860Y-97094040D01*
X146900900Y-100101400D02*
X146900900Y-100843080D01*
X153116280Y-94503240D02*
X153116280Y-93548200D01*
X146900900Y-100843080D02*
X147401280Y-101343460D01*
X147398740Y-99603560D02*
X146900900Y-100101400D01*
%TO.N,/I2C_SCK_VCCA*%
X135900160Y-99253040D02*
X136629140Y-99253040D01*
X137238740Y-98643440D02*
X136629140Y-99253040D01*
%TO.N,/I2C_SCL_VCCA*%
X133888480Y-94754700D02*
X133990080Y-94653100D01*
X135900160Y-99750880D02*
X135171180Y-99750880D01*
X135059420Y-99862640D02*
X133979920Y-99862640D01*
X135171180Y-99750880D02*
X135059420Y-99862640D01*
X133979920Y-99862640D02*
X133888480Y-99771200D01*
X133888480Y-99771200D02*
X133888480Y-94754700D01*
X133990080Y-94142560D02*
X133609080Y-93761560D01*
X133609080Y-93761560D02*
X133609080Y-90103960D01*
X133990080Y-94653100D02*
X133990080Y-94142560D01*
%TO.N,/PGOOD*%
X143629380Y-95709740D02*
X143012160Y-96326960D01*
X139321540Y-96314260D02*
X138750040Y-96314260D01*
X140035280Y-97028000D02*
X139321540Y-96314260D01*
X152900380Y-104203500D02*
X152900380Y-103098600D01*
X154030680Y-101968300D02*
X154030680Y-94101920D01*
X152400000Y-92603320D02*
X151843740Y-93159580D01*
X151399240Y-104404160D02*
X149999700Y-105803700D01*
X142240000Y-96326960D02*
X140843000Y-97723960D01*
X140843000Y-97723960D02*
X140121640Y-97723960D01*
X151843740Y-96090740D02*
X151787860Y-96146620D01*
X149499320Y-108242100D02*
X148000720Y-108242100D01*
X140035280Y-97637600D02*
X140035280Y-97028000D01*
X152900380Y-103098600D02*
X154030680Y-101968300D01*
X151843740Y-93159580D02*
X151843740Y-96090740D01*
X150888700Y-96146620D02*
X150657560Y-96377760D01*
X138750040Y-95402400D02*
X138750040Y-96314260D01*
X153840180Y-92603320D02*
X152400000Y-92603320D01*
X140121640Y-97723960D02*
X140035280Y-97637600D01*
X154238960Y-92852240D02*
X154238960Y-93893640D01*
X154238960Y-93893640D02*
X154030680Y-94101920D01*
X152900380Y-104203500D02*
X152699720Y-104404160D01*
X149999700Y-105803700D02*
X149999700Y-107741720D01*
X143012160Y-96326960D02*
X142240000Y-96326960D01*
X153990040Y-92753180D02*
X153840180Y-92603320D01*
X152699720Y-104404160D02*
X151399240Y-104404160D01*
X154139900Y-92753180D02*
X154238960Y-92852240D01*
X148145500Y-96377760D02*
X147858480Y-96664780D01*
X153990040Y-92753180D02*
X154139900Y-92753180D01*
X149999700Y-107741720D02*
X149499320Y-108242100D01*
X151787860Y-96146620D02*
X150888700Y-96146620D01*
X150657560Y-96377760D02*
X148145500Y-96377760D01*
%TO.N,/SYSOFF*%
X143690340Y-94361000D02*
X142539720Y-94361000D01*
X146547840Y-96227900D02*
X145557240Y-96227900D01*
X142250160Y-94650560D02*
X142250160Y-95402400D01*
X145557240Y-96227900D02*
X143690340Y-94361000D01*
X147185380Y-95590360D02*
X146547840Y-96227900D01*
X142539720Y-94361000D02*
X142250160Y-94650560D01*
D44*
%TO.N,Net-(R33-Pad1)*%
X153400760Y-91841320D02*
X153967180Y-91841320D01*
X154259280Y-92179140D02*
X153967180Y-91841320D01*
D41*
%TO.N,/EN1*%
X137749280Y-94490540D02*
X137584180Y-94490540D01*
X137584180Y-94490540D02*
X137312400Y-94218760D01*
X137749280Y-95402400D02*
X137749280Y-94490540D01*
%TO.N,/INT_GA*%
X135501380Y-87203280D02*
X135267700Y-87203280D01*
X141671040Y-87340440D02*
X138236960Y-87340440D01*
X135267700Y-87203280D02*
X134660640Y-87810340D01*
X137002520Y-92707460D02*
X136199880Y-91904820D01*
X138249660Y-95402400D02*
X138249660Y-94335600D01*
X134800340Y-90502740D02*
X134660640Y-90363040D01*
X137599420Y-86702900D02*
X136001760Y-86702900D01*
X134660640Y-90363040D02*
X134660640Y-87810340D01*
X138236960Y-87340440D02*
X137599420Y-86702900D01*
X138249660Y-94335600D02*
X137002520Y-93088460D01*
X136001760Y-86702900D02*
X135501380Y-87203280D01*
X137002520Y-93088460D02*
X137002520Y-92707460D01*
X135498840Y-90502740D02*
X134800340Y-90502740D01*
X136199880Y-91904820D02*
X136199880Y-91203780D01*
X136199880Y-91203780D02*
X135498840Y-90502740D01*
%TO.N,VCC*%
X134462520Y-96776540D02*
X134548880Y-96862900D01*
D40*
X126700280Y-98602800D02*
X126700280Y-94642940D01*
X151079200Y-114503200D02*
X152570180Y-114503200D01*
X147091400Y-109766100D02*
X146987260Y-109661960D01*
D39*
X148650960Y-113073180D02*
X148160740Y-113073180D01*
D40*
X144099280Y-102252780D02*
X144985740Y-102252780D01*
X137261600Y-114802920D02*
X136588500Y-114802920D01*
X155450540Y-86753700D02*
X155430220Y-86669880D01*
D39*
X149499320Y-111823500D02*
X149499320Y-112268000D01*
D40*
X125399800Y-93342460D02*
X125399800Y-91701620D01*
X144985740Y-102252780D02*
X145999200Y-103266240D01*
D39*
X149499320Y-113243360D02*
X148821140Y-113243360D01*
D40*
X155450540Y-88572340D02*
X155450540Y-86753700D01*
X150738840Y-114162840D02*
X151079200Y-114503200D01*
X136679940Y-103601520D02*
X136679940Y-103263700D01*
X143309340Y-110012480D02*
X143309340Y-112232440D01*
X125399800Y-91701620D02*
X124719080Y-91020900D01*
X137248900Y-103601520D02*
X136679940Y-103601520D01*
X155300680Y-113240820D02*
X155399740Y-113504980D01*
X154416760Y-94333060D02*
X154416760Y-99849940D01*
X154625040Y-92707460D02*
X154625040Y-94124780D01*
X147091400Y-109766100D02*
X148000720Y-109766100D01*
X124719080Y-88282780D02*
X123959620Y-87523320D01*
D39*
X151046180Y-111274860D02*
X150383240Y-111274860D01*
D40*
X134462520Y-96365060D02*
X134462520Y-95803720D01*
X155399740Y-113504980D02*
X154901900Y-114002820D01*
X154919680Y-92412820D02*
X154919680Y-89103200D01*
X126700280Y-94642940D02*
X125399800Y-93342460D01*
D39*
X149684740Y-111638080D02*
X149499320Y-111823500D01*
D40*
X137248900Y-95402400D02*
X137248900Y-96339660D01*
X143659860Y-109661960D02*
X143309340Y-110012480D01*
X154901900Y-114002820D02*
X153070560Y-114002820D01*
X135900160Y-96751140D02*
X136837420Y-96751140D01*
X154919680Y-89103200D02*
X155450540Y-88572340D01*
X135900160Y-96751140D02*
X134848600Y-96751140D01*
X136364980Y-103916480D02*
X136679940Y-103601520D01*
D39*
X150020020Y-111638080D02*
X149684740Y-111638080D01*
D40*
X143863060Y-103266240D02*
X143499840Y-102903020D01*
D39*
X149499320Y-112268000D02*
X149499320Y-113243360D01*
D41*
X134462520Y-95803720D02*
X134462520Y-96776540D01*
D40*
X150738840Y-113502440D02*
X150738840Y-114162840D01*
D39*
X148821140Y-113243360D02*
X148650960Y-113073180D01*
X149499320Y-113243360D02*
X150479760Y-113243360D01*
X150383240Y-111274860D02*
X150020020Y-111638080D01*
D40*
X150479760Y-113243360D02*
X150738840Y-113502440D01*
X154416760Y-99849940D02*
X154800300Y-100233480D01*
X124719080Y-91020900D02*
X124719080Y-88282780D01*
X146987260Y-109661960D02*
X143659860Y-109661960D01*
X154919680Y-92412820D02*
X154625040Y-92707460D01*
X137248900Y-96339660D02*
X136837420Y-96751140D01*
X152570180Y-114503200D02*
X153070560Y-114002820D01*
X154625040Y-94124780D02*
X154416760Y-94333060D01*
X135760460Y-104002840D02*
X136364980Y-104002840D01*
X136364980Y-104002840D02*
X136364980Y-103916480D01*
X145999200Y-103266240D02*
X143863060Y-103266240D01*
X134848600Y-96751140D02*
X134462520Y-96365060D01*
X143309340Y-112232440D02*
X141678660Y-113863120D01*
%TO.N,VCCA*%
X151000460Y-87678260D02*
X150947120Y-87731600D01*
X151000460Y-86903560D02*
X151000460Y-87678260D01*
X152008840Y-87731600D02*
X152237440Y-87503000D01*
X150947120Y-86956900D02*
X151000460Y-86903560D01*
X152999440Y-88239600D02*
X153761440Y-89001600D01*
X152499060Y-87503000D02*
X152999440Y-88003380D01*
X141249400Y-93853000D02*
X141249400Y-95402400D01*
X150947120Y-87731600D02*
X152008840Y-87731600D01*
X153761440Y-89001600D02*
X153761440Y-90502740D01*
X143637000Y-91506040D02*
X143596360Y-91506040D01*
X141249400Y-93853000D02*
X141899640Y-93202760D01*
X150947120Y-87731600D02*
X150947120Y-86956900D01*
X143637000Y-91506040D02*
X143637000Y-90004900D01*
X151000460Y-86903560D02*
X150299420Y-86903560D01*
D41*
X143101060Y-91506040D02*
X142748000Y-91152980D01*
X143637000Y-91506040D02*
X143101060Y-91506040D01*
D40*
X152237440Y-87503000D02*
X152499060Y-87503000D01*
X143596360Y-91506040D02*
X141899640Y-93202760D01*
X150299420Y-86903560D02*
X150098760Y-86702900D01*
X152999440Y-88003380D02*
X152999440Y-88239600D01*
D43*
%TO.N,VCOM*%
X153789380Y-102913180D02*
X154800300Y-101902260D01*
X152951180Y-109380020D02*
X152577800Y-109753400D01*
X152951180Y-108043980D02*
X152760680Y-107853480D01*
X153261060Y-107939840D02*
X152951180Y-108249720D01*
D39*
X148437600Y-93502480D02*
X148437600Y-94421960D01*
D43*
X152951180Y-108249720D02*
X152951180Y-108734860D01*
X152951180Y-108249720D02*
X152951180Y-108043980D01*
X151046180Y-109479080D02*
X151046180Y-108734860D01*
X152577800Y-109753400D02*
X151320500Y-109753400D01*
X154800300Y-101902260D02*
X154800300Y-101203760D01*
X153261060Y-107005120D02*
X153261060Y-107939840D01*
X153789380Y-103619300D02*
X153789380Y-102913180D01*
X151320500Y-109753400D02*
X151046180Y-109479080D01*
X152951180Y-108734860D02*
X152951180Y-109380020D01*
D39*
X148437600Y-94421960D02*
X148508720Y-94493080D01*
D41*
%TO.N,/CHG*%
X142793720Y-100644960D02*
X142590520Y-100644960D01*
X143187420Y-100251260D02*
X144099280Y-100251260D01*
X143187420Y-100251260D02*
X142793720Y-100644960D01*
%TO.N,/SPI_SCK*%
X140898880Y-110802420D02*
X142250160Y-109451140D01*
X142250160Y-109451140D02*
X142250160Y-103601520D01*
%TO.N,/SPI_MISO*%
X141749780Y-107952540D02*
X141749780Y-103601520D01*
X141000480Y-108701840D02*
X141749780Y-107952540D01*
%TO.N,/SPI_MOSI*%
X141249400Y-104551480D02*
X141249400Y-103601520D01*
X141000480Y-109804200D02*
X140304520Y-109108240D01*
X141366240Y-104668320D02*
X141249400Y-104551480D01*
X141366240Y-107335320D02*
X141366240Y-104668320D01*
X140304520Y-108397040D02*
X141366240Y-107335320D01*
X140304520Y-109108240D02*
X140304520Y-108397040D01*
%TO.N,/W_CK*%
X140749020Y-106834940D02*
X140680440Y-106903520D01*
X140749020Y-103601520D02*
X140749020Y-106834940D01*
%TO.N,/W_INT*%
X140248640Y-104785160D02*
X140248640Y-103601520D01*
X140060680Y-104973120D02*
X140248640Y-104785160D01*
X140060680Y-107502960D02*
X140060680Y-104973120D01*
X140220700Y-107662980D02*
X140060680Y-107502960D01*
%TO.N,/W_CE*%
X139750800Y-103601520D02*
X139750800Y-104541320D01*
X139644120Y-104648000D02*
X139644120Y-111348520D01*
X139644120Y-111348520D02*
X140398500Y-112102900D01*
X139750800Y-104541320D02*
X139644120Y-104648000D01*
%TO.N,/EN2*%
X150080980Y-97073720D02*
X149905720Y-97248980D01*
X146009360Y-97248980D02*
X149905720Y-97248980D01*
X143868140Y-95107760D02*
X146009360Y-97248980D01*
X143045180Y-95107760D02*
X142750540Y-95402400D01*
X143045180Y-95107760D02*
X143868140Y-95107760D01*
%TO.N,unconnected-(U3-Pad6)*%
X144960340Y-94173040D02*
X144500600Y-93713300D01*
X146799300Y-94084140D02*
X146710400Y-94173040D01*
X146710400Y-94173040D02*
X144960340Y-94173040D01*
%TO.N,unconnected-(U3-Pad7)*%
X147540980Y-94305120D02*
X147540980Y-93774260D01*
X145879820Y-93682820D02*
X145300700Y-93103700D01*
X146339560Y-93682820D02*
X145879820Y-93682820D01*
X147228560Y-93461840D02*
X146560540Y-93461840D01*
X146560540Y-93461840D02*
X146339560Y-93682820D01*
X147540980Y-93774260D02*
X147228560Y-93461840D01*
X147599400Y-94363540D02*
X147540980Y-94305120D01*
%TD*%
%TA.AperFunction,Conductor*%
%TO.N,AGND*%
G36*
X126507753Y-91335749D02*
G01*
X126545366Y-91372362D01*
X126553626Y-91384724D01*
X126637809Y-91440974D01*
X126687547Y-91450867D01*
X126750456Y-91483774D01*
X126785589Y-91545468D01*
X126788966Y-91574770D01*
X126788779Y-91647592D01*
X126788767Y-91652085D01*
X126787893Y-91666572D01*
X126784983Y-91691158D01*
X126784983Y-91691162D01*
X126783876Y-91700516D01*
X126791889Y-91744386D01*
X126794150Y-91756768D01*
X126794848Y-91760995D01*
X126803208Y-91817597D01*
X126806531Y-91824564D01*
X126807917Y-91832151D01*
X126812258Y-91840508D01*
X126812259Y-91840511D01*
X126822961Y-91861113D01*
X126832831Y-91880112D01*
X126834271Y-91882885D01*
X126836180Y-91886718D01*
X126856766Y-91929873D01*
X126856768Y-91929877D01*
X126860821Y-91938372D01*
X126865769Y-91943752D01*
X126866293Y-91944531D01*
X126869601Y-91950898D01*
X126873864Y-91955889D01*
X126910140Y-91992165D01*
X126913789Y-91995969D01*
X126935616Y-92019703D01*
X126951401Y-92036868D01*
X126958069Y-92040764D01*
X126964640Y-92046665D01*
X127334736Y-92416761D01*
X127368762Y-92479073D01*
X127363697Y-92549888D01*
X127321150Y-92606724D01*
X127262088Y-92630778D01*
X127184897Y-92640941D01*
X127150398Y-92645483D01*
X127011252Y-92703119D01*
X126891765Y-92794805D01*
X126800079Y-92914292D01*
X126742443Y-93053438D01*
X126722784Y-93202760D01*
X126742443Y-93352082D01*
X126800079Y-93491228D01*
X126891765Y-93610715D01*
X127011252Y-93702401D01*
X127150398Y-93760037D01*
X127299720Y-93779696D01*
X127341980Y-93774132D01*
X127412127Y-93785071D01*
X127465226Y-93832198D01*
X127474836Y-93850839D01*
X127479205Y-93861386D01*
X127481626Y-93873561D01*
X127537876Y-93957744D01*
X127548192Y-93964637D01*
X127608020Y-94004613D01*
X127622059Y-94013994D01*
X127696293Y-94028760D01*
X128038804Y-94028760D01*
X128381426Y-94028759D01*
X128422810Y-94020528D01*
X128443486Y-94016416D01*
X128443488Y-94016415D01*
X128455661Y-94013994D01*
X128465981Y-94007099D01*
X128465982Y-94007098D01*
X128529528Y-93964637D01*
X128539844Y-93957744D01*
X128596094Y-93873561D01*
X128610860Y-93799327D01*
X128610859Y-92606194D01*
X128596094Y-92531959D01*
X128593788Y-92528509D01*
X128586811Y-92463607D01*
X128618591Y-92400121D01*
X128679649Y-92363894D01*
X128710809Y-92359980D01*
X128890910Y-92359980D01*
X128959031Y-92379982D01*
X129005524Y-92433638D01*
X129015628Y-92503912D01*
X129009540Y-92526101D01*
X129005626Y-92531959D01*
X129003205Y-92544128D01*
X129003205Y-92544129D01*
X129001615Y-92552124D01*
X128990860Y-92606193D01*
X128990861Y-93799326D01*
X128997098Y-93830682D01*
X129003157Y-93861146D01*
X129005626Y-93873561D01*
X129012521Y-93883880D01*
X129012522Y-93883882D01*
X129043264Y-93929889D01*
X129061876Y-93957744D01*
X129072192Y-93964637D01*
X129132020Y-94004613D01*
X129146059Y-94013994D01*
X129220293Y-94028760D01*
X129562804Y-94028760D01*
X129905426Y-94028759D01*
X129946810Y-94020528D01*
X129967486Y-94016416D01*
X129967488Y-94016415D01*
X129979661Y-94013994D01*
X129989981Y-94007099D01*
X129989982Y-94007098D01*
X130036918Y-93975736D01*
X130104671Y-93954521D01*
X130173138Y-93973304D01*
X130220581Y-94026121D01*
X130232920Y-94080501D01*
X130232920Y-95334479D01*
X130212918Y-95402600D01*
X130192603Y-95424685D01*
X130193456Y-95425538D01*
X130187615Y-95431379D01*
X130181065Y-95436405D01*
X130167024Y-95454704D01*
X130109688Y-95496571D01*
X130067062Y-95504000D01*
X129043665Y-95504000D01*
X128975544Y-95483998D01*
X128929051Y-95430342D01*
X128919897Y-95354390D01*
X128923155Y-95337312D01*
X128923155Y-95337310D01*
X128924640Y-95329526D01*
X128920473Y-95263286D01*
X128914754Y-95172385D01*
X128914753Y-95172382D01*
X128914256Y-95164475D01*
X128911380Y-95155622D01*
X128880019Y-95059104D01*
X128863151Y-95007191D01*
X128858908Y-95000504D01*
X128858906Y-95000501D01*
X128778786Y-94874252D01*
X128774538Y-94867558D01*
X128653982Y-94754349D01*
X128509061Y-94674678D01*
X128348879Y-94633550D01*
X127826231Y-94633550D01*
X127778734Y-94639550D01*
X127711201Y-94648081D01*
X127711198Y-94648082D01*
X127703336Y-94649075D01*
X127695970Y-94651992D01*
X127695968Y-94651992D01*
X127556941Y-94707037D01*
X127556939Y-94707038D01*
X127549572Y-94709955D01*
X127543161Y-94714613D01*
X127543159Y-94714614D01*
X127448421Y-94783445D01*
X127415779Y-94807161D01*
X127310363Y-94934587D01*
X127309890Y-94934196D01*
X127260779Y-94977247D01*
X127190565Y-94987754D01*
X127125816Y-94958633D01*
X127087090Y-94899128D01*
X127081780Y-94862936D01*
X127081780Y-94697076D01*
X127084365Y-94672787D01*
X127084433Y-94671340D01*
X127086625Y-94661160D01*
X127082653Y-94627600D01*
X127082300Y-94621619D01*
X127082208Y-94621627D01*
X127081780Y-94616448D01*
X127081780Y-94611248D01*
X127080927Y-94606121D01*
X127080926Y-94606113D01*
X127078592Y-94592091D01*
X127077755Y-94586215D01*
X127072921Y-94545371D01*
X127072920Y-94545369D01*
X127071697Y-94535032D01*
X127067713Y-94526735D01*
X127066202Y-94517657D01*
X127061258Y-94508495D01*
X127061257Y-94508491D01*
X127041727Y-94472296D01*
X127039031Y-94467006D01*
X127034660Y-94457902D01*
X127016720Y-94420542D01*
X127013110Y-94416248D01*
X127011178Y-94414316D01*
X127009391Y-94412367D01*
X127009362Y-94412314D01*
X127009492Y-94412195D01*
X127008991Y-94411627D01*
X127005892Y-94405883D01*
X126966071Y-94369073D01*
X126962506Y-94365644D01*
X125818205Y-93221342D01*
X125784179Y-93159030D01*
X125781300Y-93132247D01*
X125781300Y-91755756D01*
X125783885Y-91731467D01*
X125783953Y-91730020D01*
X125786145Y-91719840D01*
X125782173Y-91686280D01*
X125781820Y-91680299D01*
X125781728Y-91680307D01*
X125781300Y-91675128D01*
X125781300Y-91669928D01*
X125780447Y-91664801D01*
X125780446Y-91664793D01*
X125778112Y-91650771D01*
X125777275Y-91644895D01*
X125771553Y-91596550D01*
X125783410Y-91526550D01*
X125831229Y-91474073D01*
X125896680Y-91455740D01*
X126009027Y-91455740D01*
X126012661Y-91455316D01*
X126012666Y-91455316D01*
X126132519Y-91441342D01*
X126139792Y-91440494D01*
X126187100Y-91423322D01*
X126298376Y-91382931D01*
X126305255Y-91380434D01*
X126371517Y-91336991D01*
X126439452Y-91316369D01*
X126507753Y-91335749D01*
G37*
%TD.AperFunction*%
%TA.AperFunction,Conductor*%
G36*
X142431116Y-91630817D02*
G01*
X142459532Y-91652621D01*
X142596853Y-91709501D01*
X142598678Y-91710257D01*
X142597958Y-91711996D01*
X142649657Y-91743508D01*
X142680679Y-91807368D01*
X142672251Y-91877863D01*
X142645519Y-91917359D01*
X141972881Y-92589997D01*
X141910569Y-92624023D01*
X141899559Y-92625207D01*
X141899640Y-92625824D01*
X141750318Y-92645483D01*
X141611172Y-92703119D01*
X141491685Y-92794805D01*
X141399999Y-92914292D01*
X141342363Y-93053438D01*
X141322704Y-93202760D01*
X141319260Y-93202307D01*
X141303780Y-93255026D01*
X141286878Y-93276000D01*
X141150459Y-93412418D01*
X141017917Y-93544960D01*
X140998906Y-93560314D01*
X140997844Y-93561280D01*
X140989096Y-93566929D01*
X140982652Y-93575104D01*
X140982649Y-93575106D01*
X140968171Y-93593472D01*
X140964194Y-93597947D01*
X140964265Y-93598008D01*
X140960912Y-93601965D01*
X140957229Y-93605648D01*
X140954203Y-93609883D01*
X140954201Y-93609885D01*
X140945947Y-93621436D01*
X140942384Y-93626182D01*
X140910466Y-93666670D01*
X140907415Y-93675357D01*
X140902066Y-93682843D01*
X140899083Y-93692819D01*
X140899082Y-93692820D01*
X140887302Y-93732211D01*
X140885472Y-93737843D01*
X140868384Y-93786502D01*
X140867900Y-93792091D01*
X140867900Y-93794802D01*
X140867785Y-93797469D01*
X140867766Y-93797532D01*
X140867592Y-93797525D01*
X140867545Y-93798271D01*
X140865675Y-93804524D01*
X140866771Y-93832412D01*
X140867803Y-93858678D01*
X140867900Y-93863625D01*
X140867900Y-94581212D01*
X140847898Y-94649333D01*
X140794242Y-94695826D01*
X140723968Y-94705930D01*
X140659388Y-94676436D01*
X140637137Y-94651217D01*
X140581984Y-94568676D01*
X140522725Y-94529080D01*
X140508120Y-94519321D01*
X140497801Y-94512426D01*
X140423567Y-94497660D01*
X140409934Y-94497660D01*
X140258300Y-94497661D01*
X140190180Y-94477659D01*
X140143687Y-94424004D01*
X140132300Y-94371661D01*
X140132300Y-91882730D01*
X140152302Y-91814609D01*
X140205958Y-91768116D01*
X140258300Y-91756730D01*
X141983630Y-91756729D01*
X142074566Y-91756729D01*
X142110318Y-91749618D01*
X142136626Y-91744386D01*
X142136628Y-91744385D01*
X142148801Y-91741964D01*
X142159121Y-91735069D01*
X142159122Y-91735068D01*
X142222668Y-91692607D01*
X142232984Y-91685714D01*
X142249648Y-91660776D01*
X142304124Y-91615248D01*
X142374567Y-91606400D01*
X142431116Y-91630817D01*
G37*
%TD.AperFunction*%
%TA.AperFunction,Conductor*%
G36*
X136213495Y-88811045D02*
G01*
X136269562Y-88854600D01*
X136293361Y-88928295D01*
X136293361Y-89027936D01*
X136298689Y-89054724D01*
X136305512Y-89089028D01*
X136308126Y-89102171D01*
X136315021Y-89112491D01*
X136315022Y-89112492D01*
X136321152Y-89121666D01*
X136364376Y-89186354D01*
X136448559Y-89242604D01*
X136522793Y-89257370D01*
X137497662Y-89257370D01*
X138472846Y-89257369D01*
X138508598Y-89250258D01*
X138534906Y-89245026D01*
X138534908Y-89245025D01*
X138547081Y-89242604D01*
X138557401Y-89235709D01*
X138557402Y-89235708D01*
X138620948Y-89193247D01*
X138631264Y-89186354D01*
X138638157Y-89176038D01*
X138646934Y-89167261D01*
X138647720Y-89168047D01*
X138692632Y-89130513D01*
X138763076Y-89121666D01*
X138827119Y-89152307D01*
X138864431Y-89212709D01*
X138868920Y-89246043D01*
X138868920Y-94371660D01*
X138848918Y-94439781D01*
X138795262Y-94486274D01*
X138742934Y-94497660D01*
X138738418Y-94497660D01*
X138733825Y-94497661D01*
X138665704Y-94477666D01*
X138619205Y-94424016D01*
X138607953Y-94365722D01*
X138608091Y-94362790D01*
X138610284Y-94352606D01*
X138606633Y-94321760D01*
X138606316Y-94316383D01*
X138606188Y-94316394D01*
X138605760Y-94311216D01*
X138605760Y-94306016D01*
X138603407Y-94291880D01*
X138602818Y-94288339D01*
X138601981Y-94282461D01*
X138597573Y-94245220D01*
X138596349Y-94234877D01*
X138592631Y-94227134D01*
X138591220Y-94218658D01*
X138568458Y-94176474D01*
X138565777Y-94171211D01*
X138548464Y-94135156D01*
X138548463Y-94135155D01*
X138545032Y-94128009D01*
X138541661Y-94123999D01*
X138539722Y-94122060D01*
X138538207Y-94120408D01*
X138537987Y-94120000D01*
X138538028Y-94119962D01*
X138537868Y-94119781D01*
X138534925Y-94114326D01*
X138497878Y-94080081D01*
X138494313Y-94076651D01*
X137395525Y-92977863D01*
X137361499Y-92915551D01*
X137358620Y-92888768D01*
X137358620Y-92758882D01*
X137360752Y-92738849D01*
X137360950Y-92734651D01*
X137363143Y-92724466D01*
X137359493Y-92693627D01*
X137359176Y-92688245D01*
X137359048Y-92688256D01*
X137358620Y-92683078D01*
X137358620Y-92677876D01*
X137355678Y-92660199D01*
X137354843Y-92654327D01*
X137350435Y-92617085D01*
X137350433Y-92617078D01*
X137349209Y-92606737D01*
X137345491Y-92598994D01*
X137344080Y-92590518D01*
X137321318Y-92548334D01*
X137318637Y-92543071D01*
X137301324Y-92507016D01*
X137301323Y-92507015D01*
X137297892Y-92499869D01*
X137294521Y-92495859D01*
X137292582Y-92493920D01*
X137291067Y-92492268D01*
X137290847Y-92491860D01*
X137290888Y-92491822D01*
X137290728Y-92491641D01*
X137287785Y-92486186D01*
X137250738Y-92451941D01*
X137247173Y-92448511D01*
X136592885Y-91794223D01*
X136558859Y-91731911D01*
X136555980Y-91705128D01*
X136555980Y-91255207D01*
X136558114Y-91235158D01*
X136558312Y-91230968D01*
X136560504Y-91220786D01*
X136556853Y-91189940D01*
X136556536Y-91184563D01*
X136556408Y-91184574D01*
X136555980Y-91179396D01*
X136555980Y-91174196D01*
X136555126Y-91169064D01*
X136553038Y-91156519D01*
X136552201Y-91150641D01*
X136547793Y-91113400D01*
X136546569Y-91103057D01*
X136542851Y-91095314D01*
X136541440Y-91086838D01*
X136529624Y-91064939D01*
X136518686Y-91044666D01*
X136515993Y-91039380D01*
X136498685Y-91003338D01*
X136498683Y-91003335D01*
X136495252Y-90996190D01*
X136491881Y-90992180D01*
X136489943Y-90990242D01*
X136488428Y-90988591D01*
X136488207Y-90988181D01*
X136488249Y-90988143D01*
X136488088Y-90987960D01*
X136485145Y-90982506D01*
X136448085Y-90948248D01*
X136444520Y-90944819D01*
X135787008Y-90287307D01*
X135774336Y-90271618D01*
X135771516Y-90268518D01*
X135765865Y-90259766D01*
X135741473Y-90240537D01*
X135737443Y-90236956D01*
X135737360Y-90237054D01*
X135733403Y-90233701D01*
X135729722Y-90230020D01*
X135725488Y-90226994D01*
X135715129Y-90219591D01*
X135710384Y-90216028D01*
X135680945Y-90192820D01*
X135680943Y-90192819D01*
X135672765Y-90186372D01*
X135664660Y-90183526D01*
X135657669Y-90178530D01*
X135611778Y-90164806D01*
X135606133Y-90162972D01*
X135568393Y-90149719D01*
X135568390Y-90149718D01*
X135560911Y-90147092D01*
X135555692Y-90146640D01*
X135552981Y-90146640D01*
X135550704Y-90146542D01*
X135550255Y-90146407D01*
X135550257Y-90146353D01*
X135550024Y-90146338D01*
X135544088Y-90144563D01*
X135494225Y-90146522D01*
X135493690Y-90146543D01*
X135488744Y-90146640D01*
X135142740Y-90146640D01*
X135074619Y-90126638D01*
X135028126Y-90072982D01*
X135016740Y-90020640D01*
X135016740Y-88940140D01*
X135036742Y-88872019D01*
X135090398Y-88825526D01*
X135142740Y-88814140D01*
X136044904Y-88814139D01*
X136095406Y-88814139D01*
X136142782Y-88804716D01*
X136213495Y-88811045D01*
G37*
%TD.AperFunction*%
%TA.AperFunction,Conductor*%
G36*
X134173692Y-92909988D02*
G01*
X134180273Y-92916114D01*
X134430350Y-93166192D01*
X134676576Y-93412418D01*
X134710601Y-93474730D01*
X134713480Y-93501513D01*
X134713480Y-93772379D01*
X134693478Y-93840500D01*
X134673163Y-93862585D01*
X134674016Y-93863438D01*
X134668175Y-93869279D01*
X134661625Y-93874305D01*
X134569939Y-93993792D01*
X134564427Y-94007099D01*
X134560127Y-94017480D01*
X134515580Y-94072761D01*
X134448217Y-94095183D01*
X134379425Y-94077626D01*
X134331779Y-94026451D01*
X134331640Y-94025618D01*
X134308878Y-93983434D01*
X134306197Y-93978171D01*
X134288884Y-93942116D01*
X134288883Y-93942115D01*
X134285452Y-93934969D01*
X134282081Y-93930959D01*
X134280142Y-93929020D01*
X134278627Y-93927368D01*
X134278407Y-93926960D01*
X134278448Y-93926922D01*
X134278288Y-93926741D01*
X134275345Y-93921286D01*
X134244985Y-93893221D01*
X134238299Y-93887041D01*
X134234733Y-93883611D01*
X134002085Y-93650963D01*
X133968059Y-93588651D01*
X133965180Y-93561868D01*
X133965180Y-93005212D01*
X133985182Y-92937091D01*
X134038838Y-92890598D01*
X134109112Y-92880494D01*
X134173692Y-92909988D01*
G37*
%TD.AperFunction*%
%TA.AperFunction,Conductor*%
G36*
X146981739Y-87005342D02*
G01*
X147013577Y-87034632D01*
X147055107Y-87088755D01*
X147080707Y-87154973D01*
X147066443Y-87224521D01*
X147047670Y-87250984D01*
X147044163Y-87254778D01*
X147040732Y-87258347D01*
X146784524Y-87514554D01*
X146768831Y-87527228D01*
X146765733Y-87530047D01*
X146756986Y-87535695D01*
X146741017Y-87555952D01*
X146737757Y-87560087D01*
X146734176Y-87564117D01*
X146734274Y-87564200D01*
X146730921Y-87568157D01*
X146727240Y-87571838D01*
X146724216Y-87576070D01*
X146724214Y-87576072D01*
X146716811Y-87586431D01*
X146713248Y-87591176D01*
X146690040Y-87620615D01*
X146690039Y-87620617D01*
X146683592Y-87628795D01*
X146680746Y-87636900D01*
X146675750Y-87643891D01*
X146672766Y-87653870D01*
X146662026Y-87689782D01*
X146660192Y-87695427D01*
X146648218Y-87729526D01*
X146644312Y-87740649D01*
X146643860Y-87745868D01*
X146643860Y-87748579D01*
X146643762Y-87750856D01*
X146643627Y-87751305D01*
X146643573Y-87751303D01*
X146643558Y-87751536D01*
X146641783Y-87757472D01*
X146643265Y-87795185D01*
X146643763Y-87807870D01*
X146643860Y-87812816D01*
X146643860Y-89188932D01*
X146641726Y-89208981D01*
X146641528Y-89213171D01*
X146639336Y-89223353D01*
X146640560Y-89233694D01*
X146642987Y-89254200D01*
X146643304Y-89259575D01*
X146643432Y-89259564D01*
X146643860Y-89264742D01*
X146643860Y-89269944D01*
X146644714Y-89275074D01*
X146646799Y-89287603D01*
X146647634Y-89293475D01*
X146652044Y-89330734D01*
X146652046Y-89330741D01*
X146653270Y-89341082D01*
X146656990Y-89348828D01*
X146658400Y-89357302D01*
X146671067Y-89380778D01*
X146681152Y-89399469D01*
X146683845Y-89404756D01*
X146701155Y-89440802D01*
X146701157Y-89440805D01*
X146704588Y-89447950D01*
X146707959Y-89451960D01*
X146709897Y-89453898D01*
X146711412Y-89455549D01*
X146711633Y-89455959D01*
X146711591Y-89455997D01*
X146711752Y-89456180D01*
X146714695Y-89461634D01*
X146722342Y-89468702D01*
X146722342Y-89468703D01*
X146751755Y-89495892D01*
X146755321Y-89499322D01*
X147153055Y-89897056D01*
X147187081Y-89959368D01*
X147189960Y-89986151D01*
X147189961Y-90289731D01*
X147189961Y-90598926D01*
X147192616Y-90612275D01*
X147202270Y-90660812D01*
X147204726Y-90673161D01*
X147211621Y-90683481D01*
X147211622Y-90683482D01*
X147235853Y-90719745D01*
X147260976Y-90757344D01*
X147345159Y-90813594D01*
X147419393Y-90828360D01*
X147761904Y-90828360D01*
X148104526Y-90828359D01*
X148140278Y-90821248D01*
X148166586Y-90816016D01*
X148166588Y-90816015D01*
X148178761Y-90813594D01*
X148252908Y-90764050D01*
X148320658Y-90742836D01*
X148389125Y-90761619D01*
X148436569Y-90814435D01*
X148446487Y-90844235D01*
X148451866Y-90871281D01*
X148458761Y-90881601D01*
X148458762Y-90881602D01*
X148477386Y-90909474D01*
X148508116Y-90955464D01*
X148518432Y-90962357D01*
X148518860Y-90962785D01*
X148552886Y-91025097D01*
X148547821Y-91095912D01*
X148505274Y-91152748D01*
X148438754Y-91177559D01*
X148429765Y-91177880D01*
X147943158Y-91177881D01*
X147919774Y-91177881D01*
X147886123Y-91184574D01*
X147857714Y-91190224D01*
X147857712Y-91190225D01*
X147845539Y-91192646D01*
X147835219Y-91199541D01*
X147835218Y-91199542D01*
X147788534Y-91230736D01*
X147761356Y-91248896D01*
X147705106Y-91333079D01*
X147690340Y-91407313D01*
X147690341Y-92600446D01*
X147695266Y-92625207D01*
X147702526Y-92661707D01*
X147705106Y-92674681D01*
X147712001Y-92685001D01*
X147712002Y-92685002D01*
X147747982Y-92738849D01*
X147761356Y-92758864D01*
X147771672Y-92765757D01*
X147771673Y-92765758D01*
X147810531Y-92791723D01*
X147856058Y-92846200D01*
X147865462Y-92905913D01*
X147865600Y-92905913D01*
X147865601Y-93255026D01*
X147865601Y-93291088D01*
X147845599Y-93359208D01*
X147791944Y-93405701D01*
X147721670Y-93415806D01*
X147657089Y-93386313D01*
X147650506Y-93380183D01*
X147516727Y-93246404D01*
X147504054Y-93230714D01*
X147501234Y-93227615D01*
X147495585Y-93218866D01*
X147471193Y-93199637D01*
X147467163Y-93196056D01*
X147467080Y-93196154D01*
X147463123Y-93192801D01*
X147459442Y-93189120D01*
X147452889Y-93184437D01*
X147444849Y-93178691D01*
X147440104Y-93175128D01*
X147410665Y-93151920D01*
X147410663Y-93151919D01*
X147402485Y-93145472D01*
X147394380Y-93142626D01*
X147387389Y-93137630D01*
X147341498Y-93123906D01*
X147335853Y-93122072D01*
X147298113Y-93108819D01*
X147298110Y-93108818D01*
X147290631Y-93106192D01*
X147285412Y-93105740D01*
X147282701Y-93105740D01*
X147280424Y-93105642D01*
X147279975Y-93105507D01*
X147279977Y-93105453D01*
X147279744Y-93105438D01*
X147273808Y-93103663D01*
X147223945Y-93105622D01*
X147223410Y-93105643D01*
X147218464Y-93105740D01*
X146611968Y-93105740D01*
X146591919Y-93103606D01*
X146587729Y-93103408D01*
X146577547Y-93101216D01*
X146556560Y-93103700D01*
X146546700Y-93104867D01*
X146541325Y-93105184D01*
X146541336Y-93105312D01*
X146536158Y-93105740D01*
X146530956Y-93105740D01*
X146519621Y-93107627D01*
X146513297Y-93108679D01*
X146507425Y-93109514D01*
X146470166Y-93113924D01*
X146470159Y-93113926D01*
X146459818Y-93115150D01*
X146452072Y-93118870D01*
X146443598Y-93120280D01*
X146406882Y-93140091D01*
X146401431Y-93143032D01*
X146396144Y-93145725D01*
X146360098Y-93163035D01*
X146360095Y-93163037D01*
X146352950Y-93166468D01*
X146348940Y-93169839D01*
X146347002Y-93171777D01*
X146345351Y-93173292D01*
X146344941Y-93173513D01*
X146344903Y-93173471D01*
X146344720Y-93173632D01*
X146339266Y-93176575D01*
X146332198Y-93184221D01*
X146332197Y-93184222D01*
X146305022Y-93213620D01*
X146301592Y-93217187D01*
X146228962Y-93289816D01*
X146166649Y-93323841D01*
X146139867Y-93326720D01*
X146079512Y-93326720D01*
X146011391Y-93306718D01*
X145990417Y-93289815D01*
X145913042Y-93212440D01*
X145879016Y-93150128D01*
X145877767Y-93120148D01*
X145876558Y-93120148D01*
X145876558Y-93111888D01*
X145877636Y-93103700D01*
X145857977Y-92954378D01*
X145800341Y-92815232D01*
X145708655Y-92695745D01*
X145589168Y-92604059D01*
X145450022Y-92546423D01*
X145300700Y-92526764D01*
X145151378Y-92546423D01*
X145012232Y-92604059D01*
X144892745Y-92695745D01*
X144801059Y-92815232D01*
X144743423Y-92954378D01*
X144742345Y-92962567D01*
X144732181Y-93039766D01*
X144703458Y-93104693D01*
X144644193Y-93143784D01*
X144590813Y-93148241D01*
X144500600Y-93136364D01*
X144351278Y-93156023D01*
X144212132Y-93213659D01*
X144092645Y-93305345D01*
X144000959Y-93424832D01*
X143943323Y-93563978D01*
X143923664Y-93713300D01*
X143924742Y-93721488D01*
X143941772Y-93850839D01*
X143943323Y-93862622D01*
X143944765Y-93866102D01*
X143943126Y-93934999D01*
X143903332Y-93993795D01*
X143838068Y-94021744D01*
X143781360Y-94015518D01*
X143759890Y-94007978D01*
X143759887Y-94007977D01*
X143752411Y-94005352D01*
X143747192Y-94004900D01*
X143744481Y-94004900D01*
X143742204Y-94004802D01*
X143741755Y-94004667D01*
X143741757Y-94004613D01*
X143741524Y-94004598D01*
X143735588Y-94002823D01*
X143685725Y-94004782D01*
X143685190Y-94004803D01*
X143680244Y-94004900D01*
X143341416Y-94004900D01*
X143273295Y-93984898D01*
X143226802Y-93931242D01*
X143216698Y-93860968D01*
X143225007Y-93830682D01*
X143253856Y-93761033D01*
X143257017Y-93753402D01*
X143276676Y-93604080D01*
X143257017Y-93454758D01*
X143199381Y-93315612D01*
X143107695Y-93196125D01*
X142988208Y-93104439D01*
X142849062Y-93046803D01*
X142849782Y-93045065D01*
X142798080Y-93013548D01*
X142767061Y-92949686D01*
X142775492Y-92879192D01*
X142802222Y-92839701D01*
X143272978Y-92368945D01*
X143335290Y-92334919D01*
X143362073Y-92332040D01*
X143908570Y-92332039D01*
X143979566Y-92332039D01*
X144015318Y-92324928D01*
X144041626Y-92319696D01*
X144041628Y-92319695D01*
X144053801Y-92317274D01*
X144064121Y-92310379D01*
X144064122Y-92310378D01*
X144127668Y-92267917D01*
X144137984Y-92261024D01*
X144194234Y-92176841D01*
X144209000Y-92102607D01*
X144208999Y-90909474D01*
X144194234Y-90835239D01*
X144187340Y-90824921D01*
X144182589Y-90813451D01*
X144183789Y-90812954D01*
X144166493Y-90757724D01*
X144184008Y-90698074D01*
X144182590Y-90697487D01*
X144187341Y-90686017D01*
X144194234Y-90675701D01*
X144200735Y-90643021D01*
X144207793Y-90607535D01*
X144209000Y-90601467D01*
X144208999Y-89408334D01*
X144198849Y-89357302D01*
X144196656Y-89346274D01*
X144196655Y-89346272D01*
X144194234Y-89334099D01*
X144187338Y-89323779D01*
X144182589Y-89312313D01*
X144184189Y-89311650D01*
X144167341Y-89257854D01*
X144184432Y-89199648D01*
X144182590Y-89198885D01*
X144187339Y-89187421D01*
X144194234Y-89177101D01*
X144209000Y-89102867D01*
X144208999Y-87909734D01*
X144207790Y-87903656D01*
X144207510Y-87900813D01*
X144220737Y-87831059D01*
X144269576Y-87779529D01*
X144338520Y-87762584D01*
X144405682Y-87785603D01*
X144419242Y-87797040D01*
X144422845Y-87801735D01*
X144542332Y-87893421D01*
X144681478Y-87951057D01*
X144830800Y-87970716D01*
X144980122Y-87951057D01*
X145119268Y-87893421D01*
X145238755Y-87801735D01*
X145330441Y-87682248D01*
X145388077Y-87543102D01*
X145407736Y-87393780D01*
X145388077Y-87244458D01*
X145352910Y-87159557D01*
X145345321Y-87088969D01*
X145377100Y-87025482D01*
X145438158Y-86989254D01*
X145469319Y-86985340D01*
X146913618Y-86985340D01*
X146981739Y-87005342D01*
G37*
%TD.AperFunction*%
%TA.AperFunction,Conductor*%
G36*
X144260402Y-87005342D02*
G01*
X144306895Y-87058998D01*
X144316999Y-87129272D01*
X144308691Y-87159555D01*
X144273523Y-87244458D01*
X144253864Y-87393780D01*
X144273523Y-87543102D01*
X144276684Y-87550733D01*
X144276685Y-87550736D01*
X144285687Y-87572470D01*
X144293276Y-87643059D01*
X144261496Y-87706546D01*
X144200438Y-87742773D01*
X144129487Y-87740239D01*
X144099280Y-87725454D01*
X144053801Y-87695066D01*
X143979567Y-87680300D01*
X143637056Y-87680300D01*
X143294434Y-87680301D01*
X143258682Y-87687412D01*
X143232374Y-87692644D01*
X143232372Y-87692645D01*
X143220199Y-87695066D01*
X143209879Y-87701961D01*
X143209878Y-87701962D01*
X143158932Y-87736004D01*
X143136016Y-87751316D01*
X143079766Y-87835499D01*
X143065000Y-87909733D01*
X143065000Y-88067460D01*
X143044998Y-88135581D01*
X142993543Y-88181043D01*
X142982324Y-88186430D01*
X142982321Y-88186432D01*
X142975182Y-88189860D01*
X142970888Y-88193469D01*
X142968962Y-88195395D01*
X142967004Y-88197191D01*
X142966947Y-88197221D01*
X142966829Y-88197092D01*
X142966264Y-88197590D01*
X142960523Y-88200688D01*
X142953454Y-88208335D01*
X142953453Y-88208336D01*
X142923726Y-88240495D01*
X142920296Y-88244061D01*
X141053351Y-90111006D01*
X140991039Y-90145032D01*
X140964256Y-90147911D01*
X140124514Y-90147911D01*
X140095157Y-90153750D01*
X140062454Y-90160254D01*
X140062452Y-90160255D01*
X140050279Y-90162676D01*
X140039959Y-90169571D01*
X140039958Y-90169572D01*
X139986221Y-90205479D01*
X139966096Y-90218926D01*
X139909846Y-90303109D01*
X139895080Y-90377343D01*
X139895080Y-90452315D01*
X139875078Y-90520436D01*
X139821422Y-90566929D01*
X139783891Y-90577441D01*
X139772731Y-90578762D01*
X139702731Y-90566907D01*
X139650254Y-90519088D01*
X139631920Y-90453636D01*
X139631920Y-89022720D01*
X139634507Y-88998404D01*
X139634574Y-88996981D01*
X139636766Y-88986800D01*
X139632793Y-88953232D01*
X139632441Y-88947258D01*
X139632348Y-88947266D01*
X139631920Y-88942088D01*
X139631920Y-88936888D01*
X139630807Y-88930201D01*
X139628734Y-88917745D01*
X139627897Y-88911866D01*
X139623062Y-88871013D01*
X139623062Y-88871012D01*
X139621838Y-88860673D01*
X139617853Y-88852374D01*
X139616342Y-88843297D01*
X139591862Y-88797929D01*
X139589181Y-88792666D01*
X139570289Y-88753323D01*
X139566860Y-88746182D01*
X139563251Y-88741888D01*
X139561325Y-88739962D01*
X139559529Y-88738004D01*
X139559499Y-88737947D01*
X139559628Y-88737829D01*
X139559130Y-88737264D01*
X139556032Y-88731523D01*
X139516224Y-88694725D01*
X139512659Y-88691296D01*
X139042844Y-88221481D01*
X139027485Y-88202465D01*
X139026519Y-88201404D01*
X139020871Y-88192656D01*
X138994328Y-88171731D01*
X138989853Y-88167754D01*
X138989792Y-88167825D01*
X138985835Y-88164472D01*
X138982152Y-88160789D01*
X138977546Y-88157497D01*
X138966364Y-88149507D01*
X138961615Y-88145942D01*
X138929307Y-88120472D01*
X138929306Y-88120471D01*
X138921130Y-88114026D01*
X138912443Y-88110975D01*
X138904957Y-88105626D01*
X138894981Y-88102643D01*
X138894980Y-88102642D01*
X138855589Y-88090862D01*
X138849957Y-88089032D01*
X138801298Y-88071944D01*
X138799400Y-88071780D01*
X138739372Y-88039165D01*
X138705215Y-87976925D01*
X138702279Y-87949882D01*
X138702279Y-87877984D01*
X138696140Y-87847119D01*
X138702469Y-87776406D01*
X138746024Y-87720339D01*
X138819719Y-87696540D01*
X141161159Y-87696540D01*
X141229280Y-87716542D01*
X141251365Y-87736857D01*
X141252218Y-87736004D01*
X141258059Y-87741845D01*
X141263085Y-87748395D01*
X141382572Y-87840081D01*
X141521718Y-87897717D01*
X141671040Y-87917376D01*
X141820362Y-87897717D01*
X141959508Y-87840081D01*
X142078995Y-87748395D01*
X142170681Y-87628908D01*
X142228317Y-87489762D01*
X142247976Y-87340440D01*
X142228317Y-87191118D01*
X142215245Y-87159559D01*
X142207655Y-87088970D01*
X142239433Y-87025482D01*
X142300491Y-86989254D01*
X142331653Y-86985340D01*
X144192281Y-86985340D01*
X144260402Y-87005342D01*
G37*
%TD.AperFunction*%
%TA.AperFunction,Conductor*%
G36*
X148992829Y-88989082D02*
G01*
X149039322Y-89042738D01*
X149049426Y-89113012D01*
X149019932Y-89177592D01*
X149013803Y-89184175D01*
X148826685Y-89371293D01*
X148810995Y-89383965D01*
X148807894Y-89386787D01*
X148799146Y-89392435D01*
X148792699Y-89400613D01*
X148779917Y-89416827D01*
X148776336Y-89420857D01*
X148776434Y-89420940D01*
X148773081Y-89424897D01*
X148769400Y-89428578D01*
X148766376Y-89432810D01*
X148766374Y-89432812D01*
X148758971Y-89443171D01*
X148755411Y-89447912D01*
X148739022Y-89468703D01*
X148736387Y-89472045D01*
X148678507Y-89513159D01*
X148662018Y-89517619D01*
X148644786Y-89521047D01*
X148604474Y-89529064D01*
X148604472Y-89529065D01*
X148592299Y-89531486D01*
X148581979Y-89538381D01*
X148581978Y-89538382D01*
X148529961Y-89573139D01*
X148462208Y-89594354D01*
X148393741Y-89575571D01*
X148346298Y-89522754D01*
X148333959Y-89468374D01*
X148333959Y-89405794D01*
X148319194Y-89331559D01*
X148312298Y-89321239D01*
X148307549Y-89309773D01*
X148309149Y-89309110D01*
X148292301Y-89255314D01*
X148309392Y-89197108D01*
X148307550Y-89196345D01*
X148312299Y-89184881D01*
X148319194Y-89174561D01*
X148333960Y-89100327D01*
X148333960Y-89094140D01*
X148334567Y-89087977D01*
X148336004Y-89088119D01*
X148353962Y-89026959D01*
X148407618Y-88980466D01*
X148459960Y-88969080D01*
X148924708Y-88969080D01*
X148992829Y-88989082D01*
G37*
%TD.AperFunction*%
%TA.AperFunction,Conductor*%
G36*
X155248818Y-84276587D02*
G01*
X155307446Y-84309799D01*
X156493465Y-85497493D01*
X156526156Y-85554454D01*
X156682585Y-86148784D01*
X156684269Y-86155183D01*
X156683855Y-86220856D01*
X156079476Y-88404936D01*
X156042031Y-88465255D01*
X155977919Y-88495754D01*
X155907496Y-88486750D01*
X155853120Y-88441102D01*
X155832040Y-88371332D01*
X155832040Y-87128601D01*
X155852042Y-87060480D01*
X155858078Y-87051897D01*
X155871324Y-87034635D01*
X155929861Y-86958348D01*
X155987497Y-86819202D01*
X156007156Y-86669880D01*
X155987497Y-86520558D01*
X155929861Y-86381412D01*
X155838175Y-86261925D01*
X155718688Y-86170239D01*
X155579542Y-86112603D01*
X155430220Y-86092944D01*
X155280898Y-86112603D01*
X155141752Y-86170239D01*
X155022265Y-86261925D01*
X154930579Y-86381412D01*
X154872943Y-86520558D01*
X154853284Y-86669880D01*
X154872943Y-86819202D01*
X154930579Y-86958348D01*
X155022265Y-87077835D01*
X155028815Y-87082861D01*
X155032135Y-87086181D01*
X155066161Y-87148493D01*
X155069040Y-87175276D01*
X155069040Y-88362127D01*
X155049038Y-88430248D01*
X155032135Y-88451223D01*
X154855101Y-88628256D01*
X154688197Y-88795160D01*
X154669186Y-88810514D01*
X154668124Y-88811480D01*
X154659376Y-88817129D01*
X154652932Y-88825304D01*
X154652929Y-88825306D01*
X154638451Y-88843672D01*
X154634474Y-88848147D01*
X154634545Y-88848208D01*
X154631192Y-88852165D01*
X154627509Y-88855848D01*
X154624483Y-88860083D01*
X154624481Y-88860085D01*
X154616227Y-88871636D01*
X154612664Y-88876382D01*
X154609026Y-88880997D01*
X154594212Y-88899789D01*
X154580746Y-88916870D01*
X154577695Y-88925557D01*
X154572346Y-88933043D01*
X154570721Y-88938476D01*
X154524650Y-88988809D01*
X154456010Y-89006950D01*
X154388459Y-88985102D01*
X154343443Y-88930201D01*
X154333439Y-88880997D01*
X154333439Y-88405034D01*
X154318674Y-88330799D01*
X154294692Y-88294907D01*
X154269317Y-88256932D01*
X154262424Y-88246616D01*
X154178241Y-88190366D01*
X154104007Y-88175600D01*
X154037339Y-88175600D01*
X153527154Y-88175601D01*
X153459033Y-88155599D01*
X153438059Y-88138696D01*
X153420620Y-88121257D01*
X153386594Y-88058945D01*
X153384117Y-88029350D01*
X153385785Y-88021600D01*
X153381813Y-87988038D01*
X153381461Y-87982060D01*
X153381368Y-87982068D01*
X153380940Y-87976890D01*
X153380940Y-87971688D01*
X153377752Y-87952534D01*
X153376917Y-87946669D01*
X153372082Y-87905813D01*
X153372082Y-87905812D01*
X153370858Y-87895473D01*
X153366873Y-87887174D01*
X153365362Y-87878097D01*
X153340882Y-87832729D01*
X153338201Y-87827466D01*
X153319313Y-87788130D01*
X153319310Y-87788126D01*
X153315880Y-87780982D01*
X153312270Y-87776688D01*
X153310338Y-87774756D01*
X153308551Y-87772807D01*
X153308522Y-87772754D01*
X153308652Y-87772635D01*
X153308151Y-87772067D01*
X153305052Y-87766323D01*
X153285658Y-87748395D01*
X153265245Y-87729526D01*
X153261678Y-87726096D01*
X152846343Y-87310760D01*
X152812318Y-87248448D01*
X152809439Y-87221665D01*
X152809439Y-86906434D01*
X152800174Y-86859853D01*
X152797096Y-86844374D01*
X152797095Y-86844372D01*
X152794674Y-86832199D01*
X152738424Y-86748016D01*
X152654241Y-86691766D01*
X152580007Y-86677000D01*
X152237496Y-86677000D01*
X151894874Y-86677001D01*
X151859122Y-86684112D01*
X151832814Y-86689344D01*
X151832812Y-86689345D01*
X151820639Y-86691766D01*
X151810319Y-86698661D01*
X151810318Y-86698662D01*
X151803976Y-86702900D01*
X151736456Y-86748016D01*
X151735790Y-86749012D01*
X151680291Y-86779318D01*
X151609476Y-86774253D01*
X151552640Y-86731706D01*
X151537099Y-86704414D01*
X151533081Y-86694712D01*
X151526186Y-86678068D01*
X151503263Y-86622724D01*
X151503260Y-86622720D01*
X151500101Y-86615092D01*
X151408415Y-86495605D01*
X151288928Y-86403919D01*
X151149782Y-86346283D01*
X151000460Y-86326624D01*
X150851138Y-86346283D01*
X150711992Y-86403919D01*
X150710943Y-86401387D01*
X150655028Y-86414945D01*
X150587939Y-86391715D01*
X150561078Y-86365792D01*
X150511741Y-86301495D01*
X150506715Y-86294945D01*
X150387228Y-86203259D01*
X150248082Y-86145623D01*
X150098760Y-86125964D01*
X149949438Y-86145623D01*
X149810292Y-86203259D01*
X149690805Y-86294945D01*
X149599119Y-86414432D01*
X149541483Y-86553578D01*
X149521824Y-86702900D01*
X149522902Y-86711088D01*
X149539120Y-86834273D01*
X149528181Y-86904422D01*
X149481053Y-86957521D01*
X149414198Y-86976720D01*
X149145912Y-86976720D01*
X148666534Y-86976721D01*
X148630782Y-86983832D01*
X148604474Y-86989064D01*
X148604472Y-86989065D01*
X148592299Y-86991486D01*
X148581979Y-86998381D01*
X148581978Y-86998382D01*
X148544119Y-87023679D01*
X148508116Y-87047736D01*
X148479272Y-87090904D01*
X148424795Y-87136430D01*
X148374508Y-87146900D01*
X148103810Y-87146900D01*
X148035689Y-87126898D01*
X147989196Y-87073242D01*
X147979092Y-87002968D01*
X147987401Y-86972682D01*
X148012279Y-86912622D01*
X148037297Y-86852222D01*
X148056956Y-86702900D01*
X148037297Y-86553578D01*
X147979661Y-86414432D01*
X147925206Y-86343465D01*
X147899606Y-86277247D01*
X147913870Y-86207698D01*
X147963471Y-86156902D01*
X147988339Y-86146266D01*
X154586159Y-84129663D01*
X154653519Y-84127915D01*
X155248818Y-84276587D01*
G37*
%TD.AperFunction*%
%TA.AperFunction,Conductor*%
G36*
X137467850Y-87079002D02*
G01*
X137488824Y-87095905D01*
X137826374Y-87433455D01*
X137860400Y-87495767D01*
X137855335Y-87566582D01*
X137812788Y-87623418D01*
X137746268Y-87648229D01*
X137737279Y-87648550D01*
X137271767Y-87648551D01*
X136963234Y-87648551D01*
X136895114Y-87628549D01*
X136848621Y-87574893D01*
X136838517Y-87504619D01*
X136846827Y-87474331D01*
X136853056Y-87459293D01*
X136856217Y-87451662D01*
X136875876Y-87302340D01*
X136864284Y-87214292D01*
X136862593Y-87201447D01*
X136873532Y-87131298D01*
X136920660Y-87078199D01*
X136987515Y-87059000D01*
X137399729Y-87059000D01*
X137467850Y-87079002D01*
G37*
%TD.AperFunction*%
%TD*%
%TA.AperFunction,Conductor*%
%TO.N,DGND*%
G36*
X148806146Y-111291008D02*
G01*
X148806733Y-111289590D01*
X148818203Y-111294341D01*
X148828519Y-111301234D01*
X148840688Y-111303655D01*
X148840689Y-111303655D01*
X148882518Y-111311975D01*
X148902753Y-111316000D01*
X149069300Y-111316000D01*
X149137421Y-111336002D01*
X149183914Y-111389658D01*
X149194018Y-111459932D01*
X149168304Y-111513390D01*
X149171265Y-111515436D01*
X149138336Y-111563081D01*
X149136033Y-111566304D01*
X149101602Y-111612919D01*
X149099238Y-111619650D01*
X149095184Y-111625516D01*
X149093808Y-111629867D01*
X149045139Y-111679803D01*
X148983338Y-111696001D01*
X148902754Y-111696001D01*
X148867002Y-111703112D01*
X148840694Y-111708344D01*
X148840692Y-111708345D01*
X148828519Y-111710766D01*
X148818199Y-111717661D01*
X148818198Y-111717662D01*
X148816802Y-111718595D01*
X148744336Y-111767016D01*
X148688086Y-111851199D01*
X148673320Y-111925433D01*
X148673321Y-112259853D01*
X148673321Y-112490005D01*
X148653319Y-112558126D01*
X148599663Y-112604619D01*
X148529390Y-112614723D01*
X148470619Y-112589968D01*
X148449208Y-112573539D01*
X148310062Y-112515903D01*
X148160740Y-112496244D01*
X148011418Y-112515903D01*
X147872272Y-112573539D01*
X147752785Y-112665225D01*
X147661099Y-112784712D01*
X147603463Y-112923858D01*
X147583804Y-113073180D01*
X147603463Y-113222502D01*
X147661099Y-113361648D01*
X147752785Y-113481135D01*
X147872272Y-113572821D01*
X148011418Y-113630457D01*
X148160740Y-113650116D01*
X148310062Y-113630457D01*
X148367545Y-113606647D01*
X148427013Y-113582015D01*
X148497603Y-113574426D01*
X148546866Y-113594769D01*
X148560718Y-113604342D01*
X148563944Y-113606647D01*
X148610559Y-113641078D01*
X148617290Y-113643442D01*
X148623156Y-113647496D01*
X148652568Y-113656798D01*
X148711485Y-113696410D01*
X148719335Y-113706929D01*
X148729397Y-113721987D01*
X148744336Y-113744344D01*
X148828519Y-113800594D01*
X148902753Y-113815360D01*
X149023309Y-113815360D01*
X150040841Y-113815359D01*
X150108962Y-113835361D01*
X150155455Y-113889017D01*
X150166841Y-113941359D01*
X150166841Y-114099006D01*
X150173390Y-114131935D01*
X150178603Y-114158141D01*
X150181606Y-114173241D01*
X150188501Y-114183561D01*
X150188502Y-114183562D01*
X150222452Y-114234370D01*
X150237856Y-114257424D01*
X150322039Y-114313674D01*
X150334211Y-114316095D01*
X150345676Y-114320844D01*
X150345146Y-114322125D01*
X150396165Y-114348812D01*
X150413198Y-114372374D01*
X150414665Y-114371427D01*
X150418967Y-114378089D01*
X150422400Y-114385238D01*
X150426010Y-114389532D01*
X150427942Y-114391464D01*
X150429729Y-114393413D01*
X150429758Y-114393466D01*
X150429628Y-114393585D01*
X150430129Y-114394153D01*
X150433228Y-114399897D01*
X150440873Y-114406964D01*
X150473049Y-114436707D01*
X150476615Y-114440137D01*
X150771154Y-114734676D01*
X150786518Y-114753699D01*
X150787482Y-114754758D01*
X150793129Y-114763504D01*
X150801308Y-114769952D01*
X150801310Y-114769954D01*
X150819677Y-114784434D01*
X150824150Y-114788409D01*
X150824211Y-114788337D01*
X150828168Y-114791690D01*
X150831849Y-114795371D01*
X150845592Y-114805192D01*
X150847639Y-114806655D01*
X150852385Y-114810218D01*
X150892870Y-114842134D01*
X150901555Y-114845184D01*
X150909043Y-114850535D01*
X150958466Y-114865315D01*
X150964040Y-114867127D01*
X151012702Y-114884216D01*
X151018291Y-114884700D01*
X151021002Y-114884700D01*
X151023669Y-114884815D01*
X151023732Y-114884834D01*
X151023725Y-114885008D01*
X151024471Y-114885055D01*
X151030724Y-114886925D01*
X151084888Y-114884797D01*
X151089834Y-114884700D01*
X152516045Y-114884700D01*
X152540344Y-114887286D01*
X152541782Y-114887354D01*
X152551960Y-114889545D01*
X152585521Y-114885573D01*
X152591500Y-114885221D01*
X152591492Y-114885128D01*
X152596670Y-114884700D01*
X152601872Y-114884700D01*
X152621026Y-114881512D01*
X152626884Y-114880678D01*
X152643498Y-114878712D01*
X152667747Y-114875842D01*
X152667748Y-114875842D01*
X152678087Y-114874618D01*
X152686386Y-114870633D01*
X152695463Y-114869122D01*
X152740831Y-114844642D01*
X152746094Y-114841961D01*
X152785430Y-114823073D01*
X152785434Y-114823070D01*
X152792578Y-114819640D01*
X152796872Y-114816030D01*
X152798804Y-114814098D01*
X152800753Y-114812311D01*
X152800806Y-114812282D01*
X152800925Y-114812412D01*
X152801493Y-114811911D01*
X152807237Y-114808812D01*
X152844047Y-114768991D01*
X152847476Y-114765426D01*
X152997319Y-114615583D01*
X153059631Y-114581557D01*
X153070641Y-114580373D01*
X153070560Y-114579756D01*
X153219882Y-114560097D01*
X153359028Y-114502461D01*
X153478515Y-114410775D01*
X153480630Y-114413531D01*
X153528853Y-114387199D01*
X153555636Y-114384320D01*
X154348680Y-114384320D01*
X154416801Y-114404322D01*
X154463294Y-114457978D01*
X154474680Y-114510320D01*
X154474681Y-114806655D01*
X154474681Y-115107386D01*
X154475889Y-115113458D01*
X154476495Y-115119614D01*
X154474004Y-115119859D01*
X154468659Y-115179621D01*
X154425107Y-115235690D01*
X154408879Y-115241416D01*
X154479095Y-115231320D01*
X154541785Y-115259951D01*
X154545696Y-115265804D01*
X154629879Y-115322054D01*
X154704113Y-115336820D01*
X154929634Y-115336820D01*
X154997755Y-115356822D01*
X155044248Y-115410478D01*
X155050631Y-115427666D01*
X155051826Y-115431778D01*
X155053050Y-115442122D01*
X155057558Y-115451510D01*
X155057559Y-115451513D01*
X155066946Y-115471060D01*
X155072350Y-115484154D01*
X155082913Y-115514488D01*
X155089337Y-115522682D01*
X155092767Y-115528960D01*
X155096701Y-115535286D01*
X155100938Y-115541847D01*
X155104368Y-115548990D01*
X155107739Y-115553000D01*
X155127237Y-115572498D01*
X155137289Y-115583839D01*
X155156062Y-115607782D01*
X155164796Y-115613454D01*
X155166959Y-115615433D01*
X155183853Y-115629114D01*
X155233070Y-115678331D01*
X155267096Y-115740643D01*
X155262031Y-115811458D01*
X155248738Y-115837431D01*
X155231837Y-115862723D01*
X155231836Y-115862725D01*
X155224941Y-115873044D01*
X155205189Y-115972345D01*
X155224941Y-116071646D01*
X155231834Y-116081962D01*
X155263552Y-116129433D01*
X155263555Y-116129437D01*
X155266991Y-116134579D01*
X155866401Y-116733987D01*
X155871545Y-116737424D01*
X155919013Y-116769143D01*
X155919015Y-116769144D01*
X155929334Y-116776039D01*
X155947450Y-116779642D01*
X156010358Y-116812547D01*
X156045491Y-116874241D01*
X156041693Y-116945136D01*
X156011964Y-116992316D01*
X155307793Y-117696487D01*
X155248813Y-117729740D01*
X154654438Y-117876043D01*
X154586765Y-117873966D01*
X153704487Y-117598430D01*
X153645427Y-117559031D01*
X153617043Y-117493955D01*
X153628347Y-117423864D01*
X153675751Y-117371011D01*
X153742049Y-117352159D01*
X154335163Y-117352159D01*
X154335163Y-115356038D01*
X154355165Y-115287917D01*
X154408798Y-115241444D01*
X154358155Y-115259312D01*
X154335163Y-115257462D01*
X154335163Y-115255960D01*
X150464838Y-115255960D01*
X150464838Y-116415331D01*
X150444836Y-116483452D01*
X150391180Y-116529945D01*
X150320906Y-116540049D01*
X150301281Y-116535603D01*
X149292186Y-116220461D01*
X148991157Y-116126449D01*
X148958616Y-116110876D01*
X148511431Y-115811458D01*
X148349970Y-115703350D01*
X148099780Y-115402360D01*
X147479520Y-115402360D01*
X147411399Y-115382358D01*
X147364906Y-115328702D01*
X147353520Y-115276360D01*
X147353519Y-114684983D01*
X147353519Y-114678794D01*
X147338754Y-114604559D01*
X147323385Y-114581557D01*
X147289397Y-114530692D01*
X147282504Y-114520376D01*
X147198321Y-114464126D01*
X147145059Y-114453532D01*
X147082150Y-114420625D01*
X147047017Y-114358931D01*
X147043640Y-114329953D01*
X147043640Y-114112211D01*
X147063642Y-114044090D01*
X147078167Y-114025558D01*
X147098350Y-114004253D01*
X147142441Y-113957709D01*
X147230853Y-113805497D01*
X147233108Y-113798054D01*
X147277913Y-113650116D01*
X147281877Y-113637028D01*
X147292777Y-113461339D01*
X147291537Y-113454121D01*
X147264207Y-113295069D01*
X147264206Y-113295066D01*
X147262967Y-113287855D01*
X147260101Y-113281119D01*
X147196913Y-113132619D01*
X147196912Y-113132617D01*
X147194046Y-113125882D01*
X147089713Y-112984108D01*
X146955562Y-112870139D01*
X146854582Y-112818576D01*
X146810910Y-112796276D01*
X146759338Y-112747483D01*
X146742331Y-112678553D01*
X146765291Y-112611371D01*
X146820927Y-112567268D01*
X146868210Y-112558059D01*
X147124086Y-112558059D01*
X147162388Y-112550441D01*
X147186146Y-112545716D01*
X147186148Y-112545715D01*
X147198321Y-112543294D01*
X147208641Y-112536399D01*
X147208642Y-112536398D01*
X147272188Y-112493937D01*
X147282504Y-112487044D01*
X147338754Y-112402861D01*
X147353520Y-112328627D01*
X147353519Y-111679054D01*
X147342081Y-111621547D01*
X147341176Y-111616994D01*
X147341175Y-111616992D01*
X147338754Y-111604819D01*
X147311961Y-111564720D01*
X147289397Y-111530952D01*
X147282504Y-111520636D01*
X147282602Y-111520571D01*
X147252890Y-111466159D01*
X147257955Y-111395344D01*
X147300502Y-111338508D01*
X147367022Y-111313697D01*
X147389293Y-111315089D01*
X147389382Y-111314186D01*
X147395545Y-111314793D01*
X147401613Y-111316000D01*
X147998083Y-111316000D01*
X148594746Y-111315999D01*
X148668981Y-111301234D01*
X148679299Y-111294340D01*
X148690769Y-111289589D01*
X148691266Y-111290789D01*
X148746496Y-111273493D01*
X148806146Y-111291008D01*
G37*
%TD.AperFunction*%
%TA.AperFunction,Conductor*%
G36*
X126260901Y-96021842D02*
G01*
X126307394Y-96075498D01*
X126318780Y-96127840D01*
X126318780Y-98117724D01*
X126298778Y-98185845D01*
X126291831Y-98194466D01*
X126292325Y-98194845D01*
X126200639Y-98314332D01*
X126143003Y-98453478D01*
X126123344Y-98602800D01*
X126143003Y-98752122D01*
X126200639Y-98891268D01*
X126292325Y-99010755D01*
X126411812Y-99102441D01*
X126550958Y-99160077D01*
X126700280Y-99179736D01*
X126849602Y-99160077D01*
X126988748Y-99102441D01*
X127013961Y-99083094D01*
X127080180Y-99057495D01*
X127149728Y-99071760D01*
X127200524Y-99121361D01*
X127216414Y-99175147D01*
X127219344Y-99221725D01*
X127221793Y-99229261D01*
X127221793Y-99229263D01*
X127230410Y-99255782D01*
X127270449Y-99379009D01*
X127274692Y-99385696D01*
X127274694Y-99385699D01*
X127333278Y-99478012D01*
X127359062Y-99518642D01*
X127479618Y-99631851D01*
X127484563Y-99634570D01*
X127527296Y-99689986D01*
X127533373Y-99760722D01*
X127500242Y-99823514D01*
X127483943Y-99837637D01*
X127415779Y-99887161D01*
X127310363Y-100014587D01*
X127306988Y-100021760D01*
X127306987Y-100021761D01*
X127302070Y-100032211D01*
X127239949Y-100164225D01*
X127238464Y-100172008D01*
X127238463Y-100172012D01*
X127211109Y-100315407D01*
X127208960Y-100326674D01*
X127212317Y-100380035D01*
X127216961Y-100453840D01*
X127219344Y-100491725D01*
X127221793Y-100499261D01*
X127221793Y-100499263D01*
X127235110Y-100540248D01*
X127270449Y-100649009D01*
X127274692Y-100655696D01*
X127274694Y-100655699D01*
X127312026Y-100714525D01*
X127359062Y-100788642D01*
X127479618Y-100901851D01*
X127484563Y-100904570D01*
X127527296Y-100959986D01*
X127533373Y-101030722D01*
X127500242Y-101093514D01*
X127483943Y-101107637D01*
X127415779Y-101157161D01*
X127310363Y-101284587D01*
X127306988Y-101291760D01*
X127306987Y-101291761D01*
X127303829Y-101298472D01*
X127239949Y-101434225D01*
X127238464Y-101442008D01*
X127238463Y-101442012D01*
X127210445Y-101588888D01*
X127208960Y-101596674D01*
X127213119Y-101662768D01*
X127213636Y-101670993D01*
X127197951Y-101740235D01*
X127147321Y-101790006D01*
X127077820Y-101804502D01*
X127037735Y-101792025D01*
X127037008Y-101793779D01*
X127027899Y-101790006D01*
X126897862Y-101736143D01*
X126748540Y-101716484D01*
X126599218Y-101736143D01*
X126460072Y-101793779D01*
X126340585Y-101885465D01*
X126248899Y-102004952D01*
X126191263Y-102144098D01*
X126171604Y-102293420D01*
X126191263Y-102442742D01*
X126248899Y-102581888D01*
X126340585Y-102701375D01*
X126460072Y-102793061D01*
X126599218Y-102850697D01*
X126748540Y-102870356D01*
X126897862Y-102850697D01*
X127037008Y-102793061D01*
X127038389Y-102796395D01*
X127091242Y-102783507D01*
X127158361Y-102806647D01*
X127202315Y-102862402D01*
X127211148Y-102901459D01*
X127218846Y-103023814D01*
X127219344Y-103031725D01*
X127221793Y-103039261D01*
X127221793Y-103039263D01*
X127237108Y-103086397D01*
X127270449Y-103189009D01*
X127274692Y-103195696D01*
X127274694Y-103195699D01*
X127314341Y-103258172D01*
X127359062Y-103328642D01*
X127479618Y-103441851D01*
X127484563Y-103444570D01*
X127527296Y-103499986D01*
X127533373Y-103570722D01*
X127500242Y-103633514D01*
X127483943Y-103647637D01*
X127415779Y-103697161D01*
X127310363Y-103824587D01*
X127306988Y-103831760D01*
X127306987Y-103831761D01*
X127303987Y-103838136D01*
X127239949Y-103974225D01*
X127238464Y-103982008D01*
X127238463Y-103982012D01*
X127210870Y-104126662D01*
X127208960Y-104136674D01*
X127211422Y-104175801D01*
X127218538Y-104288911D01*
X127219344Y-104301725D01*
X127221793Y-104309261D01*
X127221793Y-104309263D01*
X127241126Y-104368762D01*
X127270449Y-104459009D01*
X127274692Y-104465696D01*
X127274694Y-104465699D01*
X127338076Y-104565573D01*
X127359062Y-104598642D01*
X127479618Y-104711851D01*
X127484563Y-104714570D01*
X127527296Y-104769986D01*
X127533373Y-104840722D01*
X127500242Y-104903514D01*
X127483943Y-104917637D01*
X127457430Y-104936900D01*
X127415779Y-104967161D01*
X127310363Y-105094587D01*
X127306988Y-105101760D01*
X127306987Y-105101761D01*
X127303829Y-105108472D01*
X127239949Y-105244225D01*
X127238464Y-105252008D01*
X127238463Y-105252012D01*
X127215143Y-105374261D01*
X127208960Y-105406674D01*
X127211308Y-105443993D01*
X127216925Y-105533269D01*
X127219344Y-105571725D01*
X127221793Y-105579261D01*
X127221793Y-105579263D01*
X127230260Y-105605322D01*
X127270449Y-105729009D01*
X127274692Y-105735696D01*
X127274694Y-105735699D01*
X127321117Y-105808850D01*
X127359062Y-105868642D01*
X127479618Y-105981851D01*
X127484563Y-105984570D01*
X127527296Y-106039986D01*
X127533373Y-106110722D01*
X127500242Y-106173514D01*
X127483943Y-106187637D01*
X127415779Y-106237161D01*
X127310363Y-106364587D01*
X127306988Y-106371760D01*
X127306987Y-106371761D01*
X127303829Y-106378472D01*
X127239949Y-106514225D01*
X127238464Y-106522008D01*
X127238463Y-106522012D01*
X127224822Y-106593522D01*
X127208960Y-106676674D01*
X127213496Y-106748769D01*
X127218443Y-106827398D01*
X127219344Y-106841725D01*
X127221793Y-106849261D01*
X127221793Y-106849263D01*
X127244745Y-106919900D01*
X127270449Y-106999009D01*
X127274692Y-107005696D01*
X127274694Y-107005699D01*
X127335733Y-107101881D01*
X127359062Y-107138642D01*
X127479618Y-107251851D01*
X127486561Y-107255668D01*
X127501728Y-107264006D01*
X127624539Y-107331522D01*
X127784721Y-107372650D01*
X128307369Y-107372650D01*
X128354866Y-107366650D01*
X128422399Y-107358119D01*
X128422402Y-107358118D01*
X128430264Y-107357125D01*
X128437630Y-107354208D01*
X128437632Y-107354208D01*
X128576659Y-107299163D01*
X128576661Y-107299162D01*
X128584028Y-107296245D01*
X128591359Y-107290919D01*
X128593117Y-107289642D01*
X128595565Y-107288768D01*
X128597387Y-107287767D01*
X128597549Y-107288061D01*
X128659985Y-107265785D01*
X128729136Y-107281868D01*
X128748743Y-107296766D01*
X128751996Y-107301634D01*
X128836179Y-107357884D01*
X128910413Y-107372650D01*
X129534819Y-107372650D01*
X130159426Y-107372649D01*
X130195178Y-107365538D01*
X130221486Y-107360306D01*
X130221488Y-107360305D01*
X130233661Y-107357884D01*
X130243981Y-107350989D01*
X130243982Y-107350988D01*
X130307528Y-107308527D01*
X130317844Y-107301634D01*
X130374094Y-107217451D01*
X130388860Y-107143217D01*
X130388859Y-106565199D01*
X130408861Y-106497079D01*
X130462517Y-106450586D01*
X130514859Y-106439200D01*
X131467232Y-106439200D01*
X131487281Y-106441334D01*
X131491471Y-106441532D01*
X131501653Y-106443724D01*
X131532500Y-106440073D01*
X131537875Y-106439756D01*
X131537864Y-106439628D01*
X131543042Y-106439200D01*
X131548244Y-106439200D01*
X131559579Y-106437313D01*
X131565903Y-106436261D01*
X131571775Y-106435426D01*
X131609034Y-106431016D01*
X131609041Y-106431014D01*
X131619382Y-106429790D01*
X131627128Y-106426070D01*
X131635602Y-106424660D01*
X131675039Y-106403381D01*
X131677769Y-106401908D01*
X131683056Y-106399215D01*
X131719102Y-106381905D01*
X131719105Y-106381903D01*
X131726250Y-106378472D01*
X131730260Y-106375101D01*
X131732198Y-106373163D01*
X131733849Y-106371648D01*
X131734259Y-106371427D01*
X131734297Y-106371469D01*
X131734480Y-106371308D01*
X131739934Y-106368365D01*
X131774178Y-106331320D01*
X131777608Y-106327753D01*
X132010258Y-106095104D01*
X132072570Y-106061079D01*
X132099353Y-106058200D01*
X137555470Y-106058200D01*
X137623591Y-106078202D01*
X137670084Y-106131858D01*
X137681470Y-106184200D01*
X137681471Y-106604148D01*
X137681471Y-107027646D01*
X137696236Y-107101881D01*
X137703131Y-107112201D01*
X137703132Y-107112202D01*
X137716326Y-107131948D01*
X137752486Y-107186064D01*
X137836669Y-107242314D01*
X137910903Y-107257080D01*
X137975359Y-107257080D01*
X139162020Y-107257079D01*
X139230141Y-107277081D01*
X139276634Y-107330737D01*
X139288020Y-107383079D01*
X139288020Y-111297092D01*
X139285886Y-111317141D01*
X139285688Y-111321331D01*
X139283496Y-111331513D01*
X139284720Y-111341854D01*
X139287147Y-111362360D01*
X139287464Y-111367735D01*
X139287592Y-111367724D01*
X139288020Y-111372902D01*
X139288020Y-111378104D01*
X139288874Y-111383234D01*
X139290959Y-111395763D01*
X139291794Y-111401635D01*
X139296204Y-111438894D01*
X139296206Y-111438901D01*
X139297430Y-111449242D01*
X139301150Y-111456988D01*
X139302560Y-111465462D01*
X139316101Y-111490558D01*
X139325312Y-111507629D01*
X139328005Y-111512916D01*
X139345315Y-111548962D01*
X139345317Y-111548965D01*
X139348748Y-111556110D01*
X139352119Y-111560120D01*
X139354057Y-111562058D01*
X139355572Y-111563709D01*
X139355793Y-111564119D01*
X139355751Y-111564157D01*
X139355912Y-111564340D01*
X139358855Y-111569794D01*
X139366502Y-111576862D01*
X139366502Y-111576863D01*
X139395915Y-111604052D01*
X139399481Y-111607482D01*
X139786158Y-111994159D01*
X139820184Y-112056471D01*
X139821434Y-112086453D01*
X139822642Y-112086453D01*
X139822642Y-112094712D01*
X139821564Y-112102900D01*
X139841223Y-112252222D01*
X139898859Y-112391368D01*
X139990545Y-112510855D01*
X140110032Y-112602541D01*
X140249178Y-112660177D01*
X140398500Y-112679836D01*
X140547822Y-112660177D01*
X140686968Y-112602541D01*
X140806455Y-112510855D01*
X140898141Y-112391368D01*
X140954146Y-112256160D01*
X140998694Y-112200879D01*
X141059225Y-112181926D01*
X141058900Y-112179456D01*
X141208222Y-112159797D01*
X141347368Y-112102161D01*
X141466855Y-112010475D01*
X141558541Y-111890988D01*
X141616177Y-111751842D01*
X141635836Y-111602520D01*
X141634758Y-111594332D01*
X141634758Y-111586073D01*
X141637480Y-111586073D01*
X141646357Y-111529166D01*
X141671242Y-111493779D01*
X142712745Y-110452276D01*
X142775057Y-110418250D01*
X142845872Y-110423315D01*
X142902708Y-110465862D01*
X142927519Y-110532382D01*
X142927840Y-110541371D01*
X142927840Y-112022227D01*
X142907838Y-112090348D01*
X142890935Y-112111322D01*
X141751900Y-113250357D01*
X141689588Y-113284383D01*
X141678579Y-113285566D01*
X141678660Y-113286184D01*
X141529338Y-113305843D01*
X141390192Y-113363479D01*
X141270705Y-113455165D01*
X141179019Y-113574652D01*
X141121383Y-113713798D01*
X141101724Y-113863120D01*
X141121383Y-114012442D01*
X141179019Y-114151588D01*
X141270705Y-114271075D01*
X141390192Y-114362761D01*
X141529338Y-114420397D01*
X141678660Y-114440056D01*
X141827982Y-114420397D01*
X141967128Y-114362761D01*
X142086615Y-114271075D01*
X142178301Y-114151588D01*
X142235937Y-114012442D01*
X142255596Y-113863120D01*
X142259040Y-113863573D01*
X142274520Y-113810853D01*
X142291423Y-113789879D01*
X143540816Y-112540486D01*
X143559839Y-112525122D01*
X143560898Y-112524158D01*
X143569644Y-112518511D01*
X143576091Y-112510333D01*
X143576844Y-112509648D01*
X143640689Y-112478596D01*
X143711188Y-112486990D01*
X143731646Y-112498076D01*
X143758293Y-112515881D01*
X143799319Y-112543294D01*
X143811491Y-112545715D01*
X143822956Y-112550464D01*
X143821648Y-112553621D01*
X143866407Y-112577038D01*
X143901534Y-112638736D01*
X143897729Y-112709631D01*
X143856199Y-112767213D01*
X143848916Y-112772465D01*
X143779906Y-112818576D01*
X143723656Y-112902759D01*
X143708890Y-112976993D01*
X143708891Y-114027886D01*
X143723656Y-114102121D01*
X143730551Y-114112441D01*
X143730552Y-114112442D01*
X143743577Y-114131935D01*
X143779906Y-114186304D01*
X143790222Y-114193197D01*
X143851841Y-114234370D01*
X143897369Y-114288847D01*
X143906216Y-114359291D01*
X143875575Y-114423334D01*
X143822587Y-114456066D01*
X143822956Y-114456957D01*
X143817459Y-114459234D01*
X143815173Y-114460646D01*
X143812558Y-114461264D01*
X143811495Y-114461704D01*
X143799319Y-114464126D01*
X143788999Y-114471021D01*
X143788998Y-114471022D01*
X143741947Y-114502461D01*
X143715136Y-114520376D01*
X143658886Y-114604559D01*
X143644120Y-114678793D01*
X143644120Y-114684980D01*
X143644121Y-115276360D01*
X143624119Y-115344481D01*
X143570463Y-115390974D01*
X143518121Y-115402360D01*
X137959600Y-115402360D01*
X137891479Y-115382358D01*
X137844986Y-115328702D01*
X137833600Y-115276360D01*
X137833599Y-114212543D01*
X137833599Y-114206354D01*
X137825814Y-114167211D01*
X137821256Y-114144294D01*
X137821255Y-114144292D01*
X137818834Y-114132119D01*
X137811873Y-114121700D01*
X137769477Y-114058252D01*
X137762584Y-114047936D01*
X137678401Y-113991686D01*
X137604167Y-113976920D01*
X137261656Y-113976920D01*
X136919034Y-113976921D01*
X136883282Y-113984032D01*
X136856974Y-113989264D01*
X136856972Y-113989265D01*
X136844799Y-113991686D01*
X136834479Y-113998581D01*
X136834478Y-113998582D01*
X136781537Y-114033957D01*
X136760616Y-114047936D01*
X136704366Y-114132119D01*
X136701946Y-114144287D01*
X136699877Y-114149281D01*
X136655329Y-114204562D01*
X136588437Y-114225506D01*
X136588500Y-114225984D01*
X136439178Y-114245643D01*
X136300032Y-114303279D01*
X136180545Y-114394965D01*
X136088859Y-114514452D01*
X136031223Y-114653598D01*
X136011564Y-114802920D01*
X136031223Y-114952242D01*
X136088859Y-115091388D01*
X136171938Y-115199658D01*
X136197537Y-115265876D01*
X136183272Y-115335425D01*
X136133671Y-115386221D01*
X136071974Y-115402360D01*
X133021770Y-115402360D01*
X132973967Y-115392940D01*
X132855787Y-115344481D01*
X132337147Y-115131816D01*
X132296496Y-115104966D01*
X125902458Y-108801443D01*
X125874680Y-108760348D01*
X125610224Y-108128277D01*
X125600460Y-108079644D01*
X125600460Y-96452810D01*
X125620462Y-96384689D01*
X125637365Y-96363715D01*
X125962335Y-96038745D01*
X126024647Y-96004719D01*
X126051430Y-96001840D01*
X126192780Y-96001840D01*
X126260901Y-96021842D01*
G37*
%TD.AperFunction*%
%TA.AperFunction,Conductor*%
G36*
X145165070Y-100354306D02*
G01*
X145222656Y-100395832D01*
X145248278Y-100458319D01*
X145253730Y-100504382D01*
X145257450Y-100512128D01*
X145258860Y-100520602D01*
X145279690Y-100559208D01*
X145281612Y-100562769D01*
X145284305Y-100568056D01*
X145301615Y-100604102D01*
X145301617Y-100604105D01*
X145305048Y-100611250D01*
X145308419Y-100615260D01*
X145310357Y-100617198D01*
X145311872Y-100618849D01*
X145312093Y-100619259D01*
X145312051Y-100619297D01*
X145312212Y-100619480D01*
X145315155Y-100624934D01*
X145322802Y-100632002D01*
X145322802Y-100632003D01*
X145352214Y-100659191D01*
X145355780Y-100662621D01*
X146010752Y-101317593D01*
X146023424Y-101333282D01*
X146026244Y-101336382D01*
X146031895Y-101345134D01*
X146040073Y-101351581D01*
X146040074Y-101351582D01*
X146056287Y-101364363D01*
X146060317Y-101367944D01*
X146060400Y-101367846D01*
X146064357Y-101371199D01*
X146068038Y-101374880D01*
X146072270Y-101377904D01*
X146072272Y-101377906D01*
X146082631Y-101385309D01*
X146087376Y-101388872D01*
X146116815Y-101412080D01*
X146116817Y-101412081D01*
X146124995Y-101418528D01*
X146133100Y-101421374D01*
X146140091Y-101426370D01*
X146166357Y-101434225D01*
X146185991Y-101440097D01*
X146191635Y-101441931D01*
X146229367Y-101455181D01*
X146229370Y-101455182D01*
X146236849Y-101457808D01*
X146242068Y-101458260D01*
X146244779Y-101458260D01*
X146247055Y-101458358D01*
X146247505Y-101458493D01*
X146247503Y-101458547D01*
X146247734Y-101458562D01*
X146253671Y-101460337D01*
X146304069Y-101458357D01*
X146309015Y-101458260D01*
X146452288Y-101458260D01*
X146520409Y-101478262D01*
X146541384Y-101495165D01*
X146762702Y-101716484D01*
X146965794Y-101919576D01*
X146978468Y-101935269D01*
X146981287Y-101938367D01*
X146986935Y-101947114D01*
X147011327Y-101966343D01*
X147015357Y-101969924D01*
X147015440Y-101969826D01*
X147019397Y-101973179D01*
X147023078Y-101976860D01*
X147027310Y-101979884D01*
X147027312Y-101979886D01*
X147037671Y-101987289D01*
X147042416Y-101990852D01*
X147071855Y-102014060D01*
X147071857Y-102014061D01*
X147080035Y-102020508D01*
X147088140Y-102023354D01*
X147095131Y-102028350D01*
X147116007Y-102034593D01*
X147141031Y-102042077D01*
X147146675Y-102043911D01*
X147184407Y-102057161D01*
X147184410Y-102057162D01*
X147191889Y-102059788D01*
X147197108Y-102060240D01*
X147199819Y-102060240D01*
X147202095Y-102060338D01*
X147202545Y-102060473D01*
X147202543Y-102060527D01*
X147202774Y-102060542D01*
X147208711Y-102062317D01*
X147259109Y-102060337D01*
X147264055Y-102060240D01*
X147747220Y-102060240D01*
X147815341Y-102080242D01*
X147861834Y-102133898D01*
X147873220Y-102186240D01*
X147873221Y-102481684D01*
X147873221Y-102783306D01*
X147880332Y-102819058D01*
X147884322Y-102839118D01*
X147887986Y-102857541D01*
X147894881Y-102867861D01*
X147894882Y-102867862D01*
X147934948Y-102927824D01*
X147944236Y-102941724D01*
X148028419Y-102997974D01*
X148102653Y-103012740D01*
X148699123Y-103012740D01*
X149295786Y-103012739D01*
X149370021Y-102997974D01*
X149370660Y-103001188D01*
X149421360Y-102995737D01*
X149427160Y-102997440D01*
X149427959Y-102997974D01*
X149502193Y-103012740D01*
X149528336Y-103012740D01*
X150252977Y-103012739D01*
X150321097Y-103032741D01*
X150367590Y-103086397D01*
X150377694Y-103156671D01*
X150369385Y-103186956D01*
X150365764Y-103195699D01*
X150341583Y-103254078D01*
X150340505Y-103262268D01*
X150337751Y-103283185D01*
X150309029Y-103348113D01*
X150249765Y-103387205D01*
X150212829Y-103392740D01*
X149545746Y-103392741D01*
X149502194Y-103392741D01*
X149427959Y-103407506D01*
X149427320Y-103404292D01*
X149376620Y-103409743D01*
X149370820Y-103408040D01*
X149370021Y-103407506D01*
X149345664Y-103402661D01*
X149301855Y-103393947D01*
X149295787Y-103392740D01*
X148699317Y-103392740D01*
X148102654Y-103392741D01*
X148066902Y-103399852D01*
X148040594Y-103405084D01*
X148040592Y-103405085D01*
X148028419Y-103407506D01*
X148018099Y-103414401D01*
X148018098Y-103414402D01*
X147974156Y-103443764D01*
X147944236Y-103463756D01*
X147937343Y-103474072D01*
X147905638Y-103521522D01*
X147887986Y-103547939D01*
X147873220Y-103622173D01*
X147873221Y-104307306D01*
X147877934Y-104331000D01*
X147884165Y-104362329D01*
X147887986Y-104381541D01*
X147894881Y-104391861D01*
X147894882Y-104391862D01*
X147923294Y-104434382D01*
X147944236Y-104465724D01*
X148028419Y-104521974D01*
X148102653Y-104536740D01*
X148699123Y-104536740D01*
X149295786Y-104536739D01*
X149370021Y-104521974D01*
X149370660Y-104525188D01*
X149421360Y-104519737D01*
X149427160Y-104521440D01*
X149427959Y-104521974D01*
X149502193Y-104536740D01*
X149532616Y-104536740D01*
X150458870Y-104536739D01*
X150526990Y-104556741D01*
X150573483Y-104610397D01*
X150583587Y-104680671D01*
X150554094Y-104745251D01*
X150547964Y-104751834D01*
X149784265Y-105515533D01*
X149768575Y-105528205D01*
X149765474Y-105531027D01*
X149756726Y-105536675D01*
X149750279Y-105544853D01*
X149737497Y-105561067D01*
X149733916Y-105565097D01*
X149734014Y-105565180D01*
X149730661Y-105569137D01*
X149726980Y-105572818D01*
X149723956Y-105577050D01*
X149723954Y-105577052D01*
X149716551Y-105587411D01*
X149712988Y-105592156D01*
X149689780Y-105621595D01*
X149689779Y-105621597D01*
X149683332Y-105629775D01*
X149680486Y-105637880D01*
X149675490Y-105644871D01*
X149666927Y-105673505D01*
X149661766Y-105690762D01*
X149659932Y-105696407D01*
X149646679Y-105734147D01*
X149644052Y-105741629D01*
X149643600Y-105746848D01*
X149643600Y-105749559D01*
X149643502Y-105751836D01*
X149643367Y-105752285D01*
X149643313Y-105752283D01*
X149643298Y-105752516D01*
X149641523Y-105758452D01*
X149641932Y-105768856D01*
X149643503Y-105808850D01*
X149643600Y-105813796D01*
X149643600Y-107542028D01*
X149623598Y-107610149D01*
X149606674Y-107631145D01*
X149604601Y-107633217D01*
X149542281Y-107667227D01*
X149515527Y-107670100D01*
X148973248Y-107670101D01*
X148902754Y-107670101D01*
X148867002Y-107677212D01*
X148840694Y-107682444D01*
X148840692Y-107682445D01*
X148828519Y-107684866D01*
X148818199Y-107691762D01*
X148806733Y-107696511D01*
X148806070Y-107694911D01*
X148752274Y-107711759D01*
X148694068Y-107694668D01*
X148693305Y-107696510D01*
X148681841Y-107691761D01*
X148671521Y-107684866D01*
X148597287Y-107670100D01*
X148134471Y-107670100D01*
X147413917Y-107670101D01*
X147345796Y-107650099D01*
X147299303Y-107596443D01*
X147288159Y-107536299D01*
X147292323Y-107469170D01*
X147292777Y-107461859D01*
X147290063Y-107446063D01*
X147264207Y-107295589D01*
X147264206Y-107295586D01*
X147262967Y-107288375D01*
X147260101Y-107281639D01*
X147196913Y-107133139D01*
X147196912Y-107133137D01*
X147194046Y-107126402D01*
X147089713Y-106984628D01*
X146955562Y-106870659D01*
X146854582Y-106819096D01*
X146810910Y-106796796D01*
X146759338Y-106748003D01*
X146742331Y-106679073D01*
X146765291Y-106611891D01*
X146820927Y-106567788D01*
X146868210Y-106558579D01*
X147124086Y-106558579D01*
X147162272Y-106550984D01*
X147186146Y-106546236D01*
X147186148Y-106546235D01*
X147198321Y-106543814D01*
X147208641Y-106536919D01*
X147208642Y-106536918D01*
X147272188Y-106494457D01*
X147282504Y-106487564D01*
X147325940Y-106422558D01*
X147331859Y-106413700D01*
X147338754Y-106403381D01*
X147353520Y-106329147D01*
X147353519Y-105679574D01*
X147342990Y-105626637D01*
X147341176Y-105617514D01*
X147341175Y-105617512D01*
X147338754Y-105605339D01*
X147329946Y-105592156D01*
X147289397Y-105531472D01*
X147282504Y-105521156D01*
X147198321Y-105464906D01*
X147145059Y-105454312D01*
X147082150Y-105421405D01*
X147047017Y-105359711D01*
X147043640Y-105330733D01*
X147043640Y-105112991D01*
X147063642Y-105044870D01*
X147078167Y-105026338D01*
X147109297Y-104993477D01*
X147142441Y-104958489D01*
X147217748Y-104828839D01*
X147227177Y-104812606D01*
X147227178Y-104812605D01*
X147230853Y-104806277D01*
X147237132Y-104785548D01*
X147279755Y-104644814D01*
X147281877Y-104637808D01*
X147292777Y-104462119D01*
X147291537Y-104454901D01*
X147264207Y-104295849D01*
X147264206Y-104295846D01*
X147262967Y-104288635D01*
X147260101Y-104281899D01*
X147196913Y-104133399D01*
X147196912Y-104133397D01*
X147194046Y-104126662D01*
X147089713Y-103984888D01*
X146955562Y-103870919D01*
X146949047Y-103867592D01*
X146949045Y-103867591D01*
X146873014Y-103828768D01*
X146821442Y-103779975D01*
X146804435Y-103711045D01*
X146810635Y-103683081D01*
X146810434Y-103683041D01*
X146823993Y-103614875D01*
X146825200Y-103608807D01*
X146825199Y-102923674D01*
X146814731Y-102871043D01*
X146812856Y-102861614D01*
X146812855Y-102861612D01*
X146810434Y-102849439D01*
X146790709Y-102819918D01*
X146761077Y-102775572D01*
X146754184Y-102765256D01*
X146670001Y-102709006D01*
X146595767Y-102694240D01*
X146529099Y-102694240D01*
X146018913Y-102694241D01*
X145950792Y-102674239D01*
X145929818Y-102657336D01*
X145293782Y-102021300D01*
X145278429Y-102002291D01*
X145277462Y-102001228D01*
X145271811Y-101992476D01*
X145245268Y-101971551D01*
X145240793Y-101967574D01*
X145240732Y-101967645D01*
X145236775Y-101964292D01*
X145233092Y-101960609D01*
X145217301Y-101949325D01*
X145212555Y-101945762D01*
X145180247Y-101920292D01*
X145180246Y-101920291D01*
X145172070Y-101913846D01*
X145163383Y-101910795D01*
X145155897Y-101905446D01*
X145145921Y-101902463D01*
X145145920Y-101902462D01*
X145112551Y-101892483D01*
X145106526Y-101890681D01*
X145100897Y-101888852D01*
X145052238Y-101871764D01*
X145046649Y-101871280D01*
X145043938Y-101871280D01*
X145041271Y-101871165D01*
X145041208Y-101871146D01*
X145041215Y-101870972D01*
X145040469Y-101870925D01*
X145034216Y-101869055D01*
X144985432Y-101870972D01*
X144980062Y-101871183D01*
X144975115Y-101871280D01*
X144920468Y-101871280D01*
X144852347Y-101851278D01*
X144805854Y-101797622D01*
X144795750Y-101727348D01*
X144825244Y-101662768D01*
X144850463Y-101640517D01*
X144933004Y-101585364D01*
X144989254Y-101501181D01*
X145004020Y-101426947D01*
X145004019Y-101077094D01*
X144993938Y-101026409D01*
X144993938Y-100977253D01*
X145004020Y-100926567D01*
X145004019Y-100576714D01*
X144993938Y-100526029D01*
X144993938Y-100476873D01*
X144999573Y-100448546D01*
X145032480Y-100385637D01*
X145094175Y-100350506D01*
X145165070Y-100354306D01*
G37*
%TD.AperFunction*%
%TA.AperFunction,Conductor*%
G36*
X135132272Y-102630115D02*
G01*
X135140299Y-102635479D01*
X135140302Y-102635480D01*
X135150619Y-102642374D01*
X135224853Y-102657140D01*
X135245097Y-102657140D01*
X136168879Y-102657139D01*
X136236999Y-102677141D01*
X136283492Y-102730797D01*
X136293596Y-102801071D01*
X136268842Y-102859841D01*
X136180299Y-102975232D01*
X136129009Y-103099058D01*
X136084461Y-103154339D01*
X136012600Y-103176840D01*
X135461782Y-103176841D01*
X135417894Y-103176841D01*
X135382142Y-103183952D01*
X135355834Y-103189184D01*
X135355832Y-103189185D01*
X135343659Y-103191606D01*
X135333339Y-103198501D01*
X135333338Y-103198502D01*
X135272945Y-103238856D01*
X135259476Y-103247856D01*
X135203226Y-103332039D01*
X135188460Y-103406273D01*
X135188461Y-104599406D01*
X135190647Y-104610397D01*
X135199642Y-104655619D01*
X135203226Y-104673641D01*
X135210121Y-104683960D01*
X135210122Y-104683962D01*
X135232502Y-104717455D01*
X135259476Y-104757824D01*
X135343659Y-104814074D01*
X135417893Y-104828840D01*
X135760404Y-104828840D01*
X136103026Y-104828839D01*
X136138778Y-104821728D01*
X136165086Y-104816496D01*
X136165088Y-104816495D01*
X136177261Y-104814074D01*
X136187581Y-104807179D01*
X136187582Y-104807178D01*
X136251128Y-104764717D01*
X136261444Y-104757824D01*
X136300992Y-104698637D01*
X136310799Y-104683960D01*
X136317694Y-104673641D01*
X136332460Y-104599407D01*
X136332460Y-104502570D01*
X136352462Y-104434449D01*
X136406118Y-104387956D01*
X136428079Y-104380288D01*
X136437610Y-104377920D01*
X136447301Y-104375913D01*
X136490263Y-104368762D01*
X136499429Y-104363816D01*
X136504029Y-104362241D01*
X136508478Y-104360316D01*
X136518587Y-104357805D01*
X136555194Y-104334169D01*
X136563709Y-104329133D01*
X136592872Y-104313398D01*
X136592875Y-104313395D01*
X136602037Y-104308452D01*
X136609102Y-104300810D01*
X136612945Y-104297829D01*
X136616540Y-104294557D01*
X136625284Y-104288911D01*
X136633076Y-104279027D01*
X136635494Y-104277310D01*
X136639432Y-104273726D01*
X136639867Y-104274204D01*
X136690958Y-104237914D01*
X136761878Y-104234620D01*
X136823320Y-104270192D01*
X136855605Y-104332453D01*
X136859306Y-104351061D01*
X136866201Y-104361380D01*
X136866202Y-104361382D01*
X136906556Y-104421775D01*
X136915556Y-104435244D01*
X136999739Y-104491494D01*
X137073973Y-104506260D01*
X137248871Y-104506260D01*
X137423826Y-104506259D01*
X137459578Y-104499148D01*
X137485886Y-104493916D01*
X137485888Y-104493915D01*
X137498061Y-104491494D01*
X137508381Y-104484599D01*
X137508382Y-104484598D01*
X137571928Y-104442137D01*
X137582244Y-104435244D01*
X137638494Y-104351061D01*
X137638636Y-104351156D01*
X137677419Y-104303028D01*
X137744783Y-104280607D01*
X137813574Y-104298165D01*
X137859317Y-104347297D01*
X137860066Y-104351061D01*
X137866960Y-104361378D01*
X137866961Y-104361381D01*
X137872325Y-104369408D01*
X137893560Y-104439410D01*
X137893560Y-105174748D01*
X137873558Y-105242869D01*
X137856654Y-105263844D01*
X137811401Y-105309096D01*
X137749089Y-105343121D01*
X137722307Y-105346000D01*
X131951082Y-105346000D01*
X131931049Y-105343868D01*
X131926851Y-105343670D01*
X131916666Y-105341477D01*
X131906324Y-105342701D01*
X131885827Y-105345127D01*
X131880445Y-105345444D01*
X131880456Y-105345572D01*
X131875278Y-105346000D01*
X131870076Y-105346000D01*
X131859898Y-105347694D01*
X131852399Y-105348942D01*
X131846527Y-105349777D01*
X131809285Y-105354185D01*
X131809278Y-105354187D01*
X131798937Y-105355411D01*
X131791194Y-105359129D01*
X131782718Y-105360540D01*
X131740534Y-105383302D01*
X131735271Y-105385983D01*
X131692069Y-105406728D01*
X131688059Y-105410099D01*
X131686120Y-105412038D01*
X131684468Y-105413553D01*
X131684060Y-105413773D01*
X131684022Y-105413732D01*
X131683841Y-105413892D01*
X131678386Y-105416835D01*
X131671318Y-105424482D01*
X131671317Y-105424482D01*
X131644141Y-105453881D01*
X131640711Y-105457447D01*
X131408063Y-105690095D01*
X131345751Y-105724121D01*
X131318968Y-105727000D01*
X130499767Y-105727000D01*
X130431646Y-105706998D01*
X130385153Y-105653342D01*
X130375999Y-105577390D01*
X130391275Y-105497312D01*
X130391275Y-105497310D01*
X130392760Y-105489526D01*
X130388187Y-105416835D01*
X130382874Y-105332385D01*
X130382873Y-105332382D01*
X130382376Y-105324475D01*
X130371176Y-105290005D01*
X130369148Y-105219040D01*
X130405810Y-105158241D01*
X130436467Y-105137487D01*
X130439508Y-105136027D01*
X130496890Y-105108472D01*
X130500900Y-105105101D01*
X131057777Y-104548224D01*
X131614715Y-103991287D01*
X131630405Y-103978615D01*
X131633506Y-103975793D01*
X131642254Y-103970145D01*
X131661483Y-103945753D01*
X131665064Y-103941723D01*
X131664966Y-103941640D01*
X131668319Y-103937683D01*
X131672000Y-103934002D01*
X131682429Y-103919409D01*
X131685992Y-103914664D01*
X131709200Y-103885225D01*
X131709201Y-103885223D01*
X131715648Y-103877045D01*
X131718494Y-103868940D01*
X131723490Y-103861949D01*
X131724515Y-103858523D01*
X131773450Y-103809854D01*
X131842865Y-103794952D01*
X131881750Y-103804197D01*
X131971318Y-103841297D01*
X132120640Y-103860956D01*
X132269962Y-103841297D01*
X132409108Y-103783661D01*
X132528595Y-103691975D01*
X132620281Y-103572488D01*
X132677917Y-103433342D01*
X132697576Y-103284020D01*
X132677917Y-103134698D01*
X132620281Y-102995552D01*
X132528595Y-102876065D01*
X132474870Y-102834840D01*
X132433005Y-102777505D01*
X132428783Y-102706634D01*
X132463547Y-102644731D01*
X132526260Y-102611450D01*
X132551576Y-102608880D01*
X135062270Y-102608880D01*
X135132272Y-102630115D01*
G37*
%TD.AperFunction*%
%TA.AperFunction,Conductor*%
G36*
X130267925Y-101339850D02*
G01*
X130268157Y-101338770D01*
X130268159Y-101338771D01*
X130289897Y-101343451D01*
X130305098Y-101347738D01*
X130336449Y-101358748D01*
X130341668Y-101359200D01*
X130343270Y-101359200D01*
X130352098Y-101361101D01*
X130351701Y-101362945D01*
X130407387Y-101381948D01*
X130451517Y-101437564D01*
X130458572Y-101508209D01*
X130423842Y-101573996D01*
X130092343Y-101905495D01*
X130030031Y-101939521D01*
X130003248Y-101942400D01*
X129026802Y-101942400D01*
X128958681Y-101922398D01*
X128912188Y-101868742D01*
X128903034Y-101792790D01*
X128923155Y-101687312D01*
X128923155Y-101687310D01*
X128924640Y-101679526D01*
X128919925Y-101604585D01*
X128914754Y-101522385D01*
X128914753Y-101522382D01*
X128914256Y-101514475D01*
X128909937Y-101501181D01*
X128909143Y-101498739D01*
X128907114Y-101427771D01*
X128943775Y-101366973D01*
X129007486Y-101335646D01*
X129028975Y-101333800D01*
X130236214Y-101333800D01*
X130267925Y-101339850D01*
G37*
%TD.AperFunction*%
%TA.AperFunction,Conductor*%
G36*
X130019052Y-96021842D02*
G01*
X130067340Y-96079621D01*
X130089379Y-96132828D01*
X130181065Y-96252315D01*
X130300552Y-96344001D01*
X130439698Y-96401637D01*
X130589020Y-96421296D01*
X130738342Y-96401637D01*
X130877488Y-96344001D01*
X130996975Y-96252315D01*
X131088661Y-96132828D01*
X131110700Y-96079621D01*
X131155249Y-96024341D01*
X131227109Y-96001840D01*
X131385988Y-96001840D01*
X131454109Y-96021842D01*
X131500602Y-96075498D01*
X131510706Y-96145772D01*
X131502397Y-96176058D01*
X131461763Y-96274158D01*
X131442104Y-96423480D01*
X131461763Y-96572802D01*
X131519399Y-96711948D01*
X131611085Y-96831435D01*
X131730572Y-96923121D01*
X131869718Y-96980757D01*
X132019040Y-97000416D01*
X132168362Y-96980757D01*
X132307508Y-96923121D01*
X132426995Y-96831435D01*
X132518681Y-96711948D01*
X132576317Y-96572802D01*
X132595976Y-96423480D01*
X132576317Y-96274158D01*
X132535683Y-96176058D01*
X132528094Y-96105468D01*
X132559874Y-96041981D01*
X132620932Y-96005754D01*
X132652092Y-96001840D01*
X133045700Y-96001840D01*
X133113821Y-96021842D01*
X133160314Y-96075498D01*
X133171700Y-96127840D01*
X133171700Y-99867092D01*
X133169566Y-99887141D01*
X133169368Y-99891331D01*
X133167176Y-99901513D01*
X133168400Y-99911854D01*
X133170827Y-99932360D01*
X133171144Y-99937735D01*
X133171272Y-99937724D01*
X133171700Y-99942902D01*
X133171700Y-99948104D01*
X133172554Y-99953234D01*
X133174639Y-99965763D01*
X133175474Y-99971635D01*
X133179884Y-100008894D01*
X133179886Y-100008901D01*
X133181110Y-100019242D01*
X133184830Y-100026988D01*
X133186240Y-100035462D01*
X133191186Y-100044628D01*
X133191186Y-100044629D01*
X133192547Y-100047151D01*
X133193359Y-100050975D01*
X133194560Y-100054484D01*
X133194135Y-100054630D01*
X133207289Y-100116600D01*
X133182144Y-100182995D01*
X133125096Y-100225255D01*
X133081657Y-100232980D01*
X131978972Y-100232980D01*
X131910851Y-100212978D01*
X131864358Y-100159322D01*
X131854254Y-100089048D01*
X131883748Y-100024468D01*
X131889877Y-100017885D01*
X131914435Y-99993327D01*
X131930125Y-99980655D01*
X131933226Y-99977833D01*
X131941974Y-99972185D01*
X131961203Y-99947793D01*
X131964784Y-99943763D01*
X131964686Y-99943680D01*
X131968039Y-99939723D01*
X131971720Y-99936042D01*
X131975870Y-99930235D01*
X131982149Y-99921449D01*
X131985711Y-99916705D01*
X131991361Y-99909538D01*
X132010126Y-99885734D01*
X132068005Y-99844621D01*
X132109076Y-99837739D01*
X132295566Y-99837739D01*
X132331318Y-99830628D01*
X132357626Y-99825396D01*
X132357628Y-99825395D01*
X132369801Y-99822974D01*
X132380121Y-99816079D01*
X132380122Y-99816078D01*
X132443668Y-99773617D01*
X132453984Y-99766724D01*
X132510234Y-99682541D01*
X132525000Y-99608307D01*
X132524999Y-98923174D01*
X132517888Y-98887422D01*
X132512656Y-98861114D01*
X132512655Y-98861112D01*
X132510234Y-98848939D01*
X132489021Y-98817191D01*
X132460877Y-98775072D01*
X132453984Y-98764756D01*
X132369801Y-98708506D01*
X132295567Y-98693740D01*
X132250879Y-98693740D01*
X131598308Y-98693741D01*
X131530187Y-98673739D01*
X131483694Y-98620083D01*
X131473386Y-98584188D01*
X131459767Y-98480746D01*
X131456177Y-98453478D01*
X131398541Y-98314332D01*
X131306855Y-98194845D01*
X131187368Y-98103159D01*
X131048222Y-98045523D01*
X130898900Y-98025864D01*
X130749578Y-98045523D01*
X130610432Y-98103159D01*
X130565685Y-98137495D01*
X130499467Y-98163094D01*
X130429918Y-98148829D01*
X130379122Y-98099228D01*
X130363206Y-98030038D01*
X130365215Y-98013921D01*
X130391275Y-97877312D01*
X130391275Y-97877310D01*
X130392760Y-97869526D01*
X130388495Y-97801735D01*
X130382874Y-97712385D01*
X130382873Y-97712382D01*
X130382376Y-97704475D01*
X130371183Y-97670025D01*
X130333720Y-97554729D01*
X130331271Y-97547191D01*
X130327028Y-97540504D01*
X130327026Y-97540501D01*
X130249637Y-97418556D01*
X130242658Y-97407558D01*
X130122102Y-97294349D01*
X129977181Y-97214678D01*
X129816999Y-97173550D01*
X129294351Y-97173550D01*
X129246854Y-97179550D01*
X129179321Y-97188081D01*
X129179318Y-97188082D01*
X129171456Y-97189075D01*
X129164090Y-97191992D01*
X129164088Y-97191992D01*
X129025061Y-97247037D01*
X129025059Y-97247038D01*
X129017692Y-97249955D01*
X129011281Y-97254613D01*
X129011279Y-97254614D01*
X128961842Y-97290532D01*
X128883899Y-97347161D01*
X128882045Y-97349402D01*
X128820686Y-97380444D01*
X128750064Y-97373155D01*
X128711534Y-97348393D01*
X128659759Y-97299774D01*
X128653982Y-97294349D01*
X128509061Y-97214678D01*
X128348879Y-97173550D01*
X127826231Y-97173550D01*
X127778734Y-97179550D01*
X127711201Y-97188081D01*
X127711198Y-97188082D01*
X127703336Y-97189075D01*
X127695970Y-97191992D01*
X127695968Y-97191992D01*
X127556941Y-97247037D01*
X127556939Y-97247038D01*
X127549572Y-97249955D01*
X127543161Y-97254613D01*
X127543159Y-97254614D01*
X127481002Y-97299774D01*
X127415779Y-97347161D01*
X127310363Y-97474587D01*
X127309890Y-97474196D01*
X127260779Y-97517247D01*
X127190565Y-97527754D01*
X127125816Y-97498633D01*
X127087090Y-97439128D01*
X127081780Y-97402936D01*
X127081780Y-96127840D01*
X127101782Y-96059719D01*
X127155438Y-96013226D01*
X127207780Y-96001840D01*
X129950931Y-96001840D01*
X130019052Y-96021842D01*
G37*
%TD.AperFunction*%
%TA.AperFunction,Conductor*%
G36*
X134959666Y-97375748D02*
G01*
X135003545Y-97431562D01*
X135010143Y-97502955D01*
X134995420Y-97576973D01*
X134995421Y-97926826D01*
X135005502Y-97977511D01*
X135005502Y-98026667D01*
X135001123Y-98048684D01*
X134997367Y-98067567D01*
X134995420Y-98077353D01*
X134995420Y-98077354D01*
X134995343Y-98077339D01*
X134969673Y-98140915D01*
X134911719Y-98181926D01*
X134846280Y-98186314D01*
X134805087Y-98178120D01*
X134778853Y-98178120D01*
X134370579Y-98178121D01*
X134302460Y-98158119D01*
X134255966Y-98104464D01*
X134244580Y-98052121D01*
X134244580Y-97541741D01*
X134264582Y-97473620D01*
X134318238Y-97427127D01*
X134388512Y-97417023D01*
X134395311Y-97418418D01*
X134399558Y-97420177D01*
X134548880Y-97439836D01*
X134698202Y-97420177D01*
X134837348Y-97362541D01*
X134838615Y-97365601D01*
X134892578Y-97352518D01*
X134959666Y-97375748D01*
G37*
%TD.AperFunction*%
%TD*%
M02*
