%TF.GenerationSoftware,KiCad,Pcbnew,6.0.2-378541a8eb~116~ubuntu20.04.1*%
%TF.CreationDate,2022-03-13T20:33:59-06:00*%
%TF.ProjectId,Crazyflie contol board,4372617a-7966-46c6-9965-20636f6e746f,F*%
%TF.SameCoordinates,Original*%
%TF.FileFunction,Legend,Bot*%
%TF.FilePolarity,Positive*%
%FSLAX46Y46*%
G04 Gerber Fmt 4.6, Leading zero omitted, Abs format (unit mm)*
G04 Created by KiCad (PCBNEW 6.0.2-378541a8eb~116~ubuntu20.04.1) date 2022-03-13 20:33:59*
%MOMM*%
%LPD*%
G01*
G04 APERTURE LIST*
%ADD10C,0.200025*%
%ADD11C,0.200660*%
%ADD12C,0.299720*%
%ADD13C,0.248920*%
%ADD14C,0.250190*%
%ADD15C,0.127000*%
%ADD16C,0.002540*%
%ADD17C,0.381000*%
%ADD18R,1.399540X1.000760*%
%ADD19O,1.399540X1.000760*%
%ADD20O,1.600200X1.198880*%
G04 APERTURE END LIST*
D10*
X127213360Y-115566190D02*
X127480060Y-115185190D01*
X127670560Y-115566190D02*
X127670560Y-114766090D01*
X127365760Y-114766090D01*
X127289560Y-114804190D01*
X127251460Y-114842290D01*
X127213360Y-114918490D01*
X127213360Y-115032790D01*
X127251460Y-115108990D01*
X127289560Y-115147090D01*
X127365760Y-115185190D01*
X127670560Y-115185190D01*
X126756160Y-115566190D02*
X126832360Y-115528090D01*
X126870460Y-115489990D01*
X126908560Y-115413790D01*
X126908560Y-115185190D01*
X126870460Y-115108990D01*
X126832360Y-115070890D01*
X126756160Y-115032790D01*
X126641860Y-115032790D01*
X126565660Y-115070890D01*
X126527560Y-115108990D01*
X126489460Y-115185190D01*
X126489460Y-115413790D01*
X126527560Y-115489990D01*
X126565660Y-115528090D01*
X126641860Y-115566190D01*
X126756160Y-115566190D01*
X126146560Y-115566190D02*
X126146560Y-114766090D01*
X126146560Y-115147090D02*
X125689360Y-115147090D01*
X125689360Y-115566190D02*
X125689360Y-114766090D01*
X125346460Y-115528090D02*
X125232160Y-115566190D01*
X125041660Y-115566190D01*
X124965460Y-115528090D01*
X124927360Y-115489990D01*
X124889260Y-115413790D01*
X124889260Y-115337590D01*
X124927360Y-115261390D01*
X124965460Y-115223290D01*
X125041660Y-115185190D01*
X125194060Y-115147090D01*
X125270260Y-115108990D01*
X125308360Y-115070890D01*
X125346460Y-114994690D01*
X125346460Y-114918490D01*
X125308360Y-114842290D01*
X125270260Y-114804190D01*
X125194060Y-114766090D01*
X125003560Y-114766090D01*
X124889260Y-114804190D01*
D11*
X122808879Y-101554884D02*
X122808879Y-100554124D01*
X122475292Y-101268953D01*
X122141705Y-100554124D01*
X122141705Y-101554884D01*
X121236256Y-100887711D02*
X121236256Y-101554884D01*
X121474532Y-100506469D02*
X121712808Y-101221298D01*
X121093290Y-101221298D01*
D12*
X139294446Y-113681147D02*
X139294446Y-112180007D01*
X139294446Y-112751870D02*
X139180267Y-112680387D01*
X138951909Y-112680387D01*
X138837730Y-112751870D01*
X138780640Y-112823352D01*
X138723551Y-112966318D01*
X138723551Y-113395215D01*
X138780640Y-113538181D01*
X138837730Y-113609664D01*
X138951909Y-113681147D01*
X139180267Y-113681147D01*
X139294446Y-113609664D01*
X138209745Y-113681147D02*
X138209745Y-112680387D01*
X138209745Y-112180007D02*
X138266835Y-112251490D01*
X138209745Y-112322972D01*
X138152656Y-112251490D01*
X138209745Y-112180007D01*
X138209745Y-112322972D01*
X137810119Y-112680387D02*
X137353402Y-112680387D01*
X137638850Y-112180007D02*
X137638850Y-113466698D01*
X137581760Y-113609664D01*
X137467581Y-113681147D01*
X137353402Y-113681147D01*
X136439970Y-113609664D02*
X136554149Y-113681147D01*
X136782507Y-113681147D01*
X136896686Y-113609664D01*
X136953776Y-113538181D01*
X137010865Y-113395215D01*
X137010865Y-112966318D01*
X136953776Y-112823352D01*
X136896686Y-112751870D01*
X136782507Y-112680387D01*
X136554149Y-112680387D01*
X136439970Y-112751870D01*
X135926164Y-113681147D02*
X135926164Y-112680387D01*
X135926164Y-112966318D02*
X135869075Y-112823352D01*
X135811985Y-112751870D01*
X135697806Y-112680387D01*
X135583627Y-112680387D01*
X134670195Y-113681147D02*
X134670195Y-112894835D01*
X134727284Y-112751870D01*
X134841463Y-112680387D01*
X135069821Y-112680387D01*
X135184000Y-112751870D01*
X134670195Y-113609664D02*
X134784374Y-113681147D01*
X135069821Y-113681147D01*
X135184000Y-113609664D01*
X135241090Y-113466698D01*
X135241090Y-113323732D01*
X135184000Y-113180767D01*
X135069821Y-113109284D01*
X134784374Y-113109284D01*
X134670195Y-113037801D01*
X134213479Y-112680387D02*
X133585494Y-112680387D01*
X134213479Y-113681147D01*
X133585494Y-113681147D01*
X132672061Y-113609664D02*
X132786240Y-113681147D01*
X133014599Y-113681147D01*
X133128778Y-113609664D01*
X133185867Y-113466698D01*
X133185867Y-112894835D01*
X133128778Y-112751870D01*
X133014599Y-112680387D01*
X132786240Y-112680387D01*
X132672061Y-112751870D01*
X132614972Y-112894835D01*
X132614972Y-113037801D01*
X133185867Y-113180767D01*
X132101166Y-113538181D02*
X132044077Y-113609664D01*
X132101166Y-113681147D01*
X132158256Y-113609664D01*
X132101166Y-113538181D01*
X132101166Y-113681147D01*
X131587360Y-113609664D02*
X131473181Y-113681147D01*
X131244823Y-113681147D01*
X131130644Y-113609664D01*
X131073555Y-113466698D01*
X131073555Y-113395215D01*
X131130644Y-113252250D01*
X131244823Y-113180767D01*
X131416092Y-113180767D01*
X131530271Y-113109284D01*
X131587360Y-112966318D01*
X131587360Y-112894835D01*
X131530271Y-112751870D01*
X131416092Y-112680387D01*
X131244823Y-112680387D01*
X131130644Y-112751870D01*
X130103033Y-113609664D02*
X130217212Y-113681147D01*
X130445570Y-113681147D01*
X130559749Y-113609664D01*
X130616839Y-113466698D01*
X130616839Y-112894835D01*
X130559749Y-112751870D01*
X130445570Y-112680387D01*
X130217212Y-112680387D01*
X130103033Y-112751870D01*
X130045943Y-112894835D01*
X130045943Y-113037801D01*
X130616839Y-113180767D01*
D13*
X154460302Y-105793781D02*
X154460302Y-105031298D01*
D10*
X143146780Y-105464610D02*
X143146780Y-104664510D01*
X142880080Y-105236010D01*
X142613380Y-104664510D01*
X142613380Y-105464610D01*
X141813280Y-105464610D02*
X142270480Y-105464610D01*
X142041880Y-105464610D02*
X142041880Y-104664510D01*
X142118080Y-104778810D01*
X142194280Y-104855010D01*
X142270480Y-104893110D01*
D11*
X140551504Y-82191980D02*
X139550744Y-82191980D01*
X140265573Y-82525567D01*
X139550744Y-82859154D01*
X140551504Y-82859154D01*
X140551504Y-83859914D02*
X140551504Y-83288051D01*
X140551504Y-83573982D02*
X139550744Y-83573982D01*
X139693710Y-83478672D01*
X139789020Y-83383361D01*
X139836676Y-83288051D01*
X158810839Y-101554884D02*
X158810839Y-100554124D01*
X158477252Y-101268953D01*
X158143665Y-100554124D01*
X158143665Y-101554884D01*
X157714768Y-100649435D02*
X157667113Y-100601780D01*
X157571802Y-100554124D01*
X157333526Y-100554124D01*
X157238216Y-100601780D01*
X157190560Y-100649435D01*
X157142905Y-100744745D01*
X157142905Y-100840056D01*
X157190560Y-100983021D01*
X157762423Y-101554884D01*
X157142905Y-101554884D01*
D14*
X154272342Y-97581961D02*
X154272342Y-96819478D01*
D11*
X139447935Y-119814219D02*
X140448695Y-119814219D01*
X139733866Y-119480632D01*
X140448695Y-119147045D01*
X139447935Y-119147045D01*
X140448695Y-118765803D02*
X140448695Y-118146285D01*
X140067453Y-118479872D01*
X140067453Y-118336906D01*
X140019798Y-118241596D01*
X139972142Y-118193940D01*
X139876832Y-118146285D01*
X139638556Y-118146285D01*
X139543245Y-118193940D01*
X139495590Y-118241596D01*
X139447935Y-118336906D01*
X139447935Y-118622838D01*
X139495590Y-118718148D01*
X139543245Y-118765803D01*
D10*
X143248380Y-107963970D02*
X143248380Y-107163870D01*
X142981680Y-107735370D01*
X142714980Y-107163870D01*
X142714980Y-107963970D01*
X142372080Y-107240070D02*
X142333980Y-107201970D01*
X142257780Y-107163870D01*
X142067280Y-107163870D01*
X141991080Y-107201970D01*
X141952980Y-107240070D01*
X141914880Y-107316270D01*
X141914880Y-107392470D01*
X141952980Y-107506770D01*
X142410180Y-107963970D01*
X141914880Y-107963970D01*
X143248380Y-113864390D02*
X143248380Y-113064290D01*
X142981680Y-113635790D01*
X142714980Y-113064290D01*
X142714980Y-113864390D01*
X141991080Y-113330990D02*
X141991080Y-113864390D01*
X142181580Y-113026190D02*
X142372080Y-113597690D01*
X141876780Y-113597690D01*
X143248380Y-110966250D02*
X143248380Y-110166150D01*
X142981680Y-110737650D01*
X142714980Y-110166150D01*
X142714980Y-110966250D01*
X142410180Y-110166150D02*
X141914880Y-110166150D01*
X142181580Y-110470950D01*
X142067280Y-110470950D01*
X141991080Y-110509050D01*
X141952980Y-110547150D01*
X141914880Y-110623350D01*
X141914880Y-110813850D01*
X141952980Y-110890050D01*
X141991080Y-110928150D01*
X142067280Y-110966250D01*
X142295880Y-110966250D01*
X142372080Y-110928150D01*
X142410180Y-110890050D01*
D14*
X153819618Y-99271182D02*
X154582101Y-99271182D01*
X154200860Y-99652424D02*
X154200860Y-98889940D01*
D10*
%TO.C,X1*%
X139745720Y-89361010D02*
X139212320Y-90161110D01*
X139212320Y-89361010D02*
X139745720Y-90161110D01*
X138488420Y-90161110D02*
X138945620Y-90161110D01*
X138717020Y-90161110D02*
X138717020Y-89361010D01*
X138793220Y-89475310D01*
X138869420Y-89551510D01*
X138945620Y-89589610D01*
%TO.C,U7*%
X150660100Y-87412830D02*
X150660100Y-88060530D01*
X150622000Y-88136730D01*
X150583900Y-88174830D01*
X150507700Y-88212930D01*
X150355300Y-88212930D01*
X150279100Y-88174830D01*
X150241000Y-88136730D01*
X150202900Y-88060530D01*
X150202900Y-87412830D01*
X149898100Y-87412830D02*
X149364700Y-87412830D01*
X149707600Y-88212930D01*
%TO.C,U9*%
X152610820Y-108411010D02*
X152610820Y-109058710D01*
X152572720Y-109134910D01*
X152534620Y-109173010D01*
X152458420Y-109211110D01*
X152306020Y-109211110D01*
X152229820Y-109173010D01*
X152191720Y-109134910D01*
X152153620Y-109058710D01*
X152153620Y-108411010D01*
X151734520Y-109211110D02*
X151582120Y-109211110D01*
X151505920Y-109173010D01*
X151467820Y-109134910D01*
X151391620Y-109020610D01*
X151353520Y-108868210D01*
X151353520Y-108563410D01*
X151391620Y-108487210D01*
X151429720Y-108449110D01*
X151505920Y-108411010D01*
X151658320Y-108411010D01*
X151734520Y-108449110D01*
X151772620Y-108487210D01*
X151810720Y-108563410D01*
X151810720Y-108753910D01*
X151772620Y-108830110D01*
X151734520Y-108868210D01*
X151658320Y-108906310D01*
X151505920Y-108906310D01*
X151429720Y-108868210D01*
X151391620Y-108830110D01*
X151353520Y-108753910D01*
%TO.C,D1*%
X144339310Y-106361230D02*
X144339310Y-105561130D01*
X144148810Y-105561130D01*
X144034510Y-105599230D01*
X143958310Y-105675430D01*
X143920210Y-105751630D01*
X143882110Y-105904030D01*
X143882110Y-106018330D01*
X143920210Y-106170730D01*
X143958310Y-106246930D01*
X144034510Y-106323130D01*
X144148810Y-106361230D01*
X144339310Y-106361230D01*
X143120110Y-106361230D02*
X143577310Y-106361230D01*
X143348710Y-106361230D02*
X143348710Y-105561130D01*
X143424910Y-105675430D01*
X143501110Y-105751630D01*
X143577310Y-105789730D01*
%TO.C,D2*%
X144291050Y-109462570D02*
X144291050Y-108662470D01*
X144100550Y-108662470D01*
X143986250Y-108700570D01*
X143910050Y-108776770D01*
X143871950Y-108852970D01*
X143833850Y-109005370D01*
X143833850Y-109119670D01*
X143871950Y-109272070D01*
X143910050Y-109348270D01*
X143986250Y-109424470D01*
X144100550Y-109462570D01*
X144291050Y-109462570D01*
X143529050Y-108738670D02*
X143490950Y-108700570D01*
X143414750Y-108662470D01*
X143224250Y-108662470D01*
X143148050Y-108700570D01*
X143109950Y-108738670D01*
X143071850Y-108814870D01*
X143071850Y-108891070D01*
X143109950Y-109005370D01*
X143567150Y-109462570D01*
X143071850Y-109462570D01*
%TO.C,D3*%
X144291050Y-112411510D02*
X144291050Y-111611410D01*
X144100550Y-111611410D01*
X143986250Y-111649510D01*
X143910050Y-111725710D01*
X143871950Y-111801910D01*
X143833850Y-111954310D01*
X143833850Y-112068610D01*
X143871950Y-112221010D01*
X143910050Y-112297210D01*
X143986250Y-112373410D01*
X144100550Y-112411510D01*
X144291050Y-112411510D01*
X143567150Y-111611410D02*
X143071850Y-111611410D01*
X143338550Y-111916210D01*
X143224250Y-111916210D01*
X143148050Y-111954310D01*
X143109950Y-111992410D01*
X143071850Y-112068610D01*
X143071850Y-112259110D01*
X143109950Y-112335310D01*
X143148050Y-112373410D01*
X143224250Y-112411510D01*
X143452850Y-112411510D01*
X143529050Y-112373410D01*
X143567150Y-112335310D01*
%TO.C,D4*%
X144291050Y-115462050D02*
X144291050Y-114661950D01*
X144100550Y-114661950D01*
X143986250Y-114700050D01*
X143910050Y-114776250D01*
X143871950Y-114852450D01*
X143833850Y-115004850D01*
X143833850Y-115119150D01*
X143871950Y-115271550D01*
X143910050Y-115347750D01*
X143986250Y-115423950D01*
X144100550Y-115462050D01*
X144291050Y-115462050D01*
X143148050Y-114928650D02*
X143148050Y-115462050D01*
X143338550Y-114623850D02*
X143529050Y-115195350D01*
X143033750Y-115195350D01*
%TO.C,C29*%
X153513790Y-89388950D02*
X153551890Y-89427050D01*
X153666190Y-89465150D01*
X153742390Y-89465150D01*
X153856690Y-89427050D01*
X153932890Y-89350850D01*
X153970990Y-89274650D01*
X154009090Y-89122250D01*
X154009090Y-89007950D01*
X153970990Y-88855550D01*
X153932890Y-88779350D01*
X153856690Y-88703150D01*
X153742390Y-88665050D01*
X153666190Y-88665050D01*
X153551890Y-88703150D01*
X153513790Y-88741250D01*
X153208990Y-88741250D02*
X153170890Y-88703150D01*
X153094690Y-88665050D01*
X152904190Y-88665050D01*
X152827990Y-88703150D01*
X152789890Y-88741250D01*
X152751790Y-88817450D01*
X152751790Y-88893650D01*
X152789890Y-89007950D01*
X153247090Y-89465150D01*
X152751790Y-89465150D01*
X152370790Y-89465150D02*
X152218390Y-89465150D01*
X152142190Y-89427050D01*
X152104090Y-89388950D01*
X152027890Y-89274650D01*
X151989790Y-89122250D01*
X151989790Y-88817450D01*
X152027890Y-88741250D01*
X152065990Y-88703150D01*
X152142190Y-88665050D01*
X152294590Y-88665050D01*
X152370790Y-88703150D01*
X152408890Y-88741250D01*
X152446990Y-88817450D01*
X152446990Y-89007950D01*
X152408890Y-89084150D01*
X152370790Y-89122250D01*
X152294590Y-89160350D01*
X152142190Y-89160350D01*
X152065990Y-89122250D01*
X152027890Y-89084150D01*
X151989790Y-89007950D01*
%TO.C,C30*%
X153513790Y-87887810D02*
X153551890Y-87925910D01*
X153666190Y-87964010D01*
X153742390Y-87964010D01*
X153856690Y-87925910D01*
X153932890Y-87849710D01*
X153970990Y-87773510D01*
X154009090Y-87621110D01*
X154009090Y-87506810D01*
X153970990Y-87354410D01*
X153932890Y-87278210D01*
X153856690Y-87202010D01*
X153742390Y-87163910D01*
X153666190Y-87163910D01*
X153551890Y-87202010D01*
X153513790Y-87240110D01*
X153247090Y-87163910D02*
X152751790Y-87163910D01*
X153018490Y-87468710D01*
X152904190Y-87468710D01*
X152827990Y-87506810D01*
X152789890Y-87544910D01*
X152751790Y-87621110D01*
X152751790Y-87811610D01*
X152789890Y-87887810D01*
X152827990Y-87925910D01*
X152904190Y-87964010D01*
X153132790Y-87964010D01*
X153208990Y-87925910D01*
X153247090Y-87887810D01*
X152256490Y-87163910D02*
X152180290Y-87163910D01*
X152104090Y-87202010D01*
X152065990Y-87240110D01*
X152027890Y-87316310D01*
X151989790Y-87468710D01*
X151989790Y-87659210D01*
X152027890Y-87811610D01*
X152065990Y-87887810D01*
X152104090Y-87925910D01*
X152180290Y-87964010D01*
X152256490Y-87964010D01*
X152332690Y-87925910D01*
X152370790Y-87887810D01*
X152408890Y-87811610D01*
X152446990Y-87659210D01*
X152446990Y-87468710D01*
X152408890Y-87316310D01*
X152370790Y-87240110D01*
X152332690Y-87202010D01*
X152256490Y-87163910D01*
%TO.C,C31*%
X150493730Y-92378530D02*
X150531830Y-92416630D01*
X150646130Y-92454730D01*
X150722330Y-92454730D01*
X150836630Y-92416630D01*
X150912830Y-92340430D01*
X150950930Y-92264230D01*
X150989030Y-92111830D01*
X150989030Y-91997530D01*
X150950930Y-91845130D01*
X150912830Y-91768930D01*
X150836630Y-91692730D01*
X150722330Y-91654630D01*
X150646130Y-91654630D01*
X150531830Y-91692730D01*
X150493730Y-91730830D01*
X150227030Y-91654630D02*
X149731730Y-91654630D01*
X149998430Y-91959430D01*
X149884130Y-91959430D01*
X149807930Y-91997530D01*
X149769830Y-92035630D01*
X149731730Y-92111830D01*
X149731730Y-92302330D01*
X149769830Y-92378530D01*
X149807930Y-92416630D01*
X149884130Y-92454730D01*
X150112730Y-92454730D01*
X150188930Y-92416630D01*
X150227030Y-92378530D01*
X148969730Y-92454730D02*
X149426930Y-92454730D01*
X149198330Y-92454730D02*
X149198330Y-91654630D01*
X149274530Y-91768930D01*
X149350730Y-91845130D01*
X149426930Y-91883230D01*
%TO.C,C32*%
X147514310Y-90389710D02*
X147552410Y-90427810D01*
X147666710Y-90465910D01*
X147742910Y-90465910D01*
X147857210Y-90427810D01*
X147933410Y-90351610D01*
X147971510Y-90275410D01*
X148009610Y-90123010D01*
X148009610Y-90008710D01*
X147971510Y-89856310D01*
X147933410Y-89780110D01*
X147857210Y-89703910D01*
X147742910Y-89665810D01*
X147666710Y-89665810D01*
X147552410Y-89703910D01*
X147514310Y-89742010D01*
X147247610Y-89665810D02*
X146752310Y-89665810D01*
X147019010Y-89970610D01*
X146904710Y-89970610D01*
X146828510Y-90008710D01*
X146790410Y-90046810D01*
X146752310Y-90123010D01*
X146752310Y-90313510D01*
X146790410Y-90389710D01*
X146828510Y-90427810D01*
X146904710Y-90465910D01*
X147133310Y-90465910D01*
X147209510Y-90427810D01*
X147247610Y-90389710D01*
X146447510Y-89742010D02*
X146409410Y-89703910D01*
X146333210Y-89665810D01*
X146142710Y-89665810D01*
X146066510Y-89703910D01*
X146028410Y-89742010D01*
X145990310Y-89818210D01*
X145990310Y-89894410D01*
X146028410Y-90008710D01*
X146485610Y-90465910D01*
X145990310Y-90465910D01*
%TO.C,C35*%
X152015190Y-113889790D02*
X152053290Y-113927890D01*
X152167590Y-113965990D01*
X152243790Y-113965990D01*
X152358090Y-113927890D01*
X152434290Y-113851690D01*
X152472390Y-113775490D01*
X152510490Y-113623090D01*
X152510490Y-113508790D01*
X152472390Y-113356390D01*
X152434290Y-113280190D01*
X152358090Y-113203990D01*
X152243790Y-113165890D01*
X152167590Y-113165890D01*
X152053290Y-113203990D01*
X152015190Y-113242090D01*
X151748490Y-113165890D02*
X151253190Y-113165890D01*
X151519890Y-113470690D01*
X151405590Y-113470690D01*
X151329390Y-113508790D01*
X151291290Y-113546890D01*
X151253190Y-113623090D01*
X151253190Y-113813590D01*
X151291290Y-113889790D01*
X151329390Y-113927890D01*
X151405590Y-113965990D01*
X151634190Y-113965990D01*
X151710390Y-113927890D01*
X151748490Y-113889790D01*
X150529290Y-113165890D02*
X150910290Y-113165890D01*
X150948390Y-113546890D01*
X150910290Y-113508790D01*
X150834090Y-113470690D01*
X150643590Y-113470690D01*
X150567390Y-113508790D01*
X150529290Y-113546890D01*
X150491190Y-113623090D01*
X150491190Y-113813590D01*
X150529290Y-113889790D01*
X150567390Y-113927890D01*
X150643590Y-113965990D01*
X150834090Y-113965990D01*
X150910290Y-113927890D01*
X150948390Y-113889790D01*
%TO.C,C36*%
X129363470Y-93559630D02*
X129401570Y-93597730D01*
X129515870Y-93635830D01*
X129592070Y-93635830D01*
X129706370Y-93597730D01*
X129782570Y-93521530D01*
X129820670Y-93445330D01*
X129858770Y-93292930D01*
X129858770Y-93178630D01*
X129820670Y-93026230D01*
X129782570Y-92950030D01*
X129706370Y-92873830D01*
X129592070Y-92835730D01*
X129515870Y-92835730D01*
X129401570Y-92873830D01*
X129363470Y-92911930D01*
X129096770Y-92835730D02*
X128601470Y-92835730D01*
X128868170Y-93140530D01*
X128753870Y-93140530D01*
X128677670Y-93178630D01*
X128639570Y-93216730D01*
X128601470Y-93292930D01*
X128601470Y-93483430D01*
X128639570Y-93559630D01*
X128677670Y-93597730D01*
X128753870Y-93635830D01*
X128982470Y-93635830D01*
X129058670Y-93597730D01*
X129096770Y-93559630D01*
X127915670Y-92835730D02*
X128068070Y-92835730D01*
X128144270Y-92873830D01*
X128182370Y-92911930D01*
X128258570Y-93026230D01*
X128296670Y-93178630D01*
X128296670Y-93483430D01*
X128258570Y-93559630D01*
X128220470Y-93597730D01*
X128144270Y-93635830D01*
X127991870Y-93635830D01*
X127915670Y-93597730D01*
X127877570Y-93559630D01*
X127839470Y-93483430D01*
X127839470Y-93292930D01*
X127877570Y-93216730D01*
X127915670Y-93178630D01*
X127991870Y-93140530D01*
X128144270Y-93140530D01*
X128220470Y-93178630D01*
X128258570Y-93216730D01*
X128296670Y-93292930D01*
%TO.C,C37*%
X149886670Y-113488470D02*
X149924770Y-113450370D01*
X149962870Y-113336070D01*
X149962870Y-113259870D01*
X149924770Y-113145570D01*
X149848570Y-113069370D01*
X149772370Y-113031270D01*
X149619970Y-112993170D01*
X149505670Y-112993170D01*
X149353270Y-113031270D01*
X149277070Y-113069370D01*
X149200870Y-113145570D01*
X149162770Y-113259870D01*
X149162770Y-113336070D01*
X149200870Y-113450370D01*
X149238970Y-113488470D01*
X149162770Y-113755170D02*
X149162770Y-114250470D01*
X149467570Y-113983770D01*
X149467570Y-114098070D01*
X149505670Y-114174270D01*
X149543770Y-114212370D01*
X149619970Y-114250470D01*
X149810470Y-114250470D01*
X149886670Y-114212370D01*
X149924770Y-114174270D01*
X149962870Y-114098070D01*
X149962870Y-113869470D01*
X149924770Y-113793270D01*
X149886670Y-113755170D01*
X149162770Y-114517170D02*
X149162770Y-115050570D01*
X149962870Y-114707670D01*
%TO.C,C38*%
X153013410Y-107389930D02*
X153051510Y-107428030D01*
X153165810Y-107466130D01*
X153242010Y-107466130D01*
X153356310Y-107428030D01*
X153432510Y-107351830D01*
X153470610Y-107275630D01*
X153508710Y-107123230D01*
X153508710Y-107008930D01*
X153470610Y-106856530D01*
X153432510Y-106780330D01*
X153356310Y-106704130D01*
X153242010Y-106666030D01*
X153165810Y-106666030D01*
X153051510Y-106704130D01*
X153013410Y-106742230D01*
X152746710Y-106666030D02*
X152251410Y-106666030D01*
X152518110Y-106970830D01*
X152403810Y-106970830D01*
X152327610Y-107008930D01*
X152289510Y-107047030D01*
X152251410Y-107123230D01*
X152251410Y-107313730D01*
X152289510Y-107389930D01*
X152327610Y-107428030D01*
X152403810Y-107466130D01*
X152632410Y-107466130D01*
X152708610Y-107428030D01*
X152746710Y-107389930D01*
X151794210Y-107008930D02*
X151870410Y-106970830D01*
X151908510Y-106932730D01*
X151946610Y-106856530D01*
X151946610Y-106818430D01*
X151908510Y-106742230D01*
X151870410Y-106704130D01*
X151794210Y-106666030D01*
X151641810Y-106666030D01*
X151565610Y-106704130D01*
X151527510Y-106742230D01*
X151489410Y-106818430D01*
X151489410Y-106856530D01*
X151527510Y-106932730D01*
X151565610Y-106970830D01*
X151641810Y-107008930D01*
X151794210Y-107008930D01*
X151870410Y-107047030D01*
X151908510Y-107085130D01*
X151946610Y-107161330D01*
X151946610Y-107313730D01*
X151908510Y-107389930D01*
X151870410Y-107428030D01*
X151794210Y-107466130D01*
X151641810Y-107466130D01*
X151565610Y-107428030D01*
X151527510Y-107389930D01*
X151489410Y-107313730D01*
X151489410Y-107161330D01*
X151527510Y-107085130D01*
X151565610Y-107047030D01*
X151641810Y-107008930D01*
%TO.C,C39*%
X151184610Y-98685350D02*
X151222710Y-98647250D01*
X151260810Y-98532950D01*
X151260810Y-98456750D01*
X151222710Y-98342450D01*
X151146510Y-98266250D01*
X151070310Y-98228150D01*
X150917910Y-98190050D01*
X150803610Y-98190050D01*
X150651210Y-98228150D01*
X150575010Y-98266250D01*
X150498810Y-98342450D01*
X150460710Y-98456750D01*
X150460710Y-98532950D01*
X150498810Y-98647250D01*
X150536910Y-98685350D01*
X150460710Y-98952050D02*
X150460710Y-99447350D01*
X150765510Y-99180650D01*
X150765510Y-99294950D01*
X150803610Y-99371150D01*
X150841710Y-99409250D01*
X150917910Y-99447350D01*
X151108410Y-99447350D01*
X151184610Y-99409250D01*
X151222710Y-99371150D01*
X151260810Y-99294950D01*
X151260810Y-99066350D01*
X151222710Y-98990150D01*
X151184610Y-98952050D01*
X151260810Y-99828350D02*
X151260810Y-99980750D01*
X151222710Y-100056950D01*
X151184610Y-100095050D01*
X151070310Y-100171250D01*
X150917910Y-100209350D01*
X150613110Y-100209350D01*
X150536910Y-100171250D01*
X150498810Y-100133150D01*
X150460710Y-100056950D01*
X150460710Y-99904550D01*
X150498810Y-99828350D01*
X150536910Y-99790250D01*
X150613110Y-99752150D01*
X150803610Y-99752150D01*
X150879810Y-99790250D01*
X150917910Y-99828350D01*
X150956010Y-99904550D01*
X150956010Y-100056950D01*
X150917910Y-100133150D01*
X150879810Y-100171250D01*
X150803610Y-100209350D01*
%TO.C,C40*%
X154214830Y-113488470D02*
X154252930Y-113450370D01*
X154291030Y-113336070D01*
X154291030Y-113259870D01*
X154252930Y-113145570D01*
X154176730Y-113069370D01*
X154100530Y-113031270D01*
X153948130Y-112993170D01*
X153833830Y-112993170D01*
X153681430Y-113031270D01*
X153605230Y-113069370D01*
X153529030Y-113145570D01*
X153490930Y-113259870D01*
X153490930Y-113336070D01*
X153529030Y-113450370D01*
X153567130Y-113488470D01*
X153757630Y-114174270D02*
X154291030Y-114174270D01*
X153452830Y-113983770D02*
X154024330Y-113793270D01*
X154024330Y-114288570D01*
X153490930Y-114745770D02*
X153490930Y-114821970D01*
X153529030Y-114898170D01*
X153567130Y-114936270D01*
X153643330Y-114974370D01*
X153795730Y-115012470D01*
X153986230Y-115012470D01*
X154138630Y-114974370D01*
X154214830Y-114936270D01*
X154252930Y-114898170D01*
X154291030Y-114821970D01*
X154291030Y-114745770D01*
X154252930Y-114669570D01*
X154214830Y-114631470D01*
X154138630Y-114593370D01*
X153986230Y-114555270D01*
X153795730Y-114555270D01*
X153643330Y-114593370D01*
X153567130Y-114631470D01*
X153529030Y-114669570D01*
X153490930Y-114745770D01*
%TO.C,C41*%
X148890990Y-102688390D02*
X148929090Y-102650290D01*
X148967190Y-102535990D01*
X148967190Y-102459790D01*
X148929090Y-102345490D01*
X148852890Y-102269290D01*
X148776690Y-102231190D01*
X148624290Y-102193090D01*
X148509990Y-102193090D01*
X148357590Y-102231190D01*
X148281390Y-102269290D01*
X148205190Y-102345490D01*
X148167090Y-102459790D01*
X148167090Y-102535990D01*
X148205190Y-102650290D01*
X148243290Y-102688390D01*
X148433790Y-103374190D02*
X148967190Y-103374190D01*
X148128990Y-103183690D02*
X148700490Y-102993190D01*
X148700490Y-103488490D01*
X148967190Y-104212390D02*
X148967190Y-103755190D01*
X148967190Y-103983790D02*
X148167090Y-103983790D01*
X148281390Y-103907590D01*
X148357590Y-103831390D01*
X148395690Y-103755190D01*
%TO.C,C1*%
X132083810Y-98370390D02*
X132121910Y-98332290D01*
X132160010Y-98217990D01*
X132160010Y-98141790D01*
X132121910Y-98027490D01*
X132045710Y-97951290D01*
X131969510Y-97913190D01*
X131817110Y-97875090D01*
X131702810Y-97875090D01*
X131550410Y-97913190D01*
X131474210Y-97951290D01*
X131398010Y-98027490D01*
X131359910Y-98141790D01*
X131359910Y-98217990D01*
X131398010Y-98332290D01*
X131436110Y-98370390D01*
X132160010Y-99132390D02*
X132160010Y-98675190D01*
X132160010Y-98903790D02*
X131359910Y-98903790D01*
X131474210Y-98827590D01*
X131550410Y-98751390D01*
X131588510Y-98675190D01*
%TO.C,C2*%
X135825230Y-88769190D02*
X135863330Y-88731090D01*
X135901430Y-88616790D01*
X135901430Y-88540590D01*
X135863330Y-88426290D01*
X135787130Y-88350090D01*
X135710930Y-88311990D01*
X135558530Y-88273890D01*
X135444230Y-88273890D01*
X135291830Y-88311990D01*
X135215630Y-88350090D01*
X135139430Y-88426290D01*
X135101330Y-88540590D01*
X135101330Y-88616790D01*
X135139430Y-88731090D01*
X135177530Y-88769190D01*
X135177530Y-89073990D02*
X135139430Y-89112090D01*
X135101330Y-89188290D01*
X135101330Y-89378790D01*
X135139430Y-89454990D01*
X135177530Y-89493090D01*
X135253730Y-89531190D01*
X135329930Y-89531190D01*
X135444230Y-89493090D01*
X135901430Y-89035890D01*
X135901430Y-89531190D01*
%TO.C,C3*%
X144534890Y-88695530D02*
X144572990Y-88733630D01*
X144687290Y-88771730D01*
X144763490Y-88771730D01*
X144877790Y-88733630D01*
X144953990Y-88657430D01*
X144992090Y-88581230D01*
X145030190Y-88428830D01*
X145030190Y-88314530D01*
X144992090Y-88162130D01*
X144953990Y-88085930D01*
X144877790Y-88009730D01*
X144763490Y-87971630D01*
X144687290Y-87971630D01*
X144572990Y-88009730D01*
X144534890Y-88047830D01*
X144268190Y-87971630D02*
X143772890Y-87971630D01*
X144039590Y-88276430D01*
X143925290Y-88276430D01*
X143849090Y-88314530D01*
X143810990Y-88352630D01*
X143772890Y-88428830D01*
X143772890Y-88619330D01*
X143810990Y-88695530D01*
X143849090Y-88733630D01*
X143925290Y-88771730D01*
X144153890Y-88771730D01*
X144230090Y-88733630D01*
X144268190Y-88695530D01*
%TO.C,C4*%
X146386550Y-102269290D02*
X146424650Y-102231190D01*
X146462750Y-102116890D01*
X146462750Y-102040690D01*
X146424650Y-101926390D01*
X146348450Y-101850190D01*
X146272250Y-101812090D01*
X146119850Y-101773990D01*
X146005550Y-101773990D01*
X145853150Y-101812090D01*
X145776950Y-101850190D01*
X145700750Y-101926390D01*
X145662650Y-102040690D01*
X145662650Y-102116890D01*
X145700750Y-102231190D01*
X145738850Y-102269290D01*
X145929350Y-102955090D02*
X146462750Y-102955090D01*
X145624550Y-102764590D02*
X146196050Y-102574090D01*
X146196050Y-103069390D01*
%TO.C,C5*%
X135131810Y-104387650D02*
X135169910Y-104425750D01*
X135284210Y-104463850D01*
X135360410Y-104463850D01*
X135474710Y-104425750D01*
X135550910Y-104349550D01*
X135589010Y-104273350D01*
X135627110Y-104120950D01*
X135627110Y-104006650D01*
X135589010Y-103854250D01*
X135550910Y-103778050D01*
X135474710Y-103701850D01*
X135360410Y-103663750D01*
X135284210Y-103663750D01*
X135169910Y-103701850D01*
X135131810Y-103739950D01*
X134407910Y-103663750D02*
X134788910Y-103663750D01*
X134827010Y-104044750D01*
X134788910Y-104006650D01*
X134712710Y-103968550D01*
X134522210Y-103968550D01*
X134446010Y-104006650D01*
X134407910Y-104044750D01*
X134369810Y-104120950D01*
X134369810Y-104311450D01*
X134407910Y-104387650D01*
X134446010Y-104425750D01*
X134522210Y-104463850D01*
X134712710Y-104463850D01*
X134788910Y-104425750D01*
X134827010Y-104387650D01*
%TO.C,C6*%
X133833870Y-96089470D02*
X133871970Y-96127570D01*
X133986270Y-96165670D01*
X134062470Y-96165670D01*
X134176770Y-96127570D01*
X134252970Y-96051370D01*
X134291070Y-95975170D01*
X134329170Y-95822770D01*
X134329170Y-95708470D01*
X134291070Y-95556070D01*
X134252970Y-95479870D01*
X134176770Y-95403670D01*
X134062470Y-95365570D01*
X133986270Y-95365570D01*
X133871970Y-95403670D01*
X133833870Y-95441770D01*
X133148070Y-95365570D02*
X133300470Y-95365570D01*
X133376670Y-95403670D01*
X133414770Y-95441770D01*
X133490970Y-95556070D01*
X133529070Y-95708470D01*
X133529070Y-96013270D01*
X133490970Y-96089470D01*
X133452870Y-96127570D01*
X133376670Y-96165670D01*
X133224270Y-96165670D01*
X133148070Y-96127570D01*
X133109970Y-96089470D01*
X133071870Y-96013270D01*
X133071870Y-95822770D01*
X133109970Y-95746570D01*
X133148070Y-95708470D01*
X133224270Y-95670370D01*
X133376670Y-95670370D01*
X133452870Y-95708470D01*
X133490970Y-95746570D01*
X133529070Y-95822770D01*
%TO.C,C7*%
X144532350Y-91890850D02*
X144570450Y-91928950D01*
X144684750Y-91967050D01*
X144760950Y-91967050D01*
X144875250Y-91928950D01*
X144951450Y-91852750D01*
X144989550Y-91776550D01*
X145027650Y-91624150D01*
X145027650Y-91509850D01*
X144989550Y-91357450D01*
X144951450Y-91281250D01*
X144875250Y-91205050D01*
X144760950Y-91166950D01*
X144684750Y-91166950D01*
X144570450Y-91205050D01*
X144532350Y-91243150D01*
X144265650Y-91166950D02*
X143732250Y-91166950D01*
X144075150Y-91967050D01*
%TO.C,C8*%
X144532350Y-90392250D02*
X144570450Y-90430350D01*
X144684750Y-90468450D01*
X144760950Y-90468450D01*
X144875250Y-90430350D01*
X144951450Y-90354150D01*
X144989550Y-90277950D01*
X145027650Y-90125550D01*
X145027650Y-90011250D01*
X144989550Y-89858850D01*
X144951450Y-89782650D01*
X144875250Y-89706450D01*
X144760950Y-89668350D01*
X144684750Y-89668350D01*
X144570450Y-89706450D01*
X144532350Y-89744550D01*
X144075150Y-90011250D02*
X144151350Y-89973150D01*
X144189450Y-89935050D01*
X144227550Y-89858850D01*
X144227550Y-89820750D01*
X144189450Y-89744550D01*
X144151350Y-89706450D01*
X144075150Y-89668350D01*
X143922750Y-89668350D01*
X143846550Y-89706450D01*
X143808450Y-89744550D01*
X143770350Y-89820750D01*
X143770350Y-89858850D01*
X143808450Y-89935050D01*
X143846550Y-89973150D01*
X143922750Y-90011250D01*
X144075150Y-90011250D01*
X144151350Y-90049350D01*
X144189450Y-90087450D01*
X144227550Y-90163650D01*
X144227550Y-90316050D01*
X144189450Y-90392250D01*
X144151350Y-90430350D01*
X144075150Y-90468450D01*
X143922750Y-90468450D01*
X143846550Y-90430350D01*
X143808450Y-90392250D01*
X143770350Y-90316050D01*
X143770350Y-90163650D01*
X143808450Y-90087450D01*
X143846550Y-90049350D01*
X143922750Y-90011250D01*
%TO.C,C14*%
X137013950Y-115187730D02*
X137052050Y-115225830D01*
X137166350Y-115263930D01*
X137242550Y-115263930D01*
X137356850Y-115225830D01*
X137433050Y-115149630D01*
X137471150Y-115073430D01*
X137509250Y-114921030D01*
X137509250Y-114806730D01*
X137471150Y-114654330D01*
X137433050Y-114578130D01*
X137356850Y-114501930D01*
X137242550Y-114463830D01*
X137166350Y-114463830D01*
X137052050Y-114501930D01*
X137013950Y-114540030D01*
X136251950Y-115263930D02*
X136709150Y-115263930D01*
X136480550Y-115263930D02*
X136480550Y-114463830D01*
X136556750Y-114578130D01*
X136632950Y-114654330D01*
X136709150Y-114692430D01*
X135566150Y-114730530D02*
X135566150Y-115263930D01*
X135756650Y-114425730D02*
X135947150Y-114997230D01*
X135451850Y-114997230D01*
%TO.C,R19*%
X148004530Y-92454730D02*
X148271230Y-92073730D01*
X148461730Y-92454730D02*
X148461730Y-91654630D01*
X148156930Y-91654630D01*
X148080730Y-91692730D01*
X148042630Y-91730830D01*
X148004530Y-91807030D01*
X148004530Y-91921330D01*
X148042630Y-91997530D01*
X148080730Y-92035630D01*
X148156930Y-92073730D01*
X148461730Y-92073730D01*
X147242530Y-92454730D02*
X147699730Y-92454730D01*
X147471130Y-92454730D02*
X147471130Y-91654630D01*
X147547330Y-91768930D01*
X147623530Y-91845130D01*
X147699730Y-91883230D01*
X146861530Y-92454730D02*
X146709130Y-92454730D01*
X146632930Y-92416630D01*
X146594830Y-92378530D01*
X146518630Y-92264230D01*
X146480530Y-92111830D01*
X146480530Y-91807030D01*
X146518630Y-91730830D01*
X146556730Y-91692730D01*
X146632930Y-91654630D01*
X146785330Y-91654630D01*
X146861530Y-91692730D01*
X146899630Y-91730830D01*
X146937730Y-91807030D01*
X146937730Y-91997530D01*
X146899630Y-92073730D01*
X146861530Y-92111830D01*
X146785330Y-92149930D01*
X146632930Y-92149930D01*
X146556730Y-92111830D01*
X146518630Y-92073730D01*
X146480530Y-91997530D01*
%TO.C,R18*%
X147514310Y-88964770D02*
X147781010Y-88583770D01*
X147971510Y-88964770D02*
X147971510Y-88164670D01*
X147666710Y-88164670D01*
X147590510Y-88202770D01*
X147552410Y-88240870D01*
X147514310Y-88317070D01*
X147514310Y-88431370D01*
X147552410Y-88507570D01*
X147590510Y-88545670D01*
X147666710Y-88583770D01*
X147971510Y-88583770D01*
X146752310Y-88964770D02*
X147209510Y-88964770D01*
X146980910Y-88964770D02*
X146980910Y-88164670D01*
X147057110Y-88278970D01*
X147133310Y-88355170D01*
X147209510Y-88393270D01*
X146295110Y-88507570D02*
X146371310Y-88469470D01*
X146409410Y-88431370D01*
X146447510Y-88355170D01*
X146447510Y-88317070D01*
X146409410Y-88240870D01*
X146371310Y-88202770D01*
X146295110Y-88164670D01*
X146142710Y-88164670D01*
X146066510Y-88202770D01*
X146028410Y-88240870D01*
X145990310Y-88317070D01*
X145990310Y-88355170D01*
X146028410Y-88431370D01*
X146066510Y-88469470D01*
X146142710Y-88507570D01*
X146295110Y-88507570D01*
X146371310Y-88545670D01*
X146409410Y-88583770D01*
X146447510Y-88659970D01*
X146447510Y-88812370D01*
X146409410Y-88888570D01*
X146371310Y-88926670D01*
X146295110Y-88964770D01*
X146142710Y-88964770D01*
X146066510Y-88926670D01*
X146028410Y-88888570D01*
X145990310Y-88812370D01*
X145990310Y-88659970D01*
X146028410Y-88583770D01*
X146066510Y-88545670D01*
X146142710Y-88507570D01*
%TO.C,R17*%
X149713950Y-93966030D02*
X149980650Y-93585030D01*
X150171150Y-93966030D02*
X150171150Y-93165930D01*
X149866350Y-93165930D01*
X149790150Y-93204030D01*
X149752050Y-93242130D01*
X149713950Y-93318330D01*
X149713950Y-93432630D01*
X149752050Y-93508830D01*
X149790150Y-93546930D01*
X149866350Y-93585030D01*
X150171150Y-93585030D01*
X148951950Y-93966030D02*
X149409150Y-93966030D01*
X149180550Y-93966030D02*
X149180550Y-93165930D01*
X149256750Y-93280230D01*
X149332950Y-93356430D01*
X149409150Y-93394530D01*
X148685250Y-93165930D02*
X148151850Y-93165930D01*
X148494750Y-93966030D01*
%TO.C,R16*%
X153513790Y-90864690D02*
X153780490Y-90483690D01*
X153970990Y-90864690D02*
X153970990Y-90064590D01*
X153666190Y-90064590D01*
X153589990Y-90102690D01*
X153551890Y-90140790D01*
X153513790Y-90216990D01*
X153513790Y-90331290D01*
X153551890Y-90407490D01*
X153589990Y-90445590D01*
X153666190Y-90483690D01*
X153970990Y-90483690D01*
X152751790Y-90864690D02*
X153208990Y-90864690D01*
X152980390Y-90864690D02*
X152980390Y-90064590D01*
X153056590Y-90178890D01*
X153132790Y-90255090D01*
X153208990Y-90293190D01*
X152065990Y-90064590D02*
X152218390Y-90064590D01*
X152294590Y-90102690D01*
X152332690Y-90140790D01*
X152408890Y-90255090D01*
X152446990Y-90407490D01*
X152446990Y-90712290D01*
X152408890Y-90788490D01*
X152370790Y-90826590D01*
X152294590Y-90864690D01*
X152142190Y-90864690D01*
X152065990Y-90826590D01*
X152027890Y-90788490D01*
X151989790Y-90712290D01*
X151989790Y-90521790D01*
X152027890Y-90445590D01*
X152065990Y-90407490D01*
X152142190Y-90369390D01*
X152294590Y-90369390D01*
X152370790Y-90407490D01*
X152408890Y-90445590D01*
X152446990Y-90521790D01*
%TO.C,R20*%
X149962870Y-110989110D02*
X149581870Y-110722410D01*
X149962870Y-110531910D02*
X149162770Y-110531910D01*
X149162770Y-110836710D01*
X149200870Y-110912910D01*
X149238970Y-110951010D01*
X149315170Y-110989110D01*
X149429470Y-110989110D01*
X149505670Y-110951010D01*
X149543770Y-110912910D01*
X149581870Y-110836710D01*
X149581870Y-110531910D01*
X149238970Y-111293910D02*
X149200870Y-111332010D01*
X149162770Y-111408210D01*
X149162770Y-111598710D01*
X149200870Y-111674910D01*
X149238970Y-111713010D01*
X149315170Y-111751110D01*
X149391370Y-111751110D01*
X149505670Y-111713010D01*
X149962870Y-111255810D01*
X149962870Y-111751110D01*
X149162770Y-112246410D02*
X149162770Y-112322610D01*
X149200870Y-112398810D01*
X149238970Y-112436910D01*
X149315170Y-112475010D01*
X149467570Y-112513110D01*
X149658070Y-112513110D01*
X149810470Y-112475010D01*
X149886670Y-112436910D01*
X149924770Y-112398810D01*
X149962870Y-112322610D01*
X149962870Y-112246410D01*
X149924770Y-112170210D01*
X149886670Y-112132110D01*
X149810470Y-112094010D01*
X149658070Y-112055910D01*
X149467570Y-112055910D01*
X149315170Y-112094010D01*
X149238970Y-112132110D01*
X149200870Y-112170210D01*
X149162770Y-112246410D01*
%TO.C,R21*%
X148461730Y-108588810D02*
X148080730Y-108322110D01*
X148461730Y-108131610D02*
X147661630Y-108131610D01*
X147661630Y-108436410D01*
X147699730Y-108512610D01*
X147737830Y-108550710D01*
X147814030Y-108588810D01*
X147928330Y-108588810D01*
X148004530Y-108550710D01*
X148042630Y-108512610D01*
X148080730Y-108436410D01*
X148080730Y-108131610D01*
X147737830Y-108893610D02*
X147699730Y-108931710D01*
X147661630Y-109007910D01*
X147661630Y-109198410D01*
X147699730Y-109274610D01*
X147737830Y-109312710D01*
X147814030Y-109350810D01*
X147890230Y-109350810D01*
X148004530Y-109312710D01*
X148461730Y-108855510D01*
X148461730Y-109350810D01*
X148461730Y-110112810D02*
X148461730Y-109655610D01*
X148461730Y-109884210D02*
X147661630Y-109884210D01*
X147775930Y-109808010D01*
X147852130Y-109731810D01*
X147890230Y-109655610D01*
%TO.C,R23*%
X149962870Y-108489750D02*
X149581870Y-108223050D01*
X149962870Y-108032550D02*
X149162770Y-108032550D01*
X149162770Y-108337350D01*
X149200870Y-108413550D01*
X149238970Y-108451650D01*
X149315170Y-108489750D01*
X149429470Y-108489750D01*
X149505670Y-108451650D01*
X149543770Y-108413550D01*
X149581870Y-108337350D01*
X149581870Y-108032550D01*
X149238970Y-108794550D02*
X149200870Y-108832650D01*
X149162770Y-108908850D01*
X149162770Y-109099350D01*
X149200870Y-109175550D01*
X149238970Y-109213650D01*
X149315170Y-109251750D01*
X149391370Y-109251750D01*
X149505670Y-109213650D01*
X149962870Y-108756450D01*
X149962870Y-109251750D01*
X149162770Y-109518450D02*
X149162770Y-110013750D01*
X149467570Y-109747050D01*
X149467570Y-109861350D01*
X149505670Y-109937550D01*
X149543770Y-109975650D01*
X149619970Y-110013750D01*
X149810470Y-110013750D01*
X149886670Y-109975650D01*
X149924770Y-109937550D01*
X149962870Y-109861350D01*
X149962870Y-109632750D01*
X149924770Y-109556550D01*
X149886670Y-109518450D01*
%TO.C,R28*%
X148461730Y-110989110D02*
X148080730Y-110722410D01*
X148461730Y-110531910D02*
X147661630Y-110531910D01*
X147661630Y-110836710D01*
X147699730Y-110912910D01*
X147737830Y-110951010D01*
X147814030Y-110989110D01*
X147928330Y-110989110D01*
X148004530Y-110951010D01*
X148042630Y-110912910D01*
X148080730Y-110836710D01*
X148080730Y-110531910D01*
X147737830Y-111293910D02*
X147699730Y-111332010D01*
X147661630Y-111408210D01*
X147661630Y-111598710D01*
X147699730Y-111674910D01*
X147737830Y-111713010D01*
X147814030Y-111751110D01*
X147890230Y-111751110D01*
X148004530Y-111713010D01*
X148461730Y-111255810D01*
X148461730Y-111751110D01*
X148004530Y-112208310D02*
X147966430Y-112132110D01*
X147928330Y-112094010D01*
X147852130Y-112055910D01*
X147814030Y-112055910D01*
X147737830Y-112094010D01*
X147699730Y-112132110D01*
X147661630Y-112208310D01*
X147661630Y-112360710D01*
X147699730Y-112436910D01*
X147737830Y-112475010D01*
X147814030Y-112513110D01*
X147852130Y-112513110D01*
X147928330Y-112475010D01*
X147966430Y-112436910D01*
X148004530Y-112360710D01*
X148004530Y-112208310D01*
X148042630Y-112132110D01*
X148080730Y-112094010D01*
X148156930Y-112055910D01*
X148309330Y-112055910D01*
X148385530Y-112094010D01*
X148423630Y-112132110D01*
X148461730Y-112208310D01*
X148461730Y-112360710D01*
X148423630Y-112436910D01*
X148385530Y-112475010D01*
X148309330Y-112513110D01*
X148156930Y-112513110D01*
X148080730Y-112475010D01*
X148042630Y-112436910D01*
X148004530Y-112360710D01*
%TO.C,R7*%
X133833870Y-99465130D02*
X134100570Y-99084130D01*
X134291070Y-99465130D02*
X134291070Y-98665030D01*
X133986270Y-98665030D01*
X133910070Y-98703130D01*
X133871970Y-98741230D01*
X133833870Y-98817430D01*
X133833870Y-98931730D01*
X133871970Y-99007930D01*
X133910070Y-99046030D01*
X133986270Y-99084130D01*
X134291070Y-99084130D01*
X133567170Y-98665030D02*
X133033770Y-98665030D01*
X133376670Y-99465130D01*
%TO.C,R29*%
X150514050Y-107466130D02*
X150780750Y-107085130D01*
X150971250Y-107466130D02*
X150971250Y-106666030D01*
X150666450Y-106666030D01*
X150590250Y-106704130D01*
X150552150Y-106742230D01*
X150514050Y-106818430D01*
X150514050Y-106932730D01*
X150552150Y-107008930D01*
X150590250Y-107047030D01*
X150666450Y-107085130D01*
X150971250Y-107085130D01*
X150209250Y-106742230D02*
X150171150Y-106704130D01*
X150094950Y-106666030D01*
X149904450Y-106666030D01*
X149828250Y-106704130D01*
X149790150Y-106742230D01*
X149752050Y-106818430D01*
X149752050Y-106894630D01*
X149790150Y-107008930D01*
X150247350Y-107466130D01*
X149752050Y-107466130D01*
X149371050Y-107466130D02*
X149218650Y-107466130D01*
X149142450Y-107428030D01*
X149104350Y-107389930D01*
X149028150Y-107275630D01*
X148990050Y-107123230D01*
X148990050Y-106818430D01*
X149028150Y-106742230D01*
X149066250Y-106704130D01*
X149142450Y-106666030D01*
X149294850Y-106666030D01*
X149371050Y-106704130D01*
X149409150Y-106742230D01*
X149447250Y-106818430D01*
X149447250Y-107008930D01*
X149409150Y-107085130D01*
X149371050Y-107123230D01*
X149294850Y-107161330D01*
X149142450Y-107161330D01*
X149066250Y-107123230D01*
X149028150Y-107085130D01*
X148990050Y-107008930D01*
%TO.C,R30*%
X151113490Y-101664770D02*
X151380190Y-101283770D01*
X151570690Y-101664770D02*
X151570690Y-100864670D01*
X151265890Y-100864670D01*
X151189690Y-100902770D01*
X151151590Y-100940870D01*
X151113490Y-101017070D01*
X151113490Y-101131370D01*
X151151590Y-101207570D01*
X151189690Y-101245670D01*
X151265890Y-101283770D01*
X151570690Y-101283770D01*
X150846790Y-100864670D02*
X150351490Y-100864670D01*
X150618190Y-101169470D01*
X150503890Y-101169470D01*
X150427690Y-101207570D01*
X150389590Y-101245670D01*
X150351490Y-101321870D01*
X150351490Y-101512370D01*
X150389590Y-101588570D01*
X150427690Y-101626670D01*
X150503890Y-101664770D01*
X150732490Y-101664770D01*
X150808690Y-101626670D01*
X150846790Y-101588570D01*
X149856190Y-100864670D02*
X149779990Y-100864670D01*
X149703790Y-100902770D01*
X149665690Y-100940870D01*
X149627590Y-101017070D01*
X149589490Y-101169470D01*
X149589490Y-101359970D01*
X149627590Y-101512370D01*
X149665690Y-101588570D01*
X149703790Y-101626670D01*
X149779990Y-101664770D01*
X149856190Y-101664770D01*
X149932390Y-101626670D01*
X149970490Y-101588570D01*
X150008590Y-101512370D01*
X150046690Y-101359970D01*
X150046690Y-101169470D01*
X150008590Y-101017070D01*
X149970490Y-100940870D01*
X149932390Y-100902770D01*
X149856190Y-100864670D01*
%TO.C,U1*%
X140558520Y-98416110D02*
X140558520Y-99063810D01*
X140520420Y-99140010D01*
X140482320Y-99178110D01*
X140406120Y-99216210D01*
X140253720Y-99216210D01*
X140177520Y-99178110D01*
X140139420Y-99140010D01*
X140101320Y-99063810D01*
X140101320Y-98416110D01*
X139301220Y-99216210D02*
X139758420Y-99216210D01*
X139529820Y-99216210D02*
X139529820Y-98416110D01*
X139606020Y-98530410D01*
X139682220Y-98606610D01*
X139758420Y-98644710D01*
%TO.C,P4*%
X146190970Y-113960910D02*
X146190970Y-113160810D01*
X145886170Y-113160810D01*
X145809970Y-113198910D01*
X145771870Y-113237010D01*
X145733770Y-113313210D01*
X145733770Y-113427510D01*
X145771870Y-113503710D01*
X145809970Y-113541810D01*
X145886170Y-113579910D01*
X146190970Y-113579910D01*
X145047970Y-113427510D02*
X145047970Y-113960910D01*
X145238470Y-113122710D02*
X145428970Y-113694210D01*
X144933670Y-113694210D01*
%TO.C,P3*%
X146140170Y-110912910D02*
X146140170Y-110112810D01*
X145835370Y-110112810D01*
X145759170Y-110150910D01*
X145721070Y-110189010D01*
X145682970Y-110265210D01*
X145682970Y-110379510D01*
X145721070Y-110455710D01*
X145759170Y-110493810D01*
X145835370Y-110531910D01*
X146140170Y-110531910D01*
X145416270Y-110112810D02*
X144920970Y-110112810D01*
X145187670Y-110417610D01*
X145073370Y-110417610D01*
X144997170Y-110455710D01*
X144959070Y-110493810D01*
X144920970Y-110570010D01*
X144920970Y-110760510D01*
X144959070Y-110836710D01*
X144997170Y-110874810D01*
X145073370Y-110912910D01*
X145301970Y-110912910D01*
X145378170Y-110874810D01*
X145416270Y-110836710D01*
%TO.C,P2*%
X146140170Y-107913170D02*
X146140170Y-107113070D01*
X145835370Y-107113070D01*
X145759170Y-107151170D01*
X145721070Y-107189270D01*
X145682970Y-107265470D01*
X145682970Y-107379770D01*
X145721070Y-107455970D01*
X145759170Y-107494070D01*
X145835370Y-107532170D01*
X146140170Y-107532170D01*
X145378170Y-107189270D02*
X145340070Y-107151170D01*
X145263870Y-107113070D01*
X145073370Y-107113070D01*
X144997170Y-107151170D01*
X144959070Y-107189270D01*
X144920970Y-107265470D01*
X144920970Y-107341670D01*
X144959070Y-107455970D01*
X145416270Y-107913170D01*
X144920970Y-107913170D01*
%TO.C,P1*%
X146140170Y-104910890D02*
X146140170Y-104110790D01*
X145835370Y-104110790D01*
X145759170Y-104148890D01*
X145721070Y-104186990D01*
X145682970Y-104263190D01*
X145682970Y-104377490D01*
X145721070Y-104453690D01*
X145759170Y-104491790D01*
X145835370Y-104529890D01*
X146140170Y-104529890D01*
X144920970Y-104910890D02*
X145378170Y-104910890D01*
X145149570Y-104910890D02*
X145149570Y-104110790D01*
X145225770Y-104225090D01*
X145301970Y-104301290D01*
X145378170Y-104339390D01*
%TO.C,R32*%
X150359110Y-102688390D02*
X149978110Y-102421690D01*
X150359110Y-102231190D02*
X149559010Y-102231190D01*
X149559010Y-102535990D01*
X149597110Y-102612190D01*
X149635210Y-102650290D01*
X149711410Y-102688390D01*
X149825710Y-102688390D01*
X149901910Y-102650290D01*
X149940010Y-102612190D01*
X149978110Y-102535990D01*
X149978110Y-102231190D01*
X149559010Y-102955090D02*
X149559010Y-103450390D01*
X149863810Y-103183690D01*
X149863810Y-103297990D01*
X149901910Y-103374190D01*
X149940010Y-103412290D01*
X150016210Y-103450390D01*
X150206710Y-103450390D01*
X150282910Y-103412290D01*
X150321010Y-103374190D01*
X150359110Y-103297990D01*
X150359110Y-103069390D01*
X150321010Y-102993190D01*
X150282910Y-102955090D01*
X149635210Y-103755190D02*
X149597110Y-103793290D01*
X149559010Y-103869490D01*
X149559010Y-104059990D01*
X149597110Y-104136190D01*
X149635210Y-104174290D01*
X149711410Y-104212390D01*
X149787610Y-104212390D01*
X149901910Y-104174290D01*
X150359110Y-103717090D01*
X150359110Y-104212390D01*
%TO.C,U6*%
X131899660Y-90745310D02*
X131899660Y-91393010D01*
X131861560Y-91469210D01*
X131823460Y-91507310D01*
X131747260Y-91545410D01*
X131594860Y-91545410D01*
X131518660Y-91507310D01*
X131480560Y-91469210D01*
X131442460Y-91393010D01*
X131442460Y-90745310D01*
X130718560Y-90745310D02*
X130870960Y-90745310D01*
X130947160Y-90783410D01*
X130985260Y-90821510D01*
X131061460Y-90935810D01*
X131099560Y-91088210D01*
X131099560Y-91393010D01*
X131061460Y-91469210D01*
X131023360Y-91507310D01*
X130947160Y-91545410D01*
X130794760Y-91545410D01*
X130718560Y-91507310D01*
X130680460Y-91469210D01*
X130642360Y-91393010D01*
X130642360Y-91202510D01*
X130680460Y-91126310D01*
X130718560Y-91088210D01*
X130794760Y-91050110D01*
X130947160Y-91050110D01*
X131023360Y-91088210D01*
X131061460Y-91126310D01*
X131099560Y-91202510D01*
%TO.C,P7*%
X130140710Y-87811610D02*
X130140710Y-87011510D01*
X129835910Y-87011510D01*
X129759710Y-87049610D01*
X129721610Y-87087710D01*
X129683510Y-87163910D01*
X129683510Y-87278210D01*
X129721610Y-87354410D01*
X129759710Y-87392510D01*
X129835910Y-87430610D01*
X130140710Y-87430610D01*
X129416810Y-87011510D02*
X128883410Y-87011510D01*
X129226310Y-87811610D01*
%TO.C,R33*%
X153762710Y-92088970D02*
X153381710Y-91822270D01*
X153762710Y-91631770D02*
X152962610Y-91631770D01*
X152962610Y-91936570D01*
X153000710Y-92012770D01*
X153038810Y-92050870D01*
X153115010Y-92088970D01*
X153229310Y-92088970D01*
X153305510Y-92050870D01*
X153343610Y-92012770D01*
X153381710Y-91936570D01*
X153381710Y-91631770D01*
X152962610Y-92355670D02*
X152962610Y-92850970D01*
X153267410Y-92584270D01*
X153267410Y-92698570D01*
X153305510Y-92774770D01*
X153343610Y-92812870D01*
X153419810Y-92850970D01*
X153610310Y-92850970D01*
X153686510Y-92812870D01*
X153724610Y-92774770D01*
X153762710Y-92698570D01*
X153762710Y-92469970D01*
X153724610Y-92393770D01*
X153686510Y-92355670D01*
X152962610Y-93117670D02*
X152962610Y-93612970D01*
X153267410Y-93346270D01*
X153267410Y-93460570D01*
X153305510Y-93536770D01*
X153343610Y-93574870D01*
X153419810Y-93612970D01*
X153610310Y-93612970D01*
X153686510Y-93574870D01*
X153724610Y-93536770D01*
X153762710Y-93460570D01*
X153762710Y-93231970D01*
X153724610Y-93155770D01*
X153686510Y-93117670D01*
%TO.C,P9*%
X153490930Y-105812590D02*
X153490930Y-105012490D01*
X153186130Y-105012490D01*
X153109930Y-105050590D01*
X153071830Y-105088690D01*
X153033730Y-105164890D01*
X153033730Y-105279190D01*
X153071830Y-105355390D01*
X153109930Y-105393490D01*
X153186130Y-105431590D01*
X153490930Y-105431590D01*
X152652730Y-105812590D02*
X152500330Y-105812590D01*
X152424130Y-105774490D01*
X152386030Y-105736390D01*
X152309830Y-105622090D01*
X152271730Y-105469690D01*
X152271730Y-105164890D01*
X152309830Y-105088690D01*
X152347930Y-105050590D01*
X152424130Y-105012490D01*
X152576530Y-105012490D01*
X152652730Y-105050590D01*
X152690830Y-105088690D01*
X152728930Y-105164890D01*
X152728930Y-105355390D01*
X152690830Y-105431590D01*
X152652730Y-105469690D01*
X152576530Y-105507790D01*
X152424130Y-105507790D01*
X152347930Y-105469690D01*
X152309830Y-105431590D01*
X152271730Y-105355390D01*
%TO.C,Q5*%
X152925780Y-104087930D02*
X153001980Y-104049830D01*
X153078180Y-103973630D01*
X153192480Y-103859330D01*
X153268680Y-103821230D01*
X153344880Y-103821230D01*
X153306780Y-104011730D02*
X153382980Y-103973630D01*
X153459180Y-103897430D01*
X153497280Y-103745030D01*
X153497280Y-103478330D01*
X153459180Y-103325930D01*
X153382980Y-103249730D01*
X153306780Y-103211630D01*
X153154380Y-103211630D01*
X153078180Y-103249730D01*
X153001980Y-103325930D01*
X152963880Y-103478330D01*
X152963880Y-103745030D01*
X153001980Y-103897430D01*
X153078180Y-103973630D01*
X153154380Y-104011730D01*
X153306780Y-104011730D01*
X152239980Y-103211630D02*
X152620980Y-103211630D01*
X152659080Y-103592630D01*
X152620980Y-103554530D01*
X152544780Y-103516430D01*
X152354280Y-103516430D01*
X152278080Y-103554530D01*
X152239980Y-103592630D01*
X152201880Y-103668830D01*
X152201880Y-103859330D01*
X152239980Y-103935530D01*
X152278080Y-103973630D01*
X152354280Y-104011730D01*
X152544780Y-104011730D01*
X152620980Y-103973630D01*
X152659080Y-103935530D01*
%TO.C,Q6*%
X151588470Y-94523560D02*
X151550370Y-94447360D01*
X151474170Y-94371160D01*
X151359870Y-94256860D01*
X151321770Y-94180660D01*
X151321770Y-94104460D01*
X151512270Y-94142560D02*
X151474170Y-94066360D01*
X151397970Y-93990160D01*
X151245570Y-93952060D01*
X150978870Y-93952060D01*
X150826470Y-93990160D01*
X150750270Y-94066360D01*
X150712170Y-94142560D01*
X150712170Y-94294960D01*
X150750270Y-94371160D01*
X150826470Y-94447360D01*
X150978870Y-94485460D01*
X151245570Y-94485460D01*
X151397970Y-94447360D01*
X151474170Y-94371160D01*
X151512270Y-94294960D01*
X151512270Y-94142560D01*
X150712170Y-95171260D02*
X150712170Y-95018860D01*
X150750270Y-94942660D01*
X150788370Y-94904560D01*
X150902670Y-94828360D01*
X151055070Y-94790260D01*
X151359870Y-94790260D01*
X151436070Y-94828360D01*
X151474170Y-94866460D01*
X151512270Y-94942660D01*
X151512270Y-95095060D01*
X151474170Y-95171260D01*
X151436070Y-95209360D01*
X151359870Y-95247460D01*
X151169370Y-95247460D01*
X151093170Y-95209360D01*
X151055070Y-95171260D01*
X151016970Y-95095060D01*
X151016970Y-94942660D01*
X151055070Y-94866460D01*
X151093170Y-94828360D01*
X151169370Y-94790260D01*
%TO.C,D8*%
X157073937Y-117238561D02*
X156508181Y-116672805D01*
X156373477Y-116807509D01*
X156319595Y-116915272D01*
X156319595Y-117023035D01*
X156346536Y-117103857D01*
X156427358Y-117238561D01*
X156508181Y-117319383D01*
X156642884Y-117400206D01*
X156723707Y-117427146D01*
X156831470Y-117427146D01*
X156939233Y-117373265D01*
X157073937Y-117238561D01*
X156104069Y-117561850D02*
X156131010Y-117481028D01*
X156131010Y-117427146D01*
X156104069Y-117346324D01*
X156077128Y-117319383D01*
X155996306Y-117292442D01*
X155942424Y-117292442D01*
X155861602Y-117319383D01*
X155753839Y-117427146D01*
X155726898Y-117507969D01*
X155726898Y-117561850D01*
X155753839Y-117642672D01*
X155780780Y-117669613D01*
X155861602Y-117696554D01*
X155915484Y-117696554D01*
X155996306Y-117669613D01*
X156104069Y-117561850D01*
X156184891Y-117534909D01*
X156238773Y-117534909D01*
X156319595Y-117561850D01*
X156427358Y-117669613D01*
X156454299Y-117750435D01*
X156454299Y-117804317D01*
X156427358Y-117885139D01*
X156319595Y-117992902D01*
X156238773Y-118019843D01*
X156184891Y-118019843D01*
X156104069Y-117992902D01*
X155996306Y-117885139D01*
X155969365Y-117804317D01*
X155969365Y-117750435D01*
X155996306Y-117669613D01*
%TO.C,R38*%
X155662630Y-113488470D02*
X155281630Y-113221770D01*
X155662630Y-113031270D02*
X154862530Y-113031270D01*
X154862530Y-113336070D01*
X154900630Y-113412270D01*
X154938730Y-113450370D01*
X155014930Y-113488470D01*
X155129230Y-113488470D01*
X155205430Y-113450370D01*
X155243530Y-113412270D01*
X155281630Y-113336070D01*
X155281630Y-113031270D01*
X154862530Y-113755170D02*
X154862530Y-114250470D01*
X155167330Y-113983770D01*
X155167330Y-114098070D01*
X155205430Y-114174270D01*
X155243530Y-114212370D01*
X155319730Y-114250470D01*
X155510230Y-114250470D01*
X155586430Y-114212370D01*
X155624530Y-114174270D01*
X155662630Y-114098070D01*
X155662630Y-113869470D01*
X155624530Y-113793270D01*
X155586430Y-113755170D01*
X155205430Y-114707670D02*
X155167330Y-114631470D01*
X155129230Y-114593370D01*
X155053030Y-114555270D01*
X155014930Y-114555270D01*
X154938730Y-114593370D01*
X154900630Y-114631470D01*
X154862530Y-114707670D01*
X154862530Y-114860070D01*
X154900630Y-114936270D01*
X154938730Y-114974370D01*
X155014930Y-115012470D01*
X155053030Y-115012470D01*
X155129230Y-114974370D01*
X155167330Y-114936270D01*
X155205430Y-114860070D01*
X155205430Y-114707670D01*
X155243530Y-114631470D01*
X155281630Y-114593370D01*
X155357830Y-114555270D01*
X155510230Y-114555270D01*
X155586430Y-114593370D01*
X155624530Y-114631470D01*
X155662630Y-114707670D01*
X155662630Y-114860070D01*
X155624530Y-114936270D01*
X155586430Y-114974370D01*
X155510230Y-115012470D01*
X155357830Y-115012470D01*
X155281630Y-114974370D01*
X155243530Y-114936270D01*
X155205430Y-114860070D01*
D11*
%TO.C,U7*%
X148724620Y-88493600D02*
X148724620Y-89509600D01*
X148724620Y-89509600D02*
X151264620Y-89509600D01*
X151264620Y-89509600D02*
X151264620Y-88493600D01*
X150756620Y-89509600D02*
X151264620Y-89001600D01*
X151264620Y-88493600D02*
X148724620Y-88493600D01*
%TO.C,U9*%
X150728680Y-110512860D02*
X150728680Y-109496860D01*
X150728680Y-110004860D02*
X151236680Y-109496860D01*
X150728680Y-109496860D02*
X153268680Y-109496860D01*
X153268680Y-109496860D02*
X153268680Y-110512860D01*
X153268680Y-110512860D02*
X150728680Y-110512860D01*
D15*
%TO.C,D1*%
X144599660Y-105303320D02*
X146397980Y-105303320D01*
X146397980Y-105503980D02*
X146397980Y-105303320D01*
X145199100Y-105303320D02*
X145199100Y-106705400D01*
X146397980Y-106705400D02*
X146397980Y-106504740D01*
X144599660Y-105303320D02*
X144599660Y-105503980D01*
X146397980Y-106705400D02*
X144599660Y-106705400D01*
X144599660Y-106504740D02*
X144599660Y-106705400D01*
%TO.C,D2*%
X146397980Y-109705140D02*
X146397980Y-109504480D01*
X144599660Y-108303060D02*
X144599660Y-108503720D01*
X146397980Y-109705140D02*
X144599660Y-109705140D01*
X144599660Y-109504480D02*
X144599660Y-109705140D01*
X145199100Y-108303060D02*
X145199100Y-109705140D01*
X144599660Y-108303060D02*
X146397980Y-108303060D01*
X146397980Y-108503720D02*
X146397980Y-108303060D01*
%TO.C,D3*%
X144599660Y-111302800D02*
X146397980Y-111302800D01*
X145199100Y-111302800D02*
X145199100Y-112704880D01*
X146397980Y-112704880D02*
X144599660Y-112704880D01*
X146397980Y-111503460D02*
X146397980Y-111302800D01*
X146397980Y-112704880D02*
X146397980Y-112504220D01*
X144599660Y-111302800D02*
X144599660Y-111503460D01*
X144599660Y-112504220D02*
X144599660Y-112704880D01*
%TO.C,D4*%
X144599660Y-114302540D02*
X146397980Y-114302540D01*
X145199100Y-114302540D02*
X145199100Y-115704620D01*
X144599660Y-115503960D02*
X144599660Y-115704620D01*
X146397980Y-115704620D02*
X146397980Y-115503960D01*
X146397980Y-115704620D02*
X144599660Y-115704620D01*
X144599660Y-114302540D02*
X144599660Y-114503200D01*
X146397980Y-114503200D02*
X146397980Y-114302540D01*
%TO.C,C29*%
X154142440Y-88366600D02*
X151856440Y-88366600D01*
X151856440Y-88366600D02*
X151856440Y-89636600D01*
X154142440Y-89636600D02*
X154142440Y-88366600D01*
X151856440Y-89636600D02*
X154142440Y-89636600D01*
%TO.C,C30*%
X154142440Y-86868000D02*
X151856440Y-86868000D01*
X154142440Y-88138000D02*
X154142440Y-86868000D01*
X151856440Y-88138000D02*
X154142440Y-88138000D01*
X151856440Y-86868000D02*
X151856440Y-88138000D01*
%TO.C,C31*%
X151137620Y-91366340D02*
X148851620Y-91366340D01*
X151137620Y-92636340D02*
X151137620Y-91366340D01*
X148851620Y-91366340D02*
X148851620Y-92636340D01*
X148851620Y-92636340D02*
X151137620Y-92636340D01*
%TO.C,C32*%
X148142960Y-90637360D02*
X148142960Y-89367360D01*
X145856960Y-90637360D02*
X148142960Y-90637360D01*
X148142960Y-89367360D02*
X145856960Y-89367360D01*
X145856960Y-89367360D02*
X145856960Y-90637360D01*
%TO.C,C35*%
X152643840Y-114137440D02*
X152643840Y-112867440D01*
X150357840Y-114137440D02*
X152643840Y-114137440D01*
X150357840Y-112867440D02*
X150357840Y-114137440D01*
X152643840Y-112867440D02*
X150357840Y-112867440D01*
%TO.C,C36*%
X127657860Y-93837760D02*
X129943860Y-93837760D01*
X129943860Y-93837760D02*
X129943860Y-92567760D01*
X129943860Y-92567760D02*
X127657860Y-92567760D01*
X127657860Y-92567760D02*
X127657860Y-93837760D01*
%TO.C,C37*%
X148864320Y-112862360D02*
X148864320Y-115148360D01*
X150134320Y-115148360D02*
X150134320Y-112862360D01*
X150134320Y-112862360D02*
X148864320Y-112862360D01*
X148864320Y-115148360D02*
X150134320Y-115148360D01*
%TO.C,C38*%
X153642060Y-107640120D02*
X153642060Y-106370120D01*
X153642060Y-106370120D02*
X151356060Y-106370120D01*
X151356060Y-107640120D02*
X153642060Y-107640120D01*
X151356060Y-106370120D02*
X151356060Y-107640120D01*
%TO.C,C39*%
X150263860Y-98056700D02*
X150263860Y-100342700D01*
X150263860Y-100342700D02*
X151533860Y-100342700D01*
X151533860Y-98056700D02*
X150263860Y-98056700D01*
X151533860Y-100342700D02*
X151533860Y-98056700D01*
%TO.C,C40*%
X153195020Y-115145820D02*
X154465020Y-115145820D01*
X154465020Y-112859820D02*
X153195020Y-112859820D01*
X153195020Y-112859820D02*
X153195020Y-115145820D01*
X154465020Y-115145820D02*
X154465020Y-112859820D01*
%TO.C,C41*%
X149334220Y-104345740D02*
X149334220Y-102059740D01*
X149334220Y-102059740D02*
X148064220Y-102059740D01*
X148064220Y-102059740D02*
X148064220Y-104345740D01*
X148064220Y-104345740D02*
X149334220Y-104345740D01*
%TO.C,C1*%
X131064000Y-97360740D02*
X131064000Y-99646740D01*
X131064000Y-99646740D02*
X132334000Y-99646740D01*
X132334000Y-99646740D02*
X132334000Y-97360740D01*
X132334000Y-97360740D02*
X131064000Y-97360740D01*
%TO.C,C2*%
X136133840Y-87861140D02*
X134863840Y-87861140D01*
X134863840Y-90147140D02*
X136133840Y-90147140D01*
X136133840Y-90147140D02*
X136133840Y-87861140D01*
X134863840Y-87861140D02*
X134863840Y-90147140D01*
%TO.C,C3*%
X145542000Y-89141300D02*
X145542000Y-87871300D01*
X143256000Y-89141300D02*
X145542000Y-89141300D01*
X143256000Y-87871300D02*
X143256000Y-89141300D01*
X145542000Y-87871300D02*
X143256000Y-87871300D01*
%TO.C,C4*%
X146634200Y-101361240D02*
X145364200Y-101361240D01*
X145364200Y-101361240D02*
X145364200Y-103647240D01*
X146634200Y-103647240D02*
X146634200Y-101361240D01*
X145364200Y-103647240D02*
X146634200Y-103647240D01*
%TO.C,C5*%
X136141460Y-104637840D02*
X136141460Y-103367840D01*
X133855460Y-103367840D02*
X133855460Y-104637840D01*
X133855460Y-104637840D02*
X136141460Y-104637840D01*
X136141460Y-103367840D02*
X133855460Y-103367840D01*
%TO.C,C6*%
X134843520Y-96438720D02*
X134843520Y-95168720D01*
X132557520Y-95168720D02*
X132557520Y-96438720D01*
X134843520Y-95168720D02*
X132557520Y-95168720D01*
X132557520Y-96438720D02*
X134843520Y-96438720D01*
%TO.C,C7*%
X143256000Y-92141040D02*
X145542000Y-92141040D01*
X145542000Y-90871040D02*
X143256000Y-90871040D01*
X143256000Y-90871040D02*
X143256000Y-92141040D01*
X145542000Y-92141040D02*
X145542000Y-90871040D01*
%TO.C,C8*%
X145542000Y-89369900D02*
X143256000Y-89369900D01*
X143256000Y-89369900D02*
X143256000Y-90639900D01*
X143256000Y-90639900D02*
X145542000Y-90639900D01*
X145542000Y-90639900D02*
X145542000Y-89369900D01*
%TO.C,C14*%
X137642600Y-115437920D02*
X137642600Y-114167920D01*
X135356600Y-115437920D02*
X137642600Y-115437920D01*
X137642600Y-114167920D02*
X135356600Y-114167920D01*
X135356600Y-114167920D02*
X135356600Y-115437920D01*
%TO.C,R19*%
X146357340Y-92638880D02*
X148643340Y-92638880D01*
X148643340Y-91368880D02*
X146357340Y-91368880D01*
X146357340Y-91368880D02*
X146357340Y-92638880D01*
X148643340Y-92638880D02*
X148643340Y-91368880D01*
%TO.C,R18*%
X148142960Y-87868760D02*
X145856960Y-87868760D01*
X145856960Y-89138760D02*
X148142960Y-89138760D01*
X145856960Y-87868760D02*
X145856960Y-89138760D01*
X148142960Y-89138760D02*
X148142960Y-87868760D01*
%TO.C,R17*%
X148056600Y-94137480D02*
X150342600Y-94137480D01*
X150342600Y-94137480D02*
X150342600Y-92867480D01*
X148056600Y-92867480D02*
X148056600Y-94137480D01*
X150342600Y-92867480D02*
X148056600Y-92867480D01*
%TO.C,R16*%
X154142440Y-89867740D02*
X151856440Y-89867740D01*
X154142440Y-91137740D02*
X154142440Y-89867740D01*
X151856440Y-91137740D02*
X154142440Y-91137740D01*
X151856440Y-89867740D02*
X151856440Y-91137740D01*
%TO.C,R20*%
X150134320Y-112649000D02*
X150134320Y-110363000D01*
X150134320Y-110363000D02*
X148864320Y-110363000D01*
X148864320Y-110363000D02*
X148864320Y-112649000D01*
X148864320Y-112649000D02*
X150134320Y-112649000D01*
%TO.C,R21*%
X147365720Y-107861100D02*
X147365720Y-110147100D01*
X147365720Y-110147100D02*
X148635720Y-110147100D01*
X148635720Y-110147100D02*
X148635720Y-107861100D01*
X148635720Y-107861100D02*
X147365720Y-107861100D01*
%TO.C,R23*%
X148864320Y-107861100D02*
X148864320Y-110147100D01*
X150134320Y-110147100D02*
X150134320Y-107861100D01*
X148864320Y-110147100D02*
X150134320Y-110147100D01*
X150134320Y-107861100D02*
X148864320Y-107861100D01*
%TO.C,R28*%
X148633180Y-110363000D02*
X147363180Y-110363000D01*
X147363180Y-112649000D02*
X148633180Y-112649000D01*
X148633180Y-112649000D02*
X148633180Y-110363000D01*
X147363180Y-110363000D02*
X147363180Y-112649000D01*
%TO.C,R7*%
X134843520Y-98369120D02*
X132557520Y-98369120D01*
X134843520Y-99639120D02*
X134843520Y-98369120D01*
X132557520Y-99639120D02*
X134843520Y-99639120D01*
X132557520Y-98369120D02*
X132557520Y-99639120D01*
%TO.C,R29*%
X148856700Y-107640120D02*
X151142700Y-107640120D01*
X151142700Y-107640120D02*
X151142700Y-106370120D01*
X148856700Y-106370120D02*
X148856700Y-107640120D01*
X151142700Y-106370120D02*
X148856700Y-106370120D01*
%TO.C,R30*%
X149456140Y-100566220D02*
X149456140Y-101836220D01*
X149456140Y-101836220D02*
X151742140Y-101836220D01*
X151742140Y-101836220D02*
X151742140Y-100566220D01*
X151742140Y-100566220D02*
X149456140Y-100566220D01*
%TO.C,U1*%
X137299700Y-96301560D02*
X136799320Y-96801940D01*
X142798800Y-96301560D02*
X137299700Y-96301560D01*
X137200640Y-102702360D02*
X142798800Y-102702360D01*
X143200120Y-102301040D02*
X143200120Y-96702880D01*
X143200120Y-96702880D02*
X142798800Y-96301560D01*
X136799320Y-96801940D02*
X136799320Y-102301040D01*
X142798800Y-102702360D02*
X143200120Y-102301040D01*
X136799320Y-102301040D02*
X137200640Y-102702360D01*
X137870701Y-97088960D02*
G75*
G03*
X137870701Y-97088960I-283981J0D01*
G01*
D11*
%TO.C,P4*%
X143799560Y-112801400D02*
X143799560Y-114203480D01*
X147198080Y-114203480D02*
X147198080Y-112801400D01*
X143799560Y-114203480D02*
X147198080Y-114203480D01*
X147198080Y-112801400D02*
X143799560Y-112801400D01*
%TO.C,P3*%
X147198080Y-109801660D02*
X143799560Y-109801660D01*
X143799560Y-111203740D02*
X147198080Y-111203740D01*
X147198080Y-111203740D02*
X147198080Y-109801660D01*
X143799560Y-109801660D02*
X143799560Y-111203740D01*
%TO.C,P2*%
X147198080Y-106801920D02*
X143799560Y-106801920D01*
X143799560Y-108204000D02*
X147198080Y-108204000D01*
X147198080Y-108204000D02*
X147198080Y-106801920D01*
X143799560Y-106801920D02*
X143799560Y-108204000D01*
%TO.C,P1*%
X143799560Y-105204260D02*
X147198080Y-105204260D01*
X143799560Y-103802180D02*
X143799560Y-105204260D01*
X147198080Y-103802180D02*
X143799560Y-103802180D01*
X147198080Y-105204260D02*
X147198080Y-103802180D01*
D15*
%TO.C,R32*%
X150733760Y-104345740D02*
X150733760Y-102059740D01*
X149463760Y-104345740D02*
X150733760Y-104345740D01*
X149463760Y-102059740D02*
X149463760Y-104345740D01*
X150733760Y-102059740D02*
X149463760Y-102059740D01*
D11*
%TO.C,U6*%
X130299460Y-92753180D02*
X131851400Y-92753180D01*
X131851400Y-92753180D02*
X132300980Y-92303600D01*
X130299460Y-92753180D02*
X130299460Y-91854020D01*
X130299460Y-91854020D02*
X132300980Y-91854020D01*
X132300980Y-92303600D02*
X132300980Y-91854020D01*
%TO.C,P7*%
X133598920Y-87751920D02*
X133598920Y-87353140D01*
X125399800Y-87751920D02*
X125399800Y-87353140D01*
D15*
%TO.C,R33*%
X154035760Y-91460320D02*
X152765760Y-91460320D01*
X154035760Y-93746320D02*
X154035760Y-91460320D01*
X152765760Y-91460320D02*
X152765760Y-93746320D01*
X152765760Y-93746320D02*
X154035760Y-93746320D01*
D11*
%TO.C,P9*%
X153799540Y-104701340D02*
X152001220Y-104701340D01*
X152001220Y-106103420D02*
X153799540Y-106103420D01*
X152001220Y-104701340D02*
X152001220Y-106103420D01*
X153799540Y-106103420D02*
X153799540Y-104701340D01*
D15*
%TO.C,Q5*%
X151376380Y-102984300D02*
X154424380Y-102984300D01*
X151376380Y-102222300D02*
X151376380Y-102984300D01*
X154424380Y-102222300D02*
X151376380Y-102222300D01*
X154424380Y-102984300D02*
X154424380Y-102222300D01*
%TO.C,Q6*%
X152481280Y-96027240D02*
X152481280Y-92979240D01*
X152481280Y-92979240D02*
X151719280Y-92979240D01*
X151719280Y-96027240D02*
X152481280Y-96027240D01*
X151719280Y-92979240D02*
X151719280Y-96027240D01*
%TO.C,D8*%
X156452503Y-116184279D02*
X156524345Y-116256121D01*
X155816701Y-115548477D02*
X155744859Y-115476635D01*
X155144978Y-116360292D02*
X155640688Y-116856002D01*
X156524345Y-116256121D02*
X155252741Y-117527725D01*
X155252741Y-117527725D02*
X155180899Y-117455883D01*
X155744859Y-115476635D02*
X154473255Y-116748239D01*
X154473255Y-116748239D02*
X154545097Y-116820081D01*
X154223604Y-116997890D02*
G75*
G03*
X154223604Y-116997890I-68250J0D01*
G01*
%TO.C,R38*%
X155935680Y-112859820D02*
X154665680Y-112859820D01*
X154665680Y-115145820D02*
X155935680Y-115145820D01*
X154665680Y-112859820D02*
X154665680Y-115145820D01*
X155935680Y-115145820D02*
X155935680Y-112859820D01*
D16*
%TO.C,G\u002A\u002A\u002A*%
X137233660Y-111820960D02*
X137233660Y-111274860D01*
X137233660Y-111274860D02*
X137802620Y-111272320D01*
X137802620Y-111272320D02*
X137802620Y-107934760D01*
X137802620Y-107934760D02*
X135318500Y-107932220D01*
X135318500Y-107932220D02*
X135318500Y-107386120D01*
X135318500Y-107386120D02*
X133913880Y-107386120D01*
X133913880Y-107386120D02*
X133913880Y-107932220D01*
X133913880Y-107932220D02*
X131452620Y-107932220D01*
X131452620Y-107932220D02*
X131452620Y-111274860D01*
X131452620Y-111274860D02*
X131782820Y-111274860D01*
X131782820Y-111274860D02*
X131782820Y-110944660D01*
X131782820Y-110944660D02*
X131782820Y-108262420D01*
X131782820Y-108262420D02*
X134244080Y-108262420D01*
X134244080Y-108262420D02*
X134244080Y-107934760D01*
X134244080Y-107934760D02*
X134244080Y-107716320D01*
X134244080Y-107716320D02*
X134988300Y-107716320D01*
X134988300Y-107716320D02*
X134988300Y-107934760D01*
X134988300Y-107934760D02*
X134244080Y-107934760D01*
X134244080Y-107934760D02*
X134244080Y-108262420D01*
X134244080Y-108262420D02*
X137472420Y-108262420D01*
X137472420Y-108262420D02*
X137472420Y-110944660D01*
X137472420Y-110944660D02*
X131782820Y-110944660D01*
X131782820Y-110944660D02*
X131782820Y-111274860D01*
X131782820Y-111274860D02*
X131998720Y-111274860D01*
X131998720Y-111274860D02*
X131998720Y-111820960D01*
X131998720Y-111820960D02*
X132328920Y-111820960D01*
X132328920Y-111820960D02*
X132328920Y-111490760D01*
X132328920Y-111490760D02*
X132328920Y-111272320D01*
X132328920Y-111272320D02*
X133073140Y-111272320D01*
X133073140Y-111272320D02*
X133073140Y-111490760D01*
X133073140Y-111490760D02*
X132328920Y-111490760D01*
X132328920Y-111490760D02*
X132328920Y-111820960D01*
X132328920Y-111820960D02*
X133400800Y-111820960D01*
X133400800Y-111820960D02*
X133400800Y-111274860D01*
X133400800Y-111274860D02*
X135831580Y-111274860D01*
X135831580Y-111274860D02*
X135831580Y-111820960D01*
X135831580Y-111820960D02*
X136159240Y-111820960D01*
X136159240Y-111820960D02*
X136159240Y-111490760D01*
X136159240Y-111490760D02*
X136159240Y-111272320D01*
X136159240Y-111272320D02*
X136903460Y-111272320D01*
X136903460Y-111272320D02*
X136903460Y-111490760D01*
X136903460Y-111490760D02*
X136159240Y-111490760D01*
X136159240Y-111490760D02*
X136159240Y-111820960D01*
X136159240Y-111820960D02*
X137233660Y-111820960D01*
X137233660Y-111820960D02*
X137233660Y-111820960D01*
G36*
X135831580Y-111274860D02*
G01*
X133400800Y-111274860D01*
X133400800Y-111820960D01*
X131998720Y-111820960D01*
X131998720Y-111490760D01*
X132328920Y-111490760D01*
X133073140Y-111490760D01*
X133073140Y-111272320D01*
X132328920Y-111272320D01*
X132328920Y-111490760D01*
X131998720Y-111490760D01*
X131998720Y-111274860D01*
X131452620Y-111274860D01*
X131452620Y-108262420D01*
X131782820Y-108262420D01*
X131782820Y-110944660D01*
X137472420Y-110944660D01*
X137472420Y-108262420D01*
X131782820Y-108262420D01*
X131452620Y-108262420D01*
X131452620Y-107934760D01*
X134244080Y-107934760D01*
X134988300Y-107934760D01*
X134988300Y-107716320D01*
X134244080Y-107716320D01*
X134244080Y-107934760D01*
X131452620Y-107934760D01*
X131452620Y-107932220D01*
X133913880Y-107932220D01*
X133913880Y-107386120D01*
X135318500Y-107386120D01*
X135318500Y-107932220D01*
X137802620Y-107934760D01*
X137802620Y-111272320D01*
X137233660Y-111274860D01*
X137233660Y-111820960D01*
X135831580Y-111820960D01*
X135831580Y-111490760D01*
X136159240Y-111490760D01*
X136903460Y-111490760D01*
X136903460Y-111272320D01*
X136159240Y-111272320D01*
X136159240Y-111490760D01*
X135831580Y-111490760D01*
X135831580Y-111274860D01*
G37*
X135831580Y-111274860D02*
X133400800Y-111274860D01*
X133400800Y-111820960D01*
X131998720Y-111820960D01*
X131998720Y-111490760D01*
X132328920Y-111490760D01*
X133073140Y-111490760D01*
X133073140Y-111272320D01*
X132328920Y-111272320D01*
X132328920Y-111490760D01*
X131998720Y-111490760D01*
X131998720Y-111274860D01*
X131452620Y-111274860D01*
X131452620Y-108262420D01*
X131782820Y-108262420D01*
X131782820Y-110944660D01*
X137472420Y-110944660D01*
X137472420Y-108262420D01*
X131782820Y-108262420D01*
X131452620Y-108262420D01*
X131452620Y-107934760D01*
X134244080Y-107934760D01*
X134988300Y-107934760D01*
X134988300Y-107716320D01*
X134244080Y-107716320D01*
X134244080Y-107934760D01*
X131452620Y-107934760D01*
X131452620Y-107932220D01*
X133913880Y-107932220D01*
X133913880Y-107386120D01*
X135318500Y-107386120D01*
X135318500Y-107932220D01*
X137802620Y-107934760D01*
X137802620Y-111272320D01*
X137233660Y-111274860D01*
X137233660Y-111820960D01*
X135831580Y-111820960D01*
X135831580Y-111490760D01*
X136159240Y-111490760D01*
X136903460Y-111490760D01*
X136903460Y-111272320D01*
X136159240Y-111272320D01*
X136159240Y-111490760D01*
X135831580Y-111490760D01*
X135831580Y-111274860D01*
X136161780Y-110337600D02*
X136182100Y-110337600D01*
X136182100Y-110337600D02*
X136207500Y-110337600D01*
X136207500Y-110337600D02*
X136227820Y-110337600D01*
X136227820Y-110337600D02*
X136243060Y-110337600D01*
X136243060Y-110337600D02*
X136253220Y-110335060D01*
X136253220Y-110335060D02*
X136255760Y-110335060D01*
X136255760Y-110335060D02*
X136250680Y-110329980D01*
X136250680Y-110329980D02*
X136243060Y-110319820D01*
X136243060Y-110319820D02*
X136232900Y-110302040D01*
X136232900Y-110302040D02*
X136217660Y-110284260D01*
X136217660Y-110284260D02*
X136199880Y-110261400D01*
X136199880Y-110261400D02*
X136179560Y-110233460D01*
X136179560Y-110233460D02*
X136156700Y-110202980D01*
X136156700Y-110202980D02*
X136131300Y-110169960D01*
X136131300Y-110169960D02*
X136105900Y-110134400D01*
X136105900Y-110134400D02*
X136077960Y-110098840D01*
X136077960Y-110098840D02*
X136037320Y-110042960D01*
X136037320Y-110042960D02*
X136006840Y-110004860D01*
X136006840Y-110004860D02*
X135978900Y-109966760D01*
X135978900Y-109966760D02*
X135953500Y-109931200D01*
X135953500Y-109931200D02*
X135930640Y-109900720D01*
X135930640Y-109900720D02*
X135907780Y-109870240D01*
X135907780Y-109870240D02*
X135890000Y-109844840D01*
X135890000Y-109844840D02*
X135872220Y-109824520D01*
X135872220Y-109824520D02*
X135859520Y-109806740D01*
X135859520Y-109806740D02*
X135851900Y-109791500D01*
X135851900Y-109791500D02*
X135844280Y-109783880D01*
X135844280Y-109783880D02*
X135841740Y-109781340D01*
X135841740Y-109781340D02*
X135844280Y-109778800D01*
X135844280Y-109778800D02*
X135846820Y-109773720D01*
X135846820Y-109773720D02*
X135849360Y-109761020D01*
X135849360Y-109761020D02*
X135856980Y-109743240D01*
X135856980Y-109743240D02*
X135864600Y-109717840D01*
X135864600Y-109717840D02*
X135874760Y-109692440D01*
X135874760Y-109692440D02*
X135884920Y-109659420D01*
X135884920Y-109659420D02*
X135897620Y-109626400D01*
X135897620Y-109626400D02*
X135910320Y-109588300D01*
X135910320Y-109588300D02*
X135925560Y-109547660D01*
X135925560Y-109547660D02*
X135940800Y-109507020D01*
X135940800Y-109507020D02*
X135948420Y-109484160D01*
X135948420Y-109484160D02*
X135961120Y-109443520D01*
X135961120Y-109443520D02*
X135976360Y-109405420D01*
X135976360Y-109405420D02*
X135989060Y-109369860D01*
X135989060Y-109369860D02*
X135999220Y-109336840D01*
X135999220Y-109336840D02*
X136011920Y-109306360D01*
X136011920Y-109306360D02*
X136019540Y-109280960D01*
X136019540Y-109280960D02*
X136027160Y-109260640D01*
X136027160Y-109260640D02*
X136032240Y-109245400D01*
X136032240Y-109245400D02*
X136034780Y-109235240D01*
X136034780Y-109235240D02*
X136037320Y-109232700D01*
X136037320Y-109232700D02*
X136037320Y-109230160D01*
X136037320Y-109230160D02*
X136034780Y-109230160D01*
X136034780Y-109230160D02*
X136029700Y-109230160D01*
X136029700Y-109230160D02*
X136022080Y-109230160D01*
X136022080Y-109230160D02*
X136009380Y-109230160D01*
X136009380Y-109230160D02*
X135991600Y-109227620D01*
X135991600Y-109227620D02*
X135968740Y-109227620D01*
X135968740Y-109227620D02*
X135940800Y-109227620D01*
X135940800Y-109227620D02*
X135844280Y-109227620D01*
X135844280Y-109227620D02*
X135844280Y-109232700D01*
X135844280Y-109232700D02*
X135841740Y-109235240D01*
X135841740Y-109235240D02*
X135839200Y-109245400D01*
X135839200Y-109245400D02*
X135834120Y-109260640D01*
X135834120Y-109260640D02*
X135829040Y-109280960D01*
X135829040Y-109280960D02*
X135823960Y-109303820D01*
X135823960Y-109303820D02*
X135816340Y-109331760D01*
X135816340Y-109331760D02*
X135806180Y-109359700D01*
X135806180Y-109359700D02*
X135798560Y-109392720D01*
X135798560Y-109392720D02*
X135788400Y-109425740D01*
X135788400Y-109425740D02*
X135778240Y-109458760D01*
X135778240Y-109458760D02*
X135770620Y-109494320D01*
X135770620Y-109494320D02*
X135760460Y-109527340D01*
X135760460Y-109527340D02*
X135750300Y-109557820D01*
X135750300Y-109557820D02*
X135742680Y-109588300D01*
X135742680Y-109588300D02*
X135735060Y-109616240D01*
X135735060Y-109616240D02*
X135727440Y-109639100D01*
X135727440Y-109639100D02*
X135722360Y-109659420D01*
X135722360Y-109659420D02*
X135719820Y-109674660D01*
X135719820Y-109674660D02*
X135717280Y-109682280D01*
X135717280Y-109682280D02*
X135714740Y-109687360D01*
X135714740Y-109687360D02*
X135709660Y-109682280D01*
X135709660Y-109682280D02*
X135707120Y-109677200D01*
X135707120Y-109677200D02*
X135699500Y-109669580D01*
X135699500Y-109669580D02*
X135691880Y-109656880D01*
X135691880Y-109656880D02*
X135681720Y-109641640D01*
X135681720Y-109641640D02*
X135666480Y-109623860D01*
X135666480Y-109623860D02*
X135651240Y-109598460D01*
X135651240Y-109598460D02*
X135633460Y-109573060D01*
X135633460Y-109573060D02*
X135610600Y-109540040D01*
X135610600Y-109540040D02*
X135585200Y-109501940D01*
X135585200Y-109501940D02*
X135554720Y-109458760D01*
X135554720Y-109458760D02*
X135399780Y-109230160D01*
X135399780Y-109230160D02*
X135308340Y-109230160D01*
X135308340Y-109230160D02*
X135288020Y-109230160D01*
X135288020Y-109230160D02*
X135262620Y-109230160D01*
X135262620Y-109230160D02*
X135244840Y-109230160D01*
X135244840Y-109230160D02*
X135232140Y-109230160D01*
X135232140Y-109230160D02*
X135224520Y-109230160D01*
X135224520Y-109230160D02*
X135219440Y-109230160D01*
X135219440Y-109230160D02*
X135216900Y-109230160D01*
X135216900Y-109230160D02*
X135216900Y-109232700D01*
X135216900Y-109232700D02*
X135221980Y-109237780D01*
X135221980Y-109237780D02*
X135229600Y-109247940D01*
X135229600Y-109247940D02*
X135239760Y-109263180D01*
X135239760Y-109263180D02*
X135255000Y-109283500D01*
X135255000Y-109283500D02*
X135293100Y-109334300D01*
X135293100Y-109334300D02*
X135341360Y-109397800D01*
X135341360Y-109397800D02*
X135437880Y-109524800D01*
X135437880Y-109524800D02*
X135465820Y-109562900D01*
X135465820Y-109562900D02*
X135493760Y-109601000D01*
X135493760Y-109601000D02*
X135519160Y-109634020D01*
X135519160Y-109634020D02*
X135542020Y-109664500D01*
X135542020Y-109664500D02*
X135562340Y-109694980D01*
X135562340Y-109694980D02*
X135582660Y-109720380D01*
X135582660Y-109720380D02*
X135597900Y-109740700D01*
X135597900Y-109740700D02*
X135610600Y-109758480D01*
X135610600Y-109758480D02*
X135620760Y-109771180D01*
X135620760Y-109771180D02*
X135625840Y-109778800D01*
X135625840Y-109778800D02*
X135628380Y-109783880D01*
X135628380Y-109783880D02*
X135625840Y-109791500D01*
X135625840Y-109791500D02*
X135623300Y-109804200D01*
X135623300Y-109804200D02*
X135615680Y-109821980D01*
X135615680Y-109821980D02*
X135608060Y-109847380D01*
X135608060Y-109847380D02*
X135597900Y-109872780D01*
X135597900Y-109872780D02*
X135587740Y-109905800D01*
X135587740Y-109905800D02*
X135575040Y-109938820D01*
X135575040Y-109938820D02*
X135562340Y-109976920D01*
X135562340Y-109976920D02*
X135547100Y-110017560D01*
X135547100Y-110017560D02*
X135531860Y-110060740D01*
X135531860Y-110060740D02*
X135524240Y-110083600D01*
X135524240Y-110083600D02*
X135509000Y-110124240D01*
X135509000Y-110124240D02*
X135496300Y-110164880D01*
X135496300Y-110164880D02*
X135483600Y-110200440D01*
X135483600Y-110200440D02*
X135470900Y-110233460D01*
X135470900Y-110233460D02*
X135460740Y-110261400D01*
X135460740Y-110261400D02*
X135453120Y-110286800D01*
X135453120Y-110286800D02*
X135445500Y-110307120D01*
X135445500Y-110307120D02*
X135440420Y-110322360D01*
X135440420Y-110322360D02*
X135435340Y-110332520D01*
X135435340Y-110332520D02*
X135435340Y-110335060D01*
X135435340Y-110335060D02*
X135437880Y-110335060D01*
X135437880Y-110335060D02*
X135445500Y-110337600D01*
X135445500Y-110337600D02*
X135458200Y-110337600D01*
X135458200Y-110337600D02*
X135478520Y-110337600D01*
X135478520Y-110337600D02*
X135503920Y-110337600D01*
X135503920Y-110337600D02*
X135534400Y-110337600D01*
X135534400Y-110337600D02*
X135633460Y-110337600D01*
X135633460Y-110337600D02*
X135663940Y-110220760D01*
X135663940Y-110220760D02*
X135679180Y-110162340D01*
X135679180Y-110162340D02*
X135694420Y-110111540D01*
X135694420Y-110111540D02*
X135707120Y-110065820D01*
X135707120Y-110065820D02*
X135717280Y-110025180D01*
X135717280Y-110025180D02*
X135727440Y-109992160D01*
X135727440Y-109992160D02*
X135735060Y-109964220D01*
X135735060Y-109964220D02*
X135740140Y-109938820D01*
X135740140Y-109938820D02*
X135745220Y-109921040D01*
X135745220Y-109921040D02*
X135750300Y-109905800D01*
X135750300Y-109905800D02*
X135752840Y-109893100D01*
X135752840Y-109893100D02*
X135755380Y-109885480D01*
X135755380Y-109885480D02*
X135757920Y-109880400D01*
X135757920Y-109880400D02*
X135760460Y-109880400D01*
X135760460Y-109880400D02*
X135763000Y-109882940D01*
X135763000Y-109882940D02*
X135770620Y-109893100D01*
X135770620Y-109893100D02*
X135780780Y-109908340D01*
X135780780Y-109908340D02*
X135793480Y-109928660D01*
X135793480Y-109928660D02*
X135808720Y-109951520D01*
X135808720Y-109951520D02*
X135826500Y-109976920D01*
X135826500Y-109976920D02*
X135846820Y-110007400D01*
X135846820Y-110007400D02*
X135867140Y-110037880D01*
X135867140Y-110037880D02*
X135890000Y-110073440D01*
X135890000Y-110073440D02*
X135915400Y-110109000D01*
X135915400Y-110109000D02*
X136067800Y-110337600D01*
X136067800Y-110337600D02*
X136161780Y-110337600D01*
X136161780Y-110337600D02*
X136161780Y-110337600D01*
G36*
X136009380Y-109230160D02*
G01*
X136037320Y-109230160D01*
X136037320Y-109232700D01*
X136034780Y-109235240D01*
X136032240Y-109245400D01*
X136027160Y-109260640D01*
X136019540Y-109280960D01*
X136011920Y-109306360D01*
X135999220Y-109336840D01*
X135989060Y-109369860D01*
X135976360Y-109405420D01*
X135961120Y-109443520D01*
X135948420Y-109484160D01*
X135940800Y-109507020D01*
X135910320Y-109588300D01*
X135897620Y-109626400D01*
X135884920Y-109659420D01*
X135874760Y-109692440D01*
X135864600Y-109717840D01*
X135856980Y-109743240D01*
X135849360Y-109761020D01*
X135846820Y-109773720D01*
X135844280Y-109778800D01*
X135841740Y-109781340D01*
X135851900Y-109791500D01*
X135859520Y-109806740D01*
X135872220Y-109824520D01*
X135890000Y-109844840D01*
X135907780Y-109870240D01*
X135953500Y-109931200D01*
X135978900Y-109966760D01*
X136006840Y-110004860D01*
X136037320Y-110042960D01*
X136077960Y-110098840D01*
X136105900Y-110134400D01*
X136131300Y-110169960D01*
X136156700Y-110202980D01*
X136179560Y-110233460D01*
X136199880Y-110261400D01*
X136217660Y-110284260D01*
X136232900Y-110302040D01*
X136243060Y-110319820D01*
X136250680Y-110329980D01*
X136255760Y-110335060D01*
X136253220Y-110335060D01*
X136243060Y-110337600D01*
X136067800Y-110337600D01*
X135915400Y-110109000D01*
X135890000Y-110073440D01*
X135867140Y-110037880D01*
X135826500Y-109976920D01*
X135808720Y-109951520D01*
X135793480Y-109928660D01*
X135780780Y-109908340D01*
X135770620Y-109893100D01*
X135763000Y-109882940D01*
X135760460Y-109880400D01*
X135757920Y-109880400D01*
X135755380Y-109885480D01*
X135752840Y-109893100D01*
X135750300Y-109905800D01*
X135745220Y-109921040D01*
X135740140Y-109938820D01*
X135735060Y-109964220D01*
X135727440Y-109992160D01*
X135717280Y-110025180D01*
X135707120Y-110065820D01*
X135694420Y-110111540D01*
X135679180Y-110162340D01*
X135633460Y-110337600D01*
X135445500Y-110337600D01*
X135437880Y-110335060D01*
X135435340Y-110335060D01*
X135435340Y-110332520D01*
X135440420Y-110322360D01*
X135445500Y-110307120D01*
X135453120Y-110286800D01*
X135460740Y-110261400D01*
X135470900Y-110233460D01*
X135483600Y-110200440D01*
X135496300Y-110164880D01*
X135509000Y-110124240D01*
X135524240Y-110083600D01*
X135531860Y-110060740D01*
X135547100Y-110017560D01*
X135562340Y-109976920D01*
X135575040Y-109938820D01*
X135587740Y-109905800D01*
X135597900Y-109872780D01*
X135608060Y-109847380D01*
X135615680Y-109821980D01*
X135623300Y-109804200D01*
X135625840Y-109791500D01*
X135628380Y-109783880D01*
X135625840Y-109778800D01*
X135620760Y-109771180D01*
X135610600Y-109758480D01*
X135597900Y-109740700D01*
X135582660Y-109720380D01*
X135562340Y-109694980D01*
X135542020Y-109664500D01*
X135519160Y-109634020D01*
X135493760Y-109601000D01*
X135437880Y-109524800D01*
X135293100Y-109334300D01*
X135239760Y-109263180D01*
X135229600Y-109247940D01*
X135221980Y-109237780D01*
X135216900Y-109232700D01*
X135216900Y-109230160D01*
X135399780Y-109230160D01*
X135554720Y-109458760D01*
X135585200Y-109501940D01*
X135610600Y-109540040D01*
X135633460Y-109573060D01*
X135651240Y-109598460D01*
X135666480Y-109623860D01*
X135681720Y-109641640D01*
X135691880Y-109656880D01*
X135699500Y-109669580D01*
X135707120Y-109677200D01*
X135709660Y-109682280D01*
X135714740Y-109687360D01*
X135717280Y-109682280D01*
X135719820Y-109674660D01*
X135722360Y-109659420D01*
X135727440Y-109639100D01*
X135735060Y-109616240D01*
X135742680Y-109588300D01*
X135750300Y-109557820D01*
X135760460Y-109527340D01*
X135770620Y-109494320D01*
X135778240Y-109458760D01*
X135798560Y-109392720D01*
X135806180Y-109359700D01*
X135816340Y-109331760D01*
X135823960Y-109303820D01*
X135829040Y-109280960D01*
X135834120Y-109260640D01*
X135839200Y-109245400D01*
X135841740Y-109235240D01*
X135844280Y-109232700D01*
X135844280Y-109227620D01*
X135991600Y-109227620D01*
X136009380Y-109230160D01*
G37*
X136009380Y-109230160D02*
X136037320Y-109230160D01*
X136037320Y-109232700D01*
X136034780Y-109235240D01*
X136032240Y-109245400D01*
X136027160Y-109260640D01*
X136019540Y-109280960D01*
X136011920Y-109306360D01*
X135999220Y-109336840D01*
X135989060Y-109369860D01*
X135976360Y-109405420D01*
X135961120Y-109443520D01*
X135948420Y-109484160D01*
X135940800Y-109507020D01*
X135910320Y-109588300D01*
X135897620Y-109626400D01*
X135884920Y-109659420D01*
X135874760Y-109692440D01*
X135864600Y-109717840D01*
X135856980Y-109743240D01*
X135849360Y-109761020D01*
X135846820Y-109773720D01*
X135844280Y-109778800D01*
X135841740Y-109781340D01*
X135851900Y-109791500D01*
X135859520Y-109806740D01*
X135872220Y-109824520D01*
X135890000Y-109844840D01*
X135907780Y-109870240D01*
X135953500Y-109931200D01*
X135978900Y-109966760D01*
X136006840Y-110004860D01*
X136037320Y-110042960D01*
X136077960Y-110098840D01*
X136105900Y-110134400D01*
X136131300Y-110169960D01*
X136156700Y-110202980D01*
X136179560Y-110233460D01*
X136199880Y-110261400D01*
X136217660Y-110284260D01*
X136232900Y-110302040D01*
X136243060Y-110319820D01*
X136250680Y-110329980D01*
X136255760Y-110335060D01*
X136253220Y-110335060D01*
X136243060Y-110337600D01*
X136067800Y-110337600D01*
X135915400Y-110109000D01*
X135890000Y-110073440D01*
X135867140Y-110037880D01*
X135826500Y-109976920D01*
X135808720Y-109951520D01*
X135793480Y-109928660D01*
X135780780Y-109908340D01*
X135770620Y-109893100D01*
X135763000Y-109882940D01*
X135760460Y-109880400D01*
X135757920Y-109880400D01*
X135755380Y-109885480D01*
X135752840Y-109893100D01*
X135750300Y-109905800D01*
X135745220Y-109921040D01*
X135740140Y-109938820D01*
X135735060Y-109964220D01*
X135727440Y-109992160D01*
X135717280Y-110025180D01*
X135707120Y-110065820D01*
X135694420Y-110111540D01*
X135679180Y-110162340D01*
X135633460Y-110337600D01*
X135445500Y-110337600D01*
X135437880Y-110335060D01*
X135435340Y-110335060D01*
X135435340Y-110332520D01*
X135440420Y-110322360D01*
X135445500Y-110307120D01*
X135453120Y-110286800D01*
X135460740Y-110261400D01*
X135470900Y-110233460D01*
X135483600Y-110200440D01*
X135496300Y-110164880D01*
X135509000Y-110124240D01*
X135524240Y-110083600D01*
X135531860Y-110060740D01*
X135547100Y-110017560D01*
X135562340Y-109976920D01*
X135575040Y-109938820D01*
X135587740Y-109905800D01*
X135597900Y-109872780D01*
X135608060Y-109847380D01*
X135615680Y-109821980D01*
X135623300Y-109804200D01*
X135625840Y-109791500D01*
X135628380Y-109783880D01*
X135625840Y-109778800D01*
X135620760Y-109771180D01*
X135610600Y-109758480D01*
X135597900Y-109740700D01*
X135582660Y-109720380D01*
X135562340Y-109694980D01*
X135542020Y-109664500D01*
X135519160Y-109634020D01*
X135493760Y-109601000D01*
X135437880Y-109524800D01*
X135293100Y-109334300D01*
X135239760Y-109263180D01*
X135229600Y-109247940D01*
X135221980Y-109237780D01*
X135216900Y-109232700D01*
X135216900Y-109230160D01*
X135399780Y-109230160D01*
X135554720Y-109458760D01*
X135585200Y-109501940D01*
X135610600Y-109540040D01*
X135633460Y-109573060D01*
X135651240Y-109598460D01*
X135666480Y-109623860D01*
X135681720Y-109641640D01*
X135691880Y-109656880D01*
X135699500Y-109669580D01*
X135707120Y-109677200D01*
X135709660Y-109682280D01*
X135714740Y-109687360D01*
X135717280Y-109682280D01*
X135719820Y-109674660D01*
X135722360Y-109659420D01*
X135727440Y-109639100D01*
X135735060Y-109616240D01*
X135742680Y-109588300D01*
X135750300Y-109557820D01*
X135760460Y-109527340D01*
X135770620Y-109494320D01*
X135778240Y-109458760D01*
X135798560Y-109392720D01*
X135806180Y-109359700D01*
X135816340Y-109331760D01*
X135823960Y-109303820D01*
X135829040Y-109280960D01*
X135834120Y-109260640D01*
X135839200Y-109245400D01*
X135841740Y-109235240D01*
X135844280Y-109232700D01*
X135844280Y-109227620D01*
X135991600Y-109227620D01*
X136009380Y-109230160D01*
X132768340Y-110375700D02*
X132786120Y-110375700D01*
X132786120Y-110375700D02*
X132803900Y-110375700D01*
X132803900Y-110375700D02*
X132872480Y-110370620D01*
X132872480Y-110370620D02*
X132943600Y-110363000D01*
X132943600Y-110363000D02*
X133012180Y-110347760D01*
X133012180Y-110347760D02*
X133078220Y-110327440D01*
X133078220Y-110327440D02*
X133139180Y-110302040D01*
X133139180Y-110302040D02*
X133195060Y-110269020D01*
X133195060Y-110269020D02*
X133248400Y-110230920D01*
X133248400Y-110230920D02*
X133263640Y-110218220D01*
X133263640Y-110218220D02*
X133281420Y-110202980D01*
X133281420Y-110202980D02*
X133299200Y-110182660D01*
X133299200Y-110182660D02*
X133316980Y-110164880D01*
X133316980Y-110164880D02*
X133332220Y-110149640D01*
X133332220Y-110149640D02*
X133347460Y-110129320D01*
X133347460Y-110129320D02*
X133383020Y-110078520D01*
X133383020Y-110078520D02*
X133410960Y-110025180D01*
X133410960Y-110025180D02*
X133433820Y-109969300D01*
X133433820Y-109969300D02*
X133449060Y-109908340D01*
X133449060Y-109908340D02*
X133459220Y-109842300D01*
X133459220Y-109842300D02*
X133461760Y-109827060D01*
X133461760Y-109827060D02*
X133464300Y-109778800D01*
X133464300Y-109778800D02*
X133464300Y-109728000D01*
X133464300Y-109728000D02*
X133461760Y-109674660D01*
X133461760Y-109674660D02*
X133459220Y-109618780D01*
X133459220Y-109618780D02*
X133451600Y-109567980D01*
X133451600Y-109567980D02*
X133441440Y-109524800D01*
X133441440Y-109524800D02*
X133421120Y-109443520D01*
X133421120Y-109443520D02*
X133395720Y-109367320D01*
X133395720Y-109367320D02*
X133362700Y-109293660D01*
X133362700Y-109293660D02*
X133322060Y-109220000D01*
X133322060Y-109220000D02*
X133276340Y-109153960D01*
X133276340Y-109153960D02*
X133225540Y-109090460D01*
X133225540Y-109090460D02*
X133169660Y-109029500D01*
X133169660Y-109029500D02*
X133144260Y-109006640D01*
X133144260Y-109006640D02*
X133093460Y-108960920D01*
X133093460Y-108960920D02*
X133037580Y-108922820D01*
X133037580Y-108922820D02*
X132979160Y-108887260D01*
X132979160Y-108887260D02*
X132966460Y-108879640D01*
X132966460Y-108879640D02*
X132895340Y-108844080D01*
X132895340Y-108844080D02*
X132821680Y-108816140D01*
X132821680Y-108816140D02*
X132742940Y-108793280D01*
X132742940Y-108793280D02*
X132664200Y-108778040D01*
X132664200Y-108778040D02*
X132580380Y-108767880D01*
X132580380Y-108767880D02*
X132575300Y-108767880D01*
X132575300Y-108767880D02*
X132554980Y-108765340D01*
X132554980Y-108765340D02*
X132529580Y-108765340D01*
X132529580Y-108765340D02*
X132504180Y-108765340D01*
X132504180Y-108765340D02*
X132476240Y-108765340D01*
X132476240Y-108765340D02*
X132448300Y-108765340D01*
X132448300Y-108765340D02*
X132425440Y-108767880D01*
X132425440Y-108767880D02*
X132407660Y-108767880D01*
X132407660Y-108767880D02*
X132389880Y-108770420D01*
X132389880Y-108770420D02*
X132303520Y-108785660D01*
X132303520Y-108785660D02*
X132217160Y-108805980D01*
X132217160Y-108805980D02*
X132130800Y-108831380D01*
X132130800Y-108831380D02*
X132044440Y-108866940D01*
X132044440Y-108866940D02*
X132039360Y-108866940D01*
X132039360Y-108866940D02*
X132026660Y-108874560D01*
X132026660Y-108874560D02*
X132019040Y-108877100D01*
X132019040Y-108877100D02*
X132016500Y-108879640D01*
X132016500Y-108879640D02*
X132013960Y-108882180D01*
X132013960Y-108882180D02*
X132013960Y-108884720D01*
X132013960Y-108884720D02*
X132016500Y-108892340D01*
X132016500Y-108892340D02*
X132019040Y-108905040D01*
X132019040Y-108905040D02*
X132021580Y-108922820D01*
X132021580Y-108922820D02*
X132026660Y-108943140D01*
X132026660Y-108943140D02*
X132029200Y-108966000D01*
X132029200Y-108966000D02*
X132034280Y-108993940D01*
X132034280Y-108993940D02*
X132041900Y-109021880D01*
X132041900Y-109021880D02*
X132046980Y-109049820D01*
X132046980Y-109049820D02*
X132052060Y-109077760D01*
X132052060Y-109077760D02*
X132057140Y-109105700D01*
X132057140Y-109105700D02*
X132062220Y-109131100D01*
X132062220Y-109131100D02*
X132067300Y-109153960D01*
X132067300Y-109153960D02*
X132069840Y-109171740D01*
X132069840Y-109171740D02*
X132074920Y-109186980D01*
X132074920Y-109186980D02*
X132074920Y-109197140D01*
X132074920Y-109197140D02*
X132077460Y-109199680D01*
X132077460Y-109199680D02*
X132080000Y-109197140D01*
X132080000Y-109197140D02*
X132087620Y-109192060D01*
X132087620Y-109192060D02*
X132097780Y-109184440D01*
X132097780Y-109184440D02*
X132130800Y-109164120D01*
X132130800Y-109164120D02*
X132184140Y-109131100D01*
X132184140Y-109131100D02*
X132240020Y-109105700D01*
X132240020Y-109105700D02*
X132295900Y-109085380D01*
X132295900Y-109085380D02*
X132351780Y-109070140D01*
X132351780Y-109070140D02*
X132412740Y-109059980D01*
X132412740Y-109059980D02*
X132420360Y-109057440D01*
X132420360Y-109057440D02*
X132435600Y-109057440D01*
X132435600Y-109057440D02*
X132458460Y-109057440D01*
X132458460Y-109057440D02*
X132481320Y-109054900D01*
X132481320Y-109054900D02*
X132501640Y-109054900D01*
X132501640Y-109054900D02*
X132521960Y-109054900D01*
X132521960Y-109054900D02*
X132537200Y-109057440D01*
X132537200Y-109057440D02*
X132562600Y-109059980D01*
X132562600Y-109059980D02*
X132618480Y-109070140D01*
X132618480Y-109070140D02*
X132669280Y-109085380D01*
X132669280Y-109085380D02*
X132720080Y-109108240D01*
X132720080Y-109108240D02*
X132740400Y-109118400D01*
X132740400Y-109118400D02*
X132781040Y-109143800D01*
X132781040Y-109143800D02*
X132819140Y-109171740D01*
X132819140Y-109171740D02*
X132857240Y-109207300D01*
X132857240Y-109207300D02*
X132892800Y-109245400D01*
X132892800Y-109245400D02*
X132933440Y-109296200D01*
X132933440Y-109296200D02*
X132966460Y-109352080D01*
X132966460Y-109352080D02*
X132994400Y-109410500D01*
X132994400Y-109410500D02*
X133017260Y-109471460D01*
X133017260Y-109471460D02*
X133035040Y-109537500D01*
X133035040Y-109537500D02*
X133045200Y-109608620D01*
X133045200Y-109608620D02*
X133045200Y-109618780D01*
X133045200Y-109618780D02*
X133047740Y-109639100D01*
X133047740Y-109639100D02*
X133047740Y-109667040D01*
X133047740Y-109667040D02*
X133050280Y-109692440D01*
X133050280Y-109692440D02*
X133050280Y-109720380D01*
X133050280Y-109720380D02*
X133047740Y-109743240D01*
X133047740Y-109743240D02*
X133047740Y-109761020D01*
X133047740Y-109761020D02*
X133045200Y-109768640D01*
X133045200Y-109768640D02*
X133037580Y-109816900D01*
X133037580Y-109816900D02*
X133024880Y-109862620D01*
X133024880Y-109862620D02*
X133009640Y-109903260D01*
X133009640Y-109903260D02*
X132986780Y-109938820D01*
X132986780Y-109938820D02*
X132981700Y-109946440D01*
X132981700Y-109946440D02*
X132963920Y-109969300D01*
X132963920Y-109969300D02*
X132943600Y-109989620D01*
X132943600Y-109989620D02*
X132923280Y-110007400D01*
X132923280Y-110007400D02*
X132923280Y-110009940D01*
X132923280Y-110009940D02*
X132885180Y-110035340D01*
X132885180Y-110035340D02*
X132844540Y-110055660D01*
X132844540Y-110055660D02*
X132796280Y-110070900D01*
X132796280Y-110070900D02*
X132745480Y-110081060D01*
X132745480Y-110081060D02*
X132735320Y-110081060D01*
X132735320Y-110081060D02*
X132717540Y-110083600D01*
X132717540Y-110083600D02*
X132694680Y-110083600D01*
X132694680Y-110083600D02*
X132671820Y-110083600D01*
X132671820Y-110083600D02*
X132648960Y-110083600D01*
X132648960Y-110083600D02*
X132628640Y-110083600D01*
X132628640Y-110083600D02*
X132610860Y-110081060D01*
X132610860Y-110081060D02*
X132582920Y-110078520D01*
X132582920Y-110078520D02*
X132527040Y-110065820D01*
X132527040Y-110065820D02*
X132471160Y-110053120D01*
X132471160Y-110053120D02*
X132415280Y-110032800D01*
X132415280Y-110032800D02*
X132354320Y-110007400D01*
X132354320Y-110007400D02*
X132290820Y-109979460D01*
X132290820Y-109979460D02*
X132224780Y-109946440D01*
X132224780Y-109946440D02*
X132217160Y-109941360D01*
X132217160Y-109941360D02*
X132207000Y-109936280D01*
X132207000Y-109936280D02*
X132199380Y-109931200D01*
X132199380Y-109931200D02*
X132194300Y-109931200D01*
X132194300Y-109931200D02*
X132196840Y-109936280D01*
X132196840Y-109936280D02*
X132196840Y-109946440D01*
X132196840Y-109946440D02*
X132201920Y-109961680D01*
X132201920Y-109961680D02*
X132204460Y-109982000D01*
X132204460Y-109982000D02*
X132209540Y-110004860D01*
X132209540Y-110004860D02*
X132214620Y-110032800D01*
X132214620Y-110032800D02*
X132219700Y-110060740D01*
X132219700Y-110060740D02*
X132227320Y-110088680D01*
X132227320Y-110088680D02*
X132232400Y-110119160D01*
X132232400Y-110119160D02*
X132237480Y-110149640D01*
X132237480Y-110149640D02*
X132242560Y-110177580D01*
X132242560Y-110177580D02*
X132247640Y-110202980D01*
X132247640Y-110202980D02*
X132252720Y-110225840D01*
X132252720Y-110225840D02*
X132257800Y-110246160D01*
X132257800Y-110246160D02*
X132260340Y-110258860D01*
X132260340Y-110258860D02*
X132262880Y-110269020D01*
X132262880Y-110269020D02*
X132262880Y-110274100D01*
X132262880Y-110274100D02*
X132265420Y-110274100D01*
X132265420Y-110274100D02*
X132270500Y-110276640D01*
X132270500Y-110276640D02*
X132283200Y-110279180D01*
X132283200Y-110279180D02*
X132295900Y-110284260D01*
X132295900Y-110284260D02*
X132313680Y-110289340D01*
X132313680Y-110289340D02*
X132331460Y-110296960D01*
X132331460Y-110296960D02*
X132349240Y-110302040D01*
X132349240Y-110302040D02*
X132367020Y-110307120D01*
X132367020Y-110307120D02*
X132379720Y-110309660D01*
X132379720Y-110309660D02*
X132397500Y-110317280D01*
X132397500Y-110317280D02*
X132488940Y-110340140D01*
X132488940Y-110340140D02*
X132575300Y-110357920D01*
X132575300Y-110357920D02*
X132661660Y-110368080D01*
X132661660Y-110368080D02*
X132745480Y-110375700D01*
X132745480Y-110375700D02*
X132755640Y-110375700D01*
X132755640Y-110375700D02*
X132768340Y-110375700D01*
X132768340Y-110375700D02*
X132768340Y-110375700D01*
G36*
X132575300Y-108767880D02*
G01*
X132580380Y-108767880D01*
X132664200Y-108778040D01*
X132742940Y-108793280D01*
X132821680Y-108816140D01*
X132895340Y-108844080D01*
X132966460Y-108879640D01*
X132979160Y-108887260D01*
X133037580Y-108922820D01*
X133093460Y-108960920D01*
X133169660Y-109029500D01*
X133225540Y-109090460D01*
X133276340Y-109153960D01*
X133322060Y-109220000D01*
X133362700Y-109293660D01*
X133395720Y-109367320D01*
X133421120Y-109443520D01*
X133441440Y-109524800D01*
X133451600Y-109567980D01*
X133459220Y-109618780D01*
X133461760Y-109674660D01*
X133464300Y-109728000D01*
X133464300Y-109778800D01*
X133461760Y-109827060D01*
X133459220Y-109842300D01*
X133449060Y-109908340D01*
X133433820Y-109969300D01*
X133410960Y-110025180D01*
X133383020Y-110078520D01*
X133347460Y-110129320D01*
X133332220Y-110149640D01*
X133299200Y-110182660D01*
X133281420Y-110202980D01*
X133263640Y-110218220D01*
X133248400Y-110230920D01*
X133195060Y-110269020D01*
X133139180Y-110302040D01*
X133078220Y-110327440D01*
X133012180Y-110347760D01*
X132943600Y-110363000D01*
X132872480Y-110370620D01*
X132803900Y-110375700D01*
X132745480Y-110375700D01*
X132661660Y-110368080D01*
X132575300Y-110357920D01*
X132488940Y-110340140D01*
X132397500Y-110317280D01*
X132379720Y-110309660D01*
X132367020Y-110307120D01*
X132331460Y-110296960D01*
X132313680Y-110289340D01*
X132295900Y-110284260D01*
X132283200Y-110279180D01*
X132270500Y-110276640D01*
X132265420Y-110274100D01*
X132262880Y-110274100D01*
X132262880Y-110269020D01*
X132260340Y-110258860D01*
X132257800Y-110246160D01*
X132252720Y-110225840D01*
X132247640Y-110202980D01*
X132242560Y-110177580D01*
X132237480Y-110149640D01*
X132227320Y-110088680D01*
X132219700Y-110060740D01*
X132209540Y-110004860D01*
X132204460Y-109982000D01*
X132201920Y-109961680D01*
X132196840Y-109946440D01*
X132196840Y-109936280D01*
X132194300Y-109931200D01*
X132199380Y-109931200D01*
X132207000Y-109936280D01*
X132217160Y-109941360D01*
X132224780Y-109946440D01*
X132290820Y-109979460D01*
X132354320Y-110007400D01*
X132415280Y-110032800D01*
X132471160Y-110053120D01*
X132582920Y-110078520D01*
X132610860Y-110081060D01*
X132628640Y-110083600D01*
X132717540Y-110083600D01*
X132735320Y-110081060D01*
X132745480Y-110081060D01*
X132796280Y-110070900D01*
X132844540Y-110055660D01*
X132885180Y-110035340D01*
X132923280Y-110009940D01*
X132923280Y-110007400D01*
X132943600Y-109989620D01*
X132963920Y-109969300D01*
X132981700Y-109946440D01*
X132986780Y-109938820D01*
X133009640Y-109903260D01*
X133024880Y-109862620D01*
X133037580Y-109816900D01*
X133045200Y-109768640D01*
X133047740Y-109761020D01*
X133047740Y-109743240D01*
X133050280Y-109720380D01*
X133050280Y-109692440D01*
X133047740Y-109667040D01*
X133047740Y-109639100D01*
X133045200Y-109618780D01*
X133045200Y-109608620D01*
X133035040Y-109537500D01*
X133017260Y-109471460D01*
X132994400Y-109410500D01*
X132966460Y-109352080D01*
X132933440Y-109296200D01*
X132892800Y-109245400D01*
X132857240Y-109207300D01*
X132819140Y-109171740D01*
X132781040Y-109143800D01*
X132740400Y-109118400D01*
X132720080Y-109108240D01*
X132669280Y-109085380D01*
X132618480Y-109070140D01*
X132562600Y-109059980D01*
X132537200Y-109057440D01*
X132521960Y-109054900D01*
X132481320Y-109054900D01*
X132458460Y-109057440D01*
X132420360Y-109057440D01*
X132412740Y-109059980D01*
X132351780Y-109070140D01*
X132295900Y-109085380D01*
X132240020Y-109105700D01*
X132184140Y-109131100D01*
X132130800Y-109164120D01*
X132097780Y-109184440D01*
X132087620Y-109192060D01*
X132080000Y-109197140D01*
X132077460Y-109199680D01*
X132074920Y-109197140D01*
X132074920Y-109186980D01*
X132069840Y-109171740D01*
X132067300Y-109153960D01*
X132062220Y-109131100D01*
X132057140Y-109105700D01*
X132041900Y-109021880D01*
X132034280Y-108993940D01*
X132029200Y-108966000D01*
X132026660Y-108943140D01*
X132021580Y-108922820D01*
X132019040Y-108905040D01*
X132016500Y-108892340D01*
X132013960Y-108884720D01*
X132013960Y-108882180D01*
X132019040Y-108877100D01*
X132026660Y-108874560D01*
X132039360Y-108866940D01*
X132044440Y-108866940D01*
X132130800Y-108831380D01*
X132217160Y-108805980D01*
X132303520Y-108785660D01*
X132389880Y-108770420D01*
X132407660Y-108767880D01*
X132425440Y-108767880D01*
X132448300Y-108765340D01*
X132554980Y-108765340D01*
X132575300Y-108767880D01*
G37*
X132575300Y-108767880D02*
X132580380Y-108767880D01*
X132664200Y-108778040D01*
X132742940Y-108793280D01*
X132821680Y-108816140D01*
X132895340Y-108844080D01*
X132966460Y-108879640D01*
X132979160Y-108887260D01*
X133037580Y-108922820D01*
X133093460Y-108960920D01*
X133169660Y-109029500D01*
X133225540Y-109090460D01*
X133276340Y-109153960D01*
X133322060Y-109220000D01*
X133362700Y-109293660D01*
X133395720Y-109367320D01*
X133421120Y-109443520D01*
X133441440Y-109524800D01*
X133451600Y-109567980D01*
X133459220Y-109618780D01*
X133461760Y-109674660D01*
X133464300Y-109728000D01*
X133464300Y-109778800D01*
X133461760Y-109827060D01*
X133459220Y-109842300D01*
X133449060Y-109908340D01*
X133433820Y-109969300D01*
X133410960Y-110025180D01*
X133383020Y-110078520D01*
X133347460Y-110129320D01*
X133332220Y-110149640D01*
X133299200Y-110182660D01*
X133281420Y-110202980D01*
X133263640Y-110218220D01*
X133248400Y-110230920D01*
X133195060Y-110269020D01*
X133139180Y-110302040D01*
X133078220Y-110327440D01*
X133012180Y-110347760D01*
X132943600Y-110363000D01*
X132872480Y-110370620D01*
X132803900Y-110375700D01*
X132745480Y-110375700D01*
X132661660Y-110368080D01*
X132575300Y-110357920D01*
X132488940Y-110340140D01*
X132397500Y-110317280D01*
X132379720Y-110309660D01*
X132367020Y-110307120D01*
X132331460Y-110296960D01*
X132313680Y-110289340D01*
X132295900Y-110284260D01*
X132283200Y-110279180D01*
X132270500Y-110276640D01*
X132265420Y-110274100D01*
X132262880Y-110274100D01*
X132262880Y-110269020D01*
X132260340Y-110258860D01*
X132257800Y-110246160D01*
X132252720Y-110225840D01*
X132247640Y-110202980D01*
X132242560Y-110177580D01*
X132237480Y-110149640D01*
X132227320Y-110088680D01*
X132219700Y-110060740D01*
X132209540Y-110004860D01*
X132204460Y-109982000D01*
X132201920Y-109961680D01*
X132196840Y-109946440D01*
X132196840Y-109936280D01*
X132194300Y-109931200D01*
X132199380Y-109931200D01*
X132207000Y-109936280D01*
X132217160Y-109941360D01*
X132224780Y-109946440D01*
X132290820Y-109979460D01*
X132354320Y-110007400D01*
X132415280Y-110032800D01*
X132471160Y-110053120D01*
X132582920Y-110078520D01*
X132610860Y-110081060D01*
X132628640Y-110083600D01*
X132717540Y-110083600D01*
X132735320Y-110081060D01*
X132745480Y-110081060D01*
X132796280Y-110070900D01*
X132844540Y-110055660D01*
X132885180Y-110035340D01*
X132923280Y-110009940D01*
X132923280Y-110007400D01*
X132943600Y-109989620D01*
X132963920Y-109969300D01*
X132981700Y-109946440D01*
X132986780Y-109938820D01*
X133009640Y-109903260D01*
X133024880Y-109862620D01*
X133037580Y-109816900D01*
X133045200Y-109768640D01*
X133047740Y-109761020D01*
X133047740Y-109743240D01*
X133050280Y-109720380D01*
X133050280Y-109692440D01*
X133047740Y-109667040D01*
X133047740Y-109639100D01*
X133045200Y-109618780D01*
X133045200Y-109608620D01*
X133035040Y-109537500D01*
X133017260Y-109471460D01*
X132994400Y-109410500D01*
X132966460Y-109352080D01*
X132933440Y-109296200D01*
X132892800Y-109245400D01*
X132857240Y-109207300D01*
X132819140Y-109171740D01*
X132781040Y-109143800D01*
X132740400Y-109118400D01*
X132720080Y-109108240D01*
X132669280Y-109085380D01*
X132618480Y-109070140D01*
X132562600Y-109059980D01*
X132537200Y-109057440D01*
X132521960Y-109054900D01*
X132481320Y-109054900D01*
X132458460Y-109057440D01*
X132420360Y-109057440D01*
X132412740Y-109059980D01*
X132351780Y-109070140D01*
X132295900Y-109085380D01*
X132240020Y-109105700D01*
X132184140Y-109131100D01*
X132130800Y-109164120D01*
X132097780Y-109184440D01*
X132087620Y-109192060D01*
X132080000Y-109197140D01*
X132077460Y-109199680D01*
X132074920Y-109197140D01*
X132074920Y-109186980D01*
X132069840Y-109171740D01*
X132067300Y-109153960D01*
X132062220Y-109131100D01*
X132057140Y-109105700D01*
X132041900Y-109021880D01*
X132034280Y-108993940D01*
X132029200Y-108966000D01*
X132026660Y-108943140D01*
X132021580Y-108922820D01*
X132019040Y-108905040D01*
X132016500Y-108892340D01*
X132013960Y-108884720D01*
X132013960Y-108882180D01*
X132019040Y-108877100D01*
X132026660Y-108874560D01*
X132039360Y-108866940D01*
X132044440Y-108866940D01*
X132130800Y-108831380D01*
X132217160Y-108805980D01*
X132303520Y-108785660D01*
X132389880Y-108770420D01*
X132407660Y-108767880D01*
X132425440Y-108767880D01*
X132448300Y-108765340D01*
X132554980Y-108765340D01*
X132575300Y-108767880D01*
X134914640Y-110345220D02*
X134952740Y-110345220D01*
X134952740Y-110345220D02*
X134985760Y-110345220D01*
X134985760Y-110345220D02*
X135013700Y-110345220D01*
X135013700Y-110345220D02*
X135036560Y-110345220D01*
X135036560Y-110345220D02*
X135054340Y-110345220D01*
X135054340Y-110345220D02*
X135069580Y-110345220D01*
X135069580Y-110345220D02*
X135082280Y-110345220D01*
X135082280Y-110345220D02*
X135089900Y-110345220D01*
X135089900Y-110345220D02*
X135097520Y-110345220D01*
X135097520Y-110345220D02*
X135102600Y-110345220D01*
X135102600Y-110345220D02*
X135105140Y-110345220D01*
X135105140Y-110345220D02*
X135105140Y-110342680D01*
X135105140Y-110342680D02*
X135105140Y-110335060D01*
X135105140Y-110335060D02*
X135102600Y-110319820D01*
X135102600Y-110319820D02*
X135097520Y-110299500D01*
X135097520Y-110299500D02*
X135092440Y-110274100D01*
X135092440Y-110274100D02*
X135087360Y-110243620D01*
X135087360Y-110243620D02*
X135079740Y-110210600D01*
X135079740Y-110210600D02*
X135072120Y-110169960D01*
X135072120Y-110169960D02*
X135054340Y-110078520D01*
X135054340Y-110078520D02*
X135044180Y-110027720D01*
X135044180Y-110027720D02*
X135023860Y-109918500D01*
X135023860Y-109918500D02*
X135013700Y-109860080D01*
X135013700Y-109860080D02*
X134990840Y-109740700D01*
X134990840Y-109740700D02*
X134965440Y-109613700D01*
X134965440Y-109613700D02*
X134940040Y-109489240D01*
X134940040Y-109489240D02*
X134917180Y-109364780D01*
X134917180Y-109364780D02*
X134904480Y-109303820D01*
X134904480Y-109303820D02*
X134884160Y-109186980D01*
X134884160Y-109186980D02*
X134861300Y-109080300D01*
X134861300Y-109080300D02*
X134853680Y-109032040D01*
X134853680Y-109032040D02*
X134843520Y-108986320D01*
X134843520Y-108986320D02*
X134835900Y-108945680D01*
X134835900Y-108945680D02*
X134828280Y-108907580D01*
X134828280Y-108907580D02*
X134823200Y-108877100D01*
X134823200Y-108877100D02*
X134818120Y-108849160D01*
X134818120Y-108849160D02*
X134813040Y-108826300D01*
X134813040Y-108826300D02*
X134810500Y-108808520D01*
X134810500Y-108808520D02*
X134807960Y-108798360D01*
X134807960Y-108798360D02*
X134807960Y-108795820D01*
X134807960Y-108795820D02*
X134805420Y-108795820D01*
X134805420Y-108795820D02*
X134805420Y-108793280D01*
X134805420Y-108793280D02*
X134802880Y-108793280D01*
X134802880Y-108793280D02*
X134797800Y-108793280D01*
X134797800Y-108793280D02*
X134792720Y-108793280D01*
X134792720Y-108793280D02*
X134782560Y-108793280D01*
X134782560Y-108793280D02*
X134772400Y-108793280D01*
X134772400Y-108793280D02*
X134757160Y-108793280D01*
X134757160Y-108793280D02*
X134736840Y-108793280D01*
X134736840Y-108793280D02*
X134716520Y-108793280D01*
X134716520Y-108793280D02*
X134688580Y-108793280D01*
X134688580Y-108793280D02*
X134655560Y-108793280D01*
X134655560Y-108793280D02*
X134617460Y-108793280D01*
X134617460Y-108793280D02*
X134574280Y-108793280D01*
X134574280Y-108793280D02*
X134526020Y-108793280D01*
X134526020Y-108793280D02*
X134424420Y-108793280D01*
X134424420Y-108793280D02*
X134371080Y-108793280D01*
X134371080Y-108793280D02*
X134325360Y-108793280D01*
X134325360Y-108793280D02*
X134284720Y-108793280D01*
X134284720Y-108793280D02*
X134249160Y-108793280D01*
X134249160Y-108793280D02*
X134218680Y-108793280D01*
X134218680Y-108793280D02*
X134193280Y-108793280D01*
X134193280Y-108793280D02*
X134170420Y-108793280D01*
X134170420Y-108793280D02*
X134150100Y-108795820D01*
X134150100Y-108795820D02*
X134134860Y-108795820D01*
X134134860Y-108795820D02*
X134119620Y-108795820D01*
X134119620Y-108795820D02*
X134109460Y-108795820D01*
X134109460Y-108795820D02*
X134096760Y-108795820D01*
X134096760Y-108795820D02*
X134086600Y-108798360D01*
X134086600Y-108798360D02*
X134076440Y-108798360D01*
X134076440Y-108798360D02*
X134068820Y-108798360D01*
X134068820Y-108798360D02*
X134058660Y-108800900D01*
X134058660Y-108800900D02*
X134020560Y-108805980D01*
X134020560Y-108805980D02*
X133959600Y-108816140D01*
X133959600Y-108816140D02*
X133903720Y-108831380D01*
X133903720Y-108831380D02*
X133855460Y-108849160D01*
X133855460Y-108849160D02*
X133814820Y-108869480D01*
X133814820Y-108869480D02*
X133776720Y-108894880D01*
X133776720Y-108894880D02*
X133746240Y-108922820D01*
X133746240Y-108922820D02*
X133720840Y-108955840D01*
X133720840Y-108955840D02*
X133700520Y-108991400D01*
X133700520Y-108991400D02*
X133685280Y-109032040D01*
X133685280Y-109032040D02*
X133677660Y-109075220D01*
X133677660Y-109075220D02*
X133677660Y-109080300D01*
X133677660Y-109080300D02*
X133675120Y-109113320D01*
X133675120Y-109113320D02*
X133675120Y-109148880D01*
X133675120Y-109148880D02*
X133677660Y-109184440D01*
X133677660Y-109184440D02*
X133682740Y-109217460D01*
X133682740Y-109217460D02*
X133687820Y-109237780D01*
X133687820Y-109237780D02*
X133703060Y-109286040D01*
X133703060Y-109286040D02*
X133725920Y-109331760D01*
X133725920Y-109331760D02*
X133751320Y-109372400D01*
X133751320Y-109372400D02*
X133781800Y-109410500D01*
X133781800Y-109410500D02*
X133817360Y-109446060D01*
X133817360Y-109446060D02*
X133855460Y-109471460D01*
X133855460Y-109471460D02*
X133860540Y-109476540D01*
X133860540Y-109476540D02*
X133880860Y-109486700D01*
X133880860Y-109486700D02*
X133906260Y-109496860D01*
X133906260Y-109496860D02*
X133929120Y-109507020D01*
X133929120Y-109507020D02*
X133936740Y-109509560D01*
X133936740Y-109509560D02*
X133944360Y-109512100D01*
X133944360Y-109512100D02*
X133949440Y-109514640D01*
X133949440Y-109514640D02*
X133946900Y-109517180D01*
X133946900Y-109517180D02*
X133936740Y-109519720D01*
X133936740Y-109519720D02*
X133906260Y-109532420D01*
X133906260Y-109532420D02*
X133870700Y-109552740D01*
X133870700Y-109552740D02*
X133840220Y-109575600D01*
X133840220Y-109575600D02*
X133814820Y-109598460D01*
X133814820Y-109598460D02*
X133794500Y-109626400D01*
X133794500Y-109626400D02*
X133774180Y-109659420D01*
X133774180Y-109659420D02*
X133761480Y-109697520D01*
X133761480Y-109697520D02*
X133748780Y-109738160D01*
X133748780Y-109738160D02*
X133748780Y-109743240D01*
X133748780Y-109743240D02*
X133746240Y-109750860D01*
X133746240Y-109750860D02*
X133746240Y-109758480D01*
X133746240Y-109758480D02*
X133743700Y-109768640D01*
X133743700Y-109768640D02*
X133743700Y-109778800D01*
X133743700Y-109778800D02*
X133743700Y-109794040D01*
X133743700Y-109794040D02*
X133743700Y-109814360D01*
X133743700Y-109814360D02*
X133743700Y-109827060D01*
X133743700Y-109827060D02*
X133743700Y-109852460D01*
X133743700Y-109852460D02*
X133746240Y-109872780D01*
X133746240Y-109872780D02*
X133746240Y-109885480D01*
X133746240Y-109885480D02*
X133751320Y-109918500D01*
X133751320Y-109918500D02*
X133764020Y-109969300D01*
X133764020Y-109969300D02*
X133781800Y-110017560D01*
X133781800Y-110017560D02*
X133802120Y-110060740D01*
X133802120Y-110060740D02*
X133827520Y-110103920D01*
X133827520Y-110103920D02*
X133835140Y-110114080D01*
X133835140Y-110114080D02*
X133847840Y-110126780D01*
X133847840Y-110126780D02*
X133858000Y-110139480D01*
X133858000Y-110139480D02*
X133873240Y-110154720D01*
X133873240Y-110154720D02*
X133891020Y-110175040D01*
X133891020Y-110175040D02*
X133936740Y-110210600D01*
X133936740Y-110210600D02*
X133987540Y-110243620D01*
X133987540Y-110243620D02*
X134040880Y-110271560D01*
X134040880Y-110271560D02*
X134101840Y-110294420D01*
X134101840Y-110294420D02*
X134167880Y-110314740D01*
X134167880Y-110314740D02*
X134236460Y-110329980D01*
X134236460Y-110329980D02*
X134310120Y-110340140D01*
X134310120Y-110340140D02*
X134388860Y-110345220D01*
X134388860Y-110345220D02*
X134391400Y-110345220D01*
X134391400Y-110345220D02*
X134401560Y-110345220D01*
X134401560Y-110345220D02*
X134419340Y-110345220D01*
X134419340Y-110345220D02*
X134442200Y-110345220D01*
X134442200Y-110345220D02*
X134470140Y-110345220D01*
X134470140Y-110345220D02*
X134500620Y-110345220D01*
X134500620Y-110345220D02*
X134538720Y-110345220D01*
X134538720Y-110345220D02*
X134579360Y-110345220D01*
X134579360Y-110345220D02*
X134581900Y-110345220D01*
X134581900Y-110345220D02*
X134581900Y-110073440D01*
X134581900Y-110073440D02*
X134556500Y-110073440D01*
X134556500Y-110073440D02*
X134526020Y-110073440D01*
X134526020Y-110073440D02*
X134498080Y-110073440D01*
X134498080Y-110073440D02*
X134465060Y-110073440D01*
X134465060Y-110073440D02*
X134434580Y-110073440D01*
X134434580Y-110073440D02*
X134411720Y-110070900D01*
X134411720Y-110070900D02*
X134391400Y-110070900D01*
X134391400Y-110070900D02*
X134376160Y-110070900D01*
X134376160Y-110070900D02*
X134360920Y-110068360D01*
X134360920Y-110068360D02*
X134350760Y-110068360D01*
X134350760Y-110068360D02*
X134338060Y-110065820D01*
X134338060Y-110065820D02*
X134327900Y-110063280D01*
X134327900Y-110063280D02*
X134317740Y-110060740D01*
X134317740Y-110060740D02*
X134292340Y-110053120D01*
X134292340Y-110053120D02*
X134256780Y-110035340D01*
X134256780Y-110035340D02*
X134223760Y-110015020D01*
X134223760Y-110015020D02*
X134195820Y-109989620D01*
X134195820Y-109989620D02*
X134175500Y-109959140D01*
X134175500Y-109959140D02*
X134157720Y-109923580D01*
X134157720Y-109923580D02*
X134147560Y-109882940D01*
X134147560Y-109882940D02*
X134145020Y-109872780D01*
X134145020Y-109872780D02*
X134142480Y-109844840D01*
X134142480Y-109844840D02*
X134142480Y-109819440D01*
X134142480Y-109819440D02*
X134142480Y-109794040D01*
X134142480Y-109794040D02*
X134147560Y-109773720D01*
X134147560Y-109773720D02*
X134147560Y-109768640D01*
X134147560Y-109768640D02*
X134152640Y-109758480D01*
X134152640Y-109758480D02*
X134157720Y-109745780D01*
X134157720Y-109745780D02*
X134160260Y-109738160D01*
X134160260Y-109738160D02*
X134167880Y-109728000D01*
X134167880Y-109728000D02*
X134178040Y-109717840D01*
X134178040Y-109717840D02*
X134183120Y-109710220D01*
X134183120Y-109710220D02*
X134205980Y-109694980D01*
X134205980Y-109694980D02*
X134233920Y-109682280D01*
X134233920Y-109682280D02*
X134266940Y-109674660D01*
X134266940Y-109674660D02*
X134305040Y-109669580D01*
X134305040Y-109669580D02*
X134312660Y-109667040D01*
X134312660Y-109667040D02*
X134327900Y-109667040D01*
X134327900Y-109667040D02*
X134350760Y-109667040D01*
X134350760Y-109667040D02*
X134378700Y-109667040D01*
X134378700Y-109667040D02*
X134414260Y-109667040D01*
X134414260Y-109667040D02*
X134421880Y-109667040D01*
X134421880Y-109667040D02*
X134421880Y-109392720D01*
X134421880Y-109392720D02*
X134393940Y-109392720D01*
X134393940Y-109392720D02*
X134368540Y-109392720D01*
X134368540Y-109392720D02*
X134345680Y-109392720D01*
X134345680Y-109392720D02*
X134322820Y-109392720D01*
X134322820Y-109392720D02*
X134302500Y-109392720D01*
X134302500Y-109392720D02*
X134287260Y-109392720D01*
X134287260Y-109392720D02*
X134277100Y-109392720D01*
X134277100Y-109392720D02*
X134272020Y-109392720D01*
X134272020Y-109392720D02*
X134251700Y-109390180D01*
X134251700Y-109390180D02*
X134216140Y-109380020D01*
X134216140Y-109380020D02*
X134185660Y-109369860D01*
X134185660Y-109369860D02*
X134157720Y-109352080D01*
X134157720Y-109352080D02*
X134134860Y-109331760D01*
X134134860Y-109331760D02*
X134114540Y-109308900D01*
X134114540Y-109308900D02*
X134096760Y-109278420D01*
X134096760Y-109278420D02*
X134086600Y-109245400D01*
X134086600Y-109245400D02*
X134084060Y-109237780D01*
X134084060Y-109237780D02*
X134081520Y-109220000D01*
X134081520Y-109220000D02*
X134081520Y-109197140D01*
X134081520Y-109197140D02*
X134081520Y-109179360D01*
X134081520Y-109179360D02*
X134084060Y-109161580D01*
X134084060Y-109161580D02*
X134086600Y-109148880D01*
X134086600Y-109148880D02*
X134099300Y-109126020D01*
X134099300Y-109126020D02*
X134114540Y-109103160D01*
X134114540Y-109103160D02*
X134137400Y-109087920D01*
X134137400Y-109087920D02*
X134165340Y-109075220D01*
X134165340Y-109075220D02*
X134198360Y-109067600D01*
X134198360Y-109067600D02*
X134203440Y-109067600D01*
X134203440Y-109067600D02*
X134211060Y-109067600D01*
X134211060Y-109067600D02*
X134221220Y-109067600D01*
X134221220Y-109067600D02*
X134236460Y-109067600D01*
X134236460Y-109067600D02*
X134254240Y-109065060D01*
X134254240Y-109065060D02*
X134277100Y-109065060D01*
X134277100Y-109065060D02*
X134305040Y-109065060D01*
X134305040Y-109065060D02*
X134340600Y-109065060D01*
X134340600Y-109065060D02*
X134366000Y-109065060D01*
X134366000Y-109065060D02*
X134393940Y-109065060D01*
X134393940Y-109065060D02*
X134416800Y-109065060D01*
X134416800Y-109065060D02*
X134437120Y-109065060D01*
X134437120Y-109065060D02*
X134452360Y-109067600D01*
X134452360Y-109067600D02*
X134462520Y-109067600D01*
X134462520Y-109067600D02*
X134465060Y-109067600D01*
X134465060Y-109067600D02*
X134465060Y-109070140D01*
X134465060Y-109070140D02*
X134467600Y-109080300D01*
X134467600Y-109080300D02*
X134470140Y-109095540D01*
X134470140Y-109095540D02*
X134475220Y-109115860D01*
X134475220Y-109115860D02*
X134477760Y-109138720D01*
X134477760Y-109138720D02*
X134482840Y-109166660D01*
X134482840Y-109166660D02*
X134490460Y-109197140D01*
X134490460Y-109197140D02*
X134503160Y-109260640D01*
X134503160Y-109260640D02*
X134508240Y-109291120D01*
X134508240Y-109291120D02*
X134513320Y-109319060D01*
X134513320Y-109319060D02*
X134518400Y-109344460D01*
X134518400Y-109344460D02*
X134523480Y-109364780D01*
X134523480Y-109364780D02*
X134526020Y-109380020D01*
X134526020Y-109380020D02*
X134526020Y-109390180D01*
X134526020Y-109390180D02*
X134528560Y-109392720D01*
X134528560Y-109392720D02*
X134526020Y-109392720D01*
X134526020Y-109392720D02*
X134520940Y-109392720D01*
X134520940Y-109392720D02*
X134508240Y-109392720D01*
X134508240Y-109392720D02*
X134490460Y-109392720D01*
X134490460Y-109392720D02*
X134470140Y-109392720D01*
X134470140Y-109392720D02*
X134447280Y-109392720D01*
X134447280Y-109392720D02*
X134421880Y-109392720D01*
X134421880Y-109392720D02*
X134421880Y-109667040D01*
X134421880Y-109667040D02*
X134454900Y-109667040D01*
X134454900Y-109667040D02*
X134581900Y-109667040D01*
X134581900Y-109667040D02*
X134627620Y-109903260D01*
X134627620Y-109903260D02*
X134645400Y-109999780D01*
X134645400Y-109999780D02*
X134650480Y-110022640D01*
X134650480Y-110022640D02*
X134655560Y-110058200D01*
X134655560Y-110058200D02*
X134658100Y-110068360D01*
X134658100Y-110068360D02*
X134658100Y-110073440D01*
X134658100Y-110073440D02*
X134655560Y-110073440D01*
X134655560Y-110073440D02*
X134642860Y-110073440D01*
X134642860Y-110073440D02*
X134627620Y-110073440D01*
X134627620Y-110073440D02*
X134607300Y-110073440D01*
X134607300Y-110073440D02*
X134581900Y-110073440D01*
X134581900Y-110073440D02*
X134581900Y-110345220D01*
X134581900Y-110345220D02*
X134622540Y-110345220D01*
X134622540Y-110345220D02*
X134668260Y-110345220D01*
X134668260Y-110345220D02*
X134716520Y-110345220D01*
X134716520Y-110345220D02*
X134764780Y-110345220D01*
X134764780Y-110345220D02*
X134820660Y-110345220D01*
X134820660Y-110345220D02*
X134868920Y-110345220D01*
X134868920Y-110345220D02*
X134914640Y-110345220D01*
X134914640Y-110345220D02*
X134914640Y-110345220D01*
G36*
X134310120Y-110340140D02*
G01*
X134236460Y-110329980D01*
X134167880Y-110314740D01*
X134101840Y-110294420D01*
X134040880Y-110271560D01*
X133987540Y-110243620D01*
X133936740Y-110210600D01*
X133891020Y-110175040D01*
X133873240Y-110154720D01*
X133858000Y-110139480D01*
X133847840Y-110126780D01*
X133835140Y-110114080D01*
X133827520Y-110103920D01*
X133802120Y-110060740D01*
X133781800Y-110017560D01*
X133764020Y-109969300D01*
X133751320Y-109918500D01*
X133746240Y-109885480D01*
X133746240Y-109872780D01*
X133743700Y-109852460D01*
X133743700Y-109844840D01*
X134142480Y-109844840D01*
X134145020Y-109872780D01*
X134157720Y-109923580D01*
X134175500Y-109959140D01*
X134195820Y-109989620D01*
X134223760Y-110015020D01*
X134256780Y-110035340D01*
X134292340Y-110053120D01*
X134317740Y-110060740D01*
X134338060Y-110065820D01*
X134350760Y-110068360D01*
X134360920Y-110068360D01*
X134376160Y-110070900D01*
X134411720Y-110070900D01*
X134434580Y-110073440D01*
X134658100Y-110073440D01*
X134658100Y-110068360D01*
X134655560Y-110058200D01*
X134650480Y-110022640D01*
X134645400Y-109999780D01*
X134627620Y-109903260D01*
X134581900Y-109667040D01*
X134312660Y-109667040D01*
X134305040Y-109669580D01*
X134266940Y-109674660D01*
X134233920Y-109682280D01*
X134205980Y-109694980D01*
X134183120Y-109710220D01*
X134178040Y-109717840D01*
X134167880Y-109728000D01*
X134160260Y-109738160D01*
X134157720Y-109745780D01*
X134152640Y-109758480D01*
X134147560Y-109768640D01*
X134147560Y-109773720D01*
X134142480Y-109794040D01*
X134142480Y-109844840D01*
X133743700Y-109844840D01*
X133743700Y-109768640D01*
X133746240Y-109758480D01*
X133746240Y-109750860D01*
X133748780Y-109743240D01*
X133748780Y-109738160D01*
X133761480Y-109697520D01*
X133774180Y-109659420D01*
X133794500Y-109626400D01*
X133814820Y-109598460D01*
X133840220Y-109575600D01*
X133870700Y-109552740D01*
X133906260Y-109532420D01*
X133936740Y-109519720D01*
X133946900Y-109517180D01*
X133949440Y-109514640D01*
X133944360Y-109512100D01*
X133929120Y-109507020D01*
X133906260Y-109496860D01*
X133880860Y-109486700D01*
X133860540Y-109476540D01*
X133855460Y-109471460D01*
X133817360Y-109446060D01*
X133781800Y-109410500D01*
X133751320Y-109372400D01*
X133725920Y-109331760D01*
X133703060Y-109286040D01*
X133687820Y-109237780D01*
X133683375Y-109220000D01*
X134081520Y-109220000D01*
X134084060Y-109237780D01*
X134086600Y-109245400D01*
X134096760Y-109278420D01*
X134114540Y-109308900D01*
X134134860Y-109331760D01*
X134157720Y-109352080D01*
X134185660Y-109369860D01*
X134216140Y-109380020D01*
X134251700Y-109390180D01*
X134272020Y-109392720D01*
X134528560Y-109392720D01*
X134526020Y-109390180D01*
X134526020Y-109380020D01*
X134523480Y-109364780D01*
X134518400Y-109344460D01*
X134513320Y-109319060D01*
X134508240Y-109291120D01*
X134503160Y-109260640D01*
X134490460Y-109197140D01*
X134482840Y-109166660D01*
X134477760Y-109138720D01*
X134475220Y-109115860D01*
X134470140Y-109095540D01*
X134467600Y-109080300D01*
X134465060Y-109070140D01*
X134465060Y-109067600D01*
X134452360Y-109067600D01*
X134437120Y-109065060D01*
X134254240Y-109065060D01*
X134236460Y-109067600D01*
X134198360Y-109067600D01*
X134165340Y-109075220D01*
X134137400Y-109087920D01*
X134114540Y-109103160D01*
X134099300Y-109126020D01*
X134086600Y-109148880D01*
X134084060Y-109161580D01*
X134081520Y-109179360D01*
X134081520Y-109220000D01*
X133683375Y-109220000D01*
X133682740Y-109217460D01*
X133677660Y-109184440D01*
X133675120Y-109148880D01*
X133675120Y-109113320D01*
X133677660Y-109080300D01*
X133677660Y-109075220D01*
X133685280Y-109032040D01*
X133700520Y-108991400D01*
X133720840Y-108955840D01*
X133746240Y-108922820D01*
X133776720Y-108894880D01*
X133814820Y-108869480D01*
X133855460Y-108849160D01*
X133903720Y-108831380D01*
X133959600Y-108816140D01*
X134020560Y-108805980D01*
X134058660Y-108800900D01*
X134068820Y-108798360D01*
X134086600Y-108798360D01*
X134096760Y-108795820D01*
X134150100Y-108795820D01*
X134170420Y-108793280D01*
X134805420Y-108793280D01*
X134805420Y-108795820D01*
X134807960Y-108795820D01*
X134807960Y-108798360D01*
X134810500Y-108808520D01*
X134813040Y-108826300D01*
X134818120Y-108849160D01*
X134823200Y-108877100D01*
X134828280Y-108907580D01*
X134835900Y-108945680D01*
X134843520Y-108986320D01*
X134853680Y-109032040D01*
X134861300Y-109080300D01*
X134884160Y-109186980D01*
X134904480Y-109303820D01*
X134917180Y-109364780D01*
X134940040Y-109489240D01*
X134965440Y-109613700D01*
X134990840Y-109740700D01*
X135013700Y-109860080D01*
X135023860Y-109918500D01*
X135044180Y-110027720D01*
X135054340Y-110078520D01*
X135072120Y-110169960D01*
X135079740Y-110210600D01*
X135087360Y-110243620D01*
X135092440Y-110274100D01*
X135097520Y-110299500D01*
X135102600Y-110319820D01*
X135105140Y-110335060D01*
X135105140Y-110345220D01*
X134388860Y-110345220D01*
X134310120Y-110340140D01*
G37*
X134310120Y-110340140D02*
X134236460Y-110329980D01*
X134167880Y-110314740D01*
X134101840Y-110294420D01*
X134040880Y-110271560D01*
X133987540Y-110243620D01*
X133936740Y-110210600D01*
X133891020Y-110175040D01*
X133873240Y-110154720D01*
X133858000Y-110139480D01*
X133847840Y-110126780D01*
X133835140Y-110114080D01*
X133827520Y-110103920D01*
X133802120Y-110060740D01*
X133781800Y-110017560D01*
X133764020Y-109969300D01*
X133751320Y-109918500D01*
X133746240Y-109885480D01*
X133746240Y-109872780D01*
X133743700Y-109852460D01*
X133743700Y-109844840D01*
X134142480Y-109844840D01*
X134145020Y-109872780D01*
X134157720Y-109923580D01*
X134175500Y-109959140D01*
X134195820Y-109989620D01*
X134223760Y-110015020D01*
X134256780Y-110035340D01*
X134292340Y-110053120D01*
X134317740Y-110060740D01*
X134338060Y-110065820D01*
X134350760Y-110068360D01*
X134360920Y-110068360D01*
X134376160Y-110070900D01*
X134411720Y-110070900D01*
X134434580Y-110073440D01*
X134658100Y-110073440D01*
X134658100Y-110068360D01*
X134655560Y-110058200D01*
X134650480Y-110022640D01*
X134645400Y-109999780D01*
X134627620Y-109903260D01*
X134581900Y-109667040D01*
X134312660Y-109667040D01*
X134305040Y-109669580D01*
X134266940Y-109674660D01*
X134233920Y-109682280D01*
X134205980Y-109694980D01*
X134183120Y-109710220D01*
X134178040Y-109717840D01*
X134167880Y-109728000D01*
X134160260Y-109738160D01*
X134157720Y-109745780D01*
X134152640Y-109758480D01*
X134147560Y-109768640D01*
X134147560Y-109773720D01*
X134142480Y-109794040D01*
X134142480Y-109844840D01*
X133743700Y-109844840D01*
X133743700Y-109768640D01*
X133746240Y-109758480D01*
X133746240Y-109750860D01*
X133748780Y-109743240D01*
X133748780Y-109738160D01*
X133761480Y-109697520D01*
X133774180Y-109659420D01*
X133794500Y-109626400D01*
X133814820Y-109598460D01*
X133840220Y-109575600D01*
X133870700Y-109552740D01*
X133906260Y-109532420D01*
X133936740Y-109519720D01*
X133946900Y-109517180D01*
X133949440Y-109514640D01*
X133944360Y-109512100D01*
X133929120Y-109507020D01*
X133906260Y-109496860D01*
X133880860Y-109486700D01*
X133860540Y-109476540D01*
X133855460Y-109471460D01*
X133817360Y-109446060D01*
X133781800Y-109410500D01*
X133751320Y-109372400D01*
X133725920Y-109331760D01*
X133703060Y-109286040D01*
X133687820Y-109237780D01*
X133683375Y-109220000D01*
X134081520Y-109220000D01*
X134084060Y-109237780D01*
X134086600Y-109245400D01*
X134096760Y-109278420D01*
X134114540Y-109308900D01*
X134134860Y-109331760D01*
X134157720Y-109352080D01*
X134185660Y-109369860D01*
X134216140Y-109380020D01*
X134251700Y-109390180D01*
X134272020Y-109392720D01*
X134528560Y-109392720D01*
X134526020Y-109390180D01*
X134526020Y-109380020D01*
X134523480Y-109364780D01*
X134518400Y-109344460D01*
X134513320Y-109319060D01*
X134508240Y-109291120D01*
X134503160Y-109260640D01*
X134490460Y-109197140D01*
X134482840Y-109166660D01*
X134477760Y-109138720D01*
X134475220Y-109115860D01*
X134470140Y-109095540D01*
X134467600Y-109080300D01*
X134465060Y-109070140D01*
X134465060Y-109067600D01*
X134452360Y-109067600D01*
X134437120Y-109065060D01*
X134254240Y-109065060D01*
X134236460Y-109067600D01*
X134198360Y-109067600D01*
X134165340Y-109075220D01*
X134137400Y-109087920D01*
X134114540Y-109103160D01*
X134099300Y-109126020D01*
X134086600Y-109148880D01*
X134084060Y-109161580D01*
X134081520Y-109179360D01*
X134081520Y-109220000D01*
X133683375Y-109220000D01*
X133682740Y-109217460D01*
X133677660Y-109184440D01*
X133675120Y-109148880D01*
X133675120Y-109113320D01*
X133677660Y-109080300D01*
X133677660Y-109075220D01*
X133685280Y-109032040D01*
X133700520Y-108991400D01*
X133720840Y-108955840D01*
X133746240Y-108922820D01*
X133776720Y-108894880D01*
X133814820Y-108869480D01*
X133855460Y-108849160D01*
X133903720Y-108831380D01*
X133959600Y-108816140D01*
X134020560Y-108805980D01*
X134058660Y-108800900D01*
X134068820Y-108798360D01*
X134086600Y-108798360D01*
X134096760Y-108795820D01*
X134150100Y-108795820D01*
X134170420Y-108793280D01*
X134805420Y-108793280D01*
X134805420Y-108795820D01*
X134807960Y-108795820D01*
X134807960Y-108798360D01*
X134810500Y-108808520D01*
X134813040Y-108826300D01*
X134818120Y-108849160D01*
X134823200Y-108877100D01*
X134828280Y-108907580D01*
X134835900Y-108945680D01*
X134843520Y-108986320D01*
X134853680Y-109032040D01*
X134861300Y-109080300D01*
X134884160Y-109186980D01*
X134904480Y-109303820D01*
X134917180Y-109364780D01*
X134940040Y-109489240D01*
X134965440Y-109613700D01*
X134990840Y-109740700D01*
X135013700Y-109860080D01*
X135023860Y-109918500D01*
X135044180Y-110027720D01*
X135054340Y-110078520D01*
X135072120Y-110169960D01*
X135079740Y-110210600D01*
X135087360Y-110243620D01*
X135092440Y-110274100D01*
X135097520Y-110299500D01*
X135102600Y-110319820D01*
X135105140Y-110335060D01*
X135105140Y-110345220D01*
X134388860Y-110345220D01*
X134310120Y-110340140D01*
X136834880Y-110357920D02*
X136852660Y-110357920D01*
X136852660Y-110357920D02*
X136870440Y-110357920D01*
X136870440Y-110357920D02*
X136888220Y-110355380D01*
X136888220Y-110355380D02*
X136903460Y-110355380D01*
X136903460Y-110355380D02*
X136916160Y-110352840D01*
X136916160Y-110352840D02*
X136928860Y-110350300D01*
X136928860Y-110350300D02*
X136966960Y-110342680D01*
X136966960Y-110342680D02*
X137002520Y-110327440D01*
X137002520Y-110327440D02*
X137030460Y-110309660D01*
X137030460Y-110309660D02*
X137055860Y-110289340D01*
X137055860Y-110289340D02*
X137066020Y-110276640D01*
X137066020Y-110276640D02*
X137091420Y-110243620D01*
X137091420Y-110243620D02*
X137111740Y-110205520D01*
X137111740Y-110205520D02*
X137126980Y-110164880D01*
X137126980Y-110164880D02*
X137129520Y-110157260D01*
X137129520Y-110157260D02*
X137137140Y-110116620D01*
X137137140Y-110116620D02*
X137144760Y-110068360D01*
X137144760Y-110068360D02*
X137147300Y-110017560D01*
X137147300Y-110017560D02*
X137147300Y-109959140D01*
X137147300Y-109959140D02*
X137144760Y-109898180D01*
X137144760Y-109898180D02*
X137137140Y-109829600D01*
X137137140Y-109829600D02*
X137129520Y-109755940D01*
X137129520Y-109755940D02*
X137116820Y-109677200D01*
X137116820Y-109677200D02*
X137101580Y-109593380D01*
X137101580Y-109593380D02*
X137081260Y-109501940D01*
X137081260Y-109501940D02*
X137073640Y-109461300D01*
X137073640Y-109461300D02*
X137053320Y-109377480D01*
X137053320Y-109377480D02*
X137033000Y-109301280D01*
X137033000Y-109301280D02*
X137010140Y-109227620D01*
X137010140Y-109227620D02*
X136989820Y-109164120D01*
X136989820Y-109164120D02*
X136964420Y-109103160D01*
X136964420Y-109103160D02*
X136941560Y-109049820D01*
X136941560Y-109049820D02*
X136916160Y-109001560D01*
X136916160Y-109001560D02*
X136888220Y-108958380D01*
X136888220Y-108958380D02*
X136860280Y-108920280D01*
X136860280Y-108920280D02*
X136852660Y-108910120D01*
X136852660Y-108910120D02*
X136837420Y-108894880D01*
X136837420Y-108894880D02*
X136822180Y-108879640D01*
X136822180Y-108879640D02*
X136806940Y-108864400D01*
X136806940Y-108864400D02*
X136794240Y-108851700D01*
X136794240Y-108851700D02*
X136784080Y-108841540D01*
X136784080Y-108841540D02*
X136776460Y-108836460D01*
X136776460Y-108836460D02*
X136735820Y-108811060D01*
X136735820Y-108811060D02*
X136695180Y-108790740D01*
X136695180Y-108790740D02*
X136649460Y-108775500D01*
X136649460Y-108775500D02*
X136601200Y-108765340D01*
X136601200Y-108765340D02*
X136550400Y-108762800D01*
X136550400Y-108762800D02*
X136535160Y-108760260D01*
X136535160Y-108760260D02*
X136486900Y-108762800D01*
X136486900Y-108762800D02*
X136443720Y-108770420D01*
X136443720Y-108770420D02*
X136403080Y-108783120D01*
X136403080Y-108783120D02*
X136367520Y-108800900D01*
X136367520Y-108800900D02*
X136337040Y-108823760D01*
X136337040Y-108823760D02*
X136311640Y-108851700D01*
X136311640Y-108851700D02*
X136288780Y-108884720D01*
X136288780Y-108884720D02*
X136271000Y-108925360D01*
X136271000Y-108925360D02*
X136258300Y-108971080D01*
X136258300Y-108971080D02*
X136253220Y-108986320D01*
X136253220Y-108986320D02*
X136245600Y-109032040D01*
X136245600Y-109032040D02*
X136240520Y-109085380D01*
X136240520Y-109085380D02*
X136240520Y-109143800D01*
X136240520Y-109143800D02*
X136243060Y-109209840D01*
X136243060Y-109209840D02*
X136248140Y-109280960D01*
X136248140Y-109280960D02*
X136258300Y-109354620D01*
X136258300Y-109354620D02*
X136271000Y-109438440D01*
X136271000Y-109438440D02*
X136286240Y-109524800D01*
X136286240Y-109524800D02*
X136304020Y-109616240D01*
X136304020Y-109616240D02*
X136314180Y-109654340D01*
X136314180Y-109654340D02*
X136334500Y-109743240D01*
X136334500Y-109743240D02*
X136354820Y-109821980D01*
X136354820Y-109821980D02*
X136377680Y-109895640D01*
X136377680Y-109895640D02*
X136403080Y-109964220D01*
X136403080Y-109964220D02*
X136425940Y-110025180D01*
X136425940Y-110025180D02*
X136451340Y-110078520D01*
X136451340Y-110078520D02*
X136476740Y-110126780D01*
X136476740Y-110126780D02*
X136479280Y-110129320D01*
X136479280Y-110129320D02*
X136504680Y-110169960D01*
X136504680Y-110169960D02*
X136535160Y-110205520D01*
X136535160Y-110205520D02*
X136565640Y-110241080D01*
X136565640Y-110241080D02*
X136596120Y-110271560D01*
X136596120Y-110271560D02*
X136629140Y-110294420D01*
X136629140Y-110294420D02*
X136649460Y-110307120D01*
X136649460Y-110307120D02*
X136685020Y-110324900D01*
X136685020Y-110324900D02*
X136725660Y-110340140D01*
X136725660Y-110340140D02*
X136768840Y-110350300D01*
X136768840Y-110350300D02*
X136814560Y-110357920D01*
X136814560Y-110357920D02*
X136814560Y-110208060D01*
X136814560Y-110208060D02*
X136781540Y-110205520D01*
X136781540Y-110205520D02*
X136748520Y-110192820D01*
X136748520Y-110192820D02*
X136715500Y-110177580D01*
X136715500Y-110177580D02*
X136685020Y-110154720D01*
X136685020Y-110154720D02*
X136659620Y-110126780D01*
X136659620Y-110126780D02*
X136644380Y-110106460D01*
X136644380Y-110106460D02*
X136621520Y-110068360D01*
X136621520Y-110068360D02*
X136596120Y-110022640D01*
X136596120Y-110022640D02*
X136573260Y-109971840D01*
X136573260Y-109971840D02*
X136550400Y-109913420D01*
X136550400Y-109913420D02*
X136530080Y-109849920D01*
X136530080Y-109849920D02*
X136507220Y-109778800D01*
X136507220Y-109778800D02*
X136489440Y-109702600D01*
X136489440Y-109702600D02*
X136469120Y-109623860D01*
X136469120Y-109623860D02*
X136451340Y-109537500D01*
X136451340Y-109537500D02*
X136436100Y-109446060D01*
X136436100Y-109446060D02*
X136433560Y-109433360D01*
X136433560Y-109433360D02*
X136431020Y-109413040D01*
X136431020Y-109413040D02*
X136428480Y-109390180D01*
X136428480Y-109390180D02*
X136423400Y-109367320D01*
X136423400Y-109367320D02*
X136420860Y-109344460D01*
X136420860Y-109344460D02*
X136418320Y-109324140D01*
X136418320Y-109324140D02*
X136415780Y-109306360D01*
X136415780Y-109306360D02*
X136413240Y-109291120D01*
X136413240Y-109291120D02*
X136413240Y-109280960D01*
X136413240Y-109280960D02*
X136413240Y-109278420D01*
X136413240Y-109278420D02*
X136415780Y-109280960D01*
X136415780Y-109280960D02*
X136420860Y-109288580D01*
X136420860Y-109288580D02*
X136431020Y-109301280D01*
X136431020Y-109301280D02*
X136443720Y-109319060D01*
X136443720Y-109319060D02*
X136461500Y-109339380D01*
X136461500Y-109339380D02*
X136479280Y-109362240D01*
X136479280Y-109362240D02*
X136499600Y-109390180D01*
X136499600Y-109390180D02*
X136525000Y-109420660D01*
X136525000Y-109420660D02*
X136550400Y-109453680D01*
X136550400Y-109453680D02*
X136575800Y-109489240D01*
X136575800Y-109489240D02*
X136603740Y-109524800D01*
X136603740Y-109524800D02*
X136634220Y-109562900D01*
X136634220Y-109562900D02*
X136662160Y-109601000D01*
X136662160Y-109601000D02*
X136692640Y-109639100D01*
X136692640Y-109639100D02*
X136753600Y-109717840D01*
X136753600Y-109717840D02*
X136781540Y-109755940D01*
X136781540Y-109755940D02*
X136809480Y-109791500D01*
X136809480Y-109791500D02*
X136837420Y-109827060D01*
X136837420Y-109827060D02*
X136862820Y-109860080D01*
X136862820Y-109860080D02*
X136885680Y-109890560D01*
X136885680Y-109890560D02*
X136908540Y-109918500D01*
X136908540Y-109918500D02*
X136926320Y-109943900D01*
X136926320Y-109943900D02*
X136944100Y-109964220D01*
X136944100Y-109964220D02*
X136956800Y-109982000D01*
X136956800Y-109982000D02*
X136966960Y-109994700D01*
X136966960Y-109994700D02*
X136969500Y-109997240D01*
X136969500Y-109997240D02*
X136969500Y-109804200D01*
X136969500Y-109804200D02*
X136969500Y-109801660D01*
X136969500Y-109801660D02*
X136964420Y-109796580D01*
X136964420Y-109796580D02*
X136956800Y-109786420D01*
X136956800Y-109786420D02*
X136944100Y-109771180D01*
X136944100Y-109771180D02*
X136928860Y-109753400D01*
X136928860Y-109753400D02*
X136911080Y-109730540D01*
X136911080Y-109730540D02*
X136890760Y-109702600D01*
X136890760Y-109702600D02*
X136867900Y-109674660D01*
X136867900Y-109674660D02*
X136845040Y-109641640D01*
X136845040Y-109641640D02*
X136817100Y-109608620D01*
X136817100Y-109608620D02*
X136789160Y-109573060D01*
X136789160Y-109573060D02*
X136761220Y-109537500D01*
X136761220Y-109537500D02*
X136733280Y-109499400D01*
X136733280Y-109499400D02*
X136702800Y-109461300D01*
X136702800Y-109461300D02*
X136672320Y-109420660D01*
X136672320Y-109420660D02*
X136641840Y-109382560D01*
X136641840Y-109382560D02*
X136613900Y-109344460D01*
X136613900Y-109344460D02*
X136585960Y-109308900D01*
X136585960Y-109308900D02*
X136558020Y-109273340D01*
X136558020Y-109273340D02*
X136532620Y-109240320D01*
X136532620Y-109240320D02*
X136507220Y-109209840D01*
X136507220Y-109209840D02*
X136486900Y-109181900D01*
X136486900Y-109181900D02*
X136466580Y-109156500D01*
X136466580Y-109156500D02*
X136448800Y-109133640D01*
X136448800Y-109133640D02*
X136436100Y-109115860D01*
X136436100Y-109115860D02*
X136425940Y-109100620D01*
X136425940Y-109100620D02*
X136418320Y-109090460D01*
X136418320Y-109090460D02*
X136415780Y-109087920D01*
X136415780Y-109087920D02*
X136413240Y-109085380D01*
X136413240Y-109085380D02*
X136413240Y-109080300D01*
X136413240Y-109080300D02*
X136415780Y-109067600D01*
X136415780Y-109067600D02*
X136418320Y-109052360D01*
X136418320Y-109052360D02*
X136420860Y-109034580D01*
X136420860Y-109034580D02*
X136428480Y-109016800D01*
X136428480Y-109016800D02*
X136433560Y-109001560D01*
X136433560Y-109001560D02*
X136438640Y-108988860D01*
X136438640Y-108988860D02*
X136453880Y-108960920D01*
X136453880Y-108960920D02*
X136474200Y-108940600D01*
X136474200Y-108940600D02*
X136497060Y-108925360D01*
X136497060Y-108925360D02*
X136525000Y-108915200D01*
X136525000Y-108915200D02*
X136558020Y-108910120D01*
X136558020Y-108910120D02*
X136578340Y-108910120D01*
X136578340Y-108910120D02*
X136613900Y-108915200D01*
X136613900Y-108915200D02*
X136646920Y-108927900D01*
X136646920Y-108927900D02*
X136677400Y-108948220D01*
X136677400Y-108948220D02*
X136707880Y-108973620D01*
X136707880Y-108973620D02*
X136723120Y-108986320D01*
X136723120Y-108986320D02*
X136735820Y-109001560D01*
X136735820Y-109001560D02*
X136748520Y-109019340D01*
X136748520Y-109019340D02*
X136761220Y-109042200D01*
X136761220Y-109042200D02*
X136786620Y-109087920D01*
X136786620Y-109087920D02*
X136809480Y-109138720D01*
X136809480Y-109138720D02*
X136832340Y-109194600D01*
X136832340Y-109194600D02*
X136855200Y-109258100D01*
X136855200Y-109258100D02*
X136875520Y-109329220D01*
X136875520Y-109329220D02*
X136895840Y-109402880D01*
X136895840Y-109402880D02*
X136913620Y-109484160D01*
X136913620Y-109484160D02*
X136931400Y-109567980D01*
X136931400Y-109567980D02*
X136946640Y-109656880D01*
X136946640Y-109656880D02*
X136961880Y-109750860D01*
X136961880Y-109750860D02*
X136964420Y-109758480D01*
X136964420Y-109758480D02*
X136966960Y-109776260D01*
X136966960Y-109776260D02*
X136966960Y-109788960D01*
X136966960Y-109788960D02*
X136969500Y-109799120D01*
X136969500Y-109799120D02*
X136969500Y-109804200D01*
X136969500Y-109804200D02*
X136969500Y-109997240D01*
X136969500Y-109997240D02*
X136972040Y-110002320D01*
X136972040Y-110002320D02*
X136974580Y-110004860D01*
X136974580Y-110004860D02*
X136974580Y-110007400D01*
X136974580Y-110007400D02*
X136977120Y-110012480D01*
X136977120Y-110012480D02*
X136974580Y-110025180D01*
X136974580Y-110025180D02*
X136972040Y-110040420D01*
X136972040Y-110040420D02*
X136969500Y-110055660D01*
X136969500Y-110055660D02*
X136966960Y-110073440D01*
X136966960Y-110073440D02*
X136961880Y-110091220D01*
X136961880Y-110091220D02*
X136956800Y-110103920D01*
X136956800Y-110103920D02*
X136956800Y-110109000D01*
X136956800Y-110109000D02*
X136949180Y-110126780D01*
X136949180Y-110126780D02*
X136941560Y-110139480D01*
X136941560Y-110139480D02*
X136933940Y-110152180D01*
X136933940Y-110152180D02*
X136921240Y-110169960D01*
X136921240Y-110169960D02*
X136898380Y-110187740D01*
X136898380Y-110187740D02*
X136872980Y-110200440D01*
X136872980Y-110200440D02*
X136842500Y-110208060D01*
X136842500Y-110208060D02*
X136814560Y-110208060D01*
X136814560Y-110208060D02*
X136814560Y-110357920D01*
X136814560Y-110357920D02*
X136817100Y-110357920D01*
X136817100Y-110357920D02*
X136822180Y-110357920D01*
X136822180Y-110357920D02*
X136834880Y-110357920D01*
X136834880Y-110357920D02*
X136834880Y-110357920D01*
G36*
X136768840Y-110350300D02*
G01*
X136725660Y-110340140D01*
X136685020Y-110324900D01*
X136649460Y-110307120D01*
X136629140Y-110294420D01*
X136596120Y-110271560D01*
X136565640Y-110241080D01*
X136504680Y-110169960D01*
X136479280Y-110129320D01*
X136476740Y-110126780D01*
X136451340Y-110078520D01*
X136425940Y-110025180D01*
X136403080Y-109964220D01*
X136377680Y-109895640D01*
X136354820Y-109821980D01*
X136334500Y-109743240D01*
X136314180Y-109654340D01*
X136304020Y-109616240D01*
X136286240Y-109524800D01*
X136271000Y-109438440D01*
X136258300Y-109354620D01*
X136249541Y-109291120D01*
X136413240Y-109291120D01*
X136415780Y-109306360D01*
X136418320Y-109324140D01*
X136420860Y-109344460D01*
X136423400Y-109367320D01*
X136428480Y-109390180D01*
X136431020Y-109413040D01*
X136433560Y-109433360D01*
X136436100Y-109446060D01*
X136451340Y-109537500D01*
X136469120Y-109623860D01*
X136489440Y-109702600D01*
X136507220Y-109778800D01*
X136530080Y-109849920D01*
X136550400Y-109913420D01*
X136573260Y-109971840D01*
X136596120Y-110022640D01*
X136621520Y-110068360D01*
X136644380Y-110106460D01*
X136659620Y-110126780D01*
X136685020Y-110154720D01*
X136715500Y-110177580D01*
X136748520Y-110192820D01*
X136781540Y-110205520D01*
X136814560Y-110208060D01*
X136842500Y-110208060D01*
X136872980Y-110200440D01*
X136898380Y-110187740D01*
X136921240Y-110169960D01*
X136933940Y-110152180D01*
X136949180Y-110126780D01*
X136956800Y-110109000D01*
X136956800Y-110103920D01*
X136961880Y-110091220D01*
X136966960Y-110073440D01*
X136969500Y-110055660D01*
X136974580Y-110025180D01*
X136977120Y-110012480D01*
X136974580Y-110007400D01*
X136974580Y-110004860D01*
X136972040Y-110002320D01*
X136969500Y-109997240D01*
X136966960Y-109994700D01*
X136956800Y-109982000D01*
X136944100Y-109964220D01*
X136926320Y-109943900D01*
X136908540Y-109918500D01*
X136885680Y-109890560D01*
X136862820Y-109860080D01*
X136837420Y-109827060D01*
X136781540Y-109755940D01*
X136753600Y-109717840D01*
X136692640Y-109639100D01*
X136662160Y-109601000D01*
X136634220Y-109562900D01*
X136603740Y-109524800D01*
X136575800Y-109489240D01*
X136550400Y-109453680D01*
X136525000Y-109420660D01*
X136499600Y-109390180D01*
X136479280Y-109362240D01*
X136461500Y-109339380D01*
X136443720Y-109319060D01*
X136431020Y-109301280D01*
X136420860Y-109288580D01*
X136415780Y-109280960D01*
X136413240Y-109278420D01*
X136413240Y-109291120D01*
X136249541Y-109291120D01*
X136248140Y-109280960D01*
X136243060Y-109209840D01*
X136240520Y-109143800D01*
X136240520Y-109085380D01*
X136413240Y-109085380D01*
X136418320Y-109090460D01*
X136425940Y-109100620D01*
X136436100Y-109115860D01*
X136448800Y-109133640D01*
X136466580Y-109156500D01*
X136486900Y-109181900D01*
X136507220Y-109209840D01*
X136532620Y-109240320D01*
X136558020Y-109273340D01*
X136613900Y-109344460D01*
X136641840Y-109382560D01*
X136672320Y-109420660D01*
X136702800Y-109461300D01*
X136733280Y-109499400D01*
X136761220Y-109537500D01*
X136817100Y-109608620D01*
X136845040Y-109641640D01*
X136867900Y-109674660D01*
X136890760Y-109702600D01*
X136911080Y-109730540D01*
X136928860Y-109753400D01*
X136944100Y-109771180D01*
X136956800Y-109786420D01*
X136964420Y-109796580D01*
X136969500Y-109801660D01*
X136969500Y-109799120D01*
X136966960Y-109788960D01*
X136966960Y-109776260D01*
X136964420Y-109758480D01*
X136961880Y-109750860D01*
X136946640Y-109656880D01*
X136931400Y-109567980D01*
X136913620Y-109484160D01*
X136895840Y-109402880D01*
X136875520Y-109329220D01*
X136855200Y-109258100D01*
X136832340Y-109194600D01*
X136809480Y-109138720D01*
X136786620Y-109087920D01*
X136748520Y-109019340D01*
X136735820Y-109001560D01*
X136723120Y-108986320D01*
X136677400Y-108948220D01*
X136646920Y-108927900D01*
X136613900Y-108915200D01*
X136578340Y-108910120D01*
X136558020Y-108910120D01*
X136525000Y-108915200D01*
X136497060Y-108925360D01*
X136474200Y-108940600D01*
X136453880Y-108960920D01*
X136438640Y-108988860D01*
X136433560Y-109001560D01*
X136428480Y-109016800D01*
X136420860Y-109034580D01*
X136418320Y-109052360D01*
X136415780Y-109067600D01*
X136413240Y-109080300D01*
X136413240Y-109085380D01*
X136240520Y-109085380D01*
X136245600Y-109032040D01*
X136253220Y-108986320D01*
X136258300Y-108971080D01*
X136271000Y-108925360D01*
X136288780Y-108884720D01*
X136311640Y-108851700D01*
X136337040Y-108823760D01*
X136367520Y-108800900D01*
X136403080Y-108783120D01*
X136443720Y-108770420D01*
X136486900Y-108762800D01*
X136535160Y-108760260D01*
X136550400Y-108762800D01*
X136601200Y-108765340D01*
X136649460Y-108775500D01*
X136695180Y-108790740D01*
X136735820Y-108811060D01*
X136776460Y-108836460D01*
X136784080Y-108841540D01*
X136852660Y-108910120D01*
X136860280Y-108920280D01*
X136888220Y-108958380D01*
X136916160Y-109001560D01*
X136941560Y-109049820D01*
X136964420Y-109103160D01*
X136989820Y-109164120D01*
X137010140Y-109227620D01*
X137033000Y-109301280D01*
X137053320Y-109377480D01*
X137073640Y-109461300D01*
X137081260Y-109501940D01*
X137101580Y-109593380D01*
X137116820Y-109677200D01*
X137129520Y-109755940D01*
X137137140Y-109829600D01*
X137144760Y-109898180D01*
X137147300Y-109959140D01*
X137147300Y-110017560D01*
X137144760Y-110068360D01*
X137137140Y-110116620D01*
X137129520Y-110157260D01*
X137126980Y-110164880D01*
X137111740Y-110205520D01*
X137091420Y-110243620D01*
X137066020Y-110276640D01*
X137055860Y-110289340D01*
X137030460Y-110309660D01*
X137002520Y-110327440D01*
X136966960Y-110342680D01*
X136903460Y-110355380D01*
X136888220Y-110355380D01*
X136870440Y-110357920D01*
X136814560Y-110357920D01*
X136768840Y-110350300D01*
G37*
X136768840Y-110350300D02*
X136725660Y-110340140D01*
X136685020Y-110324900D01*
X136649460Y-110307120D01*
X136629140Y-110294420D01*
X136596120Y-110271560D01*
X136565640Y-110241080D01*
X136504680Y-110169960D01*
X136479280Y-110129320D01*
X136476740Y-110126780D01*
X136451340Y-110078520D01*
X136425940Y-110025180D01*
X136403080Y-109964220D01*
X136377680Y-109895640D01*
X136354820Y-109821980D01*
X136334500Y-109743240D01*
X136314180Y-109654340D01*
X136304020Y-109616240D01*
X136286240Y-109524800D01*
X136271000Y-109438440D01*
X136258300Y-109354620D01*
X136249541Y-109291120D01*
X136413240Y-109291120D01*
X136415780Y-109306360D01*
X136418320Y-109324140D01*
X136420860Y-109344460D01*
X136423400Y-109367320D01*
X136428480Y-109390180D01*
X136431020Y-109413040D01*
X136433560Y-109433360D01*
X136436100Y-109446060D01*
X136451340Y-109537500D01*
X136469120Y-109623860D01*
X136489440Y-109702600D01*
X136507220Y-109778800D01*
X136530080Y-109849920D01*
X136550400Y-109913420D01*
X136573260Y-109971840D01*
X136596120Y-110022640D01*
X136621520Y-110068360D01*
X136644380Y-110106460D01*
X136659620Y-110126780D01*
X136685020Y-110154720D01*
X136715500Y-110177580D01*
X136748520Y-110192820D01*
X136781540Y-110205520D01*
X136814560Y-110208060D01*
X136842500Y-110208060D01*
X136872980Y-110200440D01*
X136898380Y-110187740D01*
X136921240Y-110169960D01*
X136933940Y-110152180D01*
X136949180Y-110126780D01*
X136956800Y-110109000D01*
X136956800Y-110103920D01*
X136961880Y-110091220D01*
X136966960Y-110073440D01*
X136969500Y-110055660D01*
X136974580Y-110025180D01*
X136977120Y-110012480D01*
X136974580Y-110007400D01*
X136974580Y-110004860D01*
X136972040Y-110002320D01*
X136969500Y-109997240D01*
X136966960Y-109994700D01*
X136956800Y-109982000D01*
X136944100Y-109964220D01*
X136926320Y-109943900D01*
X136908540Y-109918500D01*
X136885680Y-109890560D01*
X136862820Y-109860080D01*
X136837420Y-109827060D01*
X136781540Y-109755940D01*
X136753600Y-109717840D01*
X136692640Y-109639100D01*
X136662160Y-109601000D01*
X136634220Y-109562900D01*
X136603740Y-109524800D01*
X136575800Y-109489240D01*
X136550400Y-109453680D01*
X136525000Y-109420660D01*
X136499600Y-109390180D01*
X136479280Y-109362240D01*
X136461500Y-109339380D01*
X136443720Y-109319060D01*
X136431020Y-109301280D01*
X136420860Y-109288580D01*
X136415780Y-109280960D01*
X136413240Y-109278420D01*
X136413240Y-109291120D01*
X136249541Y-109291120D01*
X136248140Y-109280960D01*
X136243060Y-109209840D01*
X136240520Y-109143800D01*
X136240520Y-109085380D01*
X136413240Y-109085380D01*
X136418320Y-109090460D01*
X136425940Y-109100620D01*
X136436100Y-109115860D01*
X136448800Y-109133640D01*
X136466580Y-109156500D01*
X136486900Y-109181900D01*
X136507220Y-109209840D01*
X136532620Y-109240320D01*
X136558020Y-109273340D01*
X136613900Y-109344460D01*
X136641840Y-109382560D01*
X136672320Y-109420660D01*
X136702800Y-109461300D01*
X136733280Y-109499400D01*
X136761220Y-109537500D01*
X136817100Y-109608620D01*
X136845040Y-109641640D01*
X136867900Y-109674660D01*
X136890760Y-109702600D01*
X136911080Y-109730540D01*
X136928860Y-109753400D01*
X136944100Y-109771180D01*
X136956800Y-109786420D01*
X136964420Y-109796580D01*
X136969500Y-109801660D01*
X136969500Y-109799120D01*
X136966960Y-109788960D01*
X136966960Y-109776260D01*
X136964420Y-109758480D01*
X136961880Y-109750860D01*
X136946640Y-109656880D01*
X136931400Y-109567980D01*
X136913620Y-109484160D01*
X136895840Y-109402880D01*
X136875520Y-109329220D01*
X136855200Y-109258100D01*
X136832340Y-109194600D01*
X136809480Y-109138720D01*
X136786620Y-109087920D01*
X136748520Y-109019340D01*
X136735820Y-109001560D01*
X136723120Y-108986320D01*
X136677400Y-108948220D01*
X136646920Y-108927900D01*
X136613900Y-108915200D01*
X136578340Y-108910120D01*
X136558020Y-108910120D01*
X136525000Y-108915200D01*
X136497060Y-108925360D01*
X136474200Y-108940600D01*
X136453880Y-108960920D01*
X136438640Y-108988860D01*
X136433560Y-109001560D01*
X136428480Y-109016800D01*
X136420860Y-109034580D01*
X136418320Y-109052360D01*
X136415780Y-109067600D01*
X136413240Y-109080300D01*
X136413240Y-109085380D01*
X136240520Y-109085380D01*
X136245600Y-109032040D01*
X136253220Y-108986320D01*
X136258300Y-108971080D01*
X136271000Y-108925360D01*
X136288780Y-108884720D01*
X136311640Y-108851700D01*
X136337040Y-108823760D01*
X136367520Y-108800900D01*
X136403080Y-108783120D01*
X136443720Y-108770420D01*
X136486900Y-108762800D01*
X136535160Y-108760260D01*
X136550400Y-108762800D01*
X136601200Y-108765340D01*
X136649460Y-108775500D01*
X136695180Y-108790740D01*
X136735820Y-108811060D01*
X136776460Y-108836460D01*
X136784080Y-108841540D01*
X136852660Y-108910120D01*
X136860280Y-108920280D01*
X136888220Y-108958380D01*
X136916160Y-109001560D01*
X136941560Y-109049820D01*
X136964420Y-109103160D01*
X136989820Y-109164120D01*
X137010140Y-109227620D01*
X137033000Y-109301280D01*
X137053320Y-109377480D01*
X137073640Y-109461300D01*
X137081260Y-109501940D01*
X137101580Y-109593380D01*
X137116820Y-109677200D01*
X137129520Y-109755940D01*
X137137140Y-109829600D01*
X137144760Y-109898180D01*
X137147300Y-109959140D01*
X137147300Y-110017560D01*
X137144760Y-110068360D01*
X137137140Y-110116620D01*
X137129520Y-110157260D01*
X137126980Y-110164880D01*
X137111740Y-110205520D01*
X137091420Y-110243620D01*
X137066020Y-110276640D01*
X137055860Y-110289340D01*
X137030460Y-110309660D01*
X137002520Y-110327440D01*
X136966960Y-110342680D01*
X136903460Y-110355380D01*
X136888220Y-110355380D01*
X136870440Y-110357920D01*
X136814560Y-110357920D01*
X136768840Y-110350300D01*
%TD*%
D17*
%TO.C,U8*%
X149499320Y-99504500D03*
X148498560Y-98503740D03*
X148498560Y-99504500D03*
X149499320Y-98503740D03*
X148998940Y-99004120D03*
%TD*%
D18*
%TO.C,P4*%
X144663160Y-113502440D03*
D19*
X146334480Y-113502440D03*
%TD*%
D18*
%TO.C,P3*%
X144663160Y-110502700D03*
D19*
X146334480Y-110502700D03*
%TD*%
D18*
%TO.C,P2*%
X144663160Y-107502960D03*
D19*
X146334480Y-107502960D03*
%TD*%
D18*
%TO.C,P1*%
X144663160Y-104503220D03*
D19*
X146334480Y-104503220D03*
%TD*%
D20*
%TO.C,P9*%
X152900380Y-105402380D03*
%TD*%
M02*
