%TF.GenerationSoftware,KiCad,Pcbnew,6.0.2-378541a8eb~116~ubuntu20.04.1*%
%TF.CreationDate,2022-03-13T20:33:59-06:00*%
%TF.ProjectId,Crazyflie contol board,4372617a-7966-46c6-9965-20636f6e746f,F*%
%TF.SameCoordinates,Original*%
%TF.FileFunction,Soldermask,Top*%
%TF.FilePolarity,Negative*%
%FSLAX46Y46*%
G04 Gerber Fmt 4.6, Leading zero omitted, Abs format (unit mm)*
G04 Created by KiCad (PCBNEW 6.0.2-378541a8eb~116~ubuntu20.04.1) date 2022-03-13 20:33:59*
%MOMM*%
%LPD*%
G01*
G04 APERTURE LIST*
G04 Aperture macros list*
%AMRoundRect*
0 Rectangle with rounded corners*
0 $1 Rounding radius*
0 $2 $3 $4 $5 $6 $7 $8 $9 X,Y pos of 4 corners*
0 Add a 4 corners polygon primitive as box body*
4,1,4,$2,$3,$4,$5,$6,$7,$8,$9,$2,$3,0*
0 Add four circle primitives for the rounded corners*
1,1,$1+$1,$2,$3*
1,1,$1+$1,$4,$5*
1,1,$1+$1,$6,$7*
1,1,$1+$1,$8,$9*
0 Add four rect primitives between the rounded corners*
20,1,$1+$1,$2,$3,$4,$5,0*
20,1,$1+$1,$4,$5,$6,$7,0*
20,1,$1+$1,$6,$7,$8,$9,0*
20,1,$1+$1,$8,$9,$2,$3,0*%
G04 Aperture macros list end*
%ADD10RoundRect,0.071120X-0.457200X0.457200X-0.457200X-0.457200X0.457200X-0.457200X0.457200X0.457200X0*%
%ADD11RoundRect,0.071120X-0.500380X0.350520X-0.500380X-0.350520X0.500380X-0.350520X0.500380X0.350520X0*%
%ADD12RoundRect,0.071120X0.571500X-0.317500X0.571500X0.317500X-0.571500X0.317500X-0.571500X-0.317500X0*%
%ADD13RoundRect,0.071120X-0.299720X0.199390X-0.299720X-0.199390X0.299720X-0.199390X0.299720X0.199390X0*%
%ADD14RoundRect,0.071120X0.299720X-0.199390X0.299720X0.199390X-0.299720X0.199390X-0.299720X-0.199390X0*%
%ADD15RoundRect,0.071120X-0.199390X-0.299720X0.199390X-0.299720X0.199390X0.299720X-0.199390X0.299720X0*%
%ADD16RoundRect,0.071120X0.317500X0.571500X-0.317500X0.571500X-0.317500X-0.571500X0.317500X-0.571500X0*%
%ADD17RoundRect,0.071120X0.199390X0.299720X-0.199390X0.299720X-0.199390X-0.299720X0.199390X-0.299720X0*%
%ADD18RoundRect,0.071120X-0.317500X-0.571500X0.317500X-0.571500X0.317500X0.571500X-0.317500X0.571500X0*%
%ADD19RoundRect,0.071120X-0.571500X0.317500X-0.571500X-0.317500X0.571500X-0.317500X0.571500X0.317500X0*%
%ADD20O,0.942340X0.391160*%
%ADD21O,0.391160X0.942340*%
%ADD22C,0.523240*%
%ADD23RoundRect,0.071120X0.849630X-0.849630X0.849630X0.849630X-0.849630X0.849630X-0.849630X-0.849630X0*%
%ADD24RoundRect,0.071120X0.000000X0.563960X-0.563960X0.000000X0.000000X-0.563960X0.563960X0.000000X0*%
%ADD25RoundRect,0.071120X0.563960X0.000000X0.000000X0.563960X-0.563960X0.000000X0.000000X-0.563960X0*%
%ADD26RoundRect,0.071120X0.000000X-0.563960X0.563960X0.000000X0.000000X0.563960X-0.563960X0.000000X0*%
%ADD27RoundRect,0.071120X0.599440X-0.400050X0.599440X0.400050X-0.599440X0.400050X-0.599440X-0.400050X0*%
%ADD28O,1.341120X0.942340*%
%ADD29RoundRect,0.071120X0.699770X-0.500380X0.699770X0.500380X-0.699770X0.500380X-0.699770X-0.500380X0*%
%ADD30O,1.541780X1.143000*%
%ADD31C,1.943100*%
%ADD32RoundRect,0.071120X-1.237479X0.529835X0.529835X-1.237479X1.237479X-0.529835X-0.529835X1.237479X0*%
%ADD33RoundRect,0.071120X0.599440X-0.800100X0.599440X0.800100X-0.599440X0.800100X-0.599440X-0.800100X0*%
%ADD34O,1.341120X1.742440*%
%ADD35RoundRect,0.071120X0.962672X0.213340X-0.653420X0.738440X-0.962672X-0.213340X0.653420X-0.738440X0*%
%ADD36RoundRect,0.071120X0.500380X-0.250190X0.500380X0.250190X-0.500380X0.250190X-0.500380X-0.250190X0*%
%ADD37RoundRect,0.071120X0.175260X-0.425450X0.175260X0.425450X-0.175260X0.425450X-0.175260X-0.425450X0*%
%ADD38RoundRect,0.071120X0.425450X0.175260X-0.425450X0.175260X-0.425450X-0.175260X0.425450X-0.175260X0*%
%ADD39O,1.742440X1.341120*%
G04 APERTURE END LIST*
D10*
%TO.C,Q1*%
X147985480Y-103502460D03*
X150017480Y-104391460D03*
X150017480Y-102613460D03*
%TD*%
%TO.C,Q2*%
X147985480Y-107002580D03*
X150017480Y-107891580D03*
X150017480Y-106113580D03*
%TD*%
%TO.C,Q3*%
X147985480Y-110502700D03*
X150017480Y-111391700D03*
X150017480Y-109613700D03*
%TD*%
%TO.C,Q4*%
X147985480Y-114002820D03*
X150017480Y-114891820D03*
X150017480Y-113113820D03*
%TD*%
D11*
%TO.C,U10*%
X151429720Y-93251020D03*
X151429720Y-94203520D03*
X151429720Y-95156020D03*
X153969720Y-95156020D03*
X153969720Y-94203520D03*
X153969720Y-93251020D03*
%TD*%
D12*
%TO.C,C34*%
X152999440Y-111264700D03*
X152999440Y-109740700D03*
%TD*%
D13*
%TO.C,L3*%
X133200140Y-109552740D03*
X133200140Y-110451900D03*
%TD*%
D14*
%TO.C,L2*%
X134200900Y-111353600D03*
X134200900Y-110454440D03*
%TD*%
D15*
%TO.C,L1*%
X132349240Y-111302800D03*
X133248400Y-111302800D03*
%TD*%
%TO.C,C9*%
X130649980Y-111302800D03*
X131549140Y-111302800D03*
%TD*%
D14*
%TO.C,C10*%
X129799080Y-111152940D03*
X129799080Y-110253780D03*
%TD*%
D16*
%TO.C,C11*%
X133162040Y-108303060D03*
X131638040Y-108303060D03*
%TD*%
D17*
%TO.C,C12*%
X132349240Y-109402880D03*
X131450080Y-109402880D03*
%TD*%
D16*
%TO.C,C13*%
X137261600Y-114802920D03*
X135737600Y-114802920D03*
%TD*%
D18*
%TO.C,C15*%
X138236960Y-114802920D03*
X139760960Y-114802920D03*
%TD*%
%TO.C,C16*%
X144538700Y-92003880D03*
X146062700Y-92003880D03*
%TD*%
D12*
%TO.C,C17*%
X135999220Y-89664540D03*
X135999220Y-88140540D03*
%TD*%
%TO.C,C18*%
X144299940Y-90764360D03*
X144299940Y-89240360D03*
%TD*%
D16*
%TO.C,C20*%
X140662660Y-86903560D03*
X139138660Y-86903560D03*
%TD*%
D19*
%TO.C,R14*%
X131500880Y-85641180D03*
X131500880Y-87165180D03*
%TD*%
%TO.C,R13*%
X129999740Y-85641180D03*
X129999740Y-87165180D03*
%TD*%
D16*
%TO.C,R22*%
X155661360Y-113502440D03*
X154137360Y-113502440D03*
%TD*%
%TO.C,R26*%
X152760680Y-101503480D03*
X151236680Y-101503480D03*
%TD*%
D12*
%TO.C,R27*%
X152999440Y-104264460D03*
X152999440Y-102740460D03*
%TD*%
D16*
%TO.C,R9*%
X132760720Y-104002840D03*
X131236720Y-104002840D03*
%TD*%
%TO.C,R8*%
X132760720Y-102504240D03*
X131236720Y-102504240D03*
%TD*%
D18*
%TO.C,R5*%
X125437900Y-87904320D03*
X126961900Y-87904320D03*
%TD*%
D12*
%TO.C,R4*%
X151500840Y-114764820D03*
X151500840Y-113240820D03*
%TD*%
%TO.C,R3*%
X151500840Y-111264700D03*
X151500840Y-109740700D03*
%TD*%
%TO.C,R2*%
X151500840Y-107764580D03*
X151500840Y-106240580D03*
%TD*%
%TO.C,R1*%
X151500840Y-104264460D03*
X151500840Y-102740460D03*
%TD*%
D20*
%TO.C,U2*%
X139400280Y-112003840D03*
X139397740Y-111500920D03*
X139397740Y-111000540D03*
X139397740Y-110502700D03*
X139397740Y-110002320D03*
D21*
X138498580Y-109103160D03*
X137998200Y-109103160D03*
X137497820Y-109103160D03*
X136997440Y-109103160D03*
X136499600Y-109103160D03*
D20*
X135600440Y-110002320D03*
X135600440Y-110502700D03*
X135600440Y-111005620D03*
X135600440Y-111503460D03*
X135600440Y-112006380D03*
D21*
X136499600Y-112903000D03*
X136999980Y-112903000D03*
X137500360Y-112903000D03*
X138000740Y-112903000D03*
X138501120Y-112903000D03*
%TD*%
D20*
%TO.C,U8*%
X150500080Y-99755960D03*
X150500080Y-99253040D03*
X150500080Y-98755200D03*
X150500080Y-98254820D03*
D21*
X149748240Y-97502980D03*
X149247860Y-97502980D03*
X148747480Y-97502980D03*
X148249640Y-97502980D03*
D20*
X147497800Y-98257360D03*
X147497800Y-98755200D03*
X147497800Y-99255580D03*
X147497800Y-99755960D03*
D21*
X148249640Y-100505260D03*
X148747480Y-100505260D03*
X149247860Y-100505260D03*
X149748240Y-100505260D03*
D22*
X149499320Y-99504500D03*
X148498560Y-98503740D03*
D23*
X148998940Y-99004120D03*
D22*
X148498560Y-99504500D03*
X149499320Y-98503740D03*
X148998940Y-99004120D03*
%TD*%
D24*
%TO.C,D7*%
X156028635Y-115972345D03*
X154968965Y-117032015D03*
%TD*%
D25*
%TO.C,D6*%
X155929575Y-86132915D03*
X154869905Y-85073245D03*
%TD*%
D26*
%TO.C,D5*%
X124069865Y-86033855D03*
X125129535Y-84974185D03*
%TD*%
D19*
%TO.C,R31*%
X149999700Y-94742000D03*
X149999700Y-96266000D03*
%TD*%
D12*
%TO.C,R24*%
X144899380Y-102765860D03*
X144899380Y-101241860D03*
%TD*%
D16*
%TO.C,R12*%
X134762240Y-114802920D03*
X133238240Y-114802920D03*
%TD*%
D19*
%TO.C,R11*%
X134099300Y-103741220D03*
X134099300Y-105265220D03*
%TD*%
D27*
%TO.C,P6*%
X129534920Y-106718100D03*
D28*
X128066800Y-106718100D03*
X129534920Y-105448100D03*
X128066800Y-105448100D03*
X129534920Y-104178100D03*
X128066800Y-104178100D03*
X129534920Y-102908100D03*
X128066800Y-102908100D03*
X129534920Y-101638100D03*
X128066800Y-101638100D03*
X129534920Y-100368100D03*
X128066800Y-100368100D03*
X129534920Y-99098100D03*
X128066800Y-99098100D03*
X129534920Y-97828100D03*
X128066800Y-97828100D03*
X129534920Y-96558100D03*
X128066800Y-96558100D03*
X129534920Y-95288100D03*
X128066800Y-95288100D03*
%TD*%
D29*
%TO.C,P5*%
X138635740Y-106502200D03*
D30*
X136964420Y-106502200D03*
%TD*%
D19*
%TO.C,R10*%
X135600440Y-103741220D03*
X135600440Y-105265220D03*
%TD*%
D16*
%TO.C,C33*%
X145361660Y-99603560D03*
X143837660Y-99603560D03*
%TD*%
D31*
%TO.C,PCB_EDGE2*%
X156999940Y-84002880D03*
%TD*%
D18*
%TO.C,R6*%
X151338280Y-85803740D03*
X152862280Y-85803740D03*
%TD*%
D12*
%TO.C,R25*%
X146400520Y-102765860D03*
X146400520Y-101241860D03*
%TD*%
D32*
%TO.C,Y1*%
X128832691Y-112269189D03*
X124166549Y-116935331D03*
%TD*%
D29*
%TO.C,P8*%
X127436880Y-90700860D03*
D30*
X125765560Y-90700860D03*
%TD*%
D33*
%TO.C,BT1*%
X152699720Y-99250500D03*
D34*
X152699720Y-97350580D03*
%TD*%
D18*
%TO.C,R36*%
X143837660Y-98102420D03*
X145361660Y-98102420D03*
%TD*%
%TO.C,R37*%
X144838420Y-95603060D03*
X146362420Y-95603060D03*
%TD*%
D35*
%TO.C,SW1*%
X154543524Y-91214700D03*
X155656516Y-87789260D03*
%TD*%
D19*
%TO.C,C24*%
X133799580Y-91340940D03*
X133799580Y-92864940D03*
%TD*%
D36*
%TO.C,U5*%
X129550160Y-89029540D03*
X129550160Y-90279220D03*
X129550160Y-91528900D03*
X129550160Y-92778580D03*
X132049520Y-92778580D03*
X132049520Y-91528900D03*
X132059680Y-90279220D03*
X132049520Y-89029540D03*
%TD*%
D31*
%TO.C,PCB_EDGE1*%
X122999500Y-84002880D03*
%TD*%
D13*
%TO.C,R39*%
X142400020Y-103299260D03*
X142400020Y-104198420D03*
%TD*%
%TO.C,R40*%
X141500860Y-103299260D03*
X141500860Y-104198420D03*
%TD*%
%TO.C,R41*%
X140599160Y-103299260D03*
X140599160Y-104198420D03*
%TD*%
%TO.C,R42*%
X139700000Y-103299260D03*
X139700000Y-104198420D03*
%TD*%
D31*
%TO.C,PCB_EDGE3*%
X156999940Y-118003320D03*
%TD*%
%TO.C,PCB_EDGE4*%
X122999500Y-118003320D03*
%TD*%
D37*
%TO.C,U3*%
X138351260Y-92549980D03*
X138851640Y-92549980D03*
X139352020Y-92549980D03*
X139849860Y-92549980D03*
X140350240Y-92549980D03*
X140850620Y-92549980D03*
D38*
X141622780Y-91653360D03*
X141622780Y-91152980D03*
X141622780Y-90652600D03*
X141622780Y-90154760D03*
X141622780Y-89654380D03*
X141622780Y-89154000D03*
D37*
X140850620Y-88257380D03*
X140350240Y-88257380D03*
X139849860Y-88257380D03*
X139352020Y-88257380D03*
X138851640Y-88257380D03*
X138351260Y-88257380D03*
D38*
X137576560Y-89154000D03*
X137576560Y-89654380D03*
X137576560Y-90154760D03*
X137576560Y-90652600D03*
X137576560Y-91152980D03*
X137576560Y-91653360D03*
%TD*%
D29*
%TO.C,P4*%
X144663160Y-113502440D03*
D30*
X146334480Y-113502440D03*
%TD*%
D29*
%TO.C,P3*%
X144663160Y-110502700D03*
D30*
X146334480Y-110502700D03*
%TD*%
D29*
%TO.C,P2*%
X144663160Y-107502960D03*
D30*
X146334480Y-107502960D03*
%TD*%
D29*
%TO.C,P1*%
X144663160Y-104503220D03*
D30*
X146334480Y-104503220D03*
%TD*%
D39*
%TO.C,P9*%
X152900380Y-105402380D03*
%TD*%
M02*
